<svg width="24" height="24" viewBox="0 0 24 24" fill="none" xmlns="http://www.w3.org/2000/svg">
<path d="M17.6 20L12.6 21.2C11.9 21.4 11.3 20.9 11.3 20.2V3.8C11.3 3.1 11.9 2.6 12.6 2.8L17.6 4C18.1 4.1 18.4 4.5 18.4 5V19C18.4 19.4 18.1 19.9 17.6 20Z" stroke="black" stroke-width="1.5" stroke-linecap="round" stroke-linejoin="round"/>
<path d="M9.10001 20.2H5.60001V4.1H9.10001" stroke="black" stroke-width="1.5" stroke-linecap="round" stroke-linejoin="round"/>
<path d="M13.6 13.4C14.1523 13.4 14.6 12.7732 14.6 12C14.6 11.2268 14.1523 10.6 13.6 10.6C13.0477 10.6 12.6 11.2268 12.6 12C12.6 12.7732 13.0477 13.4 13.6 13.4Z" fill="#231F20"/>
</svg>
