<svg width="24" height="24" viewBox="0 0 24 24" fill="none" xmlns="http://www.w3.org/2000/svg">
<path d="M2.75 21.25H21.25" stroke="black" stroke-width="1.5" stroke-linecap="round" stroke-linejoin="round"/>
<path d="M16.11 5.83H7.89C6.19 5.83 4.81 7.21 4.81 8.91V21.24H19.2V8.92C19.19 7.21 17.81 5.83 16.11 5.83Z" stroke="black" stroke-width="1.5" stroke-linecap="round" stroke-linejoin="round"/>
<path d="M12 17.14C10.86 17.14 9.94 18.06 9.94 19.2V21.04C9.94 21.16 10.04 21.26 10.16 21.26H13.84C13.96 21.26 14.06 21.16 14.06 21.04V19.2C14.06 18.06 13.14 17.14 12 17.14Z" stroke="black" stroke-width="1.5" stroke-linecap="round" stroke-linejoin="round"/>
<path d="M15.09 8.92H14.06V9.95H15.09V8.92Z" stroke="black" stroke-width="1.5" stroke-linecap="round" stroke-linejoin="round"/>
<path d="M9.95 8.92H8.92V9.95H9.95V8.92Z" stroke="black" stroke-width="1.5" stroke-linecap="round" stroke-linejoin="round"/>
<path d="M15.09 13.54H14.06V14.57H15.09V13.54Z" stroke="black" stroke-width="1.5" stroke-linecap="round" stroke-linejoin="round"/>
<path d="M9.95 13.54H8.92V14.57H9.95V13.54Z" stroke="black" stroke-width="1.5" stroke-linecap="round" stroke-linejoin="round"/>
<path d="M15.08 2.75H8.91001C7.77001 2.75 6.85001 3.67 6.85001 4.81V5.84H17.13V4.81C17.14 3.67 16.22 2.75 15.08 2.75Z" stroke="black" stroke-width="1.5" stroke-linecap="round" stroke-linejoin="round"/>
</svg>
