<svg width="24" height="24" viewBox="0 0 24 24" fill="none" xmlns="http://www.w3.org/2000/svg">
<path d="M11.1 16.16C13.0882 16.16 14.7 14.5482 14.7 12.56C14.7 10.5718 13.0882 8.95999 11.1 8.95999C9.11178 8.95999 7.5 10.5718 7.5 12.56C7.5 14.5482 9.11178 16.16 11.1 16.16Z" stroke="black" stroke-width="1.5" stroke-linecap="round" stroke-linejoin="round"/>
<path d="M13.88 15.34L16.5 17.96" stroke="black" stroke-width="1.5" stroke-linecap="round" stroke-linejoin="round"/>
<path d="M21.25 11.39V18.1C21.25 19.84 19.91 21.25 18.25 21.25H5.75C4.09 21.25 2.75 19.84 2.75 18.1V11.39C2.75 10.45 3.14 9.57 3.83 8.97L10.08 3.48C11.19 2.5 12.81 2.5 13.92 3.48L20.17 8.97C20.86 9.57 21.25 10.45 21.25 11.39Z" stroke="black" stroke-width="1.5" stroke-linecap="round" stroke-linejoin="round"/>
</svg>
