<svg width="24" height="24" viewBox="0 0 24 24" fill="none" xmlns="http://www.w3.org/2000/svg">
<path d="M17.05 11.79C16.8 11.01 16.11 10.46 15.3 10.39L14.28 10.3L13.87 9.34999C13.55 8.59999 12.81 8.12 12 8.12C11.18 8.12 10.45 8.61 10.13 9.36L9.72999 10.3L8.69999 10.39C7.88999 10.47 7.19999 11.02 6.94999 11.79C6.69999 12.57 6.93999 13.42 7.54999 13.95L8.31999 14.63L8.08999 15.64C7.90999 16.43 8.21999 17.26 8.87999 17.74C9.22999 18 9.63999 18.13 10.08 18.13C10.38 18.13 10.87 18 11.12 17.84L12 17.3L12.87 17.82C13.2 18.02 13.56 18.11 13.92 18.11C14.34 18.11 14.76 17.98 15.12 17.72C15.78 17.24 16.09 16.42 15.91 15.62L15.68 14.62L16.45 13.95C17.06 13.41 17.3 12.57 17.05 11.79Z" stroke="black" stroke-width="1.5" stroke-linecap="round" stroke-linejoin="round"/>
<path d="M21.25 11.39V18.1C21.25 19.84 19.91 21.25 18.25 21.25H5.75C4.09 21.25 2.75 19.84 2.75 18.1V11.39C2.75 10.45 3.14 9.57 3.83 8.97L10.08 3.48C11.19 2.5 12.81 2.5 13.92 3.48L20.17 8.97C20.86 9.57 21.25 10.45 21.25 11.39Z" stroke="black" stroke-width="1.5" stroke-linecap="round" stroke-linejoin="round"/>
</svg>
