<svg width="24" height="24" viewBox="0 0 24 24" fill="none" xmlns="http://www.w3.org/2000/svg">
<path d="M12 13.88C10.78 13.88 9.78999 14.87 9.78999 16.09C9.78999 17.31 10.78 18.31 12 18.31C13.22 18.31 14.21 17.32 14.21 16.09C14.21 14.87 13.22 13.88 12 13.88Z" stroke="black" stroke-width="1.5" stroke-miterlimit="10"/>
<path d="M12 13.46V7.44" stroke="black" stroke-width="1.5" stroke-linecap="round" stroke-linejoin="round"/>
<path d="M12 8.43H13.68" stroke="black" stroke-width="1.5" stroke-linecap="round" stroke-linejoin="round"/>
<path d="M12 10.28H13.68" stroke="black" stroke-width="1.5" stroke-linecap="round" stroke-linejoin="round"/>
<path d="M21.25 11.39V18.1C21.25 19.84 19.91 21.25 18.25 21.25H5.75C4.09 21.25 2.75 19.84 2.75 18.1V11.39C2.75 10.45 3.14 9.57 3.83 8.97L10.08 3.48C11.19 2.5 12.81 2.5 13.92 3.48L20.17 8.97C20.86 9.57 21.25 10.45 21.25 11.39Z" stroke="black" stroke-width="1.5" stroke-linecap="round" stroke-linejoin="round"/>
</svg>
