<svg width="24" height="24" viewBox="0 0 24 24" fill="none" xmlns="http://www.w3.org/2000/svg">
<path d="M19.19 20.31H4.79999C3.65999 20.31 2.73999 19.39 2.73999 18.25V14.14C2.73999 13 3.65999 12.08 4.79999 12.08H19.19C20.33 12.08 21.25 13 21.25 14.14V18.25C21.25 19.39 20.33 20.31 19.19 20.31Z" stroke="black" stroke-width="1.5" stroke-linecap="round" stroke-linejoin="round"/>
<path d="M12 6.77999C12.8505 6.77999 13.54 6.09052 13.54 5.24C13.54 4.38948 12.8505 3.7 12 3.7C11.1495 3.7 10.46 4.38948 10.46 5.24C10.46 6.09052 11.1495 6.77999 12 6.77999Z" stroke="black" stroke-width="1.5" stroke-linecap="round" stroke-linejoin="round"/>
<path d="M4.81 11.92L10.46 6.25999" stroke="black" stroke-width="1.5" stroke-linecap="round" stroke-linejoin="round"/>
<path d="M19.11 11.92L13.46 6.25999" stroke="black" stroke-width="1.5" stroke-linecap="round" stroke-linejoin="round"/>
<path d="M4 14.56C4 14.48 4.01999 14.41 4.04999 14.34C4.07999 14.27 4.12001 14.21 4.17001 14.15C4.22001 14.1 4.28001 14.06 4.35001 14.03C4.42001 14 4.49999 13.98 4.57999 13.98H5.84C6.08 13.98 6.31001 14.02 6.51001 14.11C6.72001 14.2 6.9 14.31 7.06 14.47C7.22 14.62 7.33999 14.8 7.42999 15.01C7.51999 15.22 7.57001 15.44 7.57001 15.68C7.57001 15.96 7.51001 16.22 7.39001 16.45C7.27001 16.68 7.10999 16.88 6.89999 17.04L7.20999 17.43C7.26999 17.49 7.31 17.55 7.34 17.62C7.37 17.69 7.38 17.76 7.38 17.84C7.38 17.91 7.37 17.99 7.34 18.06C7.31 18.13 7.27 18.19 7.22 18.25C7.16 18.31 7.10001 18.35 7.04001 18.38C6.97001 18.41 6.91 18.43 6.84 18.43C6.77 18.43 6.71001 18.42 6.64001 18.39C6.57001 18.36 6.51001 18.32 6.45001 18.27L5.70999 17.41H5.16V17.86C5.16 17.94 5.15 18.02 5.12 18.09C5.09 18.16 5.05 18.22 5 18.27C4.95 18.32 4.88 18.36 4.81 18.39C4.74 18.42 4.65999 18.43 4.57999 18.43C4.49999 18.43 4.42001 18.42 4.35001 18.39C4.28001 18.36 4.22001 18.32 4.17001 18.27C4.12001 18.22 4.07999 18.16 4.04999 18.09C4.01999 18.02 4 17.94 4 17.86V14.56ZM5.17001 15.15V16.23H5.87C5.94 16.23 6.00001 16.22 6.07001 16.19C6.13001 16.16 6.18999 16.12 6.23999 16.07C6.28999 16.02 6.33 15.96 6.37 15.89C6.4 15.82 6.42001 15.75 6.42001 15.68C6.42001 15.6 6.4 15.53 6.37 15.47C6.34 15.41 6.28999 15.35 6.23999 15.3C6.18999 15.25 6.13 15.22 6.06 15.19C5.99 15.16 5.92999 15.15 5.85999 15.15H5.17001Z" fill="black"/>
<path d="M8.54001 18.41C8.46001 18.4 8.38999 18.38 8.32999 18.35C8.26999 18.32 8.21 18.28 8.16 18.23C8.11 18.18 8.06999 18.12 8.04999 18.06C8.01999 17.99 8.01001 17.92 8.01001 17.84V14.56C8.01001 14.48 8.03 14.41 8.06 14.34C8.09 14.27 8.12999 14.21 8.17999 14.15C8.22999 14.1 8.28999 14.06 8.35999 14.03C8.42999 14 8.51 13.98 8.59 13.98H10.75C10.83 13.98 10.91 14 10.98 14.03C11.05 14.06 11.11 14.1 11.16 14.15C11.21 14.2 11.25 14.26 11.28 14.34C11.31 14.41 11.32 14.49 11.32 14.56C11.32 14.64 11.31 14.72 11.28 14.79C11.25 14.86 11.21 14.92 11.16 14.98C11.11 15.03 11.05 15.07 10.98 15.1C10.91 15.13 10.83 15.14 10.75 15.14H9.17999V15.54H10.48C10.56 15.54 10.64 15.55 10.71 15.58C10.78 15.61 10.84 15.65 10.9 15.71C10.95 15.76 10.99 15.83 11.02 15.9C11.05 15.97 11.06 16.05 11.06 16.13C11.06 16.21 11.04 16.29 11.02 16.35C10.99 16.42 10.95 16.48 10.9 16.53C10.85 16.58 10.79 16.62 10.71 16.65C10.64 16.68 10.56 16.69 10.48 16.69H9.17999V17.23H10.75C10.83 17.23 10.91 17.25 10.98 17.28C11.05 17.31 11.11 17.35 11.16 17.41C11.21 17.46 11.25 17.53 11.28 17.6C11.31 17.67 11.32 17.75 11.32 17.83C11.32 17.91 11.31 17.99 11.28 18.06C11.25 18.13 11.21 18.19 11.16 18.24C11.11 18.29 11.05 18.33 10.98 18.36C10.91 18.39 10.83 18.4 10.75 18.4H8.54001V18.41Z" fill="black"/>
<path d="M12.94 16.03V17.84C12.94 17.92 12.93 18 12.89 18.07C12.86 18.14 12.82 18.2 12.77 18.25C12.72 18.3 12.65 18.34 12.58 18.37C12.51 18.4 12.43 18.41 12.35 18.41C12.27 18.41 12.19 18.4 12.12 18.37C12.05 18.34 11.99 18.3 11.93 18.25C11.88 18.2 11.84 18.14 11.81 18.07C11.78 18 11.76 17.92 11.76 17.84V14.58C11.76 14.5 11.77 14.43 11.8 14.36C11.83 14.29 11.87 14.23 11.92 14.17C11.97 14.11 12.03 14.07 12.1 14.04C12.17 14.01 12.25 13.99 12.34 13.99C12.52 13.99 12.67 14.06 12.8 14.21L14.7 16.33V14.57C14.7 14.49 14.72 14.41 14.75 14.35C14.78 14.28 14.82 14.22 14.88 14.17C14.94 14.12 15 14.08 15.07 14.05C15.14 14.02 15.22 14.01 15.3 14.01C15.38 14.01 15.46 14.02 15.53 14.05C15.6 14.08 15.66 14.12 15.71 14.17C15.76 14.22 15.8 14.28 15.83 14.35C15.86 14.42 15.87 14.49 15.87 14.57V17.85C15.87 17.93 15.85 18 15.83 18.07C15.8 18.14 15.76 18.2 15.71 18.25C15.66 18.3 15.6 18.34 15.52 18.37C15.45 18.4 15.37 18.41 15.28 18.41H15.24C15.16 18.4 15.1 18.38 15.04 18.34C14.98 18.3 14.93 18.25 14.87 18.18L12.94 16.03Z" fill="black"/>
<path d="M18.73 15.15V17.84C18.73 17.92 18.71 18 18.68 18.07C18.65 18.14 18.61 18.2 18.55 18.25C18.5 18.3 18.43 18.34 18.36 18.37C18.29 18.4 18.21 18.41 18.13 18.41C18.05 18.41 17.98 18.4 17.91 18.37C17.84 18.34 17.78 18.3 17.73 18.25C17.68 18.2 17.64 18.14 17.61 18.07C17.58 18 17.56 17.93 17.56 17.84V15.15H16.87C16.79 15.15 16.71 15.13 16.64 15.1C16.57 15.07 16.51 15.03 16.46 14.97C16.41 14.92 16.37 14.85 16.34 14.78C16.31 14.71 16.3 14.63 16.3 14.55C16.3 14.47 16.31 14.39 16.34 14.32C16.37 14.25 16.41 14.19 16.46 14.14C16.51 14.09 16.57 14.05 16.64 14.02C16.71 13.99 16.79 13.98 16.87 13.98H19.41C19.49 13.98 19.56 14 19.63 14.03C19.7 14.06 19.76 14.1 19.82 14.16C19.87 14.21 19.91 14.28 19.94 14.35C19.97 14.42 19.99 14.5 19.99 14.58C19.99 14.66 19.97 14.74 19.94 14.8C19.91 14.87 19.87 14.93 19.82 14.98C19.77 15.03 19.71 15.07 19.63 15.1C19.56 15.13 19.48 15.14 19.41 15.14H18.73V15.15Z" fill="black"/>
</svg>
