<svg width="24" height="24" viewBox="0 0 24 24" fill="none" xmlns="http://www.w3.org/2000/svg">
<path d="M8.2 10.12C9.35 9.41 10.7 9 12.13 9C13.48 9 14.74 9.35 15.83 9.97" stroke="black" stroke-width="1.5" stroke-linecap="round" stroke-linejoin="round"/>
<path d="M10.2 13.31C10.77 12.95 11.45 12.75 12.17 12.75C12.84 12.75 13.48 12.92 14.02 13.24" stroke="black" stroke-width="1.5" stroke-linecap="round" stroke-linejoin="round"/>
<path d="M12.2183 17.64C11.6623 17.64 11.2 17.1852 11.2 16.63C11.2 16.0748 11.6489 15.62 12.2049 15.62H12.2183C12.7744 15.62 13.23 16.0748 13.23 16.63C13.23 17.1919 12.7744 17.64 12.2183 17.64Z" fill="black"/>
<path d="M21.25 11.39V18.1C21.25 19.84 19.91 21.25 18.25 21.25H5.75C4.09 21.25 2.75 19.84 2.75 18.1V11.39C2.75 10.45 3.14 9.57 3.83 8.97L10.08 3.48C11.19 2.5 12.81 2.5 13.92 3.48L20.17 8.97C20.86 9.57 21.25 10.45 21.25 11.39Z" stroke="black" stroke-width="1.5" stroke-linecap="round" stroke-linejoin="round"/>
</svg>
