<svg width="24" height="24" viewBox="0 0 24 24" fill="none" xmlns="http://www.w3.org/2000/svg">
<path d="M12 2C6.49 2 2 6.49 2 12C2 17.51 6.49 22 12 22C17.51 22 22 17.51 22 12C22 6.49 17.51 2 12 2ZM10.82 12.64C10.91 12.84 11.02 13.02 11.17 13.18C11.32 13.33 11.49 13.45 11.69 13.54C11.89 13.64 12.11 13.68 12.34 13.69C12.57 13.69 12.79 13.66 12.98 13.58C13.18 13.5 13.37 13.37 13.56 13.19C13.64 13.11 13.74 13.05 13.85 13.01C13.96 12.97 14.08 12.94 14.2 12.94C14.31 12.94 14.43 12.96 14.54 13C14.65 13.04 14.75 13.1 14.83 13.18C14.92 13.27 14.99 13.37 15.03 13.48C15.07 13.59 15.09 13.71 15.09 13.82C15.09 13.94 15.07 14.05 15.03 14.17C14.99 14.28 14.92 14.37 14.84 14.46C14.49 14.8 14.1 15.07 13.67 15.24C13.24 15.41 12.79 15.5 12.33 15.5C12.02 15.5 11.72 15.46 11.43 15.37C11.13 15.29 10.86 15.17 10.61 15.02C10.35 14.87 10.12 14.69 9.91 14.48C9.69 14.26 9.50999 14.03 9.35999 13.77C9.20999 13.51 9.09001 13.23 9.01001 12.93C8.93001 12.63 8.88 12.33 8.88 12C8.88 11.7 8.92 11.4 9 11.11C9.08 10.81 9.19 10.54 9.34 10.28C9.48 10.02 9.66 9.78 9.87 9.56C10.08 9.35 10.31 9.16 10.57 9C10.83 8.84 11.11 8.72 11.41 8.63C11.72 8.54 12.04 8.5 12.38 8.5C12.83 8.5 13.27 8.58 13.69 8.75C14.12 8.92 14.51 9.18 14.86 9.52C14.94 9.61 15.01 9.71 15.05 9.81C15.09 9.92 15.12 10.03 15.12 10.15C15.12 10.26 15.09 10.37 15.05 10.48C15 10.59 14.94 10.69 14.85 10.78C14.76 10.86 14.67 10.93 14.56 10.98C14.44 11.02 14.33 11.05 14.21 11.05C14.1 11.05 13.98 11.03 13.88 10.99C13.77 10.95 13.67 10.88 13.58 10.8C13.41 10.63 13.22 10.5 13.02 10.42C12.81 10.35 12.6 10.31 12.37 10.31C12.15 10.31 11.94 10.35 11.74 10.44C11.54 10.52 11.36 10.64 11.2 10.79C11.05 10.94 10.93 11.12 10.83 11.32C10.74 11.53 10.7 11.75 10.7 11.99C10.7 12.22 10.74 12.43 10.82 12.64ZM7.84 7.84C8.39 7.84 8.84 8.29 8.84 8.84C8.84 9.39 8.39 9.84 7.84 9.84C7.29 9.84 6.84 9.39 6.84 8.84C6.84 8.29 7.29 7.84 7.84 7.84Z" fill="black"/>
</svg>
