<svg width="24" height="24" viewBox="0 0 24 24" fill="none" xmlns="http://www.w3.org/2000/svg">
<path d="M19.72 11.77C19.5697 11.591 19.4059 11.4239 19.23 11.27C18.3632 10.537 17.2413 10.1774 16.11 10.27C16.0722 9.4132 15.829 8.57803 15.4009 7.8349C14.9728 7.09177 14.3723 6.46245 13.65 6C13.2156 5.71319 12.7402 5.49402 12.24 5.35C11.6705 5.17103 11.077 5.07998 10.48 5.08H10.36C9.63519 5.06918 8.91562 5.20413 8.24399 5.47682C7.57237 5.74952 6.9624 6.1544 6.4503 6.66743C5.9382 7.18046 5.53443 7.79117 5.26295 8.46329C4.99148 9.13541 4.85785 9.85523 4.86999 10.58C3.83988 11.0826 3.00866 11.9169 2.5099 12.9489C2.01114 13.9809 1.87382 15.1506 2.11999 16.27C2.26091 16.974 2.55177 17.6393 2.97281 18.2208C3.39385 18.8024 3.93518 19.2864 4.55999 19.64C5.22359 20.0102 5.97013 20.2063 6.72999 20.21H7.06999H16.7C19.18 20.21 21.03 17.58 21.03 15.21C21.0378 14.4456 20.8701 13.6895 20.54 13C20.3269 12.5529 20.0507 12.1387 19.72 11.77Z" fill="black"/>
<path d="M20.8 7.61C20.2949 7.18102 19.662 6.93137 19 6.9C18.8784 6.00866 18.4266 5.19546 17.7339 4.62138C17.0413 4.04729 16.1584 3.75416 15.26 3.8C14.445 3.80642 13.6533 4.07266 13 4.56C14.0084 4.93768 14.9044 5.5652 15.604 6.38375C16.3036 7.20231 16.784 8.18509 17 9.24C18.066 9.36784 19.0709 9.80598 19.89 10.5C20.0507 10.6387 20.2043 10.7856 20.35 10.94C20.7393 11.3494 21.0753 11.8063 21.35 12.3C21.7797 11.6846 22.0069 10.9506 22 10.2C21.9907 9.70864 21.8792 9.2246 21.6726 8.77869C21.466 8.33278 21.1688 7.93477 20.8 7.61Z" fill="black"/>
</svg>
