<svg width="24" height="24" viewBox="0 0 24 24" fill="none" xmlns="http://www.w3.org/2000/svg">
<path d="M12 2C6.49 2 2 6.49 2 12C2 17.51 6.49 22 12 22C17.51 22 22 17.51 22 12C22 6.49 17.51 2 12 2ZM15.02 9.78C14.97 9.89 14.91 9.99 14.82 10.07C14.74 10.15 14.65 10.22 14.54 10.27C14.43 10.32 14.31 10.34 14.18 10.34H11.92V11.25H13.69C13.82 11.25 13.94 11.27 14.05 11.32C14.16 11.37 14.26 11.44 14.34 11.53C14.42 11.61 14.49 11.71 14.54 11.83C14.58 11.94 14.61 12.06 14.61 12.19C14.61 12.32 14.58 12.44 14.54 12.55C14.49 12.66 14.42 12.75 14.34 12.83C14.26 12.91 14.16 12.97 14.05 13.01C13.94 13.06 13.82 13.08 13.69 13.08H11.92V14.59C11.92 14.72 11.89 14.84 11.85 14.95C11.8 15.06 11.73 15.15 11.65 15.23C11.57 15.32 11.47 15.38 11.35 15.43C11.24 15.48 11.12 15.5 10.99 15.5C10.87 15.5 10.75 15.48 10.63 15.43C10.52 15.38 10.42 15.32 10.34 15.23C10.26 15.15 10.19 15.06 10.15 14.95C10.1 14.84 10.07 14.72 10.07 14.59V9.39C10.08 9.29 10.1 9.19 10.13 9.08C10.16 8.98 10.21 8.88 10.29 8.8C10.36 8.71 10.45 8.64 10.57 8.59C10.68 8.53 10.82 8.5 10.99 8.5H14.18C14.31 8.5 14.43 8.52 14.54 8.57C14.65 8.62 14.75 8.69 14.83 8.77C14.91 8.85 14.98 8.95 15.02 9.06C15.07 9.18 15.09 9.29 15.09 9.42C15.09 9.55 15.07 9.67 15.02 9.78ZM8.19 7.5C8.75 7.5 9.19 7.95 9.19 8.5C9.19 9.05 8.75 9.5 8.19 9.5C7.64 9.5 7.19 9.05 7.19 8.5C7.19 7.95 7.64 7.5 8.19 7.5Z" fill="black"/>
</svg>
