<svg width="24" height="24" viewBox="0 0 24 24" fill="none" xmlns="http://www.w3.org/2000/svg">
<path d="M16.41 19.64C13.5 18.23 11.63 15.23 11.63 12C11.63 8.77 13.5 5.77 16.41 4.36C16.66 4.24 16.83 3.97 16.83 3.69C16.83 3.4 16.67 3.14 16.41 3.01C15.04 2.34 13.57 2 12.03 2C6.52003 2 2.03003 6.49 2.03003 12C2.03003 17.51 6.52003 22 12.03 22C13.57 22 15.04 21.66 16.41 20.99C16.67 20.86 16.83 20.6 16.83 20.31C16.83 20.03 16.66 19.76 16.41 19.64Z" fill="black"/>
<path d="M16.58 11.27C16.58 11.27 16.57 11.27 16.57 11.26L16.21 11.13C16.13 11.11 16.07 11.04 16.04 10.97L15.92 10.63C15.81 10.33 15.5 10.11 15.18 10.11C14.86 10.11 14.55 10.32 14.44 10.62L14.31 10.97C14.28 11.04 14.22 11.11 14.14 11.13L13.79 11.26C13.5 11.37 13.27 11.68 13.27 12C13.27 12.31 13.49 12.63 13.79 12.74L14.14 12.86C14.22 12.89 14.28 12.96 14.31 13.03L14.45 13.39C14.56 13.68 14.87 13.89 15.18 13.89C15.49 13.89 15.8 13.68 15.91 13.38L16.04 13.03C16.07 12.95 16.13 12.89 16.21 12.87L16.58 12.73C16.87 12.62 17.08 12.31 17.08 12C17.08 11.69 16.87 11.38 16.58 11.27Z" fill="black"/>
<path d="M21.45 16.56L21.1 16.43C21.02 16.41 20.96 16.34 20.93 16.27L20.8 15.93C20.7 15.63 20.38 15.41 20.06 15.41C19.75 15.41 19.44 15.62 19.33 15.92L19.2 16.27C19.17 16.34 19.11 16.41 19.03 16.43L18.66 16.57C18.37 16.68 18.16 16.99 18.16 17.3C18.16 17.62 18.38 17.93 18.67 18.04L19.03 18.16C19.11 18.19 19.17 18.25 19.2 18.33L19.33 18.69C19.44 18.98 19.75 19.19 20.06 19.19C20.38 19.19 20.69 18.98 20.8 18.68L20.93 18.33C20.96 18.25 21.02 18.19 21.1 18.16L21.45 18.04C21.75 17.93 21.97 17.62 21.97 17.3C21.97 16.98 21.75 16.67 21.45 16.56Z" fill="black"/>
<path d="M21.45 6.24L21.1 6.11C21.02 6.08 20.96 6.02 20.93 5.94L20.8 5.6C20.7 5.3 20.38 5.08 20.06 5.08C19.75 5.08 19.44 5.3 19.33 5.59L19.2 5.94C19.17 6.02 19.11 6.08 19.03 6.11L18.66 6.25C18.37 6.36 18.16 6.67 18.16 6.98C18.16 7.29 18.38 7.61 18.67 7.71L19.03 7.84C19.11 7.87 19.17 7.93 19.2 8.01L19.33 8.37C19.44 8.66 19.75 8.87 20.06 8.87C20.38 8.87 20.69 8.65 20.8 8.36L20.93 8.01C20.96 7.93 21.02 7.87 21.1 7.84L21.45 7.71C21.75 7.61 21.97 7.29 21.97 6.98C21.97 6.66 21.75 6.35 21.45 6.24Z" fill="black"/>
</svg>
