<svg width="24" height="24" viewBox="0 0 24 24" fill="none" xmlns="http://www.w3.org/2000/svg">
<path d="M12 9C11.3 9 10.64 9.31 10.14 9.86C9.06002 11.04 9.06002 12.96 10.14 14.14C10.64 14.69 11.32 14.97 12 14.97C12.68 14.97 13.36 14.69 13.86 14.14C14.94 12.96 14.94 11.04 13.86 9.85C13.36 9.31 12.7 9 12 9Z" fill="black"/>
<path d="M21.98 6.27L21.96 6.18C21.95 6.14 21.93 6.08 21.91 6.03C21.91 6.02 21.9 6 21.9 5.99C21.9 5.99 21.86 5.89 21.85 5.88C21.84 5.86 21.79 5.77 21.78 5.75C21.78 5.75 21.72 5.66 21.71 5.65C21.7 5.63 21.64 5.55 21.62 5.53C19.53 3.25 16.76 2 13.81 2C10.86 2 8.09 3.25 6.00001 5.54L5.38001 6.31C5.37001 6.31 5.37 6.32 5.37 6.32C4.23 7.9 3.59 9.88 3.56 11.91L3.57001 12.36L3.56 12.4038L3.57001 12.47C3.58001 12.48 3.57999 12.57 3.57999 12.57L3.59 12.75L3.60001 12.88L3.9 14.59C3.91 14.59 3.93 14.69 3.93 14.69C3.93 14.69 3.97001 14.82 3.97001 14.83L4.07001 15.14L4.10001 15.23L4.32001 15.82C4.33001 15.82 4.36 15.91 4.37 15.92L4.41001 16.01L4.45002 16.1L4.50001 16.2C4.50001 16.21 4.50999 16.22 4.51999 16.24C4.28999 16.21 4.08 16.17 3.87 16.1C3.78 16.07 3.69002 16.04 3.67002 16.04C3.64002 16.04 3.61 16.03 3.59 16.03C3.56 16.03 3.50002 16.02 3.48002 16.02C3.39002 16.01 3.29002 16.01 3.17002 16.03C2.87002 16.08 2.60001 16.23 2.38001 16.46C1.93001 16.96 1.88 17.72 2.24 18.28C2.25 18.3 2.28999 18.35 2.29999 18.37C2.31999 18.39 2.37001 18.45 2.38001 18.47C4.47001 20.75 7.24001 22 10.19 22C13.14 22 15.91 20.75 17.99 18.47L18.13 18.31C18.13 18.31 18.2 18.23 18.2 18.22C18.21 18.22 18.27 18.15 18.27 18.14L18.64 17.67C19.71 16.19 20.32 14.41 20.42 12.48L20.43 12.34V12.2579V12.2L20.44 12.1V11.96L20.42 11.34C20.38 10.77 20.29 10.19 20.16 9.64C20.15 9.63 20.15 9.62 20.15 9.61L20.1 9.41C20.09 9.4 20.09 9.39 20.09 9.38L20.05 9.26C20.05 9.24 20.04 9.21 20.04 9.19C19.95 8.91 19.86 8.63 19.78 8.46C19.77 8.43 19.76 8.38 19.75 8.35L19.56 7.92C19.56 7.92 19.5 7.79 19.5 7.78C19.5 7.78 19.49 7.77 19.48 7.75C19.7 7.78 19.91 7.83 20.1 7.88C20.15 7.91 20.2 7.92 20.25 7.94C20.28 7.95 20.36 7.96 20.39 7.97C20.43 7.98 20.48 7.98 20.48 7.98C20.54 7.99 20.71 7.98 20.76 7.98C20.78 7.97 20.86 7.96 20.88 7.96C20.91 7.95 21.05 7.91 21.08 7.9C21.09 7.89 21.11 7.89 21.11 7.88C21.17 7.87 21.23 7.84 21.28 7.81C21.29 7.8 21.31 7.79 21.31 7.79C21.33 7.78 21.36 7.76 21.38 7.74C21.41 7.72 21.44 7.7 21.45 7.69L21.6 7.56C21.61 7.54 21.66 7.49 21.67 7.47C21.68 7.46 21.72 7.4 21.73 7.39C21.76 7.35 21.78 7.32 21.82 7.24C21.83 7.24 21.88 7.12 21.88 7.11C21.91 7.07 21.94 6.97 21.95 6.92C21.95 6.91 21.97 6.82 21.98 6.8C21.98 6.79 21.99 6.69 21.99 6.68C22 6.65 22 6.56 22 6.53C22 6.47 22 6.46 22 6.46C22 6.42 21.98 6.31 21.98 6.27ZM14.97 15.16C14.18 16.02 13.13 16.5 12 16.5C10.87 16.5 9.82 16.02 9.03 15.15C7.44 13.42 7.44 10.59 9.03 8.84C9.82 7.98 10.87 7.5 12 7.5C13.13 7.5 14.18 7.98 14.97 8.84C16.56 10.59 16.56 13.42 14.97 15.16Z" fill="black"/>
</svg>
