<svg width="24" height="24" viewBox="0 0 24 24" fill="none" xmlns="http://www.w3.org/2000/svg">
<path d="M19.26 2.95L8.12003 2.09C7.59003 2.05 7.06002 2.24 6.68002 2.59C6.31002 2.93 6.11002 3.38 6.11002 3.87V4.11C6.03002 4.08 5.93002 4.06 5.83002 4.06H4.81003C4.71003 4.06 4.61003 4.08 4.53003 4.11V2.75C4.53003 2.34 4.19003 2 3.78003 2C3.36003 2 3.03003 2.34 3.03003 2.75V21.25C3.03003 21.66 3.36003 22 3.78003 22C4.19003 22 4.53003 21.66 4.53003 21.25V9.61C4.61003 9.65 4.71003 9.67 4.81003 9.67H6.11002V9.86C6.11002 10.34 6.31002 10.79 6.68002 11.13C7.03002 11.45 7.49003 11.63 7.97003 11.63H8.12003L19.26 10.77C20.22 10.7 20.97 9.92 20.97 9V4.72C20.97 3.8 20.22 3.02 19.26 2.95ZM6.11002 8.17H4.81003C4.71003 8.17 4.61003 8.19 4.53003 8.22V5.5C4.61003 5.53 4.71003 5.56 4.81003 5.56H5.83002C5.93002 5.56 6.03002 5.53 6.11002 5.5V8.17ZM15.02 9.59L12.06 9.82V3.9L15.02 4.13V9.59Z" fill="black"/>
</svg>
