<svg width="24" height="24" viewBox="0 0 24 24" fill="none" xmlns="http://www.w3.org/2000/svg">
<path d="M12 21C16.9706 21 21 16.9706 21 12C21 7.02944 16.9706 3 12 3C7.02944 3 3 7.02944 3 12C3 16.9706 7.02944 21 12 21Z" stroke="black" stroke-width="1.5" stroke-linecap="round" stroke-linejoin="round"/>
<path d="M11.66 13.03L10.97 12.34C10.78 12.15 10.78 11.85 10.97 11.66L11.66 10.97C11.85 10.78 12.15 10.78 12.34 10.97L13.03 11.66C13.22 11.85 13.22 12.15 13.03 12.34L12.34 13.03C12.15 13.22 11.85 13.22 11.66 13.03Z" fill="black"/>
<path d="M7.83 13.03L7.14 12.34C6.95 12.15 6.95 11.85 7.14 11.66L7.83 10.97C8.02 10.78 8.32 10.78 8.51 10.97L9.2 11.66C9.39 11.85 9.39 12.15 9.2 12.34L8.51 13.03C8.32 13.22 8.02 13.22 7.83 13.03Z" fill="black"/>
<path d="M15.49 13.03L14.8 12.34C14.61 12.15 14.61 11.85 14.8 11.66L15.49 10.97C15.68 10.78 15.98 10.78 16.17 10.97L16.86 11.66C17.05 11.85 17.05 12.15 16.86 12.34L16.17 13.03C15.98 13.22 15.68 13.22 15.49 13.03Z" fill="black"/>
<path d="M9.85 11L9.17 10.32C8.98 10.13 8.98 9.83 9.17 9.64L11.66 7.14C11.85 6.95 12.15 6.95 12.34 7.14L14.84 9.64C15.03 9.83 15.03 10.13 14.84 10.32L14.17 11C13.98 11.19 13.68 11.19 13.49 11L12.33 9.86C12.14 9.68 11.84 9.68 11.65 9.86L10.53 11C10.34 11.19 10.04 11.19 9.85 11Z" fill="black"/>
<path d="M14.15 13L14.83 13.68C15.02 13.87 15.02 14.17 14.83 14.36L12.34 16.86C12.15 17.05 11.85 17.05 11.66 16.86L9.15999 14.36C8.96999 14.17 8.96999 13.87 9.15999 13.68L9.82999 13C10.02 12.81 10.32 12.81 10.51 13L11.67 14.14C11.86 14.32 12.16 14.32 12.35 14.14L13.48 13.01C13.66 12.81 13.96 12.81 14.15 13Z" fill="black"/>
</svg>
