<svg width="24" height="24" viewBox="0 0 24 24" fill="none" xmlns="http://www.w3.org/2000/svg">
<path d="M17.14 6.87L21.25 2.75" stroke="black" stroke-width="1.5" stroke-linecap="round" stroke-linejoin="round"/>
<path d="M21.25 6.86H17.15" stroke="black" stroke-width="1.5" stroke-linecap="round" stroke-linejoin="round"/>
<path d="M17.15 2.75V6.86" stroke="black" stroke-width="1.5" stroke-linecap="round" stroke-linejoin="round"/>
<path d="M9.94 21.25C13.9109 21.25 17.13 18.0265 17.13 14.05C17.13 10.0736 13.9109 6.85001 9.94 6.85001C5.96908 6.85001 2.75 10.0736 2.75 14.05C2.75 18.0265 5.96908 21.25 9.94 21.25Z" stroke="black" stroke-width="1.5" stroke-linecap="round" stroke-linejoin="round"/>
<path d="M10.5 13.55V12.63L11.19 12.9C11.26 12.92 11.32 12.94 11.39 12.94C11.57 12.94 11.74 12.85 11.85 12.7C12 12.49 11.98 12.21 11.81 12.02C11.51 11.67 11.04 11.42 10.5 11.32V11.27C10.5 10.96 10.25 10.71 9.94 10.71C9.63 10.71 9.38 10.96 9.38 11.27V11.33C8.41 11.51 7.70999 12.15 7.70999 12.94C7.70999 13.73 8.41 14.37 9.38 14.55V15.47L8.69 15.2C8.45 15.11 8.18001 15.19 8.04001 15.4C7.89001 15.61 7.90999 15.89 8.07999 16.08C8.37999 16.43 8.85001 16.68 9.39001 16.78V16.83C9.39001 17.14 9.64001 17.39 9.95001 17.39C10.26 17.39 10.51 17.14 10.51 16.83V16.77C11.48 16.59 12.18 15.95 12.18 15.16C12.17 14.37 11.47 13.73 10.5 13.55ZM9.39001 13.4C9.04001 13.29 8.82999 13.09 8.82999 12.93C8.82999 12.77 9.04001 12.57 9.39001 12.46V13.4ZM10.5 15.63V14.69C10.85 14.8 11.06 15 11.06 15.16C11.06 15.31 10.85 15.52 10.5 15.63Z" fill="black"/>
</svg>
