<svg width="24" height="24" viewBox="0 0 24 24" fill="none" xmlns="http://www.w3.org/2000/svg">
<path d="M2.75 7.89999V5.83C2.75 4.12 4.13 2.75 5.83 2.75H18.16C19.87 2.75 21.24 4.13 21.24 5.83V7.89999" stroke="black" stroke-width="1.5" stroke-linecap="round" stroke-linejoin="round"/>
<path d="M21.25 16.08V18.17C21.25 19.88 19.87 21.25 18.17 21.25H5.84C4.13 21.25 2.75999 19.87 2.75999 18.17V16.11" stroke="black" stroke-width="1.5" stroke-linecap="round" stroke-linejoin="round"/>
<path d="M15.08 16.11H8.91C8.34 16.11 7.88 15.65 7.88 15.08V8.91C7.88 8.34 8.34 7.88 8.91 7.88H15.08C15.65 7.88 16.11 8.34 16.11 8.91V15.08C16.11 15.65 15.65 16.11 15.08 16.11Z" stroke="black" stroke-width="1.5" stroke-linecap="round" stroke-linejoin="round"/>
</svg>
