<svg width="24" height="24" viewBox="0 0 24 24" fill="none" xmlns="http://www.w3.org/2000/svg">
<path d="M14 11.53V6.22C14 5.29 14.7 4.55 15.55 4.55C16.41 4.55 17.1 5.3 17.1 6.22V12.57" stroke="black" stroke-width="1.5" stroke-linecap="round" stroke-linejoin="round"/>
<path d="M10.9 9.71001V4.42C10.9 3.49 11.6 2.75 12.45 2.75C13.31 2.75 14 3.5 14 4.42V11.17" stroke="black" stroke-width="1.5" stroke-linecap="round" stroke-linejoin="round"/>
<path d="M7.78998 10.6V7.94C7.78998 7.02 8.48998 6.27 9.33998 6.27C10.2 6.27 10.89 7.03 10.89 7.94V10.07" stroke="black" stroke-width="1.5" stroke-linecap="round" stroke-linejoin="round"/>
<path d="M17.11 12.57V8.3C17.11 7.37 17.81 6.63 18.66 6.63C19.52 6.63 20.21 7.38 20.21 8.3V14.54C20.21 18.25 17.44 21.24 14 21.24C13.09 21.24 12.23 21.03 11.46 20.65" stroke="black" stroke-width="1.5" stroke-linecap="round" stroke-linejoin="round"/>
<path d="M3.76999 15.2L5.51999 13.27H10.3L12.05 15.19L7.98999 19.97L3.76999 15.2Z" stroke="black" stroke-width="1.5" stroke-linecap="round" stroke-linejoin="round"/>
<path d="M14.01 11.53V6.22C14.01 5.29 14.71 4.55 15.56 4.55C16.42 4.55 17.11 5.3 17.11 6.22V12.57" stroke="black" stroke-width="1.5" stroke-linecap="round" stroke-linejoin="round"/>
<path d="M10.9 9.71001V4.42C10.9 3.49 11.6 2.75 12.45 2.75C13.31 2.75 14 3.5 14 4.42V11.17" stroke="black" stroke-width="1.5" stroke-linecap="round" stroke-linejoin="round"/>
<path d="M7.78998 10.86V7.94C7.78998 7.02 8.48998 6.27 9.33998 6.27C10.2 6.27 10.89 7.03 10.89 7.94V10.07" stroke="black" stroke-width="1.5" stroke-linecap="round" stroke-linejoin="round"/>
<path d="M17.12 12.57V8.3C17.12 7.37 17.82 6.63 18.67 6.63C19.53 6.63 20.22 7.38 20.22 8.3V14.54C20.22 18.25 17.44 21.24 14 21.24C12.8 21.24 11.68 20.87 10.73 20.24" stroke="black" stroke-width="1.5" stroke-linecap="round" stroke-linejoin="round"/>
</svg>
