<svg width="24" height="24" viewBox="0 0 24 24" fill="none" xmlns="http://www.w3.org/2000/svg">
<path d="M12 8.39999C10.51 8.39999 9.29999 9.20999 9.29999 10.2C9.29999 11.19 10.51 12 12 12C13.49 12 14.7 12.81 14.7 13.8C14.7 14.79 13.49 15.6 12 15.6" stroke="black" stroke-width="1.5" stroke-linecap="round" stroke-linejoin="round"/>
<path d="M12 8.39999V15.6" stroke="black" stroke-width="1.5" stroke-linecap="round" stroke-linejoin="round"/>
<path d="M12 8.39999C13 8.39999 13.87 8.76 14.34 9.3L12 8.39999Z" stroke="black" stroke-width="1.5" stroke-linecap="round" stroke-linejoin="round"/>
<path d="M12 8.4V7.5" stroke="black" stroke-width="1.5" stroke-linecap="round" stroke-linejoin="round"/>
<path d="M12 15.6V16.5" stroke="black" stroke-width="1.5" stroke-linecap="round" stroke-linejoin="round"/>
<path d="M12 15.6C11 15.6 10.13 15.24 9.65997 14.7L12 15.6Z" stroke="black" stroke-width="1.5" stroke-linecap="round" stroke-linejoin="round"/>
<path d="M21 12C21 13.18 20.77 14.35 20.31 15.44C19.86 16.53 19.19 17.52 18.36 18.36C17.52 19.2 16.53 19.86 15.44 20.31C14.35 20.77 13.18 21 12 21C10.82 21 9.65 20.77 8.56 20.31C7.47 19.85 6.48 19.19 5.64 18.36C4.8 17.52 4.14 16.53 3.69 15.44C3.23 14.35 3 13.18 3 12C3 9.61 3.95 7.32 5.64 5.64C7.32 3.95 9.61 3 12 3C14.39 3 16.68 3.95 18.36 5.64C20.05 7.32 21 9.61 21 12Z" stroke="black" stroke-width="1.5" stroke-linecap="round" stroke-linejoin="round"/>
</svg>
