<svg width="24" height="24" viewBox="0 0 24 24" fill="none" xmlns="http://www.w3.org/2000/svg">
<path d="M9.85001 20.17H3.85001C3.14001 20.17 2.61001 19.55 2.78001 18.9L3.31001 16.84C3.43001 16.38 3.87001 16.05 4.38001 16.05H9.31001C9.82001 16.05 10.26 16.37 10.38 16.83L10.92 18.89C11.09 19.54 10.57 20.17 9.85001 20.17Z" stroke="black" stroke-width="1.5" stroke-linecap="round" stroke-linejoin="round"/>
<path d="M14.98 14H8.98002C8.27002 14 7.74002 13.38 7.91002 12.73L8.44002 10.67C8.56002 10.21 9.00001 9.88 9.51001 9.88H14.44C14.95 9.88 15.39 10.2 15.51 10.66L16.05 12.72C16.22 13.38 15.7 14 14.98 14Z" stroke="black" stroke-width="1.5" stroke-linecap="round" stroke-linejoin="round"/>
<path d="M20.15 20.17H14.15C13.44 20.17 12.91 19.55 13.08 18.9L13.61 16.84C13.73 16.38 14.17 16.05 14.68 16.05H19.61C20.12 16.05 20.56 16.37 20.68 16.83L21.22 18.89C21.39 19.54 20.86 20.17 20.15 20.17Z" stroke="black" stroke-width="1.5" stroke-linecap="round" stroke-linejoin="round"/>
<path d="M8.29 7.87L6.84 6.41" stroke="black" stroke-width="1.5" stroke-linecap="round" stroke-linejoin="round"/>
<path d="M15.37 7.87L16.82 6.41" stroke="black" stroke-width="1.5" stroke-linecap="round" stroke-linejoin="round"/>
<path d="M11.86 5.89001V3.83002" stroke="black" stroke-width="1.5" stroke-linecap="round" stroke-linejoin="round"/>
</svg>
