<svg width="24" height="24" viewBox="0 0 24 24" fill="none" xmlns="http://www.w3.org/2000/svg">
<path d="M12.25 16.01C13.4926 16.01 14.5 15.0027 14.5 13.76C14.5 12.5174 13.4926 11.51 12.25 11.51C11.0074 11.51 10 12.5174 10 13.76C10 15.0027 11.0074 16.01 12.25 16.01Z" fill="black"/>
<path d="M19.75 8.5C20.9926 8.5 22 7.49264 22 6.25C22 5.00736 20.9926 4 19.75 4C18.5074 4 17.5 5.00736 17.5 6.25C17.5 7.49264 18.5074 8.5 19.75 8.5Z" fill="black"/>
<path d="M4.25 19.92C5.49264 19.92 6.5 18.9127 6.5 17.67C6.5 16.4274 5.49264 15.42 4.25 15.42C3.00736 15.42 2 16.4274 2 17.67C2 18.9127 3.00736 19.92 4.25 19.92Z" fill="black"/>
<path d="M4.14 17.82L12.25 13.76L19.75 6.25" stroke="black" stroke-width="1.5" stroke-linecap="round" stroke-linejoin="round"/>
</svg>
