<svg width="24" height="24" viewBox="0 0 24 24" fill="none" xmlns="http://www.w3.org/2000/svg">
<path d="M5.82999 21.25H18.16C19.86 21.25 21.24 19.87 21.24 18.17V5.83C21.24 4.13 19.86 2.75 18.16 2.75H5.82999C4.12999 2.75 2.75 4.13 2.75 5.83V18.16C2.75 19.87 4.12999 21.25 5.82999 21.25Z" stroke="black" stroke-width="1.5" stroke-linecap="round" stroke-linejoin="round"/>
<path d="M16.46 18.02C17.3105 18.02 18 17.3305 18 16.48C18 15.6295 17.3105 14.94 16.46 14.94C15.6095 14.94 14.92 15.6295 14.92 16.48C14.92 17.3305 15.6095 18.02 16.46 18.02Z" fill="black"/>
<path d="M11.64 13.88C12.4905 13.88 13.18 13.1905 13.18 12.34C13.18 11.4895 12.4905 10.8 11.64 10.8C10.7895 10.8 10.1 11.4895 10.1 12.34C10.1 13.1905 10.7895 13.88 11.64 13.88Z" fill="black"/>
<path d="M7.54999 9.08C8.40051 9.08 9.09 8.39052 9.09 7.54C9.09 6.68948 8.40051 6 7.54999 6C6.69947 6 6.01001 6.68948 6.01001 7.54C6.01001 8.39052 6.69947 9.08 7.54999 9.08Z" fill="black"/>
<path d="M16.46 16.48L11.68 12.34L7.34 7.45999" stroke="black" stroke-width="1.5" stroke-miterlimit="10"/>
</svg>
