<svg width="24" height="24" viewBox="0 0 24 24" fill="none" xmlns="http://www.w3.org/2000/svg">
<path d="M11.75 16.05C12.9926 16.05 14 15.0427 14 13.8C14 12.5574 12.9926 11.55 11.75 11.55C10.5074 11.55 9.5 12.5574 9.5 13.8C9.5 15.0427 10.5074 16.05 11.75 16.05Z" fill="black"/>
<path d="M4.25 8.54001C5.49264 8.54001 6.5 7.53265 6.5 6.29001C6.5 5.04737 5.49264 4.04001 4.25 4.04001C3.00736 4.04001 2 5.04737 2 6.29001C2 7.53265 3.00736 8.54001 4.25 8.54001Z" fill="black"/>
<path d="M19.75 19.96C20.9926 19.96 22 18.9527 22 17.71C22 16.4674 20.9926 15.46 19.75 15.46C18.5074 15.46 17.5 16.4674 17.5 17.71C17.5 18.9527 18.5074 19.96 19.75 19.96Z" fill="black"/>
<path d="M19.86 17.86L11.75 13.8L4.25 6.29001" stroke="black" stroke-width="1.5" stroke-linecap="round" stroke-linejoin="round"/>
</svg>
