<svg width="24" height="24" viewBox="0 0 24 24" fill="none" xmlns="http://www.w3.org/2000/svg">
<path d="M18.17 21.25H5.84C4.14 21.25 2.76001 19.87 2.76001 18.17V5.83C2.76001 4.13 4.14 2.75 5.84 2.75H18.17C19.87 2.75 21.25 4.13 21.25 5.83V18.16C21.25 19.87 19.87 21.25 18.17 21.25Z" stroke="black" stroke-width="1.5" stroke-linecap="round" stroke-linejoin="round"/>
<path d="M7.54001 18.02C8.39053 18.02 9.07999 17.3305 9.07999 16.48C9.07999 15.6295 8.39053 14.94 7.54001 14.94C6.68949 14.94 6 15.6295 6 16.48C6 17.3305 6.68949 18.02 7.54001 18.02Z" fill="black"/>
<path d="M12.36 13.88C13.2105 13.88 13.9 13.1905 13.9 12.34C13.9 11.4895 13.2105 10.8 12.36 10.8C11.5095 10.8 10.82 11.4895 10.82 12.34C10.82 13.1905 11.5095 13.88 12.36 13.88Z" fill="black"/>
<path d="M16.45 9.08C17.3005 9.08 17.99 8.39052 17.99 7.54C17.99 6.68948 17.3005 6 16.45 6C15.5995 6 14.91 6.68948 14.91 7.54C14.91 8.39052 15.5995 9.08 16.45 9.08Z" fill="black"/>
<path d="M7.54001 16.48L12.32 12.34L16.66 7.45999" stroke="black" stroke-width="1.5" stroke-miterlimit="10"/>
</svg>
