<svg width="24" height="24" viewBox="0 0 24 24" fill="none" xmlns="http://www.w3.org/2000/svg">
<path d="M16.02 14.73V19.47C16.02 20.45 15.22 21.25 14.24 21.25H5.47C4.49 21.25 3.69 20.45 3.69 19.47V4.53C3.69 3.55 4.49 2.75 5.47 2.75H14.24C15.22 2.75 16.02 3.55 16.02 4.53V6.25" stroke="black" stroke-width="1.5" stroke-linecap="round" stroke-linejoin="round"/>
<path d="M9.79999 6.38H18.93C19.7 6.38 20.32 7 20.32 7.77V13.22C20.32 13.99 19.7 14.61 18.93 14.61H9.79999V6.38Z" stroke="black" stroke-width="1.5" stroke-linecap="round" stroke-linejoin="round"/>
<path d="M17.11 8.96002H14.03" stroke="black" stroke-width="1.5" stroke-linecap="round" stroke-linejoin="round"/>
<path d="M17.98 11.52C17.94 11.42 17.89 11.34 17.82 11.27C17.75 11.2 17.67 11.15 17.58 11.11C17.39 11.03 17.18 11.03 17 11.11C16.91 11.15 16.83 11.2 16.76 11.27C16.69 11.34 16.64 11.42 16.6 11.52C16.56 11.61 16.54 11.7 16.54 11.8C16.54 12 16.62 12.19 16.76 12.33C16.9 12.47 17.09 12.55 17.29 12.55C17.49 12.55 17.68 12.47 17.82 12.33C17.96 12.19 18.04 12 18.04 11.8C18.04 11.7 18.02 11.61 17.98 11.52Z" fill="black"/>
<path d="M9.79001 15.63V5.35001" stroke="black" stroke-width="1.5" stroke-linecap="round" stroke-linejoin="round"/>
<path d="M4.26001 18.15H15.57" stroke="black" stroke-width="1.5" stroke-linecap="round" stroke-linejoin="round"/>
</svg>
