<svg width="24" height="24" viewBox="0 0 24 24" fill="none" xmlns="http://www.w3.org/2000/svg">
<path d="M15.06 8.91H19C20.24 8.91 21.25 9.92 21.25 11.16V19C21.25 20.24 20.24 21.25 19 21.25H5C3.76 21.25 2.75 20.24 2.75 19V11.17C2.75 9.93 3.76 8.92 5 8.92H8.94" stroke="black" stroke-width="1.5" stroke-linecap="round" stroke-linejoin="round"/>
<path d="M6.88 18.16H7.89999" stroke="black" stroke-width="1.5" stroke-linecap="round" stroke-linejoin="round"/>
<path d="M6.88 15.08H9.95999" stroke="black" stroke-width="1.5" stroke-linecap="round" stroke-linejoin="round"/>
<path d="M8.85999 3.66998C9.80999 3.07998 10.92 2.73999 12.1 2.73999C13.21 2.73999 14.25 3.02998 15.14 3.53998" stroke="black" stroke-width="1.5" stroke-linecap="round" stroke-linejoin="round"/>
<path d="M10.47 6.3C10.94 6 11.5 5.84 12.09 5.84C12.65 5.84 13.17 5.98001 13.61 6.24001" stroke="black" stroke-width="1.5" stroke-linecap="round" stroke-linejoin="round"/>
<path d="M12.12 8.16998C11.7 8.16998 11.37 8.50998 11.37 8.91998C11.37 9.32998 11.71 9.66998 12.12 9.66998C12.54 9.66998 12.87 9.32998 12.87 8.91998C12.87 8.50998 12.53 8.16998 12.12 8.16998Z" fill="black"/>
</svg>
