<svg width="24" height="24" viewBox="0 0 24 24" fill="none" xmlns="http://www.w3.org/2000/svg">
<path d="M12 21C16.9706 21 21 16.9706 21 12C21 7.02944 16.9706 3 12 3C7.02944 3 3 7.02944 3 12C3 16.9706 7.02944 21 12 21Z" stroke="black" stroke-width="1.5" stroke-linecap="round" stroke-linejoin="round"/>
<path d="M11.39 10.67L10.66 15.29" stroke="black" stroke-width="1.5" stroke-linecap="round" stroke-linejoin="round"/>
<path d="M9.03 11.32C8.86 10 9.58 8.76 10.8 8.24C10.89 8.2 12.4 7.58999 13.74 8.36999C14.86 9.02999 15.21 10.27 14.91 11.15C14.79 11.51 14.6 11.8 14.35 12.04C13.86 12.51 13.28 12.66 12.88 12.76C12.32 12.9 11.8 12.91 11.38 12.88" stroke="black" stroke-width="1.5" stroke-linecap="round" stroke-linejoin="round"/>
<path d="M13.15 16.02C13.5642 16.02 13.9 15.6842 13.9 15.27C13.9 14.8558 13.5642 14.52 13.15 14.52C12.7358 14.52 12.4 14.8558 12.4 15.27C12.4 15.6842 12.7358 16.02 13.15 16.02Z" fill="black"/>
</svg>
