<svg width="24" height="24" viewBox="0 0 24 24" fill="none" xmlns="http://www.w3.org/2000/svg">
<path d="M15.7 19.4H8.29999V20.46H15.7V19.4Z" stroke="black" stroke-width="1.5" stroke-linecap="round" stroke-linejoin="round"/>
<path d="M20.18 10.94C20.86 10.94 21.38 11.58 21.22 12.24C20.17 16.35 16.44 19.39 12 19.39C7.55999 19.39 3.82999 16.35 2.77999 12.24C2.60999 11.58 3.13 10.94 3.82 10.94H20.18V10.94Z" stroke="black" stroke-width="1.5" stroke-linecap="round" stroke-linejoin="round"/>
<path d="M8.01001 10.94C9.17533 10.94 10.12 9.99532 10.12 8.83C10.12 7.66468 9.17533 6.72 8.01001 6.72C6.84469 6.72 5.89999 7.66468 5.89999 8.83C5.89999 9.99532 6.84469 10.94 8.01001 10.94Z" stroke="black" stroke-width="1.5" stroke-linecap="round" stroke-linejoin="round"/>
<path d="M15.99 10.78C17.1553 10.78 18.1 9.83532 18.1 8.67C18.1 7.50468 17.1553 6.56 15.99 6.56C14.8247 6.56 13.88 7.50468 13.88 8.67C13.88 9.83532 14.8247 10.78 15.99 10.78Z" stroke="black" stroke-width="1.5" stroke-linecap="round" stroke-linejoin="round"/>
<path d="M12.33 10.79C13.2081 10.79 13.92 10.0781 13.92 9.2C13.92 8.32187 13.2081 7.61 12.33 7.61C11.4519 7.61 10.74 8.32187 10.74 9.2C10.74 10.0781 11.4519 10.79 12.33 10.79Z" stroke="black" stroke-width="1.5" stroke-linecap="round" stroke-linejoin="round"/>
<path d="M6.85999 6.86L3.54001 3.54" stroke="black" stroke-width="1.5" stroke-linecap="round" stroke-linejoin="round"/>
<path d="M4.07999 14.09H19.92" stroke="black" stroke-width="1.5" stroke-linecap="round" stroke-linejoin="round"/>
</svg>
