<svg width="24" height="24" viewBox="0 0 24 24" fill="none" xmlns="http://www.w3.org/2000/svg">
<path d="M19.68 4.6C17.88 3.07 14.51 2.75 12 2.75C9.49001 2.75 6.12002 3.07 4.32002 4.6C3.51002 5.29 3.08001 6.2 3.06001 7.23C3.05001 8.4 3.60001 9.62 4.56001 10.55V20.7C4.56001 21 4.80001 21.24 5.09001 21.24H18.9C19.2 21.24 19.43 20.99 19.43 20.7V10.55C20.39 9.63 20.94 8.4 20.93 7.23C20.92 6.2 20.49 5.29 19.68 4.6Z" stroke="black" stroke-width="1.5" stroke-linecap="round" stroke-linejoin="round"/>
<path d="M7.89001 19.2C8.45887 19.2 8.92001 18.7389 8.92001 18.17C8.92001 17.6011 8.45887 17.14 7.89001 17.14C7.32116 17.14 6.85999 17.6011 6.85999 18.17C6.85999 18.7389 7.32116 19.2 7.89001 19.2Z" fill="black"/>
<path d="M17.14 8.92C17.7089 8.92 18.17 8.45885 18.17 7.89C18.17 7.32115 17.7089 6.86 17.14 6.86C16.5712 6.86 16.11 7.32115 16.11 7.89C16.11 8.45885 16.5712 8.92 17.14 8.92Z" fill="black"/>
<path d="M12.25 6.74C12.8189 6.74 13.28 6.27885 13.28 5.71C13.28 5.14115 12.8189 4.68 12.25 4.68C11.6811 4.68 11.22 5.14115 11.22 5.71C11.22 6.27885 11.6811 6.74 12.25 6.74Z" fill="black"/>
<path d="M6.85999 7.89C7.42884 7.89 7.89001 7.42885 7.89001 6.86C7.89001 6.29115 7.42884 5.83 6.85999 5.83C6.29113 5.83 5.82999 6.29115 5.82999 6.86C5.82999 7.42885 6.29113 7.89 6.85999 7.89Z" fill="black"/>
<path d="M12.25 17.14C12.8189 17.14 13.28 16.6789 13.28 16.11C13.28 15.5411 12.8189 15.08 12.25 15.08C11.6811 15.08 11.22 15.5411 11.22 16.11C11.22 16.6789 11.6811 17.14 12.25 17.14Z" fill="black"/>
<path d="M11.71 9.28C11.71 9.28 11.55 9.44 11.35 9.64C11.15 9.84 10.99 10 10.99 10C10.99 10 11.15 9.84 11.35 9.64C11.55 9.44 11.71 9.28 11.71 9.28Z" stroke="black" stroke-width="1.5" stroke-linecap="round" stroke-linejoin="round"/>
<path d="M16.38 17.87C16.38 17.87 16.16 17.93 15.88 18.01C15.61 18.09 15.38 18.15 15.38 18.15C15.38 18.15 15.6 18.09 15.88 18.01C16.16 17.93 16.38 17.87 16.38 17.87Z" stroke="black" stroke-width="1.5" stroke-linecap="round" stroke-linejoin="round"/>
<path d="M15.83 12.97C15.83 12.97 15.63 12.85 15.39 12.7C15.15 12.55 14.95 12.43 14.95 12.43C14.95 12.43 15.15 12.55 15.39 12.7C15.63 12.85 15.83 12.97 15.83 12.97Z" stroke="black" stroke-width="1.5" stroke-linecap="round" stroke-linejoin="round"/>
<path d="M8.17999 12.97C8.17999 12.97 8.38 13.08 8.63 13.22C8.88 13.36 9.07999 13.47 9.07999 13.47C9.07999 13.47 8.88 13.36 8.63 13.22C8.38 13.08 8.17999 12.97 8.17999 12.97Z" stroke="black" stroke-width="1.5" stroke-linecap="round" stroke-linejoin="round"/>
</svg>
