<svg width="24" height="24" viewBox="0 0 24 24" fill="none" xmlns="http://www.w3.org/2000/svg">
<path d="M17 20.22H7C5.22 20.22 3.78 18.78 3.78 17V15.08H20.22V17C20.22 18.78 18.78 20.22 17 20.22Z" stroke="black" stroke-width="1.5" stroke-linecap="round" stroke-linejoin="round"/>
<path d="M19.71 12H4.29C3.44 12 2.75 12.69 2.75 13.54C2.75 14.39 3.44 15.08 4.29 15.08H19.71C20.56 15.08 21.25 14.39 21.25 13.54C21.25 12.69 20.56 12 19.71 12Z" stroke="black" stroke-width="1.5" stroke-linecap="round" stroke-linejoin="round"/>
<path d="M12.53 3.78H11.47C7.22 3.78 3.78 7.22 3.78 11.47V12H20.22V11.47C20.22 7.22 16.78 3.78 12.53 3.78Z" stroke="black" stroke-width="1.5" stroke-linecap="round" stroke-linejoin="round"/>
<path d="M3.67 15.33C4.06 15.75 4.34 16.32 5.07 16.32C5.8 16.32 6.08 15.75 6.47 15.33" stroke="black" stroke-width="1.5" stroke-linecap="round" stroke-linejoin="round"/>
<path d="M13.06 15.33C13.45 15.75 13.73 16.32 14.46 16.32C15.2 16.32 15.48 15.75 15.87 15.33" stroke="black" stroke-width="1.5" stroke-linecap="round" stroke-linejoin="round"/>
<path d="M19.17 16.31C18.44 16.31 18.16 15.74 17.77 15.32" stroke="black" stroke-width="1.5" stroke-linecap="round" stroke-linejoin="round"/>
<path d="M8.37 15.33C8.76 15.75 9.04 16.32 9.77 16.32C10.5 16.32 10.78 15.75 11.17 15.33" stroke="black" stroke-width="1.5" stroke-linecap="round" stroke-linejoin="round"/>
</svg>
