<svg width="24" height="24" viewBox="0 0 24 24" fill="none" xmlns="http://www.w3.org/2000/svg">
<path d="M15.6973 15.6974C18.2513 13.1434 18.666 9.41729 16.6236 7.37487C14.5812 5.33245 10.8551 5.74717 8.30105 8.30117C5.74705 10.8552 5.33233 14.5813 7.37476 16.6237C9.41718 18.6662 13.1433 18.2514 15.6973 15.6974Z" stroke="black" stroke-width="1.5" stroke-linecap="round" stroke-linejoin="round"/>
<path d="M14.22 6.82001L13.11 16.81" stroke="black" stroke-width="1.5" stroke-linecap="round" stroke-linejoin="round"/>
<path d="M10.89 7.19001L9.78 17.18" stroke="black" stroke-width="1.5" stroke-linecap="round" stroke-linejoin="round"/>
<path d="M7.37999 20.7V17.17C7.37999 16.87 7.13999 16.63 6.83999 16.63H3.29999C2.80999 16.63 2.56999 17.22 2.90999 17.56L6.43999 21.09C6.78999 21.43 7.37999 21.19 7.37999 20.7Z" stroke="black" stroke-width="1.5" stroke-linecap="round" stroke-linejoin="round"/>
<path d="M20.7 7.38H17.17C16.87 7.38 16.63 7.14 16.63 6.84V3.31C16.63 2.82 17.22 2.58 17.56 2.92L21.09 6.45C21.43 6.79 21.19 7.38 20.7 7.38Z" stroke="black" stroke-width="1.5" stroke-linecap="round" stroke-linejoin="round"/>
</svg>
