<svg width="24" height="24" viewBox="0 0 24 24" fill="none" xmlns="http://www.w3.org/2000/svg">
<path d="M11.59 6.86C11.59 5.83 12.41 5.83 12.41 4.8C12.41 3.77 11.59 3.77 11.59 2.74" stroke="black" stroke-width="1.5" stroke-linecap="round" stroke-linejoin="round"/>
<path d="M15.08 6.86C15.08 5.83 15.9 5.83 15.9 4.8C15.9 3.77 15.08 3.77 15.08 2.74" stroke="black" stroke-width="1.5" stroke-linecap="round" stroke-linejoin="round"/>
<path d="M8.09 6.86C8.09 5.83 8.91 5.83 8.91 4.8C8.91 3.77 8.09 3.77 8.09 2.74" stroke="black" stroke-width="1.5" stroke-linecap="round" stroke-linejoin="round"/>
<path d="M19.71 21.25H4.28999C4.00999 21.25 3.78 21.25 3.78 21.25C3.78 21.25 4.00999 21.25 4.28999 21.25H19.71ZM19.71 21.25C19.99 21.25 20.22 21.25 20.22 21.25C20.22 21.25 19.99 21.25 19.71 21.25Z" stroke="black" stroke-width="1.5" stroke-linecap="round" stroke-linejoin="round"/>
<path d="M17.14 9.93999H5.83V14.57C5.83 17.69 8.36 20.22 11.48 20.22C14.6 20.22 17.13 17.69 17.13 14.57V9.93999H17.14Z" stroke="black" stroke-width="1.5" stroke-linecap="round" stroke-linejoin="round"/>
<path d="M17.65 16.11H17.14V10.97H17.65C19.07 10.97 20.22 12.12 20.22 13.54C20.22 14.96 19.07 16.11 17.65 16.11Z" stroke="black" stroke-width="1.5" stroke-linecap="round" stroke-linejoin="round"/>
</svg>
