<svg width="24" height="24" viewBox="0 0 24 24" fill="none" xmlns="http://www.w3.org/2000/svg">
<path d="M12 15.08C13.701 15.08 15.08 13.701 15.08 12C15.08 10.299 13.701 8.92 12 8.92C10.299 8.92 8.92001 10.299 8.92001 12C8.92001 13.701 10.299 15.08 12 15.08Z" stroke="black" stroke-width="1.5" stroke-linecap="round" stroke-linejoin="round"/>
<path d="M12 21.25C17.1086 21.25 21.25 17.1086 21.25 12C21.25 6.89137 17.1086 2.75 12 2.75C6.89137 2.75 2.75 6.89137 2.75 12C2.75 17.1086 6.89137 21.25 12 21.25Z" stroke="black" stroke-width="1.5" stroke-linecap="round" stroke-linejoin="round"/>
<path d="M5.82999 18.17C6.09999 17.66 6.71 17.41 7.28 17.39C7.86 17.38 8.42 17.56 8.97 17.72C9.52 17.88 10.11 18.01 10.67 17.89C11.23 17.77 11.71 17.42 12.24 17.19C12.83 16.94 13.5 16.85 14.14 16.95C14.7 17.03 15.26 17.25 15.82 17.13C16.32 17.02 16.73 16.66 17.05 16.26C17.38 15.87 17.65 15.43 18.03 15.08C18.61 14.55 19.43 14.31 20.21 14.38" stroke="black" stroke-width="1.5" stroke-linecap="round" stroke-linejoin="round"/>
</svg>
