<svg width="24" height="24" viewBox="0 0 24 24" fill="none" xmlns="http://www.w3.org/2000/svg">
<path d="M17.09 6.44C16.44 5.33 15.69 4.46 14.88 3.82C13.96 3.11 12.99 2.75 12 2.75C11.01 2.75 10.05 3.11 9.12 3.82C8.31 4.46 7.56 5.33 6.91 6.44C5.67 8.56 4.92999 11.29 4.92999 13.74C4.92999 14.97 5.11 16.08 5.47 17.05C5.82 17.99 6.33 18.78 7 19.42C8.24 20.61 9.96999 21.25 11.99 21.25C14.01 21.25 15.74 20.61 16.98 19.42C17.65 18.77 18.16 17.98 18.51 17.05C18.87 16.08 19.05 14.97 19.05 13.74C19.07 11.29 18.33 8.56 17.09 6.44Z" stroke="black" stroke-width="1.5" stroke-linecap="round" stroke-linejoin="round"/>
</svg>
