<svg width="24" height="24" viewBox="0 0 24 24" fill="none" xmlns="http://www.w3.org/2000/svg">
<path d="M12 7.9C11.55 6.4 11.95 4.81 13.03 3.79C14.27 2.62 15.85 2.74 16.11 2.76" stroke="black" stroke-width="1.5" stroke-linecap="round" stroke-linejoin="round"/>
<path d="M12 21.25C13.2316 21.25 14.23 20.2516 14.23 19.02C14.23 17.7884 13.2316 16.79 12 16.79C10.7684 16.79 9.77 17.7884 9.77 19.02C9.77 20.2516 10.7684 21.25 12 21.25Z" stroke="black" stroke-width="1.5" stroke-linecap="round" stroke-linejoin="round"/>
<path d="M14 16.46C15.2316 16.46 16.23 15.4616 16.23 14.23C16.23 12.9984 15.2316 12 14 12C12.7684 12 11.77 12.9984 11.77 14.23C11.77 15.4616 12.7684 16.46 14 16.46Z" stroke="black" stroke-width="1.5" stroke-linecap="round" stroke-linejoin="round"/>
<path d="M9.55 16.46C10.7816 16.46 11.78 15.4616 11.78 14.23C11.78 12.9984 10.7816 12 9.55 12C8.31841 12 7.32001 12.9984 7.32001 14.23C7.32001 15.4616 8.31841 16.46 9.55 16.46Z" stroke="black" stroke-width="1.5" stroke-linecap="round" stroke-linejoin="round"/>
<path d="M17.19 12.35C18.4216 12.35 19.42 11.3516 19.42 10.12C19.42 8.8884 18.4216 7.89 17.19 7.89C15.9584 7.89 14.96 8.8884 14.96 10.12C14.96 11.3516 15.9584 12.35 17.19 12.35Z" stroke="black" stroke-width="1.5" stroke-linecap="round" stroke-linejoin="round"/>
<path d="M6.81 12.35C8.04159 12.35 9.03999 11.3516 9.03999 10.12C9.03999 8.8884 8.04159 7.89 6.81 7.89C5.5784 7.89 4.58 8.8884 4.58 10.12C4.58 11.3516 5.5784 12.35 6.81 12.35Z" stroke="black" stroke-width="1.5" stroke-linecap="round" stroke-linejoin="round"/>
<path d="M12 12.35C13.2316 12.35 14.23 11.3516 14.23 10.12C14.23 8.8884 13.2316 7.89 12 7.89C10.7684 7.89 9.77 8.8884 9.77 10.12C9.77 11.3516 10.7684 12.35 12 12.35Z" stroke="black" stroke-width="1.5" stroke-linecap="round" stroke-linejoin="round"/>
<path d="M10.8661 6.38429C11.4284 5.82194 11.096 4.57778 10.1236 3.60539C9.1512 2.63299 7.90705 2.30059 7.3447 2.86294C6.78235 3.42529 7.11475 4.66944 8.08715 5.64184C9.05955 6.61423 10.3037 6.94664 10.8661 6.38429Z" stroke="black" stroke-width="1.5" stroke-linecap="round" stroke-linejoin="round"/>
<path d="M10.8661 6.38429C11.4284 5.82194 11.096 4.57778 10.1236 3.60539C9.1512 2.63299 7.90705 2.30059 7.3447 2.86294C6.78235 3.42529 7.11475 4.66944 8.08715 5.64184C9.05955 6.61423 10.3037 6.94664 10.8661 6.38429Z" stroke="black" stroke-width="1.5" stroke-linecap="round" stroke-linejoin="round"/>
</svg>
