<svg width="24" height="24" viewBox="0 0 24 24" fill="none" xmlns="http://www.w3.org/2000/svg">
<path d="M15.15 4.91L4.91 15.15C3.82 16.24 3.82 18 4.91 19.09C6 20.18 7.76 20.18 8.85 19.09L19.09 8.85C20.18 7.76 20.18 6 19.09 4.91C18 3.82 16.24 3.82 15.15 4.91Z" stroke="black" stroke-width="1.5" stroke-linecap="round" stroke-linejoin="round"/>
<path d="M7.06 16.51C8.24 15.33 8.65999 15.75 9.84999 14.57C11.03 13.39 10.61 12.97 11.79 11.78C12.97 10.6 13.4 11.02 14.58 9.84C15.76 8.66 15.34 8.23 16.52 7.05" stroke="black" stroke-width="1.5" stroke-linecap="round" stroke-linejoin="round"/>
<path d="M11.61 3.73L3.73 11.61C2.42 12.92 2.42 15.03 3.73 16.34L16.33 3.74C15.03 2.42 12.91 2.42 11.61 3.73Z" stroke="black" stroke-width="1.5" stroke-linecap="round" stroke-linejoin="round"/>
<path d="M12.39 20.27L20.27 12.39C21.58 11.08 21.58 8.97 20.27 7.66L7.67 20.26C8.97 21.58 11.09 21.58 12.39 20.27Z" stroke="black" stroke-width="1.5" stroke-linecap="round" stroke-linejoin="round"/>
</svg>
