<svg width="24" height="24" viewBox="0 0 24 24" fill="none" xmlns="http://www.w3.org/2000/svg">
<path d="M8.82001 12H4.77C3.65 12 2.75 12.91 2.75 14.02V18.07C2.75 19.19 3.66 20.09 4.77 20.09H8.82001C9.94001 20.09 10.84 19.18 10.84 18.07V14.02C10.84 12.91 9.94001 12 8.82001 12Z" stroke="black" stroke-width="1.5" stroke-linecap="round" stroke-linejoin="round"/>
<path d="M19.23 12H15.18C14.06 12 13.16 12.91 13.16 14.02V18.07C13.16 19.19 14.07 20.09 15.18 20.09H19.23C20.35 20.09 21.25 19.18 21.25 18.07V14.02C21.25 12.91 20.34 12 19.23 12Z" stroke="black" stroke-width="1.5" stroke-linecap="round" stroke-linejoin="round"/>
<path d="M14.02 3.91H9.97C8.85 3.91 7.95 4.82 7.95 5.93V9.98C7.95 11.1 8.86 12 9.97 12H14.02C15.14 12 16.04 11.09 16.04 9.98V5.93C16.05 4.81 15.14 3.91 14.02 3.91Z" stroke="black" stroke-width="1.5" stroke-linecap="round" stroke-linejoin="round"/>
</svg>
