<svg width="24" height="24" viewBox="0 0 24 24" fill="none" xmlns="http://www.w3.org/2000/svg">
<path d="M7.89 9.94L12 21.25L16.11 9.94" stroke="black" stroke-width="1.5" stroke-linecap="round" stroke-linejoin="round"/>
<path d="M18.17 9.43C18 9.43 17.85 9.44 17.71 9.46C16.61 9.64 16.46 10.46 15.08 10.46C13.53 10.46 13.53 9.43 12 9.43C10.45 9.43 10.45 10.46 8.92 10.46C7.54 10.46 7.4 9.65 6.29 9.46C6.16 9.44 6 9.43 5.83 9.43" stroke="black" stroke-width="1.5" stroke-linecap="round" stroke-linejoin="round"/>
<path d="M17.14 7.89C17.14 8.43 17.06 8.97 16.89 9.46C15.94 9.64 15.82 10.46 14.64 10.46C13.31 10.46 13.31 9.43 12 9.43C10.67 9.43 10.67 10.46 9.36 10.46C8.18 10.46 8.05 9.65 7.11 9.46C6.95 8.97 6.86 8.43 6.86 7.89C6.86 5.05 9.16 2.75 12 2.75C14.84 2.75 17.14 5.05 17.14 7.89Z" stroke="black" stroke-width="1.5" stroke-linecap="round" stroke-linejoin="round"/>
<path d="M17.14 10.97H6.86" stroke="black" stroke-width="1.5" stroke-linecap="round" stroke-linejoin="round"/>
</svg>
