<svg width="24" height="24" viewBox="0 0 24 24" fill="none" xmlns="http://www.w3.org/2000/svg">
<path d="M11.71 15.4C11.72 16.24 10.96 17.14 9.95 17.14C8.93 17.14 8.18001 16.24 8.19001 15.4C8.20001 14.84 8.53001 14.44 8.67001 14.29C9.10001 13.87 9.52 13.45 9.95 13.03C10.38 13.45 10.8 13.87 11.23 14.29C11.36 14.44 11.7 14.84 11.71 15.4Z" stroke="black" stroke-width="1.5" stroke-linecap="round" stroke-linejoin="round"/>
<path d="M15.08 8.92H4.8V19.2C4.8 20.34 5.72 21.26 6.86 21.26H15.08V8.92Z" stroke="black" stroke-width="1.5" stroke-linecap="round" stroke-linejoin="round"/>
<path d="M17.14 5.83H6.86L4.81 8.92H15.08L17.14 5.83Z" stroke="black" stroke-width="1.5" stroke-linecap="round" stroke-linejoin="round"/>
<path d="M17.14 5.83L19.19 8.92" stroke="black" stroke-width="1.5" stroke-linecap="round" stroke-linejoin="round"/>
<path d="M16.11 2.75H7.89C7.32 2.75 6.86 3.21 6.86 3.78V5.84H17.14V3.78C17.14 3.21 16.68 2.75 16.11 2.75Z" stroke="black" stroke-width="1.5" stroke-linecap="round" stroke-linejoin="round"/>
<path d="M13.03 21.25H17.14C18.28 21.25 19.2 20.33 19.2 19.19V8.91" stroke="black" stroke-width="1.5" stroke-linecap="round" stroke-linejoin="round"/>
</svg>
