<svg width="24" height="24" viewBox="0 0 24 24" fill="none" xmlns="http://www.w3.org/2000/svg">
<path d="M6.99001 5.78C9.76001 5.95 12.53 7.16 14.72 9.38C16.89 11.58 18.08 14.38 18.26 17.18" stroke="black" stroke-width="1.5" stroke-linecap="round" stroke-linejoin="round"/>
<path d="M19.4 17.83L18.17 18.13L5.69 21.18C4.01 21.59 2.54001 20.09 2.96001 18.39L3.84 14.79L3.89999 14.56L4.67 11.43L4.74001 11.13L6.03999 5.88L6.36 4.6C6.66 3.37 7.85001 2.58 9.07001 2.78C12.07 3.27 14.89 4.65 17.14 6.93C19.38 9.19 20.73 12.04 21.22 15.07C21.42 16.31 20.62 17.53 19.4 17.83Z" stroke="black" stroke-width="1.5" stroke-linecap="round" stroke-linejoin="round"/>
<path d="M11.86 14.63C12.7437 14.63 13.46 13.9047 13.46 13.01C13.46 12.1153 12.7437 11.39 11.86 11.39C10.9763 11.39 10.26 12.1153 10.26 13.01C10.26 13.9047 10.9763 14.63 11.86 14.63Z" stroke="black" stroke-width="1.5" stroke-linecap="round" stroke-linejoin="round"/>
<path d="M5.94 14.02C5.39 14.58 4.59999 14.76 3.89999 14.54L4.89999 10.46C5.27999 10.55 5.64 10.73 5.94 11.03C6.76 11.86 6.76 13.2 5.94 14.02Z" stroke="black" stroke-width="1.5" stroke-linecap="round" stroke-linejoin="round"/>
<path d="M7.19999 19.72C7.04999 19.14 7.19999 18.5 7.63999 18.05C8.30999 17.37 9.38999 17.37 10.06 18.05C10.28 18.27 10.43 18.54 10.5 18.83" stroke="black" stroke-width="1.5" stroke-linecap="round" stroke-linejoin="round"/>
</svg>
