<svg width="24" height="24" viewBox="0 0 24 24" fill="none" xmlns="http://www.w3.org/2000/svg">
<path d="M14.03 5.83H11C9.60001 5.83 8.44001 6.72 8.34001 7.88L7.39001 18.89C7.28001 20.16 8.50002 21.25 10.05 21.25H14.99C16.54 21.25 17.76 20.17 17.65 18.89L16.7 7.88C16.59 6.73 15.43 5.83 14.03 5.83Z" stroke="black" stroke-width="1.5" stroke-linecap="round" stroke-linejoin="round"/>
<path d="M9.43001 8.92H16.62" stroke="black" stroke-width="1.5" stroke-linecap="round" stroke-linejoin="round"/>
<path d="M12.51 5.83V3.78" stroke="black" stroke-width="1.5" stroke-linecap="round" stroke-linejoin="round"/>
<path d="M10.46 2.75H14.57" stroke="black" stroke-width="1.5" stroke-linecap="round" stroke-linejoin="round"/>
<path d="M17.65 9.94H18.99C19.95 9.94 20.73 10.72 20.73 11.68V13.02C20.73 14.54 19.9 15.87 18.67 16.58" stroke="black" stroke-width="1.5" stroke-linecap="round" stroke-linejoin="round"/>
<path d="M6.86002 17.14C5.72002 17.14 4.80002 16.22 4.80002 15.08V11.82C4.80002 11.27 4.58001 10.75 4.20001 10.37L3.26001 9.43" stroke="black" stroke-width="1.5" stroke-linecap="round" stroke-linejoin="round"/>
<path d="M16.62 14.36C15.25 14.36 15.25 13.76 13.88 13.76C12.51 13.76 12.51 14.36 11.14 14.36C9.77001 14.36 9.77001 13.76 8.40001 13.76" stroke="black" stroke-width="1.5" stroke-linecap="round" stroke-linejoin="round"/>
</svg>
