<svg width="24" height="24" viewBox="0 0 24 24" fill="none" xmlns="http://www.w3.org/2000/svg">
<path d="M19.69 15.14C17.7 16.9 14.99 17.97 12 17.95C9.03 17.93 6.32 16.84 4.3 15.06" stroke="black" stroke-width="1.5" stroke-linecap="round" stroke-linejoin="round"/>
<path d="M4.78 19.19C6.93 20.49 9.40001 21.23 12.02 21.25C15.09 21.27 17.94 20.29 20.31 18.59C21.27 17.9 21.54 16.55 20.92 15.51L20.27 14.42L17.58 9.97999C17.58 9.97999 15.67 6.81999 13.87 3.83999C13 2.39999 10.98 2.38 10.12 3.8L3.72001 14.34L3.09 15.38C2.47 16.41 2.75 17.78 3.73 18.48C4.06 18.74 4.42 18.97 4.78 19.19Z" stroke="black" stroke-width="1.5" stroke-linecap="round" stroke-linejoin="round"/>
<path d="M8.42999 13.07C8.18999 12.97 7.91999 12.97 7.67999 13.07C7.54999 13.12 7.45001 13.19 7.35001 13.28C7.17001 13.47 7.06 13.72 7.06 13.98C7.06 14.25 7.16001 14.49 7.35001 14.68C7.54001 14.87 7.78 14.97 8.05 14.97C8.32 14.97 8.56 14.87 8.75 14.68C8.94 14.49 9.03999 14.24 9.03999 13.98C9.03999 13.72 8.93 13.47 8.75 13.28C8.66 13.18 8.54999 13.11 8.42999 13.07Z" fill="black"/>
<path d="M12.37 14.05C12.13 13.95 11.86 13.95 11.62 14.05C11.5 14.1 11.39 14.17 11.29 14.26C11.11 14.45 11 14.7 11 14.96C11 15.23 11.1 15.47 11.29 15.66C11.48 15.85 11.72 15.95 11.99 15.95C12.26 15.95 12.5 15.85 12.69 15.66C12.88 15.47 12.98 15.23 12.98 14.96C12.98 14.7 12.87 14.45 12.69 14.26C12.6 14.17 12.5 14.1 12.37 14.05Z" fill="black"/>
<path d="M16.65 13.27C16.28 12.9 15.62 12.9 15.25 13.27C15.07 13.46 14.96 13.71 14.96 13.97C14.96 14.24 15.06 14.48 15.25 14.67C15.44 14.86 15.68 14.96 15.95 14.96C16.08 14.96 16.21 14.93 16.32 14.88C16.44 14.83 16.55 14.76 16.65 14.67C16.84 14.48 16.94 14.24 16.94 13.97C16.93 13.72 16.82 13.46 16.65 13.27Z" fill="black"/>
<path d="M14.88 9.65C14.83 9.52 14.76 9.42001 14.67 9.32001C14.3 8.95001 13.64 8.95001 13.27 9.32001C13.18 9.42001 13.11 9.52 13.06 9.65C13.01 9.77 12.98 9.90001 12.98 10.02C12.98 10.15 13.01 10.28 13.06 10.39C13.11 10.51 13.18 10.62 13.27 10.72C13.46 10.91 13.7 11.01 13.97 11.01C14.1 11.01 14.23 10.98 14.34 10.93C14.46 10.88 14.57 10.81 14.67 10.72C14.86 10.53 14.96 10.29 14.96 10.02C14.96 9.90001 14.93 9.77 14.88 9.65Z" fill="black"/>
<path d="M10.93 9.65C10.88 9.53 10.81 9.42001 10.72 9.32001C10.34 8.95001 9.68001 8.95001 9.32001 9.32001C9.23001 9.42001 9.16 9.52 9.11 9.65C9.06 9.77 9.03 9.90001 9.03 10.02C9.03 10.29 9.13001 10.53 9.32001 10.72C9.42001 10.81 9.52999 10.88 9.64999 10.93C9.76999 10.98 9.9 11.01 10.03 11.01C10.3 11.01 10.54 10.91 10.73 10.72C10.82 10.62 10.89 10.51 10.94 10.39C11 10.27 11.02 10.14 11.02 10.02C11.01 9.90001 10.99 9.77 10.93 9.65Z" fill="black"/>
<path d="M11.3 6.77999C11.49 6.96999 11.73 7.07 12 7.07C12.13 7.07 12.26 7.04 12.37 6.99C12.49 6.94 12.6 6.86999 12.7 6.77999C12.79 6.67999 12.86 6.56999 12.91 6.44999C12.96 6.32999 12.99 6.2 12.99 6.08C12.99 5.81 12.88 5.57 12.7 5.38C12.42 5.11 11.99 5.00999 11.62 5.16999C11.49 5.21999 11.39 5.29 11.29 5.38C11.11 5.57 11 5.82 11 6.08C11 6.21 11.03 6.33999 11.08 6.44999C11.14 6.56999 11.21 6.67999 11.3 6.77999Z" fill="black"/>
</svg>
