<svg width="24" height="24" viewBox="0 0 24 24" fill="none" xmlns="http://www.w3.org/2000/svg">
<path d="M12 2.75C10.12 2.75 8.24002 2.75 8.24002 2.75C7.99002 2.75 7.78001 2.9 7.70001 3.14C7.65001 3.29 6.52002 6.73 6.52002 8.53C6.52002 12.15 9.66002 14.99 13.24 14.18C15.68 13.59 17.5 11.28 17.5 8.53C17.5 6.73 16.37 3.3 16.32 3.14C16.24 2.9 16.02 2.75 15.78 2.75C15.76 2.75 13.88 2.75 12 2.75Z" stroke="black" stroke-width="1.5" stroke-linecap="round" stroke-linejoin="round"/>
<path d="M12 15.08V20.22" stroke="black" stroke-width="1.5" stroke-linecap="round" stroke-linejoin="round"/>
<path d="M8.92001 21.25H15.08" stroke="black" stroke-width="1.5" stroke-linecap="round" stroke-linejoin="round"/>
<path d="M6.78001 7.39C8.54001 7.39 8.54002 8.39 10.3 8.39C12.06 8.39 12.06 7.39 13.83 7.39C15.59 7.39 15.59 8.39 17.36 8.39" stroke="black" stroke-width="1.5" stroke-linecap="round" stroke-linejoin="round"/>
</svg>
