<svg width="24" height="24" viewBox="0 0 24 24" fill="none" xmlns="http://www.w3.org/2000/svg">
<path d="M12 2C6.49 2 2 6.49 2 12C2 17.51 6.49 22 12 22C17.51 22 22 17.51 22 12C22 6.49 17.51 2 12 2ZM12.02 5.33002C12.86 5.33002 13.54 6.05001 13.54 6.89001C13.54 7.72001 12.86 8.40997 12.02 8.40997C11.14 8.40997 10.46 7.72001 10.46 6.89001C10.46 6.05001 11.14 5.33002 12.02 5.33002ZM16.1 10.31C15.12 10.55 14.12 10.7 13.1 10.76C13.2 12.01 13.43 13.25 13.81 14.44C14.1 15.35 14.47 16.25 14.92 17.1C15.12 17.47 14.98 17.92 14.61 18.12C14.5 18.17 14.38 18.2 14.26 18.2C13.99 18.2 13.73 18.06 13.6 17.8C13.11 16.87 12.69 15.89 12.38 14.89C12.23 14.42 12.11 13.95 12 13.47C11.89 13.95 11.77 14.42 11.62 14.89C11.31 15.89 10.9 16.87 10.4 17.8C10.27 18.06 10.01 18.2 9.73999 18.2C9.61999 18.2 9.50001 18.18 9.39001 18.12C9.02001 17.92 8.87999 17.47 9.07999 17.1C9.52999 16.25 9.9 15.35 10.19 14.44C10.57 13.25 10.81 12.01 10.9 10.76C9.87999 10.7 8.87999 10.55 7.89999 10.31C7.49999 10.22 7.25 9.80997 7.34 9.40997C7.44 9.00997 7.85 8.75999 8.25 8.85999C10.69 9.43999 13.32 9.43999 15.75 8.85999C16.15 8.75999 16.56 9.00997 16.66 9.40997C16.75 9.80997 16.51 10.22 16.1 10.31Z" fill="black"/>
</svg>
