<svg width="24" height="24" viewBox="0 0 24 24" fill="none" xmlns="http://www.w3.org/2000/svg">
<path d="M3.92 18.54C3.07 18.54 2.38 19.23 2.38 20.08C2.38 20.93 3.07 21.62 3.92 21.62C4.77 21.62 5.46 20.93 5.46 20.08C5.46 19.23 4.77 18.54 3.92 18.54Z" fill="black"/>
<path d="M3.92001 14.19C3.50001 14.19 3.17001 14.53 3.17001 14.94C3.17001 15.36 3.50001 15.69 3.92001 15.69C6.34001 15.69 8.31001 17.66 8.31001 20.08C8.31001 20.5 8.64001 20.83 9.06001 20.83C9.47001 20.83 9.81001 20.5 9.81001 20.08C9.81001 16.84 7.16001 14.19 3.92001 14.19Z" fill="black"/>
<path d="M18.63 1.62H6.13C4.06 1.62 2.38 3.31 2.38 5.38V10.29C2.38 10.71 2.71 11.04 3.13 11.04C8.36 11.04 12.96 15.64 12.96 20.88C12.96 21.29 13.29 21.62 13.71 21.62H18.63C20.69 21.62 22.38 19.94 22.38 17.88V5.38C22.38 3.31 20.69 1.62 18.63 1.62Z" fill="black"/>
</svg>
