<svg width="24" height="24" viewBox="0 0 24 24" fill="none" xmlns="http://www.w3.org/2000/svg">
<path d="M3.87 2C3.46 2 3.12 2.34 3.12 2.75V21.25C3.12 21.66 3.46 22 3.87 22C4.28 22 4.62 21.66 4.62 21.25V2.75C4.62 2.34 4.28 2 3.87 2Z" fill="black"/>
<path d="M6.82001 11.29H12.99C13.95 11.29 14.74 10.5 14.74 9.53998V5.79999C14.74 4.83999 13.95 4.04999 12.99 4.04999H6.82001C6.41001 4.04999 6.07001 4.38999 6.07001 4.79999V10.54C6.07001 10.95 6.40001 11.29 6.82001 11.29Z" fill="black"/>
<path d="M19.13 12.65H6.81C6.4 12.65 6.06 12.99 6.06 13.4V19.14C6.06 19.55 6.4 19.89 6.81 19.89H19.13C20.09 19.89 20.88 19.1 20.88 18.14V14.4C20.88 13.44 20.1 12.65 19.13 12.65Z" fill="black"/>
</svg>
