<svg width="24" height="24" viewBox="0 0 24 24" fill="none" xmlns="http://www.w3.org/2000/svg">
<path d="M18.17 2H5.82999C3.71999 2 2 3.71999 2 5.82999V18.17C2 20.28 3.71999 22 5.82999 22H18.17C20.28 22 22 20.28 22 18.17V5.82999C22 3.71999 20.28 2 18.17 2ZM11.39 15.15L8.53 11.06H5.82999C5.41999 11.06 5.07999 10.73 5.07999 10.31C5.07999 9.9 5.41999 9.56 5.82999 9.56H8.92001C9.16001 9.56 9.39 9.68001 9.53 9.88L12.39 13.97H18.17C18.58 13.97 18.92 14.3 18.92 14.72C18.92 15.13 18.58 15.47 18.17 15.47H12C11.76 15.47 11.53 15.35 11.39 15.15ZM18.17 11.06H12.88C12.47 11.06 12.13 10.73 12.13 10.31C12.13 9.9 12.47 9.56 12.88 9.56H18.17C18.58 9.56 18.92 9.9 18.92 10.31C18.92 10.73 18.58 11.06 18.17 11.06Z" fill="black"/>
</svg>
