<svg width="24" height="24" viewBox="0 0 24 24" fill="none" xmlns="http://www.w3.org/2000/svg">
<path fill-rule="evenodd" clip-rule="evenodd" d="M18.25 2H5.75C3.67893 2 2 3.67893 2 5.75V18.25C2 20.3211 3.67893 22 5.75 22H18.25C20.3211 22 22 20.3211 22 18.25V5.75C22 3.67893 20.3211 2 18.25 2ZM13.8185 8.3117C14.0993 8.00713 14.5737 7.9878 14.8783 8.26854L18.3215 11.4423C18.3325 11.4522 18.3432 11.4624 18.3537 11.4731C18.4973 11.6182 18.57 11.8088 18.57 12C18.57 12.1123 18.545 12.2247 18.4945 12.3283C18.4596 12.4001 18.4126 12.4673 18.3537 12.5269C18.3432 12.5376 18.3325 12.5479 18.3215 12.5578L14.8783 15.7315C14.5737 16.0122 14.0993 15.9929 13.8185 15.6883C13.5378 15.3837 13.5571 14.9093 13.8617 14.6285L16.7134 12L13.8617 9.37148C13.5571 9.09074 13.5378 8.61626 13.8185 8.3117ZM10.1815 8.3117C10.4622 8.61626 10.4429 9.09074 10.1383 9.37148L7.2866 12L10.1383 14.6285C10.4429 14.9093 10.4622 15.3837 10.1815 15.6883C9.90073 15.9929 9.42625 16.0122 9.12168 15.7315L5.67841 12.5577C5.66746 12.5478 5.65674 12.5376 5.64626 12.5269C5.58735 12.4673 5.54037 12.4001 5.50545 12.3283C5.40434 12.1208 5.40533 11.8775 5.50545 11.6717C5.54037 11.5999 5.58735 11.5327 5.64626 11.4731C5.65674 11.4625 5.66746 11.4522 5.67842 11.4423L9.12168 8.26854C9.42625 7.9878 9.90073 8.00713 10.1815 8.3117Z" fill="black"/>
</svg>
