<svg width="24" height="24" viewBox="0 0 24 24" fill="none" xmlns="http://www.w3.org/2000/svg">
<path d="M18.25 2H5.75C3.68 2 2 3.68 2 5.75V18.25C2 20.32 3.68 22 5.75 22H18.25C20.32 22 22 20.32 22 18.25V5.75C22 3.68 20.32 2 18.25 2ZM11.01 17.98C10.44 18.55 9.68999 18.86 8.89999 18.86C8.09999 18.86 7.35001 18.55 6.79001 17.98C5.62001 16.82 5.62001 14.93 6.79001 13.77L12.84 7.71001C13.57 6.98001 14.76 6.98001 15.48 7.71001C15.83 8.06001 16.03 8.53 16.03 9.03C16.03 9.53 15.83 10 15.48 10.35L11.01 14.83C10.71 15.12 10.24 15.12 9.95001 14.83C9.65001 14.53 9.65001 14.06 9.95001 13.77L14.42 9.28999C14.56 9.14999 14.56 8.92 14.42 8.77C14.28 8.63 14.05 8.63 13.9 8.77L7.85001 14.83C7.27001 15.4 7.27001 16.35 7.85001 16.92C8.43001 17.5 9.37001 17.5 9.95001 16.92L15.99 10.88C17.01 9.86 17.01 8.19999 15.99 7.17999C14.97 6.15999 13.31 6.15999 12.28 7.17999L7.82001 11.64C7.53001 11.93 7.06001 11.93 6.76001 11.64C6.47001 11.35 6.47001 10.87 6.76001 10.58L11.22 6.12C12.78 4.56 15.49 4.56 17.05 6.12C17.83 6.89999 18.25 7.93 18.25 9.03C18.25 10.13 17.83 11.17 17.05 11.94L11.01 17.98Z" fill="black"/>
</svg>
