<svg width="24" height="24" viewBox="0 0 24 24" fill="none" xmlns="http://www.w3.org/2000/svg">
<path d="M9.1 2.39998C8.4 2.19998 7.6 2.09998 6.9 2.09998C6.4 2.09998 6 2.19998 5.6 2.59998C5.3 2.89998 5.1 3.39998 5.1 3.89998V4.19998H4.8C3.3 4.19998 2 5.39998 2 6.99998V17.3C2 18.8 3.3 20.1 4.8 20.1H12.2V4.19998C11.3 3.39998 10.2 2.79998 9.1 2.39998ZM4.8 18.6C4.1 18.6 3.5 18 3.5 17.3V6.99998C3.5 6.29998 4.1 5.69998 4.8 5.69998H5.1V15.3C5.1 16.3 5.9 17 6.8 17.1C7.5 17.1 8.1 17.3 8.7 17.5C9.4 17.8 10 18.2 10.4 18.6H4.8ZM19.2 4.19998H13.2V20.1H19.2C20.7 20.1 22 18.8 22 17.3V6.99998C22 5.39998 20.7 4.19998 19.2 4.19998ZM18.2 17H15.1C14.7 17 14.3 16.7 14.3 16.2C14.3 15.8 14.6 15.4 15.1 15.4H18.2C18.6 15.4 19 15.7 19 16.2C18.9 16.7 18.6 17 18.2 17ZM18.2 12.9H15.1C14.7 12.9 14.3 12.6 14.3 12.1C14.3 11.7 14.6 11.3 15.1 11.3H18.2C18.6 11.3 19 11.6 19 12.1C18.9 12.5 18.6 12.9 18.2 12.9ZM18.2 8.69998H15.1C14.7 8.69998 14.3 8.39998 14.3 7.89998C14.3 7.49998 14.6 7.09998 15.1 7.09998H18.2C18.6 7.09998 19 7.39998 19 7.89998C18.9 8.39998 18.6 8.69998 18.2 8.69998Z" fill="black"/>
</svg>
