<svg width="24" height="24" viewBox="0 0 24 24" fill="none" xmlns="http://www.w3.org/2000/svg">
<path d="M18.17 2H5.83002C4.29002 2 3.03003 3.26 3.03003 4.81V19.19C3.03003 20.74 4.29002 22 5.83002 22H18.17C19.71 22 20.97 20.74 20.97 19.19V4.81C20.97 3.26 19.71 2 18.17 2ZM8.92004 5.08002H15.08C15.5 5.08002 15.83 5.42002 15.83 5.83002C15.83 6.25002 15.5 6.58002 15.08 6.58002H8.92004C8.50004 6.58002 8.17004 6.25002 8.17004 5.83002C8.17004 5.42002 8.50004 5.08002 8.92004 5.08002ZM14.81 8.91998C14.81 9.32998 14.47 9.66998 14.06 9.66998H9.94003C9.53003 9.66998 9.19003 9.32998 9.19003 8.91998C9.19003 8.49998 9.53003 8.16998 9.94003 8.16998H14.06C14.47 8.16998 14.81 8.49998 14.81 8.91998ZM19.47 19.19C19.47 19.91 18.89 20.5 18.17 20.5H5.83002C5.11002 20.5 4.53003 19.91 4.53003 19.19C4.53003 18.47 5.11002 17.89 5.83002 17.89H18.17C18.64 17.89 19.08 17.77 19.47 17.57V19.19Z" fill="black"/>
</svg>
