<svg width="24" height="24" viewBox="0 0 24 24" fill="none" xmlns="http://www.w3.org/2000/svg">
<path d="M18.25 3H5.75C3.68 3 2 4.68 2 6.75V8.16998H3.5H20.5H22V6.75C22 4.68 20.32 3 18.25 3ZM5.83 7.33002C5.28 7.33002 4.83 6.89002 4.83 6.33002C4.83 5.78002 5.28 5.33002 5.83 5.33002C6.39 5.33002 6.83 5.78002 6.83 6.33002C6.83 6.89002 6.39 7.33002 5.83 7.33002Z" fill="black"/>
<path d="M3.5 9.66998H2V17.25C2 19.32 3.68 21 5.75 21H18.25C20.32 21 22 19.32 22 17.25V9.66998H20.5H3.5Z" fill="black"/>
</svg>
