<svg width="24" height="24" viewBox="0 0 24 24" fill="none" xmlns="http://www.w3.org/2000/svg">
<path d="M18.48 2H5.53C3.58 2 2 3.58 2 5.53V18.47C2 20.42 3.58 22 5.53 22H18.48C20.42 22 22 20.42 22 18.47V5.53C22 3.58 20.42 2 18.48 2ZM5.83 18.04C5.42 18.04 5.08 17.7 5.08 17.29C5.08 16.88 5.42 16.54 5.83 16.54H18.17C18.59 16.54 18.92 16.88 18.92 17.29C18.92 17.7 18.59 18.04 18.17 18.04H5.83ZM5.08 12C5.08 11.59 5.42 11.25 5.83 11.25H18.17C18.59 11.25 18.92 11.59 18.92 12C18.92 12.41 18.59 12.75 18.17 12.75H5.83C5.42 12.75 5.08 12.41 5.08 12ZM18.17 7.45999H5.83C5.42 7.45999 5.08 7.11999 5.08 6.70999C5.08 6.29999 5.42 5.95999 5.83 5.95999H18.17C18.59 5.95999 18.92 6.29999 18.92 6.70999C18.92 7.11999 18.59 7.45999 18.17 7.45999Z" fill="black"/>
</svg>
