<svg width="24" height="24" viewBox="0 0 24 24" fill="none" xmlns="http://www.w3.org/2000/svg">
<path d="M18.48 2H5.53C3.58 2 2 3.58 2 5.53V18.47C2 20.42 3.58 22 5.53 22H18.48C20.42 22 22 20.42 22 18.47V5.53C22 3.58 20.42 2 18.48 2ZM18.53 8.53L10.53 16.53C10.38 16.68 10.19 16.75 10 16.75C9.81 16.75 9.62 16.68 9.47 16.53L5.47 12.53C5.18 12.24 5.18 11.76 5.47 11.47C5.76 11.18 6.24 11.18 6.53 11.47L10 14.94L17.47 7.47C17.76 7.18 18.24 7.18 18.53 7.47C18.82 7.76 18.82 8.24 18.53 8.53Z" fill="black"/>
</svg>
