<svg width="24" height="24" viewBox="0 0 24 24" fill="none" xmlns="http://www.w3.org/2000/svg">
<path d="M9.88 8.75V9.88H8.75C8.12 9.88 7.60999 9.37 7.60999 8.75C7.60999 8.12 8.12 7.60999 8.75 7.60999C9.37 7.60999 9.88 8.12 9.88 8.75Z" fill="black"/>
<path d="M8.75 14.12H9.88V15.25C9.88 15.88 9.37 16.39 8.75 16.39C8.12 16.39 7.60999 15.88 7.60999 15.25C7.60999 14.63 8.12 14.12 8.75 14.12Z" fill="black"/>
<path d="M12.62 11.38H11.38V12.62H12.62V11.38Z" fill="black"/>
<path d="M14.12 14.12H15.26C15.88 14.12 16.39 14.63 16.39 15.25C16.39 15.88 15.88 16.39 15.26 16.39C14.63 16.39 14.12 15.88 14.12 15.25V14.12Z" fill="black"/>
<path d="M15.26 9.88H14.12V8.75C14.12 8.12 14.63 7.60999 15.26 7.60999C15.88 7.60999 16.39 8.12 16.39 8.75C16.39 9.37 15.88 9.88 15.26 9.88Z" fill="black"/>
<path d="M18.17 2H5.82999C3.71999 2 2 3.71999 2 5.82999V18.17C2 20.28 3.71999 22 5.82999 22H18.17C20.28 22 22 20.28 22 18.17V5.82999C22 3.71999 20.28 2 18.17 2ZM15.26 12.62C16.71 12.62 17.89 13.8 17.89 15.25C17.89 16.71 16.71 17.89 15.26 17.89C13.8 17.89 12.62 16.71 12.62 15.25V14.12H11.38V15.25C11.38 16.71 10.2 17.89 8.75 17.89C7.29 17.89 6.10999 16.71 6.10999 15.25C6.10999 13.8 7.29 12.62 8.75 12.62H9.88V11.38H8.75C7.29 11.38 6.10999 10.2 6.10999 8.75C6.10999 7.29 7.29 6.10999 8.75 6.10999C10.2 6.10999 11.38 7.29 11.38 8.75V9.88H12.62V8.75C12.62 7.29 13.8 6.10999 15.26 6.10999C16.71 6.10999 17.89 7.29 17.89 8.75C17.89 10.2 16.71 11.38 15.26 11.38H14.12V12.62H15.26Z" fill="black"/>
</svg>
