<svg width="24" height="24" viewBox="0 0 24 24" fill="none" xmlns="http://www.w3.org/2000/svg">
<path d="M12 13.56C12.8616 13.56 13.56 12.8616 13.56 12C13.56 11.1384 12.8616 10.44 12 10.44C11.1384 10.44 10.44 11.1384 10.44 12C10.44 12.8616 11.1384 13.56 12 13.56Z" fill="black"/>
<path d="M12 3.15997C11.75 3.15997 11.49 3.17001 11.25 3.20001V5.06C11.25 5.48 11.59 5.81 12 5.81C12.41 5.81 12.75 5.48 12.75 5.06V3.20001C12.51 3.17001 12.25 3.15997 12 3.15997ZM12 18.19C11.59 18.19 11.25 18.52 11.25 18.94V20.8C11.49 20.83 11.75 20.84 12 20.84C12.25 20.84 12.51 20.83 12.75 20.8V18.94C12.75 18.52 12.41 18.19 12 18.19ZM20.8 11.25H18.94C18.52 11.25 18.19 11.59 18.19 12C18.19 12.41 18.52 12.75 18.94 12.75H20.8C20.83 12.51 20.84 12.25 20.84 12C20.84 11.75 20.83 11.49 20.8 11.25ZM17.19 12C17.19 11.04 17.97 10.25 18.94 10.25H20.67C19.97 6.77 17.23 4.03002 13.75 3.33002V5.06C13.75 6.03 12.97 6.81 12 6.81C11.04 6.81 10.25 6.03 10.25 5.06V3.33002C6.77003 4.03002 4.03002 6.77 3.33002 10.25H5.06003C6.03003 10.25 6.81003 11.04 6.81003 12C6.81003 12.96 6.03003 13.75 5.06003 13.75H3.33002C4.03002 17.23 6.77003 19.97 10.25 20.67V18.94C10.25 17.97 11.04 17.19 12 17.19C12.97 17.19 13.75 17.97 13.75 18.94V20.67C17.23 19.97 19.97 17.23 20.67 13.75H18.94C17.97 13.75 17.19 12.96 17.19 12ZM12 15.06C10.31 15.06 8.94003 13.69 8.94003 12C8.94003 10.31 10.31 8.94 12 8.94C13.69 8.94 15.06 10.31 15.06 12C15.06 13.69 13.69 15.06 12 15.06ZM5.06003 11.25H3.20004C3.17004 11.49 3.16003 11.75 3.16003 12C3.16003 12.25 3.17004 12.51 3.20004 12.75H5.06003C5.48003 12.75 5.81003 12.41 5.81003 12C5.81003 11.59 5.48003 11.25 5.06003 11.25Z" fill="black"/>
<path d="M22 12C22 12.41 21.66 12.75 21.25 12.75H18.94C18.52 12.75 18.19 12.41 18.19 12C18.19 11.59 18.52 11.25 18.94 11.25H21.25C21.66 11.25 22 11.59 22 12Z" fill="black"/>
<path d="M22 12C22 12.41 21.66 12.75 21.25 12.75H18.94C18.52 12.75 18.19 12.41 18.19 12C18.19 11.59 18.52 11.25 18.94 11.25H21.25C21.66 11.25 22 11.59 22 12Z" fill="black"/>
<path d="M5.81 12C5.81 12.41 5.48 12.75 5.06 12.75H2.75C2.34 12.75 2 12.41 2 12C2 11.59 2.34 11.25 2.75 11.25H5.06C5.48 11.25 5.81 11.59 5.81 12Z" fill="black"/>
<path d="M5.81 12C5.81 12.41 5.48 12.75 5.06 12.75H2.75C2.34 12.75 2 12.41 2 12C2 11.59 2.34 11.25 2.75 11.25H5.06C5.48 11.25 5.81 11.59 5.81 12Z" fill="black"/>
<path d="M12.75 3.33002V5.06C12.75 5.48 12.41 5.81 12 5.81C11.59 5.81 11.25 5.48 11.25 5.06V3.33002H12.75Z" fill="black"/>
<path d="M12.75 2.75V5.06C12.75 5.48 12.41 5.81 12 5.81C11.59 5.81 11.25 5.48 11.25 5.06V2.75C11.25 2.34 11.59 2 12 2C12.41 2 12.75 2.34 12.75 2.75Z" fill="black"/>
<path d="M12.75 18.94V21.25C12.75 21.66 12.41 22 12 22C11.59 22 11.25 21.66 11.25 21.25V18.94C11.25 18.52 11.59 18.19 12 18.19C12.41 18.19 12.75 18.52 12.75 18.94Z" fill="black"/>
<path d="M12.75 18.94V21.25C12.75 21.66 12.41 22 12 22C11.59 22 11.25 21.66 11.25 21.25V18.94C11.25 18.52 11.59 18.19 12 18.19C12.41 18.19 12.75 18.52 12.75 18.94Z" fill="black"/>
</svg>
