<svg width="24" height="24" viewBox="0 0 24 24" fill="none" xmlns="http://www.w3.org/2000/svg">
<path d="M18.4 7.58H16.4C16.5064 7.77883 16.5742 7.99597 16.6 8.22C16.6145 8.4726 16.5786 8.72555 16.4945 8.96417C16.4104 9.20279 16.2797 9.42231 16.11 9.61L13.23 12.52C13.0674 12.6833 12.8742 12.8128 12.6614 12.9012C12.4486 12.9896 12.2204 13.0351 11.99 13.0351C11.7596 13.0351 11.5314 12.9896 11.3186 12.9012C11.1058 12.8128 10.9126 12.6833 10.75 12.52L7.88001 9.62C7.62545 9.36472 7.45754 9.0359 7.40001 8.68C7.33763 8.30459 7.39721 7.91907 7.57001 7.58H5.57001C4.60273 7.60879 3.68572 8.01743 3.01754 8.71742C2.34937 9.41742 1.9838 10.3524 2.00001 11.32V18.25C1.99073 18.7333 2.07675 19.2137 2.25316 19.6637C2.42958 20.1137 2.69292 20.5246 3.02816 20.8728C3.36339 21.2211 3.76395 21.4999 4.20695 21.6933C4.64995 21.8867 5.12672 21.9909 5.61001 22H18.4C18.8828 21.9909 19.3591 21.8866 19.8016 21.6931C20.244 21.4996 20.6439 21.2206 20.9784 20.8722C21.3128 20.5239 21.5752 20.1129 21.7505 19.6629C21.9258 19.213 22.0106 18.7328 22 18.25V11.32C22.0161 10.3474 21.6464 9.40793 20.9718 8.70709C20.2972 8.00624 19.3725 7.60102 18.4 7.58ZM15.08 19.42H8.92001C8.7211 19.42 8.53033 19.341 8.38968 19.2003C8.24902 19.0597 8.17001 18.8689 8.17001 18.67C8.17001 18.4711 8.24902 18.2803 8.38968 18.1397C8.53033 17.999 8.7211 17.92 8.92001 17.92H15.08C15.2789 17.92 15.4697 17.999 15.6103 18.1397C15.751 18.2803 15.83 18.4711 15.83 18.67C15.83 18.8689 15.751 19.0597 15.6103 19.2003C15.4697 19.341 15.2789 19.42 15.08 19.42ZM15.08 16.92H8.92001C8.7211 16.92 8.53033 16.841 8.38968 16.7003C8.24902 16.5597 8.17001 16.3689 8.17001 16.17C8.17001 15.9711 8.24902 15.7803 8.38968 15.6397C8.53033 15.499 8.7211 15.42 8.92001 15.42H15.08C15.2789 15.42 15.4697 15.499 15.6103 15.6397C15.751 15.7803 15.83 15.9711 15.83 16.17C15.83 16.3689 15.751 16.5597 15.6103 16.7003C15.4697 16.841 15.2789 16.92 15.08 16.92Z" fill="black"/>
<path d="M8.58998 7.83C8.73186 7.69195 8.92201 7.6147 9.11998 7.6147C9.31794 7.6147 9.50809 7.69195 9.64998 7.83L11.25 9.44V2.75C11.25 2.55109 11.329 2.36032 11.4696 2.21967C11.6103 2.07902 11.8011 2 12 2C12.1989 2 12.3897 2.07902 12.5303 2.21967C12.671 2.36032 12.75 2.55109 12.75 2.75V9.45L14.35 7.84C14.4186 7.76631 14.5014 7.70721 14.5934 7.66622C14.6854 7.62523 14.7848 7.60319 14.8855 7.60141C14.9862 7.59963 15.0862 7.61816 15.1796 7.65588C15.273 7.6936 15.3578 7.74974 15.429 7.82096C15.5002 7.89218 15.5564 7.97701 15.5941 8.0704C15.6318 8.16379 15.6503 8.26382 15.6486 8.36452C15.6468 8.46523 15.6248 8.56454 15.5838 8.65654C15.5428 8.74854 15.4837 8.83134 15.41 8.9L12.53 11.8C12.4597 11.8674 12.3766 11.9199 12.2855 11.9543C12.1944 11.9887 12.0973 12.0042 12 12C11.8013 11.9987 11.6111 11.9198 11.47 11.78L8.57998 8.9C8.44262 8.75514 8.36688 8.5626 8.36875 8.36298C8.37061 8.16336 8.44993 7.97226 8.58998 7.83Z" fill="black"/>
</svg>
