<svg width="24" height="24" viewBox="0 0 24 24" fill="none" xmlns="http://www.w3.org/2000/svg">
<path d="M19.08 5.48999L17.3 3.19C16.71 2.43 15.88 2 15.01 2H7.2C5.47 2 4.06 3.71999 4.06 5.82999V18.17C4.06 20.28 5.47 22 7.2 22H16.8C18.53 22 19.94 20.28 19.94 18.17V8.13C19.94 7.14001 19.64 6.19999 19.08 5.48999ZM18.44 18.17C18.44 19.43 17.69 20.5 16.8 20.5H7.2C6.31 20.5 5.56 19.43 5.56 18.17V5.82999C5.56 4.56999 6.31 3.5 7.2 3.5H15.01C15.42 3.5 15.81 3.71999 16.12 4.10999L17.9 6.41C18.25 6.85 18.44 7.48 18.44 8.13V18.17Z" fill="black"/>
<path d="M19.08 5.48999L17.3 3.19C16.71 2.43 15.88 2 15.01 2H7.2C5.47 2 4.06 3.71999 4.06 5.82999V18.17C4.06 20.28 5.47 22 7.2 22H16.8C18.53 22 19.94 20.28 19.94 18.17V8.13C19.94 7.14001 19.64 6.19999 19.08 5.48999ZM17.45 15.62C17.41 15.7 17.37 15.77 17.31 15.83C17.25 15.89 17.18 15.94 17.1 15.97C17.02 16.01 16.93 16.03 16.84 16.03H15.2V16.68H16.48C16.58 16.68 16.66 16.7 16.74 16.74C16.83 16.77 16.9 16.82 16.96 16.89C17.02 16.95 17.07 17.02 17.1 17.1C17.13 17.19 17.15 17.28 17.15 17.37C17.15 17.46 17.13 17.55 17.1 17.63C17.07 17.7 17.02 17.77 16.96 17.83C16.9 17.89 16.83 17.93 16.74 17.96C16.66 18 16.58 18.01 16.48 18.01H15.2V19.11C15.2 19.2 15.18 19.29 15.15 19.37C15.11 19.45 15.07 19.52 15 19.57C14.94 19.64 14.87 19.68 14.79 19.72C14.71 19.75 14.62 19.77 14.53 19.77C14.44 19.77 14.35 19.75 14.27 19.72C14.19 19.68 14.11 19.64 14.05 19.57C14 19.52 13.95 19.45 13.91 19.37C13.88 19.29 13.86 19.2 13.86 19.11V15.33C13.87 15.26 13.88 15.19 13.9 15.11C13.93 15.04 13.96 14.97 14.02 14.91C14.07 14.84 14.14 14.79 14.22 14.75C14.31 14.71 14.41 14.69 14.53 14.69H16.84C16.93 14.69 17.02 14.71 17.1 14.74C17.18 14.78 17.25 14.83 17.31 14.89C17.37 14.95 17.42 15.02 17.45 15.1C17.48 15.18 17.5 15.27 17.5 15.36C17.5 15.45 17.48 15.54 17.45 15.62ZM6.59 17.93C6.53 17.71 6.5 17.49 6.5 17.25C6.5 16.9 6.57 16.56 6.7 16.25C6.83 15.94 7.01 15.66 7.24 15.43C7.46 15.19 7.73 15 8.04 14.86C8.35 14.73 8.68 14.66 9.04 14.66C9.41 14.66 9.75 14.72 10.05 14.85C10.36 14.98 10.64 15.17 10.89 15.42C10.96 15.48 11 15.56 11.04 15.63C11.07 15.71 11.08 15.79 11.08 15.88C11.08 15.96 11.07 16.04 11.03 16.13C11 16.21 10.95 16.28 10.89 16.34C10.82 16.41 10.75 16.46 10.67 16.49C10.59 16.53 10.51 16.54 10.42 16.54C10.34 16.55 10.25 16.53 10.17 16.5C10.09 16.47 10.02 16.42 9.95 16.36C9.82 16.24 9.68 16.14 9.52999 16.08C9.37999 16.02 9.22 15.99 9.06 15.99C8.89 15.99 8.74 16.02 8.59 16.09C8.44 16.15 8.31 16.24 8.2 16.35C8.09 16.47 8 16.6 7.93 16.75C7.87 16.9 7.83 17.06 7.83 17.24C7.83 17.4 7.86 17.56 7.93 17.71C7.99 17.86 8.07 17.99 8.18 18.1C8.29 18.22 8.42 18.31 8.57 18.38C8.72 18.44 8.88 18.48 9.06 18.48C9.2 18.48 9.31999 18.47 9.43999 18.45C9.55999 18.43 9.68 18.38 9.8 18.3V18.18H9.71C9.61 18.18 9.53 18.16 9.45 18.13C9.37 18.09 9.3 18.04 9.24 17.98C9.18 17.92 9.12999 17.85 9.09999 17.76C9.06999 17.68 9.05 17.6 9.05 17.5C9.05 17.41 9.06999 17.33 9.09999 17.25C9.12999 17.17 9.18 17.1 9.24 17.04C9.3 16.98 9.37 16.93 9.45 16.9C9.53 16.86 9.61 16.84 9.71 16.84H10.48C10.57 16.85 10.66 16.87 10.74 16.9C10.82 16.93 10.89 16.98 10.95 17.04C11.01 17.1 11.06 17.17 11.09 17.25C11.13 17.33 11.15 17.41 11.15 17.5V18.61C11.15 18.71 11.13 18.8 11.08 18.88C11.04 18.95 10.99 19.03 10.93 19.1C10.61 19.36 10.3 19.54 9.99 19.65C9.67 19.76 9.35 19.82 9.02 19.81C8.79 19.81 8.58 19.78 8.37 19.72C8.15 19.66 7.95 19.57 7.77 19.46C7.58 19.35 7.40999 19.21 7.25999 19.06C7.09999 18.91 6.97 18.73 6.86 18.54C6.74 18.36 6.66 18.15 6.59 17.93ZM13.14 15.35V19.11C13.14 19.2 13.12 19.29 13.09 19.37C13.06 19.45 13.01 19.52 12.95 19.58C12.89 19.64 12.81 19.69 12.73 19.72C12.65 19.75 12.56 19.77 12.47 19.77C12.38 19.77 12.29 19.75 12.21 19.72C12.13 19.69 12.06 19.64 12 19.58C11.94 19.52 11.89 19.45 11.86 19.37C11.82 19.29 11.8 19.2 11.8 19.11V15.35C11.8 15.26 11.82 15.17 11.86 15.09C11.89 15.01 11.94 14.94 12 14.88C12.06 14.82 12.13 14.78 12.21 14.74C12.29 14.71 12.38 14.69 12.47 14.69C12.56 14.69 12.65 14.71 12.73 14.74C12.81 14.78 12.89 14.82 12.95 14.88C13.01 14.94 13.06 15.01 13.09 15.09C13.12 15.17 13.14 15.26 13.14 15.35Z" fill="black"/>
</svg>
