<svg width="24" height="24" viewBox="0 0 24 24" fill="none" xmlns="http://www.w3.org/2000/svg">
<path d="M15.88 9.13L14.36 10.63H9.64L8.89 9.88L8.13 9.13H10.26L11.02 9.88L11.08 9.94C11.59 10.45 12.42 10.45 12.93 9.94L12.99 9.88L13.75 9.13H15.88Z" fill="black"/>
<path d="M19.19 2H4.81C4.39 2 4.06 2.34 4.06 2.75C4.06 3.16 4.39 3.5 4.81 3.5H6.44C6.24 3.89 6.11 4.31999 6.11 4.78999V5.98C6.11 6.72 6.4 7.43 6.94 7.95L8.13 9.13L8.89 9.88L10.02 11.01C10.57 11.55 11.28 11.82 12 11.82C12.72 11.82 13.44 11.55 13.98 11.01L14.36 10.63L15.88 9.13L17.07 7.95C17.6 7.42 17.89 6.72 17.89 5.98V4.78999C17.89 4.31999 17.76 3.89 17.56 3.5H19.19C19.61 3.5 19.94 3.16 19.94 2.75C19.94 2.34 19.61 2 19.19 2ZM12.99 9.88L12.93 9.94C12.42 10.45 11.59 10.45 11.08 9.94L11.02 9.88L10.26 9.13H13.75L12.99 9.88Z" fill="black"/>
<path d="M19.93 21.2C19.91 20.81 19.59 20.5 19.19 20.5H17.56C17.77 20.11 17.89 19.66 17.89 19.19V17.99C17.89 17.25 17.59 16.53 17.07 16.01L13.98 12.92C12.89 11.83 11.11 11.83 10.02 12.92L6.92999 16.01C6.40999 16.53 6.11 17.25 6.11 17.99V19.19C6.11 19.66 6.23 20.11 6.44 20.5H4.81C4.41 20.5 4.09001 20.81 4.07001 21.2C4.06001 21.22 4.06 21.23 4.06 21.25C4.06 21.66 4.39 22 4.81 22H8.92H15.08H19.19C19.61 22 19.94 21.66 19.94 21.25C19.94 21.23 19.94 21.22 19.93 21.2ZM11.31 15.82C11.35 15.73 11.4 15.65 11.47 15.58C11.67 15.37 12.01 15.31 12.29 15.42C12.38 15.46 12.46 15.51 12.53 15.58C12.6 15.65 12.65 15.73 12.69 15.82C12.73 15.92 12.75 16.01 12.75 16.11C12.75 16.31 12.67 16.5 12.53 16.64C12.39 16.78 12.2 16.86 12 16.86C11.8 16.86 11.61 16.78 11.47 16.64C11.33 16.5 11.25 16.31 11.25 16.11C11.25 16.01 11.27 15.92 11.31 15.82ZM8.92 20.5C8.2 20.5 7.61 19.91 7.61 19.19H16.39C16.39 19.91 15.8 20.5 15.08 20.5H8.92Z" fill="black"/>
</svg>
