<svg width="24" height="24" viewBox="0 0 24 24" fill="none" xmlns="http://www.w3.org/2000/svg">
<path d="M8.68001 2.89001H5.32002C3.98002 2.89001 2.89001 3.98001 2.89001 5.32001V8.67999C2.89001 10.02 3.98002 11.11 5.32002 11.11H8.68001C10.02 11.11 11.11 10.02 11.11 8.67999V5.32001C11.11 3.98001 10.02 2.89001 8.68001 2.89001Z" fill="black"/>
<path d="M18.68 2.89001H15.32C13.98 2.89001 12.89 3.98001 12.89 5.32001V8.67999C12.89 10.02 13.98 11.11 15.32 11.11H18.68C20.02 11.11 21.11 10.02 21.11 8.67999V5.32001C21.11 3.98001 20.02 2.89001 18.68 2.89001Z" fill="black"/>
<path d="M8.68001 12.89H5.32002C3.98002 12.89 2.89001 13.98 2.89001 15.32V18.68C2.89001 20.02 3.98002 21.11 5.32002 21.11H8.68001C10.02 21.11 11.11 20.02 11.11 18.68V15.32C11.11 13.98 10.02 12.89 8.68001 12.89Z" fill="black"/>
<path d="M18.68 12.89H15.32C13.98 12.89 12.89 13.98 12.89 15.32V18.68C12.89 20.02 13.98 21.11 15.32 21.11H18.68C20.02 21.11 21.11 20.02 21.11 18.68V15.32C21.11 13.98 20.02 12.89 18.68 12.89Z" fill="black"/>
</svg>
