<svg width="24" height="24" viewBox="0 0 24 24" fill="none" xmlns="http://www.w3.org/2000/svg">
<path d="M12 2C7.88998 2 4.54999 5.34 4.54999 9.45C4.54999 14.34 10.73 21.26 10.99 21.55C11.25 21.84 11.62 22 12 22C12.38 22 12.75 21.84 13.01 21.55C13.67 20.82 19.45 14.23 19.45 9.45C19.45 5.34 16.11 2 12 2ZM12 20.43C11.19 19.49 6.04999 13.45 6.04999 9.45C6.04999 6.17 8.71999 3.5 12 3.5C15.28 3.5 17.95 6.17 17.95 9.45C17.95 12.83 14.12 18.03 12 20.43Z" fill="black"/>
<path d="M12 2C7.88998 2 4.54999 5.34 4.54999 9.45C4.54999 14.34 10.73 21.26 10.99 21.55C11.25 21.84 11.62 22 12 22C12.38 22 12.75 21.84 13.01 21.55C13.67 20.82 19.45 14.23 19.45 9.45C19.45 5.34 16.11 2 12 2ZM8.87999 9.45C8.87999 7.73 10.28 6.33 12 6.33C13.72 6.33 15.12 7.73 15.12 9.45C15.12 11.17 13.72 12.57 12 12.57C10.28 12.57 8.87999 11.17 8.87999 9.45Z" fill="black"/>
</svg>
