<svg width="24" height="24" viewBox="0 0 24 24" fill="none" xmlns="http://www.w3.org/2000/svg">
<path d="M19.18 10.84C18.61 10.47 17.94 10.25 17.22 10.23C17.19 10.23 17.17 10.22 17.15 10.22H7.60001V7.91999C7.60001 5.48999 9.57 3.51999 12 3.51999C14.43 3.51999 16.4 5.48999 16.4 7.91999C16.4 8.32999 16.74 8.66999 17.15 8.66999C17.56 8.66999 17.9 8.32999 17.9 7.91999C17.9 4.66999 15.25 2.01999 12 2.01999C8.75 2.01999 6.10001 4.66999 6.10001 7.91999V10.31C5.64001 10.41 5.21001 10.59 4.82001 10.84C3.73001 11.53 3.01001 12.74 3.01001 14.12V18.11C3.01001 20.27 4.76001 22.02 6.92001 22.02H17.09C19.24 22.02 20.99 20.27 20.99 18.11V14.12C20.99 12.74 20.27 11.53 19.18 10.84ZM12.75 16.7V18.18C12.75 18.59 12.41 18.93 12 18.93C11.59 18.93 11.25 18.59 11.25 18.18V16.7C10.64 16.41 10.22 15.8 10.22 15.09C10.22 14.11 11.02 13.31 12 13.31C12.98 13.31 13.78 14.11 13.78 15.09C13.78 15.8 13.36 16.41 12.75 16.7Z" fill="black"/>
</svg>
