<svg width="24" height="24" viewBox="0 0 24 24" fill="none" xmlns="http://www.w3.org/2000/svg">
<path d="M17.9 10.31V7.91999C17.9 4.66999 15.25 2.01999 12 2.01999C8.75 2.01999 6.10001 4.66999 6.10001 7.91999V10.31C4.34001 10.68 3.01001 12.25 3.01001 14.12V18.11C3.01001 20.27 4.76001 22.02 6.92001 22.02H17.09C19.24 22.02 20.99 20.27 20.99 18.11V14.12C20.99 12.25 19.66 10.68 17.9 10.31ZM12.75 16.7V18.18C12.75 18.59 12.41 18.93 12 18.93C11.59 18.93 11.25 18.59 11.25 18.18V16.7C10.64 16.41 10.22 15.8 10.22 15.09C10.22 14.11 11.02 13.31 12 13.31C12.98 13.31 13.78 14.11 13.78 15.09C13.78 15.8 13.36 16.41 12.75 16.7ZM7.60001 10.22V7.91999C7.60001 5.48999 9.57 3.51999 12 3.51999C14.43 3.51999 16.4 5.48999 16.4 7.91999V10.22H7.60001Z" fill="black"/>
</svg>
