<svg width="24" height="24" viewBox="0 0 24 24" fill="none" xmlns="http://www.w3.org/2000/svg">
<path d="M15.77 10C16.0961 9.67372 16.2793 9.2313 16.2793 8.77C16.2793 8.3087 16.0961 7.86628 15.77 7.54C15.6919 7.45315 15.6008 7.37894 15.5 7.32C15.2076 7.11505 14.8569 7.00985 14.5 7.02C14.0407 7.02075 13.5996 7.20004 13.27 7.52L10 10.81C9.83054 10.9897 9.69964 11.2021 9.61537 11.4343C9.5311 11.6665 9.49524 11.9135 9.51 12.16C9.52974 12.581 9.70424 12.9798 10 13.28L13.28 16.54C13.4402 16.7034 13.6316 16.8328 13.843 16.9204C14.0543 17.0081 14.2812 17.0521 14.51 17.05C14.8652 17.0583 15.2144 16.9571 15.51 16.76C15.6086 16.6979 15.6992 16.624 15.78 16.54C16.1073 16.2103 16.291 15.7646 16.291 15.3C16.291 14.8354 16.1073 14.3897 15.78 14.06L15.51 13.8H17V18.45C16.9482 19.4306 16.5138 20.3517 15.7902 21.0155C15.0665 21.6793 14.1114 22.0328 13.13 22H5.88C4.89593 22.0328 3.93827 21.6783 3.21277 21.0126C2.48727 20.3469 2.05183 19.4232 2 18.44V5.64C2.01551 5.14615 2.1282 4.6602 2.33163 4.20993C2.53506 3.75966 2.82525 3.3539 3.18559 3.01585C3.54593 2.67779 3.96937 2.41407 4.43169 2.23977C4.89402 2.06546 5.38617 1.98399 5.88 2H13.13C13.6233 1.984 14.115 2.06555 14.5767 2.23998C15.0385 2.4144 15.4612 2.67827 15.8208 3.01645C16.1803 3.35463 16.4696 3.76046 16.6719 4.21067C16.8743 4.66088 16.9858 5.14661 17 5.64V10.29H15.5L15.77 10Z" fill="black"/>
<path d="M22 12C21.9974 12.1981 21.9176 12.3874 21.7775 12.5275C21.6374 12.6676 21.4481 12.7474 21.25 12.75H13.07L15.07 14.75C15.2132 14.8919 15.2942 15.0849 15.2951 15.2865C15.2961 15.4881 15.2169 15.6818 15.075 15.825C14.9331 15.9682 14.7401 16.0492 14.5385 16.0501C14.3369 16.0511 14.1432 15.9719 14 15.83L10.72 12.57C10.5924 12.4409 10.5145 12.2709 10.5 12.09C10.4968 11.9836 10.5145 11.8776 10.5523 11.7781C10.59 11.6786 10.647 11.5875 10.72 11.51L14 8.24C14.1419 8.10195 14.332 8.0247 14.53 8.0247C14.728 8.0247 14.9181 8.10195 15.06 8.24C15.2005 8.38063 15.2793 8.57125 15.2793 8.77C15.2793 8.96875 15.2005 9.15938 15.06 9.3L13.06 11.3H21.21C21.4067 11.2916 21.599 11.3599 21.7463 11.4905C21.8937 11.6211 21.9846 11.8037 22 12Z" fill="black"/>
</svg>
