<svg width="24" height="24" viewBox="0 0 24 24" fill="none" xmlns="http://www.w3.org/2000/svg">
<path d="M21.78 12.53L18.5 15.8C18.3581 15.9381 18.168 16.0153 17.97 16.0153C17.772 16.0153 17.5819 15.9381 17.44 15.8C17.2995 15.6594 17.2207 15.4688 17.2207 15.27C17.2207 15.0713 17.2995 14.8806 17.44 14.74L19.44 12.74H11.28C11.0811 12.74 10.8903 12.661 10.7497 12.5203C10.609 12.3797 10.53 12.1889 10.53 11.99C10.53 11.7911 10.609 11.6003 10.7497 11.4597C10.8903 11.319 11.0811 11.24 11.28 11.24H19.43L17.43 9.24001C17.2895 9.09938 17.2107 8.90876 17.2107 8.71001C17.2107 8.51126 17.2895 8.32063 17.43 8.18001C17.4989 8.10925 17.5814 8.05301 17.6724 8.01462C17.7634 7.97622 17.8612 7.95644 17.96 7.95644C18.0588 7.95644 18.1566 7.97622 18.2476 8.01462C18.3386 8.05301 18.4211 8.10925 18.49 8.18001L21.77 11.44C21.8442 11.513 21.9028 11.6002 21.9423 11.6965C21.9819 11.7927 22.0015 11.896 22 12C21.992 12.1972 21.914 12.3851 21.78 12.53Z" fill="black"/>
<path d="M9.53 12C9.53 11.5359 9.71437 11.0908 10.0426 10.7626C10.3708 10.4344 10.8159 10.25 11.28 10.25H17L16.74 10C16.574 9.83918 16.4424 9.64638 16.353 9.43326C16.2636 9.22013 16.2184 8.9911 16.22 8.76C16.2188 8.52986 16.2632 8.30176 16.3508 8.08891C16.4383 7.87606 16.5672 7.68269 16.73 7.52C16.8096 7.42899 16.9003 7.34835 17 7.28V5.6C16.9609 4.61056 16.5321 3.67673 15.8071 3.00229C15.082 2.32785 14.1197 1.96755 13.13 2H5.88C4.88933 1.96749 3.92589 2.32748 3.19927 3.00167C2.47266 3.67585 2.04165 4.60967 2 5.6V18.4C2.04165 19.3903 2.47266 20.3242 3.19927 20.9983C3.92589 21.6725 4.88933 22.0325 5.88 22H13.13C14.1197 22.0325 15.082 21.6722 15.8071 20.9977C16.5321 20.3233 16.9609 19.3895 17 18.4V16.72C16.9014 16.6579 16.8108 16.584 16.73 16.5C16.5672 16.3373 16.4383 16.1439 16.3508 15.9311C16.2632 15.7183 16.2188 15.4901 16.22 15.26C16.2157 15.0256 16.2596 14.7927 16.349 14.576C16.4385 14.3592 16.5716 14.1631 16.74 14L17 13.74H11.28C10.8176 13.74 10.374 13.557 10.0461 13.231C9.71818 12.905 9.53264 12.4624 9.53 12Z" fill="black"/>
</svg>
