<svg width="24" height="24" viewBox="0 0 24 24" fill="none" xmlns="http://www.w3.org/2000/svg">
<path d="M18.48 2H5.53C3.58 2 2 3.58 2 5.53V18.47C2 20.42 3.58 22 5.53 22H18.48C20.42 22 22 20.42 22 18.47V5.53C22 3.58 20.42 2 18.48 2ZM15.91 16.66H8.10001C5.96001 16.66 4.22 14.92 4.22 12.78C4.22 10.64 5.96001 8.91 8.10001 8.91C8.51001 8.91 8.85001 9.24 8.85001 9.66C8.85001 10.07 8.51001 10.41 8.10001 10.41C6.79001 10.41 5.72 11.47 5.72 12.78C5.72 14.09 6.79001 15.16 8.10001 15.16H15.91C17.22 15.16 18.28 14.09 18.28 12.78C18.28 11.47 17.22 10.41 15.91 10.41H11.63L12.53 11.31C12.82 11.61 12.82 12.08 12.53 12.37C12.38 12.52 12.19 12.59 12 12.59C11.81 12.59 11.62 12.52 11.47 12.37L9.60001 10.5C9.30001 10.21 9.30001 9.73 9.60001 9.44L11.47 7.56C11.76 7.27 12.24 7.27 12.53 7.56C12.82 7.86 12.82 8.33 12.53 8.62L12.25 8.91H15.91C18.04 8.91 19.78 10.64 19.78 12.78C19.78 14.92 18.04 16.66 15.91 16.66Z" fill="black"/>
</svg>
