<svg width="24" height="24" viewBox="0 0 24 24" fill="none" xmlns="http://www.w3.org/2000/svg">
<path d="M19.8 5.26L19.03 6.02999C18.89 6.17999 18.69 6.24999 18.5 6.24999C18.31 6.24999 18.12 6.17999 17.97 6.02999C17.68 5.73999 17.68 5.26 17.97 4.97L18.74 4.20001C19.04 3.90001 19.51 3.90001 19.8 4.20001C20.1 4.49001 20.1 4.96 19.8 5.26Z" fill="black"/>
<path d="M16.57 2.94002L16.29 4.00001C16.2 4.33001 15.9 4.55 15.57 4.55C15.5 4.55 15.44 4.55001 15.37 4.53001C14.97 4.42001 14.73 4.01 14.84 3.61L15.13 2.56001C15.23 2.16001 15.65 1.92001 16.04 2.03001C16.44 2.13001 16.68 2.54002 16.57 2.94002Z" fill="black"/>
<path d="M21.44 8.88002L20.39 9.16002C20.33 9.18002 20.26 9.18001 20.2 9.18001C19.86 9.18001 19.56 8.96002 19.47 8.63002C19.36 8.23002 19.6 7.82001 20 7.71001L21.06 7.43001C21.47 7.32001 21.87 7.56001 21.98 7.96001C22.08 8.36001 21.84 8.77002 21.44 8.88002Z" fill="black"/>
<path d="M17.49 8.04999L15.95 6.51001C15.6 6.16001 15.14 5.97 14.65 5.97C14.65 5.97 14.65 5.97 14.64 5.97C14.15 5.97 13.69 6.16001 13.34 6.51001L2.54 17.31C1.82 18.03 1.82 19.2 2.54 19.92L4.08 21.46C4.44 21.82 4.91 22 5.39 22C5.86 22 6.33 21.82 6.69 21.46L17.49 10.66C17.84 10.31 18.03 9.84999 18.03 9.35999C18.03 8.85999 17.84 8.39999 17.49 8.04999ZM16.43 9.60001L14.58 11.45C14.54 11.34 14.49 11.23 14.4 11.14L12.86 9.60001C12.77 9.51001 12.67 9.46001 12.55 9.42001L14.4 7.57001C14.49 7.49001 14.59 7.47 14.64 7.47H14.65C14.7 7.47 14.8 7.49001 14.89 7.57001L16.43 9.12C16.52 9.2 16.53 9.29999 16.53 9.35999C16.53 9.40999 16.52 9.51001 16.43 9.60001Z" fill="black"/>
<path d="M21.98 7.96001C21.87 7.56001 21.47 7.32001 21.06 7.43001L20 7.71001C19.6 7.82001 19.36 8.23002 19.47 8.63002C19.56 8.96002 19.86 9.18001 20.2 9.18001C20.26 9.18001 20.33 9.18002 20.39 9.16002L21.44 8.88002C21.84 8.77002 22.08 8.36001 21.98 7.96001ZM19.8 4.20003C19.51 3.90003 19.04 3.90003 18.74 4.20003L17.97 4.97002C17.68 5.26002 17.68 5.74001 17.97 6.03001C18.12 6.18001 18.31 6.25001 18.5 6.25001C18.69 6.25001 18.89 6.18001 19.03 6.03001L19.8 5.26002C20.1 4.96002 20.1 4.49003 19.8 4.20003ZM16.04 2.03001C15.65 1.92001 15.23 2.16001 15.13 2.56001L14.84 3.61C14.73 4.01 14.97 4.42001 15.37 4.53001C15.44 4.55001 15.5 4.55 15.57 4.55C15.9 4.55 16.2 4.33001 16.29 4.00001L16.57 2.94002C16.68 2.54002 16.44 2.13001 16.04 2.03001Z" fill="black"/>
</svg>
