<svg width="20" height="20" viewBox="0 0 20 20" fill="none" xmlns="http://www.w3.org/2000/svg">
<path fill-rule="evenodd" clip-rule="evenodd" d="M16.25 0H3.75C1.67893 0 0 1.67893 0 3.75V16.25C0 18.3211 1.67893 20 3.75 20H16.25C18.3211 20 20 18.3211 20 16.25V3.75C20 1.67893 18.3211 0 16.25 0ZM4.41597 8.92595C4.27868 8.88667 4.13197 8.8922 3.99744 8.94241C3.84847 8.99801 3.72413 9.10478 3.64665 9.24364C3.51209 9.48478 3.20753 9.57118 2.96638 9.43662C2.72524 9.30206 2.63884 8.9975 2.7734 8.75636C2.96653 8.41026 3.27645 8.14413 3.64776 8.00554C4.01908 7.86695 4.42758 7.86494 4.80024 7.99986C4.8285 8.0101 4.85578 8.02285 4.88174 8.03798C5.16083 8.20059 5.38337 8.44483 5.51938 8.7378C5.6548 9.02947 5.69799 9.35549 5.64322 9.6723C5.59125 9.99489 5.43981 10.2177 5.24039 10.4266C5.13738 10.5344 4.9944 10.6644 4.82969 10.8141L4.82965 10.8141L4.82955 10.8142C4.72489 10.9094 4.61145 11.0125 4.49391 11.123C4.44496 11.1697 4.39757 11.2154 4.35165 11.26H5.15002C5.42617 11.26 5.65002 11.4839 5.65002 11.76C5.65002 12.0361 5.42617 12.26 5.15002 12.26H3.15002C2.94779 12.26 2.76548 12.1382 2.68808 11.9513C2.61069 11.7645 2.65347 11.5494 2.79647 11.4064C2.85845 11.3445 2.93118 11.2701 3.01388 11.1855L3.01414 11.1853C3.22009 10.9747 3.48778 10.7009 3.80479 10.3983L3.8075 10.3957L3.80751 10.3957C3.96854 10.2443 4.09626 10.1287 4.20147 10.0335C4.33598 9.91179 4.43369 9.82336 4.51716 9.73595C4.63435 9.61322 4.64745 9.5671 4.65614 9.51202L4.65749 9.50348L4.65756 9.5035C4.67808 9.38671 4.66231 9.26645 4.61238 9.15891C4.56873 9.0649 4.50081 8.98455 4.41597 8.92595ZM3.23 13.83C2.95386 13.83 2.73 14.0539 2.73 14.33C2.73 14.6061 2.95386 14.83 3.23 14.83H3.91549L3.64173 15.1112C3.50624 15.2504 3.46362 15.4555 3.53242 15.6371C3.60122 15.8188 3.769 15.9441 3.96269 15.9586C4.14162 15.972 4.3083 16.0546 4.42737 16.1888C4.53648 16.3118 4.59775 16.4693 4.60106 16.6327C4.56832 16.7409 4.50506 16.8378 4.41845 16.9114C4.32079 16.9944 4.19875 17.0434 4.0708 17.0508L4.06873 17.051C3.97256 17.057 3.87623 17.0422 3.7863 17.0076C3.69637 16.973 3.61495 16.9195 3.54761 16.8506C3.35462 16.6531 3.03806 16.6494 2.84055 16.8424C2.64305 17.0354 2.6394 17.3519 2.83239 17.5494C3.00024 17.7212 3.20316 17.8548 3.42732 17.941C3.65115 18.0271 3.8909 18.0639 4.13024 18.0491L4.13128 18.049L4.1 17.55L4.12921 18.0491L4.13024 18.0491C4.47469 18.0287 4.80317 17.8968 5.0661 17.6733C5.32928 17.4496 5.51246 17.1463 5.58792 16.8092C5.59432 16.7807 5.59819 16.7516 5.5995 16.7224C5.61919 16.2834 5.46709 15.8539 5.17544 15.5252C5.08863 15.4273 4.99148 15.3407 4.88629 15.2664L5.45828 14.6788C5.59849 14.5347 5.63881 14.3207 5.56064 14.1356C5.48248 13.9504 5.30101 13.83 5.1 13.83H3.23ZM7.03998 4.11C7.03998 3.69579 7.37576 3.36 7.78998 3.36H16.58C16.9942 3.36 17.33 3.69579 17.33 4.11C17.33 4.52421 16.9942 4.86 16.58 4.86H7.78998C7.37576 4.86 7.03998 4.52421 7.03998 4.11ZM7.78998 15.2C7.37576 15.2 7.03998 15.5358 7.03998 15.95C7.03998 16.3642 7.37576 16.7 7.78998 16.7H16.58C16.9942 16.7 17.33 16.3642 17.33 15.95C17.33 15.5358 16.9942 15.2 16.58 15.2H7.78998ZM7.03998 10.03C7.03998 9.61579 7.37576 9.28 7.78998 9.28H16.58C16.9942 9.28 17.33 9.61579 17.33 10.03C17.33 10.4442 16.9942 10.78 16.58 10.78H7.78998C7.37576 10.78 7.03998 10.4442 7.03998 10.03ZM5.07002 2.44C5.07002 2.25987 4.97312 2.09366 4.81637 2.0049C4.65961 1.91615 4.46724 1.91858 4.31277 2.01126L3.51277 2.49126C3.27598 2.63333 3.1992 2.94046 3.34127 3.17725C3.48335 3.41404 3.79048 3.49082 4.02727 3.34875L4.07002 3.3231V5.77C4.07002 6.04614 4.29388 6.27 4.57002 6.27C4.84616 6.27 5.07002 6.04614 5.07002 5.77V2.44Z" fill="black"/>
</svg>
