<svg width="24" height="24" viewBox="0 0 24 24" fill="none" xmlns="http://www.w3.org/2000/svg">
<path d="M12 2C6.49 2 2 6.49 2 12C2 17.51 6.49 22 12 22C17.51 22 22 17.51 22 12C22 6.49 17.51 2 12 2ZM11.21 14.06C11.21 14.47 10.87 14.81 10.46 14.81C10.05 14.81 9.70999 14.47 9.70999 14.06V9.94C9.70999 9.53 10.05 9.19 10.46 9.19C10.87 9.19 11.21 9.53 11.21 9.94V14.06ZM14.29 14.06C14.29 14.47 13.96 14.81 13.54 14.81C13.13 14.81 12.79 14.47 12.79 14.06V9.94C12.79 9.53 13.13 9.19 13.54 9.19C13.96 9.19 14.29 9.53 14.29 9.94V14.06Z" fill="black"/>
</svg>
