<svg width="24" height="24" viewBox="0 0 24 24" fill="none" xmlns="http://www.w3.org/2000/svg">
<path d="M19.07 4.92999C17.26 3.11999 14.76 2 12 2C9.24 2 6.73999 3.11999 4.92999 4.92999C3.11999 6.73999 2 9.24 2 12C2 17.52 6.48 22 12 22C14.76 22 17.26 20.88 19.07 19.07C20.88 17.26 22 14.76 22 12C22 9.24 20.88 6.73999 19.07 4.92999ZM15.35 12.72L10.63 15.14C10.52 15.2 10.39 15.23 10.26 15.23C10.12 15.23 9.97 15.19 9.84 15.11C9.6 14.96 9.45001 14.7 9.45001 14.42V9.57999C9.45001 9.29999 9.6 9.04001 9.84 8.89001C10.08 8.74001 10.38 8.72999 10.63 8.85999L15.35 11.28C15.63 11.42 15.79 11.69 15.79 12C15.79 12.31 15.63 12.58 15.35 12.72Z" fill="black"/>
</svg>
