<svg width="24" height="24" viewBox="0 0 24 24" fill="none" xmlns="http://www.w3.org/2000/svg">
<path d="M18.48 2H5.53C3.58 2 2 3.58 2 5.53V18.47C2 20.42 3.58 22 5.53 22H18.48C20.42 22 22 20.42 22 18.47V5.53C22 3.58 20.42 2 18.48 2ZM12 19.44C8.34 19.44 5.37 16.46 5.37 12.8C5.37 10.48 6.54999 8.36999 8.51999 7.14999C8.86999 6.93999 9.32999 7.04999 9.54999 7.39999C9.76999 7.74999 9.66 8.20999 9.31 8.42999C7.78 9.36999 6.87 11.01 6.87 12.8C6.87 15.63 9.17 17.94 12 17.94C14.83 17.94 17.14 15.63 17.14 12.8C17.14 11.01 16.22 9.36999 14.69 8.42999C14.34 8.20999 14.23 7.74999 14.45 7.39999C14.67 7.03999 15.13 6.93999 15.48 7.14999C17.46 8.36999 18.64 10.48 18.64 12.8C18.64 16.46 15.66 19.44 12 19.44ZM12.75 5.31V9.23999C12.75 9.64999 12.41 9.98999 12 9.98999C11.59 9.98999 11.25 9.64999 11.25 9.23999V5.31C11.25 4.9 11.59 4.56 12 4.56C12.41 4.56 12.75 4.9 12.75 5.31Z" fill="black"/>
</svg>
