<svg width="24" height="24" viewBox="0 0 24 24" fill="none" xmlns="http://www.w3.org/2000/svg">
<path d="M18.48 2H5.53C3.58 2 2 3.58 2 5.53V18.47C2 20.42 3.58 22 5.53 22H18.48C20.42 22 22 20.42 22 18.47V5.53C22 3.58 20.42 2 18.48 2ZM15.88 15.85C15.46 15.85 15.13 15.52 15.13 15.1C15.13 14.69 15.46 14.35 15.88 14.35C17.18 14.35 18.23 13.3 18.23 12C18.23 10.7 17.18 9.64999 15.88 9.64999H12.24L12.82 10.23C13.12 10.52 13.12 11 12.82 11.29C12.68 11.44 12.49 11.51 12.29 11.51C12.1 11.51 11.91 11.44 11.76 11.29L9.9 9.42999C9.61 9.13999 9.61 8.66 9.9 8.37L11.76 6.51001C12.06 6.21001 12.53 6.21001 12.82 6.51001C13.12 6.80001 13.12 7.28001 12.82 7.57001L12.24 8.14999H15.88C18 8.14999 19.73 9.88 19.73 12C19.73 14.12 18 15.85 15.88 15.85ZM4.27 12C4.27 9.88 6 8.14999 8.12 8.14999C8.54 8.14999 8.87 8.47999 8.87 8.89999C8.87 9.30999 8.54 9.64999 8.12 9.64999C6.83 9.64999 5.77 10.7 5.77 12C5.77 13.3 6.83 14.35 8.12 14.35H11.74L11.16 13.77C10.87 13.48 10.87 13 11.16 12.71C11.45 12.42 11.93 12.42 12.22 12.71L14.08 14.57C14.37 14.86 14.37 15.34 14.08 15.63L12.22 17.49C12.07 17.64 11.88 17.71 11.69 17.71C11.5 17.71 11.31 17.64 11.16 17.49C10.87 17.2 10.87 16.72 11.16 16.43L11.74 15.85H8.12C6 15.85 4.27 14.12 4.27 12Z" fill="black"/>
</svg>
