<svg width="24" height="24" viewBox="0 0 24 24" fill="none" xmlns="http://www.w3.org/2000/svg">
<path d="M12 8.64001C12.6959 8.64001 13.26 8.07588 13.26 7.38C13.26 6.68413 12.6959 6.12 12 6.12C11.3041 6.12 10.74 6.68413 10.74 7.38C10.74 8.07588 11.3041 8.64001 12 8.64001Z" fill="black"/>
<path d="M12 4.51999C12.6959 4.51999 13.26 3.95589 13.26 3.26001C13.26 2.56413 12.6959 2 12 2C11.3041 2 10.74 2.56413 10.74 3.26001C10.74 3.95589 11.3041 4.51999 12 4.51999Z" fill="black"/>
<path d="M21.42 18.75C21.42 20.54 19.96 22 18.17 22C17.09 22 16.13 21.46 15.54 20.65C15.54 20.64 15.53 20.6401 15.53 20.6401V20.63C15.41 20.47 15.32 20.3 15.23 20.12L11.99 14.53L8.75 20.12C8.66 20.3 8.57 20.47 8.45 20.63V20.6401C8.45 20.6401 8.44 20.64 8.44 20.65C7.85 21.46 6.89 22 5.81 22C4.02 22 2.56 20.54 2.56 18.75C2.56 16.96 4.02 15.5 5.81 15.5C7.06 15.5 8.13999 16.22 8.67999 17.25L11.12 13.04L5.37 3.13004C5.17 2.77004 5.28999 2.31004 5.64999 2.10004C6.00999 1.89004 6.46 2.02003 6.67 2.37003L11.99 11.54L17.31 2.37003C17.52 2.02003 17.98 1.89004 18.33 2.10004C18.69 2.31004 18.81 2.77004 18.61 3.13004L12.86 13.04L15.3 17.25C15.84 16.22 16.92 15.5 18.17 15.5C19.96 15.5 21.42 16.96 21.42 18.75Z" fill="black"/>
</svg>
