<svg width="24" height="24" viewBox="0 0 24 24" fill="none" xmlns="http://www.w3.org/2000/svg">
<path d="M21.78 20.72L17.82 16.76C19.14 15.19 19.94 13.18 19.94 10.97C19.94 6.03 15.92 2 10.97 2C6.03 2 2 6.03 2 10.97C2 15.92 6.03 19.94 10.97 19.94C13.18 19.94 15.2 19.14 16.76 17.82L20.72 21.78C20.87 21.93 21.06 22 21.25 22C21.44 22 21.63 21.93 21.78 21.78C22.07 21.49 22.07 21.01 21.78 20.72ZM13.03 11.72H11.72V13.03C11.72 13.44 11.39 13.78 10.97 13.78C10.56 13.78 10.22 13.44 10.22 13.03V11.72H8.92001C8.50001 11.72 8.17001 11.39 8.17001 10.97C8.17001 10.56 8.50001 10.22 8.92001 10.22H10.22V8.92C10.22 8.5 10.56 8.17 10.97 8.17C11.39 8.17 11.72 8.5 11.72 8.92V10.22H13.03C13.44 10.22 13.78 10.56 13.78 10.97C13.78 11.39 13.44 11.72 13.03 11.72Z" fill="black"/>
</svg>
