<svg width="24" height="24" viewBox="0 0 24 24" fill="none" xmlns="http://www.w3.org/2000/svg">
<path d="M22 12C22 12.41 21.66 12.75 21.25 12.75H9.54999C9.21999 13.92 8.14999 14.79 6.85999 14.79C5.57999 14.79 4.50001 13.92 4.17001 12.75H2.75C2.34 12.75 2 12.41 2 12C2 11.59 2.34 11.25 2.75 11.25H4.17001C4.50001 10.08 5.57999 9.20999 6.85999 9.20999C8.14999 9.20999 9.21999 10.08 9.54999 11.25H21.25C21.66 11.25 22 11.59 22 12Z" fill="black"/>
<path d="M22 19.15C22 19.57 21.66 19.9 21.25 19.9H19.83C19.5 21.08 18.42 21.94 17.14 21.94C15.86 21.94 14.78 21.08 14.45 19.9H2.75C2.34 19.9 2 19.57 2 19.15C2 18.74 2.34 18.4 2.75 18.4H14.45C14.78 17.23 15.86 16.36 17.14 16.36C18.42 16.36 19.5 17.23 19.83 18.4H21.25C21.66 18.4 22 18.74 22 19.15Z" fill="black"/>
<path d="M22 4.85C22 5.26 21.66 5.6 21.25 5.6H19.83C19.5 6.77 18.42 7.64 17.14 7.64C15.86 7.64 14.78 6.77 14.45 5.6H2.75C2.34 5.6 2 5.26 2 4.85C2 4.43 2.34 4.1 2.75 4.1H14.45C14.78 2.92 15.86 2.06 17.14 2.06C18.42 2.06 19.5 2.92 19.83 4.1H21.25C21.66 4.1 22 4.43 22 4.85Z" fill="black"/>
</svg>
