<svg width="24" height="24" viewBox="0 0 24 24" fill="none" xmlns="http://www.w3.org/2000/svg">
<path d="M12 2C6.49 2 2 6.49 2 12C2 17.51 6.49 22 12 22C17.51 22 22 17.51 22 12C22 6.49 17.51 2 12 2ZM15.6 8.73999C16.3 8.73999 16.86 9.3 16.86 10C16.86 10.7 16.3 11.26 15.6 11.26C14.9 11.26 14.33 10.7 14.33 10C14.33 9.3 14.9 8.73999 15.6 8.73999ZM8.39999 8.73999C9.09999 8.73999 9.67 9.3 9.67 10C9.67 10.7 9.09999 11.26 8.39999 11.26C7.70999 11.26 7.14 10.7 7.14 10C7.14 9.3 7.70999 8.73999 8.39999 8.73999ZM16.71 16.63C16.39 16.89 15.92 16.84 15.66 16.51C15.43 16.23 14.19 14.82 12.13 14.81H12.09C9.92 14.81 8.62 16.39 8.48 16.57C8.33 16.76 8.11 16.86 7.89 16.86C7.73 16.86 7.55999 16.81 7.42999 16.7C7.09999 16.45 7.04 15.98 7.3 15.65C7.6 15.26 9.27 13.31 12.09 13.31H12.14C14.88 13.33 16.52 15.2 16.83 15.58C17.09 15.9 17.03 16.37 16.71 16.63Z" fill="black"/>
</svg>
