<svg width="24" height="24" viewBox="0 0 24 24" fill="none" xmlns="http://www.w3.org/2000/svg">
<path d="M12 2C6.49 2 2 6.49 2 12C2 17.51 6.49 22 12 22C17.51 22 22 17.51 22 12C22 6.49 17.51 2 12 2ZM16.83 15.55C16.52 15.94 14.86 17.89 12.04 17.89H11.99C9.26001 17.87 7.61 16 7.31 15.62C7.05 15.3 7.1 14.83 7.42 14.57C7.74 14.31 8.21 14.35 8.47 14.68C8.7 14.96 9.94999 16.37 12.01 16.39H12.04C14.21 16.39 15.51 14.8 15.65 14.62C15.91 14.3 16.38 14.24 16.7 14.49C17.03 14.75 17.09 15.22 16.83 15.55ZM8.39999 8.73999C9.09999 8.73999 9.67 9.3 9.67 10C9.67 10.7 9.09999 11.26 8.39999 11.26C7.70999 11.26 7.14 10.7 7.14 10C7.14 9.3 7.70999 8.73999 8.39999 8.73999ZM14.33 10C14.33 9.3 14.9 8.73999 15.6 8.73999C16.3 8.73999 16.86 9.3 16.86 10C16.86 10.7 16.3 11.26 15.6 11.26C14.9 11.26 14.33 10.7 14.33 10Z" fill="black"/>
</svg>
