<svg width="24" height="24" viewBox="0 0 24 24" fill="none" xmlns="http://www.w3.org/2000/svg">
<path d="M12.75 4V5C12.75 5.41 12.41 5.75 12 5.75C11.59 5.75 11.25 5.41 11.25 5V4C11.25 3.59 11.59 3.25 12 3.25C12.41 3.25 12.75 3.59 12.75 4Z" fill="black"/>
<path d="M7.58 7.58C7.44 7.73 7.24 7.8 7.05 7.8C6.86 7.8 6.67 7.73 6.52 7.58L5.81 6.87C5.52 6.58 5.52 6.11 5.81 5.81C6.11 5.52 6.58 5.52 6.87 5.81L7.58 6.52001C7.87 6.81001 7.87 7.29 7.58 7.58Z" fill="black"/>
<path d="M5.75 12C5.75 12.41 5.41 12.75 5 12.75H4C3.59 12.75 3.25 12.41 3.25 12C3.25 11.59 3.59 11.25 4 11.25H5C5.41 11.25 5.75 11.59 5.75 12Z" fill="black"/>
<path d="M7.58 17.48L6.87 18.19C6.73 18.33 6.54 18.41 6.34 18.41C6.15 18.41 5.96 18.33 5.81 18.19C5.52 17.89 5.52 17.42 5.81 17.13L6.52 16.42C6.81 16.13 7.29 16.13 7.58 16.42C7.87 16.71 7.87 17.19 7.58 17.48Z" fill="black"/>
<path d="M12.75 19V20C12.75 20.41 12.41 20.75 12 20.75C11.59 20.75 11.25 20.41 11.25 20V19C11.25 18.59 11.59 18.25 12 18.25C12.41 18.25 12.75 18.59 12.75 19Z" fill="black"/>
<path d="M18.19 18.19C18.04 18.33 17.85 18.41 17.66 18.41C17.47 18.41 17.27 18.33 17.13 18.19L16.42 17.48C16.13 17.19 16.13 16.71 16.42 16.42C16.71 16.13 17.19 16.13 17.48 16.42L18.19 17.13C18.48 17.42 18.48 17.89 18.19 18.19Z" fill="black"/>
<path d="M20.75 12C20.75 12.41 20.41 12.75 20 12.75H19C18.59 12.75 18.25 12.41 18.25 12C18.25 11.59 18.59 11.25 19 11.25H20C20.41 11.25 20.75 11.59 20.75 12Z" fill="black"/>
<path d="M18.19 6.87L17.48 7.58C17.33 7.73 17.14 7.8 16.95 7.8C16.76 7.8 16.57 7.73 16.42 7.58C16.13 7.29 16.13 6.81001 16.42 6.52001L17.13 5.81C17.42 5.52 17.9 5.52 18.19 5.81C18.48 6.11 18.48 6.58 18.19 6.87Z" fill="black"/>
<path d="M5.75 12C5.75 12.41 5.41 12.75 5 12.75H4C3.59 12.75 3.25 12.41 3.25 12C3.25 11.59 3.59 11.25 4 11.25H5C5.41 11.25 5.75 11.59 5.75 12Z" fill="black"/>
<path d="M7.58 16.42C7.87 16.71 7.87 17.19 7.58 17.48L6.87 18.19C6.73 18.33 6.54 18.41 6.34 18.41C6.15 18.41 5.96 18.33 5.81 18.19C5.52 17.89 5.52 17.42 5.81 17.13L6.52 16.42C6.81 16.13 7.29 16.13 7.58 16.42Z" fill="black"/>
<path d="M7.58 6.52001C7.87 6.81001 7.87 7.29 7.58 7.58C7.44 7.73 7.24 7.8 7.05 7.8C6.86 7.8 6.67 7.73 6.52 7.58L5.81 6.87C5.52 6.58 5.52 6.11 5.81 5.81C6.11 5.52 6.58 5.52 6.87 5.81L7.58 6.52001Z" fill="black"/>
<path d="M11.25 5V4C11.25 3.59 11.59 3.25 12 3.25C12.41 3.25 12.75 3.59 12.75 4V5C12.75 5.41 12.41 5.75 12 5.75C11.59 5.75 11.25 5.41 11.25 5Z" fill="black"/>
<path d="M12.75 19V20C12.75 20.41 12.41 20.75 12 20.75C11.59 20.75 11.25 20.41 11.25 20V19C11.25 18.59 11.59 18.25 12 18.25C12.41 18.25 12.75 18.59 12.75 19Z" fill="black"/>
<path d="M12 15.75C14.0711 15.75 15.75 14.0711 15.75 12C15.75 9.92893 14.0711 8.25 12 8.25C9.92893 8.25 8.25 9.92893 8.25 12C8.25 14.0711 9.92893 15.75 12 15.75Z" fill="black"/>
<path d="M18.19 17.13C18.48 17.42 18.48 17.89 18.19 18.19C18.04 18.33 17.85 18.41 17.66 18.41C17.47 18.41 17.27 18.33 17.13 18.19L16.42 17.48C16.13 17.19 16.13 16.71 16.42 16.42C16.71 16.13 17.19 16.13 17.48 16.42L18.19 17.13Z" fill="black"/>
<path d="M16.42 7.58C16.13 7.29 16.13 6.81001 16.42 6.52001L17.13 5.81C17.42 5.52 17.9 5.52 18.19 5.81C18.48 6.11 18.48 6.58 18.19 6.87L17.48 7.58C17.33 7.73 17.14 7.8 16.95 7.8C16.76 7.8 16.57 7.73 16.42 7.58Z" fill="black"/>
<path d="M20.75 12C20.75 12.41 20.41 12.75 20 12.75H19C18.59 12.75 18.25 12.41 18.25 12C18.25 11.59 18.59 11.25 19 11.25H20C20.41 11.25 20.75 11.59 20.75 12Z" fill="black"/>
</svg>
