<svg width="24" height="24" viewBox="0 0 24 24" fill="none" xmlns="http://www.w3.org/2000/svg">
<path d="M18.48 2H5.53C3.58 2 2 3.58 2 5.53V18.47C2 20.42 3.58 22 5.53 22H18.48C20.42 22 22 20.42 22 18.47V5.53C22 3.58 20.42 2 18.48 2ZM19.57 12.85C19.42 13 19.23 13.07 19.04 13.07C18.85 13.07 18.66 13 18.51 12.85L17.78 12.12V14.87C17.78 16.47 16.48 17.78 14.87 17.78H9.13C8.71 17.78 8.38 17.44 8.38 17.03C8.38 16.61 8.71 16.28 9.13 16.28H14.87C15.65 16.28 16.28 15.65 16.28 14.87V12.12L15.55 12.85C15.4 13 15.21 13.07 15.02 13.07C14.83 13.07 14.64 13 14.49 12.85C14.2 12.56 14.2 12.08 14.49 11.79L16.5 9.78C16.57 9.71 16.66 9.65 16.75 9.62C16.8 9.58999 16.86 9.58999 16.91 9.57999C16.95 9.57999 16.99 9.56 17.03 9.56C17.08 9.56 17.13 9.58 17.17 9.59C17.22 9.6 17.27 9.6 17.31 9.62C17.4 9.65 17.49 9.71 17.56 9.78L19.57 11.79C19.86 12.08 19.86 12.56 19.57 12.85ZM4.43 11.47C4.72 11.18 5.2 11.18 5.49 11.47L6.22 12.2V9.13C6.22 7.53 7.53 6.22 9.13 6.22H14.87C15.29 6.22 15.62 6.56 15.62 6.97C15.62 7.39 15.29 7.72 14.87 7.72H9.13C8.35 7.72 7.72 8.35001 7.72 9.13V12.2L8.45 11.47C8.75 11.18 9.22 11.18 9.51 11.47C9.81 11.76 9.81 12.24 9.51 12.53L7.5 14.54C7.36 14.69 7.16 14.76 6.97 14.76C6.78 14.76 6.59 14.69 6.44 14.54L4.43 12.53C4.14 12.24 4.14 11.76 4.43 11.47Z" fill="black"/>
</svg>
