<svg width="24" height="24" viewBox="0 0 24 24" fill="none" xmlns="http://www.w3.org/2000/svg">
<path d="M19.9 6.4C19.78 5.18 18.82 4.22001 17.61 4.10001L14.06 3.76001C13.26 3.69001 12.49 3.97001 11.92 4.54001L4.54004 11.92C4.04004 12.42 3.76003 13.07 3.75003 13.77C3.74003 14.47 4.00003 15.12 4.50003 15.62L8.38004 19.5C8.86004 19.99 9.51004 20.25 10.19 20.25H10.23C10.93 20.24 11.58 19.96 12.08 19.46L19.46 12.08C20.03 11.51 20.32 10.73 20.24 9.95001L19.9 6.4ZM18.4 11.02L11.02 18.4C10.8 18.62 10.51 18.75 10.21 18.75C9.91003 18.73 9.65004 18.65 9.44004 18.44L5.56003 14.56C5.36003 14.35 5.25003 14.08 5.25003 13.79C5.26003 13.49 5.38004 13.2 5.60004 12.98L12.98 5.60001C13.21 5.37001 13.5 5.25 13.81 5.25C13.84 5.25 13.88 5.25001 13.91 5.26001L17.46 5.59C17.97 5.64 18.36 6.03001 18.41 6.54001L18.75 10.09C18.78 10.43 18.65 10.77 18.4 11.02Z" fill="black"/>
<path d="M19.9 6.4C19.78 5.18 18.82 4.22001 17.61 4.10001L14.06 3.76001C13.26 3.69001 12.49 3.97001 11.92 4.54001L4.54004 11.92C4.04004 12.42 3.76003 13.07 3.75003 13.77C3.74003 14.47 4.00003 15.12 4.50003 15.62L8.38004 19.5C8.86004 19.99 9.51004 20.25 10.19 20.25H10.23C10.93 20.24 11.58 19.96 12.08 19.46L19.46 12.08C20.03 11.51 20.32 10.73 20.24 9.95001L19.9 6.4ZM14.97 7.53C15.38 7.11 16.06 7.11 16.47 7.53C16.89 7.94 16.89 8.62 16.47 9.03C16.27 9.24 15.99 9.35001 15.72 9.35001C15.45 9.35001 15.17 9.24 14.97 9.03C14.55 8.62 14.55 7.94 14.97 7.53Z" fill="black"/>
</svg>
