<svg width="24" height="24" viewBox="0 0 24 24" fill="none" xmlns="http://www.w3.org/2000/svg">
<path d="M21.7 12C21.89 12.37 22 12.79 22 13.22C22 14.64 20.84 15.79 19.41 15.79H16.84C17.56 18.63 17.09 20.54 15.44 21.49C15.05 21.71 13.73 22.26 12.77 21.86C12.35 21.68 12.06 21.34 11.94 20.85C11.64 19.64 11.35 18.5 10.68 17.51C10.34 17.02 9.87001 16.45 9.32001 16.11V14.45V14.31V5.72998V5.07001V4.15997L10.68 3.71002C11.44 3.45002 12.24 3.32001 13.05 3.32001H18.18C19.61 3.32001 20.78 4.48002 20.78 5.90002C20.78 5.98002 20.78 6.06001 20.77 6.14001C21.52 6.61001 22 7.43003 22 8.34003C22 8.77003 21.89 9.19 21.7 9.56C21.89 9.93 22 10.35 22 10.78C22 11.21 21.89 11.63 21.7 12Z" fill="black"/>
<path d="M6.25 17.38C6.83 17.38 7.36001 17.22 7.82001 16.94V14.31V5.07001V2.44C7.36001 2.16 6.83 2 6.25 2H2.75C2.34 2 2 2.34 2 2.75V16.62C2 17.04 2.34 17.38 2.75 17.38H6.25ZM6.42999 6.03998C6.42999 6.46998 6.09 6.82001 5.66 6.82001C5.23 6.82001 4.88 6.46998 4.88 6.03998C4.88 5.60998 5.23 5.27002 5.66 5.27002C6.09 5.27002 6.42999 5.60998 6.42999 6.03998Z" fill="black"/>
</svg>
