<svg width="24" height="24" viewBox="0 0 24 24" fill="none" xmlns="http://www.w3.org/2000/svg">
<path d="M18.25 2H5.75C3.68 2 2 3.68 2 5.75V18.25C2 20.32 3.68 22 5.75 22H18.25C20.32 22 22 20.32 22 18.25V5.75C22 3.68 20.32 2 18.25 2ZM8.92 17.15C8.77 17.29 8.58999 17.36 8.39999 17.36C8.19999 17.36 8.01 17.28 7.86 17.12C7.12 16.34 6.6 15.36 6.36 14.28C6.18 13.47 6.21 12.67 6.23 11.9C6.24 11.64 6.25 11.39 6.25 11.13C6.25 7.96 8.83 5.38 12 5.38C13.47 5.38 14.87 5.94 15.94 6.95C16.25 7.23 16.26 7.71 15.98 8.01C15.69 8.31 15.22 8.32 14.91 8.04C14.12 7.29 13.09 6.88 12 6.88C9.66 6.88 7.75 8.79 7.75 11.13C7.75 11.4 7.74 11.68 7.73 11.95C7.71 12.66 7.69 13.33 7.83 13.96C8.01 14.77 8.4 15.5 8.95 16.09C9.23 16.4 9.22 16.87 8.92 17.15ZM12 14.65C12.18 14.65 12.36 14.62 12.53 14.56C12.93 14.41 13.36 14.6 13.5 14.99C13.65 15.38 13.45 15.81 13.06 15.96C12.72 16.09 12.36 16.15 12 16.15C10.33 16.15 8.98 14.8 8.98 13.13V11.36C8.98 10.95 9.31 10.61 9.73 10.61C10.14 10.61 10.48 10.95 10.48 11.36V13.13C10.48 13.97 11.16 14.65 12 14.65ZM11.25 12.57V11.45C11.25 11.04 11.59 10.7 12 10.7C12.41 10.7 12.75 11.04 12.75 11.45V12.57C12.75 12.99 12.41 13.32 12 13.32C11.59 13.32 11.25 12.99 11.25 12.57ZM13.5 13.38C13.51 13.3 13.52 13.22 13.52 13.13V11.13C13.52 10.29 12.84 9.61 12 9.61C11.77 9.61 11.54 9.66 11.34 9.76C10.96 9.94 10.52 9.78 10.33 9.41C10.15 9.04 10.31 8.59 10.68 8.41C11.09 8.21 11.54 8.11 12 8.11C13.67 8.11 15.02 9.46 15.02 11.13V13.13C15.02 13.3 15.01 13.46 14.98 13.62C14.92 13.99 14.6 14.25 14.24 14.25C14.2 14.25 14.16 14.25 14.12 14.24C13.71 14.18 13.44 13.79 13.5 13.38ZM17.75 13.13C17.75 16.3 15.17 18.88 12 18.88C11.37 18.88 10.74 18.78 10.15 18.58C9.75999 18.44 9.54999 18.02 9.67999 17.62C9.80999 17.23 10.24 17.02 10.63 17.16C11.07 17.3 11.53 17.38 12 17.38C14.34 17.38 16.25 15.47 16.25 13.13V11.13C16.25 10.53 16.13 9.96 15.89 9.42C15.72 9.04 15.9 8.6 16.27 8.43C16.65 8.26 17.1 8.43 17.26 8.81C17.59 9.54 17.75 10.32 17.75 11.13V13.13Z" fill="black"/>
</svg>
