<svg width="24" height="24" viewBox="0 0 24 24" fill="none" xmlns="http://www.w3.org/2000/svg">
<path d="M15.41 6.19C15.2681 6.32805 15.078 6.4053 14.88 6.4053C14.6821 6.4053 14.4919 6.32805 14.35 6.19L12.75 4.58V11.28C12.75 11.4789 12.671 11.6697 12.5304 11.8103C12.3897 11.951 12.1989 12.03 12 12.03C11.8011 12.03 11.6103 11.951 11.4697 11.8103C11.329 11.6697 11.25 11.4789 11.25 11.28V4.57L9.65003 6.18C9.58136 6.25369 9.49856 6.31279 9.40656 6.35378C9.31457 6.39477 9.21525 6.41682 9.11455 6.41859C9.01385 6.42037 8.91382 6.40184 8.82043 6.36412C8.72704 6.3264 8.64221 6.27026 8.57099 6.19904C8.49977 6.12782 8.44362 6.04299 8.4059 5.9496C8.36818 5.85621 8.34966 5.75618 8.35144 5.65548C8.35321 5.55478 8.37525 5.45546 8.41625 5.36346C8.45724 5.27146 8.51634 5.18866 8.59003 5.12L11.47 2.22C11.5393 2.14989 11.6218 2.09431 11.7128 2.05653C11.8038 2.01876 11.9015 1.99954 12 2C12.1987 2.00126 12.3889 2.08023 12.53 2.22L15.42 5.12C15.5598 5.26364 15.6371 5.45667 15.6352 5.65706C15.6334 5.85745 15.5524 6.049 15.41 6.19Z" fill="black"/>
<path d="M18.4 7.29H13.75V11.29C13.75 11.7541 13.5657 12.1992 13.2375 12.5274C12.9093 12.8556 12.4642 13.04 12 13.04C11.5359 13.04 11.0908 12.8556 10.7626 12.5274C10.4344 12.1992 10.25 11.7541 10.25 11.29V7.29H5.61003C4.62774 7.31619 3.69595 7.73101 3.01916 8.44342C2.34236 9.15584 1.97584 10.1077 2.00003 11.09V18.19C1.97581 19.1733 2.34202 20.1262 3.01855 20.8402C3.69507 21.5542 4.62684 21.9712 5.61003 22H18.4C19.3815 21.9686 20.3107 21.5505 20.9851 20.8368C21.6594 20.123 22.0243 19.1716 22 18.19V11.09C22.0243 10.1093 21.6591 9.159 20.9844 8.44687C20.3098 7.73474 19.3806 7.31879 18.4 7.29ZM15 19.36H8.85003C8.65112 19.36 8.46035 19.281 8.3197 19.1403C8.17905 18.9997 8.10003 18.8089 8.10003 18.61C8.10003 18.4111 8.17905 18.2203 8.3197 18.0797C8.46035 17.939 8.65112 17.86 8.85003 17.86H15C15.1989 17.86 15.3897 17.939 15.5304 18.0797C15.671 18.2203 15.75 18.4111 15.75 18.61C15.75 18.8089 15.671 18.9997 15.5304 19.1403C15.3897 19.281 15.1989 19.36 15 19.36ZM15.06 16.86H8.92003C8.72112 16.86 8.53035 16.781 8.3897 16.6403C8.24905 16.4997 8.17003 16.3089 8.17003 16.11C8.17003 15.9111 8.24905 15.7203 8.3897 15.5797C8.53035 15.439 8.72112 15.36 8.92003 15.36H15.08C15.2789 15.36 15.4697 15.439 15.6104 15.5797C15.751 15.7203 15.83 15.9111 15.83 16.11C15.83 16.3089 15.751 16.4997 15.6104 16.6403C15.4697 16.781 15.2789 16.86 15.08 16.86H15.06Z" fill="black"/>
</svg>
