<svg width="24" height="24" viewBox="0 0 24 24" fill="none" xmlns="http://www.w3.org/2000/svg">
<path d="M18.17 2H5.82999C3.71999 2 2 3.72 2 5.83V18.17C2 20.28 3.71999 22 5.82999 22H18.17C19.99 22 21.51 20.72 21.9 19.02C21.96 18.91 22 18.79 22 18.66V5.83C22 3.72 20.28 2 18.17 2ZM18.92 13.03C18.92 13.44 18.58 13.78 18.17 13.78C17.75 13.78 17.42 13.44 17.42 13.03V10.97C17.42 10.56 17.75 10.22 18.17 10.22C18.58 10.22 18.92 10.56 18.92 10.97V13.03ZM5.07999 13.03V10.97C5.07999 10.56 5.41999 10.22 5.82999 10.22C6.24999 10.22 6.57999 10.56 6.57999 10.97V13.03C6.57999 13.44 6.24999 13.78 5.82999 13.78C5.41999 13.78 5.07999 13.44 5.07999 13.03ZM15.83 8.92V15.08C15.83 15.5 15.5 15.83 15.08 15.83C14.67 15.83 14.33 15.5 14.33 15.08V8.92C14.33 8.5 14.67 8.17 15.08 8.17C15.5 8.17 15.83 8.5 15.83 8.92ZM12.75 6.86V17.14C12.75 17.55 12.41 17.89 12 17.89C11.59 17.89 11.25 17.55 11.25 17.14V6.86C11.25 6.45 11.59 6.11 12 6.11C12.41 6.11 12.75 6.45 12.75 6.86ZM9.67001 8.92V15.08C9.67001 15.5 9.33001 15.83 8.92001 15.83C8.50001 15.83 8.17001 15.5 8.17001 15.08V8.92C8.17001 8.5 8.50001 8.17 8.92001 8.17C9.33001 8.17 9.67001 8.5 9.67001 8.92Z" fill="black"/>
</svg>
