<svg width="24" height="24" viewBox="0 0 24 24" fill="none" xmlns="http://www.w3.org/2000/svg">
<path d="M9.94 20.75C8.76 20.75 7.62 20.5 6.55 20L2.89 20.53C2.65 20.57 2.42 20.48 2.25 20.32C2.08 20.15 1.99999 19.91 2.03999 19.68L2.60001 15.97C2.20001 15.01 2 14.01 2 13C2 10.98 2.79 9.06 4.23 7.61C4.52 7.31 4.99999 7.32 5.28999 7.61C5.57999 7.9 5.58999 8.38 5.28999 8.67C4.12999 9.84 3.49001 11.37 3.49001 13C3.49001 13.87 3.68 14.74 4.06 15.57C4.14 15.74 4.15 15.93 4.09 16.11L3.67 18.91L6.56 18.49C6.71 18.47 6.86 18.49 7 18.56C8.12 19.12 9.37 19.34 10.58 19.22C10.98 19.17 11.36 19.48 11.4 19.89C11.44 20.3 11.14 20.67 10.73 20.71C10.48 20.74 10.21 20.75 9.94 20.75Z" fill="black"/>
<path d="M22.01 11C22.01 6.73 18.44 3.25 14.06 3.25C11.91 3.25 9.90999 4.07 8.42999 5.54C6.93999 7.01 6.12 8.94 6.12 11C6.12 15.27 9.68 18.75 14.06 18.75C14.46 18.75 14.84 18.72 15.16 18.67C15.17 18.67 15.19 18.67 15.2 18.66C15.99 18.55 16.74 18.33 17.45 18L21.11 18.53C21.35 18.57 21.58 18.49 21.75 18.32C21.91 18.15 21.99 17.91 21.96 17.68L21.4 13.96C21.8 13.01 22.01 12.01 22.01 11ZM11.61 11.25C11.51 11.56 11.21 11.78 10.86 11.78C10.42 11.78 10.06 11.43 10.06 11C10.06 10.57 10.42 10.22 10.86 10.22C10.95 10.22 11.03 10.23 11.11 10.26C11.43 10.36 11.66 10.66 11.66 11C11.66 11.09 11.64 11.17 11.61 11.25ZM14.06 11.78C13.62 11.78 13.26 11.43 13.26 11C13.26 10.57 13.62 10.22 14.06 10.22C14.5 10.22 14.86 10.57 14.86 11C14.86 11.43 14.5 11.78 14.06 11.78ZM17.26 11.78C16.82 11.78 16.46 11.43 16.46 11C16.46 10.57 16.82 10.22 17.26 10.22C17.7 10.22 18.06 10.57 18.06 11C18.06 11.43 17.7 11.78 17.26 11.78Z" fill="black"/>
</svg>
