<svg width="24" height="24" viewBox="0 0 24 24" fill="none" xmlns="http://www.w3.org/2000/svg">
<path d="M19.01 8.17C18.92 8.17 18.83 8.19 18.76 8.22V7.86C18.76 6.6 17.91 5.55 16.76 5.21V3.76C16.76 2.79 15.96 2 14.99 2H9.01999C8.04999 2 7.26001 2.79 7.26001 3.76V5.21C6.10001 5.55 5.26001 6.6 5.26001 7.86V16.14C5.26001 17.4 6.10001 18.45 7.26001 18.79V20.24C7.26001 21.21 8.04999 22 9.01999 22H14.99C15.96 22 16.76 21.21 16.76 20.24V18.79C17.91 18.45 18.76 17.4 18.76 16.14V11.67C18.83 11.7 18.92 11.72 19.01 11.72C19.42 11.72 19.76 11.39 19.76 10.97V8.92C19.76 8.5 19.42 8.17 19.01 8.17ZM8.76001 3.76C8.76001 3.62 8.86999 3.5 9.01999 3.5H14.99C15.14 3.5 15.26 3.62 15.26 3.76V5.08H8.76001V3.76ZM15.26 20.24C15.26 20.38 15.14 20.5 14.99 20.5H9.01999C8.86999 20.5 8.76001 20.38 8.76001 20.24V18.92H15.26V20.24ZM17.26 16.14C17.26 16.84 16.68 17.42 15.98 17.42H8.03C7.33 17.42 6.76001 16.84 6.76001 16.14V7.86C6.76001 7.16 7.33 6.58 8.03 6.58H15.98C16.68 6.58 17.26 7.16 17.26 7.86V16.14Z" fill="black"/>
<path d="M19.01 8.17C18.92 8.17 18.83 8.19 18.76 8.22V7.86C18.76 6.6 17.91 5.55 16.76 5.21V3.76C16.76 2.79 15.96 2 14.99 2H9.01999C8.04999 2 7.26001 2.79 7.26001 3.76V5.21C6.10001 5.55 5.26001 6.6 5.26001 7.86V16.14C5.26001 17.4 6.10001 18.45 7.26001 18.79V20.24C7.26001 21.21 8.04999 22 9.01999 22H14.99C15.96 22 16.76 21.21 16.76 20.24V18.79C17.91 18.45 18.76 17.4 18.76 16.14V11.67C18.83 11.7 18.92 11.72 19.01 11.72C19.42 11.72 19.76 11.39 19.76 10.97V8.92C19.76 8.5 19.42 8.17 19.01 8.17ZM14.54 11.17L12.54 13.22C12.54 13.23 12.54 13.23 12.54 13.23C12.53 13.23 12.53 13.24 12.53 13.24C12.48 13.29 12.42 13.31 12.37 13.34C12.34 13.36 12.32 13.38 12.29 13.4C12.2 13.43 12.1 13.45 12.01 13.45C11.91 13.45 11.81 13.43 11.72 13.4C11.7 13.38 11.67 13.36 11.64 13.34C11.59 13.31 11.53 13.29 11.48 13.24V13.23C11.47 13.23 11.47 13.23 11.47 13.22L10.47 12.2C10.18 11.9 10.19 11.42 10.48 11.14C10.78 10.85 11.25 10.85 11.54 11.15L12.01 11.63L13.47 10.12C13.76 9.83 14.23 9.82 14.53 10.11C14.83 10.4 14.83 10.87 14.54 11.17ZM8.76001 3.76C8.76001 3.62 8.86999 3.5 9.01999 3.5H14.99C15.14 3.5 15.26 3.62 15.26 3.76V5.08H8.76001V3.76ZM15.26 20.24C15.26 20.38 15.14 20.5 14.99 20.5H9.01999C8.86999 20.5 8.76001 20.38 8.76001 20.24V18.92H15.26V20.24Z" fill="black"/>
</svg>
