<svg width="24" height="24" viewBox="0 0 24 24" fill="none" xmlns="http://www.w3.org/2000/svg">
<path d="M15.14 3.03H14.3V2.75C14.3 2.34 13.96 2 13.55 2H10.46C10.05 2 9.70999 2.34 9.70999 2.75V3.03H8.87C7.35 3.03 6.12 4.26 6.12 5.78V19.25C6.12 20.77 7.35 22 8.87 22H15.14C16.66 22 17.89 20.77 17.89 19.25V5.78C17.89 4.26 16.66 3.03 15.14 3.03ZM9.20001 18.17C9.20001 17.75 9.54001 17.42 9.95001 17.42H14.06C14.47 17.42 14.81 17.75 14.81 18.17C14.81 18.58 14.47 18.92 14.06 18.92H9.95001C9.54001 18.92 9.20001 18.58 9.20001 18.17ZM14.06 15.83H9.95001C9.54001 15.83 9.20001 15.5 9.20001 15.08C9.20001 14.67 9.54001 14.33 9.95001 14.33H14.06C14.47 14.33 14.81 14.67 14.81 15.08C14.81 15.5 14.47 15.83 14.06 15.83Z" fill="black"/>
</svg>
