<svg width="24" height="24" viewBox="0 0 24 24" fill="none" xmlns="http://www.w3.org/2000/svg">
<path d="M4.68 17.3C4.85229 17.388 5.05165 17.407 5.23747 17.3531C5.42328 17.2993 5.58154 17.1765 5.68 17.01C5.76971 16.837 5.78856 16.6359 5.73257 16.4492C5.67657 16.2626 5.55013 16.105 5.38 16.01C4.91705 15.7384 4.51598 15.3731 4.20255 14.9374C3.88912 14.5017 3.67026 14.0053 3.56 13.48C3.37684 12.6446 3.47339 11.7721 3.83478 10.9969C4.19617 10.2217 4.80236 9.58683 5.56 9.19C5.81565 9.07845 6.03371 8.89554 6.18802 8.66318C6.34233 8.43083 6.42635 8.1589 6.43 7.88C6.4105 7.29954 6.51045 6.72127 6.72367 6.18104C6.93688 5.64081 7.2588 5.15015 7.66948 4.73947C8.08015 4.3288 8.57082 4.00687 9.11105 3.79366C9.65128 3.58045 10.2296 3.48049 10.81 3.5C11.3783 3.4635 11.9482 3.54186 12.4855 3.7304C13.0229 3.91895 13.5168 4.21381 13.9377 4.5974C14.3586 4.98098 14.6979 5.44543 14.9354 5.96302C15.1729 6.48062 15.3037 7.04075 15.32 7.61C15.3253 7.80105 15.3707 7.98885 15.4534 8.16116C15.5361 8.33346 15.6542 8.4864 15.8 8.61C15.948 8.73621 16.1199 8.83136 16.3054 8.88977C16.491 8.94818 16.6864 8.96866 16.88 8.95C17.2898 8.92044 17.7014 8.97239 18.0911 9.10284C18.4807 9.23329 18.8406 9.43965 19.15 9.71C19.5674 10.079 19.903 10.5312 20.1355 11.0374C20.368 11.5437 20.4921 12.093 20.5 12.65C20.4831 13.2946 20.3194 13.9269 20.0214 14.4988C19.7233 15.0706 19.2988 15.567 18.78 15.95C18.6979 16.0045 18.6274 16.0746 18.5724 16.1564C18.5174 16.2381 18.4791 16.3299 18.4596 16.4265C18.4401 16.5231 18.4398 16.6225 18.4588 16.7192C18.4777 16.8159 18.5155 16.9079 18.57 16.99C18.6245 17.0721 18.6946 17.1426 18.7764 17.1976C18.8582 17.2526 18.9499 17.2909 19.0465 17.3104C19.1431 17.3299 19.2426 17.3302 19.3392 17.3112C19.4359 17.2923 19.5279 17.2545 19.61 17.2C20.3397 16.6776 20.9363 15.9908 21.3515 15.1952C21.7667 14.3995 21.9889 13.5174 22 12.62C21.9866 11.8453 21.8126 11.0818 21.489 10.3778C21.1654 9.67378 20.6993 9.04458 20.12 8.53C19.2054 7.73942 18.0163 7.34067 16.81 7.42C16.7198 5.92665 16.053 4.52674 14.9504 3.51555C13.8478 2.50437 12.3956 1.96097 10.9 2H10.78C10.0167 1.99054 9.25915 2.13426 8.55231 2.42264C7.84546 2.71102 7.20362 3.13821 6.66474 3.67896C6.12586 4.2197 5.70089 4.86302 5.41495 5.57085C5.12901 6.27869 4.98791 7.03668 5 7.8C3.9134 8.329 3.03701 9.20908 2.51257 10.2979C1.98812 11.3867 1.84629 12.6206 2.11 13.8C2.26577 14.5322 2.57547 15.223 3.01856 15.8264C3.46164 16.4298 4.02798 16.9321 4.68 17.3Z" fill="black"/>
<path d="M8.82 20.5H2.75C2.55109 20.5 2.36032 20.579 2.21967 20.7197C2.07902 20.8603 2 21.0511 2 21.25C2 21.4489 2.07902 21.6397 2.21967 21.7803C2.36032 21.921 2.55109 22 2.75 22H8.82C9.01891 22 9.20968 21.921 9.35033 21.7803C9.49098 21.6397 9.57 21.4489 9.57 21.25C9.57 21.0511 9.49098 20.8603 9.35033 20.7197C9.20968 20.579 9.01891 20.5 8.82 20.5Z" fill="black"/>
<path d="M21.25 20.5H15.08C14.8811 20.5 14.6903 20.579 14.5497 20.7197C14.409 20.8603 14.33 21.0511 14.33 21.25C14.33 21.4489 14.409 21.6397 14.5497 21.7803C14.6903 21.921 14.8811 22 15.08 22H21.25C21.4489 22 21.6397 21.921 21.7803 21.7803C21.921 21.6397 22 21.4489 22 21.25C22 21.0511 21.921 20.8603 21.7803 20.7197C21.6397 20.579 21.4489 20.5 21.25 20.5Z" fill="black"/>
<path d="M16.72 11.18C16.72 11.7104 16.5093 12.2191 16.1342 12.5942C15.7591 12.9693 15.2504 13.18 14.72 13.18H9.31C8.77957 13.18 8.27086 12.9693 7.89578 12.5942C7.52071 12.2191 7.31 11.7104 7.31 11.18C7.31 10.6496 7.52071 10.1409 7.89578 9.76579C8.27086 9.39071 8.77957 9.18 9.31 9.18H14.7C14.9643 9.17736 15.2265 9.22714 15.4715 9.32646C15.7165 9.42579 15.9393 9.57269 16.1272 9.75867C16.315 9.94465 16.4641 10.166 16.5659 10.41C16.6676 10.654 16.72 10.9157 16.72 11.18Z" fill="black"/>
<path d="M16.72 15.87C16.72 16.4004 16.5093 16.9091 16.1342 17.2842C15.7591 17.6593 15.2504 17.87 14.72 17.87H12.76V19.73C12.9171 19.8454 13.045 19.9959 13.1336 20.1695C13.2221 20.3432 13.2688 20.5351 13.27 20.73C13.2419 21.0461 13.0964 21.3402 12.8623 21.5544C12.6282 21.7686 12.3223 21.8874 12.005 21.8874C11.6877 21.8874 11.3818 21.7686 11.1477 21.5544C10.9136 21.3402 10.7681 21.0461 10.74 20.73C10.7407 20.5339 10.7883 20.3409 10.8787 20.1669C10.9692 19.993 11.0999 19.8432 11.26 19.73V17.89H9.31C8.77957 17.89 8.27086 17.6793 7.89578 17.3042C7.52071 16.9291 7.31 16.4204 7.31 15.89C7.31 15.3596 7.52071 14.8509 7.89578 14.4758C8.27086 14.1007 8.77957 13.89 9.31 13.89H14.7C14.9626 13.8874 15.2232 13.9365 15.4669 14.0346C15.7106 14.1326 15.9325 14.2777 16.1201 14.4616C16.3077 14.6455 16.4572 14.8645 16.5601 15.1061C16.6631 15.3478 16.7174 15.6073 16.72 15.87Z" fill="black"/>
</svg>
