<svg width="24" height="24" viewBox="0 0 24 24" fill="none" xmlns="http://www.w3.org/2000/svg">
<path d="M22.01 11.17V19C22.01 19.52 21.87 20.02 21.64 20.45L20.44 19.42L15.22 14.95L20.3 10.41L21.43 9.4C21.8 9.91 22.01 10.52 22.01 11.17Z" fill="black"/>
<path d="M20.61 21.53C20.15 21.83 19.59 22 19 22H5.00999C4.46999 22 3.95999 21.85 3.51999 21.6L4.82999 20.48L9.99999 16.03L10.16 16.17C10.68 16.63 11.34 16.86 12 16.86C12.66 16.86 13.33 16.63 13.86 16.16L14.09 15.96L19.35 20.45L20.61 21.53Z" fill="black"/>
<path d="M8.88 15.02L3.62001 19.55L2.45 20.56C2.17 20.1 2.01001 19.57 2.01001 19V11.17C2.01001 10.53 2.21001 9.92 2.58001 9.41L3.71001 10.42L8.88 15.02Z" fill="black"/>
<path d="M19.2 2H4.81C4.4 2 4.06 2.34 4.06 2.75V8.71L4.51 9.11L5.55 10.04L11.15 15.04C11.64 15.47 12.38 15.47 12.86 15.04L18.46 10.04L19.51 9.1L19.95 8.71V2.75C19.95 2.34 19.61 2 19.2 2ZM7.89 5.08H8.92C9.34 5.08 9.67 5.42 9.67 5.83C9.67 6.25 9.34 6.58 8.92 6.58H7.89C7.48 6.58 7.14 6.25 7.14 5.83C7.14 5.42 7.48 5.08 7.89 5.08ZM16.12 9.67H7.89C7.48 9.67 7.14 9.33 7.14 8.92C7.14 8.5 7.48 8.17 7.89 8.17H16.12C16.53 8.17 16.87 8.5 16.87 8.92C16.87 9.33 16.53 9.67 16.12 9.67Z" fill="black"/>
</svg>
