<svg width="24" height="24" viewBox="0 0 24 24" fill="none" xmlns="http://www.w3.org/2000/svg">
<path d="M20.23 18.96H14.16C13.93 18.3 13.41 17.78 12.76 17.55V15.83H17.7C18.41 15.83 19.04 15.52 19.53 15.03C19.56 14.99 19.6 14.96 19.63 14.93C19.65 14.91 19.67 14.88 19.69 14.86C20.17 14.33 20.46 13.64 20.46 12.88V8.03C20.46 7.27 20.17 6.58 19.69 6.06C19.67 6.03 19.65 6.01001 19.63 5.99001C19.6 5.95001 19.56 5.92 19.53 5.89C19.04 5.39 18.41 5.08 17.7 5.08H14.52C14.2 5.08 13.9 4.86 13.72 4.5L13.18 3.41C12.74 2.54 11.92 2 11.03 2H6.01004C4.65004 2 3.55002 3.26 3.55002 4.81V12.88C3.55002 13.64 3.84004 14.33 4.32004 14.86C4.34004 14.88 4.36004 14.91 4.38004 14.93C4.41004 14.96 4.45004 14.99 4.48004 15.03C4.97004 15.52 5.60003 15.83 6.31003 15.83H11.26V17.55C10.6 17.78 10.08 18.3 9.85004 18.96H3.78003C3.37003 18.96 3.03003 19.29 3.03003 19.71C3.03003 20.12 3.37003 20.46 3.78003 20.46H9.85004C10.16 21.35 11.01 22 12.01 22C13 22 13.85 21.35 14.16 20.46H20.23C20.64 20.46 20.98 20.12 20.98 19.71C20.98 19.29 20.64 18.96 20.23 18.96ZM5.05002 4.81C5.05002 4.1 5.49004 3.5 6.01004 3.5H11.03C11.35 3.5 11.65 3.72 11.83 4.08L12.33 5.08H5.05002V4.81Z" fill="black"/>
</svg>
