<svg width="24" height="24" viewBox="0 0 24 24" fill="none" xmlns="http://www.w3.org/2000/svg">
<path d="M5.35 13.56C5.85 13.4 6.37 13.31 6.9 13.31H17.11C17.63 13.31 18.16 13.4 18.66 13.56C18.95 13.66 19.24 13.79 19.51 13.94C19.77 14.08 20.01 14.25 20.23 14.44L19.54 4.78C19.44 3.22 18.14 2 16.59 2H7.42C5.87 2 4.57 3.22 4.47 4.78L3.78 14.44C4 14.25 4.24 14.08 4.5 13.94C4.77 13.79 5.06 13.66 5.35 13.56Z" fill="black"/>
<path d="M20.46 17.65C20.29 16.62 19.66 15.74 18.78 15.25C18.28 14.97 17.71 14.81 17.11 14.81H6.9C6.29 14.81 5.72 14.97 5.23 15.25C4.35 15.74 3.71 16.62 3.55 17.65C3.52 17.83 3.5 18.01 3.5 18.2V18.35V18.4V18.6C3.5 20.48 5.02 22 6.9 22H17.11C18.98 22 20.51 20.48 20.51 18.6V18.4V18.35V18.2C20.51 18.01 20.49 17.83 20.46 17.65ZM8.07 19.15H7.08C6.67 19.15 6.33 18.82 6.33 18.4C6.33 17.99 6.67 17.65 7.08 17.65H8.07C8.24 17.65 8.4 17.71 8.53 17.81C8.71 17.95 8.82 18.16 8.82 18.4C8.82 18.65 8.7 18.87 8.51 19C8.39 19.1 8.23 19.15 8.07 19.15Z" fill="black"/>
</svg>
