<svg width="24" height="24" viewBox="0 0 24 24" fill="none" xmlns="http://www.w3.org/2000/svg">
<path d="M20.24 12.25H18.92V11C18.92 7.28 15.82 4.25 12.01 4.25C8.19001 4.25 5.09001 7.28 5.09001 11V12.25H3.77002C2.80002 12.25 2.01001 13.04 2.01001 14.01V17.99C2.01001 18.96 2.80002 19.75 3.77002 19.75H5.84001C6.25001 19.75 6.59001 19.41 6.59001 19V11C6.59001 8.1 9.02001 5.75 12.01 5.75C14.99 5.75 17.42 8.1 17.42 11V19C17.42 19.41 17.76 19.75 18.17 19.75H20.24C21.21 19.75 22.01 18.96 22.01 17.99V14.01C22.01 13.04 21.21 12.25 20.24 12.25Z" fill="black"/>
</svg>
