<svg width="24" height="24" viewBox="0 0 24 24" fill="none" xmlns="http://www.w3.org/2000/svg">
<path d="M12.01 2.47C6.49001 2.47 2.01001 6.89002 2.01001 12.33V16.62C2.01001 18.71 3.70001 20.41 5.79001 20.41H6.76001C7.17001 20.41 7.51001 20.08 7.51001 19.66V13.59C7.51001 13.17 7.17001 12.84 6.76001 12.84H5.79001C4.93001 12.84 4.14001 13.14 3.51001 13.63V12.33C3.51001 7.72002 7.32001 3.97 12.01 3.97C16.69 3.97 20.51 7.72002 20.51 12.33V13.63C19.87 13.14 19.08 12.84 18.22 12.84H17.26C16.84 12.84 16.51 13.17 16.51 13.59V19.66C16.51 20.08 16.84 20.41 17.26 20.41H18.22C20.31 20.41 22.01 18.71 22.01 16.62V12.33C22.01 6.89002 17.52 2.47 12.01 2.47Z" fill="black"/>
</svg>
