<svg width="24" height="24" viewBox="0 0 24 24" fill="none" xmlns="http://www.w3.org/2000/svg">
<path d="M19.2 15.36H12.76V9.59C14.51 9.24 15.84 7.69 15.84 5.83C15.84 3.72 14.12 2 12.01 2C9.89001 2 8.17001 3.72 8.17001 5.83C8.17001 7.69 9.50001 9.24 11.26 9.59V15.36H6.59V14.53C6.59 14.12 6.25 13.78 5.84 13.78C5.42 13.78 5.09 14.12 5.09 14.53V15.36H4.81C3.26 15.36 2.01001 16.62 2.01001 18.17V19.19C2.01001 20.74 3.26 22 4.81 22H19.2C20.75 22 22.01 20.74 22.01 19.19V18.17C22.01 16.62 20.75 15.36 19.2 15.36ZM9.67001 5.83C9.67001 4.55 10.72 3.5 12.01 3.5C13.29 3.5 14.34 4.55 14.34 5.83C14.34 7.12 13.29 8.17 12.01 8.17C10.72 8.17 9.67001 7.12 9.67001 5.83Z" fill="black"/>
</svg>
