<svg width="24" height="24" viewBox="0 0 24 24" fill="none" xmlns="http://www.w3.org/2000/svg">
<path d="M19.22 6.14999H4.79001C3.26001 6.14999 2.01001 7.4 2.01001 8.94V15.06C2.01001 16.6 3.26001 17.85 4.79001 17.85H19.22C20.75 17.85 22.01 16.6 22.01 15.06V8.94C22.01 7.4 20.75 6.14999 19.22 6.14999ZM4.95001 13.65C5.00001 13.52 5.07 13.42 5.16 13.32C5.54 12.94 6.22999 12.94 6.60999 13.32C6.69999 13.42 6.77001 13.52 6.82001 13.65C6.88001 13.77 6.91 13.91 6.91 14.04C6.91 14.31 6.79999 14.57 6.60999 14.76C6.50999 14.86 6.39999 14.93 6.26999 14.98C6.14999 15.03 6.02001 15.06 5.89001 15.06C5.61001 15.06 5.36 14.96 5.16 14.76C4.97 14.57 4.87 14.31 4.87 14.04C4.87 13.91 4.90001 13.77 4.95001 13.65ZM4.87 9.96001C4.87 9.83001 4.90001 9.70001 4.95001 9.57001C5.00001 9.44001 5.07 9.34001 5.16 9.24001C5.54 8.86001 6.22999 8.86001 6.60999 9.24001C6.69999 9.34001 6.77001 9.44001 6.82001 9.57001C6.88001 9.70001 6.91 9.83001 6.91 9.96001C6.91 10.24 6.79999 10.49 6.60999 10.68C6.50999 10.78 6.39999 10.85 6.26999 10.9C6.14999 10.95 6.02001 10.98 5.89001 10.98C5.61001 10.98 5.36 10.88 5.16 10.68C4.97 10.49 4.87 10.24 4.87 9.96001ZM13.53 13.29C13.95 13.29 14.28 13.63 14.28 14.04C14.28 14.45 13.95 14.79 13.53 14.79H10.48C10.06 14.79 9.73001 14.45 9.73001 14.04C9.73001 13.63 10.06 13.29 10.48 13.29H13.53ZM13.02 9.96001C13.02 9.70001 13.14 9.43001 13.32 9.24001C13.42 9.14001 13.52 9.07 13.66 9.02C14.03 8.86 14.48 8.95001 14.77 9.24001C14.86 9.34001 14.93 9.44001 14.98 9.57001C15.03 9.70001 15.06 9.83001 15.06 9.96001C15.06 10.23 14.96 10.49 14.77 10.68C14.67 10.78 14.55 10.85 14.43 10.9C14.31 10.95 14.18 10.98 14.04 10.98C13.91 10.98 13.78 10.95 13.66 10.9C13.52 10.85 13.42 10.78 13.32 10.68C13.13 10.49 13.02 10.23 13.02 9.96001ZM10.9 10.35C10.85 10.47 10.78 10.58 10.69 10.68C10.59 10.78 10.48 10.85 10.35 10.9C10.23 10.95 10.1 10.98 9.97 10.98C9.83 10.98 9.69999 10.95 9.57999 10.9C9.45999 10.85 9.33999 10.78 9.23999 10.68C9.14999 10.58 9.08 10.47 9.03 10.35C8.97 10.23 8.95001 10.09 8.95001 9.96001C8.95001 9.83001 8.98 9.70001 9.03 9.57001C9.08 9.44001 9.14999 9.34001 9.23999 9.24001C9.61999 8.86001 10.3 8.86001 10.69 9.24001C10.78 9.34001 10.85 9.44001 10.9 9.57001C10.95 9.70001 10.99 9.83001 10.99 9.96001C10.99 10.09 10.95 10.23 10.9 10.35ZM17.1 14.15C17.1 14.02 17.13 13.89 17.19 13.77C17.24 13.63 17.31 13.53 17.4 13.43C17.78 13.05 18.46 13.05 18.85 13.43C18.94 13.53 19.01 13.63 19.06 13.77C19.11 13.89 19.14 14.02 19.14 14.15C19.14 14.28 19.11 14.42 19.06 14.54C19.01 14.66 18.94 14.77 18.85 14.88C18.65 15.07 18.4 15.17 18.12 15.17C17.85 15.17 17.59 15.07 17.4 14.88C17.21 14.68 17.1 14.43 17.1 14.15ZM18.85 10.68C18.65 10.88 18.4 10.98 18.12 10.98C17.85 10.98 17.59 10.88 17.4 10.68C17.21 10.49 17.1 10.24 17.1 9.96001C17.1 9.83001 17.13 9.70001 17.19 9.57001C17.24 9.45001 17.31 9.34001 17.4 9.24001C17.78 8.86001 18.46 8.86001 18.85 9.24001C18.94 9.34001 19.01 9.44001 19.06 9.57001C19.11 9.70001 19.14 9.83001 19.14 9.96001C19.14 10.24 19.04 10.49 18.85 10.68Z" fill="black"/>
</svg>
