<svg width="24" height="24" viewBox="0 0 24 24" fill="none" xmlns="http://www.w3.org/2000/svg">
<path d="M17.13 1.43999H6.85999C6.11554 1.44262 5.40234 1.73952 4.87593 2.26593C4.34952 2.79234 4.05262 3.50554 4.04999 4.24999V18.63C4.05262 19.3744 4.34952 20.0876 4.87593 20.614C5.40234 21.1405 6.11554 21.4374 6.85999 21.44H17.13C17.5037 21.4466 17.8749 21.3789 18.2222 21.2408C18.5695 21.1027 18.8858 20.8969 19.1529 20.6354C19.4199 20.374 19.6323 20.062 19.7778 19.7177C19.9232 19.3735 19.9987 19.0037 20 18.63V4.24999C19.9987 3.87626 19.9232 3.50651 19.7778 3.16223C19.6323 2.81795 19.4199 2.50601 19.1529 2.24455C18.8858 1.98309 18.5695 1.77732 18.2222 1.6392C17.8749 1.50107 17.5037 1.43336 17.13 1.43999ZM16.86 10.44C16.86 10.6389 16.781 10.8297 16.6403 10.9703C16.4997 11.111 16.3089 11.19 16.11 11.19H7.87999C7.68108 11.19 7.49031 11.111 7.34966 10.9703C7.20901 10.8297 7.12999 10.6389 7.12999 10.44C7.12999 10.2411 7.20901 10.0503 7.34966 9.90966C7.49031 9.76901 7.68108 9.68999 7.87999 9.68999H16.11C16.3081 9.69258 16.4974 9.77243 16.6375 9.91252C16.7775 10.0526 16.8574 10.2419 16.86 10.44ZM16.86 13.53C16.8574 13.7281 16.7775 13.9174 16.6375 14.0575C16.4974 14.1975 16.3081 14.2774 16.11 14.28H7.87999C7.68108 14.28 7.49031 14.201 7.34966 14.0603C7.20901 13.9197 7.12999 13.7289 7.12999 13.53C7.12999 13.3311 7.20901 13.1403 7.34966 12.9997C7.49031 12.859 7.68108 12.78 7.87999 12.78H16.11C16.3038 12.7798 16.4902 12.8547 16.63 12.9889C16.7698 13.1232 16.8522 13.3063 16.86 13.5V13.53ZM8.50999 2.93999H11.12V6.03999L10.17 5.49999C10.0538 5.44857 9.92643 5.4279 9.79999 5.43999C9.6673 5.44355 9.53724 5.47778 9.41999 5.53999L8.50999 6.06999V2.93999ZM18.45 18.63C18.4473 18.9783 18.3071 19.3115 18.0599 19.5569C17.8126 19.8023 17.4783 19.94 17.13 19.94H6.85999C6.51255 19.94 6.17935 19.802 5.93368 19.5563C5.68801 19.3106 5.54999 18.9774 5.54999 18.63V17.33H18.45V18.63Z" fill="black"/>
</svg>
