<svg width="24" height="24" viewBox="0 0 24 24" fill="none" xmlns="http://www.w3.org/2000/svg">
<path d="M14.62 8.64H9.39001C8.98001 8.64 8.64001 8.97 8.64001 9.38V14.62C8.64001 15.03 8.98001 15.36 9.39001 15.36H14.62C15.03 15.36 15.37 15.03 15.37 14.62V9.38C15.37 8.97 15.03 8.64 14.62 8.64Z" fill="black"/>
<path d="M21.26 12.75C21.67 12.75 22.01 12.41 22.01 12C22.01 11.59 21.67 11.25 21.26 11.25H19.95V7.61H21.26C21.67 7.61 22.01 7.28 22.01 6.86C22.01 6.45 21.67 6.11 21.26 6.11H19.69C19.34 5.31 18.7 4.66001 17.89 4.32001V2.75C17.89 2.34 17.56 2 17.14 2C16.73 2 16.39 2.34 16.39 2.75V4.06H12.76V2.75C12.76 2.34 12.42 2 12.01 2C11.59 2 11.26 2.34 11.26 2.75V4.06H7.62001V2.75C7.62001 2.34 7.28001 2 6.87001 2C6.45001 2 6.12001 2.34 6.12001 2.75V4.32001C5.31001 4.66001 4.67002 5.31 4.32002 6.11H2.76001C2.34001 6.11 2.01001 6.45 2.01001 6.86C2.01001 7.28 2.34001 7.61 2.76001 7.61H4.06001V11.25H2.76001C2.34001 11.25 2.01001 11.59 2.01001 12C2.01001 12.41 2.34001 12.75 2.76001 12.75H4.06001V16.39H2.76001C2.34001 16.39 2.01001 16.72 2.01001 17.14C2.01001 17.55 2.34001 17.89 2.76001 17.89H4.32002C4.67002 18.69 5.31001 19.34 6.12001 19.68V21.25C6.12001 21.66 6.45001 22 6.87001 22C7.28001 22 7.62001 21.66 7.62001 21.25V19.94H11.26V21.25C11.26 21.66 11.59 22 12.01 22C12.42 22 12.76 21.66 12.76 21.25V19.94H16.39V21.25C16.39 21.66 16.73 22 17.14 22C17.56 22 17.89 21.66 17.89 21.25V19.68C18.7 19.34 19.34 18.69 19.69 17.89H21.26C21.67 17.89 22.01 17.55 22.01 17.14C22.01 16.72 21.67 16.39 21.26 16.39H19.95V12.75H21.26ZM16.87 14.62C16.87 15.86 15.86 16.86 14.62 16.86H9.39001C8.15001 16.86 7.14001 15.86 7.14001 14.62V9.38C7.14001 8.14001 8.15001 7.14 9.39001 7.14H14.62C15.86 7.14 16.87 8.14001 16.87 9.38V14.62Z" fill="black"/>
</svg>
