<svg width="24" height="24" viewBox="0 0 24 24" fill="none" xmlns="http://www.w3.org/2000/svg">
<path d="M18.3 5H14.81C14.6111 5 14.4203 5.07902 14.2797 5.21967C14.139 5.36032 14.06 5.55109 14.06 5.75C14.06 5.94891 14.139 6.13968 14.2797 6.28033C14.4203 6.42098 14.6111 6.5 14.81 6.5H16.49L13.39 9.59C13.2695 9.73577 13.2077 9.92125 13.2166 10.1102C13.2255 10.2991 13.3046 10.4779 13.4384 10.6117C13.5721 10.7454 13.7509 10.8245 13.9398 10.8334C14.1288 10.8423 14.3142 10.7805 14.46 10.66L17.55 7.56V9.19C17.55 9.38891 17.629 9.57968 17.7697 9.72033C17.9103 9.86098 18.1011 9.94 18.3 9.94C18.4989 9.94 18.6897 9.86098 18.8303 9.72033C18.971 9.57968 19.05 9.38891 19.05 9.19V5.7C19.035 5.51072 18.9497 5.33391 18.8109 5.20436C18.6721 5.07481 18.4899 5.00191 18.3 5Z" fill="black"/>
<path d="M11.51 12.5C15.71 16.7 16.66 11.84 19.33 14.5C22 17.16 23.39 17.59 20.13 20.86C19.72 21.19 17.13 25.14 7.98001 16.01C-1.16999 6.88 2.80001 4.29 3.13001 3.88C6.40001 0.6 6.91001 2.09 9.49001 4.67C12.07 7.25 7.31001 8.3 11.51 12.5Z" fill="black"/>
</svg>
