<svg width="24" height="24" viewBox="0 0 24 24" fill="none" xmlns="http://www.w3.org/2000/svg">
<path d="M12.01 6.01999C9.01998 6.01999 6.58997 8.45 6.58997 11.44C6.58997 14.43 9.01998 16.86 12.01 16.86C14.99 16.86 17.42 14.43 17.42 11.44C17.42 8.45 14.99 6.01999 12.01 6.01999ZM9.43997 12.7C8.73997 12.7 8.16998 12.14 8.16998 11.44C8.16998 10.74 8.73997 10.18 9.43997 10.18C10.13 10.18 10.7 10.74 10.7 11.44C10.7 12.14 10.13 12.7 9.43997 12.7ZM14.57 12.7C13.88 12.7 13.31 12.14 13.31 11.44C13.31 10.74 13.88 10.18 14.57 10.18C15.27 10.18 15.84 10.74 15.84 11.44C15.84 12.14 15.27 12.7 14.57 12.7Z" fill="black"/>
<path d="M18.17 1.44H5.84C3.73 1.44 2.01001 3.15999 2.01001 5.26999V17.61C2.01001 19.72 3.73 21.44 5.84 21.44H18.17C20.29 21.44 22.01 19.72 22.01 17.61V5.26999C22.01 3.15999 20.29 1.44 18.17 1.44ZM12.01 18.36C8.19001 18.36 5.09 15.25 5.09 11.44C5.09 7.63 8.19001 4.51999 12.01 4.51999C15.82 4.51999 18.92 7.63 18.92 11.44C18.92 15.25 15.82 18.36 12.01 18.36Z" fill="black"/>
</svg>
