<svg width="24" height="24" viewBox="0 0 24 24" fill="none" xmlns="http://www.w3.org/2000/svg">
<path d="M16.5199 15.42C17.0115 15.42 17.4099 15.0215 17.4099 14.53C17.4099 14.0385 17.0115 13.64 16.5199 13.64C16.0284 13.64 15.6299 14.0385 15.6299 14.53C15.6299 15.0215 16.0284 15.42 16.5199 15.42Z" fill="black"/>
<path d="M18.16 9.66999H12.75V4.98999H19.19C19.2888 4.99134 19.387 4.97285 19.4786 4.93564C19.5702 4.89843 19.6534 4.84323 19.7233 4.77332C19.7932 4.7034 19.8484 4.62019 19.8856 4.52859C19.9228 4.43698 19.9413 4.33885 19.94 4.23999C19.9374 4.04188 19.8575 3.85262 19.7174 3.71252C19.5773 3.57243 19.3881 3.49258 19.19 3.48999H4.79996C4.60185 3.49258 4.41259 3.57243 4.27249 3.71252C4.1324 3.85262 4.05255 4.04188 4.04996 4.23999C4.04861 4.33885 4.06709 4.43698 4.10431 4.52859C4.14152 4.62019 4.19672 4.7034 4.26663 4.77332C4.33655 4.84323 4.41976 4.89843 4.51136 4.93564C4.60296 4.97285 4.7011 4.99134 4.79996 4.98999H11.25V9.66999H5.82996C4.81591 9.66999 3.84325 10.0721 3.12527 10.7882C2.40729 11.5043 2.00261 12.4759 1.99996 13.49V15.55C1.99335 16.0576 2.08746 16.5615 2.27685 17.0325C2.46624 17.5036 2.74715 17.9324 3.10332 18.2941C3.4595 18.6559 3.88387 18.9434 4.35189 19.1401C4.81991 19.3368 5.32229 19.4387 5.82996 19.44H18.16C18.6685 19.44 19.1719 19.3391 19.6411 19.143C20.1103 18.9469 20.5358 18.6595 20.8931 18.2977C21.2503 17.9358 21.5321 17.5065 21.7221 17.0349C21.9121 16.5632 22.0066 16.0585 22 15.55V13.49C21.9947 12.475 21.5878 11.5034 20.8682 10.7876C20.1486 10.0718 19.1749 9.66998 18.16 9.66999ZM16.52 16.92C16.0473 16.92 15.5852 16.7798 15.1921 16.5172C14.7991 16.2546 14.4928 15.8813 14.3119 15.4446C14.131 15.0079 14.0837 14.5273 14.1759 14.0637C14.2681 13.6001 14.4957 13.1743 14.83 12.84C15.1642 12.5058 15.5901 12.2781 16.0537 12.1859C16.5173 12.0937 16.9979 12.141 17.4346 12.3219C17.8713 12.5028 18.2446 12.8091 18.5072 13.2022C18.7698 13.5952 18.91 14.0573 18.91 14.53C18.91 14.8438 18.8481 15.1546 18.728 15.4446C18.6079 15.7346 18.4319 15.998 18.2099 16.22C17.988 16.4419 17.7245 16.618 17.4346 16.7381C17.1446 16.8582 16.8338 16.92 16.52 16.92Z" fill="black"/>
</svg>
