<svg width="24" height="24" viewBox="0 0 24 24" fill="none" xmlns="http://www.w3.org/2000/svg">
<path d="M4.53001 19.2C4.53001 19.61 4.20001 19.95 3.78001 19.95H2.76001C2.34001 19.95 2.01001 19.61 2.01001 19.2C2.01001 18.78 2.34001 18.45 2.76001 18.45H3.78001C4.20001 18.45 4.53001 18.78 4.53001 19.2Z" fill="black"/>
<path d="M20.86 5.07C19.33 3.54 16.84 3.54 15.31 5.07L7.14 13.24C6.91 13.47 6.85 13.81 6.99 14.09L8.19999 16.66L9.33 15.54L8.57 13.93L16.37 6.13C17.31 5.19 18.85 5.19 19.8 6.13C20.25 6.59 20.51 7.19999 20.51 7.83999C20.51 8.48999 20.25 9.09999 19.8 9.55999L12 17.35L10.39 16.59L9.27 17.72L11.83 18.94C11.94 18.99 12.04 19.01 12.15 19.01C12.35 19.01 12.54 18.93 12.68 18.79L20.86 10.62C21.6 9.87999 22.01 8.88999 22.01 7.83999C22.01 6.79999 21.6 5.81 20.86 5.07Z" fill="black"/>
<path d="M9.27 17.72L7.39999 19.59C7.24999 19.74 7.05999 19.81 6.86999 19.81C6.66999 19.81 6.47999 19.74 6.33999 19.59C6.03999 19.3 6.03999 18.82 6.33999 18.53L8.19999 16.66L8.42999 17.14C8.50999 17.29 8.62999 17.42 8.78999 17.49L9.27 17.72Z" fill="black"/>
<path d="M4.53001 19.2C4.53001 19.61 4.20001 19.95 3.78001 19.95H2.76001C2.34001 19.95 2.01001 19.61 2.01001 19.2C2.01001 18.78 2.34001 18.45 2.76001 18.45H3.78001C4.20001 18.45 4.53001 18.78 4.53001 19.2Z" fill="black"/>
<path d="M8.78999 17.49L9.27 17.72L7.39999 19.59C7.24999 19.74 7.05999 19.81 6.86999 19.81C6.66999 19.81 6.47999 19.74 6.33999 19.59C6.03999 19.3 6.03999 18.82 6.33999 18.53L8.19999 16.66L8.42999 17.14C8.50999 17.29 8.62999 17.42 8.78999 17.49Z" fill="black"/>
<path d="M22.01 7.83999C22.01 8.88999 21.6 9.87999 20.86 10.62L12.68 18.79C12.54 18.93 12.35 19.01 12.15 19.01C12.04 19.01 11.94 18.99 11.83 18.94L9.27 17.72L10.39 16.59L18.22 8.75999C18.52 8.46999 18.52 7.98999 18.22 7.69999C17.93 7.40999 17.46 7.40999 17.16 7.69999L9.33 15.54L8.19999 16.66L6.99 14.09C6.85 13.81 6.91 13.47 7.14 13.24L15.31 5.07C16.84 3.54 19.33 3.54 20.86 5.07C21.6 5.81 22.01 6.79999 22.01 7.83999Z" fill="black"/>
</svg>
