<svg width="24" height="24" viewBox="0 0 24 24" fill="none" xmlns="http://www.w3.org/2000/svg">
<path fill-rule="evenodd" clip-rule="evenodd" d="M5.76 2H18.26C19.252 2.00527 20.2017 2.40237 20.9023 3.10478C21.6028 3.80718 21.9974 4.75797 22 5.75V18.25C21.9974 19.242 21.6028 20.1928 20.9023 20.8952C20.2017 21.5976 19.252 21.9947 18.26 22H5.76C5.2667 22.0013 4.77799 21.9053 4.32187 21.7174C3.86574 21.5296 3.45116 21.2535 3.10188 20.9052C2.7526 20.5568 2.47549 20.143 2.28641 19.6874C2.09733 19.2318 2 18.7433 2 18.25V5.75C2 5.2567 2.09733 4.76825 2.28641 4.31262C2.47549 3.857 2.7526 3.44316 3.10188 3.09481C3.45116 2.74646 3.86574 2.47044 4.32187 2.28257C4.77799 2.09471 5.2667 1.99868 5.76 2ZM7.86191 8.55L8.92785 7.53251C9.22747 7.24651 9.23851 6.77176 8.95251 6.47214C8.6665 6.17252 8.19176 6.16148 7.89213 6.44748L5.47586 8.75393C5.47059 8.75889 5.46538 8.76395 5.46023 8.76909C5.39845 8.83069 5.3496 8.90052 5.31377 8.97514C5.26463 9.07739 5.24009 9.18833 5.23999 9.29919C5.23981 9.49153 5.31316 9.68364 5.45909 9.82976C5.46422 9.83491 5.46941 9.83997 5.47465 9.84493L7.89096 12.1614C8.18997 12.448 8.66474 12.438 8.95139 12.139C9.23804 11.84 9.22802 11.3652 8.92902 11.0786L7.85608 10.05H14H14.0005C14.8431 10.0495 15.6529 10.3762 16.2593 10.9613C16.8588 11.5399 17.213 12.3264 17.2494 13.1581C17.209 13.9869 16.8531 14.7694 16.2539 15.3445C15.648 15.9262 14.8405 16.2507 14.0006 16.25C13.5864 16.2497 13.2503 16.5852 13.25 16.9994C13.2497 17.4136 13.5852 17.7497 13.9994 17.75C15.2269 17.751 16.4072 17.2767 17.2927 16.4266C18.1783 15.5765 18.7003 14.4166 18.7494 13.19C18.7501 13.1713 18.7502 13.1525 18.7495 13.1337C18.7064 11.903 18.187 10.7371 17.3009 9.88196C16.4148 9.02691 15.2313 8.54936 14 8.55H13.9997H7.86191Z" fill="black"/>
</svg>
