<svg width="24" height="24" viewBox="0 0 24 24" fill="none" xmlns="http://www.w3.org/2000/svg">
<path fill-rule="evenodd" clip-rule="evenodd" d="M5.75 2H18.25C19.2437 2.00264 20.196 2.39858 20.8987 3.10127C21.6014 3.80396 21.9974 4.75625 22 5.75V18.25C21.9974 19.2437 21.6014 20.196 20.8987 20.8987C20.196 21.6014 19.2437 21.9974 18.25 22H5.75C4.75544 22 3.80161 21.6049 3.09835 20.9017C2.39509 20.1984 2 19.2446 2 18.25V5.75C2 4.75544 2.39509 3.80161 3.09835 3.09835C3.80161 2.39509 4.75544 2 5.75 2ZM7.78163 9.94823C7.81828 10.0329 7.87121 10.1121 7.94031 10.181C7.9462 10.1869 7.95215 10.1926 7.95818 10.1982L10.074 12.2043C10.3746 12.4893 10.8493 12.4766 11.1343 12.176C11.4193 11.8754 11.4066 11.4007 11.106 11.1157L10.3511 10.4H15.47L15.4899 10.3997C15.8432 10.3904 16.1948 10.4507 16.5248 10.5773C16.8547 10.7039 17.1565 10.8943 17.4129 11.1376C17.6692 11.3809 17.8751 11.6723 18.0188 11.9951C18.16 12.3125 18.2384 12.6541 18.2497 13.0011C18.2394 13.3481 18.162 13.6899 18.0217 14.0075C17.8789 14.3308 17.6739 14.6228 17.4183 14.8668C17.1627 15.1108 16.8615 15.302 16.5319 15.4296C16.2024 15.5571 15.8509 15.6185 15.4976 15.6102C15.0835 15.6005 14.7399 15.9283 14.7302 16.3424C14.7205 16.7565 15.0483 17.1 15.4624 17.1098C16.0126 17.1227 16.5601 17.0271 17.0734 16.8284C17.5867 16.6298 18.0558 16.3319 18.454 15.9518C18.8522 15.5718 19.1715 15.117 19.3939 14.6134C19.6162 14.1099 19.7372 13.5675 19.7498 13.0172C19.7501 13.005 19.7501 12.9928 19.7497 12.9806C19.7355 12.4303 19.613 11.8882 19.3892 11.3853C19.1654 10.8824 18.8447 10.4285 18.4454 10.0495C18.0461 9.67061 17.5761 9.37407 17.0621 9.17687C16.5514 8.98092 16.0073 8.88687 15.4606 8.9H10.3444L11.1074 8.17298C11.4072 7.88725 11.4187 7.41251 11.133 7.11263C10.8472 6.81275 10.3725 6.80128 10.0726 7.08702L7.95686 9.10299C7.95025 9.1092 7.94373 9.11555 7.93731 9.12204C7.87648 9.18334 7.82836 9.25268 7.79303 9.32671C7.78577 9.34192 7.77904 9.35731 7.77287 9.37287C7.73875 9.4586 7.72 9.55211 7.72 9.65C7.72 9.65031 7.72 9.65062 7.72 9.65093M7.78163 9.94823C7.74292 9.859 7.72106 9.76078 7.72004 9.65757L7.78163 9.94823ZM7.66865 8.17176L6.12595 9.64865L7.66731 11.117C7.96722 11.4027 7.97874 11.8774 7.69304 12.1773C7.40734 12.4772 6.93261 12.4887 6.63269 12.203L4.52647 10.1966C4.52103 10.1915 4.51565 10.1863 4.51032 10.181C4.36409 10.0352 4.29027 9.84331 4.29 9.65096C4.28984 9.5401 4.31411 9.42909 4.36303 9.32671C4.39869 9.25201 4.44737 9.18206 4.50901 9.12033C4.51435 9.11496 4.51976 9.1097 4.52523 9.10453L6.63135 7.08824C6.93055 6.8018 7.40532 6.81215 7.69176 7.11135C7.9782 7.41055 7.96785 7.88532 7.66865 8.17176Z" fill="black"/>
</svg>
