<svg width="24" height="24" viewBox="0 0 24 24" fill="none" xmlns="http://www.w3.org/2000/svg">
<path d="M12.11 8.35001C11.55 8.35001 11.09 8.81 11.09 9.38C11.09 9.95 11.56 10.41 12.12 10.41C12.69 10.41 13.15 9.95 13.15 9.38C13.15 8.81 12.69 8.35001 12.11 8.35001Z" fill="black"/>
<path d="M14.27 7.08003C14.48 6.72003 14.36 6.26 14 6.05C12.83 5.37 11.24 5.40002 10.08 6.13002C9.73003 6.35002 9.62002 6.81002 9.84002 7.16002C9.99002 7.39002 10.23 7.51002 10.48 7.51002C10.62 7.51002 10.75 7.48001 10.88 7.40001C11.58 6.96001 12.55 6.95002 13.25 7.35002C13.6 7.56002 14.06 7.44003 14.27 7.08003Z" fill="black"/>
<path d="M8.87004 4.89001C9.00004 4.89001 9.14004 4.85999 9.26004 4.77999C10.93 3.74999 13.12 3.72001 14.77 4.67001C15.13 4.88001 15.59 4.75001 15.8 4.39001C16 4.03001 15.88 3.56999 15.52 3.36999C13.4 2.14999 10.6 2.19 8.47004 3.51C8.12004 3.72 8.01004 4.19 8.23004 4.54C8.37004 4.77 8.61004 4.89001 8.87004 4.89001Z" fill="black"/>
<path d="M20.11 12.75H19.13L20.95 5.45002C21.06 5.05002 20.81 4.65 20.41 4.55C20.01 4.44 19.6 4.69001 19.5 5.09001L17.59 12.75H6.42001L4.51001 5.09001C4.41001 4.69001 4.00002 4.44 3.60002 4.55C3.20002 4.65 2.95001 5.05002 3.06001 5.45002L4.88002 12.75H3.90001C2.86001 12.75 2.01001 13.6 2.01001 14.65V17.48C2.01001 18.53 2.86001 19.38 3.90001 19.38H5.09001V19.66C5.09001 20.08 5.42001 20.41 5.84001 20.41C6.25001 20.41 6.59001 20.08 6.59001 19.66V19.38H17.42V19.66C17.42 20.08 17.76 20.41 18.17 20.41C18.59 20.41 18.92 20.08 18.92 19.66V19.38H20.11C21.15 19.38 22.01 18.53 22.01 17.48V14.65C22.01 13.6 21.15 12.75 20.11 12.75ZM14.08 16.06C14.08 15.5 14.53 15.04 15.1 15.04H15.11C15.68 15.04 16.14 15.5 16.14 16.06C16.14 16.63 15.68 17.09 15.11 17.09C14.54 17.09 14.08 16.63 14.08 16.06ZM18.19 17.09C17.62 17.09 17.16 16.63 17.16 16.06C17.16 15.5 17.61 15.04 18.18 15.04H18.19C18.76 15.04 19.22 15.5 19.22 16.06C19.22 16.63 18.76 17.09 18.19 17.09Z" fill="black"/>
</svg>
