<svg width="24" height="24" viewBox="0 0 24 24" fill="none" xmlns="http://www.w3.org/2000/svg">
<path d="M6.12 11.89C6.12 12.3 6.45 12.64 6.87 12.64H19.2C19.61 12.64 19.95 12.3 19.95 11.89C19.95 11.47 19.61 11.14 19.2 11.14H6.87C6.45 11.14 6.12 11.47 6.12 11.89Z" fill="black"/>
<path d="M20.23 14.22H3.78001C3.69001 14.22 3.60001 14.23 3.51001 14.25V12.9C3.51001 12.49 3.69001 12.11 4.01001 11.87L16.57 2.19998C16.9 1.94998 16.96 1.48 16.71 1.15C16.46 0.819996 15.99 0.759991 15.66 1.01999L3.10001 10.68C2.41001 11.2 2.01001 12.03 2.01001 12.9V19.08C2.01001 20.06 2.80001 20.86 3.78001 20.86H17.14C19.82 20.86 22.01 18.68 22.01 16C22.01 15.02 21.21 14.22 20.23 14.22ZM5.86001 18.57C5.29001 18.57 4.83001 18.11 4.83001 17.54C4.83001 16.97 5.28001 16.51 5.85001 16.51H5.86001C6.43001 16.51 6.89001 16.97 6.89001 17.54C6.89001 18.11 6.43001 18.57 5.86001 18.57Z" fill="black"/>
</svg>
