<svg width="24" height="24" viewBox="0 0 24 24" fill="none" xmlns="http://www.w3.org/2000/svg">
<path d="M15.13 14.81H8.41003V17.42H15.13V14.81Z" fill="black"/>
<path d="M18.83 5.67L16.05 2.88C15.48 2.31 14.72 2 13.91 2H6.63002C5.08002 2 3.83002 3.26 3.83002 4.81V19.19C3.83002 20.74 5.08002 22 6.63002 22H16.91C18.46 22 19.71 20.74 19.71 19.19V7.8C19.71 6.99 19.4 6.24 18.83 5.67ZM16.63 17.67C16.63 18.36 16.07 18.92 15.38 18.92H8.16002C7.47002 18.92 6.91002 18.36 6.91002 17.67V14.56C6.91002 13.87 7.47002 13.31 8.16002 13.31H15.38C16.07 13.31 16.63 13.87 16.63 14.56V17.67ZM14.58 5.83V6.86C14.58 7.28 14.24 7.61 13.83 7.61C13.41 7.61 13.08 7.28 13.08 6.86V5.83C13.08 5.42 13.41 5.08 13.83 5.08C14.24 5.08 14.58 5.42 14.58 5.83ZM11.49 5.83V6.86C11.49 7.28 11.16 7.61 10.74 7.61C10.33 7.61 9.99002 7.28 9.99002 6.86V5.83C9.99002 5.42 10.33 5.08 10.74 5.08C11.16 5.08 11.49 5.42 11.49 5.83ZM8.41002 5.83V6.86C8.41002 7.28 8.07002 7.61 7.66002 7.61C7.24002 7.61 6.91002 7.28 6.91002 6.86V5.83C6.91002 5.42 7.24002 5.08 7.66002 5.08C8.07002 5.08 8.41002 5.42 8.41002 5.83Z" fill="black"/>
</svg>
