<svg width="24" height="24" viewBox="0 0 24 24" fill="none" xmlns="http://www.w3.org/2000/svg">
<path d="M7 14.94H17C17.7797 14.94 18.5275 14.6302 19.0789 14.0789C19.6302 13.5275 19.94 12.7797 19.94 12C19.94 11.2203 19.6302 10.4725 19.0789 9.9211C18.5275 9.36975 17.7797 9.06 17 9.06H7C6.22026 9.06 5.47246 9.36975 4.9211 9.9211C4.36975 10.4725 4.06 11.2203 4.06 12C4.06 12.7797 4.36975 13.5275 4.9211 14.0789C5.47246 14.6302 6.22026 14.94 7 14.94ZM7.75 11.09C7.92998 11.09 8.10592 11.1434 8.25557 11.2434C8.40522 11.3434 8.52185 11.4855 8.59073 11.6518C8.6596 11.818 8.67762 12.001 8.64251 12.1775C8.6074 12.3541 8.52073 12.5162 8.39346 12.6435C8.2662 12.7707 8.10405 12.8574 7.92753 12.8925C7.75101 12.9276 7.56804 12.9096 7.40176 12.8407C7.23548 12.7719 7.09335 12.6552 6.99336 12.5056C6.89337 12.3559 6.84 12.18 6.84 12C6.84 11.7587 6.93587 11.5272 7.10653 11.3565C7.27719 11.1859 7.50865 11.09 7.75 11.09ZM17.52 12C17.52 12.175 17.4505 12.3429 17.3267 12.4667C17.2029 12.5905 17.035 12.66 16.86 12.66H14.42C14.245 12.66 14.0771 12.5905 13.9533 12.4667C13.8295 12.3429 13.76 12.175 13.76 12C13.76 11.825 13.8295 11.6571 13.9533 11.5333C14.0771 11.4095 14.245 11.34 14.42 11.34H16.86C17.035 11.34 17.2029 11.4095 17.3267 11.5333C17.4505 11.6571 17.52 11.825 17.52 12Z" fill="black"/>
<path d="M7 7.88H17C17.7797 7.88 18.5275 7.57025 19.0789 7.01889C19.6302 6.46754 19.94 5.71974 19.94 4.94C19.94 4.16026 19.6302 3.41246 19.0789 2.86111C18.5275 2.30975 17.7797 2 17 2L7 2C6.22026 2 5.47246 2.30975 4.9211 2.86111C4.36975 3.41246 4.06 4.16026 4.06 4.94C4.06 5.71974 4.36975 6.46754 4.9211 7.01889C5.47246 7.57025 6.22026 7.88 7 7.88ZM7.75 4C7.92998 4 8.10592 4.05337 8.25557 4.15336C8.40522 4.25335 8.52185 4.39548 8.59073 4.56176C8.6596 4.72804 8.67762 4.91101 8.64251 5.08753C8.6074 5.26406 8.52073 5.4262 8.39346 5.55347C8.2662 5.68073 8.10405 5.7674 7.92753 5.80251C7.75101 5.83763 7.56804 5.81961 7.40176 5.75073C7.23548 5.68185 7.09335 5.56522 6.99336 5.41557C6.89337 5.26592 6.84 5.08998 6.84 4.91C6.84 4.66865 6.93587 4.43719 7.10653 4.26653C7.27719 4.09587 7.50865 4 7.75 4ZM17.52 4.91C17.52 5.08504 17.4505 5.25292 17.3267 5.37669C17.2029 5.50046 17.035 5.57 16.86 5.57H14.42C14.245 5.57 14.0771 5.50046 13.9533 5.37669C13.8295 5.25292 13.76 5.08504 13.76 4.91C13.76 4.73496 13.8295 4.56708 13.9533 4.44331C14.0771 4.31954 14.245 4.25 14.42 4.25H16.86C16.9493 4.24991 17.0376 4.26792 17.1197 4.30295C17.2018 4.33798 17.2759 4.38929 17.3376 4.45379C17.3993 4.51829 17.4473 4.59464 17.4786 4.67821C17.51 4.76178 17.5241 4.85084 17.52 4.94V4.91Z" fill="black"/>
<path d="M7 22H17C17.3861 22 17.7684 21.9239 18.1251 21.7762C18.4818 21.6285 18.8059 21.4119 19.0789 21.1389C19.3519 20.8659 19.5685 20.5418 19.7162 20.1851C19.864 19.8284 19.94 19.4461 19.94 19.06C19.94 18.6739 19.864 18.2916 19.7162 17.9349C19.5685 17.5782 19.3519 17.2541 19.0789 16.9811C18.8059 16.7081 18.4818 16.4915 18.1251 16.3438C17.7684 16.196 17.3861 16.12 17 16.12H7C6.22026 16.12 5.47246 16.4297 4.9211 16.9811C4.36975 17.5325 4.06 18.2803 4.06 19.06C4.06 19.8397 4.36975 20.5875 4.9211 21.1389C5.47246 21.6902 6.22026 22 7 22ZM7.75 18.15C7.92998 18.15 8.10592 18.2034 8.25557 18.3034C8.40522 18.4033 8.52185 18.5455 8.59073 18.7118C8.6596 18.878 8.67762 19.061 8.64251 19.2375C8.6074 19.414 8.52073 19.5762 8.39346 19.7035C8.2662 19.8307 8.10405 19.9174 7.92753 19.9525C7.75101 19.9876 7.56804 19.9696 7.40176 19.9007C7.23547 19.8318 7.09335 19.7152 6.99336 19.5656C6.89337 19.4159 6.84 19.24 6.84 19.06C6.84 18.8186 6.93587 18.5872 7.10653 18.4165C7.27719 18.2459 7.50865 18.15 7.75 18.15ZM17.52 19.06C17.52 19.235 17.4505 19.4029 17.3267 19.5267C17.2029 19.6505 17.035 19.72 16.86 19.72H14.42C14.245 19.72 14.0771 19.6505 13.9533 19.5267C13.8295 19.4029 13.76 19.235 13.76 19.06C13.76 18.885 13.8295 18.7171 13.9533 18.5933C14.0771 18.4695 14.245 18.4 14.42 18.4H16.86C17.035 18.4 17.2029 18.4695 17.3267 18.5933C17.4505 18.7171 17.52 18.885 17.52 19.06Z" fill="black"/>
</svg>
