<svg width="24" height="24" viewBox="0 0 24 24" fill="none" xmlns="http://www.w3.org/2000/svg">
<path d="M6.69 8.23H17.31C17.7339 8.25402 18.1583 8.19127 18.5571 8.04559C18.9559 7.8999 19.3208 7.67435 19.6294 7.38273C19.938 7.09112 20.1839 6.73958 20.3519 6.34965C20.5199 5.95972 20.6066 5.53959 20.6066 5.115C20.6066 4.6904 20.5199 4.27028 20.3519 3.88034C20.1839 3.49041 19.938 3.13887 19.6294 2.84726C19.3208 2.55564 18.9559 2.33009 18.5571 2.1844C18.1583 2.03872 17.7339 1.97597 17.31 2H6.69C6.26608 1.97597 5.84173 2.03872 5.44291 2.1844C5.04409 2.33009 4.6792 2.55564 4.37059 2.84726C4.06198 3.13887 3.81614 3.49041 3.64812 3.88034C3.4801 4.27028 3.39343 4.6904 3.39343 5.115C3.39343 5.53959 3.4801 5.95972 3.64812 6.34965C3.81614 6.73958 4.06198 7.09112 4.37059 7.38273C4.6792 7.67435 5.04409 7.8999 5.44291 8.04559C5.84173 8.19127 6.26608 8.25402 6.69 8.23ZM7.49 4.16C7.68778 4.16 7.88112 4.21864 8.04557 4.32853C8.21002 4.43841 8.33819 4.59459 8.41388 4.77731C8.48956 4.96004 8.50937 5.1611 8.47078 5.35509C8.4322 5.54907 8.33696 5.72725 8.1971 5.8671C8.05725 6.00695 7.87907 6.1022 7.68509 6.14078C7.49111 6.17937 7.29004 6.15956 7.10731 6.08387C6.92459 6.00819 6.76841 5.88001 6.65853 5.71557C6.54865 5.55112 6.49 5.35778 6.49 5.16C6.49 4.89478 6.59535 4.64042 6.78289 4.45289C6.97043 4.26535 7.22478 4.16 7.49 4.16ZM17.85 5.16C17.85 5.34565 17.7762 5.52369 17.645 5.65497C17.5137 5.78625 17.3356 5.86 17.15 5.86H14.57C14.3843 5.86 14.2063 5.78625 14.075 5.65497C13.9437 5.52369 13.87 5.34565 13.87 5.16C13.87 4.97434 13.9437 4.7963 14.075 4.66502C14.2063 4.53375 14.3843 4.46 14.57 4.46H17.15C17.3289 4.4597 17.5012 4.52794 17.6313 4.65068C17.7615 4.77343 17.8398 4.94136 17.85 5.12V5.16Z" fill="black"/>
<path d="M21 18.87H14.29C14.1701 18.5061 13.9665 18.1754 13.6955 17.9045C13.4246 17.6335 13.0939 17.4299 12.73 17.31V15.44H17.31C17.7339 15.464 18.1583 15.4013 18.5571 15.2556C18.9559 15.1099 19.3208 14.8843 19.6294 14.5927C19.938 14.3011 20.1839 13.9496 20.3519 13.5596C20.5199 13.1697 20.6066 12.7496 20.6066 12.325C20.6066 11.9004 20.5199 11.4803 20.3519 11.0903C20.1839 10.7004 19.938 10.3489 19.6294 10.0573C19.3208 9.76564 18.9559 9.54009 18.5571 9.3944C18.1583 9.24872 17.7339 9.18597 17.31 9.20999H6.69001C6.26609 9.18597 5.84174 9.24872 5.44292 9.3944C5.0441 9.54009 4.67922 9.76564 4.3706 10.0573C4.06199 10.3489 3.81615 10.7004 3.64813 11.0903C3.48011 11.4803 3.39344 11.9004 3.39344 12.325C3.39344 12.7496 3.48011 13.1697 3.64813 13.5596C3.81615 13.9496 4.06199 14.3011 4.3706 14.5927C4.67922 14.8843 5.0441 15.1099 5.44292 15.2556C5.84174 15.4013 6.26609 15.464 6.69001 15.44H11.28V17.31C10.9172 17.4298 10.5878 17.6336 10.3184 17.9046C10.0491 18.1757 9.84752 18.5064 9.73001 18.87H3.05001C2.8564 18.87 2.67072 18.9469 2.53382 19.0838C2.39692 19.2207 2.32001 19.4064 2.32001 19.6C2.32001 19.7936 2.39692 19.9793 2.53382 20.1162C2.67072 20.2531 2.8564 20.33 3.05001 20.33H9.73001C9.88254 20.8152 10.1859 21.2391 10.596 21.5401C11.006 21.841 11.5014 22.0033 12.01 22.0033C12.5186 22.0033 13.014 21.841 13.4241 21.5401C13.8341 21.2391 14.1375 20.8152 14.29 20.33H21C21.1936 20.33 21.3793 20.2531 21.5162 20.1162C21.6531 19.9793 21.73 19.7936 21.73 19.6C21.73 19.4064 21.6531 19.2207 21.5162 19.0838C21.3793 18.9469 21.1936 18.87 21 18.87ZM14.57 11.62H17.15C17.3357 11.62 17.5137 11.6937 17.645 11.825C17.7763 11.9563 17.85 12.1343 17.85 12.32C17.85 12.5056 17.7763 12.6837 17.645 12.815C17.5137 12.9462 17.3357 13.02 17.15 13.02H14.57C14.3844 13.02 14.2063 12.9462 14.075 12.815C13.9438 12.6837 13.87 12.5056 13.87 12.32C13.87 12.1343 13.9438 11.9563 14.075 11.825C14.2063 11.6937 14.3844 11.62 14.57 11.62ZM7.49001 13.29C7.29223 13.29 7.09889 13.2313 6.93444 13.1215C6.76999 13.0116 6.64182 12.8554 6.56613 12.6727C6.49044 12.49 6.47064 12.2889 6.50922 12.0949C6.54781 11.9009 6.64305 11.7227 6.7829 11.5829C6.92275 11.443 7.10094 11.3478 7.29492 11.3092C7.4889 11.2706 7.68996 11.2904 7.87269 11.3661C8.05542 11.4418 8.2116 11.57 8.32148 11.7344C8.43136 11.8989 8.49001 12.0922 8.49001 12.29C8.49001 12.5552 8.38465 12.8096 8.19711 12.9971C8.00958 13.1846 7.75522 13.29 7.49001 13.29Z" fill="black"/>
</svg>
