<svg width="24" height="24" viewBox="0 0 24 24" fill="none" xmlns="http://www.w3.org/2000/svg">
<path d="M19.19 5.08H13.81L15.61 3.28C15.91 2.99 15.91 2.51 15.61 2.22C15.46 2.08 15.28 2 15.08 2C14.89 2 14.7 2.08 14.55 2.22L12 4.77L9.44 2.22C9.3 2.08 9.11 2 8.91 2C8.72 2 8.52 2.08 8.38 2.22C8.1 2.51 8.1 2.99 8.38 3.28L10.18 5.08H4.79999C3.24999 5.08 2 6.34 2 7.89V18.17C2 19.71 3.24999 20.97 4.79999 20.97H5.09V21.25C5.09 21.66 5.42 22 5.84 22C6.24 22 6.59 21.66 6.59 21.25V20.97H17.42V21.25C17.42 21.66 17.75 22 18.17 22C18.59 22 18.92 21.66 18.92 21.25V20.97H19.19C20.74 20.97 22 19.71 22 18.17V7.89C22 6.34 20.74 5.08 19.19 5.08ZM17.01 15.9C17.01 16.79 16.28 17.52 15.39 17.52H6.64001C5.73001 17.52 5.01999 16.79 5.01999 15.9V10.15C5.01999 9.24999 5.73001 8.52 6.64001 8.52H15.39C16.28 8.52 17.01 9.24999 17.01 10.15V15.9ZM20.04 12.93C19.97 13 19.89 13.06 19.8 13.1C19.71 13.14 19.61 13.16 19.52 13.16C19.42 13.16 19.32 13.14 19.23 13.1C19.14 13.06 19.05 13 18.98 12.93C18.84 12.79 18.76 12.6 18.76 12.41C18.76 12.2 18.84 12.02 18.98 11.87C19.05 11.81 19.14 11.75 19.23 11.72C19.41 11.64 19.62 11.64 19.8 11.72C19.89 11.75 19.98 11.81 20.04 11.87C20.18 12.02 20.26 12.2 20.26 12.41C20.26 12.6 20.18 12.79 20.04 12.93ZM20.04 9.85001C19.98 9.93001 19.89 9.97 19.8 10.02C19.71 10.06 19.61 10.08 19.52 10.08C19.42 10.08 19.32 10.06 19.23 10.02C19.14 9.97 19.05 9.93001 18.98 9.85001C18.84 9.72001 18.76 9.52 18.76 9.33C18.76 9.12 18.84 8.92999 18.98 8.78999C19.05 8.71999 19.14 8.66 19.23 8.62C19.41 8.56 19.62 8.56 19.8 8.62C19.89 8.66 19.98 8.71999 20.04 8.78999C20.18 8.92999 20.26 9.12 20.26 9.33C20.26 9.52 20.18 9.72001 20.04 9.85001Z" fill="black"/>
</svg>
