<svg width="24" height="24" viewBox="0 0 24 24" fill="none" xmlns="http://www.w3.org/2000/svg">
<path d="M15.84 7.45V2.75C15.84 2.34 15.5 2 15.09 2H8.92001C8.51001 2 8.17001 2.34 8.17001 2.75V7.45C7.26001 7.92 6.63 8.85 6.63 9.94V19.19C6.63 20.74 7.89 22 9.44 22H14.57C16.12 22 17.38 20.74 17.38 19.19V9.94C17.38 8.85 16.75 7.92 15.84 7.45ZM12 18.92C11.17 18.92 10.48 18.23 10.48 17.4C10.48 16.56 11.17 15.88 12 15.88C12.84 15.88 13.53 16.56 13.53 17.4C13.53 18.23 12.84 18.92 12 18.92ZM9.67001 3.5H14.34V7.14H9.67001V3.5Z" fill="black"/>
</svg>
