<svg width="24" height="24" viewBox="0 0 24 24" fill="none" xmlns="http://www.w3.org/2000/svg">
<path d="M13.49 10.15C13.49 9.2 12.72 8.43 11.77 8.43C10.82 8.43 10.05 9.2 10.05 10.15C10.05 11.1 10.82 11.87 11.77 11.87C12.72 11.87 13.49 11.1 13.49 10.15Z" fill="black"/>
<path d="M19.92 10.15C19.92 5.66 16.26 2 11.77 2C7.27999 2 3.62 5.66 3.62 10.15C3.62 14.39 6.87999 17.88 11.02 18.26V20.5H8.98999C8.57999 20.5 8.23999 20.84 8.23999 21.25C8.23999 21.66 8.57999 22 8.98999 22H14.55C14.96 22 15.3 21.66 15.3 21.25C15.3 20.84 14.96 20.5 14.55 20.5H12.52V18.26C16.66 17.88 19.92 14.39 19.92 10.15ZM8.54999 10.15C8.54999 8.38 9.99999 6.93 11.77 6.93C13.54 6.93 14.99 8.38 14.99 10.15C14.99 11.92 13.54 13.37 11.77 13.37C9.99999 13.37 8.54999 11.92 8.54999 10.15Z" fill="black"/>
</svg>
