<svg width="24" height="24" viewBox="0 0 24 24" fill="none" xmlns="http://www.w3.org/2000/svg">
<path d="M19.68 15.65C19.17 15.12 18.45 14.8 17.66 14.8C16.1 14.8 14.82 16.08 14.82 17.65C14.82 18.43 15.14 19.15 15.67 19.67C16.1 20.1 16.67 20.39 17.31 20.47C17.42 20.48 17.54 20.49 17.66 20.49C19.23 20.49 20.51 19.21 20.51 17.65C20.51 17.53 20.5 17.41 20.49 17.29C20.41 16.65 20.11 16.08 19.68 15.65ZM17.58 19.54C17.37 19.54 17.22 19.37 17.22 19.17V19.16C17.22 18.96 17.37 18.79 17.58 18.79C17.79 18.79 17.95 18.96 17.95 19.16C17.95 19.37 17.79 19.54 17.58 19.54ZM18.21 17.81C18.11 17.88 17.94 18.02 17.94 18.08C17.95 18.28 17.78 18.45 17.57 18.45C17.37 18.45 17.2 18.29 17.2 18.08C17.19 17.68 17.49 17.44 17.73 17.24C17.91 17.08 18.03 16.97 18.03 16.87C18.03 16.67 17.87 16.5 17.66 16.5C17.46 16.5 17.3 16.67 17.3 16.87C17.3 17.08 17.13 17.24 16.92 17.24C16.72 17.24 16.55 17.08 16.55 16.87C16.55 16.26 17.05 15.76 17.66 15.76C18.28 15.76 18.78 16.25 18.78 16.87C18.78 17.32 18.45 17.6 18.21 17.81Z" fill="black"/>
<path d="M12.01 2C6.49001 2 2.01001 6.49 2.01001 12C2.01001 17.51 6.49001 22 12.01 22C13.22 22 14.38 21.78 15.46 21.38C14.96 21.09 14.51 20.69 14.17 20.22C13.64 19.5 13.32 18.61 13.32 17.65C13.32 15.25 15.27 13.3 17.66 13.3C18.62 13.3 19.51 13.61 20.23 14.15C20.7 14.49 21.1 14.93 21.4 15.44C21.8 14.37 22.01 13.21 22.01 12C22.01 6.49 17.52 2 12.01 2ZM11.09 15.06C11.09 14.49 11.54 14.04 12.11 14.04H12.12C12.69 14.04 13.15 14.49 13.15 15.06C13.15 15.63 12.69 16.09 12.12 16.09C11.55 16.09 11.09 15.63 11.09 15.06ZM14.27 12.76C14.06 13.12 13.6 13.24 13.24 13.03C12.54 12.63 11.57 12.64 10.88 13.08C10.75 13.16 10.61 13.2 10.48 13.2C10.23 13.2 9.98001 13.07 9.84001 12.85C9.62001 12.5 9.73001 12.03 10.08 11.81C11.24 11.08 12.82 11.05 13.99 11.73C14.35 11.94 14.48 12.4 14.27 12.76ZM15.79 10.08C15.58 10.44 15.12 10.56 14.76 10.35C13.12 9.41001 10.93 9.43001 9.26001 10.46C9.14001 10.54 9.00001 10.58 8.86001 10.58C8.61001 10.58 8.37001 10.45 8.23001 10.22C8.01001 9.87 8.12001 9.41 8.47001 9.19C10.6 7.87 13.4 7.84 15.51 9.05C15.87 9.26 15.99 9.72 15.79 10.08Z" fill="black"/>
</svg>
