<svg width="24" height="24" viewBox="0 0 24 24" fill="none" xmlns="http://www.w3.org/2000/svg">
<path d="M19.68 15.65C19.17 15.12 18.45 14.79 17.66 14.79C16.09 14.79 14.81 16.07 14.81 17.64C14.81 18.43 15.14 19.15 15.67 19.67C16.1 20.1 16.69 20.39 17.33 20.46C17.44 20.47 17.55 20.48 17.66 20.48C19.23 20.48 20.5 19.21 20.5 17.64C20.5 17.53 20.49 17.41 20.48 17.3C20.4 16.66 20.11 16.08 19.68 15.65ZM18.12 19.65C18 19.77 17.83 19.84 17.65 19.84C17.57 19.84 17.48 19.82 17.4 19.79C17.32 19.76 17.25 19.71 17.18 19.65C17.06 19.52 17 19.35 17 19.18C17 19.09 17.01 19.01 17.04 18.93C17.08 18.84 17.13 18.77 17.18 18.7C17.43 18.46 17.87 18.46 18.12 18.7C18.24 18.83 18.32 19 18.32 19.18C18.32 19.35 18.25 19.52 18.12 19.65ZM18.32 17.41C18.32 17.78 18.02 18.07 17.66 18.07C17.29 18.07 17 17.78 17 17.41V16.1C17 15.73 17.29 15.44 17.66 15.44C18.02 15.44 18.32 15.73 18.32 16.1V17.41Z" fill="black"/>
<path d="M12.01 2C6.49001 2 2.01001 6.49 2.01001 12C2.01001 17.51 6.49001 22 12.01 22C13.22 22 14.39 21.78 15.47 21.38C14.96 21.09 14.52 20.69 14.16 20.22C13.63 19.5 13.31 18.61 13.31 17.64C13.31 15.24 15.26 13.29 17.66 13.29C18.62 13.29 19.51 13.61 20.23 14.14C20.7 14.49 21.1 14.93 21.4 15.44C21.8 14.37 22.01 13.21 22.01 12C22.01 6.49 17.52 2 12.01 2ZM11.08 15.05C11.08 14.49 11.53 14.03 12.1 14.03H12.11C12.68 14.03 13.14 14.49 13.14 15.05C13.14 15.62 12.68 16.08 12.11 16.08C11.55 16.08 11.08 15.62 11.08 15.05ZM14.26 12.75C14.05 13.11 13.6 13.23 13.23 13.03C12.53 12.62 11.57 12.63 10.87 13.07C10.74 13.15 10.61 13.19 10.47 13.19C10.22 13.19 9.98001 13.06 9.83001 12.84C9.61001 12.49 9.72001 12.02 10.07 11.8C11.23 11.07 12.81 11.05 13.99 11.73C14.35 11.93 14.47 12.39 14.26 12.75ZM15.78 10.07C15.57 10.43 15.12 10.55 14.76 10.35C13.11 9.40001 10.92 9.42001 9.25001 10.46C9.13001 10.53 8.99001 10.57 8.86001 10.57C8.61001 10.57 8.36001 10.44 8.22001 10.21C8.00001 9.86001 8.11001 9.39999 8.46001 9.17999C10.59 7.85999 13.39 7.83 15.5 9.05C15.86 9.25 15.99 9.71001 15.78 10.07Z" fill="black"/>
</svg>
