<svg width="24" height="24" viewBox="0 0 24 24" fill="none" xmlns="http://www.w3.org/2000/svg">
<path d="M19.07 4.92C17.18 3.04 14.67 2 12 2C9.33 2 6.81999 3.04 4.92999 4.92C3.03999 6.81 2 9.33 2 12C2 13.32 2.25999 14.6 2.75999 15.82C3.26999 17.04 3.99999 18.13 4.92999 19.07C5.85999 20 6.95 20.73 8.17 21.24C9.39 21.74 10.68 22 12 22C13.32 22 14.61 21.74 15.83 21.24C17.04 20.73 18.14 20 19.07 19.07C20 18.13 20.73 17.04 21.24 15.82C21.74 14.6 22 13.32 22 12C22 9.33 20.96 6.81 19.07 4.92ZM15.51 13.96C15.47 14.35 15.15 14.64 14.76 14.64H14.69C14.28 14.6 13.98 14.24 14.01 13.83L14.23 11.29L9.33 15.4C9.19 15.52 9.02001 15.58 8.85001 15.58C8.64001 15.58 8.42 15.48 8.28 15.31C8.01 14.99 8.04999 14.52 8.37 14.25L13.27 10.14L10.73 9.92C10.32 9.88 10.01 9.52001 10.05 9.10001C10.08 8.69001 10.44 8.38 10.86 8.42L15.17 8.8C15.38 8.8 15.58 8.89 15.72 9.06C15.87 9.23 15.91 9.44999 15.88 9.64999L15.51 13.96Z" fill="black"/>
</svg>
