<svg width="24" height="24" viewBox="0 0 24 24" fill="none" xmlns="http://www.w3.org/2000/svg">
<path d="M19.07 4.92C17.18 3.04 14.67 2 12 2C9.33 2 6.81999 3.04 4.92999 4.92C3.03999 6.81 2 9.33 2 12C2 13.32 2.25999 14.6 2.75999 15.82C3.26999 17.04 3.99999 18.13 4.92999 19.07C5.85999 20 6.96 20.73 8.17 21.24C9.39 21.74 10.68 22 12 22C13.32 22 14.61 21.74 15.83 21.24C17.04 20.73 18.14 20 19.07 19.07C20 18.13 20.73 17.04 21.24 15.82C21.74 14.6 22 13.32 22 12C22 9.33 20.96 6.81 19.07 4.92ZM15.44 9.62L10.91 14.14H13.46C13.88 14.14 14.21 14.48 14.21 14.89C14.21 15.31 13.88 15.64 13.46 15.64H9.14C9.12 15.65 9.11 15.65 9.09 15.65C8.9 15.65 8.71 15.58 8.56 15.43C8.4 15.28 8.34001 15.07 8.35001 14.86V10.53C8.35001 10.12 8.69001 9.78 9.10001 9.78C9.52001 9.78 9.85001 10.12 9.85001 10.53V13.08L14.38 8.56C14.67 8.27 15.14 8.27 15.44 8.56C15.73 8.85 15.73 9.33 15.44 9.62Z" fill="black"/>
</svg>
