<svg width="24" height="24" viewBox="0 0 24 24" fill="none" xmlns="http://www.w3.org/2000/svg">
<path d="M18.17 7.14001H5.83002C5.42002 7.14001 5.08002 7.47001 5.08002 7.89001C5.08002 8.30001 5.42002 8.64001 5.83002 8.64001H6.11002V19.5C6.11002 20.88 7.23002 22 8.61002 22H15.39C16.77 22 17.89 20.88 17.89 19.5V8.64001H18.17C18.58 8.64001 18.92 8.30001 18.92 7.89001C18.92 7.47001 18.58 7.14001 18.17 7.14001ZM14.83 17.12C14.83 17.53 14.49 17.87 14.08 17.87C13.66 17.87 13.33 17.53 13.33 17.12V16.09C13.33 15.67 13.66 15.34 14.08 15.34C14.49 15.34 14.83 15.67 14.83 16.09V17.12ZM10.62 8.79001V17.24C10.62 17.65 10.29 17.99 9.87001 17.99C9.46001 17.99 9.12001 17.65 9.12001 17.24V8.79001C9.12001 8.74001 9.13001 8.69001 9.14001 8.64001H10.6C10.61 8.69001 10.62 8.74001 10.62 8.79001Z" fill="black"/>
<path d="M22 4.8V10.97C22 12.52 20.74 13.77 19.19 13.77H17.89V12.27H19.19C19.91 12.27 20.5 11.69 20.5 10.97V4.8C20.5 4.08 19.91 3.5 19.19 3.5H4.81C4.09 3.5 3.5 4.08 3.5 4.8V10.97C3.5 11.69 4.09 12.27 4.81 12.27H6.11V13.77H4.81C3.26 13.77 2 12.52 2 10.97V4.8C2 3.26 3.26 2 4.81 2H19.19C20.74 2 22 3.26 22 4.8Z" fill="black"/>
</svg>
