<svg width="24" height="24" viewBox="0 0 24 24" fill="none" xmlns="http://www.w3.org/2000/svg">
<path d="M21.96 19.84L21.46 17.73C21.27 16.93 20.55 16.37 19.72 16.37H18.67V10.58H19.38C20.83 10.58 22 9.39999 22 7.94999C22 6.90999 21.39 5.95999 20.45 5.53999L13.07 2.22C12.39 1.92 11.61 1.92 10.93 2.22L3.55002 5.53999C2.61002 5.95999 2.00002 6.90999 2.00002 7.94999C2.00002 9.39999 3.17001 10.58 4.62001 10.58H4.84001V16.37H4.28001C3.45001 16.37 2.73001 16.93 2.54001 17.73L2.04001 19.84C1.91001 20.36 2.03001 20.9 2.37001 21.33C2.71001 21.76 3.22001 22.01 3.78001 22.01H20.22C20.78 22.01 21.29 21.76 21.63 21.33C21.97 20.9 22.09 20.36 21.96 19.84ZM11.49 5.97H12.51C12.93 5.97 13.26 6.29999 13.26 6.72C13.26 7.12999 12.93 7.47 12.51 7.47H11.49C11.07 7.47 10.74 7.12999 10.74 6.72C10.74 6.29999 11.07 5.97 11.49 5.97ZM8.96002 16.37H6.34001V10.58H8.96002V16.37ZM13.05 16.37H10.46V10.58H13.05V16.37ZM17.17 16.37H14.55V10.58H17.17V16.37Z" fill="black"/>
</svg>
