<svg width="24" height="24" viewBox="0 0 24 24" fill="none" xmlns="http://www.w3.org/2000/svg">
<path d="M18.17 2H5.83C3.72 2 2 3.72 2 5.83V18.16C2 20.28 3.72 22 5.83 22H18.17C20.28 22 22 20.28 22 18.16V5.83C22 3.72 20.28 2 18.17 2ZM6.66 16V8C6.66 7.58 7 7.25 7.41 7.25C7.82 7.25 8.16 7.58 8.16 8V16C8.16 16.41 7.82 16.75 7.41 16.75C7 16.75 6.66 16.41 6.66 16ZM11.25 16V10C11.25 9.58 11.59 9.25 12 9.25C12.41 9.25 12.75 9.58 12.75 10V16C12.75 16.41 12.41 16.75 12 16.75C11.59 16.75 11.25 16.41 11.25 16ZM17.34 16C17.34 16.41 17 16.75 16.59 16.75C16.18 16.75 15.84 16.41 15.84 16V12C15.84 11.58 16.18 11.25 16.59 11.25C17 11.25 17.34 11.58 17.34 12V16Z" fill="black"/>
</svg>
