<svg width="24" height="24" viewBox="0 0 24 24" fill="none" xmlns="http://www.w3.org/2000/svg">
<path d="M16.6 7.38C16.76 7.54 16.9701 7.6 17.1701 7.59H21.24C21.65 7.59 21.99 7.25 21.99 6.84C21.99 6.43 21.65 6.09 21.24 6.09H18.95L21.77 3.25999C22.06 2.96999 22.06 2.49 21.77 2.2C21.62 2.05 21.43 1.98 21.24 1.98C21.05 1.98 20.86 2.05 20.71 2.2L17.8901 5.02999V2.73C17.8901 2.32 17.5501 1.98 17.1401 1.98C16.7301 1.98 16.3901 2.32 16.3901 2.73V6.8C16.3701 7.02 16.44 7.23 16.6 7.38Z" fill="black"/>
<path d="M9.37997 12.44V13.38C9.02997 13.27 8.82996 13.07 8.82996 12.91C8.82996 12.75 9.02997 12.55 9.37997 12.44Z" fill="black"/>
<path d="M11.05 15.14C11.05 15.29 10.84 15.49 10.49 15.61V14.66C10.84 14.78 11.05 14.98 11.05 15.14Z" fill="black"/>
<path d="M9.94 6.07001C5.56 6.07001 1.98999 9.64001 1.98999 14.02C1.98999 18.41 5.56 21.98 9.94 21.98C14.32 21.98 17.88 18.41 17.88 14.02C17.88 9.64001 14.32 6.07001 9.94 6.07001ZM10.49 16.75V16.8C10.49 17.11 10.24 17.36 9.94 17.36C9.63 17.36 9.38 17.11 9.38 16.8V16.75C8.85001 16.65 8.38001 16.41 8.07001 16.06C7.91001 15.86 7.89001 15.58 8.04001 15.37C8.18001 15.16 8.45 15.08 8.69 15.17L9.38 15.44V14.52C8.41 14.34 7.70999 13.7 7.70999 12.91C7.70999 12.12 8.41 11.48 9.38 11.3V11.24C9.38 10.93 9.63 10.68 9.94 10.68C10.24 10.68 10.49 10.93 10.49 11.24V11.29C11.03 11.39 11.5 11.64 11.8 11.99C11.97 12.18 11.98 12.46 11.84 12.67C11.73 12.82 11.56 12.91 11.38 12.91C11.31 12.91 11.25 12.9 11.18 12.87L10.49 12.61V13.52C11.46 13.7 12.16 14.34 12.16 15.14C12.16 15.93 11.46 16.57 10.49 16.75Z" fill="black"/>
<path d="M11.03 15.14C11.03 15.29 10.82 15.49 10.47 15.61V14.66C10.82 14.78 11.03 14.98 11.03 15.14Z" fill="black"/>
</svg>
