<svg width="24" height="24" viewBox="0 0 24 24" fill="none" xmlns="http://www.w3.org/2000/svg">
<path d="M6.81998 12.49H5.51996V9.85999C5.51996 9.44999 5.17996 9.10999 4.76996 9.10999C4.35996 9.10999 4.01996 9.44999 4.01996 9.85999V12.49H2.71997C2.30997 12.49 1.96997 12.83 1.96997 13.24V19.16C1.96997 19.57 2.30997 19.91 2.71997 19.91H4.01996V21.28C4.01996 21.69 4.35996 22.03 4.76996 22.03C5.17996 22.03 5.51996 21.69 5.51996 21.28V19.91H6.81998C7.22998 19.91 7.56998 19.57 7.56998 19.16V13.24C7.56998 12.83 7.22998 12.49 6.81998 12.49Z" fill="black"/>
<path d="M13.99 6.74H12.74V3.66C12.74 3.25 12.4 2.91 11.99 2.91C11.58 2.91 11.24 3.25 11.24 3.66V6.74H10C9.59 6.74 9.25 7.08 9.25 7.49V17.11C9.25 17.52 9.59 17.86 10 17.86H11.25V19.23C11.25 19.64 11.59 19.98 12 19.98C12.41 19.98 12.75 19.64 12.75 19.23V17.86H13.99C14.4 17.86 14.74 17.52 14.74 17.11V7.49C14.74 7.08 14.4 6.74 13.99 6.74Z" fill="black"/>
<path d="M21.22 4.04H19.92V2.78C19.92 2.37 19.58 2.03 19.17 2.03C18.76 2.03 18.42 2.37 18.42 2.78V4.04H17.12C16.71 4.04 16.37 4.38 16.37 4.79V14.23C16.37 14.64 16.71 14.98 17.12 14.98H18.42V17.11C18.42 17.52 18.76 17.86 19.17 17.86C19.58 17.86 19.92 17.52 19.92 17.11V14.98H21.22C21.63 14.98 21.97 14.64 21.97 14.23V4.79C21.97 4.38 21.63 4.04 21.22 4.04Z" fill="black"/>
</svg>
