<svg width="24" height="24" viewBox="0 0 24 24" fill="none" xmlns="http://www.w3.org/2000/svg">
<path d="M21.25 7.59001H19.95V4.95001C19.95 4.54001 19.61 4.20001 19.2 4.20001C18.79 4.20001 18.45 4.54001 18.45 4.95001V7.58001H17.15C16.74 7.58001 16.4 7.92001 16.4 8.33001V14.25C16.4 14.66 16.74 15 17.15 15H18.45V16.37C18.45 16.78 18.79 17.12 19.2 17.12C19.61 17.12 19.95 16.78 19.95 16.37V15H21.25C21.66 15 22 14.66 22 14.25V8.34001C22 7.92001 21.66 7.59001 21.25 7.59001Z" fill="black"/>
<path d="M13.97 8.78H12.72V5.69C12.72 5.28 12.38 4.94 11.97 4.94C11.56 4.94 11.22 5.28 11.22 5.69V8.77H9.96997C9.55997 8.77 9.21997 9.11 9.21997 9.52V19.14C9.21997 19.55 9.55997 19.89 9.96997 19.89H11.21V21.25C11.21 21.66 11.55 22 11.96 22C12.37 22 12.71 21.66 12.71 21.25V19.89H13.96C14.37 19.89 14.71 19.55 14.71 19.14V9.53C14.72 9.11 14.39 8.78 13.97 8.78Z" fill="black"/>
<path d="M6.85001 3.99999H5.54999V2.73999C5.54999 2.32999 5.20999 1.98999 4.79999 1.98999C4.38999 1.98999 4.04999 2.32999 4.04999 2.73999V3.99999H2.75C2.34 3.99999 2 4.32999 2 4.74999V14.19C2 14.6 2.34 14.94 2.75 14.94H4.04999V17.07C4.04999 17.48 4.38999 17.82 4.79999 17.82C5.20999 17.82 5.54999 17.48 5.54999 17.07V14.94H6.85001C7.26001 14.94 7.60001 14.6 7.60001 14.19V4.74999C7.60001 4.32999 7.26001 3.99999 6.85001 3.99999Z" fill="black"/>
</svg>
