<svg width="24" height="24" viewBox="0 0 24 24" fill="none" xmlns="http://www.w3.org/2000/svg">
<path d="M13 10.78C13 10.87 12.68 11.18 11.89 11.42C11.3489 11.5872 10.7863 11.6748 10.22 11.68H9.92999C8.05999 11.68 6.92999 11.03 6.92999 10.77C6.92999 10.51 8.03999 9.85 9.92999 9.85H10.27H10.69C11.4308 9.88411 12.1505 10.1079 12.78 10.5C12.93 10.67 13 10.76 13 10.78Z" fill="black"/>
<path d="M12.31 12.86C12.5453 12.788 12.7757 12.7011 13 12.6V13.17C13 13.27 12.65 13.62 11.73 13.87C11.1478 14.0141 10.5498 14.0846 9.95001 14.08C8.26001 14.08 7.17001 13.58 6.95001 13.22V12.63C7.90068 13.0236 8.92113 13.2209 9.95001 13.21H10.31C10.989 13.1798 11.6612 13.0622 12.31 12.86Z" fill="black"/>
<path d="M12.09 15.32C12.4013 15.2374 12.7055 15.1304 13 15V15.66C13 15.87 12 16.57 9.95001 16.57C7.90001 16.57 6.95001 15.87 6.95001 15.66V15C7.90003 15.3958 8.92093 15.5932 9.95001 15.58C10.6713 15.5818 11.3901 15.4944 12.09 15.32Z" fill="black"/>
<path d="M17.11 8.33C17.11 8.57 16 9.25 14.11 9.25C13.91 9.25 13.71 9.25 13.51 9.25C12.7805 8.81719 11.9644 8.55085 11.12 8.47C11.0902 8.458 11.0638 8.43902 11.0429 8.41465C11.022 8.39029 11.0073 8.36125 11 8.33C11.05 8.07 12.17 7.42 14.05 7.42C15.93 7.42 17.06 8.07 17.11 8.33Z" fill="black"/>
<path d="M14.48 10.73C15.3835 10.7053 16.2748 10.5155 17.11 10.17V10.73C17.11 10.97 16.11 11.54 14.48 11.62V10.73Z" fill="black"/>
<path d="M14.48 13.12C15.3836 13.0964 16.2751 12.9066 17.11 12.56V13.22C17.11 13.42 16.22 14.03 14.48 14.11V13.12Z" fill="black"/>
<path d="M18.25 2H5.75C4.75544 2 3.80161 2.39509 3.09835 3.09835C2.39509 3.80161 2 4.75544 2 5.75L2 18.25C2.00264 19.2437 2.39858 20.196 3.10127 20.8987C3.80396 21.6014 4.75625 21.9974 5.75 22H18.25C19.2437 21.9974 20.196 21.6014 20.8987 20.8987C21.6014 20.196 21.9974 19.2437 22 18.25V5.75C22 4.75544 21.6049 3.80161 20.9017 3.09835C20.1984 2.39509 19.2446 2 18.25 2V2ZM18.61 13.22C18.61 14.71 16.61 15.52 14.48 15.61V15.66C14.48 17.24 12.19 18.07 9.93 18.07C7.67 18.07 5.39 17.24 5.39 15.66V10.78C5.39 9.29 7.39 8.47 9.53 8.38C9.53 5.22 18.62 5.21 18.62 8.38L18.61 13.22Z" fill="black"/>
</svg>
