<svg width="24" height="24" viewBox="0 0 24 24" fill="none" xmlns="http://www.w3.org/2000/svg">
<path d="M3.5 9.72H2V17.43C2 19.26 3.49 20.75 5.31 20.75H18.69C20.51 20.75 22 19.26 22 17.43V9.72H20.5H3.5ZM5.70999 11.85H9.29001C9.71001 11.85 10.04 12.19 10.04 12.6C10.04 13.02 9.71001 13.35 9.29001 13.35H5.70999C5.28999 13.35 4.95999 13.02 4.95999 12.6C4.95999 12.19 5.28999 11.85 5.70999 11.85Z" fill="black"/>
<path d="M18.69 3.25H5.31C3.49 3.25 2 4.73 2 6.56V8.22H3.5H20.5H22V6.56C22 4.73 20.51 3.25 18.69 3.25Z" fill="black"/>
</svg>
