<svg width="24" height="24" viewBox="0 0 24 24" fill="none" xmlns="http://www.w3.org/2000/svg">
<path d="M11.25 9.23999V11.16C10.53 10.98 10.05 10.57 10.05 10.2C10.05 9.81999 10.53 9.40999 11.25 9.23999Z" fill="black"/>
<path d="M13.95 13.8C13.95 14.17 13.47 14.58 12.75 14.76V12.84C13.47 13.01 13.95 13.42 13.95 13.8Z" fill="black"/>
<path d="M18.89 5.1C17.05 3.26 14.6 2.25 12 2.25C9.4 2.25 6.95 3.26 5.11 5.1C3.26 6.94 2.25 9.39 2.25 12C2.25 13.28 2.5 14.54 2.99 15.73C3.48 16.92 4.2 17.98 5.11 18.89C6.01 19.8 7.08 20.51 8.27 21C9.46 21.5 10.71 21.75 12 21.75C13.29 21.75 14.54 21.5 15.73 21C16.92 20.51 17.99 19.8 18.89 18.89C19.8 17.98 20.52 16.92 21.01 15.73C21.5 14.54 21.75 13.28 21.75 12C21.75 9.39 20.74 6.94 18.89 5.1ZM12.75 16.29V16.5C12.75 16.91 12.41 17.25 12 17.25C11.59 17.25 11.25 16.91 11.25 16.5V16.28C10.37 16.14 9.59 15.76 9.09 15.19C8.87 14.93 8.85 14.55 9.05 14.27C9.25 13.98 9.61 13.88 9.93 14L11.25 14.5V12.68C9.69 12.44 8.55 11.43 8.55 10.2C8.55 8.96 9.69 7.96 11.25 7.71V7.5C11.25 7.08 11.59 6.75 12 6.75C12.41 6.75 12.75 7.08 12.75 7.5V7.71C13.63 7.86 14.41 8.24 14.91 8.8C15.13 9.06 15.15 9.44 14.95 9.73C14.81 9.93 14.58 10.05 14.34 10.05C14.25 10.05 14.16 10.03 14.07 10L12.75 9.49V11.31C14.31 11.55 15.45 12.56 15.45 13.8C15.45 15.04 14.31 16.04 12.75 16.29Z" fill="black"/>
</svg>
