<svg width="24" height="24" viewBox="0 0 24 24" fill="none" xmlns="http://www.w3.org/2000/svg">
<path d="M18.89 5.1C17.05 3.26 14.6 2.25 12 2.25C9.4 2.25 6.95 3.26 5.11 5.1C3.26 6.94 2.25 9.39 2.25 12C2.25 13.28 2.50001 14.54 2.99001 15.73C3.48001 16.92 4.2 17.98 5.11 18.89C6.01 19.8 7.08 20.51 8.27 21C9.46 21.5 10.71 21.75 12 21.75C13.29 21.75 14.54 21.5 15.73 21C16.92 20.51 17.99 19.8 18.89 18.89C19.8 17.98 20.52 16.92 21.01 15.73C21.5 14.54 21.75 13.28 21.75 12C21.75 9.39 20.74 6.94 18.89 5.1ZM12.38 10.05C12.79 10.05 13.13 10.38 13.13 10.8C13.13 11.21 12.79 11.55 12.38 11.55H10.22C10.19 11.85 10.19 12.15 10.22 12.45H12.38C12.79 12.45 13.13 12.78 13.13 13.2C13.13 13.61 12.79 13.95 12.38 13.95H10.64C10.72 14.1 10.8 14.25 10.9 14.38C11.72 15.5 13.03 15.5 13.85 14.38C14.1 14.05 14.57 13.98 14.9 14.22C15.23 14.47 15.3 14.94 15.06 15.27C14.36 16.22 13.41 16.75 12.38 16.75C11.35 16.75 10.39 16.22 9.69 15.27C9.4 14.87 9.18 14.42 9.02 13.95H8.46001C8.04001 13.95 7.71001 13.61 7.71001 13.2C7.71001 12.78 8.04001 12.45 8.46001 12.45H8.71001C8.69001 12.15 8.69001 11.85 8.71001 11.55H8.46001C8.04001 11.55 7.71001 11.21 7.71001 10.8C7.71001 10.38 8.04001 10.05 8.46001 10.05H9.02C9.18 9.57 9.4 9.12 9.69 8.72C10.39 7.77 11.34 7.25 12.37 7.25C12.38 7.25 12.38 7.25 12.38 7.25C13.41 7.25 14.36 7.77 15.06 8.72C15.3 9.06 15.23 9.53 14.9 9.77C14.57 10.02 14.1 9.95 13.85 9.61C13.44 9.05 12.92 8.75 12.38 8.75C11.83 8.75 11.31 9.05 10.9 9.61C10.8 9.75 10.72 9.89 10.64 10.05H12.38Z" fill="black"/>
</svg>
