<svg width="24" height="24" viewBox="0 0 24 24" fill="none" xmlns="http://www.w3.org/2000/svg">
<path fill-rule="evenodd" clip-rule="evenodd" d="M18.25 2H5.75C4.75544 2 3.80161 2.39509 3.09835 3.09835C2.39509 3.80161 2 4.75544 2 5.75V18.25C2.00264 19.2437 2.39858 20.196 3.10127 20.8987C3.80396 21.6014 4.75625 21.9974 5.75 22H18.25C19.2437 21.9974 20.196 21.6014 20.8987 20.8987C21.6014 20.196 21.9974 19.2437 22 18.25V5.75C22 4.75544 21.6049 3.80161 20.9017 3.09835C20.1984 2.39509 19.2446 2 18.25 2ZM11.4697 6.94967C11.7625 6.65677 12.2374 6.65677 12.5303 6.94967L14.5903 9.00967L14.15 9.45L14.5903 9.00967L14.6803 9.09967C14.8948 9.31417 14.959 9.63676 14.8429 9.91701C14.7268 10.1973 14.4533 10.38 14.15 10.38H7.69999C7.27829 10.38 6.87387 10.5475 6.57569 10.8457C6.2775 11.1439 6.10999 11.5483 6.10999 11.97C6.10999 12.3917 6.2775 12.7961 6.57569 13.0943C6.87387 13.3925 7.27829 13.56 7.69999 13.56C8.1142 13.56 8.44999 13.8958 8.44999 14.31C8.44999 14.7242 8.1142 15.06 7.69999 15.06C6.88047 15.06 6.09451 14.7344 5.51503 14.155C4.93554 13.5755 4.60999 12.7895 4.60999 11.97C4.60999 11.1505 4.93554 10.3645 5.51503 9.78504C6.09451 9.20555 6.88047 8.88 7.69999 8.88H12.3393L11.4697 8.01033C11.1768 7.71743 11.1768 7.24256 11.4697 6.94967ZM18.4849 9.84504C17.9055 9.26555 17.1195 8.94 16.3 8.94C15.8858 8.94 15.55 9.27579 15.55 9.69C15.55 10.1042 15.8858 10.44 16.3 10.44C16.7217 10.44 17.1261 10.6075 17.4243 10.9057C17.7225 11.2039 17.89 11.6083 17.89 12.03C17.89 12.4517 17.7225 12.8561 17.4243 13.1543C17.1261 13.4525 16.7217 13.62 16.3 13.62H9.82999C9.52664 13.62 9.25316 13.8027 9.13708 14.083C9.02099 14.3632 9.08516 14.6858 9.29966 14.9003L9.38966 14.9903L9.38965 14.9903L9.39222 14.9929L11.4722 17.0529C11.7665 17.3444 12.2414 17.3421 12.5329 17.0478C12.8243 16.7535 12.8221 16.2786 12.5277 15.9871L11.6522 15.12H16.3C17.1195 15.12 17.9055 14.7944 18.4849 14.215C19.0644 13.6355 19.39 12.8495 19.39 12.03C19.39 11.2105 19.0644 10.4245 18.4849 9.84504Z" fill="black"/>
</svg>
