<svg width="24" height="24" viewBox="0 0 24 24" fill="none" xmlns="http://www.w3.org/2000/svg">
<path d="M8.86001 4.42C8.99001 4.42 9.13002 4.38 9.25002 4.31C10.92 3.28 13.12 3.26 14.76 4.2C15.12 4.41 15.58 4.28 15.78 3.92C15.98 3.56 15.86 3.09999 15.5 2.89999C13.39 1.68999 10.58 1.71999 8.45003 3.03999C8.10003 3.25999 7.99001 3.72001 8.21001 4.07001C8.36001 4.30001 8.61001 4.42 8.86001 4.42Z" fill="black"/>
<path d="M10.07 5.66001C9.72003 5.88001 9.61001 6.34 9.83001 6.69C9.97001 6.92 10.22 7.04 10.47 7.04C10.61 7.04 10.74 7 10.87 6.92C11.57 6.48 12.54 6.47 13.24 6.87C13.6 7.08 14.06 6.96001 14.27 6.60001C14.48 6.24001 14.36 5.78001 14 5.57001C12.83 4.91001 11.23 4.93001 10.07 5.66001Z" fill="black"/>
<path d="M19 8.16H5C3.35 8.16 2 9.51 2 11.16V18.99C2 20.65 3.35 22 5 22H19C20.65 22 22 20.65 22 18.99V11.16C22 9.51 20.65 8.16 19 8.16ZM7.91 18.91H6.88C6.46 18.91 6.13 18.58 6.13 18.16C6.13 17.75 6.46 17.41 6.88 17.41H7.91C8.32 17.41 8.66 17.75 8.66 18.16C8.66 18.58 8.32 18.91 7.91 18.91ZM9.95999 15.83H6.88C6.46 15.83 6.13 15.49 6.13 15.08C6.13 14.67 6.46 14.33 6.88 14.33H9.95999C10.38 14.33 10.71 14.67 10.71 15.08C10.71 15.49 10.38 15.83 9.95999 15.83Z" fill="black"/>
</svg>
