<svg width="24" height="24" viewBox="0 0 24 24" fill="none" xmlns="http://www.w3.org/2000/svg">
<path d="M13.94 4.37C13.94 5.67 12.88 6.74001 11.57 6.74001C10.27 6.74001 9.20996 5.67 9.20996 4.37C9.20996 3.06 10.27 2 11.57 2C12.88 2 13.94 3.06 13.94 4.37Z" fill="black"/>
<path d="M20.87 12.97C20.15 12.74 19.53 12.4 19.07 11.98C18.87 11.8 18.6 11.51 18.31 11.16C18.17 11 18.05 10.85 17.95 10.72C18.17 10.13 18.36 9.7 18.52 9.36C18.6 9.2 18.84 8.68999 18.57 8.17999C18.45 7.95999 18.14 7.58 17.43 7.55C15.98 7.48 14.69 7.81 13.62 8.52C13.42 8.64 13.29 8.67999 13.08 8.64999C13 8.63999 12.91 8.64 12.83 8.63H12.72C11.28 8.58 9.79001 8.53 8.29001 8.75C7.20001 8.91 6.23999 9.23001 5.45999 9.71001C4.66999 10.19 4 10.88 3.5 11.68C2.92 12.64 2.60999 13.73 2.60999 14.82V14.87C2.62999 16.32 3.25999 17.78 4.54999 19.33C4.74999 19.56 4.89999 19.89 5.01999 20.18C5.02999 20.21 5.03999 20.3 5.04999 20.36C5.08999 20.58 5.14001 20.89 5.32001 21.24C5.42001 21.43 5.52 21.58 5.59 21.68C5.73 21.87 5.94999 21.98 6.17999 21.98L8.81 22C8.81 22 8.81001 22 8.82001 22C9.13001 22 9.40999 21.8 9.51999 21.51C9.56999 21.39 9.61999 21.25 9.67999 21.12L11.81 21.11C11.9 21.28 11.98 21.44 12.07 21.6C12.2 21.83 12.45 21.98 12.72 21.98L15.35 21.97C15.72 21.97 16.04 21.7 16.09 21.32C16.13 21.04 16.21 20.77 16.33 20.52C16.41 20.35 16.51 20.19 16.63 20.04C17.4 19.88 18.05 19.57 18.56 19.12C18.87 18.86 19.07 18.59 19.25 18.35C19.48 18.06 19.65 17.83 20 17.61C20.23 17.47 20.5 17.36 20.78 17.29C21.12 17.2 21.35 16.91 21.36 16.56L21.39 13.69C21.39 13.37 21.18 13.07 20.87 12.97ZM15.16 13.03C15.16 12.58 15.53 12.22 15.98 12.22C16.44 12.22 16.8 12.58 16.8 13.03C16.8 13.48 16.44 13.84 15.98 13.84C15.53 13.84 15.16 13.48 15.16 13.03ZM9.17999 12.49C9.17999 12.08 9.50999 11.74 9.92999 11.74H13.22C13.64 11.74 13.97 12.08 13.97 12.49C13.97 12.9 13.64 13.24 13.22 13.24H9.92999C9.50999 13.24 9.17999 12.9 9.17999 12.49Z" fill="black"/>
</svg>
