<svg width="24" height="24" viewBox="0 0 24 24" fill="none" xmlns="http://www.w3.org/2000/svg">
<path d="M12 2.25C6.62 2.25 2.25 6.62 2.25 12C2.25 17.37 6.62 21.75 12 21.75C17.38 21.75 21.75 17.37 21.75 12C21.75 6.62 17.38 2.25 12 2.25ZM13.15 16.02C12.74 16.02 12.4 15.68 12.4 15.27C12.4 14.85 12.74 14.52 13.15 14.52C13.56 14.52 13.9 14.85 13.9 15.27C13.9 15.68 13.56 16.02 13.15 16.02ZM15.6 11.4C15.44 11.87 15.19 12.27 14.86 12.59C14.22 13.2 13.49 13.38 13.05 13.49C12.64 13.6 12.2 13.65 11.77 13.65H11.68L11.4 15.41C11.34 15.78 11.02 16.04 10.66 16.04C10.62 16.04 10.58 16.04 10.54 16.03C10.13 15.97 9.85 15.58 9.92 15.17L10.65 10.55C10.72 10.14 11.11 9.86999 11.51 9.92999C11.92 9.98999 12.2 10.38 12.13 10.79L11.92 12.14C12.18 12.13 12.44 12.1 12.69 12.04C13.04 11.95 13.47 11.84 13.82 11.51C13.98 11.35 14.1 11.15 14.19 10.91C14.38 10.34 14.13 9.48 13.35 9.02C12.33 8.42 11.1 8.92999 11.09 8.92999C10.17 9.31999 9.64 10.24 9.77 11.22C9.82 11.63 9.53 12.01 9.12 12.06C8.72 12.12 8.34 11.83 8.28 11.42C8.06 9.76 8.96 8.21 10.5 7.55C10.57 7.52 12.42 6.73 14.11 7.73C15.6 8.61 15.99 10.28 15.6 11.4Z" fill="black"/>
</svg>
