<svg width="24" height="24" viewBox="0 0 24 24" fill="none" xmlns="http://www.w3.org/2000/svg">
<path d="M18.89 5.1C17.05 3.26 14.6 2.25 12 2.25C9.4 2.25 6.95 3.26 5.11 5.1C3.26 6.94 2.25 9.39 2.25 12C2.25 13.28 2.5 14.54 2.99 15.73C3.48 16.92 4.2 17.98 5.11 18.89C6.01 19.8 7.08 20.51 8.27 21C9.46 21.5 10.71 21.75 12 21.75C13.29 21.75 14.54 21.5 15.73 21C16.92 20.51 17.99 19.8 18.89 18.89C19.8 17.98 20.52 16.92 21.01 15.73C21.5 14.54 21.75 13.28 21.75 12C21.75 9.39 20.74 6.94 18.89 5.1ZM13 11.44C13.41 11.44 13.75 11.78 13.75 12.19C13.75 12.61 13.41 12.94 13 12.94H11.75V13.97C11.75 14.33 11.67 14.68 11.51 15H15C15.41 15 15.75 15.33 15.75 15.75C15.75 16.16 15.41 16.5 15 16.5H9C8.59 16.5 8.25 16.16 8.25 15.75C8.25 15.33 8.59 15 9 15C9.35 15 9.68 14.88 9.92 14.67C10.13 14.47 10.25 14.23 10.25 13.97V12.94H9C8.59 12.94 8.25 12.61 8.25 12.19C8.25 11.78 8.59 11.44 9 11.44H10.25V9.52C10.25 8.84 10.56 8.18 11.09 7.71C12.12 6.79 13.88 6.79 14.91 7.71C15.44 8.18 15.75 8.84 15.75 9.52C15.75 9.94 15.41 10.27 15 10.27C14.59 10.27 14.25 9.94 14.25 9.52C14.25 9.27 14.13 9.02 13.92 8.83C13.44 8.41 12.56 8.41 12.08 8.83C11.87 9.02 11.75 9.27 11.75 9.52V11.44H13Z" fill="black"/>
</svg>
