<svg width="24" height="24" viewBox="0 0 24 24" fill="none" xmlns="http://www.w3.org/2000/svg">
<path d="M21.81 2.2C21.65 2.04 21.44 1.98 21.24 1.99H17.17C16.76 1.99 16.42 2.33 16.42 2.74C16.42 3.15 16.76 3.49 17.17 3.49H19.46L16.64 6.32C16.35 6.61 16.35 7.09 16.64 7.38C16.79 7.53 16.98 7.6 17.17 7.6C17.36 7.6 17.55 7.53 17.7 7.38L20.52 4.55V6.85C20.52 7.25999 20.86 7.6 21.27 7.6C21.68 7.6 22.02 7.25999 22.02 6.85V2.78C22.04 2.57 21.97 2.36 21.81 2.2Z" fill="black"/>
<path d="M9.42001 12.44V13.38C9.07001 13.27 8.87 13.07 8.87 12.91C8.87 12.75 9.07001 12.55 9.42001 12.44Z" fill="black"/>
<path d="M11.09 15.14C11.09 15.29 10.88 15.49 10.53 15.61V14.66C10.88 14.78 11.09 14.98 11.09 15.14Z" fill="black"/>
<path d="M9.98004 6.07001C5.60004 6.07001 2.03003 9.64001 2.03003 14.02C2.03003 18.41 5.60004 21.98 9.98004 21.98C14.36 21.98 17.92 18.41 17.92 14.02C17.92 9.64001 14.36 6.07001 9.98004 6.07001ZM10.53 16.75V16.8C10.53 17.11 10.28 17.36 9.98004 17.36C9.67004 17.36 9.42004 17.11 9.42004 16.8V16.75C8.89004 16.65 8.42002 16.41 8.11002 16.06C7.95002 15.86 7.93002 15.58 8.08002 15.37C8.22002 15.16 8.49004 15.08 8.73004 15.17L9.42004 15.44V14.52C8.45004 14.34 7.75003 13.7 7.75003 12.91C7.75003 12.12 8.45004 11.48 9.42004 11.3V11.24C9.42004 10.93 9.67004 10.68 9.98004 10.68C10.28 10.68 10.53 10.93 10.53 11.24V11.29C11.07 11.39 11.54 11.64 11.84 11.99C12.01 12.18 12.02 12.46 11.88 12.67C11.77 12.82 11.6 12.91 11.42 12.91C11.35 12.91 11.29 12.9 11.22 12.87L10.53 12.61V13.52C11.5 13.7 12.2 14.34 12.2 15.14C12.2 15.93 11.5 16.57 10.53 16.75Z" fill="black"/>
<path d="M21.79 2.2C21.63 2.04 21.42 1.98 21.22 1.99H17.15C16.74 1.99 16.4 2.33 16.4 2.74C16.4 3.15 16.74 3.49 17.15 3.49H19.44L16.62 6.32C16.33 6.61 16.33 7.09 16.62 7.38C16.77 7.53 16.96 7.6 17.15 7.6C17.34 7.6 17.53 7.53 17.68 7.38L20.5 4.55V6.85C20.5 7.25999 20.84 7.6 21.25 7.6C21.66 7.6 22 7.25999 22 6.85V2.78C22.01 2.57 21.94 2.36 21.79 2.2Z" fill="black"/>
<path d="M11.06 15.14C11.06 15.29 10.85 15.49 10.5 15.61V14.66C10.85 14.78 11.06 14.98 11.06 15.14Z" fill="black"/>
<path d="M9.95001 6.06999C5.57001 6.06999 2 9.63999 2 14.02C2 18.41 5.57001 21.98 9.95001 21.98C14.33 21.98 17.89 18.41 17.89 14.02C17.89 9.63999 14.33 6.06999 9.95001 6.06999ZM10.5 16.75V16.8C10.5 17.11 10.25 17.36 9.95001 17.36C9.64001 17.36 9.39001 17.11 9.39001 16.8V16.75C8.86001 16.65 8.38999 16.41 8.07999 16.06C7.91999 15.86 7.89999 15.58 8.04999 15.37C8.18999 15.16 8.46001 15.08 8.70001 15.17L9.39001 15.44V14.52C8.42001 14.34 7.72 13.7 7.72 12.91C7.72 12.12 8.42001 11.48 9.39001 11.3V11.24C9.39001 10.93 9.64001 10.68 9.95001 10.68C10.25 10.68 10.5 10.93 10.5 11.24V11.29C11.04 11.39 11.51 11.64 11.81 11.99C11.98 12.18 11.99 12.46 11.85 12.67C11.74 12.82 11.57 12.91 11.39 12.91C11.32 12.91 11.26 12.9 11.19 12.87L10.5 12.61V13.52C11.47 13.7 12.17 14.34 12.17 15.14C12.17 15.93 11.47 16.57 10.5 16.75Z" fill="black"/>
</svg>
