<svg width="24" height="24" viewBox="0 0 24 24" fill="none" xmlns="http://www.w3.org/2000/svg">
<path d="M18.89 5.1C17.05 3.26 14.6 2.25 12 2.25C9.4 2.25 6.95 3.26 5.11 5.1C3.26 6.94 2.25 9.39 2.25 12C2.25 13.29 2.50001 14.54 2.99001 15.73C3.48001 16.92 4.2 17.98 5.11 18.89C6.01 19.8 7.08 20.51 8.27 21C9.46 21.5 10.71 21.75 12 21.75C13.29 21.75 14.54 21.5 15.73 21C16.92 20.51 17.99 19.8 18.89 18.89C19.8 17.98 20.52 16.92 21.01 15.73C21.5 14.54 21.75 13.29 21.75 12C21.75 9.39 20.74 6.94 18.89 5.1ZM15 11.3C15.41 11.3 15.75 11.64 15.75 12.05C15.75 12.47 15.41 12.8 15 12.8H13L12.75 13.17V13.97H15C15.41 13.97 15.75 14.3 15.75 14.72C15.75 15.13 15.41 15.47 15 15.47H12.75V16.5C12.75 16.91 12.41 17.25 12 17.25C11.59 17.25 11.25 16.91 11.25 16.5V15.47H9C8.59 15.47 8.25 15.13 8.25 14.72C8.25 14.3 8.59 13.97 9 13.97H11.25V13.17L11 12.8H9C8.59 12.8 8.25 12.47 8.25 12.05C8.25 11.64 8.59 11.3 9 11.3H9.99001L8.38 8.92C8.29 8.79 8.25 8.64 8.25 8.5C8.25 8.26 8.37 8.02 8.58 7.87C8.92 7.64 9.39 7.73 9.62 8.08L11.8 11.3H12.2L14.38 8.08C14.61 7.73 15.08 7.64 15.42 7.87C15.63 8.02 15.75 8.26 15.75 8.5C15.75 8.64 15.71 8.79 15.62 8.92L14.01 11.3H15Z" fill="black"/>
</svg>
