<svg width="24" height="24" viewBox="0 0 24 24" fill="none" xmlns="http://www.w3.org/2000/svg">
<path d="M14.06 16.84C13.81 16.97 13.54 17.07 13.24 17.11C13.12 17.13 12.99 17.14 12.87 17.14H8.92" stroke="black" stroke-width="1.5" stroke-linecap="round" stroke-linejoin="round"/>
<path d="M4.81 17.13C3.66 17.06 2.75 16.23 2.75 15.23V6.7C2.75 5.65 3.75 4.8 4.97 4.8H12.86C14.08 4.8 15.08 5.65 15.08 6.7V15.07" stroke="black" stroke-width="1.5" stroke-linecap="round" stroke-linejoin="round"/>
<path d="M15.08 15.32V9.15001C15.08 8.45001 15.77 7.89 16.62 7.89H17.45C17.9 7.89 18.32 8.05001 18.62 8.33001L20.87 10.48C21.11 10.71 21.24 11 21.24 11.3V15.88C21.24 16.58 20.55 17.14 19.7 17.14H18.16" stroke="black" stroke-width="1.5" stroke-linecap="round" stroke-linejoin="round"/>
<path d="M20.8362 11.25H15.2379" stroke="black" stroke-width="1.5" stroke-linecap="round" stroke-linejoin="round"/>
<path d="M6.86 19.2C7.99771 19.2 8.92 18.2777 8.92 17.14C8.92 16.0023 7.99771 15.08 6.86 15.08C5.72229 15.08 4.8 16.0023 4.8 17.14C4.8 18.2777 5.72229 19.2 6.86 19.2Z" stroke="black" stroke-width="1.5" stroke-linecap="round" stroke-linejoin="round"/>
<path d="M16.11 19.2C17.2477 19.2 18.17 18.2777 18.17 17.14C18.17 16.0023 17.2477 15.08 16.11 15.08C14.9723 15.08 14.05 16.0023 14.05 17.14C14.05 18.2777 14.9723 19.2 16.11 19.2Z" stroke="black" stroke-width="1.5" stroke-linecap="round" stroke-linejoin="round"/>
</svg>
