<svg width="24" height="24" viewBox="0 0 24 24" fill="none" xmlns="http://www.w3.org/2000/svg">
<path d="M20.93 11.24L18.9 9.21V6.25C18.9 5.61 18.39 5.1 17.75 5.1H14.79L12.76 3.07C12.34 2.65 11.66 2.65 11.24 3.07L9.21 5.1H6.25C5.61 5.1 5.1 5.61 5.1 6.25V9.21L3.07 11.24C2.65 11.66 2.65 12.34 3.07 12.76L5.1 14.79V17.75C5.1 18.39 5.61 18.9 6.25 18.9H9.21L11.24 20.93C11.66 21.35 12.34 21.35 12.76 20.93L14.79 18.9H17.75C18.39 18.9 18.9 18.38 18.9 17.75V14.79L20.93 12.76C21.36 12.34 21.36 11.66 20.93 11.24Z" stroke="black" stroke-width="1.5" stroke-linecap="round" stroke-linejoin="round"/>
<path d="M14.44 9.56L9.56 14.44" stroke="black" stroke-width="1.5" stroke-linecap="round" stroke-linejoin="round"/>
<path d="M8.97 7.64999C8.27 7.64999 7.71001 8.21999 7.71001 8.90999C7.71001 9.60999 8.28 10.17 8.97 10.17C9.67 10.17 10.23 9.59999 10.23 8.90999C10.23 8.20999 9.66 7.64999 8.97 7.64999Z" fill="black"/>
<path d="M15.12 13.8C14.42 13.8 13.86 14.37 13.86 15.06C13.86 15.76 14.43 16.32 15.12 16.32C15.82 16.32 16.38 15.75 16.38 15.06C16.39 14.37 15.82 13.8 15.12 13.8Z" fill="black"/>
</svg>
