<svg width="24" height="24" viewBox="0 0 24 24" fill="none" xmlns="http://www.w3.org/2000/svg">
<path d="M7.38 5.16C5.1 5.74 3.39999 7.74 3.22999 10.11L2.75999 16.21C2.74999 16.31 2.79 16.42 2.86 16.5C2.93 16.58 3.02999 16.62 3.14999 16.62H4.80999" stroke="black" stroke-width="1.5" stroke-linecap="round" stroke-linejoin="round"/>
<path d="M5.83 12V18.56V19.33C5.83 20.39 6.68999 21.25 7.75999 21.25H12" stroke="black" stroke-width="1.5" stroke-linecap="round" stroke-linejoin="round"/>
<path d="M16.62 5.16C18.9 5.74 20.6 7.74 20.77 10.11L21.24 16.21C21.25 16.31 21.21 16.42 21.14 16.5C21.07 16.58 20.97 16.62 20.85 16.62H19.19" stroke="black" stroke-width="1.5" stroke-linecap="round" stroke-linejoin="round"/>
<path d="M16.62 5.16C16.71 4.99 16.87 4.61 16.85 4.12C16.84 3.87 16.81 3.47 16.5 3.14C16.34 2.97 16.02 2.75 15.46 2.75H12H8.53999C7.98999 2.75 7.67 2.97 7.5 3.14C7.27 3.39 7.14999 3.73 7.14999 4.12C7.14999 4.44 7.23 4.8 7.38 5.16C8.31 6.84 10.08 7.89 12 7.89C13.92 7.89 15.7 6.84 16.62 5.16Z" stroke="black" stroke-width="1.5" stroke-linecap="round" stroke-linejoin="round"/>
<path d="M18.17 12V18.56V19.33C18.17 20.39 17.31 21.25 16.24 21.25H12" stroke="black" stroke-width="1.5" stroke-linecap="round" stroke-linejoin="round"/>
<path d="M10.46 7.89V9.62" stroke="black" stroke-width="1.5" stroke-linecap="round" stroke-linejoin="round"/>
<path d="M13.54 7.89V10.97" stroke="black" stroke-width="1.5" stroke-linecap="round" stroke-linejoin="round"/>
</svg>
