<svg width="24" height="24" viewBox="0 0 24 24" fill="none" xmlns="http://www.w3.org/2000/svg">
<path d="M19.19 19.39H4.8C3.66 19.39 2.73999 18.47 2.73999 17.33V13.22C2.73999 12.08 3.66 11.16 4.8 11.16H19.19C20.33 11.16 21.25 12.08 21.25 13.22V17.33C21.25 18.47 20.33 19.39 19.19 19.39Z" stroke="black" stroke-width="1.5" stroke-linecap="round" stroke-linejoin="round"/>
<path d="M12 5.86C12.8505 5.86 13.54 5.17052 13.54 4.32C13.54 3.46948 12.8505 2.78 12 2.78C11.1495 2.78 10.46 3.46948 10.46 4.32C10.46 5.17052 11.1495 5.86 12 5.86Z" stroke="black" stroke-width="1.5" stroke-linecap="round" stroke-linejoin="round"/>
<path d="M4.81 11L10.46 5.34" stroke="black" stroke-width="1.5" stroke-linecap="round" stroke-linejoin="round"/>
<path d="M19.11 11L13.46 5.34" stroke="black" stroke-width="1.5" stroke-linecap="round" stroke-linejoin="round"/>
<path d="M6.12 13.14C6.42 13.14 6.69 13.2 6.95 13.31C7.21 13.42 7.44 13.57 7.63 13.77C7.82 13.96 7.98 14.19 8.09 14.45C8.2 14.71 8.26 14.99 8.26 15.28C8.26 15.58 8.2 15.85 8.09 16.11C7.98 16.37 7.82 16.59 7.63 16.79C7.44 16.98 7.21 17.14 6.95 17.25C6.69 17.36 6.41 17.42 6.12 17.42C5.83 17.42 5.55 17.36 5.29 17.25C5.03 17.14 4.81 16.99 4.62 16.79C4.43 16.59 4.28 16.37 4.17 16.11C4.06 15.85 4 15.57 4 15.28C4 14.99 4.06 14.71 4.17 14.45C4.28 14.19 4.43 13.96 4.62 13.77C4.81 13.58 5.04 13.42 5.29 13.31C5.55 13.2 5.83 13.14 6.12 13.14ZM6.13 14.25C5.99 14.25 5.85 14.28 5.73 14.33C5.61 14.38 5.5 14.46 5.4 14.55C5.31 14.64 5.24 14.75 5.18 14.88C5.13 15.01 5.1 15.14 5.1 15.28C5.1 15.43 5.13 15.56 5.18 15.69C5.23 15.82 5.3 15.92 5.4 16.02C5.49 16.11 5.6 16.18 5.73 16.24C5.85 16.29 5.99 16.32 6.13 16.32C6.27 16.32 6.41 16.29 6.53 16.24C6.66 16.19 6.76 16.12 6.86 16.02C6.95 15.93 7.03 15.82 7.08 15.69C7.13 15.57 7.16 15.43 7.16 15.28C7.16 15.14 7.13 15.01 7.08 14.88C7.03 14.75 6.95 14.64 6.86 14.55C6.77 14.46 6.66 14.38 6.53 14.33C6.41 14.27 6.28 14.25 6.13 14.25Z" fill="black"/>
<path d="M10.48 13.17C10.71 13.17 10.92 13.21 11.12 13.3C11.32 13.39 11.49 13.5 11.64 13.65C11.79 13.8 11.91 13.97 11.99 14.17C12.08 14.37 12.12 14.58 12.12 14.81C12.12 15.04 12.08 15.25 11.99 15.44C11.9 15.64 11.79 15.81 11.64 15.96C11.49 16.11 11.32 16.22 11.12 16.31C10.92 16.4 10.71 16.44 10.48 16.44H9.83001V16.84C9.83001 16.92 9.82001 16.99 9.79001 17.06C9.76001 17.13 9.72001 17.18 9.67001 17.23C9.62001 17.28 9.56001 17.32 9.49001 17.35C9.42001 17.38 9.35 17.39 9.27 17.39C9.19 17.39 9.12001 17.38 9.06001 17.35C8.99001 17.32 8.93001 17.28 8.89001 17.23C8.84001 17.18 8.8 17.12 8.77 17.06C8.74 16.99 8.73001 16.92 8.73001 16.84V13.73C8.73001 13.66 8.74 13.58 8.77 13.52C8.8 13.45 8.84001 13.39 8.89001 13.34C8.94001 13.29 9.00001 13.25 9.07001 13.22C9.14001 13.19 9.21001 13.18 9.28001 13.18H10.48V13.17ZM9.84 14.28V15.33H10.5C10.56 15.33 10.62 15.32 10.69 15.29C10.75 15.26 10.81 15.22 10.86 15.18C10.91 15.13 10.95 15.08 10.98 15.01C11.01 14.95 11.03 14.88 11.03 14.81C11.03 14.74 11.01 14.67 10.98 14.6C10.95 14.54 10.91 14.48 10.86 14.43C10.81 14.38 10.75 14.34 10.69 14.32C10.63 14.29 10.57 14.28 10.5 14.28H9.84Z" fill="black"/>
<path d="M13.03 17.37C12.96 17.36 12.89 17.35 12.83 17.32C12.77 17.29 12.72 17.25 12.67 17.21C12.62 17.16 12.59 17.11 12.56 17.05C12.53 16.99 12.52 16.92 12.52 16.84V13.73C12.52 13.66 12.53 13.58 12.56 13.52C12.59 13.45 12.63 13.39 12.68 13.34C12.73 13.29 12.79 13.25 12.85 13.22C12.92 13.19 12.99 13.18 13.07 13.18H15.12C15.2 13.18 15.27 13.19 15.34 13.22C15.41 13.25 15.46 13.29 15.51 13.34C15.56 13.39 15.6 13.45 15.63 13.52C15.66 13.59 15.67 13.66 15.67 13.73C15.67 13.81 15.66 13.88 15.63 13.95C15.6 14.02 15.56 14.08 15.51 14.13C15.46 14.18 15.4 14.22 15.34 14.25C15.27 14.28 15.2 14.29 15.12 14.29H13.63V14.67H14.86C14.94 14.67 15.01 14.68 15.07 14.71C15.14 14.74 15.2 14.78 15.25 14.83C15.3 14.88 15.34 14.94 15.37 15.01C15.4 15.08 15.41 15.15 15.41 15.23C15.41 15.31 15.4 15.38 15.37 15.44C15.34 15.51 15.3 15.56 15.25 15.61C15.2 15.66 15.14 15.7 15.07 15.72C15 15.75 14.93 15.76 14.86 15.76H13.63V16.27H15.12C15.2 16.27 15.27 16.29 15.34 16.32C15.41 16.35 15.46 16.39 15.51 16.44C15.56 16.49 15.6 16.55 15.63 16.62C15.66 16.69 15.67 16.76 15.67 16.84C15.67 16.92 15.66 16.99 15.63 17.06C15.6 17.13 15.56 17.18 15.51 17.23C15.46 17.28 15.4 17.32 15.34 17.35C15.27 17.38 15.2 17.39 15.12 17.39H13.03V17.37Z" fill="black"/>
<path d="M17.21 15.11V16.82C17.21 16.9 17.2 16.97 17.17 17.04C17.14 17.11 17.1 17.16 17.05 17.21C17 17.26 16.94 17.3 16.87 17.33C16.8 17.36 16.73 17.37 16.65 17.37C16.57 17.37 16.5 17.36 16.44 17.33C16.37 17.3 16.31 17.26 16.26 17.21C16.21 17.16 16.17 17.1 16.14 17.04C16.11 16.97 16.1 16.9 16.1 16.82V13.72C16.1 13.65 16.11 13.58 16.14 13.51C16.17 13.44 16.2 13.38 16.25 13.33C16.3 13.28 16.36 13.24 16.42 13.2C16.49 13.17 16.56 13.15 16.65 13.15C16.82 13.15 16.96 13.22 17.09 13.36L18.9 15.37V13.7C18.9 13.62 18.92 13.55 18.94 13.49C18.97 13.42 19.01 13.37 19.06 13.32C19.11 13.27 19.17 13.23 19.24 13.2C19.31 13.17 19.38 13.16 19.46 13.16C19.54 13.16 19.61 13.17 19.67 13.2C19.74 13.23 19.79 13.27 19.84 13.32C19.89 13.37 19.93 13.43 19.96 13.49C19.99 13.56 20 13.63 20 13.7V16.82C20 16.89 19.99 16.97 19.96 17.03C19.93 17.1 19.89 17.15 19.84 17.2C19.79 17.25 19.73 17.29 19.66 17.32C19.59 17.35 19.52 17.36 19.43 17.36H19.39C19.32 17.35 19.25 17.33 19.2 17.3C19.14 17.27 19.09 17.22 19.04 17.15L17.21 15.11Z" fill="black"/>
</svg>
