<svg width="24" height="24" viewBox="0 0 24 24" fill="none" xmlns="http://www.w3.org/2000/svg">
<path d="M20.25 12H13C12.45 12 12 12.45 12 13V20.25C12 20.8 12.45 21.25 13 21.25H20.25C20.8 21.25 21.25 20.8 21.25 20.25V13C21.25 12.45 20.8 12 20.25 12Z" stroke="black" stroke-width="1.5" stroke-linecap="round" stroke-linejoin="round"/>
<path d="M18.39 15.8C17.81 15.5 17.23 15.21 16.65 14.91C16.05 15.21 15.46 15.5 14.86 15.8C14.86 14.53 14.86 13.26 14.86 12H18.39V15.8Z" stroke="black" stroke-width="1.5" stroke-linecap="round" stroke-linejoin="round"/>
<path d="M11 12H3.75C3.2 12 2.75 12.45 2.75 13V20.25C2.75 20.8 3.2 21.25 3.75 21.25H11C11.55 21.25 12 20.8 12 20.25V13C12 12.45 11.55 12 11 12Z" stroke="black" stroke-width="1.5" stroke-linecap="round" stroke-linejoin="round"/>
<path d="M9.14 15.8C8.56 15.5 7.98 15.21 7.4 14.91C6.8 15.21 6.21 15.5 5.61 15.8C5.61 14.53 5.61 13.26 5.61 12H9.14V15.8Z" stroke="black" stroke-width="1.5" stroke-linecap="round" stroke-linejoin="round"/>
<path d="M15.62 2.75H8.37C7.82 2.75 7.37 3.2 7.37 3.75V11C7.37 11.55 7.82 12 8.37 12H15.62C16.17 12 16.62 11.55 16.62 11V3.75C16.62 3.2 16.18 2.75 15.62 2.75Z" stroke="black" stroke-width="1.5" stroke-linecap="round" stroke-linejoin="round"/>
<path d="M13.76 6.55C13.18 6.25 12.6 5.96 12.02 5.66C11.42 5.96 10.83 6.25 10.23 6.55C10.23 5.28 10.23 4.01 10.23 2.75H13.76V6.55Z" stroke="black" stroke-width="1.5" stroke-linecap="round" stroke-linejoin="round"/>
</svg>
