<svg width="24" height="24" viewBox="0 0 24 24" fill="none" xmlns="http://www.w3.org/2000/svg">
<path d="M8.54001 2.76999C8.41001 2.80999 6.80001 3.63999 5.61001 4.24999C4.79001 4.66999 4.19 5.40999 3.92 6.28999L2.80001 10.04C2.62001 10.64 2.99 11.27 3.6 11.41L6.28 12" stroke="black" stroke-width="1.5" stroke-linecap="round" stroke-linejoin="round"/>
<path d="M12 5.80999C11.54 5.80999 11.02 5.71999 10.49 5.44999C8.87001 4.63999 8.56001 2.92999 8.54001 2.76999" stroke="black" stroke-width="1.5" stroke-linecap="round" stroke-linejoin="round"/>
<path d="M15.46 2.76999C15.59 2.80999 17.2 3.63999 18.39 4.24999C19.21 4.66999 19.81 5.40999 20.08 6.28999L21.2 10.04C21.38 10.64 21.01 11.27 20.4 11.41L17.72 12" stroke="black" stroke-width="1.5" stroke-linecap="round" stroke-linejoin="round"/>
<path d="M12 5.80999C12.46 5.80999 12.98 5.71999 13.51 5.44999C15.13 4.63999 15.44 2.92999 15.46 2.76999" stroke="black" stroke-width="1.5" stroke-linecap="round" stroke-linejoin="round"/>
<path d="M17.69 10.64V18.91C17.69 19.54 17.35 20.11 16.8 20.41C16.52 20.56 16.2 20.71 15.84 20.84C15.84 20.84 15.65 20.91 15.45 20.97C14.12 21.37 9.88001 21.37 8.55001 20.97C8.36001 20.91 8.17001 20.84 8.17001 20.84C7.81001 20.71 7.49001 20.56 7.21001 20.41C6.66001 20.11 6.32001 19.54 6.32001 18.91C6.32001 16.15 6.32001 13.4 6.32001 10.64" stroke="black" stroke-width="1.5" stroke-linecap="round" stroke-linejoin="round"/>
<path d="M8.54001 2.76999H15.46" stroke="black" stroke-width="1.5" stroke-linecap="round" stroke-linejoin="round"/>
</svg>
