<svg width="24" height="24" viewBox="0 0 24 24" fill="none" xmlns="http://www.w3.org/2000/svg">
<path d="M2.64999 8.89C2.56999 8.2 3.00999 7.62 3.55999 7.53C3.95999 7.47 4.38 7.67 4.64 8.04C4.88 8.39 4.80999 8.9 5.08999 9.23C5.45999 9.67 6.31999 9.54 6.80999 9.48C7.58999 9.4 8.16 9.09 8.44 8.91L9.13 7.67C10.62 8.48 12.18 9.28999 13.82 10.09C15.95 11.13 18.01 12.06 20 12.89C20.88 13.19 21.44 14.03 21.35 14.89C21.33 15.09 21.28 15.29 21.19 15.47C20.89 16.12 20.18 16.48 19.46 16.48H5.00999C3.70999 16.48 2.64999 15.42 2.64999 14.12V8.89Z" stroke="black" stroke-width="1.5" stroke-linecap="round" stroke-linejoin="round"/>
<path d="M12.66 10.7L13.78 8.75" stroke="black" stroke-width="1.5" stroke-linecap="round" stroke-linejoin="round"/>
<path d="M14.67 11.86L15.8 9.91" stroke="black" stroke-width="1.5" stroke-linecap="round" stroke-linejoin="round"/>
<path d="M10.71 9.79L11.83 7.84" stroke="black" stroke-width="1.5" stroke-linecap="round" stroke-linejoin="round"/>
<path d="M2.64999 14.12H7.03L8.63 16.48" stroke="black" stroke-width="1.5" stroke-linecap="round" stroke-linejoin="round"/>
</svg>
