<svg width="24" height="24" viewBox="0 0 24 24" fill="none" xmlns="http://www.w3.org/2000/svg">
<path d="M17.16 7.89H6.83001C5.76001 7.89 4.88001 8.7 4.78001 9.77L3.97001 19.02C3.86001 20.22 4.81001 21.26 6.02001 21.26H17.98C19.19 21.26 20.13 20.23 20.03 19.02L19.22 9.77C19.12 8.7 18.23 7.89 17.16 7.89Z" stroke="black" stroke-width="1.5" stroke-linecap="round" stroke-linejoin="round"/>
<path d="M16.11 10.97V6.86C16.11 4.59 14.27 2.75 12 2.75C9.73002 2.75 7.89001 4.59 7.89001 6.86V10.97" stroke="black" stroke-width="1.5" stroke-linecap="round" stroke-linejoin="round"/>
<path d="M15.08 14.8C15.08 15.26 14.9 15.71 14.55 16.06L12.69 17.87C12.29 18.26 11.65 18.26 11.24 17.87L9.51001 16.18C8.73001 15.42 8.68001 14.1 9.53001 13.42C9.86001 13.16 10.27 13.02 10.68 13.02C11.15 13.02 11.61 13.19 11.97 13.54C12.68 12.85 13.84 12.85 14.55 13.54C14.9 13.89 15.08 14.35 15.08 14.8Z" stroke="black" stroke-width="1.5" stroke-linecap="round" stroke-linejoin="round"/>
</svg>
