<svg width="24" height="24" viewBox="0 0 24 24" fill="none" xmlns="http://www.w3.org/2000/svg">
<path d="M12 5.95C12.8505 5.95 13.54 5.23365 13.54 4.35C13.54 3.46634 12.8505 2.75 12 2.75C11.1495 2.75 10.46 3.46634 10.46 4.35C10.46 5.23365 11.1495 5.95 12 5.95Z" stroke="black" stroke-width="1.5" stroke-linecap="round" stroke-linejoin="round"/>
<path d="M4.81 11.26L10.46 5.41" stroke="black" stroke-width="1.5" stroke-linecap="round" stroke-linejoin="round"/>
<path d="M19.11 11.26L13.46 5.41" stroke="black" stroke-width="1.5" stroke-linecap="round" stroke-linejoin="round"/>
<path d="M20.21 11.49L19.68 18.9C19.55 20.24 18.64 21.25 17.57 21.25H6.44C5.37 21.25 4.46 20.24 4.33 18.9L3.67999 11.27" stroke="black" stroke-width="1.5" stroke-linecap="round" stroke-linejoin="round"/>
<path d="M11.94 15.19V17.32" stroke="black" stroke-width="1.5" stroke-linecap="round" stroke-linejoin="round"/>
<path d="M7.83 15.19V17.32" stroke="black" stroke-width="1.5" stroke-linecap="round" stroke-linejoin="round"/>
<path d="M16.05 15.19V17.32" stroke="black" stroke-width="1.5" stroke-linecap="round" stroke-linejoin="round"/>
<path d="M2.75 11.26H21.25" stroke="black" stroke-width="1.5" stroke-linecap="round" stroke-linejoin="round"/>
</svg>
