<svg width="24" height="24" viewBox="0 0 24 24" fill="none" xmlns="http://www.w3.org/2000/svg">
<path d="M13.99 21.25H17.82C18.92 21.25 19.82 20.35 19.82 19.25V8.68C19.82 7.58 18.92 6.68 17.82 6.68H13.99" stroke="black" stroke-width="1.5" stroke-linecap="round" stroke-linejoin="round"/>
<path d="M13.13 8.3V5.52999C13.13 3.99999 11.9 2.75999 10.39 2.75999C8.86999 2.75999 7.64999 3.99999 7.64999 5.52999V8.3" stroke="black" stroke-width="1.5" stroke-linecap="round" stroke-linejoin="round"/>
<path d="M11.28 4.57C11.17 4.87 11.11 5.19 11.11 5.52V6.42" stroke="black" stroke-width="1.5" stroke-linecap="round" stroke-linejoin="round"/>
<path d="M13.3 2.81C12.36 3 11.6 3.68 11.28 4.57" stroke="black" stroke-width="1.5" stroke-linecap="round" stroke-linejoin="round"/>
<path d="M16.6 8.3V5.52999C16.6 3.99999 15.37 2.75999 13.86 2.75999C13.67 2.75999 13.49 2.78 13.31 2.82" stroke="black" stroke-width="1.5" stroke-linecap="round" stroke-linejoin="round"/>
<path d="M8.54001 13.96L10.25 15.7L13.68 12.23" stroke="black" stroke-width="1.5" stroke-linecap="round" stroke-linejoin="round"/>
<path d="M14.6 6.68H6.17C5.07 6.68 4.17 7.58 4.17 8.68V19.25C4.17 20.35 5.07 21.25 6.17 21.25H14.59C15.69 21.25 16.59 20.35 16.59 19.25V8.68C16.6 7.57 15.7 6.68 14.6 6.68Z" stroke="black" stroke-width="1.5" stroke-linecap="round" stroke-linejoin="round"/>
</svg>
