<svg width="24" height="24" viewBox="0 0 24 24" fill="none" xmlns="http://www.w3.org/2000/svg">
<path d="M19.81 12.87L11.13 4.19C9.21 2.27 6.1 2.27 4.19 4.19C2.27 6.11 2.27 9.22 4.19 11.13L12.87 19.81C14.79 21.73 17.9 21.73 19.81 19.81C21.73 17.89 21.73 14.79 19.81 12.87Z" stroke="black" stroke-width="1.5" stroke-linecap="round" stroke-linejoin="round"/>
<path d="M18.9424 11.9979L11.9987 5.05418L5.05498 11.9979L11.9987 18.9416L18.9424 11.9979Z" stroke="black" stroke-width="1.5" stroke-linecap="round" stroke-linejoin="round"/>
<path d="M11.91 13.28C12.5672 13.28 13.1 12.7472 13.1 12.09C13.1 11.4328 12.5672 10.9 11.91 10.9C11.2528 10.9 10.72 11.4328 10.72 12.09C10.72 12.7472 11.2528 13.28 11.91 13.28Z" fill="black"/>
<path d="M8.53 13.28C9.18722 13.28 9.72 12.7472 9.72 12.09C9.72 11.4328 9.18722 10.9 8.53 10.9C7.87278 10.9 7.34 11.4328 7.34 12.09C7.34 12.7472 7.87278 13.28 8.53 13.28Z" fill="black"/>
<path d="M15.47 13.28C16.1272 13.28 16.66 12.7472 16.66 12.09C16.66 11.4328 16.1272 10.9 15.47 10.9C14.8128 10.9 14.28 11.4328 14.28 12.09C14.28 12.7472 14.8128 13.28 15.47 13.28Z" fill="black"/>
<path d="M12 9.81C12.6572 9.81 13.19 9.27722 13.19 8.62C13.19 7.96278 12.6572 7.43 12 7.43C11.3428 7.43 10.81 7.96278 10.81 8.62C10.81 9.27722 11.3428 9.81 12 9.81Z" fill="black"/>
<path d="M12 16.75C12.6572 16.75 13.19 16.2172 13.19 15.56C13.19 14.9028 12.6572 14.37 12 14.37C11.3428 14.37 10.81 14.9028 10.81 15.56C10.81 16.2172 11.3428 16.75 12 16.75Z" fill="black"/>
</svg>
