<svg width="24" height="24" viewBox="0 0 24 24" fill="none" xmlns="http://www.w3.org/2000/svg">
<path d="M18.43 6.91L14.46 12.14L14.31 12.33L13.08 13.96L12 15.4L11.6 15.92L10.37 17.55L7.56001 21.25C7.50001 20.3 7.43001 19.37 7.37001 18.42C6.66001 18.24 5.95001 18.05 5.24001 17.87C6.34001 16.39 7.46001 14.92 8.57001 13.44C8.89001 13.01 9.22001 12.58 9.55001 12.15C9.63001 12.04 9.70001 11.93 9.79001 11.83L11.28 9.85L12 8.88L12.5 8.21L13.8 6.37L16.33 2.75L18.43 6.91Z" stroke="black" stroke-width="1.5" stroke-linecap="round" stroke-linejoin="round"/>
<path d="M12 8.88L11.27 9.85L9.78001 11.83C9.69001 11.94 9.62001 12.05 9.54001 12.15L5.57001 6.91L7.67001 2.75L10.2 6.37L11.49 8.21L12 8.88Z" stroke="black" stroke-width="1.5" stroke-linecap="round" stroke-linejoin="round"/>
<path d="M18.76 17.87C18.04 18.05 17.34 18.24 16.63 18.42C16.57 19.37 16.5 20.3 16.44 21.25L13.62 17.55L12.39 15.92L12 15.4L13.08 13.96L14.31 12.33L14.46 12.14C14.78 12.57 15.11 13.01 15.44 13.44C16.54 14.92 17.66 16.39 18.76 17.87Z" stroke="black" stroke-width="1.5" stroke-linecap="round" stroke-linejoin="round"/>
<path d="M7.79001 2.75H16.21" stroke="black" stroke-width="1.5" stroke-linecap="round" stroke-linejoin="round"/>
</svg>
