<svg width="24" height="24" viewBox="0 0 24 24" fill="none" xmlns="http://www.w3.org/2000/svg">
<path d="M12 8.92V12" stroke="black" stroke-width="1.5" stroke-linecap="round" stroke-linejoin="round"/>
<path d="M13.54 10.46H10.46" stroke="black" stroke-width="1.5" stroke-linecap="round" stroke-linejoin="round"/>
<path d="M16.11 4.29H17.14C18.28 4.29 19.2 5.21 19.2 6.35V19.2C19.2 20.34 18.28 21.26 17.14 21.26H6.86C5.72 21.26 4.8 20.34 4.8 19.2V6.35C4.8 5.21 5.72 4.29 6.86 4.29H8.92" stroke="black" stroke-width="1.5" stroke-linecap="round" stroke-linejoin="round"/>
<path d="M14.06 5.83001H9.95C9.38 5.83001 8.92 5.37 8.92 4.8V3.77C8.92 3.2 9.38 2.74001 9.95 2.74001H14.06C14.63 2.74001 15.09 3.2 15.09 3.77V4.8C15.08 5.37 14.62 5.83001 14.06 5.83001Z" stroke="black" stroke-width="1.5" stroke-linecap="round" stroke-linejoin="round"/>
<path d="M7.89 15.08H16.11" stroke="black" stroke-width="1.5" stroke-linecap="round" stroke-linejoin="round"/>
<path d="M7.89 18.17H16.11" stroke="black" stroke-width="1.5" stroke-linecap="round" stroke-linejoin="round"/>
</svg>
