<svg width="24" height="24" viewBox="0 0 24 24" fill="none" xmlns="http://www.w3.org/2000/svg">
<path d="M12 11.54V15.54" stroke="black" stroke-width="1.5" stroke-linecap="round" stroke-linejoin="round"/>
<path d="M14 13.54H10" stroke="black" stroke-width="1.5" stroke-linecap="round" stroke-linejoin="round"/>
<path d="M18.84 7.34999H15.01C14.29 7.34999 13.62 6.96999 13.25 6.34999L12.6 5.25999C12.23 4.63999 11.56 4.25999 10.84 4.25999H4.81C3.67 4.25999 2.75 5.18 2.75 6.32V9.4L2.75 9.44922C2.75 9.60156 2.75 9.63 2.75 9.75V17.3C2.75 18.63 3.83 19.71 5.16 19.71H18.84C20.17 19.71 21.25 18.63 21.25 17.3V9.75C21.25 8.43 20.17 7.34999 18.84 7.34999Z" stroke="black" stroke-width="1.5" stroke-linecap="round" stroke-linejoin="round"/>
<path d="M18.84 7.35H2.75V17.32C2.75 18.65 3.83 19.73 5.16 19.73H18.84C20.17 19.73 21.25 18.65 21.25 17.32V9.77C21.25 8.43 20.17 7.35 18.84 7.35Z" stroke="black" stroke-width="1.5" stroke-linecap="round" stroke-linejoin="round"/>
</svg>
