<svg width="24" height="24" viewBox="0 0 24 24" fill="none" xmlns="http://www.w3.org/2000/svg">
<path d="M8.53 8.53L15.47 15.47L11.13 19.81C10.18 20.76 8.92 21.24 7.66 21.25C6.4 21.24 5.14 20.76 4.19 19.81C2.27 17.89 2.27 14.79 4.19 12.87L8.53 8.53Z" stroke="black" stroke-width="1.5" stroke-linecap="round" stroke-linejoin="round"/>
<path d="M19.81 4.19C21.73 6.11 21.73 9.21 19.81 11.13L15.47 15.47L8.53 8.53L12.87 4.19C13.82 3.24 15.08 2.76 16.34 2.75C17.6 2.76 18.86 3.24 19.81 4.19Z" stroke="black" stroke-width="1.5" stroke-linecap="round" stroke-linejoin="round"/>
<path d="M15.64 6.49C15.36 6.49 15.09 6.38 14.91 6.18C14.71 5.99 14.61 5.73 14.61 5.46C14.61 5.18 14.71 4.93 14.91 4.73C15.29 4.35 15.98 4.35 16.36 4.73C16.56 4.93 16.67 5.18 16.67 5.46C16.67 5.73 16.56 5.99 16.36 6.18C16.17 6.38 15.91 6.49 15.64 6.49Z" fill="black"/>
<path d="M12.73 8.37L13.45 7.64" stroke="black" stroke-width="1.5" stroke-linecap="round" stroke-linejoin="round"/>
</svg>
