<svg width="24" height="24" viewBox="0 0 24 24" fill="none" xmlns="http://www.w3.org/2000/svg">
<path d="M14.06 12H12L13.03 10.22C13.64 10.58 14.06 11.24 14.06 12Z" fill="black" stroke="black" stroke-width="1.5" stroke-linecap="round" stroke-linejoin="round"/>
<path d="M12 12H9.94C9.94 11.24 10.35 10.58 10.97 10.22L12 12Z" fill="black" stroke="black" stroke-width="1.5" stroke-linecap="round" stroke-linejoin="round"/>
<path d="M13.03 13.78C12.73 13.95 12.37 14.06 12 14.06C11.63 14.06 11.27 13.96 10.97 13.78L12 12L13.03 13.78Z" fill="black" stroke="black" stroke-width="1.5" stroke-linecap="round" stroke-linejoin="round"/>
<path d="M21.25 12H14.06C14.06 11.24 13.65 10.58 13.03 10.22L16.63 3.99C17.25 4.34 17.82 4.77 18.34 5.26C18.41 5.32 18.47 5.38 18.55 5.46C18.77 5.67 18.96 5.88 19.15 6.12C19.24 6.23 19.33 6.35 19.43 6.47C19.79 6.94 20.1 7.45 20.35 7.99C20.48 8.26 20.6 8.53 20.7 8.82C20.75 8.95 20.8 9.1 20.84 9.24C21.11 10.12 21.25 11.04 21.25 12Z" fill="black" stroke="black" stroke-width="1.5" stroke-linecap="round" stroke-linejoin="round"/>
<path d="M16.62 20.01C16.61 20.02 16.6 20.03 16.59 20.03C16.44 20.12 16.27 20.2 16.1 20.29C15.94 20.37 15.77 20.45 15.6 20.53C15.59 20.53 15.58 20.54 15.57 20.54C15.39 20.62 15.2 20.69 15.02 20.76C14.82 20.83 14.64 20.88 14.44 20.93C14.24 20.98 14.06 21.03 13.86 21.07C13.86 21.07 13.86 21.07 13.85 21.07C13.67 21.11 13.47 21.14 13.28 21.16C12.86 21.22 12.43 21.25 12 21.25C11.57 21.25 11.14 21.22 10.72 21.16C10.54 21.14 10.34 21.11 10.15 21.07C10.14 21.07 10.14 21.07 10.14 21.07C9.94001 21.03 9.76 20.98 9.56 20.93C9.36 20.88 9.18001 20.83 8.98001 20.76C8.80001 20.7 8.60999 20.63 8.42999 20.54C8.41999 20.54 8.40999 20.53 8.39999 20.53C8.22999 20.46 8.05999 20.38 7.89999 20.29C7.72999 20.21 7.56 20.13 7.41 20.03C7.4 20.03 7.39 20.02 7.38 20.01L10.98 13.78C11.28 13.95 11.64 14.06 12.01 14.06C12.38 14.06 12.74 13.96 13.04 13.78L16.62 20.01Z" fill="black" stroke="black" stroke-width="1.5" stroke-linecap="round" stroke-linejoin="round"/>
<path d="M10.97 10.22C10.35 10.58 9.94 11.24 9.94 12H2.75C2.75 11.76 2.76 11.53 2.78 11.29C2.8 10.99 2.83 10.7 2.88 10.43C2.88 10.42 2.89001 10.4 2.89001 10.39C2.92001 10.24 2.94001 10.09 2.98001 9.94C2.98001 9.92 2.97999 9.91 2.98999 9.9C3.03999 9.67 3.09 9.47 3.16 9.25C3.2 9.11 3.24999 8.96 3.29999 8.83C3.39999 8.54 3.51999 8.26 3.64999 8C3.75999 7.76 3.88001 7.54 4.01001 7.32L4.01999 7.31C4.06999 7.22 4.13 7.13 4.19 7.03C4.3 6.83 4.44001 6.65 4.57001 6.48C4.66001 6.36 4.75001 6.24 4.85001 6.13C5.03001 5.89 5.23001 5.68 5.45001 5.47C5.52001 5.4 5.58 5.34 5.66 5.27C6.17 4.78 6.75 4.34 7.37 4L10.97 10.22Z" fill="black" stroke="black" stroke-width="1.5" stroke-linecap="round" stroke-linejoin="round"/>
<path d="M21.25 12C21.25 15.42 19.39 18.41 16.63 20.01L13.03 13.78C12.73 13.95 12.37 14.06 12 14.06C11.63 14.06 11.27 13.96 10.97 13.78L7.37 20.01C4.61 18.42 2.75 15.43 2.75 12H9.94C9.94 11.24 10.35 10.58 10.97 10.22L7.37 3.99C8.73 3.2 10.31 2.75 11.99 2.75C13.67 2.75 15.26 3.2 16.61 3.99L13.01 10.22C13.63 10.58 14.04 11.24 14.04 12H21.25V12Z" stroke="black" stroke-width="1.5" stroke-linecap="round" stroke-linejoin="round"/>
<path d="M14.06 12C14.06 12.76 13.65 13.42 13.03 13.78C12.73 13.95 12.37 14.06 12 14.06C11.63 14.06 11.27 13.96 10.97 13.78C10.35 13.42 9.94 12.76 9.94 12C9.94 11.24 10.35 10.58 10.97 10.22C11.27 10.05 11.63 9.94 12 9.94C12.37 9.94 12.73 10.04 13.03 10.22C13.64 10.58 14.06 11.24 14.06 12Z" fill="white" stroke="black" stroke-width="1.5" stroke-linecap="round" stroke-linejoin="round"/>
</svg>
