<svg width="24" height="24" viewBox="0 0 24 24" fill="none" xmlns="http://www.w3.org/2000/svg">
<path d="M13.56 12C13.562 12.309 13.4722 12.6115 13.302 12.8694C13.1318 13.1272 12.8888 13.3288 12.6039 13.4484C12.3191 13.568 12.0051 13.6003 11.7018 13.5412C11.3986 13.4822 11.1197 13.3344 10.9005 13.1166C10.6813 12.8989 10.5318 12.6209 10.4707 12.318C10.4097 12.0152 10.44 11.701 10.5578 11.4153C10.6756 11.1297 10.8755 10.8855 11.1323 10.7136C11.389 10.5418 11.691 10.45 12 10.45C12.2044 10.4487 12.407 10.4878 12.5962 10.5651C12.7854 10.6424 12.9575 10.7564 13.1025 10.9004C13.2475 11.0445 13.3625 11.2158 13.4411 11.4045C13.5196 11.5932 13.56 11.7956 13.56 12Z" fill="black"/>
<path d="M18.26 2H5.76C5.2667 1.99868 4.77799 2.09471 4.32187 2.28257C3.86574 2.47044 3.45116 2.74646 3.10188 3.09481C2.7526 3.44316 2.47549 3.857 2.28641 4.31262C2.09733 4.76825 2 5.2567 2 5.75L2 18.25C2 18.7433 2.09733 19.2318 2.28641 19.6874C2.47549 20.143 2.7526 20.5568 3.10188 20.9052C3.45116 21.2535 3.86574 21.5296 4.32187 21.7174C4.77799 21.9053 5.2667 22.0013 5.76 22H18.26C19.252 21.9947 20.2017 21.5976 20.9023 20.8952C21.6028 20.1928 21.9974 19.242 22 18.25V5.75C21.9974 4.75797 21.6028 3.80718 20.9023 3.10478C20.2017 2.40237 19.252 2.00527 18.26 2ZM19.66 12.77C19.6942 13.4541 19.4933 14.1294 19.0907 14.6835C18.688 15.2376 18.1079 15.6373 17.4466 15.816C16.7854 15.9948 16.0829 15.9419 15.4558 15.6661C14.8288 15.3903 14.3151 14.9082 14 14.3C13.5739 14.6716 13.0529 14.9174 12.4952 15.0101C11.9374 15.1027 11.3649 15.0385 10.8416 14.8246C10.3182 14.6108 9.8646 14.2556 9.53139 13.7989C9.19818 13.3421 8.99848 12.8018 8.95459 12.2381C8.9107 11.6744 9.02434 11.1096 9.28283 10.6068C9.54132 10.104 9.93449 9.68293 10.4184 9.39061C10.9024 9.09829 11.458 8.94624 12.0234 8.95143C12.5887 8.95662 13.1415 9.11885 13.62 9.42C13.6832 9.2556 13.8022 9.11868 13.9562 9.03324C14.1102 8.94779 14.2894 8.91926 14.4623 8.95265C14.6352 8.98604 14.7909 9.07923 14.902 9.21587C15.0131 9.35251 15.0726 9.5239 15.07 9.7V12.77C15.07 13.1811 15.2333 13.5753 15.524 13.866C15.8147 14.1567 16.2089 14.32 16.62 14.32C17.0311 14.32 17.4253 14.1567 17.716 13.866C18.0067 13.5753 18.17 13.1811 18.17 12.77V12C18.172 10.7817 17.8126 9.59011 17.1374 8.57601C16.4622 7.5619 15.5014 6.7708 14.3766 6.30274C13.2517 5.83468 12.0134 5.71068 10.8181 5.94643C9.62275 6.18217 8.5242 6.76707 7.66131 7.62716C6.79842 8.48725 6.20995 9.58391 5.97033 10.7784C5.73071 11.973 5.85068 13.2117 6.31509 14.3381C6.7795 15.4644 7.56747 16.4278 8.57938 17.1063C9.59129 17.7848 10.7817 18.148 12 18.15C12.6985 18.1535 13.3922 18.0351 14.05 17.8C14.2383 17.7337 14.4452 17.7449 14.6253 17.8312C14.8053 17.9174 14.9437 18.0717 15.01 18.26C15.0763 18.4483 15.0651 18.6552 14.9788 18.8353C14.8926 19.0153 14.7383 19.1537 14.55 19.22C13.0188 19.759 11.3558 19.7969 9.80166 19.3283C8.24748 18.8597 6.88264 17.9089 5.90456 16.6133C4.92648 15.3178 4.38587 13.7447 4.36091 12.1216C4.33594 10.4985 4.82793 8.90955 5.76571 7.58455C6.70349 6.25954 8.03845 5.26719 9.57748 4.75103C11.1165 4.23486 12.7799 4.22164 14.3269 4.71327C15.874 5.20491 17.2245 6.17591 18.1832 7.48584C19.142 8.79577 19.6592 10.3767 19.66 12V12.77Z" fill="black"/>
</svg>
