<svg width="24" height="24" viewBox="0 0 24 24" fill="none" xmlns="http://www.w3.org/2000/svg">
<path d="M15.1 20.7C14.1 21 13.1 21.2 12 21.2C6.9 21.2 2.8 17.1 2.8 11.9C2.8 6.8 6.9 2.7 12.1 2.7C17.2 2.7 21.3 6.8 21.3 12C21.3 12.6 21.3 13 21.3 13C21.3 14.7 19.9 16.1 18.2 16.1C16.5 16.1 15.1 14.7 15.1 13V8.9" stroke="black" stroke-width="1.5" stroke-linecap="round" stroke-linejoin="round"/>
<path d="M12 15.1C10.2 15.1 8.90001 13.7 8.90001 12.1V12C8.90001 10.3 10.3 9 11.9 9H12C13.7 9 15 10.4 15 12C15.1 13.7 13.7 15.1 12 15.1Z" stroke="black" stroke-width="1.5" stroke-linecap="round" stroke-linejoin="round"/>
</svg>
