<svg width="24" height="24" viewBox="0 0 24 24" fill="none" xmlns="http://www.w3.org/2000/svg">
<path d="M12 21.25C17.1086 21.25 21.25 17.1086 21.25 12C21.25 6.89137 17.1086 2.75 12 2.75C6.89137 2.75 2.75 6.89137 2.75 12C2.75 17.1086 6.89137 21.25 12 21.25Z" stroke="black" stroke-width="1.5" stroke-linecap="round" stroke-linejoin="round"/>
<path d="M13.54 6.89001C13.54 7.72001 12.86 8.40997 12.02 8.40997C11.14 8.40997 10.46 7.72001 10.46 6.89001C10.46 6.05001 11.14 5.33002 12.02 5.33002C12.86 5.33002 13.54 6.05001 13.54 6.89001Z" fill="black"/>
<path d="M8.07001 9.58002C9.00001 9.80002 10.35 10.04 12 10.04C12.97 10.04 14.35 9.96002 15.93 9.58002" stroke="black" stroke-width="1.5" stroke-linecap="round" stroke-linejoin="round"/>
<path d="M9.73999 17.45C10.14 16.69 10.56 15.75 10.91 14.66C11.38 13.18 11.58 11.84 11.65 10.78" stroke="black" stroke-width="1.5" stroke-linecap="round" stroke-linejoin="round"/>
<path d="M14.26 17.45C13.86 16.69 13.44 15.75 13.09 14.66C12.62 13.18 12.42 11.84 12.35 10.78" stroke="black" stroke-width="1.5" stroke-linecap="round" stroke-linejoin="round"/>
</svg>
