<svg width="24" height="24" viewBox="0 0 24 24" fill="none" xmlns="http://www.w3.org/2000/svg">
<path d="M15.84 2H7.73001C5.86001 2 4.29999 3.32 3.92999 5.08H3.56C3.15 5.08 2.81 5.42 2.81 5.83C2.81 6.25 3.15 6.58 3.56 6.58H3.84V11.25H3.56C3.15 11.25 2.81 11.59 2.81 12C2.81 12.41 3.15 12.75 3.56 12.75H3.84V17.42H3.56C3.15 17.42 2.81 17.75 2.81 18.17C2.81 18.58 3.15 18.92 3.56 18.92H3.92999C4.29999 20.68 5.86001 22 7.73001 22H15.84C17.98 22 19.73 20.25 19.73 18.11V5.89C19.73 3.75 17.98 2 15.84 2ZM14.78 17.89H8.78C8.37 17.89 8.03 17.55 8.03 17.14C8.03 16.72 8.37 16.39 8.78 16.39H14.78C15.2 16.39 15.53 16.72 15.53 17.14C15.53 17.55 15.2 17.89 14.78 17.89ZM14.78 14.81H8.78C8.37 14.81 8.03 14.47 8.03 14.06C8.03 13.64 8.37 13.31 8.78 13.31H14.78C15.2 13.31 15.53 13.64 15.53 14.06C15.53 14.47 15.2 14.81 14.78 14.81ZM15.53 8.68C15.53 9.24 15.08 9.68 14.53 9.68H9.03C8.48 9.68 8.03 9.24 8.03 8.68V7.08C8.03 6.53 8.48 6.08 9.03 6.08H14.53C15.08 6.08 15.53 6.53 15.53 7.08V8.68Z" fill="black"/>
</svg>
