<svg width="24" height="24" viewBox="0 0 24 24" fill="none" xmlns="http://www.w3.org/2000/svg">
<path d="M15.09 10.69H8.92001C7.90001 10.69 7.02001 10.03 6.71001 9.11002H2.01001V16.58C2.01001 19.26 4.19001 21.44 6.87001 21.44H17.14C19.82 21.44 22.01 19.26 22.01 16.58V9.11002H17.3C16.98 10.03 16.11 10.69 15.09 10.69ZM12.01 17.09C11.44 17.09 10.97 16.63 10.97 16.06C10.97 15.5 11.43 15.04 12 15.04H12.01C12.58 15.04 13.04 15.5 13.04 16.06C13.04 16.63 12.58 17.09 12.01 17.09Z" fill="black"/>
<path d="M17.14 1.44H6.87001C4.19001 1.44 2.01001 3.61999 2.01001 6.29999V7.61002H3.51001H20.51H22.01V6.29999C22.01 3.61999 19.82 1.44 17.14 1.44Z" fill="black"/>
</svg>
