<svg width="24" height="24" viewBox="0 0 24 24" fill="none" xmlns="http://www.w3.org/2000/svg">
<path d="M3.05 10.67C8.73 10.67 13.33 15.27 13.33 20.95" stroke="black" stroke-width="1.5" stroke-linecap="round" stroke-linejoin="round"/>
<path d="M3.53999 15.32C6.37999 15.32 8.67999 17.62 8.67999 20.46" stroke="black" stroke-width="1.5" stroke-linecap="round" stroke-linejoin="round"/>
<path d="M3.54 22C4.39052 22 5.08 21.3105 5.08 20.46C5.08 19.6095 4.39052 18.92 3.54 18.92C2.68948 18.92 2 19.6095 2 20.46C2 21.3105 2.68948 22 3.54 22Z" fill="black"/>
<path d="M2.75 7.98999V5.75C2.75 4.09 4.09 2.75 5.75 2.75H18.25C19.91 2.75 21.25 4.09 21.25 5.75V18.25C21.25 19.91 19.91 21.25 18.25 21.25H16.01" stroke="black" stroke-width="1.5" stroke-linecap="round" stroke-linejoin="round"/>
</svg>
