<svg width="24" height="24" viewBox="0 0 24 24" fill="none" xmlns="http://www.w3.org/2000/svg">
<path d="M17.14 2.75H6.86C4.59011 2.75 2.75 4.59011 2.75 6.86V17.14C2.75 19.4099 4.59011 21.25 6.86 21.25H17.14C19.4099 21.25 21.25 19.4099 21.25 17.14V6.86C21.25 4.59011 19.4099 2.75 17.14 2.75Z" stroke="black" stroke-width="1.5" stroke-linecap="round" stroke-linejoin="round"/>
<path d="M20.88 8.92H3.12" stroke="black" stroke-width="1.5" stroke-linecap="round" stroke-linejoin="round"/>
<path d="M5.83 8.92H18.17C18.17 9.32531 18.09 9.72664 17.9346 10.101C17.7792 10.4753 17.5514 10.8153 17.2644 11.1014C16.9773 11.3876 16.6366 11.6142 16.2617 11.7684C15.8869 11.9226 15.4853 12.0013 15.08 12H8.92C8.51469 12.0013 8.1131 11.9226 7.73827 11.7684C7.36343 11.6142 7.02271 11.3876 6.73565 11.1014C6.44858 10.8153 6.22082 10.4753 6.06541 10.101C5.91 9.72664 5.83 9.32531 5.83 8.92V8.92Z" stroke="black" stroke-width="1.5" stroke-linecap="round" stroke-linejoin="round"/>
<path d="M12 17.65C11.7282 17.65 11.4674 17.542 11.2752 17.3498C11.083 17.1576 10.975 16.8969 10.975 16.625C10.975 16.3532 11.083 16.0924 11.2752 15.9002C11.4674 15.708 11.7282 15.6 12 15.6C12.2719 15.6 12.5326 15.708 12.7248 15.9002C12.917 16.0924 13.025 16.3532 13.025 16.625C13.025 16.8969 12.917 17.1576 12.7248 17.3498C12.5326 17.542 12.2719 17.65 12 17.65Z" fill="black"/>
</svg>
