<svg width="24" height="24" viewBox="0 0 24 24" fill="none" xmlns="http://www.w3.org/2000/svg">
<path d="M19.19 3.64H4.8C3.25 3.64 2 4.9 2 6.45V13.64C2 15.19 3.25 16.45 4.8 16.45H6.89999L7.91 14.95H4.8C4.08 14.95 3.5 14.36 3.5 13.64V6.45C3.5 5.73 4.08 5.14 4.8 5.14H19.19C19.91 5.14 20.5 5.73 20.5 6.45V13.64C20.5 14.36 19.91 14.95 19.19 14.95H16.08L17.09 16.45H19.19C20.74 16.45 22 15.19 22 13.64V6.45C22 4.9 20.74 3.64 19.19 3.64Z" fill="black"/>
<path d="M15.88 16.45L14.87 14.95L13.67 13.16C13.29 12.61 12.67 12.27 12 12.27C11.32 12.27 10.7 12.61 10.32 13.16L9.12002 14.95L8.11002 16.45L7.59002 17.22C7.17002 17.84 7.13002 18.63 7.48002 19.29C7.83002 19.95 8.51002 20.36 9.26002 20.36H14.73C15.47 20.36 16.16 19.95 16.51 19.29C16.86 18.63 16.82 17.84 16.4 17.22L15.88 16.45Z" fill="black"/>
</svg>
