<svg width="24" height="24" viewBox="0 0 24 24" fill="none" xmlns="http://www.w3.org/2000/svg">
<path d="M18.17 10.97V15.08H18.63C19.34 15.08 20.01 15.54 20.18 16.23C20.43 17.25 19.67 18.17 18.69 18.17H8.92999" stroke="black" stroke-width="1.5" stroke-linecap="round" stroke-linejoin="round"/>
<path d="M3.87 17.14C3.81 16.98 3.78 16.81 3.78 16.63C3.78 15.78 4.47001 15.09 5.32001 15.09H5.82999V9.95C5.82999 6.55 8.59 3.78 12 3.78C13.7 3.78 15.24 4.47 16.36 5.59C16.74 5.97 17.07 6.4 17.34 6.86" stroke="black" stroke-width="1.5" stroke-linecap="round" stroke-linejoin="round"/>
<path d="M12 3.78V2.75" stroke="black" stroke-width="1.5" stroke-linecap="round" stroke-linejoin="round"/>
<path d="M15.08 18.17C15.08 19.88 13.7 21.25 12 21.25C10.3 21.25 8.92001 19.87 8.92001 18.17H15.08Z" stroke="black" stroke-width="1.5" stroke-linecap="round" stroke-linejoin="round"/>
<path d="M2.75 19.19L21.25 4.81" stroke="black" stroke-width="1.5" stroke-linecap="round" stroke-linejoin="round"/>
</svg>
