<svg width="24" height="24" viewBox="0 0 24 24" fill="none" xmlns="http://www.w3.org/2000/svg">
<path d="M19.09 14.65V10.14C19.09 8.24 18.35 6.46 17.01 5.14C15.85 3.98 14.37 3.27001 12.77 3.10001V2.77C12.77 2.35 12.42 2 12 2C11.58 2 11.23 2.35 11.23 2.77V3.10001C7.67999 3.49001 4.89999 6.49 4.89999 10.14V14.65C3.71999 14.77 2.79999 15.78 2.79999 16.99C2.79999 18.29 3.85999 19.35 5.14999 19.35H18.85C20.14 19.35 21.2 18.29 21.2 16.99C21.2 15.78 20.27 14.77 19.09 14.65ZM14.11 14.6H9.88999C9.57999 14.6 9.30999 14.42 9.17999 14.13C9.06999 13.84 9.12999 13.51 9.33999 13.29L12.25 10.39H9.88999C9.46999 10.39 9.11999 10.04 9.11999 9.62C9.11999 9.2 9.46999 8.85001 9.88999 8.85001H14.11C14.42 8.85001 14.69 9.03001 14.82 9.32001C14.93 9.61001 14.87 9.95 14.66 10.16L11.76 13.06H14.12C14.54 13.06 14.89 13.41 14.89 13.83C14.88 14.26 14.53 14.6 14.11 14.6Z" fill="black"/>
<path d="M9.16998 20.37H14.84C14.27 21.35 13.22 22 12 22C10.78 22 9.72998 21.35 9.16998 20.37Z" fill="black"/>
</svg>
