<svg width="24" height="24" viewBox="0 0 24 24" fill="none" xmlns="http://www.w3.org/2000/svg">
<path d="M20.19 2C19.78 2 19.44 2.34 19.44 2.75V21.25C19.44 21.66 19.78 22 20.19 22C20.6 22 20.94 21.66 20.94 21.25V2.75C20.94 2.34 20.61 2 20.19 2Z" fill="black"/>
<path d="M17.1199 4.04999H10.95C9.98995 4.04999 9.19995 4.83999 9.19995 5.79999V9.53998C9.19995 10.5 9.98995 11.29 10.95 11.29H17.1199C17.5299 11.29 17.8699 10.95 17.8699 10.54V4.79999C17.8699 4.37999 17.5399 4.04999 17.1199 4.04999Z" fill="black"/>
<path d="M17.12 12.65H4.79999C3.83999 12.65 3.04999 13.44 3.04999 14.4V18.14C3.04999 19.1 3.83999 19.89 4.79999 19.89H17.12C17.53 19.89 17.87 19.55 17.87 19.14V13.4C17.87 12.99 17.54 12.65 17.12 12.65Z" fill="black"/>
</svg>
