<svg width="24" height="24" viewBox="0 0 24 24" fill="none" xmlns="http://www.w3.org/2000/svg">
<path d="M18.17 12.65H12.75V11.29H15.1C16.06 11.29 16.85 10.5 16.85 9.53998V5.79999C16.85 4.82999 16.06 4.04999 15.1 4.04999H12.75V2.75C12.75 2.34 12.41 2 12 2C11.59 2 11.25 2.34 11.25 2.75V4.04999H8.90001C7.94001 4.04999 7.15001 4.82999 7.15001 5.79999V9.53998C7.15001 10.5 7.94001 11.29 8.90001 11.29H11.25V12.65H5.83002C4.87002 12.65 4.08002 13.44 4.08002 14.4V18.14C4.08002 19.1 4.87002 19.89 5.83002 19.89H11.25V21.25C11.25 21.66 11.59 22 12 22C12.41 22 12.75 21.66 12.75 21.25V19.89H18.17C19.14 19.89 19.92 19.1 19.92 18.14V14.4C19.92 13.44 19.14 12.65 18.17 12.65Z" fill="black"/>
</svg>
