<svg width="24" height="24" viewBox="0 0 24 24" fill="none" xmlns="http://www.w3.org/2000/svg">
<path d="M11.44 9.72L10.08 12.96H13.92L12.57 9.72H11.44Z" fill="black"/>
<path d="M17.14 2H6.85999C4.17999 2 2 4.18 2 6.86V17.14C2 19.82 4.17999 22 6.85999 22H17.14C19.82 22 22 19.82 22 17.14V6.86C22 4.18 19.82 2 17.14 2ZM15.89 15.72C15.79 15.76 15.69 15.78 15.6 15.78C15.3 15.78 15.03 15.6 14.91 15.32L14.55 14.46H9.45001L9.09 15.32C8.93 15.7 8.48999 15.88 8.10999 15.72C7.72999 15.56 7.54999 15.12 7.70999 14.74L10.25 8.67999C10.36 8.39999 10.63 8.22 10.94 8.22H13.06C13.37 8.22 13.64 8.39999 13.76 8.67999L15.73 13.41C15.74 13.42 15.74 13.42 15.74 13.42L16.29 14.74C16.45 15.12 16.27 15.56 15.89 15.72Z" fill="black"/>
</svg>
