<svg width="24" height="24" viewBox="0 0 24 24" fill="none" xmlns="http://www.w3.org/2000/svg">
<path d="M10.63 12.63H13.37L12 9.54999L10.63 12.63Z" fill="black"/>
<path d="M18.75 4.16L13.32 2.23C12.47 1.92 11.53 1.92 10.68 2.23L5.25 4.16C3.51 4.78 2.44 6.49 2.65 8.33L3.54 15.98C3.69 17.24 4.43 18.36 5.54 18.97L10.08 21.5C10.68 21.84 11.34 22 12 22C12.66 22 13.32 21.84 13.92 21.5L18.46 18.97C19.57 18.36 20.31 17.24 20.46 15.98L21.35 8.33C21.56 6.49 20.49 4.78 18.75 4.16ZM15.56 15.71C15.46 15.76 15.35 15.78 15.25 15.78C14.97 15.78 14.69 15.61 14.57 15.33L14.03 14.13H9.97L9.43 15.33C9.27 15.71 8.82 15.88 8.44 15.71C8.07 15.55 7.89 15.1 8.06 14.72L11.32 7.39C11.44 7.12 11.7 6.95 12 6.95C12.3 6.95 12.57 7.12 12.69 7.39L15.94 14.72C16.11 15.1 15.94 15.55 15.56 15.71Z" fill="black"/>
</svg>
