<svg width="24" height="24" viewBox="0 0 24 24" fill="none" xmlns="http://www.w3.org/2000/svg">
<path d="M16.73 13.33C16.73 11.94 17.37 10.93 18.61 10.14C17.9 9.12998 16.85 8.59999 15.46 8.48999C14.11 8.37999 12.65 9.23999 12.12 9.23999C11.56 9.23999 10.28 8.52998 9.27 8.52998C7.17 8.56998 4.96001 10.18 4.96001 13.52C4.96001 14.5 5.11001 15.51 5.49001 16.56C5.98001 17.95 7.7 21.32 9.5 21.25C10.44 21.25 11.11 20.57 12.35 20.57C13.55 20.57 14.15 21.25 15.2 21.25C17.04 21.25 18.61 18.17 19.06 16.79C16.61 15.62 16.73 13.41 16.73 13.33Z" stroke="black" stroke-width="1.5" stroke-linecap="round" stroke-linejoin="round"/>
<path d="M14.44 5.64997C15.2 4.88997 15.43 3.45998 14.8 2.94998C14.23 2.47998 13.07 2.89998 12.45 3.55998C11.78 4.27998 11.47 5.58999 12.06 6.12999C12.62 6.62999 13.81 6.28997 14.44 5.64997Z" stroke="black" stroke-width="1.5" stroke-linecap="round" stroke-linejoin="round"/>
</svg>
