<svg width="24" height="24" viewBox="0 0 24 24" fill="none" xmlns="http://www.w3.org/2000/svg">
<path d="M12.8 7.12C13.57 7.12 14.42 6.74 14.98 6.18C15.59 5.57 15.96 4.61001 15.91 3.75001C15.88 3.17001 15.66 2.68 15.28 2.37C14.35 1.61 12.79 2.11 11.91 3.04C11.33 3.66 10.97 4.58001 11 5.38001C11.03 5.92001 11.22 6.37 11.56 6.68C11.9 6.99 12.33 7.12 12.8 7.12Z" fill="black"/>
<path d="M19.38 16.11C17.53 15.23 17.47 13.67 17.48 13.36C17.48 13.36 17.48 13.34 17.48 13.33C17.48 12.24 17.95 11.45 19 10.78C19.18 10.67 19.3 10.49 19.34 10.29C19.38 10.09 19.33 9.88001 19.21 9.71001C18.39 8.54001 17.14 7.88 15.51 7.75C14.48 7.66 13.48 8.03 12.74 8.29C12.51 8.37 12.2 8.49 12.11 8.5C11.99 8.49 11.61 8.36 11.33 8.26C10.72 8.05 9.97002 7.78 9.25002 7.78C8.00002 7.8 6.73001 8.31 5.78001 9.28C4.84001 10.24 4.20001 11.66 4.20001 13.52C4.20001 14.67 4.39002 15.74 4.77002 16.81C4.79002 16.86 6.67001 22 9.40001 22C9.99001 22 10.5 21.83 10.98 21.65C11.41 21.48 11.82 21.32 12.34 21.32C12.82 21.32 13.17 21.46 13.59 21.63C14.03 21.8 14.54 22 15.19 22C17.62 22 19.32 18.4 19.77 17.02C19.88 16.66 19.71 16.27 19.38 16.11Z" fill="black"/>
</svg>
