<svg width="24" height="24" viewBox="0 0 24 24" fill="none" xmlns="http://www.w3.org/2000/svg">
<path d="M7.89001 12.92C8.90001 12.92 9.82002 13.49 10.34 14.45C10.66 15.04 11.3 15.4 12 15.4C12.69 15.4 13.33 15.04 13.65 14.45C14.17 13.49 15.09 12.92 16.1 12.92H20.09H21.6L20.63 4.06C20.44 2.26 18.87 0.859985 17.07 0.859985H6.92001C5.12001 0.859985 3.55002 2.26 3.36002 4.06L2.39001 12.92H3.90002H7.89001Z" fill="black"/>
<path d="M21.98 16.3L21.77 14.42H20.26H16.11C15.66 14.42 15.23 14.7 14.98 15.17C14.39 16.24 13.25 16.9 12.01 16.9C10.76 16.9 9.62001 16.24 9.04001 15.17C8.78001 14.7 8.35001 14.42 7.90001 14.42H3.74001H2.24001L2.03001 16.3C1.89001 17.59 2.26001 18.84 3.05001 19.71C3.71001 20.45 4.61001 20.86 5.58001 20.86H18.43C19.4 20.86 20.3 20.45 20.96 19.71C21.74 18.84 22.11 17.59 21.98 16.3Z" fill="black"/>
</svg>
