<svg width="24" height="24" viewBox="0 0 24 24" fill="none" xmlns="http://www.w3.org/2000/svg">
<path d="M9.09 14.91L14.91 9.09" stroke="black" stroke-width="1.5" stroke-linecap="round" stroke-linejoin="round"/>
<path d="M13.46 14.9H9.10001" stroke="black" stroke-width="1.5" stroke-linecap="round" stroke-linejoin="round"/>
<path d="M9.10001 10.54V14.9" stroke="black" stroke-width="1.5" stroke-linecap="round" stroke-linejoin="round"/>
<path d="M21.25 12C21.25 13.21 21.01 14.42 20.55 15.54C20.09 16.66 19.4 17.68 18.54 18.54C17.68 19.4 16.66 20.08 15.54 20.55C14.42 21.01 13.21 21.25 12 21.25C10.79 21.25 9.58001 21.01 8.46001 20.55C7.34001 20.09 6.32001 19.4 5.46001 18.54C4.60001 17.68 3.92 16.66 3.45 15.54C2.99 14.42 2.75 13.21 2.75 12C2.75 9.55 3.72001 7.19001 5.46001 5.46001C7.19001 3.73001 9.55 2.75 12 2.75C14.45 2.75 16.81 3.72001 18.54 5.46001C20.28 7.19001 21.25 9.55 21.25 12Z" stroke="black" stroke-width="1.5" stroke-linecap="round" stroke-linejoin="round"/>
</svg>
