<svg width="24" height="24" viewBox="0 0 24 24" fill="none" xmlns="http://www.w3.org/2000/svg">
<path d="M12.13 2H11.87C6.43 2 2 6.43 2 11.87V12.13C2 17.57 6.43 22 11.87 22H12.13C17.57 22 22 17.57 22 12.13V11.87C22 6.43 17.57 2 12.13 2ZM15.62 12.53L13.16 15C13.01 15.14 12.82 15.22 12.63 15.22C12.44 15.22 12.24 15.14 12.1 15C11.8 14.7 11.8 14.23 12.1 13.94L13.28 12.75H8.91C8.49 12.75 8.16 12.41 8.16 12C8.16 11.59 8.49 11.25 8.91 11.25H13.28L12.1 10.06C11.8 9.77 11.8 9.3 12.1 9C12.39 8.71 12.86 8.71 13.16 9L15.62 11.47C15.92 11.76 15.92 12.24 15.62 12.53Z" fill="black"/>
</svg>
