<svg width="24" height="24" viewBox="0 0 24 24" fill="none" xmlns="http://www.w3.org/2000/svg">
<path d="M12.13 2H11.87C6.43 2 2 6.43 2 11.87V12.13C2 17.57 6.43 22 11.87 22H12.13C17.57 22 22 17.57 22 12.13V11.87C22 6.43 17.57 2 12.13 2ZM11.5 13.56L9.7 15.36H10.35C10.76 15.36 11.1 15.7 11.1 16.11C11.1 16.53 10.76 16.86 10.35 16.86H7.89C7.48 16.86 7.14 16.53 7.14 16.11V13.65C7.14 13.24 7.48 12.9 7.89 12.9C8.3 12.9 8.64 13.24 8.64 13.65V14.3L10.44 12.5C10.74 12.2 11.21 12.2 11.5 12.5C11.8 12.79 11.8 13.27 11.5 13.56ZM16.86 10.35C16.86 10.76 16.53 11.1 16.11 11.1C15.7 11.1 15.36 10.76 15.36 10.35V9.7L13.56 11.5C13.41 11.65 13.22 11.72 13.03 11.72C12.84 11.72 12.65 11.65 12.5 11.5C12.21 11.21 12.21 10.73 12.5 10.44L14.3 8.64H13.65C13.24 8.64 12.9 8.3 12.9 7.89C12.9 7.47 13.24 7.14 13.65 7.14H16.11C16.53 7.14 16.86 7.47 16.86 7.89V10.35Z" fill="black"/>
</svg>
