<svg width="24" height="24" viewBox="0 0 24 24" fill="none" xmlns="http://www.w3.org/2000/svg">
<path d="M12.13 2H11.87C6.43 2 2 6.43 2 11.87V12.13C2 17.57 6.43 22 11.87 22H12.13C17.57 22 22 17.57 22 12.13V11.87C22 6.43 17.57 2 12.13 2ZM15.09 12.75H10.72L11.9 13.94C12.2 14.23 12.2 14.7 11.9 15C11.76 15.14 11.57 15.22 11.37 15.22C11.18 15.22 10.99 15.14 10.84 15L8.38 12.53C8.09 12.24 8.09 11.76 8.38 11.47L10.84 9C11.14 8.71 11.61 8.71 11.9 9C12.2 9.3 12.2 9.77 11.9 10.06L10.72 11.25H15.09C15.51 11.25 15.84 11.59 15.84 12C15.84 12.41 15.51 12.75 15.09 12.75Z" fill="black"/>
</svg>
