<svg width="24" height="24" viewBox="0 0 24 24" fill="none" xmlns="http://www.w3.org/2000/svg">
<path fill-rule="evenodd" clip-rule="evenodd" d="M22 18.25L22 5.75C22 3.67893 20.3211 2 18.25 2L5.75 2C3.67893 2 2 3.67893 2 5.75L2 18.25C2 20.3211 3.67893 22 5.75 22L18.25 22C20.3211 22 22 20.3211 22 18.25ZM15.6883 13.8185C15.9929 14.0993 16.0122 14.5737 15.7315 14.8783L12.5577 18.3215C12.5478 18.3325 12.5376 18.3432 12.5269 18.3537C12.3818 18.4973 12.1912 18.57 12 18.57C11.8877 18.57 11.7753 18.545 11.6717 18.4945C11.5999 18.4596 11.5327 18.4126 11.4731 18.3537C11.4624 18.3432 11.4521 18.3325 11.4422 18.3215L8.26853 14.8783C7.9878 14.5737 8.00712 14.0993 8.31169 13.8185C8.61626 13.5378 9.09074 13.5571 9.37147 13.8617L12 16.7134L14.6285 13.8617C14.9093 13.5571 15.3837 13.5378 15.6883 13.8185ZM15.6883 10.1815C15.3837 10.4622 14.9093 10.4429 14.6285 10.1383L12 7.2866L9.37147 10.1383C9.09074 10.4429 8.61626 10.4622 8.31169 10.1815C8.00712 9.90073 7.9878 9.42625 8.26853 9.12168L11.4423 5.67841C11.4522 5.66746 11.4624 5.65674 11.4731 5.64626C11.5327 5.58735 11.5999 5.54037 11.6717 5.50545C11.8792 5.40434 12.1225 5.40533 12.3283 5.50545C12.4001 5.54037 12.4673 5.58735 12.5269 5.64626C12.5375 5.65674 12.5478 5.66746 12.5577 5.67841L15.7315 9.12168C16.0122 9.42625 15.9929 9.90073 15.6883 10.1815Z" fill="black"/>
</svg>
