<svg width="24" height="24" viewBox="0 0 24 24" fill="none" xmlns="http://www.w3.org/2000/svg">
<path d="M12.13 2H11.87C6.43 2 2 6.43 2 11.87V12.13C2 17.57 6.43 22 11.87 22H12.13C17.57 22 22 17.57 22 12.13V11.87C22 6.43 17.57 2 12.13 2ZM15 13.16L12.53 15.62C12.38 15.77 12.19 15.84 12 15.84C11.81 15.84 11.62 15.77 11.47 15.62L9 13.16C8.71 12.86 8.71 12.39 9 12.1C9.3 11.8 9.77 11.8 10.06 12.1L11.25 13.28V8.91C11.25 8.49 11.59 8.16 12 8.16C12.41 8.16 12.75 8.49 12.75 8.91V13.28L13.94 12.1C14.23 11.8 14.7 11.8 15 12.1C15.29 12.39 15.29 12.86 15 13.16Z" fill="black"/>
</svg>
