<svg width="24" height="24" viewBox="0 0 24 24" fill="none" xmlns="http://www.w3.org/2000/svg">
<path d="M17.82 13.61C15.92 13.61 14.39 15.15 14.39 17.04C14.39 18.94 15.93 20.47 17.82 20.47C19.72 20.47 21.25 18.93 21.25 17.04C21.25 15.14 19.71 13.61 17.82 13.61Z" stroke="black" stroke-width="1.5" stroke-linecap="round" stroke-linejoin="round"/>
<path d="M6.17999 13.61C4.27999 13.61 2.75 15.15 2.75 17.04C2.75 18.94 4.28999 20.47 6.17999 20.47C8.07999 20.47 9.61 18.93 9.61 17.04C9.61 15.14 8.07999 13.61 6.17999 13.61Z" stroke="black" stroke-width="1.5" stroke-linecap="round" stroke-linejoin="round"/>
<path d="M15.43 6.96C15.43 8.86 13.89 10.39 12 10.39C10.1 10.39 8.57001 8.85 8.57001 6.96C8.57001 5.06 10.11 3.53 12 3.53C13.9 3.53 15.43 5.07 15.43 6.96Z" stroke="black" stroke-width="1.5" stroke-linecap="round" stroke-linejoin="round"/>
</svg>
