<svg width="24" height="24" viewBox="0 0 24 24" fill="none" xmlns="http://www.w3.org/2000/svg">
<path d="M6.17999 12.86C3.87999 12.86 2 14.73 2 17.04C2 19.34 3.87999 21.22 6.17999 21.22C8.48999 21.22 10.37 19.34 10.37 17.04C10.37 14.73 8.48999 12.86 6.17999 12.86Z" fill="black"/>
<path d="M16.18 6.96C16.18 4.66 14.31 2.78 12 2.78C9.69 2.78 7.82001 4.66 7.82001 6.96C7.82001 9.27 9.69 11.14 12 11.14C14.31 11.14 16.18 9.27 16.18 6.96Z" fill="black"/>
<path d="M17.82 21.22C20.1286 21.22 22 19.3485 22 17.04C22 14.7314 20.1286 12.86 17.82 12.86C15.5115 12.86 13.64 14.7314 13.64 17.04C13.64 19.3485 15.5115 21.22 17.82 21.22Z" fill="black"/>
</svg>
