<svg width="24" height="24" viewBox="0 0 24 24" fill="none" xmlns="http://www.w3.org/2000/svg">
<path d="M6.86 13.03H4.8C3.66 13.03 2.74001 12.11 2.74001 10.98V4.82002C2.74001 3.69002 3.66 2.77002 4.8 2.77002H19.19C20.33 2.77002 21.25 3.69002 21.25 4.82002V10.98C21.25 12.11 20.33 13.03 19.19 13.03H17.13" stroke="black" stroke-width="1.5" stroke-linecap="round" stroke-linejoin="round"/>
<path d="M17.14 7.89001V19.51C17.14 20.47 16.36 21.26 15.39 21.26H8.61C7.65 21.26 6.86 20.48 6.86 19.51V7.89001H17.14Z" stroke="black" stroke-width="1.5" stroke-linecap="round" stroke-linejoin="round"/>
<path d="M9.87 17.24V8.79001" stroke="black" stroke-width="1.5" stroke-linecap="round" stroke-linejoin="round"/>
<path d="M14.08 17.12V16.09" stroke="black" stroke-width="1.5" stroke-linecap="round" stroke-linejoin="round"/>
<path d="M5.83 7.89001H18.17" stroke="black" stroke-width="1.5" stroke-linecap="round" stroke-linejoin="round"/>
</svg>
