<svg width="24" height="24" viewBox="0 0 24 24" fill="none" xmlns="http://www.w3.org/2000/svg">
<path d="M12 12.98C12.6572 12.98 13.19 12.4114 13.19 11.71C13.19 11.0086 12.6572 10.44 12 10.44C11.3428 10.44 10.81 11.0086 10.81 11.71C10.81 12.4114 11.3428 12.98 12 12.98Z" fill="black"/>
<path d="M9.92998 3.63C9.36998 3.39 8.79 3.29 8.29 3.5C6.69 4.18 6.89999 7.63 6.90999 7.82C6.92999 8.04 6.94999 8.22 6.96999 8.34C7.12999 9.77 7.52 11.75 8.51 13.86C9.51 16 10.76 17.49 11.34 18.18C11.51 18.38 11.59 18.47 11.61 18.5C12.38 19.33 14.42 21.12 15.78 20.5C17.28 19.82 17.11 16.63 17.09 16.31C17.08 16.15 17.07 15.99 17.02 15.69C16.92 15 16.77 13.96 16.41 12.7" stroke="black" stroke-width="1.5" stroke-linecap="round" stroke-linejoin="round"/>
<path d="M19.53 14.75C20.4 14.29 21.18 13.66 21.25 12.86C21.39 11.22 18.52 9.81 18.24 9.67C18.1 9.6 17.95 9.54 17.66 9.43C16.67 9.05 14.92 8.37 12.51 8.12C10.23 7.88 8.28998 8.12 6.89998 8.4C6.73998 8.43 6.50998 8.47 6.23998 8.54C5.89998 8.63 2.93 9.47 2.76 11.09C2.68 11.79 3.14998 12.46 3.73998 13.01" stroke="black" stroke-width="1.5" stroke-linecap="round" stroke-linejoin="round"/>
<path d="M17.63 6.5C17.6 5.44 17.36 4.34 16.6 3.92C15.17 3.12 12.69 5.15 12.45 5.35C12.33 5.45 12.21 5.56 11.99 5.78C11.23 6.52 9.90001 7.84 8.68001 9.93C7.52001 11.91 6.94002 13.78 6.63002 15.16C6.59002 15.32 6.53 15.55 6.49 15.82C6.43 16.17 5.98002 19.21 7.38002 20.04C7.82002 20.3 8.36002 20.29 8.91002 20.15" stroke="black" stroke-width="1.5" stroke-linecap="round" stroke-linejoin="round"/>
</svg>
