<svg width="24" height="24" viewBox="0 0 24 24" fill="none" xmlns="http://www.w3.org/2000/svg">
<path d="M12.85 5.52C12.3821 5.21889 11.8398 5.05381 11.2835 5.04322C10.7272 5.03262 10.179 5.17693 9.69999 5.46L3.66999 9C3.15117 9.30767 2.72324 9.74745 2.42986 10.2745C2.13648 10.8015 1.98814 11.3969 1.99999 12C1.98814 12.6031 2.13648 13.1985 2.42986 13.7255C2.72324 14.2526 3.15117 14.6923 3.66999 15L9.66999 18.53C10.1301 18.803 10.6549 18.9481 11.19 18.95C11.7702 18.9445 12.3364 18.7708 12.82 18.45C13.309 18.1311 13.7087 17.6929 13.9817 17.1768C14.2546 16.6607 14.3916 16.0837 14.38 15.5V8.5C14.3953 7.91483 14.2633 7.33519 13.9959 6.81444C13.7285 6.29369 13.3345 5.84855 12.85 5.52Z" fill="black"/>
<path d="M20.44 5.52C19.9758 5.21418 19.4344 5.04622 18.8787 5.0356C18.3229 5.02498 17.7755 5.17214 17.3 5.46L15.62 6.46C15.4415 6.57017 15.3114 6.74381 15.2557 6.94603C15.2001 7.14824 15.223 7.36403 15.32 7.55C15.3624 7.63871 15.4224 7.71793 15.4962 7.78289C15.5701 7.84786 15.6563 7.89724 15.7497 7.92806C15.8431 7.95888 15.9417 7.97051 16.0397 7.96225C16.1377 7.95399 16.2331 7.92602 16.32 7.88L17.99 6.88C18.2394 6.726 18.5268 6.64443 18.82 6.64443C19.1131 6.64443 19.4005 6.726 19.65 6.88C19.9088 7.04881 20.1206 7.2804 20.2657 7.55318C20.4109 7.82596 20.4846 8.13105 20.48 8.44V15.44C20.4863 15.7506 20.4134 16.0578 20.2682 16.3324C20.123 16.6071 19.9102 16.8403 19.65 17.01C19.4013 17.1662 19.1136 17.2491 18.82 17.2491C18.5263 17.2491 18.2386 17.1662 17.99 17.01L16.32 16.01C16.2331 15.964 16.1377 15.936 16.0397 15.9278C15.9417 15.9195 15.8431 15.9311 15.7497 15.9619C15.6563 15.9928 15.5701 16.0421 15.4962 16.1071C15.4224 16.1721 15.3624 16.2513 15.32 16.34C15.2248 16.5279 15.2028 16.7445 15.2582 16.9478C15.3136 17.151 15.4426 17.3264 15.62 17.44L17.3 18.44C17.7572 18.7113 18.2783 18.8563 18.81 18.86C19.3886 18.8536 19.9537 18.6837 20.44 18.37C20.9349 18.0452 21.3383 17.5988 21.6114 17.0735C21.8845 16.5483 22.0183 15.9617 22 15.37V8.37C21.9914 7.80389 21.8448 7.24841 21.573 6.75177C21.3011 6.25513 20.9122 5.83231 20.44 5.52Z" fill="black"/>
</svg>
