<svg width="24" height="24" viewBox="0 0 24 24" fill="none" xmlns="http://www.w3.org/2000/svg">
<path d="M12 2.75C8.59 2.75 5.82999 5.51 5.82999 8.92V19.27C5.82999 20.37 6.72001 21.26 7.82001 21.26H16.18C17.28 21.26 18.17 20.37 18.17 19.27V8.92C18.17 5.51 15.41 2.75 12 2.75Z" stroke="black" stroke-width="1.5" stroke-linecap="round" stroke-linejoin="round"/>
<path d="M14.29 14.06H9.72C9.28 14.06 8.92001 14.42 8.92001 14.86V17.38C8.92001 17.82 9.28 18.18 9.72 18.18H14.29C14.73 18.18 15.09 17.82 15.09 17.38V14.86C15.08 14.41 14.73 14.06 14.29 14.06Z" stroke="black" stroke-width="1.5" stroke-linecap="round" stroke-linejoin="round"/>
<path d="M4.16 18.17H5.84V13.03H4.16C3.38 13.03 2.75 13.66 2.75 14.44V16.76C2.75 17.54 3.38 18.17 4.16 18.17Z" stroke="black" stroke-width="1.5" stroke-linecap="round" stroke-linejoin="round"/>
<path d="M19.84 18.17H18.16V13.03H19.84C20.62 13.03 21.25 13.66 21.25 14.44V16.76C21.25 17.54 20.62 18.17 19.84 18.17Z" stroke="black" stroke-width="1.5" stroke-linecap="round" stroke-linejoin="round"/>
<path d="M9.42999 7.76H14.57" stroke="black" stroke-width="1.5" stroke-linecap="round" stroke-linejoin="round"/>
<path d="M14.06 7.76V8.79" stroke="black" stroke-width="1.5" stroke-linecap="round" stroke-linejoin="round"/>
</svg>
