<svg width="24" height="24" viewBox="0 0 24 24" fill="none" xmlns="http://www.w3.org/2000/svg">
<path d="M19.84 12.28H18.92V8.91C18.92 5.1 15.81 2 12 2C8.19 2 5.07999 5.1 5.07999 8.91V12.28H4.16C2.97 12.28 2 13.24 2 14.43V16.76C2 17.95 2.97 18.91 4.16 18.91H5.07999V19.26C5.07999 20.77 6.31001 22 7.82001 22H16.18C17.69 22 18.92 20.77 18.92 19.26V18.91H19.84C21.03 18.91 22 17.95 22 16.76V14.43C22 13.24 21.03 12.28 19.84 12.28ZM5.07999 17.41H4.16C3.79 17.41 3.5 17.12 3.5 16.76V14.43C3.5 14.07 3.79 13.78 4.16 13.78H5.07999V17.41ZM9.42999 7.01H14.57C14.98 7.01 15.32 7.34 15.32 7.76C15.32 8.09 15.1 8.36 14.81 8.46V8.79C14.81 9.2 14.47 9.54 14.06 9.54C13.64 9.54 13.31 9.2 13.31 8.79V8.51H9.42999C9.01999 8.51 8.67999 8.17 8.67999 7.76C8.67999 7.34 9.01999 7.01 9.42999 7.01ZM15.83 17.37C15.83 18.22 15.14 18.91 14.29 18.91H9.70999C8.85999 18.91 8.17001 18.22 8.17001 17.37V14.85C8.17001 14 8.85999 13.3 9.70999 13.3H14.29C15.14 13.3 15.83 14 15.83 14.85V17.37ZM20.5 16.76C20.5 17.12 20.21 17.41 19.84 17.41H18.92V13.78H19.84C20.21 13.78 20.5 14.07 20.5 14.43V16.76Z" fill="black"/>
</svg>
