<svg width="24" height="24" viewBox="0 0 24 24" fill="none" xmlns="http://www.w3.org/2000/svg">
<path d="M19.48 11.48C19.48 11.48 19.48 11.47 19.47 11.47L12.53 4.53L11.66 3.66C10.59 2.59 9.17 2 7.66 2C6.15 2 4.73 2.59 3.66 3.66C2.59 4.73 2 6.15 2 7.66C2 9.18 2.59 10.6 3.66 11.67L4.52 12.53C4.52 12.53 4.52 12.53 4.53 12.53L11.47 19.48L12.34 20.35C13.41 21.42 14.83 22 16.34 22C17.85 22 19.27 21.42 20.34 20.35C21.41 19.28 22 17.86 22 16.34C22 14.83 21.41 13.41 20.34 12.34L19.48 11.48ZM16.31 12.94C15.85 13.41 15.09 13.41 14.62 12.94C14.16 12.48 14.16 11.72 14.62 11.25C15.09 10.79 15.85 10.79 16.31 11.25C16.78 11.72 16.78 12.48 16.31 12.94ZM12.84 9.47C12.38 9.94 11.62 9.94 11.15 9.47C10.69 9.01 10.69 8.25 11.15 7.78C11.62 7.32 12.38 7.32 12.84 7.78C13.31 8.25 13.31 9.01 12.84 9.47ZM12.75 12.94C12.28 13.41 11.53 13.41 11.06 12.94C10.6 12.48 10.6 11.72 11.06 11.25C11.53 10.79 12.28 10.79 12.75 11.25C13.22 11.72 13.22 12.48 12.75 12.94ZM7.67999 11.25C8.14999 10.79 8.91 10.79 9.37 11.25C9.83999 11.72 9.83999 12.48 9.37 12.94C8.91 13.41 8.14999 13.41 7.67999 12.94C7.21999 12.48 7.21999 11.72 7.67999 11.25ZM11.15 16.41C10.69 15.95 10.69 15.19 11.15 14.72C11.62 14.26 12.38 14.26 12.84 14.72C13.31 15.19 13.31 15.95 12.84 16.41C12.38 16.88 11.62 16.88 11.15 16.41ZM4.72 10.61C3.93 9.82 3.5 8.78 3.5 7.66C3.5 6.55 3.93 5.51 4.72 4.72C5.5 3.94 6.55 3.5 7.66 3.5C8.77 3.5 9.82001 3.94 10.6 4.72L10.94 5.06L5.06 10.94L4.72 10.61ZM19.28 19.29C18.5 20.07 17.45 20.5 16.34 20.5C15.23 20.5 14.18 20.07 13.4 19.29L13.06 18.95L18.94 13.06L19.28 13.4C20.07 14.19 20.5 15.23 20.5 16.34C20.5 17.46 20.07 18.5 19.28 19.29Z" fill="black"/>
</svg>
