<svg width="24" height="24" viewBox="0 0 24 24" fill="none" xmlns="http://www.w3.org/2000/svg">
<path d="M12 14.33C10.71 14.33 9.67004 13.28 9.67004 12C9.67004 10.71 10.71 9.66 12 9.66C13.29 9.66 14.33 10.71 14.33 12C14.33 13.28 13.29 14.33 12 14.33Z" fill="black"/>
<path d="M18.17 2H5.75C3.68 2 2 3.68 2 5.75V18.25C2 20.31 3.68 22 5.75 22H18.17C20.28 22 22 20.28 22 18.16V5.83C22 3.72 20.28 2 18.17 2ZM16.11 12.75H15.76C15.46 14.26 14.26 15.45 12.75 15.75V16.11C12.75 16.52 12.41 16.86 12 16.86C11.59 16.86 11.25 16.52 11.25 16.11V15.75C9.74 15.45 8.53999 14.26 8.23999 12.75H7.89001C7.47001 12.75 7.14001 12.41 7.14001 12C7.14001 11.58 7.47001 11.25 7.89001 11.25H8.23999C8.53999 9.73 9.74 8.54001 11.25 8.24001V7.88C11.25 7.47001 11.59 7.13 12 7.13C12.41 7.13 12.75 7.47001 12.75 7.88V8.24001C14.26 8.54001 15.46 9.73 15.76 11.25H16.11C16.53 11.25 16.86 11.58 16.86 12C16.86 12.41 16.53 12.75 16.11 12.75ZM3.5 6H4.23001C4.52001 6 4.75 6.22999 4.75 6.50999V8.39C4.75 8.68 4.52001 8.91 4.23001 8.91H3.5V6ZM3.5 15.08H4.23001C4.52001 15.08 4.75 15.31 4.75 15.6V17.48C4.75 17.76 4.52001 18 4.23001 18H3.5V15.08Z" fill="black"/>
</svg>
