<svg width="24" height="24" viewBox="0 0 24 24" fill="none" xmlns="http://www.w3.org/2000/svg">
<path d="M18.17 21.25H5.75C4.09 21.25 2.75 19.91 2.75 18.25V5.75C2.75 4.09 4.09 2.75 5.75 2.75H18.17C19.87 2.75 21.25 4.13 21.25 5.83V18.16C21.25 19.87 19.87 21.25 18.17 21.25Z" stroke="black" stroke-width="1.5" stroke-linecap="round" stroke-linejoin="round"/>
<path d="M12 15.08C13.701 15.08 15.08 13.701 15.08 12C15.08 10.299 13.701 8.92 12 8.92C10.299 8.92 8.92001 10.299 8.92001 12C8.92001 13.701 10.299 15.08 12 15.08Z" stroke="black" stroke-width="1.5" stroke-linecap="round" stroke-linejoin="round"/>
<path d="M8.76001 12H7.89001" stroke="black" stroke-width="1.5" stroke-linecap="round" stroke-linejoin="round"/>
<path d="M16.11 12H15.17" stroke="black" stroke-width="1.5" stroke-linecap="round" stroke-linejoin="round"/>
<path d="M12 15.38V16.11" stroke="black" stroke-width="1.5" stroke-linecap="round" stroke-linejoin="round"/>
<path d="M12 7.89V8.62" stroke="black" stroke-width="1.5" stroke-linecap="round" stroke-linejoin="round"/>
<path d="M4.23001 8.92H3.26999C2.97999 8.92 2.75 8.68999 2.75 8.39999V6.52C2.75 6.23 2.97999 6 3.26999 6H4.23001C4.52001 6 4.75 6.23 4.75 6.52V8.39999C4.75 8.67999 4.52001 8.92 4.23001 8.92Z" fill="black"/>
<path d="M4.23001 18H3.26999C2.97999 18 2.75 17.77 2.75 17.48V15.6C2.75 15.31 2.97999 15.08 3.26999 15.08H4.23001C4.52001 15.08 4.75 15.31 4.75 15.6V17.48C4.75 17.77 4.52001 18 4.23001 18Z" fill="black"/>
</svg>
