<svg width="24" height="24" viewBox="0 0 24 24" fill="none" xmlns="http://www.w3.org/2000/svg">
<path d="M21.25 11.99H17.14C16.73 11.99 16.39 12.33 16.39 12.74V18.68C16.39 19.09 16.73 19.43 17.14 19.43H21.25C21.66 19.43 22 19.09 22 18.68V12.74C22 12.33 21.66 11.99 21.25 11.99Z" fill="black"/>
<path d="M13.95 8.28H9.94C9.53 8.28 9.19 8.62 9.19 9.03V18.68C9.19 19.09 9.53 19.43 9.94 19.43H13.95C14.36 19.43 14.7 19.09 14.7 18.68V9.03C14.7 8.62 14.36 8.28 13.95 8.28Z" fill="black"/>
<path d="M6.86 4.57001H2.75C2.34 4.57001 2 4.91001 2 5.32001V18.68C2 19.09 2.34 19.43 2.75 19.43H6.86C7.27 19.43 7.61 19.09 7.61 18.68V5.32001C7.61 4.91001 7.28 4.57001 6.86 4.57001Z" fill="black"/>
</svg>
