<svg width="24" height="24" viewBox="0 0 24 24" fill="none" xmlns="http://www.w3.org/2000/svg">
<path d="M6.86 11.99H2.75C2.34 11.99 2 12.33 2 12.74V18.68C2 19.09 2.34 19.43 2.75 19.43H6.86C7.27 19.43 7.61 19.09 7.61 18.68V12.74C7.61 12.33 7.28 11.99 6.86 11.99Z" fill="black"/>
<path d="M14.06 8.28H10.05C9.64 8.28 9.3 8.62 9.3 9.03V18.68C9.3 19.09 9.64 19.43 10.05 19.43H14.06C14.47 19.43 14.81 19.09 14.81 18.68V9.03C14.81 8.62 14.47 8.28 14.06 8.28Z" fill="black"/>
<path d="M21.25 4.57001H17.14C16.73 4.57001 16.39 4.91001 16.39 5.32001V18.68C16.39 19.09 16.73 19.43 17.14 19.43H21.25C21.66 19.43 22 19.09 22 18.68V5.32001C22 4.91001 21.66 4.57001 21.25 4.57001Z" fill="black"/>
</svg>
