<svg width="24" height="24" viewBox="0 0 24 24" fill="none" xmlns="http://www.w3.org/2000/svg">
<path d="M18.17 2H5.84C3.72 2 2 3.72 2 5.83V7.9C2 8.31 2.34 8.65 2.75 8.65C3.16 8.65 3.5 8.31 3.5 7.9V5.83C3.5 4.54 4.54999 3.5 5.82999 3.5H18.16C19.45 3.5 20.49 4.55 20.49 5.83V7.9C20.49 8.31 20.83 8.65 21.24 8.65C21.65 8.65 22 8.31 22 7.9V5.83C22 3.72 20.28 2 18.17 2Z" fill="black"/>
<path d="M21.25 15.33C20.84 15.33 20.5 15.67 20.5 16.08V18.17C20.5 19.46 19.45 20.5 18.17 20.5H5.84C4.55 20.5 3.51001 19.45 3.51001 18.17V16.1C3.51001 15.69 3.17001 15.35 2.76001 15.35C2.35001 15.35 2 15.69 2 16.1V18.16C2 20.27 3.71999 21.99 5.82999 21.99H18.16C20.27 21.99 21.99 20.27 21.99 18.16V16.07C22 15.66 21.66 15.33 21.25 15.33Z" fill="black"/>
<path d="M12.75 17.14V6.86C12.75 6.45 12.41 6.11 12 6.11C11.59 6.11 11.25 6.45 11.25 6.86V17.14C11.25 17.55 11.59 17.89 12 17.89C12.41 17.89 12.75 17.55 12.75 17.14Z" fill="black"/>
<path d="M9.67004 15.11V6.89C9.67004 6.48 9.33004 6.14 8.92004 6.14C8.51004 6.14 8.17004 6.48 8.17004 6.89V15.11C8.17004 15.52 8.51004 15.86 8.92004 15.86C9.33004 15.86 9.67004 15.53 9.67004 15.11Z" fill="black"/>
<path d="M6.57996 17.14V6.86C6.57996 6.45 6.23996 6.11 5.82996 6.11C5.41996 6.11 5.07996 6.45 5.07996 6.86V17.14C5.07996 17.55 5.41996 17.89 5.82996 17.89C6.23996 17.89 6.57996 17.55 6.57996 17.14Z" fill="black"/>
<path d="M15.79 15.11V6.89C15.79 6.48 15.45 6.14 15.04 6.14C14.63 6.14 14.29 6.48 14.29 6.89V15.11C14.29 15.52 14.63 15.86 15.04 15.86C15.45 15.86 15.79 15.53 15.79 15.11Z" fill="black"/>
<path d="M18.88 17.14V6.86C18.88 6.45 18.54 6.11 18.13 6.11C17.72 6.11 17.38 6.45 17.38 6.86V17.14C17.38 17.55 17.72 17.89 18.13 17.89C18.54 17.89 18.88 17.55 18.88 17.14Z" fill="black"/>
</svg>
