<svg width="24" height="24" viewBox="0 0 24 24" fill="none" xmlns="http://www.w3.org/2000/svg">
<path d="M5.27 6.76C5.11 6.96 4.97 7.17 4.83 7.38C4.79 7.43 4.76 7.49 4.73 7.55C4.63 7.71 4.53 7.87 4.45 8.03C4.4 8.11 4.36 8.19 4.32 8.27C4.25 8.42 4.18 8.57 4.12 8.72C4.08 8.81 4.05 8.9 4.01 8.99C3.96 9.14 3.9 9.29 3.86 9.44C3.83 9.53 3.8 9.63 3.77 9.72C3.73 9.87 3.69 10.03 3.66 10.19C3.64 10.28 3.62 10.37 3.6 10.47C3.57 10.63 3.55 10.81 3.53 10.98C3.52 11.06 3.5 11.14 3.5 11.22C3.5 11.23 3.5 11.23 3.5 11.24H7.08C6.92 9.6 6.29 8.05 5.27 6.76Z" fill="black"/>
<path d="M3.5 12.75V12.78C3.5 12.86 3.52 12.95 3.53 13.03C3.55 13.2 3.57 13.37 3.6 13.54C3.62 13.64 3.64 13.74 3.67 13.83C3.7 14 3.74 14.15 3.78 14.3C3.81 14.4 3.84 14.5 3.87 14.6C3.91 14.74 3.96 14.89 4.02 15.03C4.06 15.13 4.09 15.22 4.13 15.32C4.19 15.46 4.26 15.6 4.33 15.74C4.37 15.83 4.42 15.92 4.47 16.01C4.54 16.16 4.63 16.3 4.71 16.44C4.76 16.51 4.81 16.6 4.86 16.67C4.98 16.86 5.11 17.04 5.25 17.22C5.27 17.24 5.29 17.27 5.3 17.29C6.33 15.98 6.95 14.41 7.08 12.74H3.5V12.75Z" fill="black"/>
<path d="M8.57999 11.25H11.24V3.5C9.40999 3.66 7.66999 4.42 6.29999 5.65C7.62999 7.25 8.41999 9.19 8.57999 11.25Z" fill="black"/>
<path d="M6.35999 18.4C7.72999 19.62 9.41998 20.35 11.24 20.5V12.75H8.58999C8.44999 14.83 7.67999 16.79 6.35999 18.4Z" fill="black"/>
<path d="M12.75 12.75V20.5C14.57 20.35 16.27 19.62 17.63 18.4C16.31 16.79 15.54 14.83 15.4 12.75H12.75Z" fill="black"/>
<path d="M17.7 5.65C16.32 4.42 14.59 3.66 12.76 3.5V11.25H15.42C15.58 9.19 16.37 7.25 17.7 5.65Z" fill="black"/>
<path d="M20.4 10.47C20.38 10.37 20.36 10.28 20.34 10.19C20.31 10.03 20.27 9.88 20.23 9.72C20.2 9.63 20.17 9.53 20.14 9.44C20.1 9.29 20.05 9.14 19.99 9C19.96 8.91 19.92 8.81 19.88 8.72C19.82 8.58 19.75 8.43 19.68 8.29C19.64 8.21 19.6 8.12 19.56 8.04C19.48 7.88 19.39 7.73 19.3 7.58C19.26 7.52 19.22 7.45 19.18 7.38C19.04 7.17 18.89 6.97 18.74 6.77C17.72 8.07 17.09 9.61 16.93 11.26H20.51C20.51 11.25 20.51 11.25 20.51 11.24C20.51 11.16 20.49 11.08 20.48 11C20.45 10.81 20.43 10.63 20.4 10.47Z" fill="black"/>
<path d="M18.69 17.3C18.7 17.28 18.71 17.26 18.73 17.24C18.87 17.06 19.01 16.87 19.13 16.68C19.18 16.61 19.23 16.53 19.27 16.45C19.36 16.31 19.45 16.17 19.53 16.02C19.57 15.93 19.62 15.84 19.66 15.75C19.73 15.61 19.8 15.47 19.86 15.33C19.9 15.23 19.93 15.14 19.97 15.04C20.03 14.9 20.08 14.75 20.12 14.61C20.15 14.51 20.18 14.41 20.21 14.31C20.25 14.16 20.29 14.01 20.32 13.85C20.35 13.75 20.37 13.66 20.39 13.56C20.42 13.39 20.44 13.22 20.46 13.05C20.47 12.97 20.49 12.88 20.49 12.8V12.77H16.9C17.04 14.42 17.66 16 18.69 17.3Z" fill="black"/>
</svg>
