<svg width="24" height="24" viewBox="0 0 24 24" fill="none" xmlns="http://www.w3.org/2000/svg">
<path d="M21 12.49V7.89C21 6.8733 20.5968 5.89809 19.8788 5.17824C19.1608 4.45839 18.1867 4.05265 17.17 4.05H6.85996C6.354 4.04737 5.85251 4.14475 5.38431 4.33654C4.91611 4.52834 4.49043 4.81078 4.13173 5.16762C3.77303 5.52446 3.48839 5.94866 3.29416 6.41586C3.09993 6.88306 2.99995 7.38404 2.99996 7.89V12.49C2.35274 13.1968 1.99568 14.1216 1.99996 15.08V19.2C1.99456 19.3023 2.00989 19.4046 2.04503 19.5008C2.08018 19.597 2.1344 19.6851 2.20445 19.7598C2.27451 19.8346 2.35894 19.8944 2.45268 19.9356C2.54642 19.9769 2.64754 19.9988 2.74996 20C2.94806 19.9974 3.13733 19.9176 3.27742 19.7775C3.41752 19.6374 3.49737 19.4481 3.49996 19.25V18.96H20.5V19.25C20.5 19.4489 20.579 19.6397 20.7196 19.7803C20.8603 19.921 21.051 20 21.25 20C21.4489 20 21.6396 19.921 21.7803 19.7803C21.9209 19.6397 22 19.4489 22 19.25V15.08C22.0082 14.1209 21.6506 13.1947 21 12.49ZM7.60996 10.82V9.07C7.61257 8.95505 7.66008 8.84569 7.74231 8.76532C7.82455 8.68495 7.93497 8.63997 8.04996 8.64H9.78996C9.904 8.64 10.0134 8.68531 10.094 8.76595C10.1747 8.84659 10.22 8.95596 10.22 9.07V10.82C10.22 10.876 10.2088 10.9315 10.1871 10.9831C10.1653 11.0347 10.1335 11.0814 10.0934 11.1206C10.0534 11.1597 10.0059 11.1904 9.95376 11.2109C9.90164 11.2315 9.84595 11.2413 9.78996 11.24H8.04996C7.99349 11.2413 7.9373 11.2315 7.88462 11.2111C7.83195 11.1907 7.7838 11.1602 7.74294 11.1212C7.70208 11.0822 7.6693 11.0355 7.64649 10.9838C7.62367 10.9321 7.61126 10.8765 7.60996 10.82ZM13.78 10.82V9.07C13.7799 9.01268 13.7914 8.95594 13.8136 8.9031C13.8359 8.85027 13.8684 8.80242 13.9094 8.76236C13.9504 8.72229 13.999 8.69083 14.0523 8.66982C14.1057 8.64881 14.1627 8.63867 14.22 8.64H16C16.1149 8.63997 16.2254 8.68495 16.3076 8.76532C16.3898 8.84569 16.4373 8.95505 16.44 9.07V10.82C16.4387 10.8765 16.4262 10.9321 16.4034 10.9838C16.3806 11.0355 16.3478 11.0822 16.307 11.1212C16.2661 11.1602 16.218 11.1907 16.1653 11.2111C16.1126 11.2315 16.0564 11.2413 16 11.24H14.22C14.1635 11.2413 14.1073 11.2315 14.0546 11.2111C14.0019 11.1907 13.9538 11.1602 13.9129 11.1212C13.8721 11.0822 13.8393 11.0355 13.8165 10.9838C13.7937 10.9321 13.7813 10.8765 13.78 10.82ZM4.52996 7.89C4.52864 7.58318 4.58794 7.27912 4.70444 6.99528C4.82094 6.71143 4.99236 6.4534 5.20885 6.23597C5.42534 6.01855 5.68265 5.84603 5.96599 5.72831C6.24933 5.6106 6.55313 5.55 6.85996 5.55H17.14C17.4468 5.55 17.7506 5.6106 18.0339 5.72831C18.3173 5.84603 18.5746 6.01855 18.7911 6.23597C19.0076 6.4534 19.179 6.71143 19.2955 6.99528C19.412 7.27912 19.4713 7.58318 19.47 7.89V11.49C19.0548 11.3304 18.6147 11.2458 18.17 11.24H17.83C17.8695 11.1035 17.8897 10.9621 17.89 10.82V9.07C17.8875 8.56576 17.6889 8.08228 17.3361 7.72201C16.9833 7.36174 16.504 7.15299 16 7.14H14.22C13.7072 7.13999 13.2152 7.34301 12.8517 7.70467C12.4882 8.06634 12.2826 8.55722 12.28 9.07V10.82C12.2817 10.9614 12.2985 11.1022 12.33 11.24H11.67C11.7014 11.1022 11.7182 10.9614 11.72 10.82V9.07C11.7173 8.55894 11.5131 8.06957 11.1518 7.70819C10.7904 7.34681 10.301 7.14263 9.78996 7.14H8.04996C7.53717 7.13999 7.04523 7.34301 6.68169 7.70467C6.31816 8.06634 6.1126 8.55722 6.10996 9.07V10.82C6.11022 10.9621 6.13042 11.1035 6.16996 11.24H5.82996C5.38525 11.2458 4.9451 11.3304 4.52996 11.49V7.89Z" fill="black"/>
</svg>
