<svg width="24" height="24" viewBox="0 0 24 24" fill="none" xmlns="http://www.w3.org/2000/svg">
<path d="M10.18 9.82C10.18 10.74 9.72999 11.36 8.89999 11.78H2.75V7.48H7.17999C8.76999 7.48 10.18 7.94 10.18 9.82Z" stroke="black" stroke-width="1.5" stroke-linecap="round" stroke-linejoin="round"/>
<path d="M11.3 14.14C11.3 16.05 9.57 16.87 7.69 16.87H2.75V11.78H9.45001C10.7 12.1 11.3 12.97 11.3 14.14Z" stroke="black" stroke-width="1.5" stroke-linecap="round" stroke-linejoin="round"/>
<path d="M15.28 13.87H21.23C21.23 13.77 21.26 13.64 21.26 13.54C21.26 11.6 20.11 9.97 18.07 9.97C16.06 9.97 14.71 11.47 14.71 13.44C14.71 15.48 16.01 16.88 18.07 16.88C18.68 16.88 19.21 16.77 19.66 16.54" stroke="black" stroke-width="1.5" stroke-linecap="round" stroke-linejoin="round"/>
<path d="M15.81 7.13H20.14" stroke="black" stroke-width="1.5" stroke-linecap="round" stroke-linejoin="round"/>
</svg>
