<svg width="24" height="24" viewBox="0 0 24 24" fill="none" xmlns="http://www.w3.org/2000/svg">
<path d="M20.21 5.07999H15.83V2.73999C15.83 2.32999 15.5 1.98999 15.08 1.98999H8.91998C8.50998 1.98999 8.16998 2.32999 8.16998 2.73999V5.07999H3.78998C3.37998 5.07999 3.03998 5.40999 3.03998 5.82999C3.03998 6.23999 3.37998 6.57999 3.78998 6.57999H4.93999V19.19C4.93999 20.74 6.19998 21.99 7.74998 21.99H15.91C17.45 21.99 18.71 20.74 18.71 19.19V6.57999H20.21C20.62 6.57999 20.96 6.23999 20.96 5.82999C20.96 5.40999 20.62 5.07999 20.21 5.07999ZM9.18999 17.14V9.74998C9.18999 9.33998 9.52999 8.99998 9.93999 8.99998C10.36 8.99998 10.69 9.33998 10.69 9.74998V17.14C10.69 17.55 10.36 17.89 9.93999 17.89C9.52999 17.89 9.18999 17.55 9.18999 17.14ZM14.81 17.14C14.81 17.55 14.47 17.89 14.06 17.89C13.64 17.89 13.31 17.55 13.31 17.14V9.74998C13.31 9.32998 13.64 8.99998 14.06 8.99998C14.47 8.99998 14.81 9.32998 14.81 9.74998V17.14ZM9.66998 3.48999H14.33V5.07999H9.66998V3.48999Z" fill="black"/>
</svg>
