<svg width="24" height="24" viewBox="0 0 24 24" fill="none" xmlns="http://www.w3.org/2000/svg">
<path d="M12 2.25C6.62 2.25 2.25 6.62 2.25 12C2.25 17.37 6.62 21.75 12 21.75C17.38 21.75 21.75 17.37 21.75 12C21.75 6.62 17.38 2.25 12 2.25ZM9.17 9.64L11.66 7.14C11.84 6.95 12.15 6.95 12.33 7.14L14.83 9.64C15.02 9.82 15.02 10.13 14.83 10.31L14.16 10.99C13.98 11.18 13.68 11.18 13.49 10.99L12.33 9.86C12.14 9.67 11.84 9.67 11.65 9.86L10.53 11C10.34 11.18 10.04 11.18 9.85 11L9.17 10.31C8.98 10.13 8.98 9.82 9.17 9.64ZM13.03 12.34L12.34 13.03C12.15 13.22 11.85 13.22 11.66 13.03L10.97 12.34C10.78 12.15 10.78 11.85 10.97 11.66L11.66 10.97C11.85 10.78 12.15 10.78 12.34 10.97L13.03 11.66C13.22 11.85 13.22 12.15 13.03 12.34ZM7.83 13.03L7.14 12.34C6.95 12.15 6.95 11.85 7.14 11.66L7.83 10.97C8.02 10.78 8.32 10.78 8.51 10.97L9.2 11.66C9.39 11.85 9.39 12.15 9.2 12.34L8.51 13.03C8.32 13.22 8.02 13.22 7.83 13.03ZM14.83 14.36L12.34 16.86C12.16 17.04 11.85 17.04 11.67 16.86L9.17 14.35C8.98 14.17 8.98 13.87 9.17 13.68L9.84 13C10.02 12.82 10.32 12.81 10.51 13L11.67 14.14C11.86 14.32 12.16 14.32 12.35 14.13L13.47 13C13.66 12.81 13.96 12.81 14.15 13L14.83 13.68C15.02 13.87 15.02 14.17 14.83 14.36ZM16.86 12.34L16.17 13.03C15.98 13.22 15.68 13.22 15.49 13.03L14.8 12.34C14.61 12.15 14.61 11.85 14.8 11.66L15.49 10.97C15.68 10.78 15.98 10.78 16.17 10.97L16.86 11.66C17.05 11.85 17.05 12.15 16.86 12.34Z" fill="black"/>
</svg>
