<svg width="24" height="24" viewBox="0 0 24 24" fill="none" xmlns="http://www.w3.org/2000/svg">
<path d="M12 2.25C6.62 2.25 2.25 6.62 2.25 12C2.25 17.37 6.62 21.75 12 21.75C17.38 21.75 21.75 17.37 21.75 12C21.75 6.62 17.38 2.25 12 2.25ZM13.67 15.34V16C13.67 16.41 13.33 16.75 12.92 16.75C12.5 16.75 12.17 16.41 12.17 16V15.36H11.37V16C11.37 16.41 11.04 16.75 10.62 16.75C10.21 16.75 9.87 16.41 9.87 16V15.36H9C8.59 15.36 8.25 15.02 8.25 14.61C8.25 14.19 8.59 13.86 9 13.86H9.87V12.64H9C8.59 12.64 8.25 12.3 8.25 11.89C8.25 11.47 8.59 11.14 9 11.14H9.87V9.92H9C8.59 9.92 8.25 9.58 8.25 9.17C8.25 8.75 8.59 8.42 9 8.42H9.87V8C9.87 7.58 10.21 7.25 10.62 7.25C11.04 7.25 11.37 7.58 11.37 8V8.42H12.17V8C12.17 7.58 12.5 7.25 12.92 7.25C13.33 7.25 13.67 7.58 13.67 8V8.67C14.38 9.02 14.88 9.72 14.88 10.53C14.88 10.86 14.79 11.16 14.64 11.44C15.3 11.81 15.75 12.48 15.75 13.25C15.75 14.36 14.83 15.26 13.67 15.34Z" fill="black"/>
<path d="M12.62 11.14H11.37V9.92H12.62C13.04 9.92 13.38 10.19 13.38 10.53C13.38 10.86 13.04 11.14 12.62 11.14Z" fill="black"/>
<path d="M14.25 13.25C14.25 13.58 13.91 13.86 13.5 13.86H11.37V12.64H13.5C13.91 12.64 14.25 12.91 14.25 13.25Z" fill="black"/>
</svg>
