<svg width="24" height="24" viewBox="0 0 24 24" fill="none" xmlns="http://www.w3.org/2000/svg">
<path d="M14.81 6.57999V9.19H17.42V6.57999H14.81ZM14.81 6.57999V9.19H17.42V6.57999H14.81ZM14.81 6.57999V9.19H17.42V6.57999H14.81Z" fill="black"/>
<path d="M18.17 2H5.83C3.72 2 2 3.71999 2 5.82999V13.03C2 15.14 3.72 16.86 5.83 16.86H6.78L5.14 20.97C4.98 21.36 5.17 21.79 5.56 21.95C5.65 21.98 5.74 22 5.83 22C6.13 22 6.41 21.82 6.53 21.53L8.39999 16.86H11.25V21.25C11.25 21.66 11.59 22 12 22C12.41 22 12.75 21.66 12.75 21.25V16.86H15.6L17.47 21.53C17.59 21.82 17.87 22 18.17 22C18.26 22 18.36 21.98 18.45 21.95C18.83 21.79 19.02 21.36 18.86 20.97L17.22 16.86H18.17C20.28 16.86 22 15.14 22 13.03V5.82999C22 3.71999 20.28 2 18.17 2ZM18.92 9.94C18.92 10.36 18.58 10.69 18.17 10.69H14.06C13.64 10.69 13.31 10.36 13.31 9.94V5.82999C13.31 5.41999 13.64 5.07999 14.06 5.07999H18.17C18.58 5.07999 18.92 5.41999 18.92 5.82999V9.94ZM5.08 12C5.08 11.59 5.42 11.25 5.83 11.25H9.94C10.36 11.25 10.69 11.59 10.69 12C10.69 12.41 10.36 12.75 9.94 12.75H5.83C5.42 12.75 5.08 12.41 5.08 12ZM10.69 8.92001C10.69 9.33001 10.36 9.67001 9.94 9.67001H5.83C5.42 9.67001 5.08 9.33001 5.08 8.92001C5.08 8.50001 5.42 8.17001 5.83 8.17001H9.94C10.36 8.17001 10.69 8.50001 10.69 8.92001ZM7.61 5.82999C7.61 6.24999 7.28 6.57999 6.86 6.57999H5.83C5.42 6.57999 5.08 6.24999 5.08 5.82999C5.08 5.41999 5.42 5.07999 5.83 5.07999H6.86C7.28 5.07999 7.61 5.41999 7.61 5.82999Z" fill="black"/>
</svg>
