<svg width="24" height="24" viewBox="0 0 24 24" fill="none" xmlns="http://www.w3.org/2000/svg">
<path d="M9.28003 10.61V13.21L11.36 14.47V11.87L9.28003 10.61ZM12.11 7.97998L9.97003 9.27998L12.11 10.57L14.24 9.27998L12.11 7.97998ZM12.86 11.87V14.47L14.94 13.21V10.61L12.86 11.87ZM12.86 11.87V14.47L14.94 13.21V10.61L12.86 11.87ZM12.11 7.97998L9.97003 9.27998L12.11 10.57L14.24 9.27998L12.11 7.97998ZM9.28003 13.21L11.36 14.47V11.87L9.28003 10.61V13.21ZM12.86 11.87V14.47L14.94 13.21V10.61L12.86 11.87ZM12.11 7.97998L9.97003 9.27998L12.11 10.57L14.24 9.27998L12.11 7.97998ZM9.28003 13.21L11.36 14.47V11.87L9.28003 10.61V13.21Z" fill="black"/>
<path d="M19.72 4.80999C19.18 4.80999 18.68 5.01 18.29 5.33L12.47 2.08999C12.25 1.95999 11.97 1.95999 11.74 2.08999L5.79001 5.39999C5.39001 5.03999 4.86 4.80999 4.28 4.80999C3.02 4.80999 2 5.84 2 7.1C2 8.1 2.64 8.94 3.53 9.25V15.8C3.53 16.08 3.68001 16.33 3.92001 16.46L9.76001 19.71C9.77001 20.97 10.79 22 12.04 22C13.27 22 14.27 21.01 14.31 19.79L20.3 16.46C20.54 16.33 20.69 16.08 20.69 15.8V9.16999C21.46 8.79999 22 8.02 22 7.1C22 5.84 20.98 4.80999 19.72 4.80999ZM12.46 16.46C12.35 16.51 12.24 16.55 12.11 16.55C11.98 16.55 11.86 16.51 11.76 16.46C11.74 16.45 11.73 16.45 11.72 16.45L8.14001 14.27C7.92001 14.13 7.78 13.89 7.78 13.63V9.27999C7.78 9.25999 7.79001 9.24999 7.79001 9.22999C7.80001 9.13999 7.81999 9.05 7.85999 8.96C7.86999 8.94 7.87 8.91999 7.88 8.89999C7.89001 8.89999 7.89001 8.89 7.89001 8.89C7.95001 8.79 8.02999 8.70999 8.12 8.64999C8.13 8.64999 8.13001 8.64 8.14001 8.63L11.72 6.46C11.96 6.31 12.26 6.31 12.5 6.46L16.08 8.63C16.08 8.64 16.08 8.64999 16.09 8.64999C16.18 8.70999 16.27 8.79 16.33 8.89V8.89999C16.34 8.91999 16.34 8.94 16.35 8.96C16.4 9.05 16.42 9.13999 16.42 9.22999C16.43 9.24999 16.44 9.25999 16.44 9.27999V13.63C16.44 13.89 16.3 14.13 16.08 14.27L12.5 16.45C12.48 16.45 12.47 16.45 12.46 16.46ZM4.28 7.89C3.85 7.89 3.5 7.54 3.5 7.1C3.5 6.66 3.85 6.30999 4.28 6.30999C4.71 6.30999 5.06 6.66 5.06 7.1C5.06 7.54 4.71 7.89 4.28 7.89ZM12.04 20.5C11.61 20.5 11.26 20.14 11.26 19.7C11.26 19.27 11.61 18.91 12.04 18.91C12.47 18.91 12.82 19.27 12.82 19.7C12.82 20.14 12.47 20.5 12.04 20.5ZM19.72 7.89C19.29 7.89 18.94 7.54 18.94 7.1C18.94 6.66 19.29 6.30999 19.72 6.30999C20.15 6.30999 20.5 6.66 20.5 7.1C20.5 7.54 20.15 7.89 19.72 7.89Z" fill="black"/>
</svg>
