<svg width="24" height="24" viewBox="0 0 24 24" fill="none" xmlns="http://www.w3.org/2000/svg">
<path d="M17.15 15.89L12.73 11.97L17.15 8.06C17.54 7.71 17.76 7.22 17.75 6.71C17.74 6.2 17.49 5.71 17.08 5.39L13.36 2.43C12.78 1.97 12 1.88 11.34 2.2C10.67 2.52 10.26 3.18 10.26 3.93V9.78L7.50998 7.34C7.19998 7.07 6.72998 7.09 6.44998 7.4C6.17998 7.71 6.19998 8.18 6.50998 8.46L10.25 11.78V12.17L6.50998 15.49C6.19998 15.76 6.16998 16.24 6.44998 16.55C6.71998 16.86 7.19998 16.89 7.50998 16.61L10.26 14.17V20.08C10.26 20.83 10.68 21.49 11.35 21.81C11.62 21.94 11.9 22 12.18 22C12.61 22 13.03 21.85 13.38 21.57L17.1 18.55C17.51 18.22 17.75 17.74 17.76 17.23C17.76 16.72 17.54 16.23 17.15 15.89ZM11.75 3.92C11.75 3.68 11.92 3.58 11.99 3.54C12.03 3.52 12.09 3.5 12.17 3.5C12.25 3.5 12.33 3.52 12.42 3.59L16.14 6.55C16.22 6.62 16.24 6.69 16.24 6.74C16.24 6.79 16.23 6.86 16.15 6.93L11.74 10.83V3.92H11.75ZM16.15 17.39L12.43 20.41C12.25 20.56 12.06 20.5 11.99 20.46C11.92 20.43 11.75 20.32 11.75 20.08V13.1L16.16 17.01C16.24 17.08 16.25 17.15 16.25 17.2C16.25 17.25 16.23 17.32 16.15 17.39Z" fill="black"/>
</svg>
