<svg width="24" height="24" viewBox="0 0 24 24" fill="none" xmlns="http://www.w3.org/2000/svg">
<path d="M19.6 4.40001C19.43 3.88001 19.14 3.42001 18.75 3.03001C17.43 1.71001 15.12 1.70001 13.8 3.03001C12.86 3.98001 12.54 5.35001 12.95 6.58001L6.58 12.95C5.35 12.55 3.98 12.86 3.02 13.81C2.36 14.46 2 15.34 2 16.28C2 17.22 2.36 18.09 3.02 18.75C3.41 19.14 3.88 19.43 4.4 19.61C4.57 20.12 4.86 20.59 5.25 20.98C5.91 21.64 6.79 22 7.72 22C8.66 22 9.54 21.64 10.2 20.98C11.14 20.03 11.46 18.65 11.05 17.42L17.42 11.06C18.65 11.46 20.02 11.15 20.98 10.2C21.64 9.54001 22 8.66001 22 7.73001C22 6.79001 21.64 5.91001 20.98 5.26001C20.59 4.87001 20.12 4.58001 19.6 4.40001Z" fill="black"/>
</svg>
