<svg width="24" height="24" viewBox="0 0 24 24" fill="none" xmlns="http://www.w3.org/2000/svg">
<path d="M20.45 5.78C20.04 5.37 19.54 5.11 18.99 5.01C18.89 4.47 18.63 3.96 18.22 3.55C17.71 3.04 17.02 2.75 16.28 2.75C15.55 2.75 14.85 3.04 14.34 3.55C13.49 4.41 13.3 5.72 13.84 6.76L6.77 13.83C5.73 13.3 4.43001 13.48 3.56001 14.33C3.05001 14.84 2.76001 15.54 2.76001 16.27C2.76001 17.01 3.05001 17.7 3.56001 18.21C3.97001 18.62 4.47 18.88 5.02 18.98C5.12 19.52 5.38001 20.03 5.79001 20.44C6.30001 20.95 6.99001 21.24 7.73001 21.24C8.46001 21.24 9.16001 20.95 9.67001 20.44C10.52 19.58 10.71 18.27 10.17 17.23L17.24 10.16C18.28 10.69 19.58 10.51 20.45 9.66C20.96 9.15 21.25 8.45 21.25 7.72C21.25 6.98 20.96 6.3 20.45 5.78Z" stroke="black" stroke-width="1.5" stroke-linecap="round" stroke-linejoin="round"/>
</svg>
