<svg width="24" height="24" viewBox="0 0 24 24" fill="none" xmlns="http://www.w3.org/2000/svg">
<path d="M21.25 2H2.75C2.34 2 2 2.34 2 2.75C2 3.16 2.34 3.5 2.75 3.5H10.19L7.36 6.33C7.11 6.58 7.09 6.96 7.26 7.25C7.19 7.45 7.14 7.66 7.14 7.89V20.22C7.14 21.2 7.94 22 8.92 22H15.08C16.06 22 16.86 21.2 16.86 20.22V7.89C16.86 7.66 16.81 7.45 16.74 7.25C16.91 6.96 16.89 6.58 16.64 6.33L13.81 3.5H21.25C21.66 3.5 22 3.16 22 2.75C22 2.34 21.66 2 21.25 2ZM11.25 4.56V5.83C11.25 5.93 11.27 6.03 11.31 6.11H9.7L11.25 4.56ZM14.3 6.11H12.69C12.73 6.03 12.75 5.93 12.75 5.83V4.56L14.3 6.11Z" fill="black"/>
<path d="M21.25 2H2.75C2.34 2 2 2.34 2 2.75C2 3.16 2.34 3.5 2.75 3.5H10.19L7.36 6.33C7.11 6.58 7.09 6.96 7.26 7.25C7.19 7.45 7.14 7.66 7.14 7.89V20.22C7.14 21.2 7.94 22 8.92 22H15.08C16.06 22 16.86 21.2 16.86 20.22V7.89C16.86 7.66 16.81 7.45 16.74 7.25C16.91 6.96 16.89 6.58 16.64 6.33L13.81 3.5H21.25C21.66 3.5 22 3.16 22 2.75C22 2.34 21.66 2 21.25 2ZM11.25 4.56V5.83C11.25 5.93 11.27 6.03 11.31 6.11H9.7L11.25 4.56ZM15.36 7.89V20.22C15.36 20.38 15.24 20.5 15.08 20.5H8.92C8.76 20.5 8.64 20.38 8.64 20.22V7.89C8.64 7.74 8.76 7.61 8.92 7.61H15.08C15.24 7.61 15.36 7.74 15.36 7.89ZM14.3 6.11H12.69C12.73 6.03 12.75 5.93 12.75 5.83V4.56L14.3 6.11Z" fill="black"/>
</svg>
