<svg width="24" height="24" viewBox="0 0 24 24" fill="none" xmlns="http://www.w3.org/2000/svg">
<path d="M6.28 16.25C6.35 16.61 6.67001 16.87 7.02001 16.87C7.07001 16.87 7.11001 16.86 7.16001 16.85C7.56001 16.78 7.83 16.39 7.76 15.98C7.69 15.58 7.82 15.18 8.11 14.96C8.38 14.75 8.72001 14.78 8.82001 14.79C9.23001 14.85 9.61001 14.55 9.66001 14.14C9.71001 13.73 9.43001 13.36 9.02001 13.3C8.71001 13.26 7.92 13.23 7.2 13.76C6.46 14.33 6.11 15.28 6.28 16.25Z" fill="black"/>
<path d="M21.42 10.54C21.42 9.67 21.1 8.84 20.51 8.2C20.18 7.84 19.79 7.56 19.36 7.37V7.26C19.36 5.46 17.99 3.99 16.25 3.81C15.87 2.76 14.85 2 13.69 2C13.06 2 12.47 2.21 12 2.59C11.53 2.21 10.94 2 10.31 2C9.14002 2 8.13002 2.74 7.75002 3.8C7.67002 3.81 7.58002 3.83 7.49002 3.85C7.19002 3.9 6.90001 4.01 6.62001 4.15C5.40001 4.77 4.64002 5.96 4.64002 7.26V7.37C4.21002 7.56 3.82002 7.84 3.49002 8.2C2.90002 8.84 2.58002 9.67 2.58002 10.54C2.58002 11.17 2.76002 11.8 3.08002 12.34C2.73002 12.75 2.49001 13.26 2.43001 13.8C2.32001 14.78 2.74002 15.72 3.49002 16.29C3.41002 16.6 3.37001 16.91 3.37001 17.21C3.37001 19.18 4.97001 20.78 6.93001 20.78C7.17001 20.78 7.41002 20.76 7.64002 20.71C8.18002 21.5 9.09002 22 10.08 22C10.79 22 11.47 21.74 12 21.29C12.53 21.74 13.21 22 13.92 22C14.91 22 15.82 21.5 16.36 20.71C16.59 20.76 16.83 20.78 17.07 20.78C18.97 20.78 20.63 19.11 20.63 17.21C20.63 16.91 20.59 16.6 20.51 16.29C21.26 15.72 21.68 14.78 21.57 13.8C21.57 13.8 21.57 13.8 21.57 13.79C21.51 13.26 21.27 12.75 20.92 12.34C21.24 11.8 21.42 11.17 21.42 10.54ZM11.25 9.24C10.56 9.26 9.90001 8.98 9.51001 8.47C9.07001 7.89 9.11002 7.21 9.14002 6.95C9.20002 6.54 8.91002 6.17 8.50002 6.11C8.09002 6.06 7.71001 6.35 7.65001 6.76C7.60001 7.2 7.54003 8.35 8.32003 9.37C8.99003 10.26 10.05 10.76 11.2 10.76H11.25V19.89C10.98 20.27 10.55 20.5 10.08 20.5C9.48002 20.5 8.93003 20.12 8.71003 19.55C8.64003 19.36 8.50002 19.21 8.31002 19.13C8.12002 19.05 7.91002 19.04 7.72002 19.12C7.48002 19.23 7.21001 19.28 6.93001 19.28C5.79001 19.28 4.87001 18.35 4.87001 17.21C4.87001 16.9 4.94001 16.58 5.09001 16.3C5.18001 16.11 5.19002 15.89 5.11002 15.69C5.04002 15.49 4.88002 15.34 4.69002 15.26C4.17002 15.06 3.85002 14.53 3.92002 13.97C3.96002 13.62 4.18002 13.28 4.50002 13.09C4.69002 12.97 4.82002 12.77 4.85002 12.54C4.88002 12.31 4.80002 12.08 4.64002 11.92C4.28002 11.55 4.08002 11.05 4.08002 10.54C4.08002 10.05 4.26002 9.58 4.60002 9.21C4.88002 8.91 5.23001 8.71 5.62001 8.63C6.02001 8.54 6.28002 8.15 6.20002 7.75C6.17002 7.59 6.14002 7.42 6.14002 7.26C6.14002 6.53 6.59002 5.85 7.31002 5.48C7.46002 5.41 7.62002 5.35 7.75002 5.32C7.82002 5.32 8.07003 5.29 8.21003 5.29C8.23003 5.29 8.26002 5.3 8.28002 5.3C8.71002 5.33 9.06002 5.03 9.10002 4.62C9.16002 3.98 9.68002 3.5 10.31 3.5C10.68 3.5 11.02 3.68 11.25 3.96V9.24ZM16.81 16.69C17.06 17.02 16.99 17.49 16.66 17.74C16.53 17.84 16.37 17.89 16.21 17.89C15.98 17.89 15.76 17.79 15.61 17.59C15.44 17.36 15.12 17.22 14.83 17.27C14.42 17.31 14.05 17.03 13.99 16.62C13.94 16.21 14.23 15.83 14.64 15.78C14.85 15.75 15.07 15.76 15.28 15.79C15.5 15.52 15.76 15.29 16.08 15.15C16.46 14.99 16.91 15.16 17.07 15.55C17.23 15.93 17.05 16.37 16.67 16.53L16.66 16.54C16.71 16.59 16.77 16.63 16.81 16.69ZM15.87 10.87C15.6 10.67 15.28 10.69 15.18 10.71C14.77 10.76 14.4 10.47 14.34 10.06C14.29 9.65 14.57 9.27 14.98 9.22C15.29 9.18 16.07 9.14 16.78 9.68C17.52 10.24 17.87 11.18 17.69 12.14C17.63 12.5 17.31 12.75 16.95 12.75C16.91 12.75 16.86 12.75 16.82 12.74C16.41 12.67 16.14 12.28 16.22 11.87C16.29 11.48 16.15 11.08 15.87 10.87Z" fill="black"/>
</svg>
