<svg width="24" height="24" viewBox="0 0 24 24" fill="none" xmlns="http://www.w3.org/2000/svg">
<path d="M20.83 13.88C20.76 13.28 20.4 12.75 19.89 12.44C20.38 11.94 20.67 11.25 20.67 10.54C20.67 9.85 20.41 9.2 19.95 8.7C19.57 8.29 19.08 8 18.53 7.89C18.57 7.68 18.6 7.47 18.6 7.25C18.6 5.75 17.39 4.54 15.89 4.54C15.89 4.54 15.78 4.54 15.76 4.54C15.72 4.55 15.69 4.55 15.65 4.55C15.57 3.54 14.71 2.75 13.69 2.75C12.98 2.75 12.35 3.13 12 3.71C11.65 3.13 11.02 2.75 10.31 2.75C9.28 2.75 8.44001 3.54 8.35001 4.55C8.35001 4.51 7.69001 4.57 7.63001 4.58C7.40001 4.62 7.17001 4.7 6.96001 4.81C6.04001 5.28 5.39 6.2 5.39 7.25C5.39 7.47 5.42001 7.68 5.46001 7.89C4.92001 8 4.42 8.29 4.04 8.7C3.58 9.2 3.32001 9.85 3.32001 10.54C3.32001 11.25 3.61001 11.94 4.10001 12.44C3.60001 12.75 3.24001 13.28 3.16001 13.88C3.06001 14.79 3.58 15.64 4.4 15.96C4.2 16.35 4.10001 16.78 4.10001 17.21C4.10001 18.76 5.36 20.03 6.92 20.03C7.29 20.03 7.66 19.96 8 19.81C8.32 20.66 9.14001 21.25 10.07 21.25C10.89 21.25 11.61 20.8 11.99 20.13C12.37 20.8 13.09 21.25 13.91 21.25C14.84 21.25 15.66 20.66 15.98 19.81C16.32 19.95 16.69 20.03 17.06 20.03C18.56 20.03 19.88 18.7 19.88 17.21C19.88 16.78 19.78 16.35 19.58 15.96C20.41 15.64 20.93 14.8 20.83 13.88Z" stroke="black" stroke-width="1.5" stroke-linecap="round" stroke-linejoin="round"/>
<path d="M12 3.78V20.22" stroke="black" stroke-width="1.5" stroke-linecap="round" stroke-linejoin="round"/>
<path d="M8.39999 6.85C8.36999 7.08 8.27 8.06 8.92 8.91C9.56 9.75 10.67 10.15 11.79 9.95" stroke="black" stroke-width="1.5" stroke-linecap="round" stroke-linejoin="round"/>
<path d="M8.92 14.04C8.78 14.02 8.18 13.96 7.66 14.36C7.14 14.75 6.9 15.43 7.03 16.11" stroke="black" stroke-width="1.5" stroke-linecap="round" stroke-linejoin="round"/>
<path d="M15.08 9.96C15.22 9.94 15.81 9.88 16.32 10.27C16.83 10.65 17.07 11.33 16.95 12" stroke="black" stroke-width="1.5" stroke-linecap="round" stroke-linejoin="round"/>
<path d="M14.74 16.52C15.29 16.45 15.88 16.69 16.21 17.14" stroke="black" stroke-width="1.5" stroke-linecap="round" stroke-linejoin="round"/>
<path d="M15.68 16.47C15.83 16.19 16.08 15.96 16.38 15.84" stroke="black" stroke-width="1.5" stroke-linecap="round" stroke-linejoin="round"/>
</svg>
