<svg width="24" height="24" viewBox="0 0 24 24" fill="none" xmlns="http://www.w3.org/2000/svg">
<path d="M21.62 10.89C21.27 10.45 20.75 10.19 20.18 10.19H18.41C18.69 9.75 18.85 9.23 18.85 8.67C18.85 7.09 17.57 5.8 15.99 5.8C14.94 5.8 14.04 6.37 13.54 7.21C13.18 6.99 12.77 6.86001 12.33 6.86001C11.65 6.86001 11.04 7.16001 10.61 7.63001C10.15 6.65001 9.17004 5.96 8.01004 5.96C7.72004 5.96 7.43004 6.02 7.17004 6.1L4.07004 3.01C3.78004 2.71 3.30004 2.71 3.01004 3.01C2.72004 3.3 2.72004 3.77001 3.01004 4.07001L5.88004 6.93001C5.43004 7.44001 5.15002 8.10001 5.15002 8.82C5.15002 9.32 5.29004 9.78 5.51004 10.19H3.82004C3.25004 10.19 2.73004 10.45 2.38004 10.89C2.04004 11.33 1.92003 11.89 2.06003 12.43C2.83003 15.46 4.91004 17.88 7.60004 19.15C7.57004 19.23 7.55002 19.31 7.55002 19.4V20.46C7.55002 20.87 7.88002 21.21 8.30002 21.21H15.7C16.12 21.21 16.45 20.87 16.45 20.46V19.4C16.45 19.31 16.43 19.23 16.4 19.15C19.09 17.88 21.17 15.46 21.94 12.43C22.08 11.89 21.96 11.33 21.62 10.89ZM15.99 7.3C16.74 7.3 17.35 7.92 17.35 8.67C17.35 9.42 16.74 10.03 15.99 10.03C15.23 10.03 14.62 9.42 14.62 8.67C14.62 7.92 15.23 7.3 15.99 7.3ZM12.33 8.36001C12.79 8.36001 13.16 8.74001 13.16 9.20001C13.16 9.66001 12.79 10.03 12.33 10.03C11.87 10.03 11.49 9.66001 11.49 9.20001C11.49 8.74001 11.87 8.36001 12.33 8.36001ZM8.01004 7.46C8.77004 7.46 9.38004 8.07 9.38004 8.82C9.38004 9.58 8.77004 10.19 8.01004 10.19C7.26004 10.19 6.65002 9.58 6.65002 8.82C6.65002 8.07 7.26004 7.46 8.01004 7.46ZM12 18.65C9.04003 18.65 6.37002 17.17 4.77002 14.84H19.23C17.63 17.17 14.96 18.65 12 18.65ZM20.04 13.36C20 13.36 19.96 13.34 19.92 13.34H4.08002C4.04002 13.34 4.00002 13.36 3.96002 13.36C3.78002 12.95 3.62004 12.51 3.51004 12.06C3.48004 11.94 3.53003 11.86 3.56003 11.81C3.59003 11.78 3.68004 11.69 3.82004 11.69H20.18C20.32 11.69 20.41 11.78 20.44 11.81C20.47 11.86 20.52 11.94 20.49 12.06C20.38 12.51 20.22 12.95 20.04 13.36Z" fill="black"/>
<path d="M21.62 10.89C21.27 10.45 20.75 10.19 20.18 10.19H18.41C18.69 9.75 18.85 9.23 18.85 8.67C18.85 7.09 17.57 5.8 15.99 5.8C14.94 5.8 14.04 6.37 13.54 7.21C13.18 6.99 12.77 6.86001 12.33 6.86001C11.65 6.86001 11.04 7.16001 10.61 7.63001C10.15 6.65001 9.17004 5.96 8.01004 5.96C7.72004 5.96 7.43004 6.02 7.17004 6.1L4.07004 3.01C3.78004 2.71 3.30004 2.71 3.01004 3.01C2.72004 3.3 2.72004 3.77001 3.01004 4.07001L5.88004 6.93001C5.43004 7.44001 5.15002 8.10001 5.15002 8.82C5.15002 9.32 5.29004 9.78 5.51004 10.19H3.82004C3.25004 10.19 2.73004 10.45 2.38004 10.89C2.04004 11.33 1.92003 11.89 2.06003 12.43C2.83003 15.46 4.91004 17.88 7.60004 19.15C7.57004 19.23 7.55002 19.31 7.55002 19.4V20.46C7.55002 20.87 7.88002 21.21 8.30002 21.21H15.7C16.12 21.21 16.45 20.87 16.45 20.46V19.4C16.45 19.31 16.43 19.23 16.4 19.15C19.09 17.88 21.17 15.46 21.94 12.43C22.08 11.89 21.96 11.33 21.62 10.89ZM20.04 13.36C20 13.36 19.96 13.34 19.92 13.34H4.08002C4.04002 13.34 4.00002 13.36 3.96002 13.36C3.78002 12.95 3.62004 12.51 3.51004 12.06C3.48004 11.94 3.53003 11.86 3.56003 11.81C3.59003 11.78 3.68004 11.69 3.82004 11.69H20.18C20.32 11.69 20.41 11.78 20.44 11.81C20.47 11.86 20.52 11.94 20.49 12.06C20.38 12.51 20.22 12.95 20.04 13.36Z" fill="black"/>
</svg>
