<svg width="24" height="24" viewBox="0 0 24 24" fill="none" xmlns="http://www.w3.org/2000/svg">
<path d="M9.67 20.45C9.16 20.96 8.46 21.24 7.72 21.25C6.99 21.24 6.3 20.96 5.78 20.44C5.37 20.03 5.12 19.53 5.01 18.99C4.47 18.88 3.96 18.63 3.56 18.22C3.04 17.7 2.76 17.01 2.75 16.28C2.76 15.55 3.04 14.84 3.55 14.33C4.41 13.48 5.72 13.29 6.76 13.82L8.67 11.91L10.36 12.22L10.37 13.63L11.8 13.67L12.26 15.16L10.17 17.25C10.71 18.28 10.52 19.59 9.67 20.45Z" stroke="black" stroke-width="1.5" stroke-linecap="round" stroke-linejoin="round"/>
<path d="M14.33 3.55C14.84 3.04 15.54 2.76 16.28 2.75C17.01 2.76 17.7 3.04 18.22 3.56C18.63 3.97 18.88 4.47 18.99 5.01C19.54 5.12 20.04 5.37 20.44 5.78C20.96 6.3 21.24 6.99 21.25 7.72C21.24 8.45 20.96 9.16 20.45 9.67C19.59 10.52 18.28 10.71 17.24 10.18L14.75 12.67L14.29 11.18L12.85 11.15L12.84 9.73L11.15 9.42L13.81 6.76C13.29 5.72 13.48 4.41 14.33 3.55Z" stroke="black" stroke-width="1.5" stroke-linecap="round" stroke-linejoin="round"/>
<path d="M11.16 9.42L12.85 9.73L12.86 11.14L14.3 11.17L14.75 12.66" stroke="black" stroke-width="1.5" stroke-linecap="round" stroke-linejoin="round"/>
<path d="M8.67 11.91L10.36 12.22L10.37 13.63L11.8 13.66L12.26 15.15" stroke="black" stroke-width="1.5" stroke-linecap="round" stroke-linejoin="round"/>
</svg>
