<svg width="24" height="24" viewBox="0 0 24 24" fill="none" xmlns="http://www.w3.org/2000/svg">
<path d="M18.46 4.79999C17.75 3.56999 16.42 2.79999 15 2.79999H9C7.58 2.79999 6.25 3.56999 5.54 4.79999L2.54 9.99998C1.82 11.23 1.82 12.77 2.54 14L5.54 19.2C6.25 20.43 7.58 21.2 9 21.2H15C16.42 21.2 17.75 20.43 18.46 19.2L21.46 14C22.18 12.77 22.18 11.23 21.46 9.99998L18.46 4.79999ZM17.14 12.75H6.86C6.45 12.75 6.11 12.41 6.11 12C6.11 11.59 6.45 11.25 6.86 11.25H17.14C17.55 11.25 17.89 11.59 17.89 12C17.89 12.41 17.55 12.75 17.14 12.75ZM15.08 15.83H8.92C8.5 15.83 8.17 15.5 8.17 15.08C8.17 14.67 8.5 14.33 8.92 14.33H15.08C15.5 14.33 15.83 14.67 15.83 15.08C15.83 15.5 15.5 15.83 15.08 15.83ZM8.92 8.16998H15.08C15.5 8.16998 15.83 8.49998 15.83 8.91998C15.83 9.32998 15.5 9.66998 15.08 9.66998H8.92C8.5 9.66998 8.17 9.32998 8.17 8.91998C8.17 8.49998 8.5 8.16998 8.92 8.16998Z" fill="black"/>
</svg>
