<svg width="24" height="24" viewBox="0 0 24 24" fill="none" xmlns="http://www.w3.org/2000/svg">
<path d="M20.97 11.63V11.46C20.97 6.80999 17.19 3.01999 12.53 3.01999H11.47C6.81 3.01999 3.03 6.80999 3.03 11.46V11.63C2.41 12.04 2 12.74 2 13.54C2 14.29 2.37 14.95 2.93 15.37C2.94 15.48 2.97 15.58 3.03 15.68V17C3.03 19.19 4.81 20.97 7 20.97H17C19.19 20.97 20.97 19.19 20.97 17V15.45C21.59 15.04 22 14.33 22 13.54C22 12.74 21.59 12.04 20.97 11.63ZM11.47 4.51999H12.53C16.29 4.51999 19.35 7.51999 19.47 11.25H4.53C4.65 7.51999 7.71 4.51999 11.47 4.51999ZM19.47 17C19.47 18.36 18.36 19.47 17 19.47H7C5.64 19.47 4.53 18.36 4.53 17V16.97C4.69 17.02 4.86 17.06 5.07 17.06C6.01 17.06 6.5 16.46 6.82 16.06C6.88 15.98 6.95 15.91 7.02 15.83H7.81C7.82 15.83 7.82 15.83 7.82 15.83C7.88 15.91 7.95 15.98 8.01 16.06C8.34 16.46 8.83 17.06 9.76 17.06C10.7 17.06 11.19 16.46 11.52 16.06C11.58 15.98 11.65 15.91 11.71 15.83H12.51C12.58 15.91 12.65 15.98 12.71 16.06C13.03 16.46 13.52 17.06 14.46 17.06C15.41 17.06 15.9 16.46 16.23 16.06C16.29 15.98 16.35 15.9 16.42 15.83H17.22C17.29 15.91 17.35 15.98 17.42 16.06C17.74 16.46 18.23 17.06 19.17 17.06C19.28 17.06 19.38 17.03 19.47 16.99V17ZM19.71 14.33H4.29C3.85 14.33 3.5 13.97 3.5 13.54C3.5 13.1 3.85 12.75 4.29 12.75H19.71C20.15 12.75 20.5 13.1 20.5 13.54C20.5 13.97 20.15 14.33 19.71 14.33Z" fill="black"/>
<path d="M20.97 11.63V11.46C20.97 6.80999 17.19 3.01999 12.53 3.01999H11.47C6.81 3.01999 3.03 6.80999 3.03 11.46V11.63C2.41 12.04 2 12.74 2 13.54C2 14.29 2.37 14.95 2.93 15.37C2.94 15.48 2.97 15.58 3.03 15.68V17C3.03 19.19 4.81 20.97 7 20.97H17C19.19 20.97 20.97 19.19 20.97 17V15.45C21.59 15.04 22 14.33 22 13.54C22 12.74 21.59 12.04 20.97 11.63ZM19.47 17C19.47 18.36 18.36 19.47 17 19.47H7C5.64 19.47 4.53 18.36 4.53 17V16.97C4.69 17.02 4.86 17.06 5.07 17.06C6.01 17.06 6.5 16.46 6.82 16.06C6.88 15.98 6.95 15.91 7.02 15.83H7.81C7.82 15.83 7.82 15.83 7.82 15.83C7.88 15.91 7.95 15.98 8.01 16.06C8.34 16.46 8.83 17.06 9.76 17.06C10.7 17.06 11.19 16.46 11.52 16.06C11.58 15.98 11.65 15.91 11.71 15.83H12.51C12.58 15.91 12.65 15.98 12.71 16.06C13.03 16.46 13.52 17.06 14.46 17.06C15.41 17.06 15.9 16.46 16.23 16.06C16.29 15.98 16.35 15.9 16.42 15.83H17.22C17.29 15.91 17.35 15.98 17.42 16.06C17.74 16.46 18.23 17.06 19.17 17.06C19.28 17.06 19.38 17.03 19.47 16.99V17ZM19.71 14.33H4.29C3.85 14.33 3.5 13.97 3.5 13.54C3.5 13.1 3.85 12.75 4.29 12.75H19.71C20.15 12.75 20.5 13.1 20.5 13.54C20.5 13.97 20.15 14.33 19.71 14.33Z" fill="black"/>
</svg>
