<svg width="24" height="24" viewBox="0 0 24 24" fill="none" xmlns="http://www.w3.org/2000/svg">
<path d="M15.36 7.33998C15.36 7.77998 15.01 8.12999 14.57 8.12999H9.43001C8.99001 8.12999 8.64001 7.77998 8.64001 7.33998C8.64001 6.89998 8.99001 6.54999 9.43001 6.54999H14.57C15.01 6.54999 15.36 6.89998 15.36 7.33998Z" fill="black"/>
<path d="M16.11 2H7.89C5.78 2 4.06 3.72 4.06 5.83V18.16C4.06 20.28 5.78 22 7.89 22H16.11C18.22 22 19.94 20.28 19.94 18.16V5.83C19.94 3.72 18.22 2 16.11 2ZM14.57 9.63H9.42999C8.16999 9.63 7.14 8.6 7.14 7.34C7.14 6.08 8.16999 5.05 9.42999 5.05H14.57C15.83 5.05 16.86 6.08 16.86 7.34C16.86 8.6 15.83 9.63 14.57 9.63ZM9.42999 16.38C10.13 16.38 10.69 16.95 10.69 17.65C10.69 18.35 10.13 18.91 9.42999 18.91C8.72999 18.91 8.17 18.35 8.17 17.65C8.17 16.95 8.72999 16.38 9.42999 16.38ZM8.17 12.51C8.17 11.81 8.72999 11.25 9.42999 11.25C10.13 11.25 10.69 11.81 10.69 12.51C10.69 13.21 10.13 13.77 9.42999 13.77C8.72999 13.77 8.17 13.21 8.17 12.51ZM15.46 18.54C15.22 18.79 14.89 18.91 14.57 18.91C14.25 18.91 13.92 18.79 13.68 18.54C13.18 18.05 13.18 17.25 13.67 16.76C14.17 16.26 14.97 16.26 15.46 16.75C15.96 17.25 15.96 18.05 15.46 18.54ZM13.67 11.62C14.17 11.12 14.97 11.12 15.46 11.62C15.7 11.86 15.83 12.17 15.83 12.51C15.83 12.85 15.7 13.17 15.46 13.4C15.22 13.64 14.91 13.77 14.57 13.77C14.23 13.77 13.92 13.64 13.68 13.4C13.18 12.91 13.18 12.11 13.67 11.62Z" fill="black"/>
</svg>
