<svg width="24" height="24" viewBox="0 0 24 24" fill="none" xmlns="http://www.w3.org/2000/svg">
<path d="M16.11 21.25H7.89C6.19 21.25 4.81 19.87 4.81 18.17V5.84001C4.81 4.14001 6.19 2.76001 7.89 2.76001H16.11C17.81 2.76001 19.19 4.14001 19.19 5.84001V18.17C19.19 19.87 17.81 21.25 16.11 21.25Z" stroke="black" stroke-width="1.5" stroke-linecap="round" stroke-linejoin="round"/>
<path d="M14.57 8.88002H9.42999C8.57999 8.88002 7.89 8.19001 7.89 7.34001C7.89 6.49001 8.57999 5.80002 9.42999 5.80002H14.57C15.42 5.80002 16.11 6.49001 16.11 7.34001C16.11 8.19001 15.42 8.88002 14.57 8.88002Z" stroke="black" stroke-width="1.5" stroke-linecap="round" stroke-linejoin="round"/>
<path d="M9.42999 13.02C9.71166 13.02 9.94 12.7917 9.94 12.51C9.94 12.2283 9.71166 12 9.42999 12C9.14833 12 8.92 12.2283 8.92 12.51C8.92 12.7917 9.14833 13.02 9.42999 13.02Z" fill="black" stroke="black" stroke-width="1.5" stroke-linecap="round" stroke-linejoin="round"/>
<path d="M14.57 13.02C14.8517 13.02 15.08 12.7917 15.08 12.51C15.08 12.2283 14.8517 12 14.57 12C14.2883 12 14.06 12.2283 14.06 12.51C14.06 12.7917 14.2883 13.02 14.57 13.02Z" fill="black" stroke="black" stroke-width="1.5" stroke-linecap="round" stroke-linejoin="round"/>
<path d="M9.42999 18.16C9.71166 18.16 9.94 17.9317 9.94 17.65C9.94 17.3683 9.71166 17.14 9.42999 17.14C9.14833 17.14 8.92 17.3683 8.92 17.65C8.92 17.9317 9.14833 18.16 9.42999 18.16Z" fill="black" stroke="black" stroke-width="1.5" stroke-linecap="round" stroke-linejoin="round"/>
<path d="M14.57 18.16C14.8517 18.16 15.08 17.9317 15.08 17.65C15.08 17.3683 14.8517 17.14 14.57 17.14C14.2883 17.14 14.06 17.3683 14.06 17.65C14.06 17.9317 14.2883 18.16 14.57 18.16Z" fill="black" stroke="black" stroke-width="1.5" stroke-linecap="round" stroke-linejoin="round"/>
</svg>
