<svg width="24" height="24" viewBox="0 0 24 24" fill="none" xmlns="http://www.w3.org/2000/svg">
<path d="M12.01 15.25C13.57 15.25 14.85 14.02 14.85 12.5C14.85 10.98 13.57 9.75 12.01 9.75C10.44 9.75 9.16003 10.98 9.16003 12.5C9.16003 14.02 10.44 15.25 12.01 15.25Z" fill="black"/>
<path d="M19.2 6.25H16.86C16.53 6.25 16.24 6.05 16.14 5.76C15.83 4.86 14.97 4.25 14 4.25H10.01C9.04001 4.25 8.18 4.86 7.87 5.76C7.77 6.05 7.47999 6.25 7.14999 6.25H6.59V6C6.59 5.59 6.25 5.25 5.84 5.25C5.42 5.25 5.09 5.59 5.09 6V6.25H4.81C3.26 6.25 2.01001 7.48 2.01001 9V17C2.01001 18.52 3.26 19.75 4.81 19.75H19.2C20.75 19.75 22.01 18.52 22.01 17V9C22.01 7.48 20.75 6.25 19.2 6.25ZM12.01 8.25C14.4 8.25 16.35 10.16 16.35 12.5C16.35 14.84 14.4 16.75 12.01 16.75C9.61001 16.75 7.66 14.84 7.66 12.5C7.66 10.16 9.61001 8.25 12.01 8.25Z" fill="black"/>
</svg>
