<svg width="24" height="24" viewBox="0 0 24 24" fill="none" xmlns="http://www.w3.org/2000/svg">
<path d="M18.08 2.37999C17.71 1.99999 17.16 1.89999 16.67 2.09999C16.19 2.29999 15.88 2.76999 15.88 3.28999V5.91999C14.91 5.42999 13.78 5.22999 12.57 5.35999C10.83 5.55999 9.11999 6.40999 7.76999 7.76999C5.38999 10.14 4.71999 13.48 5.92999 15.87H3.29999C2.76999 15.87 2.29999 16.18 2.09999 16.67C1.89999 17.16 2.00999 17.71 2.37999 18.08L5.90999 21.62C6.15999 21.86 6.48999 22 6.82999 22C6.99999 22 7.15999 21.96 7.32999 21.9C7.80999 21.7 8.11999 21.23 8.11999 20.7V18.05C8.90999 18.44 9.77999 18.66 10.69 18.66C12.58 18.66 14.63 17.83 16.23 16.23C17.59 14.87 18.44 13.17 18.63 11.42C18.77 10.21 18.57 9.08 18.08 8.12H20.7C21.23 8.12 21.7 7.80999 21.9 7.31999C22.1 6.83999 21.99 6.28 21.62 5.91L18.08 2.37999ZM6.61999 20.2L3.78999 17.37H6.61999V20.2ZM12.38 16.9C11.76 17.1 11.13 17.18 10.54 17.16L11.64 7.26999C11.64 7.20999 11.63 7.15999 11.62 7.09999C11.99 6.97999 12.36 6.89999 12.74 6.84999C12.93 6.82999 13.12 6.81999 13.31 6.81999C13.36 6.81999 13.41 6.82999 13.46 6.83999L12.36 16.72C12.36 16.78 12.37 16.84 12.38 16.9ZM17.38 6.62V3.78999L20.21 6.62H17.38Z" fill="black"/>
</svg>
