<svg width="24" height="24" viewBox="0 0 24 24" fill="none" xmlns="http://www.w3.org/2000/svg">
<path d="M21.25 11.83H19.95V9.83C19.95 9.42 19.61 9.08 19.2 9.08C18.79 9.08 18.45 9.42 18.45 9.83V11.83H17.15C16.74 11.83 16.4 12.17 16.4 12.58V18.5C16.4 18.91 16.74 19.25 17.15 19.25H18.45V21.25C18.45 21.66 18.79 22 19.2 22C19.61 22 19.95 21.66 19.95 21.25V19.25H21.25C21.66 19.25 22 18.91 22 18.5V12.58C22 12.17 21.66 11.83 21.25 11.83Z" fill="black"/>
<path d="M6.85 4.01H5.55V2.75C5.55 2.34 5.21 2 4.8 2C4.39 2 4.05 2.34 4.05 2.75V4.01H2.75C2.34 4.01 2 4.35 2 4.76V14.2C2 14.61 2.34 14.95 2.75 14.95H4.05V16.39C4.05 16.8 4.39 17.14 4.8 17.14C5.21 17.14 5.55 16.8 5.55 16.39V14.95H6.85C7.26 14.95 7.6 14.61 7.6 14.2V4.76C7.6 4.35 7.26 4.01 6.85 4.01Z" fill="black"/>
<path d="M13.97 6.72H12.72V3.64C12.72 3.23 12.38 2.89 11.97 2.89C11.56 2.89 11.22 3.23 11.22 3.64V6.72H9.98001C9.57001 6.72 9.23001 7.06 9.23001 7.47V17.09C9.23001 17.5 9.57001 17.84 9.98001 17.84H11.22V19.2C11.22 19.61 11.56 19.95 11.97 19.95C12.38 19.95 12.72 19.61 12.72 19.2V17.84H13.97C14.38 17.84 14.72 17.5 14.72 17.09V7.47C14.72 7.05 14.39 6.72 13.97 6.72Z" fill="black"/>
</svg>
