<svg width="24" height="24" viewBox="0 0 24 24" fill="none" xmlns="http://www.w3.org/2000/svg">
<path d="M17.84 15.61C17.94 15.52 18.04 15.45 18.13 15.36C20.68 12.9 21.5 9.98 21.75 8.46C21.8 8.22 21.71 7.97 21.53 7.8C21.35 7.62 21.1 7.56 20.86 7.6C19.55 7.89 17.19 8.64001 15.05 10.61C15.14 6.71001 13.58 3.76001 12.62 2.33001C12.34 1.92001 11.66 1.92001 11.38 2.33001C10.42 3.76001 8.86 6.71001 8.95 10.61C6.81 8.64001 4.45 7.89 3.14 7.6C2.9 7.56 2.65001 7.62 2.47001 7.8C2.29001 7.97 2.2 8.22 2.25 8.46C2.5 9.98 3.32 12.9 5.87 15.36C5.96 15.45 6.06001 15.52 6.16001 15.61C4.24001 16.08 2.88001 17.33 2.19001 18.11C2.05001 18.27 1.98 18.47 2 18.67C2.02 18.88 2.12 19.07 2.28 19.19C3.17 19.9 4.88001 20.98 7.05001 20.98C7.36001 20.98 7.69001 20.96 8.02001 20.91C9.32001 20.72 10.38 20.16 11.22 19.53V21.25C11.22 21.67 11.56 22 11.97 22C12.38 22 12.72 21.67 12.72 21.25V19.49C13.57 20.14 14.65 20.71 15.98 20.91C16.31 20.96 16.64 20.98 16.95 20.98C19.12 20.98 20.83 19.9 21.72 19.19C21.88 19.07 21.98 18.88 22 18.67C22.02 18.47 21.95 18.27 21.81 18.11C21.12 17.33 19.76 16.08 17.84 15.61Z" fill="black"/>
</svg>
