<svg width="24" height="24" viewBox="0 0 24 24" fill="none" xmlns="http://www.w3.org/2000/svg">
<path d="M7.84 16.15C6.59533 16.1571 5.37948 16.5254 4.34 17.21C3.74084 17.5877 3.20438 18.0567 2.75 18.6C3.31644 19.061 3.94621 19.4382 4.62 19.72C5.65847 20.155 6.79285 20.3102 7.91 20.17C9.52443 19.9134 10.9839 19.0605 12 17.78" stroke="black" stroke-width="1.5" stroke-linecap="round" stroke-linejoin="round"/>
<path d="M16.1 16.15C17.3447 16.1571 18.5605 16.5254 19.6 17.21C20.1992 17.5877 20.7356 18.0567 21.19 18.6C20.6236 19.061 19.9938 19.4382 19.32 19.72C18.2815 20.155 17.1471 20.3102 16.03 20.17C14.4156 19.9134 12.9561 19.0605 11.94 17.78" stroke="black" stroke-width="1.5" stroke-linecap="round" stroke-linejoin="round"/>
<path d="M9.85 12.72C8.72937 11.2433 7.27687 10.0512 5.61 9.24C4.77796 8.83715 3.90215 8.53179 3 8.33C3.15509 9.24735 3.41686 10.1434 3.78 11C4.38959 12.4242 5.27687 13.7126 6.39 14.79C7.94702 16.289 9.8888 17.3274 12 17.79" stroke="black" stroke-width="1.5" stroke-linecap="round" stroke-linejoin="round"/>
<path d="M14.13 12.72C15.2434 11.2403 16.6935 10.0473 18.36 9.24C19.2016 8.83496 20.0876 8.52956 21 8.33C20.8353 9.2486 20.5634 10.1447 20.19 11C19.5842 12.4263 18.6965 13.7154 17.58 14.79C16.023 16.289 14.0812 17.3274 11.97 17.79" stroke="black" stroke-width="1.5" stroke-linecap="round" stroke-linejoin="round"/>
<path d="M12 17.78C13.3944 15.7235 14.1938 13.3219 14.31 10.84C14.4124 7.96721 13.6038 5.1356 12 2.75C10.3962 5.1356 9.58763 7.96721 9.69 10.84C9.80619 13.3219 10.6056 15.7235 12 17.78V17.78Z" stroke="black" stroke-width="1.5" stroke-linecap="round" stroke-linejoin="round"/>
<path d="M11.97 17.78V21.25" stroke="black" stroke-width="1.5" stroke-linecap="round" stroke-linejoin="round"/>
</svg>
