<svg width="24" height="24" viewBox="0 0 24 24" fill="none" xmlns="http://www.w3.org/2000/svg">
<path d="M2.76 14.71L2.75001 11.98C2.74001 9.27 4.75 6.98 7.45 6.65L10.64 6.27C11.88 6.12 13.16 6.41 14.21 7.1C15.27 7.79 16.04 8.84 16.4 10.05L17.29 13.05L21.07 15.11C21.17 15.17 21.24 15.27 21.25 15.4C21.26 15.51 21.21 15.63 21.12 15.71C19.51 16.99 17.56 17.71 15.5 17.79H15.18C13.24 17.79 11.37 17.2 9.76 16.08L7.64001 14.61" stroke="black" stroke-width="1.5" stroke-linecap="round" stroke-linejoin="round"/>
<path d="M2.88 14.97L17.28 13.05" stroke="black" stroke-width="1.5" stroke-linecap="round" stroke-linejoin="round"/>
<path d="M16.39 10.05L12.73 10.58" stroke="black" stroke-width="1.5" stroke-linecap="round" stroke-linejoin="round"/>
</svg>
