<svg width="24" height="24" viewBox="0 0 24 24" fill="none" xmlns="http://www.w3.org/2000/svg">
<path d="M19.15 15.72H19.6C20.51 15.72 21.24 14.86 21.24 13.84V12.45C21.24 11.72 20.86 11.04 20.27 10.74L18.79 9.97L17.47 7.6C17.09 6.91 16.42 6.5 15.71 6.51H10.12C9.47 6.51 8.86 6.85 8.47 7.43L6.77 9.94L3.96 10.8C3.24 11.02 2.75 11.76 2.75 12.6V13.83C2.75 14.85 3.48 15.71 4.39 15.71H4.63" stroke="black" stroke-width="1.5" stroke-linecap="round" stroke-linejoin="round"/>
<path d="M8.87 15.72H14.77" stroke="black" stroke-width="1.5" stroke-linecap="round" stroke-linejoin="round"/>
<path d="M6.69 17.46C7.83322 17.46 8.76 16.5332 8.76 15.39C8.76 14.2468 7.83322 13.32 6.69 13.32C5.54677 13.32 4.62 14.2468 4.62 15.39C4.62 16.5332 5.54677 17.46 6.69 17.46Z" stroke="black" stroke-width="1.5" stroke-linecap="round" stroke-linejoin="round"/>
<path d="M17.08 17.46C18.2232 17.46 19.15 16.5332 19.15 15.39C19.15 14.2468 18.2232 13.32 17.08 13.32C15.9368 13.32 15.01 14.2468 15.01 15.39C15.01 16.5332 15.9368 17.46 17.08 17.46Z" stroke="black" stroke-width="1.5" stroke-linecap="round" stroke-linejoin="round"/>
</svg>
