<svg width="24" height="24" viewBox="0 0 24 24" fill="none" xmlns="http://www.w3.org/2000/svg">
<path d="M20.63 10.06L19.35 9.40001L18.14 7.23001C17.63 6.30001 16.71 5.74001 15.73 5.75001H10.14C9.24 5.75001 8.39 6.22001 7.86 7.00001L6.32 9.29001L3.74 10.08C2.72 10.4 2 11.43 2 12.6V13.83C2 15.17 2.91 16.26 4.08 16.43C4.49 17.47 5.51 18.21 6.69 18.21C7.86 18.21 8.87 17.49 9.29 16.47H14.48C14.91 17.49 15.91 18.21 17.08 18.21C18.26 18.21 19.27 17.48 19.69 16.46C20.97 16.41 22 15.25 22 13.83V12.44C22 11.42 21.46 10.49 20.63 10.06ZM6.69 16.71C5.96 16.71 5.37 16.11 5.37 15.39C5.37 14.66 5.96 14.07 6.69 14.07C7.42 14.07 8.01 14.66 8.01 15.39C8.01 16.11 7.42 16.71 6.69 16.71ZM17.08 16.71C16.36 16.71 15.77 16.11 15.77 15.39C15.77 14.66 16.36 14.07 17.08 14.07C17.81 14.07 18.4 14.66 18.4 15.39C18.4 16.11 17.81 16.71 17.08 16.71Z" fill="black"/>
</svg>
