<svg width="24" height="24" viewBox="0 0 24 24" fill="none" xmlns="http://www.w3.org/2000/svg">
<path d="M18.25 4.25H5.75C3.68 4.25 2 5.93 2 8V16C2 18.06 3.68 19.75 5.75 19.75H18.25C20.32 19.75 22 18.06 22 16V8C22 5.93 20.32 4.25 18.25 4.25ZM5.84 13.02C5.27 13.02 4.81 12.56 4.81 12C4.81 11.43 5.27 10.97 5.84 10.97C6.41 10.97 6.87 11.43 6.87 12C6.87 12.56 6.41 13.02 5.84 13.02ZM12 15.32C10.17 15.32 8.67999 13.83 8.67999 12C8.67999 10.17 10.17 8.67999 12 8.67999C13.83 8.67999 15.32 10.17 15.32 12C15.32 13.83 13.83 15.32 12 15.32ZM18.14 13.02C17.58 13.02 17.12 12.56 17.12 12C17.12 11.43 17.58 10.97 18.14 10.97C18.71 10.97 19.17 11.43 19.17 12C19.17 12.56 18.71 13.02 18.14 13.02Z" fill="black"/>
<path d="M12 13.82C13.0052 13.82 13.82 13.0052 13.82 12C13.82 10.9948 13.0052 10.18 12 10.18C10.9948 10.18 10.18 10.9948 10.18 12C10.18 13.0052 10.9948 13.82 12 13.82Z" fill="black"/>
</svg>
