<svg width="24" height="24" viewBox="0 0 24 24" fill="none" xmlns="http://www.w3.org/2000/svg">
<path d="M18.25 19H5.75C4.09 19 2.75 17.66 2.75 16V8C2.75 6.34 4.09 5 5.75 5H18.25C19.91 5 21.25 6.34 21.25 8V16C21.25 17.66 19.91 19 18.25 19Z" stroke="black" stroke-width="1.5" stroke-linecap="round" stroke-linejoin="round"/>
<path d="M12 14.57C13.4194 14.57 14.57 13.4194 14.57 12C14.57 10.5806 13.4194 9.42999 12 9.42999C10.5806 9.42999 9.42999 10.5806 9.42999 12C9.42999 13.4194 10.5806 14.57 12 14.57Z" stroke="black" stroke-width="1.5" stroke-linecap="round" stroke-linejoin="round"/>
<path d="M5.84 13.03C6.40885 13.03 6.87 12.5689 6.87 12C6.87 11.4311 6.40885 10.97 5.84 10.97C5.27114 10.97 4.81 11.4311 4.81 12C4.81 12.5689 5.27114 13.03 5.84 13.03Z" fill="black"/>
<path d="M18.14 13.03C18.7089 13.03 19.17 12.5689 19.17 12C19.17 11.4311 18.7089 10.97 18.14 10.97C17.5711 10.97 17.11 11.4311 17.11 12C17.11 12.5689 17.5711 13.03 18.14 13.03Z" fill="black"/>
</svg>
