<svg width="24" height="24" viewBox="0 0 24 24" fill="none" xmlns="http://www.w3.org/2000/svg">
<path d="M11.98 2C7.52001 2 3.89001 5.63001 3.89001 10.1C3.89001 11.69 4.34999 13.18 5.14999 14.43C5.43999 14.89 5.76999 15.31 6.14999 15.7L6.45999 16.01C6.55999 16.09 6.65 16.18 6.75 16.27C7.2 16.65 7.70001 16.98 8.23001 17.26C8.36001 17.33 8.49 17.39 8.62 17.45C8.75 17.51 8.87999 17.57 9.01999 17.62C9.48999 17.81 9.99 17.96 10.5 18.05C10.98 18.14 11.47 18.19 11.98 18.19C12.5 18.19 13 18.14 13.49 18.04C14.01 17.95 14.5 17.81 14.97 17.62V17.61C15.1 17.56 15.24 17.5 15.37 17.44C15.5 17.38 15.63 17.31 15.76 17.25C15.79 17.23 15.81 17.22 15.84 17.21C16.19 17.01 16.52 16.8 16.83 16.58C16.96 16.47 17.08 16.38 17.2 16.28C17.31 16.18 17.42 16.09 17.53 15.99C17.63 15.89 17.74 15.78 17.84 15.68C18.21 15.29 18.54 14.87 18.84 14.41C19.62 13.16 20.08 11.68 20.08 10.1C20.08 5.63001 16.45 2 11.98 2ZM15.82 9.48999L14.23 11.05C14.16 11.11 14.13 11.21 14.15 11.31L14.53 13.5C14.57 13.74 14.32 13.92 14.1 13.81L12.13 12.77C12.04 12.73 11.94 12.73 11.85 12.77L9.88 13.81C9.66001 13.92 9.41001 13.74 9.45001 13.5L9.82999 11.31C9.83999 11.21 9.81 11.12 9.75 11.05L8.14999 9.48999C7.97999 9.31999 8.07 9.02999 8.31 8.98999L10.52 8.67001C10.61 8.66001 10.69 8.60001 10.74 8.51001L11.72 6.51001C11.83 6.29001 12.14 6.29001 12.25 6.51001L13.23 8.51001C13.28 8.60001 13.36 8.66001 13.45 8.67001L15.66 8.98999C15.9 9.02999 15.99 9.31999 15.82 9.48999Z" fill="black"/>
<path d="M5.63002 16.59C5.25002 16.22 4.90002 15.82 4.60002 15.38L2.86 18.4C2.72 18.64 2.72001 18.93 2.87001 19.17C3.01001 19.4 3.25001 19.54 3.55001 19.52L6.01003 19.39L7.13002 21.59C7.25002 21.83 7.50002 21.99 7.78002 22C7.78002 22 7.79001 22 7.80001 22C8.06001 22 8.31003 21.86 8.45003 21.62L9.98003 18.96C9.48003 18.85 8.99001 18.7 8.52001 18.5C7.43001 18.05 6.45002 17.4 5.63002 16.59Z" fill="black"/>
<path d="M21.15 18.4L19.39 15.36C19.08 15.8 18.74 16.21 18.35 16.57C17.53 17.39 16.55 18.04 15.47 18.49C15 18.69 14.52 18.84 14.02 18.95L15.56 21.62C15.69 21.86 15.94 22 16.21 22C16.21 22 16.22 22 16.23 22C16.5 21.99 16.75 21.83 16.87 21.59L17.99 19.39L20.46 19.52C20.75 19.54 20.99 19.4 21.14 19.17C21.28 18.93 21.28 18.64 21.15 18.4Z" fill="black"/>
</svg>
