<svg width="24" height="24" viewBox="0 0 24 24" fill="none" xmlns="http://www.w3.org/2000/svg">
<path d="M18.17 13.3H16.86V6.86C16.86 4.18 14.68 2 12 2C9.32002 2 7.14002 4.18 7.14002 6.86V13.3H5.83002C5.42002 13.3 5.08002 13.64 5.08002 14.05C5.08002 14.47 5.42002 14.8 5.83002 14.8H6.11002V21.25C6.11002 21.66 6.45002 22 6.86002 22C7.28002 22 7.61002 21.66 7.61002 21.25V14.8H16.39V21.25C16.39 21.66 16.72 22 17.14 22C17.55 22 17.89 21.66 17.89 21.25V14.8H18.17C18.58 14.8 18.92 14.47 18.92 14.05C18.92 13.64 18.58 13.3 18.17 13.3Z" fill="black"/>
</svg>
