<svg width="24" height="24" viewBox="0 0 24 24" fill="none" xmlns="http://www.w3.org/2000/svg">
<path d="M21.16 8.62C21.64 10.77 20.16 12.71 18.17 12.99V19.2C18.17 20.34 17.25 21.26 16.11 21.26H7.89001C6.75001 21.26 5.82998 20.34 5.82998 19.2V12.99C3.83998 12.71 2.35999 10.78 2.83999 8.62C3.14999 7.24 4.31 6.13 5.7 5.89C6.51 5.75 7.28999 5.88 7.93999 6.22C8.24999 4.26 9.94999 2.76 12 2.76C14.05 2.76 15.75 4.26 16.06 6.22C16.71 5.88 17.49 5.76 18.3 5.89C19.69 6.13 20.85 7.24 21.16 8.62Z" stroke="black" stroke-width="1.5" stroke-linecap="round" stroke-linejoin="round"/>
<path d="M8.01999 7.89C7.93999 7.56 7.89001 7.22 7.89001 6.86C7.89001 4.59 9.73 2.75 12 2.75C14.27 2.75 16.11 4.59 16.11 6.86C16.11 7.21 16.07 7.56 15.98 7.89" stroke="black" stroke-width="1.5" stroke-linecap="round" stroke-linejoin="round"/>
<path d="M5.82999 18.17H18.17" stroke="black" stroke-width="1.5" stroke-linecap="round" stroke-linejoin="round"/>
<path d="M12 13.03V15.08" stroke="black" stroke-width="1.5" stroke-linecap="round" stroke-linejoin="round"/>
<path d="M15.08 14.06V15.08" stroke="black" stroke-width="1.5" stroke-linecap="round" stroke-linejoin="round"/>
<path d="M8.92001 14.06V15.08" stroke="black" stroke-width="1.5" stroke-linecap="round" stroke-linejoin="round"/>
</svg>
