<svg width="24" height="24" viewBox="0 0 24 24" fill="none" xmlns="http://www.w3.org/2000/svg">
<path d="M14.97 6.26998C14.46 6.26998 14.04 6.34999 13.66 6.45999C13.88 6.05999 14.13 5.64998 14.43 5.24998C14.97 4.53998 15.61 3.88998 16.34 3.33998C16.67 3.08998 16.73 2.61997 16.48 2.28997C16.23 1.95997 15.76 1.89997 15.43 2.14997C14.59 2.77997 13.85 3.51999 13.23 4.34999C12.62 5.15999 12.13 6.04998 11.76 6.99998C11.68 6.97998 11.61 6.94997 11.53 6.89997L11.4 6.81999C10.94 6.53999 10.25 6.12998 9.12 6.12998C7.14 6.12998 5.6 6.81998 4.55 8.19998C3.63 9.40998 3.16 11.07 3.16 13.15C3.16 15.5 4.08 17.72 5.75 19.4C7.42 21.07 9.64 22 12 22C13.18 22 14.33 21.76 15.39 21.32C16.45 20.88 17.42 20.24 18.26 19.4C19.92 17.72 20.84 15.5 20.84 13.15C20.84 11.15 20.31 9.44998 19.32 8.23998C18.27 6.94998 16.77 6.26998 14.97 6.26998Z" fill="black"/>
</svg>
