<svg width="24" height="24" viewBox="0 0 24 24" fill="none" xmlns="http://www.w3.org/2000/svg">
<path d="M12 21.25C9.84 21.25 7.81 20.41 6.28 18.88C4.76 17.35 3.92 15.31 3.92 13.16C3.92 11.26 4.33 9.75 5.15 8.67C6.05 7.49 7.39 6.89 9.13 6.89C10.04 6.89 10.58 7.21 11.02 7.48C11.37 7.67 11.52 7.86 12.36 7.75C12.59 7.69 12.8 7.6 13.05 7.5C13.56 7.28 14.14 7.03999 14.98 7.03999C16.54 7.03999 17.85 7.63001 18.75 8.74001C19.63 9.82001 20.1 11.34 20.1 13.17C20.1 15.33 19.26 17.36 17.74 18.89C16.2 20.4 14.17 21.24 12 21.25Z" stroke="black" stroke-width="1.5" stroke-linecap="round" stroke-linejoin="round"/>
<path d="M11.77 9.94C11.91 8.83 12.33 6.78 13.83 4.8C14.52 3.88 15.26 3.22001 15.89 2.74001" stroke="black" stroke-width="1.5" stroke-linecap="round" stroke-linejoin="round"/>
<path d="M9.64999 9.94C9.76999 10 10.5 10.39 11.71 10.41C13 10.42 13.79 10 13.9 9.94" stroke="black" stroke-width="1.5" stroke-linecap="round" stroke-linejoin="round"/>
</svg>
