<svg width="24" height="24" viewBox="0 0 24 24" fill="none" xmlns="http://www.w3.org/2000/svg">
<path d="M2.75 21.89H5.17V20.39V15.72V14.05L3.56 14.83C2.61 15.29 2 16.27 2 17.33V21.14C2 21.55 2.34 21.89 2.75 21.89Z" fill="black"/>
<path d="M17.83 11.82C17.83 11.08 17.54 10.38 17.02 9.85001L13.97 6.81001C13.62 6.45001 13.17 6.23001 12.71 6.11001C12.73 6.05001 12.75 5.98001 12.75 5.90001V4.62001H13.02C13.43 4.62001 13.77 4.28001 13.77 3.87001C13.77 3.45001 13.43 3.12001 13.02 3.12001H12.75V2.85001C12.75 2.44001 12.41 2.10001 12 2.10001C11.59 2.10001 11.25 2.44001 11.25 2.85001V3.12001H10.98C10.57 3.12001 10.23 3.45001 10.23 3.87001C10.23 4.28001 10.57 4.62001 10.98 4.62001H11.25V5.90001C11.25 5.98001 11.27 6.05001 11.29 6.11001C10.83 6.23001 10.38 6.45001 10.03 6.81001L6.97998 9.85001C6.45998 10.38 6.16998 11.08 6.16998 11.82V21.89H17.83V11.82ZM12.77 20.39H11.23V18.6C11.23 18.17 11.57 17.83 12 17.83C12.43 17.83 12.77 18.17 12.77 18.6V20.39ZM12 13.76C11.03 13.76 10.23 12.97 10.23 12C10.23 11.02 11.03 10.23 12 10.23C12.97 10.23 13.77 11.02 13.77 12C13.77 12.97 12.97 13.76 12 13.76Z" fill="black"/>
<path d="M20.44 14.83L18.83 14.05V15.72V20.39V21.89H21.25C21.66 21.89 22 21.55 22 21.14V17.33C22 16.27 21.39 15.29 20.44 14.83Z" fill="black"/>
</svg>
