<svg width="24" height="24" viewBox="0 0 24 24" fill="none" xmlns="http://www.w3.org/2000/svg">
<path d="M15.1857 4.28999H17.14C18.28 4.28999 19.2 5.21001 19.2 6.35001V19.2C19.2 20.34 18.28 21.26 17.14 21.26H6.86C5.72 21.26 4.8 20.34 4.8 19.2V6.35001C4.8 5.21001 5.72 4.28999 6.86 4.28999H8.92" stroke="black" stroke-width="1.5" stroke-linecap="round" stroke-linejoin="round"/>
<path d="M14.06 5.83H9.95C9.38 5.83 8.92 5.37 8.92 4.8V3.77C8.92 3.2 9.38 2.74001 9.95 2.74001H14.06C14.63 2.74001 15.09 3.2 15.09 3.77V4.8C15.08 5.37 14.62 5.83 14.06 5.83Z" stroke="black" stroke-width="1.5" stroke-linecap="round" stroke-linejoin="round"/>
<path d="M7.89 8.92H8.92" stroke="black" stroke-width="1.5" stroke-linecap="round" stroke-linejoin="round"/>
<path d="M7.89 13.03H16.11" stroke="black" stroke-width="1.5" stroke-linecap="round" stroke-linejoin="round"/>
<path d="M7.89 17.14H16.11" stroke="black" stroke-width="1.5" stroke-linecap="round" stroke-linejoin="round"/>
</svg>
