<svg width="24" height="24" viewBox="0 0 24 24" fill="none" xmlns="http://www.w3.org/2000/svg">
<path d="M12.09 18.94C15.4865 18.94 18.24 16.1731 18.24 12.76C18.24 9.34689 15.4865 6.58002 12.09 6.58002C8.69344 6.58002 5.93999 9.34689 5.93999 12.76C5.93999 16.1731 8.69344 18.94 12.09 18.94Z" stroke="black" stroke-width="1.5" stroke-linecap="round" stroke-linejoin="round"/>
<path d="M8.62999 18.3L6.95999 19.97" stroke="black" stroke-width="1.5" stroke-linecap="round" stroke-linejoin="round"/>
<path d="M15.56 18.3L17.21 19.96" stroke="black" stroke-width="1.5" stroke-linecap="round" stroke-linejoin="round"/>
<path d="M5.29999 7.49998L6.70999 6.09C7.09999 5.7 7.09999 5.06997 6.70999 4.67997L6.64999 4.61997C5.86999 3.83997 4.61 3.83997 3.83 4.61997C3.05 5.39997 3.05 6.66999 3.83 7.44999L3.88999 7.50999C4.26999 7.88999 4.90999 7.88998 5.29999 7.49998Z" stroke="black" stroke-width="1.5" stroke-linecap="round" stroke-linejoin="round"/>
<path d="M18.7 7.49998L17.29 6.09C16.9 5.7 16.9 5.06997 17.29 4.67997L17.35 4.61997C18.13 3.83997 19.39 3.83997 20.17 4.61997C20.95 5.39997 20.95 6.66999 20.17 7.44999L20.11 7.50999C19.73 7.88999 19.09 7.88998 18.7 7.49998Z" stroke="black" stroke-width="1.5" stroke-linecap="round" stroke-linejoin="round"/>
<path d="M12.09 13.35L10.52 12.3" stroke="black" stroke-width="1.5" stroke-linecap="round" stroke-linejoin="round"/>
<path d="M14.56 11.58L12.09 13.35" stroke="black" stroke-width="1.5" stroke-linecap="round" stroke-linejoin="round"/>
</svg>
