<svg width="24" height="24" viewBox="0 0 24 24" fill="none" xmlns="http://www.w3.org/2000/svg">
<path d="M7.24001 6.61997C7.92001 5.93997 7.92 4.82999 7.17 4.07999C6.14 3.03999 4.33001 3.03999 3.29001 4.07999C2.23001 5.15999 2.23 6.9 3.35 8.03C3.68 8.36 4.12001 8.53995 4.59001 8.53995C5.06001 8.53995 5.50001 8.36 5.83001 8.03L7.24001 6.61997Z" fill="black"/>
<path d="M18.99 12.76C18.99 8.93001 15.9 5.82001 12.09 5.82001C8.29 5.82001 5.19 8.93001 5.19 12.76C5.19 14.92 6.19001 16.86 7.74001 18.13L6.43 19.45C6.14 19.74 6.14 20.21 6.43 20.51C6.58 20.65 6.77 20.72 6.96 20.72C7.15 20.72 7.35001 20.65 7.49001 20.5L9.03 18.96C9.95 19.42 10.99 19.69 12.09 19.69C13.19 19.69 14.23 19.42 15.16 18.96L16.68 20.49C16.83 20.64 17.02 20.71 17.21 20.71C17.4 20.71 17.6 20.64 17.74 20.49C18.03 20.2 18.04 19.73 17.74 19.43L16.45 18.13C18 16.86 18.99 14.92 18.99 12.76ZM15 12.19L12.53 13.96C12.51 13.98 12.49 13.98 12.47 13.99C12.45 14.01 12.42 14.02 12.4 14.03C12.3 14.07 12.2 14.1 12.09 14.1C11.99 14.1 11.89 14.07 11.8 14.03C11.77 14.02 11.75 14.01 11.73 14C11.71 13.99 11.69 13.99 11.68 13.98L10.11 12.93C9.76 12.7 9.67001 12.23 9.90001 11.89C10.13 11.54 10.6 11.45 10.94 11.68L12.08 12.44L14.13 10.97C14.47 10.73 14.94 10.81 15.18 11.15C15.42 11.48 15.34 11.95 15 12.19Z" fill="black"/>
<path d="M20.71 4.08001C19.67 3.04001 17.93 2.98001 16.76 4.15001C16.09 4.83001 16.09 5.92998 16.76 6.61998L18.17 8.03002C18.5 8.36002 18.94 8.53997 19.41 8.53997C19.88 8.53997 20.32 8.35996 20.71 7.96996C21.78 6.89996 21.78 5.16001 20.71 4.08001Z" fill="black"/>
</svg>
