<svg width="24" height="24" viewBox="0 0 24 24" fill="none" xmlns="http://www.w3.org/2000/svg">
<path d="M19.19 19.39H4.8C3.66 19.39 2.74001 18.47 2.74001 17.33V13.22C2.74001 12.08 3.66 11.16 4.8 11.16H19.19C20.33 11.16 21.25 12.08 21.25 13.22V17.33C21.25 18.47 20.33 19.39 19.19 19.39Z" stroke="black" stroke-width="1.5" stroke-linecap="round" stroke-linejoin="round"/>
<path d="M12 5.86C12.8505 5.86 13.54 5.17052 13.54 4.32C13.54 3.46948 12.8505 2.78 12 2.78C11.1495 2.78 10.46 3.46948 10.46 4.32C10.46 5.17052 11.1495 5.86 12 5.86Z" stroke="black" stroke-width="1.5" stroke-linecap="round" stroke-linejoin="round"/>
<path d="M4.81 11L10.46 5.34" stroke="black" stroke-width="1.5" stroke-linecap="round" stroke-linejoin="round"/>
<path d="M19.11 11L13.46 5.34" stroke="black" stroke-width="1.5" stroke-linecap="round" stroke-linejoin="round"/>
<path d="M6.39999 14.19C6.43999 14.23 6.47001 14.27 6.49001 14.32C6.51001 14.37 6.52 14.42 6.52 14.47C6.52 14.52 6.51001 14.57 6.49001 14.62C6.47001 14.67 6.43999 14.71 6.39999 14.75C6.35999 14.79 6.32 14.82 6.27 14.84C6.22 14.86 6.17 14.87 6.12 14.87C6.07 14.87 6.02 14.86 5.97 14.84C5.92 14.82 5.88 14.79 5.84 14.76C5.76 14.68 5.68 14.63 5.59 14.6C5.5 14.57 5.41 14.55 5.31 14.55C5.21 14.55 5.12 14.57 5.03 14.61C4.94 14.65 4.85999 14.7 4.78999 14.77C4.71999 14.84 4.67 14.91 4.63 15C4.59 15.09 4.57001 15.19 4.57001 15.29C4.57001 15.39 4.59 15.48 4.63 15.57C4.67 15.66 4.72 15.74 4.78 15.81C4.84 15.88 4.91999 15.93 5.00999 15.97C5.09999 16.01 5.19 16.03 5.3 16.03C5.4 16.03 5.5 16.02 5.58 15.98C5.67 15.95 5.75 15.89 5.83 15.81C5.87 15.78 5.91001 15.75 5.96001 15.73C6.01001 15.71 6.06 15.7 6.11 15.7C6.16 15.7 6.20999 15.71 6.25999 15.73C6.30999 15.75 6.35 15.77 6.39 15.81C6.43 15.85 6.46 15.89 6.48 15.94C6.5 15.99 6.50999 16.04 6.50999 16.09C6.50999 16.14 6.5 16.19 6.48 16.24C6.46 16.29 6.42999 16.33 6.39999 16.37C6.24999 16.52 6.07 16.64 5.88 16.71C5.69 16.79 5.49999 16.82 5.28999 16.82C5.14999 16.82 5.02 16.8 4.89 16.76C4.76 16.72 4.64 16.67 4.53 16.6C4.42 16.53 4.32 16.45 4.22 16.36C4.13 16.27 4.05 16.16 3.98 16.05C3.91 15.94 3.86 15.81 3.83 15.68C3.79 15.55 3.77 15.41 3.77 15.27C3.77 15.14 3.79001 15 3.82001 14.88C3.85001 14.75 3.9 14.63 3.97 14.52C4.03 14.41 4.11 14.3 4.2 14.21C4.29 14.11 4.38999 14.03 4.50999 13.96C4.61999 13.89 4.75 13.84 4.88 13.8C5.01 13.76 5.16 13.74 5.3 13.74C5.5 13.74 5.69 13.78 5.88 13.85C6.08 13.92 6.24999 14.03 6.39999 14.19Z" fill="black"/>
<path d="M7.67 15.99H8.64C8.7 15.99 8.74999 16 8.78999 16.02C8.83999 16.04 8.88 16.07 8.92 16.11C8.96 16.15 8.98 16.19 9 16.24C9.02 16.29 9.03 16.34 9.03 16.39C9.03 16.45 9.02 16.5 9 16.55C8.98 16.6 8.95 16.64 8.92 16.67C8.88 16.7 8.83999 16.73 8.78999 16.75C8.73999 16.77 8.69 16.78 8.64 16.78H7.28999C7.22999 16.77 7.17 16.76 7.12 16.74C7.07 16.72 7.02001 16.69 6.99001 16.65C6.95001 16.61 6.92999 16.57 6.89999 16.51C6.87999 16.46 6.87 16.39 6.87 16.32V14.14C6.87 14.08 6.87999 14.03 6.89999 13.99C6.91999 13.94 6.95001 13.9 6.99001 13.87C7.03001 13.83 7.07 13.81 7.12 13.79C7.17 13.77 7.22 13.76 7.27 13.76C7.33 13.76 7.37999 13.77 7.42999 13.79C7.47999 13.81 7.52 13.84 7.56 13.87C7.6 13.91 7.61999 13.95 7.64999 13.99C7.66999 14.04 7.67999 14.09 7.67999 14.14V15.99H7.67Z" fill="black"/>
<path d="M10.59 13.74C10.8 13.74 11 13.78 11.19 13.86C11.38 13.94 11.54 14.05 11.68 14.19C11.82 14.33 11.93 14.49 12.01 14.68C12.09 14.87 12.13 15.07 12.13 15.28C12.13 15.49 12.09 15.69 12.01 15.88C11.93 16.07 11.82 16.23 11.68 16.37C11.54 16.51 11.38 16.62 11.19 16.7C11 16.78 10.8 16.82 10.59 16.82C10.38 16.82 10.18 16.78 9.99001 16.7C9.80001 16.62 9.64 16.51 9.5 16.37C9.36 16.23 9.25 16.07 9.17 15.88C9.09 15.69 9.05 15.49 9.05 15.28C9.05 15.07 9.09 14.87 9.17 14.68C9.25 14.49 9.36 14.33 9.5 14.19C9.64 14.05 9.80001 13.94 9.99001 13.86C10.17 13.78 10.37 13.74 10.59 13.74ZM10.59 14.53C10.49 14.53 10.39 14.55 10.3 14.59C10.21 14.63 10.13 14.68 10.07 14.75C10 14.82 9.95 14.9 9.91 14.99C9.87 15.08 9.85001 15.18 9.85001 15.28C9.85001 15.39 9.87 15.48 9.91 15.57C9.95 15.66 10 15.74 10.07 15.8C10.14 15.86 10.21 15.92 10.3 15.96C10.39 16 10.49 16.02 10.59 16.02C10.69 16.02 10.79 16 10.88 15.96C10.97 15.92 11.05 15.87 11.12 15.8C11.19 15.73 11.24 15.66 11.28 15.57C11.32 15.48 11.34 15.38 11.34 15.28C11.34 15.18 11.32 15.08 11.28 14.99C11.24 14.9 11.19 14.82 11.12 14.75C11.05 14.68 10.97 14.63 10.88 14.59C10.79 14.55 10.7 14.53 10.59 14.53Z" fill="black"/>
<path d="M13.61 15.71C13.4 15.67 13.22 15.62 13.07 15.56C12.92 15.5 12.8 15.43 12.7 15.34C12.6 15.26 12.53 15.16 12.49 15.05C12.44 14.94 12.42 14.81 12.42 14.67C12.42 14.53 12.45 14.4 12.51 14.28C12.57 14.16 12.65 14.07 12.75 13.99C12.85 13.91 12.97 13.85 13.11 13.8C13.25 13.76 13.39 13.73 13.55 13.73C13.64 13.73 13.74 13.74 13.84 13.76C13.94 13.78 14.03 13.81 14.11 13.84C14.2 13.88 14.27 13.92 14.35 13.98C14.42 14.04 14.48 14.1 14.53 14.18C14.56 14.23 14.58 14.28 14.58 14.34C14.58 14.39 14.57 14.44 14.55 14.49C14.53 14.54 14.5 14.58 14.47 14.61C14.43 14.64 14.39 14.67 14.35 14.69C14.3 14.71 14.25 14.72 14.2 14.72C14.16 14.72 14.12 14.71 14.08 14.7C14.04 14.69 14 14.67 13.97 14.65C13.94 14.63 13.9 14.61 13.87 14.59C13.84 14.57 13.81 14.55 13.77 14.54C13.74 14.53 13.7 14.51 13.66 14.51C13.62 14.5 13.58 14.5 13.53 14.5C13.47 14.5 13.42 14.5 13.39 14.51C13.35 14.51 13.33 14.52 13.31 14.53C13.29 14.54 13.28 14.56 13.27 14.58C13.26 14.6 13.26 14.63 13.26 14.66C13.26 14.7 13.27 14.74 13.29 14.77C13.31 14.8 13.34 14.82 13.38 14.85C13.43 14.87 13.49 14.9 13.57 14.92C13.65 14.95 13.75 14.98 13.87 15.02C13.96 15.05 14.06 15.08 14.16 15.12C14.26 15.16 14.35 15.21 14.43 15.28C14.51 15.35 14.58 15.44 14.63 15.55C14.68 15.66 14.71 15.79 14.71 15.96C14.71 16.08 14.68 16.19 14.63 16.3C14.58 16.41 14.5 16.5 14.4 16.58C14.3 16.66 14.19 16.72 14.05 16.77C13.92 16.82 13.77 16.84 13.61 16.84C13.35 16.84 13.13 16.8 12.94 16.71C12.75 16.62 12.59 16.51 12.47 16.36C12.43 16.32 12.41 16.27 12.39 16.23C12.37 16.18 12.37 16.14 12.37 16.1C12.37 16.04 12.38 15.98 12.41 15.92C12.44 15.87 12.47 15.82 12.5 15.78C12.54 15.74 12.58 15.71 12.63 15.69C12.68 15.67 12.72 15.66 12.76 15.66C12.82 15.66 12.87 15.67 12.93 15.7C12.99 15.73 13.04 15.77 13.11 15.82C13.15 15.85 13.18 15.88 13.22 15.91C13.26 15.94 13.3 15.97 13.34 16C13.38 16.03 13.43 16.05 13.48 16.06C13.53 16.08 13.59 16.08 13.66 16.08C13.74 16.08 13.8 16.07 13.84 16.05C13.88 16.03 13.9 15.99 13.9 15.95C13.9 15.92 13.89 15.89 13.87 15.86C13.85 15.83 13.83 15.81 13.8 15.79C13.77 15.77 13.75 15.76 13.72 15.75C13.66 15.72 13.63 15.72 13.61 15.71Z" fill="black"/>
<path d="M15.28 16.79C15.23 16.79 15.18 16.77 15.14 16.75C15.1 16.73 15.06 16.7 15.02 16.67C14.99 16.64 14.96 16.6 14.94 16.55C14.92 16.5 14.91 16.46 14.91 16.4V14.16C14.91 14.11 14.92 14.06 14.94 14.01C14.96 13.96 14.99 13.92 15.02 13.88C15.06 13.84 15.1 13.82 15.15 13.79C15.2 13.77 15.25 13.76 15.31 13.76H16.79C16.85 13.76 16.9 13.77 16.95 13.79C17 13.81 17.04 13.84 17.08 13.88C17.12 13.92 17.14 13.96 17.16 14.01C17.18 14.06 17.19 14.11 17.19 14.16C17.19 14.22 17.18 14.27 17.16 14.32C17.14 14.37 17.11 14.41 17.08 14.45C17.04 14.49 17 14.51 16.95 14.54C16.9 14.56 16.85 14.57 16.79 14.57H15.71V14.84H16.6C16.66 14.84 16.71 14.85 16.75 14.87C16.8 14.89 16.84 14.92 16.88 14.96C16.92 15 16.94 15.04 16.97 15.09C16.99 15.14 17 15.19 17 15.25C17 15.31 16.99 15.36 16.97 15.4C16.95 15.45 16.92 15.49 16.88 15.52C16.84 15.55 16.8 15.58 16.75 15.6C16.7 15.62 16.65 15.63 16.6 15.63H15.71V16H16.79C16.85 16 16.9 16.01 16.95 16.03C17 16.05 17.04 16.08 17.08 16.12C17.12 16.16 17.14 16.2 17.16 16.25C17.18 16.3 17.19 16.35 17.19 16.41C17.19 16.47 17.18 16.52 17.16 16.57C17.14 16.62 17.11 16.66 17.08 16.7C17.04 16.74 17 16.76 16.95 16.78C16.9 16.8 16.85 16.81 16.79 16.81H15.28V16.79Z" fill="black"/>
<path d="M17.89 16.79C17.83 16.79 17.78 16.78 17.74 16.76C17.69 16.74 17.65 16.71 17.61 16.68C17.57 16.64 17.55 16.6 17.52 16.55C17.5 16.5 17.49 16.45 17.49 16.39V14.15C17.49 14.09 17.5 14.04 17.52 14C17.54 13.95 17.57 13.91 17.61 13.88C17.65 13.84 17.69 13.82 17.74 13.8C17.79 13.78 17.84 13.77 17.89 13.77H18.67C18.81 13.77 18.94 13.79 19.07 13.82C19.2 13.86 19.32 13.91 19.44 13.97C19.56 14.04 19.66 14.12 19.76 14.21C19.86 14.3 19.94 14.41 20.01 14.52C20.08 14.63 20.13 14.75 20.17 14.88C20.21 15.01 20.23 15.14 20.23 15.28C20.23 15.42 20.21 15.55 20.17 15.68C20.13 15.81 20.08 15.93 20.01 16.04C19.94 16.15 19.86 16.25 19.76 16.35C19.66 16.44 19.56 16.52 19.44 16.59C19.32 16.66 19.2 16.71 19.07 16.74C18.94 16.78 18.81 16.79 18.67 16.79H17.89ZM18.29 14.55V15.98H18.69C18.78 15.98 18.87 15.96 18.95 15.93C19.04 15.89 19.11 15.84 19.18 15.78C19.25 15.72 19.3 15.64 19.35 15.56C19.39 15.47 19.41 15.38 19.41 15.28C19.41 15.18 19.39 15.08 19.35 14.99C19.31 14.9 19.25 14.82 19.18 14.76C19.11 14.69 19.03 14.64 18.95 14.61C18.86 14.57 18.78 14.55 18.69 14.55H18.29Z" fill="black"/>
</svg>
