<svg width="24" height="24" viewBox="0 0 24 24" fill="none" xmlns="http://www.w3.org/2000/svg">
<path d="M20.12 10.58C19.16 9.78 17.98 9.38 16.81 9.48C16.54 5.9 13.67 4.06 10.91 4.06H10.78C8.05999 4.11 5.08999 5.96 5.00999 9.86C2.82999 10.86 1.60999 13.36 2.11999 15.82C2.41999 17.32 3.37999 18.64 4.67999 19.36C5.52999 19.83 6.35999 19.95 6.95999 19.95C7.07999 19.95 7.19999 19.94 7.30999 19.93L17.48 19.89C20.07 19.88 22 17.13 22.01 14.68C22.01 12.22 20.31 10.74 20.12 10.58ZM9.00999 13.09C9.29999 12.8 9.76999 12.8 10.07 13.09L11 14.02L13.12 11.9C13.41 11.61 13.88 11.61 14.18 11.9C14.47 12.2 14.47 12.67 14.18 12.96L11.53 15.61C11.38 15.76 11.19 15.83 11 15.83C10.8 15.83 10.61 15.76 10.47 15.61L9.00999 14.15C8.70999 13.86 8.70999 13.39 9.00999 13.09Z" fill="black"/>
</svg>
