<svg width="24" height="24" viewBox="0 0 24 24" fill="none" xmlns="http://www.w3.org/2000/svg">
<path d="M18.19 5.80001C17.9 5.51001 17.42 5.51001 17.13 5.80001L16.04 6.89001C14.83 4.80001 12.38 3.68001 9.78 4.14001C6.94 4.65001 5.07 6.90001 5.01 9.85001C3.16 10.69 2 12.62 2 14.68C2 15.05 2.04 15.43 2.12 15.8C2.37 17.04 3.07 18.15 4.03 18.9L3.25 19.68C2.96 19.97 2.96 20.45 3.25 20.74C3.4 20.88 3.59 20.96 3.78 20.96C3.98 20.96 4.17 20.88 4.31 20.74L18.19 6.86001C18.48 6.57001 18.48 6.10001 18.19 5.80001Z" fill="black"/>
<path d="M20.12 10.57C19.6 10.13 19.01 9.82 18.38 9.63C17.98 9.52 17.57 9.73999 17.45 10.14C17.34 10.54 17.56 10.96 17.96 11.07C18.39 11.2 18.8 11.42 19.16 11.72C19.18 11.73 20.51 12.86 20.51 14.66C20.5 16.37 19.18 18.37 17.47 18.37L8.91998 18.41C8.49998 18.41 8.16998 18.75 8.16998 19.16C8.16998 19.58 8.50998 19.91 8.91998 19.91L17.48 19.87C20.07 19.86 22 17.12 22.01 14.67C22.01 12.2 20.31 10.73 20.12 10.57Z" fill="black"/>
</svg>
