<svg width="24" height="24" viewBox="0 0 24 24" fill="none" xmlns="http://www.w3.org/2000/svg">
<path d="M19.19 16.41C20.44 15.58 21.24 13.94 21.25 12.49C21.25 10.35 19.73 9.05 19.64 8.97C18.85 8.31 17.85 7.95 16.82 8.04C16.44 8.07 16.1 7.81 16.07 7.43C15.66 0.920002 5.9 1.01 5.75 7.71C5.74 7.99 5.58001 8.24 5.32001 8.35C3.48001 9.19 2.42001 11.35 2.85001 13.48C3.10001 14.71 3.90999 15.89 5.03999 16.51C5.30999 16.66 5.58 16.77 5.84 16.84" stroke="black" stroke-width="1.5" stroke-linecap="round" stroke-linejoin="round"/>
<path d="M16.36 15.76L12.61 21.24C12.42 21.51 11.98 21.39 11.98 21.06V17.93C11.98 17.57 11.68 17.28 11.3 17.27L9.06 17.24C8.79 17.24 8.63 16.95 8.78 16.73L12.53 11.25C12.72 10.98 13.16 11.1 13.16 11.43V14.56C13.16 14.92 13.46 15.21 13.84 15.22L16.08 15.25C16.34 15.25 16.5 15.54 16.36 15.76Z" stroke="black" stroke-width="1.5" stroke-linecap="round" stroke-linejoin="round"/>
</svg>
