<svg width="24" height="24" viewBox="0 0 24 24" fill="none" xmlns="http://www.w3.org/2000/svg">
<path d="M15.59 16.2L14.14 18.31L12.04 21.38C11.87 21.64 11.45 21.52 11.44 21.21V18.25C11.44 17.91 11.15 17.63 10.8 17.63L8.67999 17.6C8.41999 17.6 8.27 17.33 8.41 17.12L11.96 11.94C12.13 11.69 12.55 11.8 12.56 12.11V15.08C12.56 15.42 12.85 15.69 13.2 15.7L15.32 15.72C15.58 15.72 15.73 16 15.59 16.2Z" fill="black"/>
<path d="M15.59 16.2L14.14 18.31L12.04 21.38C11.87 21.64 11.45 21.52 11.44 21.21V18.25C11.44 17.91 11.15 17.63 10.8 17.63L8.67999 17.6C8.41999 17.6 8.27 17.33 8.41 17.12L11.96 11.94C12.13 11.69 12.55 11.8 12.56 12.11V15.08C12.56 15.42 12.85 15.69 13.2 15.7L15.32 15.72C15.58 15.72 15.73 16 15.59 16.2Z" fill="black"/>
<path d="M15.59 16.2L14.14 18.31L11.44 18.32V18.25C11.44 17.91 11.15 17.63 10.8 17.63L8.67999 17.6C8.41999 17.6 8.27 17.33 8.41 17.12L11.96 11.94C12.13 11.69 12.55 11.8 12.56 12.11V15.08C12.56 15.42 12.85 15.69 13.2 15.7L15.32 15.72C15.58 15.72 15.73 16 15.59 16.2Z" fill="black"/>
<path d="M22 13.09C22 15.54 20.06 18.29 17.48 18.3L15.3 18.31L16.37 16.74C16.63 16.36 16.66 15.87 16.45 15.46C16.23 15.04 15.81 14.78 15.33 14.78L13.5 14.75V12.11C13.5 11.42 12.93 10.86 12.23 10.86C11.81 10.86 11.41 11.06 11.17 11.41L7.63001 16.59C7.37001 16.97 7.34001 17.46 7.55001 17.87C7.65001 18.06 7.8 18.22 7.97 18.34H7.30001C7.20001 18.35 7.08 18.36 6.95 18.36C6.35 18.36 5.53 18.24 4.68 17.77C3.38 17.05 2.42 15.73 2.11 14.23C1.61 11.77 2.82 9.27 5 8.27C5.08 4.37 8.05 2.52 10.78 2.47C13.57 2.44 16.53 4.25 16.81 7.89C17.98 7.79 19.15 8.19 20.12 8.99C20.31 9.15 22 10.63 22 13.09Z" fill="black"/>
</svg>
