<svg width="24" height="24" viewBox="0 0 24 24" fill="none" xmlns="http://www.w3.org/2000/svg">
<path d="M19.19 16.54C20.44 15.71 21.24 14.07 21.25 12.62C21.25 10.48 19.73 9.18 19.64 9.1C18.85 8.44 17.85 8.07999 16.82 8.16999C16.44 8.19999 16.1 7.93999 16.07 7.55999C15.66 1.04999 5.90001 1.13999 5.75001 7.83999C5.74001 8.11999 5.58001 8.36999 5.32001 8.47999C3.48001 9.31999 2.42001 11.48 2.85001 13.61C3.10001 14.84 3.91001 16.02 5.04001 16.64" stroke="black" stroke-width="1.5" stroke-linecap="round" stroke-linejoin="round"/>
<path d="M14.31 13.54H9.69C8.7 13.54 7.89 14.35 7.89 15.34C7.89 16.33 8.7 17.14 9.69 17.14H14.32C15.31 17.14 16.12 16.33 16.12 15.34C16.11 14.35 15.31 13.54 14.31 13.54Z" stroke="black" stroke-width="1.5" stroke-linecap="round" stroke-linejoin="round"/>
<path d="M14.31 9.94H9.69C8.7 9.94 7.89 10.75 7.89 11.74C7.89 12.73 8.7 13.54 9.69 13.54H14.32C15.31 13.54 16.12 12.73 16.12 11.74C16.11 10.75 15.31 9.94 14.31 9.94Z" stroke="black" stroke-width="1.5" stroke-linecap="round" stroke-linejoin="round"/>
<path d="M2.75 21.25H8.82" stroke="black" stroke-width="1.5" stroke-linecap="round" stroke-linejoin="round"/>
<path d="M15.08 21.25H21.25" stroke="black" stroke-width="1.5" stroke-linecap="round" stroke-linejoin="round"/>
<path d="M12 17.14V20.22" stroke="black" stroke-width="1.5" stroke-linecap="round" stroke-linejoin="round"/>
<path d="M12 22C12.6959 22 13.26 21.4359 13.26 20.74C13.26 20.0441 12.6959 19.48 12 19.48C11.3041 19.48 10.74 20.0441 10.74 20.74C10.74 21.4359 11.3041 22 12 22Z" fill="black"/>
</svg>
