<svg width="24" height="24" viewBox="0 0 24 24" fill="none" xmlns="http://www.w3.org/2000/svg">
<path d="M16.23 5.18H16.32C16.5026 5.17889 16.6784 5.11124 16.8147 4.98974C16.9509 4.86824 17.0381 4.70122 17.06 4.52L17.17 3.64C17.1944 3.53595 17.1965 3.42793 17.1762 3.323C17.156 3.21807 17.1139 3.11859 17.0526 3.03105C16.9913 2.94351 16.9122 2.86987 16.8206 2.81496C16.7289 2.76004 16.6267 2.72508 16.5206 2.71235C16.4144 2.69961 16.3069 2.7094 16.2048 2.74107C16.1027 2.77273 16.0085 2.82557 15.9282 2.89612C15.848 2.96668 15.7835 3.05337 15.739 3.15053C15.6945 3.24769 15.671 3.35314 15.67 3.46L15.57 4.34C15.5575 4.43861 15.5647 4.53872 15.5911 4.63453C15.6176 4.73034 15.6629 4.81993 15.7243 4.89809C15.7857 4.97625 15.862 5.04142 15.9489 5.08982C16.0357 5.13821 16.1313 5.16887 16.23 5.18Z" fill="black"/>
<path d="M17.89 12.88C17.1024 12.202 16.0887 11.8451 15.05 11.88C14.9763 10.7508 14.5218 9.68009 13.7607 8.84272C12.9996 8.00536 11.977 7.45091 10.86 7.27C10.0875 7.12767 9.29337 7.15219 8.53105 7.3419C7.76872 7.53162 7.05578 7.88216 6.44003 8.37C5.86551 8.84485 5.40276 9.44053 5.08473 10.1146C4.76669 10.7887 4.6012 11.5247 4.60003 12.27C3.66208 12.7489 2.90854 13.5241 2.45647 14.4753C2.00439 15.4265 1.87909 16.5003 2.10003 17.53C2.23523 18.1853 2.5085 18.8043 2.90163 19.3457C3.29477 19.8871 3.79876 20.3386 4.38003 20.67C4.99376 21.0052 5.68073 21.1839 6.38003 21.19H6.68003H15.52C17.82 21.19 19.52 18.74 19.52 16.56C19.5006 15.2992 18.9997 14.0935 18.12 13.19C18.0494 13.0823 17.9726 12.9788 17.89 12.88Z" fill="black"/>
<path d="M14.3501 5.41C13.6048 5.41067 12.8682 5.57093 12.1901 5.88C12.0084 5.96355 11.8673 6.11584 11.7979 6.30337C11.7286 6.49091 11.7365 6.69833 11.8201 6.88C11.9036 7.06168 12.0559 7.20272 12.2434 7.27211C12.431 7.3415 12.6384 7.33355 12.8201 7.25C13.298 7.02313 13.821 6.90691 14.3501 6.91C15.3349 6.91 16.2796 7.30055 16.977 7.99603C17.6743 8.6915 18.0674 9.63513 18.0701 10.62C18.0687 10.9588 18.0182 11.2957 17.9201 11.62C17.8675 11.8122 17.8925 12.0174 17.9898 12.1914C18.0871 12.3653 18.2488 12.4941 18.4401 12.55H18.6401C18.8033 12.549 18.9619 12.4961 19.0931 12.3991C19.2243 12.302 19.3213 12.1658 19.3701 12.01C19.5016 11.5413 19.5688 11.0568 19.5701 10.57C19.5543 9.196 18.9973 7.88363 18.0201 6.91763C17.0429 5.95163 15.7242 5.40991 14.3501 5.41Z" fill="black"/>
<path d="M18.89 6.26C18.9911 6.25366 19.09 6.22742 19.1809 6.18281C19.2719 6.13819 19.3531 6.07607 19.42 6L20.05 5.37C20.1905 5.22937 20.2694 5.03875 20.2694 4.84C20.2694 4.64125 20.1905 4.45063 20.05 4.31C19.9094 4.16955 19.7188 4.09066 19.52 4.09066C19.3213 4.09066 19.1307 4.16955 18.99 4.31L18.36 5C18.2196 5.14063 18.1407 5.33125 18.1407 5.53C18.1407 5.72875 18.2196 5.91937 18.36 6.06C18.5059 6.18989 18.6947 6.26114 18.89 6.26Z" fill="black"/>
<path d="M22.0001 7.57C21.9525 7.37783 21.8319 7.21179 21.6638 7.1072C21.4957 7.00262 21.2935 6.96775 21.1001 7.01L20.2301 7.22C20.0503 7.26231 19.8925 7.36943 19.7869 7.52084C19.6812 7.67225 19.6351 7.85731 19.6574 8.0406C19.6797 8.22388 19.7688 8.3925 19.9077 8.51417C20.0466 8.63584 20.2254 8.70201 20.4101 8.7H20.5801L21.4401 8.49C21.5387 8.46908 21.6321 8.4282 21.7144 8.36988C21.7967 8.31156 21.8662 8.23703 21.9186 8.15087C21.9711 8.06471 22.0053 7.96874 22.0194 7.86885C22.0334 7.76896 22.0268 7.66726 22.0001 7.57Z" fill="black"/>
</svg>
