<svg width="24" height="24" viewBox="0 0 24 24" fill="none" xmlns="http://www.w3.org/2000/svg">
<path d="M13.37 14.54V9.95001V8.75C13.37 7.71 14.22 6.87 15.25 6.87C16.29 6.87 17.13 7.72 17.13 8.75C17.13 9.79 16.28 10.63 15.25 10.63H14.05H9.94H8.73999C7.69999 10.63 6.85999 9.78 6.85999 8.75C6.85999 7.71 7.70999 6.87 8.73999 6.87C9.77999 6.87 10.62 7.72 10.62 8.75V9.95001V14.06V15.26C10.62 16.3 9.76999 17.14 8.73999 17.14C7.69999 17.14 6.85999 16.29 6.85999 15.26C6.85999 14.22 7.70999 13.38 8.73999 13.38H9.94H14.32H14.05H15.25C16.29 13.38 17.13 14.23 17.13 15.26C17.13 16.3 16.28 17.14 15.25 17.14C14.21 17.14 13.37 16.29 13.37 15.26V14.06" stroke="black" stroke-width="1.5" stroke-linecap="round" stroke-linejoin="round"/>
<path d="M18.17 21.25H5.84C4.14 21.25 2.76001 19.87 2.76001 18.17V5.84C2.76001 4.14 4.14 2.76001 5.84 2.76001H18.17C19.87 2.76001 21.25 4.14 21.25 5.84V18.17C21.25 19.87 19.87 21.25 18.17 21.25Z" stroke="black" stroke-width="1.5" stroke-linecap="round" stroke-linejoin="round"/>
</svg>
