<svg width="24" height="24" viewBox="0 0 24 24" fill="none" xmlns="http://www.w3.org/2000/svg">
<path d="M21.25 8.64999C20.84 8.64999 20.5 8.30999 20.5 7.89999V5.83C20.5 4.54 19.45 3.5 18.17 3.5H5.84001C4.55001 3.5 3.51001 4.55 3.51001 5.83V7.89999C3.51001 8.30999 3.17001 8.64999 2.76001 8.64999C2.35001 8.64999 2.01001 8.30999 2.01001 7.89999V5.83C2.01001 3.72 3.73001 2 5.84001 2H18.17C20.28 2 22 3.72 22 5.83V7.89999C22 8.31999 21.66 8.64999 21.25 8.64999Z" fill="black"/>
<path d="M18.17 22H5.84001C3.73001 22 2.01001 20.28 2.01001 18.17V16.11C2.01001 15.7 2.35001 15.36 2.76001 15.36C3.17001 15.36 3.51001 15.7 3.51001 16.11V18.17C3.51001 19.46 4.56001 20.5 5.84001 20.5H18.17C19.46 20.5 20.5 19.45 20.5 18.17V16.08C20.5 15.67 20.84 15.33 21.25 15.33C21.66 15.33 22 15.67 22 16.08V18.17C22 20.28 20.28 22 18.17 22Z" fill="black"/>
<path d="M16.86 8.91V15.08C16.86 16.06 16.06 16.86 15.08 16.86H8.92001C7.94001 16.86 7.14001 16.06 7.14001 15.08V8.91C7.14001 7.93 7.94001 7.13 8.92001 7.13H15.08C16.06 7.13 16.86 7.93 16.86 8.91Z" fill="black"/>
</svg>
