<svg width="24" height="24" viewBox="0 0 24 24" fill="none" xmlns="http://www.w3.org/2000/svg">
<path d="M18.17 2H5.82999C3.71999 2 2 3.72002 2 5.83002V8.16998H3.5H20.5H22V5.83002C22 3.72002 20.28 2 18.17 2ZM5.82999 6.85999C5.26999 6.85999 4.81 6.40002 4.81 5.83002C4.81 5.27002 5.26999 4.81 5.82999 4.81C6.39999 4.81 6.85999 5.27002 6.85999 5.83002C6.85999 6.40002 6.39999 6.85999 5.82999 6.85999Z" fill="black"/>
<path d="M3.5 9.66998H2V18.17C2 20.28 3.71999 22 5.82999 22H18.17C20.28 22 22 20.28 22 18.17V9.66998H20.5H3.5ZM14.59 13.37C14.3 13.08 14.3 12.6 14.59 12.31C14.88 12.01 15.36 12.02 15.65 12.31L17.71 14.36C18 14.66 18 15.13 17.71 15.42L15.65 17.48C15.5 17.63 15.31 17.7 15.12 17.7C14.93 17.7 14.74 17.63 14.59 17.48C14.3 17.19 14.3 16.71 14.59 16.42L16.12 14.89L14.59 13.37ZM10.59 17.76L11.95 11.59C12.04 11.19 12.44 10.93 12.84 11.02C13.25 11.11 13.5 11.51 13.41 11.91L12.05 18.08C11.98 18.43 11.66 18.67 11.32 18.67C11.27 18.67 11.21 18.66 11.16 18.65C10.75 18.56 10.5 18.16 10.59 17.76ZM6.35999 14.36L8.41 12.31C8.71 12.01 9.18 12.01 9.47 12.31C9.77 12.6 9.77 13.08 9.47 13.37L7.95001 14.89L9.47 16.42C9.77 16.71 9.77 17.19 9.47 17.48C9.33 17.63 9.14 17.7 8.94 17.7C8.75 17.7 8.56 17.63 8.41 17.48L6.35999 15.42C6.05999 15.13 6.05999 14.66 6.35999 14.36Z" fill="black"/>
</svg>
