<svg width="24" height="24" viewBox="0 0 24 24" fill="none" xmlns="http://www.w3.org/2000/svg">
<path d="M21.25 5.83002V8.90997H2.75V5.83002C2.75 4.12002 4.12999 2.75 5.82999 2.75H18.16C19.87 2.75 21.25 4.13002 21.25 5.83002Z" stroke="black" stroke-width="1.5" stroke-linecap="round" stroke-linejoin="round"/>
<path d="M21.25 8.91998V18.17C21.25 19.88 19.87 21.25 18.17 21.25H5.84C4.13 21.25 2.76001 19.87 2.76001 18.17V8.91998H21.25Z" stroke="black" stroke-width="1.5" stroke-linecap="round" stroke-linejoin="round"/>
<path d="M5.82999 6.85999C6.39884 6.85999 6.85999 6.39887 6.85999 5.83002C6.85999 5.26116 6.39884 4.79999 5.82999 4.79999C5.26113 4.79999 4.79999 5.26116 4.79999 5.83002C4.79999 6.39887 5.26113 6.85999 5.82999 6.85999Z" fill="black"/>
<path d="M8.94 12.84L6.89001 14.89" stroke="black" stroke-width="1.5" stroke-linecap="round" stroke-linejoin="round"/>
<path d="M8.94 16.95L6.89001 14.89" stroke="black" stroke-width="1.5" stroke-linecap="round" stroke-linejoin="round"/>
<path d="M15.12 12.84L17.17 14.89" stroke="black" stroke-width="1.5" stroke-linecap="round" stroke-linejoin="round"/>
<path d="M15.12 16.95L17.17 14.89" stroke="black" stroke-width="1.5" stroke-linecap="round" stroke-linejoin="round"/>
<path d="M12.68 11.75L11.32 17.92" stroke="black" stroke-width="1.5" stroke-linecap="round" stroke-linejoin="round"/>
</svg>
