<svg width="24" height="24" viewBox="0 0 24 24" fill="none" xmlns="http://www.w3.org/2000/svg">
<path d="M18.49 9.18L16.58 19.53C16.39 20.52 15.42 21.25 14.29 21.25H9.70999C8.57999 21.25 7.61001 20.51 7.42001 19.53L5.51001 9.18" stroke="black" stroke-width="1.5" stroke-linecap="round" stroke-linejoin="round"/>
<path d="M20 5.83H4V8.91H20V5.83Z" stroke="black" stroke-width="1.5" stroke-linecap="round" stroke-linejoin="round"/>
<path d="M18 2.75H6L5 5.83H19L18 2.75Z" stroke="black" stroke-width="1.5" stroke-linecap="round" stroke-linejoin="round"/>
<path d="M13.0897 15.1493C13.8941 14.3448 14.0588 13.2051 13.4574 12.6037C12.856 12.0023 11.7163 12.1669 10.9118 12.9714C10.1073 13.7759 9.9427 14.9155 10.5441 15.517C11.1455 16.1184 12.2852 15.9537 13.0897 15.1493Z" stroke="black" stroke-width="1.5" stroke-linecap="round" stroke-linejoin="round"/>
</svg>
