<svg width="24" height="24" viewBox="0 0 24 24" fill="none" xmlns="http://www.w3.org/2000/svg">
<path d="M6.98999 7.50999C6.98999 7.31999 6.92 7.13999 6.78 6.98999C6.5 6.68999 6.03 6.67999 5.72 6.95999L4.92001 7.71999C4.76001 7.86999 4.67999 8.05999 4.67999 8.25999C4.67999 8.44999 4.75 8.62999 4.88 8.77999C5.03 8.92999 5.22999 9.00999 5.42999 9.00999C5.60999 9.00999 5.8 8.94999 5.94 8.80999L6.75 8.05C6.91 7.91 6.98999 7.70999 6.98999 7.50999Z" fill="black"/>
<path d="M7.72998 4.87999C7.72998 5.48999 8.22997 5.98999 8.83997 5.98999C9.44997 5.98999 9.93997 5.48999 9.93997 4.87999C9.93997 4.26999 9.44997 3.76999 8.83997 3.76999C8.22997 3.76999 7.72998 4.26999 7.72998 4.87999Z" fill="black"/>
<path d="M3.5 9.43C3.5 6.16 6.15999 3.5 9.42999 3.5C12.02 3.5 14.3 5.16 15.08 7.62C15.21 8.02 15.63 8.23 16.03 8.11C16.42 7.99 16.64 7.56 16.51 7.17C15.53 4.08 12.68 2 9.42999 2C5.32999 2 2 5.33 2 9.43C2 11.24 2.66001 12.98 3.85001 14.34C4.00001 14.5 4.21001 14.59 4.42001 14.59C4.59001 14.59 4.77 14.53 4.91 14.4C5.22 14.13 5.25001 13.66 4.98001 13.34C4.02001 12.26 3.5 10.87 3.5 9.43Z" fill="black"/>
<path d="M21.41 16.19C19.25 15.73 17.69 13.8 17.69 11.59C17.69 11.34 17.71 11.1 17.75 10.87C17.81 10.47 17.54 10.09 17.15 10.02C15.29 9.66001 13.92 8.10001 13.83 6.20001C13.82 5.99001 13.71 5.79001 13.54 5.66001C13.37 5.52001 13.16 5.47001 12.94 5.50001C8.98 6.22001 6.10999 9.66001 6.10999 13.69C6.10999 18.27 9.84001 22 14.42 22C17.62 22 20.56 20.13 21.93 17.24C22.03 17.03 22.02 16.79 21.92 16.59C21.82 16.38 21.63 16.23 21.41 16.19ZM12.4 10.67C12.4 11.28 11.9 11.78 11.29 11.78C10.68 11.78 10.18 11.28 10.18 10.67C10.18 10.06 10.68 9.56001 11.29 9.56001C11.9 9.56001 12.4 10.06 12.4 10.67ZM10.69 13.87L11.7 14.31C11.99 14.43 12.16 14.7 12.16 14.99C12.16 15.09 12.14 15.2 12.09 15.29C11.97 15.58 11.69 15.74 11.41 15.74C11.31 15.74 11.2 15.72 11.11 15.68L10.09 15.24C9.81 15.12 9.64001 14.84 9.64001 14.55C9.64001 14.46 9.66001 14.35 9.70001 14.26C9.87001 13.88 10.31 13.7 10.69 13.87ZM14.52 12.97C15.13 12.97 15.63 13.47 15.63 14.08C15.63 14.69 15.13 15.19 14.52 15.19C13.91 15.19 13.41 14.69 13.41 14.08C13.41 13.47 13.91 12.97 14.52 12.97ZM13.77 17.98C13.77 17.72 13.91 17.47 14.14 17.33L15.1 16.78C15.46 16.57 15.92 16.69 16.13 17.05C16.2 17.17 16.23 17.29 16.23 17.42C16.23 17.68 16.1 17.93 15.86 18.07L14.9 18.63C14.78 18.7 14.65 18.73 14.52 18.73C14.26 18.73 14.01 18.6 13.87 18.36C13.8 18.24 13.77 18.11 13.77 17.98Z" fill="black"/>
</svg>
