<svg width="24" height="24" viewBox="0 0 24 24" fill="none" xmlns="http://www.w3.org/2000/svg">
<path d="M21.25 16.92C20.04 19.48 17.44 21.25 14.42 21.25C10.25 21.25 6.85999 17.86 6.85999 13.69C6.85999 9.98 9.53999 6.89 13.08 6.25C13.2 8.5 14.85 10.35 17.01 10.76C16.97 11.03 16.94 11.31 16.94 11.59C16.94 14.21 18.79 16.4 21.25 16.92Z" stroke="black" stroke-width="1.5" stroke-linecap="round" stroke-linejoin="round"/>
<path d="M11.29 9.57C10.68 9.57 10.18 10.07 10.18 10.68C10.18 11.29 10.68 11.79 11.29 11.79C11.9 11.79 12.4 11.29 12.4 10.68C12.4 10.06 11.9 9.57 11.29 9.57Z" fill="black"/>
<path d="M8.84 3.78C8.23 3.78 7.73001 4.28 7.73001 4.89C7.73001 5.5 8.23 6 8.84 6C9.45 6 9.95001 5.5 9.95001 4.89C9.94001 4.27 9.45 3.78 8.84 3.78Z" fill="black"/>
<path d="M14.52 12.98C13.91 12.98 13.41 13.48 13.41 14.09C13.41 14.7 13.91 15.2 14.52 15.2C15.13 15.2 15.63 14.7 15.63 14.09C15.63 13.47 15.13 12.98 14.52 12.98Z" fill="black"/>
<path d="M15.48 17.43C15.48 17.43 15.27 17.55 15 17.71C14.74 17.86 14.52 17.99 14.52 17.99C14.52 17.99 14.73 17.87 15 17.71C15.26 17.55 15.48 17.43 15.48 17.43Z" stroke="black" stroke-width="1.5" stroke-linecap="round" stroke-linejoin="round"/>
<path d="M10.39 14.56C10.39 14.56 10.62 14.66 10.9 14.78C11.18 14.9 11.41 15 11.41 15C11.41 15 11.18 14.9 10.9 14.78C10.62 14.66 10.39 14.56 10.39 14.56Z" stroke="black" stroke-width="1.5" stroke-linecap="round" stroke-linejoin="round"/>
<path d="M5.42999 8.27C5.42999 8.27 5.60999 8.10001 5.82999 7.89001C6.04999 7.68001 6.23001 7.51001 6.23001 7.51001C6.23001 7.51001 6.04999 7.68001 5.82999 7.89001C5.60999 8.10001 5.42999 8.27 5.42999 8.27Z" stroke="black" stroke-width="1.5" stroke-linecap="round" stroke-linejoin="round"/>
<path d="M4.42001 13.84C3.38001 12.66 2.75 11.12 2.75 9.43C2.75 5.74 5.73999 2.75 9.42999 2.75C12.41 2.75 14.94 4.7 15.8 7.4" stroke="black" stroke-width="1.5" stroke-linecap="round" stroke-linejoin="round"/>
</svg>
