<svg width="24" height="24" viewBox="0 0 24 24" fill="none" xmlns="http://www.w3.org/2000/svg">
<path d="M15.946 2.43345C16.1399 2.23518 16.2073 1.92332 16.1115 1.66021C16.0123 1.3877 15.7731 1.1981 15.4843 1.16486C13.9677 1.00384 12.4701 1.18711 11.023 1.71382C5.84526 3.59835 3.16171 9.35324 5.04625 14.5309C6.93078 19.7087 12.6857 22.3922 17.8634 20.5077C19.3105 19.981 20.5756 19.1587 21.6338 18.0605C21.8336 17.8495 21.8951 17.5504 21.7959 17.2779C21.7001 17.0148 21.448 16.8192 21.1721 16.7919C17.9553 16.4623 15.172 14.2828 14.0673 11.2476C12.9626 8.21235 13.6937 4.75369 15.946 2.43345Z" fill="black"/>
</svg>
