<svg width="24" height="24" viewBox="0 0 24 24" fill="none" xmlns="http://www.w3.org/2000/svg">
<path d="M18.17 2H5.83C3.72 2 2 3.72 2 5.83V18.17C2 20.28 3.72 22 5.83 22H18.17C20.28 22 22 20.28 22 18.17V5.83C22 3.72 20.28 2 18.17 2ZM18.49 17.03C18.36 17.29 18.09 17.44 17.82 17.44C17.7 17.44 17.59 17.42 17.48 17.36C17.11 17.18 16.96 16.73 17.15 16.36C17.54 15.57 17.75 14.69 17.75 13.8C17.75 10.64 15.17 8.06 12 8.06C8.83 8.06 6.26 10.64 6.26 13.8C6.26 14.69 6.46 15.57 6.86 16.35C7.04 16.73 6.89 17.18 6.52 17.36C6.15 17.55 5.7 17.4 5.51 17.03C5.02 16.04 4.76 14.92 4.76 13.8C4.76 9.81 8.01 6.56 12 6.56C16 6.56 19.25 9.81 19.25 13.8C19.25 14.92 18.98 16.03 18.49 17.03ZM13.47 13.8C13.47 14.62 12.81 15.28 12 15.28C11.19 15.28 10.53 14.62 10.53 13.8C10.53 12.99 11.19 12.33 12 12.33C12.13 12.33 12.25 12.35 12.36 12.38L13.71 11.03C14 10.74 14.48 10.74 14.77 11.03C15.06 11.33 15.06 11.8 14.77 12.09L13.42 13.44C13.45 13.56 13.47 13.68 13.47 13.8Z" fill="black"/>
</svg>
