<svg width="24" height="24" viewBox="0 0 24 24" fill="none" xmlns="http://www.w3.org/2000/svg">
<path d="M3.20001 7.4V9.6C3.20001 10.7 6.60001 12.4 12 12.4C17.4 12.4 20.8 10.8 20.8 9.6V7.4C18.8 8.7 15.4 9.3 12 9.3C8.60001 9.3 5.20001 8.6 3.20001 7.4ZM12 7.5C17.4 7.5 20.8 5.9 20.8 4.7C20.8 3.5 17.4 2 12 2C6.60001 2 3.20001 3.6 3.20001 4.7C3.20001 5.8 6.60001 7.5 12 7.5ZM12 18.9C8.60001 18.9 5.20001 18.3 3.20001 17V19.2C3.20001 20.3 6.60001 21.9 12 21.9C17.4 21.9 20.8 20.3 20.8 19.2V17C18.8 18.3 15.4 18.9 12 18.9ZM12 14.1C8.60001 14.1 5.20001 13.5 3.20001 12.2V14.4C3.20001 15.5 6.60001 17.1 12 17.1C17.4 17.1 20.8 15.5 20.8 14.4V12.2C18.8 13.4 15.4 14.1 12 14.1Z" fill="black"/>
</svg>
