<svg width="24" height="24" viewBox="0 0 24 24" fill="none" xmlns="http://www.w3.org/2000/svg">
<path d="M3.78 5.83002V18.17" stroke="black" stroke-width="1.5" stroke-linecap="round" stroke-linejoin="round"/>
<path d="M12 8.90997C16.5398 8.90997 20.22 7.53105 20.22 5.83002C20.22 4.12898 16.5398 2.75 12 2.75C7.46022 2.75 3.78 4.12898 3.78 5.83002C3.78 7.53105 7.46022 8.90997 12 8.90997Z" stroke="black" stroke-width="1.5" stroke-linecap="round" stroke-linejoin="round"/>
<path d="M20.22 9.94C20.22 11.64 16.54 13.02 12 13.02C7.46 13.02 3.78 11.64 3.78 9.94" stroke="black" stroke-width="1.5" stroke-linecap="round" stroke-linejoin="round"/>
<path d="M20.22 14.06C20.22 15.76 16.54 17.14 12 17.14C7.46 17.14 3.78 15.76 3.78 14.06" stroke="black" stroke-width="1.5" stroke-linecap="round" stroke-linejoin="round"/>
<path d="M20.22 18.17C20.22 19.87 16.54 21.25 12 21.25C7.46 21.25 3.78 19.87 3.78 18.17" stroke="black" stroke-width="1.5" stroke-linecap="round" stroke-linejoin="round"/>
<path d="M20.22 5.83002V18.17" stroke="black" stroke-width="1.5" stroke-linecap="round" stroke-linejoin="round"/>
</svg>
