<svg width="24" height="24" viewBox="0 0 24 24" fill="none" xmlns="http://www.w3.org/2000/svg">
<path d="M8.39999 7.35C8.53999 7.2 8.73999 7.13 8.92999 7.13C9.11999 7.13 9.30999 7.2 9.45999 7.35L11.26 9.15V2.75C11.26 2.54 11.35 2.35 11.48 2.22C11.62 2.08 11.81 2 12.01 2C12.21 2 12.4 2.08 12.54 2.22C12.67 2.35 12.76 2.54 12.76 2.75V9.15L14.56 7.35C14.71 7.2 14.9 7.13 15.09 7.13C15.28 7.13 15.48 7.2 15.62 7.35C15.92 7.64 15.92 8.11 15.62 8.41L12.57 11.47C12.43 11.62 12.23 11.72 12.01 11.72C11.79 11.72 11.59 11.62 11.45 11.47L8.39999 8.41C8.09999 8.11 8.09999 7.64 8.39999 7.35Z" fill="black"/>
<path d="M12.01 11.72C11.81 11.72 11.62 11.64 11.48 11.5H12.54C12.4 11.64 12.21 11.72 12.01 11.72Z" fill="black"/>
<path d="M17.15 12.27H6.87C4.19 12.27 2.01001 14.45 2.01001 17.13C2.01001 19.81 4.19 22 6.87 22H17.15C19.83 22 22.01 19.81 22.01 17.13C22.01 14.45 19.83 12.27 17.15 12.27ZM13.04 17.88H10.98C10.57 17.88 10.23 17.55 10.23 17.13C10.23 16.72 10.57 16.38 10.98 16.38H13.04C13.45 16.38 13.79 16.72 13.79 17.13C13.79 17.55 13.45 17.88 13.04 17.88Z" fill="black"/>
</svg>
