<svg width="24" height="24" viewBox="0 0 24 24" fill="none" xmlns="http://www.w3.org/2000/svg">
<path d="M19.2 2H4.81001C3.26001 2 2.01001 3.26 2.01001 4.81V15.1C2.01001 15.97 2.40002 16.74 3.02002 17.26C3.51002 17.67 4.13001 17.91 4.81001 17.91H9.26001L8.83002 20.5H7.83002C7.42002 20.5 7.08002 20.84 7.08002 21.25C7.08002 21.66 7.42002 22 7.83002 22H16.05C16.47 22 16.8 21.66 16.8 21.25C16.8 20.84 16.47 20.5 16.05 20.5H15.06L14.63 17.91H19.2C19.89 17.91 20.51 17.67 21 17.26C21.62 16.74 22.01 15.97 22.01 15.1V4.81C22.01 3.26 20.75 2 19.2 2ZM3.51001 14.75C3.57001 14.77 3.64002 14.79 3.72002 14.79H20.51V15.1C20.51 15.82 19.92 16.41 19.2 16.41H4.81001C4.09001 16.41 3.51001 15.82 3.51001 15.1V14.75Z" fill="black"/>
</svg>
