<svg width="24" height="24" viewBox="0 0 24 24" fill="none" xmlns="http://www.w3.org/2000/svg">
<path d="M21.29 3.37C20.51 2.5 19.4 2 18.24 2H5.75999C4.59999 2 3.48999 2.5 2.71999 3.37C1.93999 4.23 1.57999 5.39 1.70999 6.55L2.77999 15.76C2.93999 17.12 3.75999 18.3 4.97999 18.92L10.14 21.56C10.72 21.85 11.36 22 12 22C12.63 22 13.27 21.85 13.84 21.56L19.02 18.92C20.24 18.3 21.06 17.12 21.22 15.76L22.29 6.55C22.43 5.39 22.06 4.23 21.29 3.37ZM13.2 13.48L16.02 10.96L13.9 9.06L10.96 14.4C10.84 14.6 10.65 14.74 10.42 14.78C10.2 14.82 9.96999 14.75 9.79999 14.6L6.35999 11.51C6.19999 11.37 6.10999 11.17 6.10999 10.96C6.10999 10.74 6.19999 10.54 6.35999 10.4L9.79999 7.31C10.11 7.04 10.58 7.06 10.86 7.37C11.13 7.68 11.11 8.15 10.8 8.43L7.97999 10.96L10.1 12.85L13.05 7.51C13.16 7.31 13.35 7.17 13.58 7.13C13.8 7.1 14.03 7.16 14.2 7.31L17.64 10.4C17.8 10.54 17.89 10.74 17.89 10.96C17.89 11.17 17.8 11.37 17.64 11.51L14.2 14.6C14.06 14.73 13.88 14.79 13.7 14.79C13.5 14.79 13.29 14.7 13.14 14.54C12.87 14.23 12.89 13.76 13.2 13.48Z" fill="black"/>
</svg>
