<svg width="24" height="24" viewBox="0 0 24 24" fill="none" xmlns="http://www.w3.org/2000/svg">
<path d="M12.14 18.23L5.32001 9.28999L7.62 6.36H16.39L18.68 9.28999L12.14 18.23Z" stroke="black" stroke-width="1.5" stroke-linecap="round" stroke-linejoin="round"/>
<path d="M5.32001 9.28999H18.68" stroke="black" stroke-width="1.5" stroke-linecap="round" stroke-linejoin="round"/>
<path d="M12.14 18.23L9.42999 9.28999" stroke="black" stroke-width="1.5" stroke-linecap="round" stroke-linejoin="round"/>
<path d="M14.57 9.28999L12.14 18.23" stroke="black" stroke-width="1.5" stroke-linecap="round" stroke-linejoin="round"/>
<path d="M10.47 6.36L9.42999 9.28999" stroke="black" stroke-width="1.5" stroke-linecap="round" stroke-linejoin="round"/>
<path d="M13.54 6.36L14.57 9.28999" stroke="black" stroke-width="1.5" stroke-linecap="round" stroke-linejoin="round"/>
<path d="M18.25 21.25H5.75C4.09 21.25 2.75 19.91 2.75 18.25V5.75C2.75 4.09 4.09 2.75 5.75 2.75H18.25C19.91 2.75 21.25 4.09 21.25 5.75V18.25C21.25 19.91 19.91 21.25 18.25 21.25Z" stroke="black" stroke-width="1.5" stroke-linecap="round" stroke-linejoin="round"/>
</svg>
