<svg width="24" height="24" viewBox="0 0 24 24" fill="none" xmlns="http://www.w3.org/2000/svg">
<path d="M8.89999 8.53999H6.85999L7.98001 7.11H9.41L8.89999 8.53999Z" fill="black"/>
<path d="M8.87997 10.04L10.22 14.47L6.83997 10.04H8.87997Z" fill="black"/>
<path d="M13.51 8.53999H10.49L11 7.11H13.01L13.51 8.53999Z" fill="black"/>
<path d="M10.44 10.04H13.59L12.1 15.51L10.44 10.04Z" fill="black"/>
<path d="M15.1 8.53999L14.6 7.11H16.02L17.14 8.53999H15.1Z" fill="black"/>
<path d="M15.14 10.04H17.2L13.93 14.51L15.14 10.04Z" fill="black"/>
<path d="M18.25 2H5.75C3.68 2 2 3.68 2 5.75V18.25C2 20.31 3.68 22 5.75 22H18.25C20.32 22 22 20.31 22 18.25V5.75C22 3.68 20.32 2 18.25 2ZM19.42 9.31C19.42 9.39 19.4 9.47 19.37 9.55C19.36 9.58 19.34 9.6 19.33 9.63C19.31 9.67 19.3 9.7 19.28 9.73L12.75 18.67C12.74 18.68 12.73 18.68 12.72 18.69C12.71 18.71 12.69 18.73 12.67 18.75L12.61 18.81C12.58 18.83 12.55 18.85 12.52 18.87C12.5 18.88 12.47 18.89 12.45 18.9C12.42 18.92 12.4 18.93 12.37 18.94C12.37 18.94 12.37 18.94 12.36 18.95C12.3 18.96 12.23 18.97 12.16 18.97C12.16 18.97 12.16 18.98 12.15 18.98C12.15 18.98 12.15 18.98 12.14 18.98C12.08 18.98 12.01 18.97 11.95 18.95C11.94 18.95 11.94 18.95 11.93 18.94C11.9 18.93 11.88 18.92 11.85 18.91C11.82 18.9 11.8 18.89 11.78 18.87C11.75 18.86 11.72 18.84 11.69 18.82C11.67 18.81 11.66 18.79 11.64 18.78C11.62 18.75 11.6 18.73 11.57 18.7C11.57 18.7 11.55 18.69 11.55 18.68L4.73001 9.74001C4.70001 9.71001 4.69001 9.67 4.67001 9.63C4.66001 9.61 4.64 9.58 4.63 9.55C4.6 9.47 4.57999 9.39 4.57999 9.3C4.57999 9.29 4.57001 9.28999 4.57001 9.28999C4.57001 9.28999 4.57001 9.29 4.57001 9.28C4.57001 9.19 4.6 9.1 4.63 9.02C4.64 8.99 4.66001 8.96 4.67001 8.94C4.69001 8.9 4.71001 8.86001 4.73001 8.82001L7.03 5.89999C7.17 5.70999 7.39 5.61 7.62 5.61H16.39C16.62 5.61 16.83 5.70999 16.98 5.89999L19.27 8.82001C19.29 8.86001 19.31 8.9 19.33 8.94C19.34 8.96 19.36 8.99 19.37 9.02C19.4 9.1 19.42 9.19 19.42 9.28C19.42 9.28 19.43 9.27999 19.43 9.28999C19.43 9.29999 19.42 9.3 19.42 9.31Z" fill="black"/>
</svg>
