<svg width="24" height="24" viewBox="0 0 24 24" fill="none" xmlns="http://www.w3.org/2000/svg">
<path d="M9.10999 14.16C9.00999 14.05 8.86999 13.99 8.71999 13.99H6.12999H5.05999C4.90999 13.99 4.76999 14.05 4.66999 14.16L4.05999 14.83C3.87999 15.03 3.87999 15.33 4.05999 15.52L6.94999 18.79L7.21999 18.47L9.72999 15.52C9.89999 15.32 9.88999 15.03 9.71999 14.83L9.10999 14.16Z" fill="black"/>
<path d="M18.89 5.33H18.81C18.39 5.33 18.02 5.55 17.81 5.88C17.72 6.03 17.66 6.2 17.64 6.39C17.63 6.43 17.63 6.46999 17.63 6.50999V12.61C17.61 12.99 17.29 13.3 16.89 13.3C16.48 13.3 16.14 12.96 16.14 12.55V10.18C16.14 10.17 16.14 10.17 16.14 10.16V4.02C16.14 3.39 15.63 2.88 15 2.88C14.39 2.88 13.9 3.36 13.87 3.97V3.98C13.87 4 13.86 4.01 13.86 4.02V10.16C13.86 10.16 13.86 10.16 13.86 10.17V11.5C13.86 11.92 13.53 12.25 13.11 12.25C12.7 12.25 12.36 11.92 12.36 11.5V9.36V3.22C12.36 2.59 11.85 2.07001 11.22 2.07001C11.17 2.07001 11.11 2.07 11.06 2.08C10.96 2.1 10.87 2.12 10.78 2.16C10.77 2.16 10.76 2.17 10.76 2.17C10.36 2.35 10.08 2.76 10.08 3.22V9.36V10.04C10.08 10.46 9.73999 10.79 9.32999 10.79C8.91999 10.79 8.57999 10.46 8.57999 10.04V9.28999V6.55C8.57999 6.14 8.36999 5.78 8.05999 5.56C7.85999 5.41 7.61999 5.33 7.35999 5.33H7.34999C6.67999 5.33 6.12999 5.88 6.12999 6.55V7.92999V9.28999V12.49H9.27999C9.48999 12.49 9.68999 12.58 9.82999 12.74L11.58 14.66C11.83 14.94 11.84 15.36 11.59 15.65L8.13999 19.72C9.40999 21.09 11.17 21.93 13.1 21.93C16.95 21.93 20.07 18.6 20.07 14.51V12.58V8.3V6.50999C20.07 5.85999 19.54 5.33 18.89 5.33Z" fill="black"/>
</svg>
