<svg width="24" height="24" viewBox="0 0 24 24" fill="none" xmlns="http://www.w3.org/2000/svg">
<path d="M3.78003 12.75H6.11002V20.22C6.11002 21.2 6.91005 22 7.89005 22H8.92004C9.90004 22 10.69 21.2 10.69 20.22V12.75H17.48C17.69 12.75 17.9 12.66 18.04 12.5L20.78 9.41C21.04 9.13 21.04 8.7 20.78 8.42L18.04 5.33C17.9 5.17 17.69 5.08 17.48 5.08H10.69V3.78C10.69 2.8 9.90004 2 8.92004 2H7.89005C6.91005 2 6.11002 2.8 6.11002 3.78V5.08H3.78003C3.36003 5.08 3.03003 5.42 3.03003 5.83V12C3.03003 12.41 3.36003 12.75 3.78003 12.75ZM7.61002 3.78C7.61002 3.63 7.74005 3.5 7.89005 3.5H8.92004C9.07004 3.5 9.19003 3.63 9.19003 3.78V5.08H7.61002V3.78ZM7.61002 12.75H9.19003V20.22C9.19003 20.37 9.07004 20.5 8.92004 20.5H7.89005C7.74005 20.5 7.61002 20.37 7.61002 20.22V12.75Z" fill="black"/>
</svg>
