<svg width="24" height="24" viewBox="0 0 24 24" fill="none" xmlns="http://www.w3.org/2000/svg">
<path d="M12 2C6.49 2 2 6.48 2 12C2 17.51 6.49 22 12 22C17.51 22 22 17.51 22 12C22 6.48 17.51 2 12 2ZM15.08 16.34C14.38 16.34 13.81 15.77 13.81 15.07C13.81 14.38 14.38 13.81 15.08 13.81C15.78 13.81 16.34 14.38 16.34 15.07C16.34 15.77 15.78 16.34 15.08 16.34ZM8.92001 7.65C9.62001 7.65 10.19 8.22 10.19 8.92C10.19 9.62 9.62001 10.18 8.92001 10.18C8.22001 10.18 7.66 9.62 7.66 8.92C7.66 8.22 8.22001 7.65 8.92001 7.65ZM9.51999 15.19C9.32999 15.19 9.13999 15.12 8.98999 14.97C8.69999 14.68 8.69999 14.2 8.98999 13.91L13.86 9.04C14.15 8.75 14.63 8.75 14.92 9.04C15.21 9.33 15.21 9.81 14.92 10.1L10.05 14.97C9.89999 15.12 9.70999 15.19 9.51999 15.19Z" fill="black"/>
</svg>
