<svg width="24" height="24" viewBox="0 0 24 24" fill="none" xmlns="http://www.w3.org/2000/svg">
<path d="M13.97 8.08002C13.83 8.38002 13.5 8.56002 13.17 8.50002C12.39 8.36002 11.6 8.36001 10.82 8.48001C10.49 8.54001 10.17 8.37002 10.03 8.08002C9.65997 8.15002 9.08996 8.33002 8.48996 8.75002C8.23996 9.27002 7.40998 11.14 7.34998 13.4C7.55998 13.64 8.08998 14.14 9.09998 14.26L9.72998 13.53C9.91998 13.31 10.21 13.22 10.49 13.29C11.54 13.56 12.62 13.55 13.63 13.27C13.94 13.18 14.27 13.3 14.45 13.57L14.92 14.26C15.9 14.12 16.43 13.64 16.65 13.39C16.59 11.13 15.74 9.26002 15.48 8.75002C14.9 8.34002 14.35 8.16002 13.97 8.08002ZM10.4 12.18C9.83996 12.18 9.37997 11.72 9.37997 11.16C9.37997 10.59 9.83996 10.13 10.4 10.13C10.97 10.13 11.43 10.59 11.43 11.16C11.43 11.72 10.97 12.18 10.4 12.18ZM13.49 12.18C12.92 12.18 12.46 11.72 12.46 11.16C12.46 10.59 12.92 10.13 13.49 10.13C14.06 10.13 14.52 10.59 14.52 11.16C14.52 11.72 14.06 12.18 13.49 12.18Z" fill="black"/>
<path d="M18.24 2H5.76001C4.17001 2 2.88 3.29 2.88 4.88V17.66C2.88 19.19 4.06001 20.39 5.57001 20.39H17.53C17.98 20.8 18.27 21.06 19 21.69C19.24 21.89 19.53 22 19.83 22C20.01 22 20.2 21.96 20.37 21.88C20.83 21.67 21.12 21.23 21.12 20.72V4.88C21.12 3.29 19.83 2 18.24 2ZM14.57 15.79C14.57 15.79 14.56 15.79 14.55 15.79C14.3 15.79 14.07 15.67 13.93 15.46L13.5 14.84C12.55 15.03 11.55 15.04 10.57 14.84L9.98999 15.53C9.83999 15.7 9.61001 15.79 9.39001 15.79C6.94001 15.7 5.99001 14.07 5.95001 14C5.88001 13.89 5.85001 13.76 5.85001 13.63C5.85001 10.48 7.17999 7.99 7.23999 7.89C7.28999 7.8 7.36001 7.70999 7.45001 7.64999C8.98001 6.48999 10.47 6.52 10.52 6.52C10.8 6.53 11.04 6.68999 11.17 6.92999C11.71 6.87999 12.25 6.88 12.79 6.94C12.92 6.69 13.16 6.53 13.44 6.52C13.49 6.52 14.99 6.48999 16.52 7.64999C16.6 7.70999 16.67 7.79 16.72 7.88C16.78 7.99001 18.15 10.47 18.15 13.63C18.15 13.77 18.12 13.9 18.05 14.02C18.01 14.08 17.01 15.71 14.57 15.79Z" fill="black"/>
</svg>
