<svg width="24" height="24" viewBox="0 0 24 24" fill="none" xmlns="http://www.w3.org/2000/svg">
<path d="M14.39 9.58L9.52 14.45" stroke="black" stroke-width="1.5" stroke-linecap="round" stroke-linejoin="round"/>
<path d="M8.92 7.66C8.22 7.66 7.66 8.23 7.66 8.92C7.66 9.62 8.23 10.18 8.92 10.18C9.61 10.18 10.18 9.61 10.18 8.92C10.19 8.23 9.62 7.66 8.92 7.66Z" fill="black"/>
<path d="M15.08 13.81C14.38 13.81 13.82 14.38 13.82 15.07C13.82 15.77 14.39 16.33 15.08 16.33C15.77 16.33 16.34 15.76 16.34 15.07C16.34 14.38 15.78 13.81 15.08 13.81Z" fill="black"/>
<path d="M20.44 15.8H20.43C20.95 14.64 21.25 13.35 21.25 12C21.25 6.89 17.11 2.75 12 2.75C6.89 2.75 2.75 6.89 2.75 12C2.75 17.11 6.89 21.25 12 21.25C13.51 21.25 14.94 20.88 16.2 20.24L21.2 20.98L20.44 15.8Z" stroke="black" stroke-width="1.5" stroke-linecap="round" stroke-linejoin="round"/>
</svg>
