<svg width="24" height="24" viewBox="0 0 24 24" fill="none" xmlns="http://www.w3.org/2000/svg">
<path d="M14.39 9.58L9.51999 14.45" stroke="black" stroke-width="1.5" stroke-linecap="round" stroke-linejoin="round"/>
<path d="M8.92001 10.18C9.61589 10.18 10.18 9.61588 10.18 8.92C10.18 8.22412 9.61589 7.66 8.92001 7.66C8.22413 7.66 7.66 8.22412 7.66 8.92C7.66 9.61588 8.22413 10.18 8.92001 10.18Z" fill="black"/>
<path d="M15.08 16.34C15.7759 16.34 16.34 15.7759 16.34 15.08C16.34 14.3841 15.7759 13.82 15.08 13.82C14.3841 13.82 13.82 14.3841 13.82 15.08C13.82 15.7759 14.3841 16.34 15.08 16.34Z" fill="black"/>
<path d="M12 21.25C17.1086 21.25 21.25 17.1086 21.25 12C21.25 6.89137 17.1086 2.75 12 2.75C6.89137 2.75 2.75 6.89137 2.75 12C2.75 17.1086 6.89137 21.25 12 21.25Z" stroke="black" stroke-width="1.5" stroke-linecap="round" stroke-linejoin="round"/>
</svg>
