<svg width="24" height="24" viewBox="0 0 24 24" fill="none" xmlns="http://www.w3.org/2000/svg">
<path d="M18 3H6C4.93913 3 3.92172 3.42143 3.17157 4.17157C2.42143 4.92172 2 5.93913 2 7L2 13.94C2 15.0009 2.42143 16.0183 3.17157 16.7684C3.92172 17.5186 4.93913 17.94 6 17.94H11.25V19.52H9.94C9.74109 19.52 9.55032 19.599 9.40967 19.7397C9.26902 19.8803 9.19 20.0711 9.19 20.27C9.19 20.4689 9.26902 20.6597 9.40967 20.8003C9.55032 20.941 9.74109 21.02 9.94 21.02H14.06C14.2589 21.02 14.4497 20.941 14.5903 20.8003C14.731 20.6597 14.81 20.4689 14.81 20.27C14.81 20.0711 14.731 19.8803 14.5903 19.7397C14.4497 19.599 14.2589 19.52 14.06 19.52H12.75V17.89H18C19.0609 17.89 20.0783 17.4686 20.8284 16.7184C21.5786 15.9683 22 14.9509 22 13.89V7C22 5.93913 21.5786 4.92172 20.8284 4.17157C20.0783 3.42143 19.0609 3 18 3Z" fill="black"/>
</svg>
