<svg width="24" height="24" viewBox="0 0 24 24" fill="none" xmlns="http://www.w3.org/2000/svg">
<path d="M17.09 2.75C17.16 3.56 17.25 5.68 16.24 7.89C14.88 10.86 12.53 11.81 12 12C11.48 11.77 9.03001 10.64 7.76001 7.89C7.09001 6.44 6.92001 4.9 6.91001 4.81C6.82001 3.97 6.86001 3.26 6.91001 2.75" stroke="black" stroke-width="1.5" stroke-linecap="round" stroke-linejoin="round"/>
<path d="M7.76001 4.81H11.15" stroke="black" stroke-width="1.5" stroke-linecap="round" stroke-linejoin="round"/>
<path d="M7.76001 7.89H10.3" stroke="black" stroke-width="1.5" stroke-linecap="round" stroke-linejoin="round"/>
<path d="M6.91 21.25C6.84 20.44 6.75001 18.32 7.76001 16.11C9.12001 13.14 11.47 12.19 12 12C12.52 12.23 14.97 13.36 16.24 16.11C16.91 17.56 17.08 19.1 17.09 19.19C17.18 20.03 17.14 20.74 17.09 21.25" stroke="black" stroke-width="1.5" stroke-linecap="round" stroke-linejoin="round"/>
<path d="M16.24 19.19H12.85" stroke="black" stroke-width="1.5" stroke-linecap="round" stroke-linejoin="round"/>
<path d="M16.24 16.11H13.7" stroke="black" stroke-width="1.5" stroke-linecap="round" stroke-linejoin="round"/>
</svg>
