<svg width="24" height="24" viewBox="0 0 24 24" fill="none" xmlns="http://www.w3.org/2000/svg">
<path d="M16.93 15.83C16.93 15.82 16.93 15.82 16.93 15.82C16.93 15.82 16.92 15.81 16.92 15.8C16.05 13.92 14.7 12.74 13.61 12.03C14.68 11.36 16.01 10.2 16.92 8.2C17.88 6.1 17.95 4.04 17.83 2.69C17.8 2.28 17.41 1.97 17.02 2.01C16.61 2.04 16.3 2.4 16.34 2.82C16.44 3.99 16.38 5.77 15.56 7.58C14.54 9.82 12.9 10.8 12.02 11.19C11.28 10.82 10.02 10.03 9.05997 8.64H10.3C10.72 8.64 11.05 8.31 11.05 7.89C11.05 7.48 10.72 7.14 10.3 7.14H8.25998C8.03998 6.56 7.88996 6 7.79996 5.56H11.15C11.57 5.56 11.9 5.22 11.9 4.81C11.9 4.4 11.57 4.06 11.15 4.06H7.75998C7.70998 4.06 7.66998 4.08 7.62998 4.09C7.60998 3.67 7.61998 3.25 7.65998 2.83C7.69998 2.42 7.39996 2.05 6.98996 2.01C6.58996 1.97 6.20999 2.26 6.16999 2.68C6.08999 3.41 6.08999 4.15 6.16999 4.89C6.16999 4.96 6.34998 6.61 7.06998 8.18C7.06998 8.18 7.06998 8.18 7.06998 8.19C7.06998 8.19 7.07996 8.2 7.07996 8.21C7.94996 10.09 9.29999 11.27 10.39 11.98C9.31999 12.64 7.98996 13.81 7.07996 15.8C6.11996 17.91 6.04999 19.96 6.16999 21.32C6.19999 21.73 6.58998 22.04 6.97998 22C7.38998 21.97 7.69998 21.6 7.65998 21.19C7.55998 20.02 7.61997 18.24 8.43997 16.43C9.45997 14.19 11.1 13.21 11.98 12.82C12.72 13.19 13.98 13.97 14.94 15.37H13.7C13.28 15.37 12.95 15.7 12.95 16.12C12.95 16.53 13.28 16.87 13.7 16.87H15.74C15.96 17.45 16.11 18.01 16.2 18.45H12.85C12.43 18.45 12.1 18.78 12.1 19.2C12.1 19.61 12.43 19.95 12.85 19.95H16.24C16.29 19.95 16.33 19.93 16.37 19.92C16.39 20.34 16.38 20.76 16.34 21.18C16.3 21.59 16.6 21.96 17.01 22H17.09C17.47 22 17.79 21.72 17.83 21.33C17.91 20.6 17.91 19.85 17.83 19.12C17.83 19.05 17.65 17.4 16.93 15.83Z" fill="black"/>
</svg>
