<svg width="24" height="24" viewBox="0 0 24 24" fill="none" xmlns="http://www.w3.org/2000/svg">
<path d="M12 2.25C6.62 2.25 2.25 6.62 2.25 12C2.25 17.37 6.62 21.75 12 21.75C17.38 21.75 21.75 17.37 21.75 12C21.75 6.62 17.38 2.25 12 2.25ZM15.64 12.29C15.64 14.75 13.64 16.75 11.18 16.75H10.89C10.47 16.75 10.14 16.41 10.14 16V8C10.14 7.58 10.47 7.25 10.89 7.25H11.18C13.64 7.25 15.64 9.25 15.64 11.7V12.29Z" fill="black"/>
<path d="M14.14 11.7V12.29C14.14 13.76 13.05 14.99 11.64 15.21V8.78C13.05 9 14.14 10.23 14.14 11.7Z" fill="black"/>
</svg>
