<svg width="24" height="24" viewBox="0 0 24 24" fill="none" xmlns="http://www.w3.org/2000/svg">
<path d="M9.09 4.83C9.28891 4.83 9.47967 4.75098 9.62033 4.61033C9.76098 4.46968 9.84 4.27891 9.84 4.08C9.84 3.88109 9.76098 3.69032 9.62033 3.54967C9.47967 3.40902 9.28891 3.33 9.09 3.33H5.62C5.42189 3.33259 5.23262 3.41244 5.09253 3.55254C4.95243 3.69263 4.87259 3.88189 4.87 4.08V20.2C4.87259 20.3981 4.95243 20.5874 5.09253 20.7275C5.23262 20.8676 5.42189 20.9474 5.62 20.95H9.09C9.28891 20.95 9.47967 20.871 9.62033 20.7303C9.76098 20.5897 9.84 20.3989 9.84 20.2C9.84 20.0011 9.76098 19.8103 9.62033 19.6697C9.47967 19.529 9.28891 19.45 9.09 19.45H6.37V4.83H9.09Z" fill="black"/>
<path d="M17.78 3.3L12.78 2.05C12.5173 1.98257 12.2426 1.97641 11.9771 2.03201C11.7116 2.08761 11.4625 2.20348 11.2489 2.37067C11.0353 2.53786 10.863 2.7519 10.7453 2.99627C10.6276 3.24063 10.5676 3.50878 10.57 3.78V20.21C10.5687 20.4446 10.6138 20.6771 10.7026 20.8942C10.7915 21.1114 10.9224 21.3088 11.0878 21.4751C11.2532 21.6415 11.4499 21.7735 11.6665 21.8636C11.8831 21.9536 12.1154 22 12.35 22C12.4987 21.9997 12.6467 21.9795 12.79 21.94L17.79 20.69C18.1675 20.5938 18.5031 20.3763 18.7451 20.0711C18.9872 19.7658 19.1224 19.3895 19.13 19V5C19.124 4.60742 18.9883 4.22785 18.7442 3.92039C18.5 3.61292 18.161 3.3948 17.78 3.3ZM13.62 13.37C13.17 13.37 12.62 13.01 12.62 12C12.62 10.99 13.14 10.62 13.62 10.62C14.1 10.62 14.62 10.98 14.62 12C14.62 13.02 14.08 13.37 13.62 13.37Z" fill="black"/>
</svg>
