<svg width="24" height="24" viewBox="0 0 24 24" fill="none" xmlns="http://www.w3.org/2000/svg">
<path d="M21.24 13.51C20.83 13.51 20.49 13.85 20.49 14.26V14.76C20.49 15.45 19.93 16.01 19.24 16.01H18.96H18.74C18.33 16.01 17.99 16.35 17.99 16.76C17.99 17.17 18.33 17.51 18.74 17.51H18.96H19.24C20.76 17.51 21.99 16.28 21.99 14.76V14.26C21.99 13.85 21.65 13.51 21.24 13.51Z" fill="black"/>
<path d="M21.24 7.51001C20.83 7.51001 20.49 7.85001 20.49 8.26001V11.26C20.49 11.67 20.83 12.01 21.24 12.01C21.65 12.01 21.99 11.67 21.99 11.26V8.26001C21.99 7.85001 21.65 7.51001 21.24 7.51001Z" fill="black"/>
<path d="M18.74 3.51001H19.24C19.93 3.51001 20.49 4.07001 20.49 4.76001V5.26001C20.49 5.67001 20.83 6.01001 21.24 6.01001C21.65 6.01001 21.99 5.67001 21.99 5.26001V4.76001C21.99 3.24001 20.76 2.01001 19.24 2.01001H18.74C18.33 2.01001 17.99 2.35001 17.99 2.76001C17.99 3.17001 18.32 3.51001 18.74 3.51001Z" fill="black"/>
<path d="M12.74 3.51001H15.74C16.15 3.51001 16.49 3.17001 16.49 2.76001C16.49 2.35001 16.15 2.01001 15.74 2.01001H12.74C12.33 2.01001 11.99 2.35001 11.99 2.76001C11.99 3.17001 12.32 3.51001 12.74 3.51001Z" fill="black"/>
<path d="M7.23999 6.01001C7.64999 6.01001 7.98999 5.67001 7.98999 5.26001V4.76001C7.98999 4.07001 8.54999 3.51001 9.23999 3.51001H9.73999C10.15 3.51001 10.49 3.17001 10.49 2.76001C10.49 2.35001 10.15 2.01001 9.73999 2.01001H9.23999C7.71999 2.01001 6.48999 3.24001 6.48999 4.76001V5.26001C6.48999 5.67001 6.81999 6.01001 7.23999 6.01001Z" fill="black"/>
<path d="M7.23999 7.51001C6.82999 7.51001 6.48999 7.85001 6.48999 8.26001V10.14V11.26C6.48999 11.67 6.82999 12.01 7.23999 12.01C7.64999 12.01 7.98999 11.67 7.98999 11.26V10.14V8.26001C7.98999 7.85001 7.64999 7.51001 7.23999 7.51001Z" fill="black"/>
<path d="M10.49 14.58L14.35 10.72V11.99C14.35 12.4 14.68 12.74 15.1 12.74C15.51 12.74 15.85 12.4 15.85 11.99V10.14V8.90997C15.85 8.48997 15.51 8.15997 15.1 8.15997H12.01C11.6 8.15997 11.26 8.48997 11.26 8.90997C11.26 9.31997 11.6 9.65997 12.01 9.65997H13.28L12.8 10.14L9.42999 13.51C9.36999 13.57 9.34 13.63 9.31 13.69C8.89 13.44 8.41999 13.29 7.89999 13.29H4.82001C3.27001 13.29 2.01001 14.55 2.01001 16.1V19.18C2.01001 20.73 3.27001 21.99 4.82001 21.99H7.89999C9.44999 21.99 10.71 20.73 10.71 19.18V16.1C10.71 15.58 10.56 15.11 10.31 14.69C10.37 14.66 10.44 14.63 10.49 14.58Z" fill="black"/>
<path d="M15.74 16.01H12.74C12.33 16.01 11.99 16.35 11.99 16.76C11.99 17.17 12.33 17.51 12.74 17.51H15.74C16.15 17.51 16.49 17.17 16.49 16.76C16.49 16.35 16.15 16.01 15.74 16.01Z" fill="black"/>
</svg>
