<svg width="24" height="24" viewBox="0 0 24 24" fill="none" xmlns="http://www.w3.org/2000/svg">
<path d="M12 21.25C17.1086 21.25 21.25 17.1086 21.25 12C21.25 6.89137 17.1086 2.75 12 2.75C6.89137 2.75 2.75 6.89137 2.75 12C2.75 17.1086 6.89137 21.25 12 21.25Z" stroke="black" stroke-width="1.5" stroke-linecap="round" stroke-linejoin="round"/>
<path d="M8.53 3.43C10 5.41 11.73 8.12 13.19 11.57C14.63 14.96 15.38 18.04 15.78 20.45" stroke="black" stroke-width="1.5" stroke-linecap="round" stroke-linejoin="round"/>
<path d="M2.82999 10.81C4.40999 11.01 7.33001 11.15 10.7 10.02C14.62 8.7 17.08 6.34 18.18 5.13" stroke="black" stroke-width="1.5" stroke-linecap="round" stroke-linejoin="round"/>
<path d="M20.85 12.77C19.87 12.53 17.02 11.94 13.66 12.72C12.56 12.98 11.43 13.37 10.27 13.97C7.73999 15.3 6.13 17.1 5.25 18.31" stroke="black" stroke-width="1.5" stroke-linecap="round" stroke-linejoin="round"/>
</svg>
