<svg width="24" height="24" viewBox="0 0 24 24" fill="none" xmlns="http://www.w3.org/2000/svg">
<path d="M10.46 9.3C10.7 9.22 10.93 9.13 11.16 9.04C10.31 7.42 9.34997 5.86 8.27997 4.37C5.99997 5.49 4.28997 7.58999 3.71997 10.11C5.99997 10.29 8.30996 10.03 10.46 9.3Z" fill="black"/>
<path d="M9.92001 13.3C10.8 12.85 11.7 12.49 12.64 12.21C12.6 12.09 12.55 11.97 12.5 11.86C12.29 11.36 12.06 10.87 11.83 10.39C11.54 10.5 11.25 10.62 10.94 10.73C9.05 11.36 7.02999 11.69 5.01999 11.69C4.51999 11.69 4.01999 11.66 3.51999 11.62C3.50999 11.75 3.5 11.87 3.5 12C3.5 13.93 4.15999 15.71 5.23999 17.14C6.54999 15.57 8.14001 14.24 9.92001 13.3Z" fill="black"/>
<path d="M17.08 5.2C15.66 4.14 13.9 3.5 12 3.5C11.21 3.5 10.45 3.62 9.71997 3.82C10.76 5.3 11.7 6.84 12.54 8.44C14.5 7.47 16.01 6.26 17.08 5.2Z" fill="black"/>
<path d="M10.61 14.63C8.58999 15.7 7.17 17.1 6.25 18.24C7.76 19.64 9.78 20.5 12 20.5C13.03 20.5 14.01 20.31 14.93 19.97C14.53 17.81 13.95 15.69 13.2 13.64C12.3 13.89 11.44 14.21 10.61 14.63Z" fill="black"/>
<path d="M14.67 13.29C15.38 15.25 15.93 17.26 16.32 19.31C18.43 18.06 19.94 15.93 20.37 13.43C19.15 13.16 17.07 12.89 14.67 13.29Z" fill="black"/>
<path d="M13.2 9.78001C13.44 10.28 13.67 10.77 13.89 11.27C13.97 11.47 14.04 11.67 14.12 11.87C16.76 11.37 19.08 11.63 20.5 11.92C20.48 9.71001 19.6 7.70001 18.19 6.20001C17.03 7.36001 15.38 8.71001 13.2 9.78001Z" fill="black"/>
</svg>
