<svg width="24" height="24" viewBox="0 0 24 24" fill="none" xmlns="http://www.w3.org/2000/svg">
<path d="M19.2 16.39C18.7175 16.3915 18.2443 16.5228 17.83 16.77L16.31 15.25C16.6726 14.6898 16.8669 14.0373 16.87 13.37V10.63C16.8684 9.96558 16.6738 9.31593 16.31 8.75999L17.83 7.23999C18.2464 7.48106 18.7188 7.60864 19.2 7.60999C19.7562 7.60999 20.2999 7.44493 20.7622 7.13572C21.2245 6.82651 21.5847 6.38705 21.797 5.87301C22.0094 5.35897 22.0645 4.79346 21.9553 4.2481C21.846 3.70274 21.5774 3.20207 21.1834 2.80948C20.7894 2.4169 20.2878 2.15006 19.7421 2.04277C19.1963 1.93548 18.631 1.99255 18.1177 2.20677C17.6044 2.42099 17.1663 2.78271 16.8587 3.24612C16.5511 3.70954 16.388 4.2538 16.39 4.80999C16.3962 5.29181 16.5272 5.7638 16.77 6.17999L15.25 7.69999C14.6941 7.33615 14.0444 7.1416 13.38 7.13999H10.63C9.96559 7.1416 9.31594 7.33615 8.76 7.69999L7.24 6.17999C7.48285 5.7638 7.61377 5.29181 7.62 4.80999C7.62198 4.2538 7.45886 3.70954 7.1513 3.24612C6.84374 2.78271 6.40557 2.42099 5.89229 2.20677C5.37901 1.99255 4.8137 1.93548 4.26795 2.04277C3.72221 2.15006 3.22058 2.4169 2.82659 2.80948C2.43261 3.20207 2.16399 3.70274 2.05475 4.2481C1.94551 4.79346 2.00057 5.35897 2.21296 5.87301C2.42534 6.38705 2.7855 6.82651 3.24781 7.13572C3.71013 7.44493 4.25381 7.60999 4.81 7.60999C5.29099 7.60725 5.76303 7.47977 6.18 7.23999L7.7 8.75999C7.33616 9.31593 7.14161 9.96558 7.14 10.63V13.37C7.14309 14.0373 7.33744 14.6898 7.7 15.25L6.18 16.77C5.76568 16.5228 5.29248 16.3915 4.81 16.39C4.25424 16.39 3.71095 16.5548 3.24885 16.8636C2.78675 17.1723 2.42658 17.6112 2.2139 18.1247C2.00122 18.6381 1.94557 19.2031 2.05399 19.7482C2.16242 20.2933 2.43005 20.794 2.82303 21.187C3.21602 21.5799 3.71671 21.8476 4.2618 21.956C4.80688 22.0644 5.37188 22.0088 5.88534 21.7961C6.3988 21.5834 6.83766 21.2232 7.14643 20.7611C7.4552 20.299 7.62 19.7558 7.62 19.2C7.61514 18.718 7.48413 18.2456 7.24 17.83L8.76 16.31C9.31679 16.6708 9.96651 16.8619 10.63 16.86H13.38C14.0435 16.8619 14.6932 16.6708 15.25 16.31L16.77 17.83C16.5259 18.2456 16.3949 18.718 16.39 19.2C16.39 19.7558 16.5548 20.299 16.8636 20.7611C17.1723 21.2232 17.6112 21.5834 18.1247 21.7961C18.6381 22.0088 19.2031 22.0644 19.7482 21.956C20.2933 21.8476 20.794 21.5799 21.187 21.187C21.58 20.794 21.8476 20.2933 21.956 19.7482C22.0644 19.2031 22.0088 18.6381 21.7961 18.1247C21.5834 17.6112 21.2233 17.1723 20.7612 16.8636C20.2991 16.5548 19.7558 16.39 19.2 16.39ZM13 12.75H11C10.8011 12.75 10.6103 12.671 10.4697 12.5303C10.329 12.3897 10.25 12.1989 10.25 12C10.25 11.8011 10.329 11.6103 10.4697 11.4697C10.6103 11.329 10.8011 11.25 11 11.25H13C13.1989 11.25 13.3897 11.329 13.5303 11.4697C13.671 11.6103 13.75 11.8011 13.75 12C13.75 12.1989 13.671 12.3897 13.5303 12.5303C13.3897 12.671 13.1989 12.75 13 12.75Z" fill="black"/>
</svg>
