<svg width="24" height="24" viewBox="0 0 24 24" fill="none" xmlns="http://www.w3.org/2000/svg">
<path d="M4.81 6.87C5.94771 6.87 6.87 5.94771 6.87 4.81C6.87 3.67229 5.94771 2.75 4.81 2.75C3.67229 2.75 2.75 3.67229 2.75 4.81C2.75 5.94771 3.67229 6.87 4.81 6.87Z" stroke="black" stroke-width="1.5" stroke-linecap="round" stroke-linejoin="round"/>
<path d="M19.19 6.87C20.3277 6.87 21.25 5.94771 21.25 4.81C21.25 3.67229 20.3277 2.75 19.19 2.75C18.0523 2.75 17.13 3.67229 17.13 4.81C17.13 5.94771 18.0523 6.87 19.19 6.87Z" stroke="black" stroke-width="1.5" stroke-linecap="round" stroke-linejoin="round"/>
<path d="M4.81 21.25C5.94771 21.25 6.87 20.3277 6.87 19.19C6.87 18.0523 5.94771 17.13 4.81 17.13C3.67229 17.13 2.75 18.0523 2.75 19.19C2.75 20.3277 3.67229 21.25 4.81 21.25Z" stroke="black" stroke-width="1.5" stroke-linecap="round" stroke-linejoin="round"/>
<path d="M19.19 21.25C20.3277 21.25 21.25 20.3277 21.25 19.19C21.25 18.0523 20.3277 17.13 19.19 17.13C18.0523 17.13 17.13 18.0523 17.13 19.19C17.13 20.3277 18.0523 21.25 19.19 21.25Z" stroke="black" stroke-width="1.5" stroke-linecap="round" stroke-linejoin="round"/>
<path d="M13.37 7.89H10.63C9.11674 7.89 7.89 9.11674 7.89 10.63V13.37C7.89 14.8833 9.11674 16.11 10.63 16.11H13.37C14.8833 16.11 16.11 14.8833 16.11 13.37V10.63C16.11 9.11674 14.8833 7.89 13.37 7.89Z" stroke="black" stroke-width="1.5" stroke-linecap="round" stroke-linejoin="round"/>
<path d="M8.35001 15.65L6.35001 17.65" stroke="black" stroke-width="1.5" stroke-linecap="round" stroke-linejoin="round"/>
<path d="M8.35 8.35L6.42 6.42" stroke="black" stroke-width="1.5" stroke-linecap="round" stroke-linejoin="round"/>
<path d="M15.6 8.39999L17.6 6.39999" stroke="black" stroke-width="1.5" stroke-linecap="round" stroke-linejoin="round"/>
<path d="M17.64 17.64L15.67 15.67" stroke="black" stroke-width="1.5" stroke-linecap="round" stroke-linejoin="round"/>
<path d="M10.97 12H13.03" stroke="black" stroke-width="1.5" stroke-linecap="round" stroke-linejoin="round"/>
</svg>
