<svg width="24" height="24" viewBox="0 0 24 24" fill="none" xmlns="http://www.w3.org/2000/svg">
<path d="M12.53 2.22C12.23 1.93 11.77 1.93 11.47 2.22L5.69001 7.93C4.81001 8.87 3.35001 10.82 3.32001 13.42C3.30001 15.56 4.24002 17.74 5.89002 19.4C7.55002 21.08 9.72001 22 12 22C14.28 22 16.45 21.08 18.11 19.4C19.76 17.74 20.7 15.56 20.68 13.42C20.65 10.82 19.19 8.87 18.29 7.91L12.53 2.22ZM15.29 16.61C15.15 16.76 14.96 16.83 14.76 16.83C14.57 16.83 14.38 16.76 14.23 16.62C13.94 16.32 13.94 15.85 14.23 15.56C14.83 14.95 15.22 14.13 15.21 13.47C15.21 13.06 15.54 12.72 15.96 12.72C16.38 12.72 16.71 13.05 16.71 13.46C16.72 14.53 16.19 15.71 15.29 16.61Z" fill="black"/>
</svg>
