<svg width="24" height="24" viewBox="0 0 24 24" fill="none" xmlns="http://www.w3.org/2000/svg">
<path d="M9.94 12H15.08" stroke="black" stroke-width="1.5" stroke-linecap="round" stroke-linejoin="round"/>
<path d="M4.45001 15.29H4.12C3.36 15.29 2.73999 14.67 2.73999 13.91V10.25C2.73999 9.4 3.43 8.71 4.28 8.71C5.13 8.71 5.82001 9.4 5.82001 10.25V13.91C5.83001 14.67 5.22001 15.29 4.45001 15.29Z" stroke="black" stroke-width="1.5" stroke-linecap="round" stroke-linejoin="round"/>
<path d="M7.54001 16.11H7.20999C6.44999 16.11 5.82999 15.49 5.82999 14.73V9.43C5.82999 8.58 6.52 7.89 7.37 7.89C8.22 7.89 8.91 8.58 8.91 9.43V14.73C8.92 15.49 8.30001 16.11 7.54001 16.11Z" stroke="black" stroke-width="1.5" stroke-linecap="round" stroke-linejoin="round"/>
<path d="M16.79 16.11H16.46C15.7 16.11 15.08 15.49 15.08 14.73V9.43C15.08 8.58 15.77 7.89 16.62 7.89C17.47 7.89 18.16 8.58 18.16 9.43V14.73C18.17 15.49 17.55 16.11 16.79 16.11Z" stroke="black" stroke-width="1.5" stroke-linecap="round" stroke-linejoin="round"/>
<path d="M19.71 15.29C18.86 15.29 18.17 14.6 18.17 13.75V10.26C18.17 9.41 18.86 8.72 19.71 8.72C20.56 8.72 21.25 9.41 21.25 10.26V13.75C21.25 14.6 20.56 15.29 19.71 15.29Z" stroke="black" stroke-width="1.5" stroke-linecap="round" stroke-linejoin="round"/>
</svg>
