<svg width="24" height="24" viewBox="0 0 24 24" fill="none" xmlns="http://www.w3.org/2000/svg">
<path d="M12 21.25C17.1086 21.25 21.25 17.1086 21.25 12C21.25 6.89137 17.1086 2.75 12 2.75C6.89137 2.75 2.75 6.89137 2.75 12C2.75 17.1086 6.89137 21.25 12 21.25Z" stroke="black" stroke-width="1.5" stroke-linecap="round" stroke-linejoin="round"/>
<path d="M13.83 3.11C13.8 3.55 13.6 3.96 13.3 4.28C12.99 4.61 12.53 4.73 12.23 5.06C12.02 5.3 11.97 5.63 12.03 5.94C12.11 6.3 12.36 6.57 12.44 6.92C12.52 7.28 12.44 7.64 12.46 8.01C12.48 8.42 12.52 8.84 12.5 9.25C12.47 10.03 11.97 10.73 11.26 11.04C10.96 11.17 10.61 11.25 10.4 11.51C10.2 11.75 10.18 12.09 10 12.34C9.8 12.64 9.38999 12.79 9.03999 12.68C8.69999 12.58 8.46999 12.28 8.17999 12.1C7.84999 11.9 7.45 11.82 7.06 11.81C6.65 11.8 6.23001 11.87 5.82001 11.93C5.02001 12.06 4.08999 12.2 3.39999 11.68" stroke="black" stroke-width="1.5" stroke-linecap="round" stroke-linejoin="round"/>
<path d="M10.98 20.42C10.96 20.01 10.92 19.59 10.94 19.18C10.97 18.4 11.47 17.7 12.18 17.39C12.48 17.26 12.83 17.18 13.04 16.92C13.24 16.68 13.26 16.34 13.44 16.09C13.64 15.79 14.05 15.64 14.4 15.75C14.74 15.85 14.97 16.15 15.26 16.33C15.59 16.53 15.99 16.61 16.38 16.62C16.79 16.63 17.21 16.56 17.62 16.5C18.42 16.37 19.2079 16.1 19.8979 16.62" stroke="black" stroke-width="1.5" stroke-linecap="round" stroke-linejoin="round"/>
</svg>
