<svg width="24" height="24" viewBox="0 0 24 24" fill="none" xmlns="http://www.w3.org/2000/svg">
<path d="M19.19 9.94V2.75H4.81V9.94" stroke="black" stroke-width="1.5" stroke-linecap="round" stroke-linejoin="round"/>
<path d="M20.22 9.28C20.84 9.68 21.25 10.38 21.25 11.17V19C21.25 20.24 20.24 21.25 19 21.25H5C3.76 21.25 2.75 20.24 2.75 19V11.17C2.75 10.38 3.16 9.68 3.78 9.28" stroke="black" stroke-width="1.5" stroke-linecap="round" stroke-linejoin="round"/>
<path d="M20.22 9.59L13.35 15.6C12.58 16.28 11.42 16.28 10.64 15.6L3.76999 9.59" stroke="black" stroke-width="1.5" stroke-linecap="round" stroke-linejoin="round"/>
<path d="M14.13 15.01L20.22 20.22" stroke="black" stroke-width="1.5" stroke-linecap="round" stroke-linejoin="round"/>
<path d="M3.78 20.22L9.94 15.08" stroke="black" stroke-width="1.5" stroke-linecap="round" stroke-linejoin="round"/>
<path d="M7.89 5.83H8.92" stroke="black" stroke-width="1.5" stroke-linecap="round" stroke-linejoin="round"/>
<path d="M7.89 8.92H16.11" stroke="black" stroke-width="1.5" stroke-linecap="round" stroke-linejoin="round"/>
</svg>
