<svg width="24" height="24" viewBox="0 0 24 24" fill="none" xmlns="http://www.w3.org/2000/svg">
<path d="M11.18 12.06C11.67 12.54 12.34 12.54 12.83 12.06L19.15 5.78L20.32 4.61C19.88 4.38 19.39 4.25 18.86 4.25H5.15001C4.62001 4.25 4.13 4.38 3.69 4.61L4.86 5.78L11.18 12.06Z" fill="black"/>
<path d="M8.93001 11.94L3.67001 6.7L2.57001 5.61C2.21001 6.12 2.01001 6.73 2.01001 7.4V16.6C2.01001 17.16 2.16001 17.69 2.41001 18.14C2.42001 18.13 2.42001 18.13 2.43001 18.12L3.57001 17.03L8.93001 11.94Z" fill="black"/>
<path d="M14.09 12.92L13.89 13.12C13.35 13.65 12.68 13.92 12 13.92C11.33 13.92 10.66 13.65 10.12 13.12L9.99001 12.99L4.59 18.15L3.47001 19.21C3.46001 19.22 3.45 19.23 3.44 19.23C3.93 19.56 4.51001 19.75 5.15001 19.75H18.86C19.49 19.75 20.08 19.56 20.57 19.23L19.45 18.14L14.09 12.92Z" fill="black"/>
<path d="M21.45 5.61L20.35 6.7L15.15 11.86L20.45 17.03L21.6 18.15C21.86 17.7 22.01 17.16 22.01 16.6V7.4C22.01 6.73 21.81 6.12 21.45 5.61Z" fill="black"/>
</svg>
