<svg width="24" height="24" viewBox="0 0 24 24" fill="none" xmlns="http://www.w3.org/2000/svg">
<path d="M5.56 14.45V2.75C5.56 2.34 5.22 2 4.81 2C4.39 2 4.06 2.34 4.06 2.75V14.45C2.87 14.78 2 15.86 2 17.14C2 18.43 2.87 19.5 4.06 19.83V21.25C4.06 21.67 4.39 22 4.81 22C5.22 22 5.56 21.67 5.56 21.25V19.83C6.74 19.5 7.61 18.43 7.61 17.14C7.61 15.86 6.74 14.78 5.56 14.45Z" fill="black"/>
<path d="M12.75 4.17V2.75C12.75 2.34 12.41 2 12 2C11.59 2 11.25 2.34 11.25 2.75V4.17C10.07 4.5 9.19 5.58 9.19 6.86C9.19 8.15 10.07 9.22 11.25 9.56V21.25C11.25 21.67 11.59 22 12 22C12.41 22 12.75 21.67 12.75 21.25V9.56C13.93 9.22 14.81 8.15 14.81 6.86C14.81 5.58 13.93 4.5 12.75 4.17Z" fill="black"/>
<path d="M19.94 14.45V2.75C19.94 2.34 19.61 2 19.19 2C18.78 2 18.44 2.34 18.44 2.75V14.45C17.26 14.78 16.39 15.86 16.39 17.14C16.39 18.43 17.26 19.5 18.44 19.83V21.25C18.44 21.67 18.78 22 19.19 22C19.61 22 19.94 21.67 19.94 21.25V19.83C21.13 19.5 22 18.43 22 17.14C22 15.86 21.13 14.78 19.94 14.45Z" fill="black"/>
</svg>
