<svg width="24" height="24" viewBox="0 0 24 24" fill="none" xmlns="http://www.w3.org/2000/svg">
<path d="M21.25 20.54H9.82002C9.93002 20.45 10.04 20.37 10.14 20.27L12.04 18.41C12.2 18.44 12.36 18.46 12.52 18.46C13.27 18.46 13.97 18.17 14.5 17.64L21.19 10.92C22.28 9.83004 22.28 8.04004 21.19 6.95004L17.12 2.86002C16.59 2.33002 15.88 2.04004 15.13 2.04004C14.38 2.04004 13.68 2.33002 13.15 2.86002L6.47002 9.57004C5.76002 10.28 5.52001 11.28 5.73001 12.19L3.85002 13.95C2.76002 15.05 2.76002 16.83 3.85002 17.93L6.18001 20.26C6.28001 20.36 6.39001 20.45 6.51001 20.54H2.76001C2.34001 20.54 2.01001 20.87 2.01001 21.29C2.01001 21.7 2.34001 22.04 2.76001 22.04H21.25C21.66 22.04 22 21.7 22 21.29C22 20.87 21.66 20.54 21.25 20.54ZM8.16002 19.59C7.81002 19.59 7.49002 19.45 7.24002 19.2L4.92001 16.87C4.41001 16.36 4.41001 15.52 4.90001 15.03L6.47002 13.55L10.54 17.64C10.56 17.66 10.59 17.68 10.62 17.7L9.08002 19.2C8.84002 19.45 8.51002 19.59 8.16002 19.59Z" fill="black"/>
</svg>
