<svg width="24" height="24" viewBox="0 0 24 24" fill="none" xmlns="http://www.w3.org/2000/svg">
<path d="M12 2.25C6.62 2.25 2.25 6.62 2.25 12C2.25 17.37 6.62 21.75 12 21.75C17.38 21.75 21.75 17.37 21.75 12C21.75 6.62 17.38 2.25 12 2.25ZM15.62 12.41L12.62 16.91C12.49 17.12 12.25 17.25 12 17.25C11.75 17.25 11.51 17.12 11.38 16.91L8.38 12.41C8.21 12.16 8.21 11.83 8.38 11.58L11.38 7.08C11.65 6.66 12.35 6.66 12.62 7.08L15.62 11.58C15.79 11.83 15.79 12.16 15.62 12.41Z" fill="black"/>
<path d="M12.27 13.64L13.25 13.27L12 15.14L10.75 13.27L11.73 13.64C11.82 13.67 11.91 13.69 12 13.69C12.09 13.69 12.18 13.67 12.27 13.64Z" fill="black"/>
<path d="M12 12.14L10.25 11.48L12 8.85001L13.75 11.48L12 12.14Z" fill="black"/>
</svg>
