<svg width="24" height="24" viewBox="0 0 24 24" fill="none" xmlns="http://www.w3.org/2000/svg">
<path d="M12 5.75L14.88 8.63L15 8.75H6.00001C5.1354 8.75 4.30621 9.09346 3.69484 9.70483C3.08347 10.3162 2.74001 11.1454 2.74001 12.01C2.74001 12.8746 3.08347 13.7038 3.69484 14.3152C4.30621 14.9265 5.1354 15.27 6.00001 15.27" stroke="black" stroke-width="1.5" stroke-linecap="round" stroke-linejoin="round"/>
<path d="M12 18.35L9.11 15.47L9 15.35H18C18.8646 15.35 19.6938 15.0065 20.3052 14.3952C20.9165 13.7838 21.26 12.9546 21.26 12.09C21.26 11.2254 20.9165 10.3962 20.3052 9.78483C19.6938 9.17347 18.8646 8.83 18 8.83" stroke="black" stroke-width="1.5" stroke-linecap="round" stroke-linejoin="round"/>
</svg>
