<svg width="24" height="24" viewBox="0 0 24 24" fill="none" xmlns="http://www.w3.org/2000/svg">
<path d="M4.84999 7.9C4.55999 7.61 4.08999 7.61 3.78999 7.9C3.58999 8.1 3.39999 8.31 3.21999 8.53C1.57999 10.51 1.57999 13.49 3.21999 15.47C5.44999 18.15 8.64999 19.69 12 19.69C12.92 19.69 13.83 19.58 14.7 19.36C14.96 19.29 15.17 19.09 15.24 18.83C15.31 18.57 15.24 18.29 15.05 18.1L4.84999 7.9Z" fill="black"/>
<path d="M18.58 17.52C19.39 16.94 20.12 16.26 20.78 15.47C21.6 14.48 22.01 13.24 22.01 12C22.01 10.76 21.6 9.52 20.78 8.53C18.56 5.85 15.36 4.31 12 4.31C10.16 4.31 8.36 4.8 6.74 5.68L3.28 2.22C2.99 1.93 2.51 1.93 2.22 2.22C1.93 2.51 1.93 2.99 2.22 3.28L20.72 21.78C20.87 21.93 21.06 22 21.25 22C21.44 22 21.63 21.93 21.78 21.78C22.07 21.49 22.07 21.01 21.78 20.72L18.58 17.52ZM15.19 14.13C15.61 13.5 15.83 12.77 15.83 12C15.83 9.89 14.11 8.17 12 8.17C11.23 8.17 10.5 8.39 9.87 8.81L7.83 6.77C9.13 6.14 10.56 5.81 12 5.81C14.91 5.81 17.69 7.15 19.63 9.49C20.79 10.9 20.79 13.1 19.63 14.51C19 15.26 18.29 15.91 17.51 16.45L15.19 14.13Z" fill="black"/>
</svg>
