<svg width="24" height="24" viewBox="0 0 24 24" fill="none" xmlns="http://www.w3.org/2000/svg">
<path d="M14.52 18.63C13.71 18.84 12.87 18.94 12 18.94C8.73 18.94 5.8 17.41 3.8 14.99C2.4 13.3 2.4 10.69 3.8 9.01C3.96 8.81 4.14 8.62 4.32 8.43" stroke="black" stroke-width="1.5" stroke-linecap="round" stroke-linejoin="round"/>
<path d="M20.2 14.99C19.4 15.95 18.45 16.77 17.4 17.41L6.59 6.59C8.18 5.61 10.02 5.06 12 5.06C15.27 5.06 18.2 6.59 20.2 9.01C21.6 10.69 21.6 13.31 20.2 14.99Z" stroke="black" stroke-width="1.5" stroke-linecap="round" stroke-linejoin="round"/>
<path d="M15.08 12C15.08 12.85 14.73 13.62 14.18 14.18L9.82001 9.82C10.37 9.26 11.15 8.92 12 8.92C13.71 8.92 15.08 10.29 15.08 12Z" stroke="black" stroke-width="1.5" stroke-linecap="round" stroke-linejoin="round"/>
<path d="M2.75 2.75L6.59 6.59L9.82 9.82L14.18 14.18L17.41 17.41L21.25 21.25" stroke="black" stroke-width="1.5" stroke-linecap="round" stroke-linejoin="round"/>
</svg>
