<svg width="24" height="24" viewBox="0 0 24 24" fill="none" xmlns="http://www.w3.org/2000/svg">
<path d="M14.33 12C14.33 13.29 13.29 14.33 12 14.33C10.71 14.33 9.67004 13.29 9.67004 12C9.67004 10.71 10.71 9.67 12 9.67C13.29 9.67 14.33 10.71 14.33 12Z" fill="black"/>
<path d="M20.78 8.52999C18.55 5.84999 15.35 4.31 12 4.31C8.65004 4.31 5.45005 5.84999 3.23005 8.52999C1.58005 10.51 1.58005 13.49 3.23005 15.47C5.45005 18.15 8.65004 19.69 12 19.69C15.35 19.69 18.55 18.15 20.78 15.47C22.42 13.49 22.42 10.51 20.78 8.52999ZM12 15.83C9.89004 15.83 8.17006 14.11 8.17006 12C8.17006 9.89 9.89004 8.16999 12 8.16999C14.11 8.16999 15.83 9.89 15.83 12C15.83 14.11 14.11 15.83 12 15.83Z" fill="black"/>
</svg>
