<svg width="24" height="24" viewBox="0 0 24 24" fill="none" xmlns="http://www.w3.org/2000/svg">
<path d="M11.94 21.25V14.16H9.5V11.43H11.94V9.43C11.94 8.31 12.22 7.47 12.86 6.83C13.5 6.19 14.34 5.87 15.42 5.87C16.22 5.87 16.94 5.91 17.5 5.99V8.39H16.06C15.54 8.39 15.18 8.51 14.98 8.75C14.82 8.99 14.74 9.31 14.74 9.71V11.43H17.51L17.15 14.16H14.75V21.25" stroke="black" stroke-width="1.5" stroke-linecap="round" stroke-linejoin="round"/>
<path d="M17.14 21.25H6.86C4.59 21.25 2.75 19.41 2.75 17.14V6.86C2.75 4.59 4.59 2.75 6.86 2.75H17.14C19.41 2.75 21.25 4.59 21.25 6.86V17.14C21.25 19.41 19.41 21.25 17.14 21.25Z" stroke="black" stroke-width="1.5" stroke-linecap="round" stroke-linejoin="round"/>
</svg>
