<svg width="24" height="24" viewBox="0 0 24 24" fill="none" xmlns="http://www.w3.org/2000/svg">
<path d="M18.17 2H16C15.59 2 15.25 2.34 15.25 2.75C15.25 3.16 15.59 3.5 16 3.5H18.17C19.46 3.5 20.5 4.54999 20.5 5.82999V7.89999C20.5 8.30999 20.84 8.64999 21.25 8.64999C21.66 8.64999 22 8.31999 22 7.89999V5.82999C22 3.71999 20.28 2 18.17 2Z" fill="black"/>
<path d="M2.75001 8.64999C3.16001 8.64999 3.50001 8.30999 3.50001 7.89999V5.82999C3.50001 4.53999 4.55001 3.5 5.83001 3.5H7.95001C8.36001 3.5 8.70001 3.16 8.70001 2.75C8.70001 2.34 8.37001 2 7.96001 2H5.84001C3.73001 2 2.01001 3.71999 2.01001 5.82999V7.89999C2.00001 8.31999 2.34001 8.64999 2.75001 8.64999Z" fill="black"/>
<path d="M21.25 15.35C20.84 15.35 20.5 15.69 20.5 16.1V18.17C20.5 19.46 19.45 20.5 18.17 20.5H16C15.59 20.5 15.25 20.84 15.25 21.25C15.25 21.66 15.58 22 16 22H18.17C20.28 22 22 20.28 22 18.17V16.1C22 15.68 21.66 15.35 21.25 15.35Z" fill="black"/>
<path d="M7.96 20.5H5.84C4.55 20.5 3.51 19.45 3.51 18.17V16.1C3.51 15.69 3.17 15.35 2.76 15.35C2.35 15.35 2 15.68 2 16.1V18.17C2 20.28 3.72 22 5.83 22H7.95C8.36 22 8.7 21.66 8.7 21.25C8.7 20.84 8.37 20.5 7.96 20.5Z" fill="black"/>
<path d="M18.54 16.91C18.72 16.54 18.57 16.09 18.2 15.9C14.44 14.03 9.36 14.06 5.63001 15.98C5.26001 16.17 5.12001 16.62 5.31001 16.99C5.44001 17.25 5.71 17.4 5.98 17.4C6.1 17.4 6.21 17.37 6.32 17.32C9.63 15.61 14.19 15.59 17.53 17.25C17.91 17.43 18.36 17.28 18.54 16.91Z" fill="black"/>
<path d="M12 12.47C14.03 12.47 15.69 10.82 15.69 8.78C15.69 6.75 14.04 5.09 12 5.09C9.96 5.09 8.31 6.74 8.31 8.78C8.31 10.82 9.97 12.47 12 12.47Z" fill="black"/>
</svg>
