<svg width="24" height="24" viewBox="0 0 24 24" fill="none" xmlns="http://www.w3.org/2000/svg">
<path d="M8.48001 2H11.46V7.95H8.48001C6.85001 7.95 5.51001 6.61 5.51001 4.97C5.51001 3.34 6.85001 2 8.48001 2Z" fill="black"/>
<path d="M8.48001 9.03H11.46V14.97H8.48001C6.85001 14.97 5.51001 13.65 5.51001 12C5.51001 11.21 5.82001 10.46 6.39001 9.9C6.95001 9.34 7.69001 9.03 8.48001 9.03Z" fill="black"/>
<path d="M8.48003 16.05H11.46V19.25C11.46 20.77 10.22 22 8.71004 22C7.03004 22 5.63003 20.79 5.53003 19.25C5.47003 18.38 5.78003 17.54 6.40003 16.93C6.95003 16.37 7.69003 16.05 8.48003 16.05Z" fill="black"/>
<path d="M15.51 7.95H12.54V2H15.51C17.15 2 18.48 3.34 18.48 4.97C18.48 6.61 17.15 7.95 15.51 7.95Z" fill="black"/>
<path d="M18.4901 12C18.4901 13.64 17.1501 14.97 15.5201 14.97C13.8801 14.97 12.54 13.65 12.54 12C12.54 10.36 13.8801 9.03 15.5201 9.03C17.1501 9.03 18.4901 10.36 18.4901 12Z" fill="black"/>
</svg>
