<svg width="24" height="24" viewBox="0 0 24 24" fill="none" xmlns="http://www.w3.org/2000/svg">
<path d="M6.28 10.38C8.22956 10.38 9.81 8.84881 9.81 6.96C9.81 5.07119 8.22956 3.54 6.28 3.54C4.33043 3.54 2.75 5.07119 2.75 6.96C2.75 8.84881 4.33043 10.38 6.28 10.38Z" stroke="black" stroke-width="1.5" stroke-linecap="round" stroke-linejoin="round"/>
<path d="M21.25 6.96H9.81" stroke="black" stroke-width="1.5" stroke-linecap="round" stroke-linejoin="round"/>
<path d="M17.72 20.46C19.6696 20.46 21.25 18.9288 21.25 17.04C21.25 15.1512 19.6696 13.62 17.72 13.62C15.7704 13.62 14.19 15.1512 14.19 17.04C14.19 18.9288 15.7704 20.46 17.72 20.46Z" stroke="black" stroke-width="1.5" stroke-linecap="round" stroke-linejoin="round"/>
<path d="M2.75 17.04H14.19" stroke="black" stroke-width="1.5" stroke-linecap="round" stroke-linejoin="round"/>
</svg>
