<svg width="24" height="24" viewBox="0 0 24 24" fill="none" xmlns="http://www.w3.org/2000/svg">
<path d="M16 2.75H18.17C19.88 2.75 21.25 4.12999 21.25 5.82999V7.89999" stroke="black" stroke-width="1.5" stroke-linecap="round" stroke-linejoin="round"/>
<path d="M2.75 7.89999V5.82999C2.75 4.11999 4.12999 2.75 5.82999 2.75H7.95001" stroke="black" stroke-width="1.5" stroke-linecap="round" stroke-linejoin="round"/>
<path d="M16 21.25H18.17C19.88 21.25 21.25 19.87 21.25 18.17V16.1" stroke="black" stroke-width="1.5" stroke-linecap="round" stroke-linejoin="round"/>
<path d="M2.75 16.1V18.17C2.75 19.88 4.12999 21.25 5.82999 21.25H7.95001" stroke="black" stroke-width="1.5" stroke-linecap="round" stroke-linejoin="round"/>
<path d="M16.6 8.98999C16.87 9.60999 17.02 10.29 17.02 11V13C17.02 15.76 14.78 18 12.02 18C11.46 18 10.92 17.91 10.41 17.74" stroke="black" stroke-width="1.5" stroke-linecap="round" stroke-linejoin="round"/>
<path d="M15.45 7.35999C14.55 6.51999 13.35 6 12.02 6C9.26 6 7.02 8.24 7.02 11C7.02 12 6.9 13.01 7.12 13.99C7.33 14.91 7.78 15.79 8.43 16.48" stroke="black" stroke-width="1.5" stroke-linecap="round" stroke-linejoin="round"/>
<path d="M12.82 15.13C12.57 15.22 12.3 15.28 12.02 15.28C10.77 15.28 9.75 14.26 9.75 13.01V11.24" stroke="black" stroke-width="1.5" stroke-linecap="round" stroke-linejoin="round"/>
<path d="M11.03 8.95001C11.33 8.80001 11.67 8.72 12.02 8.72C13.27 8.72 14.29 9.73999 14.29 10.99V12.99C14.29 13.12 14.28 13.24 14.26 13.36" stroke="black" stroke-width="1.5" stroke-linecap="round" stroke-linejoin="round"/>
<path d="M12.02 11.32V12.44" stroke="black" stroke-width="1.5" stroke-linecap="round" stroke-linejoin="round"/>
</svg>
