<svg width="24" height="24" viewBox="0 0 24 24" fill="none" xmlns="http://www.w3.org/2000/svg">
<path d="M18.17 2H16C15.59 2 15.25 2.34 15.25 2.75C15.25 3.16 15.59 3.5 16 3.5H18.17C19.46 3.5 20.5 4.54999 20.5 5.82999V7.89999C20.5 8.30999 20.84 8.64999 21.25 8.64999C21.66 8.64999 22 8.30999 22 7.89999V5.82999C22 3.71999 20.28 2 18.17 2Z" fill="black"/>
<path d="M2.75 8.64999C3.16 8.64999 3.5 8.30999 3.5 7.89999V5.82999C3.5 4.53999 4.54999 3.5 5.82999 3.5H7.95001C8.36001 3.5 8.70001 3.16 8.70001 2.75C8.70001 2.34 8.36001 2 7.95001 2H5.82999C3.71999 2 2 3.71999 2 5.82999V7.89999C2 8.31999 2.34 8.64999 2.75 8.64999Z" fill="black"/>
<path d="M21.25 15.35C20.84 15.35 20.5 15.69 20.5 16.1V18.17C20.5 19.46 19.45 20.5 18.17 20.5H16C15.59 20.5 15.25 20.84 15.25 21.25C15.25 21.66 15.58 22 16 22H18.17C20.28 22 22 20.28 22 18.17V16.1C22 15.68 21.66 15.35 21.25 15.35Z" fill="black"/>
<path d="M7.95999 20.5H5.84C4.55 20.5 3.51001 19.45 3.51001 18.17V16.1C3.51001 15.69 3.17001 15.35 2.76001 15.35C2.35001 15.35 2.01001 15.69 2.01001 16.1V18.17C2.01001 20.28 3.73 22 5.84 22H7.95999C8.36999 22 8.70999 21.66 8.70999 21.25C8.70999 20.84 8.36999 20.5 7.95999 20.5Z" fill="black"/>
<path d="M17.77 13V11C17.77 10.19 17.61 9.40999 17.28 8.67999C17.11 8.29999 16.67 8.12998 16.29 8.29998C15.91 8.46998 15.74 8.91 15.91 9.29C16.15 9.83 16.27 10.41 16.27 11V13C16.27 15.34 14.36 17.25 12.02 17.25C11.55 17.25 11.09 17.17 10.65 17.03C10.25 16.9 9.82998 17.11 9.69998 17.5C9.56998 17.89 9.77998 18.32 10.17 18.45C10.76 18.65 11.39 18.75 12.02 18.75C15.19 18.75 17.77 16.17 17.77 13Z" fill="black"/>
<path d="M7.84002 13.83C7.70002 13.2 7.72002 12.53 7.75002 11.82C7.76002 11.55 7.77001 11.27 7.77001 11C7.77001 8.66 9.68001 6.75 12.02 6.75C13.11 6.75 14.14 7.16 14.94 7.91C15.24 8.19 15.72 8.18 16 7.88C16.28 7.58 16.27 7.10001 15.97 6.82001C14.9 5.81001 13.5 5.25 12.02 5.25C8.85001 5.25 6.27001 7.83 6.27001 11C6.27001 11.26 6.26002 11.51 6.25002 11.77C6.22002 12.54 6.20003 13.34 6.38003 14.16C6.62003 15.23 7.14003 16.21 7.88003 17C8.03003 17.16 8.23002 17.24 8.43002 17.24C8.61002 17.24 8.80003 17.17 8.94003 17.04C9.24003 16.76 9.26003 16.28 8.97003 15.98C8.41003 15.38 8.03002 14.64 7.84002 13.83Z" fill="black"/>
<path d="M9.73999 10.48C9.32999 10.48 8.98999 10.82 8.98999 11.23V13C8.98999 14.67 10.35 16.02 12.01 16.02C12.38 16.02 12.74 15.95 13.08 15.83C13.47 15.68 13.66 15.25 13.51 14.86C13.36 14.47 12.93 14.28 12.54 14.43C12.37 14.49 12.19 14.53 12.01 14.53C11.17 14.53 10.49 13.85 10.49 13.01V11.24C10.49 10.82 10.16 10.48 9.73999 10.48Z" fill="black"/>
<path d="M14.13 14.11C14.17 14.12 14.21 14.12 14.26 14.12C14.62 14.12 14.94 13.86 15 13.5C15.03 13.34 15.04 13.17 15.04 13V11C15.04 9.33 13.68 7.98001 12.02 7.98001C11.56 7.98001 11.11 8.08 10.7 8.28C10.33 8.46 10.1699 8.91 10.3599 9.28C10.5499 9.65 10.9899 9.81 11.3599 9.62C11.5699 9.52 11.79 9.47 12.02 9.47C12.86 9.47 13.54 10.15 13.54 10.99V12.99C13.54 13.07 13.53 13.16 13.52 13.24C13.45 13.66 13.73 14.04 14.13 14.11Z" fill="black"/>
<path d="M12.77 12.44V11.32C12.77 10.91 12.43 10.57 12.02 10.57C11.61 10.57 11.27 10.91 11.27 11.32V12.44C11.27 12.85 11.61 13.19 12.02 13.19C12.43 13.19 12.77 12.86 12.77 12.44Z" fill="black"/>
</svg>
