<svg width="24" height="24" viewBox="0 0 24 24" fill="none" xmlns="http://www.w3.org/2000/svg">
<path d="M19 7.55C18.83 7.17 18.39 7 18.01 7.17C17.63 7.34 17.46 7.78 17.63 8.16C17.97 8.94 18.15 9.77 18.15 10.63V13.38C18.15 16.76 15.4 19.5 12.03 19.5C11.36 19.5 10.69 19.39 10.06 19.18C9.67003 19.05 9.24001 19.26 9.11001 19.65C8.98001 20.04 9.19001 20.47 9.58001 20.6C10.37 20.87 11.19 21 12.03 21C16.23 21 19.65 17.58 19.65 13.38V10.63C19.65 9.56 19.43 8.52 19 7.55Z" fill="black"/>
<path d="M6.01001 14.57C5.81001 13.67 5.83999 12.73 5.86999 11.74C5.87999 11.37 5.89001 10.99 5.89001 10.62C5.89001 7.24 8.64001 4.5 12.01 4.5C13.58 4.5 15.07 5.09 16.21 6.17C16.51 6.45 16.99 6.44 17.27 6.14C17.55 5.84 17.54 5.36 17.24 5.08C15.83 3.74 13.98 3 12.02 3C7.81999 3 4.39999 6.42 4.39999 10.62C4.39999 10.98 4.39 11.33 4.38 11.69C4.35 12.73 4.30999 13.81 4.54999 14.9C4.86999 16.32 5.56001 17.63 6.54001 18.67C6.69001 18.83 6.88999 18.91 7.08999 18.91C7.26999 18.91 7.46 18.84 7.6 18.71C7.9 18.43 7.92 17.95 7.63 17.65C6.83 16.8 6.27001 15.74 6.01001 14.57Z" fill="black"/>
<path d="M12.02 17.25C12.49 17.25 12.95 17.17 13.39 17C13.78 16.85 13.97 16.42 13.83 16.03C13.68 15.64 13.25 15.45 12.86 15.59C12.59 15.69 12.31 15.74 12.03 15.74C10.72 15.74 9.65002 14.67 9.65002 13.36V10.93C9.65002 10.52 9.31002 10.18 8.90002 10.18C8.49002 10.18 8.15002 10.52 8.15002 10.93V13.36C8.15002 15.51 9.89002 17.25 12.02 17.25Z" fill="black"/>
<path d="M14.37 13.77C14.3 14.18 14.58 14.56 14.99 14.63C15.03 14.64 15.0699 14.64 15.1099 14.64C15.4699 14.64 15.79 14.38 15.85 14.01C15.88 13.8 15.9 13.59 15.9 13.38V10.63C15.9 8.49 14.16 6.75 12.02 6.75C11.43 6.75 10.8599 6.88 10.3299 7.14C9.95995 7.32 9.79997 7.77 9.97997 8.14C10.16 8.51 10.61 8.67 10.98 8.49C11.3 8.33 11.65 8.25 12.02 8.25C13.33 8.25 14.4 9.32 14.4 10.63V13.38C14.4 13.51 14.39 13.64 14.37 13.77Z" fill="black"/>
<path d="M11.27 11.07V12.61C11.27 13.02 11.61 13.36 12.02 13.36C12.43 13.36 12.77 13.02 12.77 12.61V11.07C12.77 10.66 12.43 10.32 12.02 10.32C11.61 10.32 11.27 10.65 11.27 11.07Z" fill="black"/>
</svg>
