<svg width="24" height="24" viewBox="0 0 24 24" fill="none" xmlns="http://www.w3.org/2000/svg">
<path d="M18.55 6.33C18.46 5.68 18.01 5.14 17.38 4.94C16.75 4.73 16.07 4.9 15.61 5.37L14.74 6.27L13.81 4.96C13.43 4.41 12.8 4.1 12.12 4.14C11.64 4.18 11.2 4.38 10.87 4.72L9.52002 2.81C9.06002 2.17 8.27003 1.87 7.50003 2.05C6.73003 2.24 6.16004 2.87 6.04004 3.65L4.04004 17.41V17.43L4.03003 17.49C4.02003 17.53 4.02002 17.57 4.02002 17.61C4.02002 17.65 4.03003 17.69 4.03003 17.74C4.04003 17.76 4.04004 17.77 4.04004 17.79C4.04004 17.79 4.04002 17.8 4.05002 17.8C4.05002 17.82 4.06004 17.84 4.07004 17.86C4.07004 17.87 4.07002 17.88 4.08002 17.89C4.08002 17.9 4.09004 17.91 4.10004 17.92C4.11004 17.95 4.12005 17.98 4.14005 18.01C4.15005 18.02 4.16004 18.04 4.17004 18.05C4.18004 18.07 4.19004 18.08 4.20004 18.09C4.22004 18.11 4.23003 18.13 4.25003 18.14C4.30003 18.19 4.36004 18.23 4.42004 18.26L4.47003 18.29L10.97 21.73C11.31 21.91 11.67 22 12.04 22C12.43 22 12.82 21.9 13.17 21.7L18.82 18.49C19.64 18.03 20.09 17.12 19.96 16.19L18.55 6.33ZM12.21 5.64C12.29 5.64 12.47 5.65 12.59 5.82L13.67 7.36L7.92004 13.29L11.87 5.87C11.97 5.68 12.14 5.65 12.21 5.64Z" fill="black"/>
</svg>
