<svg width="24" height="24" viewBox="0 0 24 24" fill="none" xmlns="http://www.w3.org/2000/svg">
<path d="M20.22 3.03H3.78C2.8 3.03 2 3.82 2 4.8V5.83C2 6.54 2.42 7.15 3.03 7.44V17.99C3.03 19.63 4.36999 20.97 6.00999 20.97H17.99C19.63 20.97 20.97 19.63 20.97 17.99V7.44C21.58 7.15 22 6.54 22 5.83V4.8C22 3.82 21.2 3.03 20.22 3.03ZM13.82 18.28L13.76 18.54C13.68 18.9 13.47 19.22 13.19 19.47H10.82C10.53 19.22 10.33 18.9 10.22 18.46L10.19 18.34C10.17 18.19 10.15 18.08 10.15 17.99C10.15 17.43 10.35 16.87 10.71 16.43L11.69 15.2L12.1 16.08C12.22 16.33 12.46 16.49 12.73 16.51C12.97 16.52 13.19 16.43 13.34 16.25C13.59 16.72 13.85 17.41 13.85 18.02C13.85 18.1 13.83 18.21 13.82 18.28ZM16.39 19.47H15.02C15.1 19.29 15.17 19.1 15.21 18.91L15.29 18.6C15.33 18.36 15.35 18.17 15.35 17.97C15.35 16.81 14.75 15.68 14.57 15.36L14.28 14.87C14.1 14.55 13.78 14.35 13.37 14.33C13.23 14.33 13.09 14.36 12.97 14.41L12.72 13.87C12.39 13.25 11.47 13.11 10.97 13.7L9.55 15.48C8.97 16.19 8.64999 17.08 8.64999 17.99C8.64999 18.15 8.67 18.35 8.73 18.67L8.75999 18.77C8.75999 18.78 8.78 18.87 8.78 18.88C8.83 19.08 8.90001 19.28 8.99001 19.47H7.61V13.3C7.61 12.43 8.32 11.72 9.19 11.72H14.81C15.68 11.72 16.39 12.43 16.39 13.3V19.47ZM20.5 5.83C20.5 5.99 20.38 6.11 20.22 6.11H3.78C3.62 6.11 3.5 5.99 3.5 5.83V4.8C3.5 4.65 3.62 4.53 3.78 4.53H20.22C20.38 4.53 20.5 4.65 20.5 4.8V5.83Z" fill="black"/>
</svg>
