<svg width="24" height="24" viewBox="0 0 24 24" fill="none" xmlns="http://www.w3.org/2000/svg">
<path d="M17.93 6.2H15.83V5.84C15.83 3.72 14.11 2 12 2C9.89 2 8.17001 3.72 8.17001 5.84V6.2H6.07001C3.83001 6.2 2 8.03 2 10.27V17.93C2 20.18 3.83001 22 6.07001 22H17.93C20.17 22 22 20.18 22 17.93V10.27C22 8.03 20.17 6.2 17.93 6.2ZM9.94 14.85C9.53 14.85 9.19 14.52 9.19 14.1C9.19 13.69 9.53 13.35 9.94 13.35H11.25V12C11.25 11.59 11.59 11.25 12 11.25C12.41 11.25 12.75 11.59 12.75 12V13.35H14.06C14.47 13.35 14.81 13.69 14.81 14.1C14.81 14.52 14.47 14.85 14.06 14.85H12.75V16.2C12.75 16.62 12.41 16.95 12 16.95C11.59 16.95 11.25 16.62 11.25 16.2V14.85H9.94ZM9.67001 5.84C9.67001 4.55 10.71 3.5 12 3.5C13.29 3.5 14.33 4.55 14.33 5.84V6.2H9.67001V5.84Z" fill="black"/>
</svg>
