<svg width="24" height="24" viewBox="0 0 24 24" fill="none" xmlns="http://www.w3.org/2000/svg">
<path d="M21.1 2.94C21.09 2.94 21.09 2.94 21.1 2.94C20.46 2.3 19.34 1.96 18.01 2C16.6 2.04 15.14 2.42 13.68 3.11C12.65 3.6 11.7 4.27 10.86 5.05C10.85 5.05 10.84 5.03999 10.82 5.02999C9.24998 4.67999 7.61998 5.13999 6.45998 6.27999C5.74998 6.98999 5.73998 8.15999 6.44998 8.87999L7.61998 10.07C7.65998 10.11 7.69998 10.13 7.74998 10.16C7.45998 11.18 7.25999 12.33 7.15999 13.65L7.13998 13.78V13.81C6.66998 13.65 6.16998 13.57 5.66998 13.57H5.63998C4.38998 13.57 3.20999 14.05 2.29998 14.95C1.89998 15.38 1.89998 16.05 2.30998 16.51C2.69998 16.9 3.13998 17.22 3.62998 17.45C4.31998 17.79 4.83998 17.92 5.44998 17.92C5.52998 17.92 5.59998 17.92 5.67998 17.91C5.82998 17.91 5.95998 17.87 6.08998 17.85C6.06998 17.99 6.02998 18.11 6.01998 18.26C5.96998 18.99 6.08998 19.55 6.44998 20.33C6.66998 20.82 6.97998 21.27 7.38998 21.69C7.59998 21.89 7.87999 21.99 8.15999 21.99C8.43999 21.99 8.71998 21.89 8.94998 21.68C9.83998 20.79 10.34 19.6 10.34 18.33C10.35 17.83 10.27 17.32 10.12 16.85H10.13L10.27 16.83C11.58 16.74 12.73 16.56 13.75 16.28C13.78 16.33 13.79 16.37 13.83 16.41L15 17.6C15.34 17.95 15.8 18.15 16.29 18.15C16.3 18.15 16.3 18.15 16.31 18.15C16.79 18.15 17.25 17.96 17.59 17.62C18.74 16.47 19.22 14.84 18.89 13.26C18.88 13.24 18.87 13.23 18.87 13.22C19.66 12.38 20.33 11.43 20.83 10.4C21.54 8.94 21.93 7.48 21.99 6.05C22.05 4.73 21.73 3.59999 21.11 2.94999C21.1 2.94999 21.1 2.95 21.1 2.94ZM17.82 6.19999C17.42 6.59999 16.77 6.59 16.37 6.19C15.97 5.78 15.98 5.13 16.38 4.73C16.78 4.33 17.43 4.32999 17.83 4.73999C18.23 5.13999 18.22 5.79999 17.82 6.19999ZM7.51998 7.83C7.38998 7.69 7.38998 7.46999 7.51998 7.34999C8.08998 6.78999 8.83998 6.47 9.60998 6.43C9.33998 6.78 9.08998 7.13999 8.85998 7.51999C8.64998 7.86999 8.46999 8.24 8.29998 8.62L7.51998 7.83ZM7.37998 15.64C7.30998 15.66 7.24998 15.69 7.18998 15.74C7.16998 15.75 7.13998 15.75 7.11998 15.77C6.86998 16 6.32998 16.38 5.60998 16.42C5.14998 16.44 4.81998 16.36 4.27998 16.1C4.06998 16 3.86998 15.87 3.68998 15.73C4.24998 15.3 4.91999 15.08 5.65999 15.07C6.28999 15.07 6.89998 15.26 7.41998 15.61C7.40998 15.62 7.39998 15.63 7.37998 15.64ZM8.16998 20.3C8.02998 20.12 7.90998 19.92 7.80998 19.7C7.55998 19.15 7.48998 18.82 7.51998 18.36C7.55998 17.62 7.94998 17.09 8.17998 16.84C8.18998 16.82 8.19998 16.79 8.21998 16.76C8.24998 16.71 8.28998 16.65 8.30998 16.59C8.31998 16.57 8.32998 16.56 8.33998 16.54C8.66998 17.07 8.84998 17.69 8.83998 18.32C8.83998 19.06 8.59998 19.75 8.16998 20.3ZM16.53 16.56C16.45 16.64 16.36 16.65 16.3 16.65C16.28 16.65 16.16 16.64 16.07 16.55L15.28 15.75C15.67 15.58 16.04 15.4 16.4 15.19C16.77 14.97 17.13 14.72 17.47 14.46C17.42 15.24 17.1 15.99 16.53 16.56Z" fill="black"/>
</svg>
