<svg width="24" height="24" viewBox="0 0 24 24" fill="none" xmlns="http://www.w3.org/2000/svg">
<path d="M10.62 5.87C9.97776 5.72734 9.31001 5.74777 8.67768 5.92943C8.04536 6.11109 7.46859 6.4482 7 6.91C6.80144 7.11516 6.69043 7.38949 6.69043 7.675C6.69043 7.96052 6.80144 8.23484 7 8.44L8.14 9.62" stroke="black" stroke-width="1.5" stroke-linecap="round" stroke-linejoin="round"/>
<path d="M18.08 13.46C18.2174 14.1102 18.1906 14.7844 18.002 15.4217C17.8134 16.059 17.4691 16.6392 17 17.11C16.9005 17.2104 16.7821 17.2901 16.6517 17.3444C16.5213 17.3988 16.3813 17.4268 16.24 17.4268C16.0987 17.4268 15.9588 17.3988 15.8283 17.3444C15.6979 17.2901 15.5795 17.2104 15.48 17.11L14.32 15.93" stroke="black" stroke-width="1.5" stroke-linecap="round" stroke-linejoin="round"/>
<path d="M8.93 16.17C9.34243 16.8222 9.56092 17.5783 9.56 18.35C9.55975 18.8709 9.45622 19.3866 9.25539 19.8672C9.05456 20.3478 8.76043 20.7838 8.39 21.15C8.32013 21.2132 8.22925 21.2483 8.135 21.2483C8.04076 21.2483 7.94988 21.2132 7.88 21.15C7.55292 20.8188 7.29163 20.4286 7.11 20C6.94466 19.6867 6.82991 19.3492 6.77 19C6.74718 18.7873 6.74718 18.5727 6.77 18.36C6.9497 17.3877 7.44534 16.5018 8.18 15.84C7.49906 16.5567 6.6045 17.0338 5.63 17.2C5.41715 17.2202 5.20286 17.2202 4.99 17.2C4.64025 17.1318 4.303 17.0104 3.99 16.84C3.5596 16.6358 3.17255 16.3506 2.85 16C2.78676 15.9301 2.75174 15.8392 2.75174 15.745C2.75174 15.6508 2.78676 15.5599 2.85 15.49C3.59827 14.7584 4.60348 14.3491 5.65 14.35C6.41745 14.355 7.16727 14.5806 7.81 15" stroke="black" stroke-width="1.5" stroke-linecap="round" stroke-linejoin="round"/>
<path d="M20.4 3.66C20.2815 3.52443 20.1473 3.40357 20 3.3C19.5886 3.03794 19.1291 2.86051 18.6483 2.77809C18.1676 2.69568 17.6752 2.70992 17.2 2.82C16.0769 2.98973 14.9932 3.35887 14 3.91C12.1325 4.81198 10.5636 6.23166 9.48 8C8.51916 9.77782 7.97544 11.751 7.89 13.77C7.89 13.91 7.72 14.96 7.83 15.03L8.94 16.17C9.01 16.28 10.05 16.17 10.19 16.12C12.219 16.067 14.208 15.5432 16 14.59C17.7778 13.54 19.2098 11.9933 20.12 10.14C21 8.31 22 5.4 20.4 3.66Z" stroke="black" stroke-width="1.5" stroke-linecap="round" stroke-linejoin="round"/>
<path d="M13.44 4.82C13.8456 6.18464 14.5765 7.43034 15.57 8.45C16.5677 9.46718 17.8007 10.2228 19.16 10.65" stroke="black" stroke-width="1.5" stroke-linecap="round" stroke-linejoin="round"/>
<path d="M17.76 4.85C17.6667 4.75322 17.5549 4.67624 17.4312 4.62366C17.3075 4.57108 17.1744 4.54398 17.04 4.54398C16.9056 4.54398 16.7725 4.57108 16.6488 4.62366C16.5251 4.67624 16.4133 4.75322 16.32 4.85C16.1838 4.99128 16.0922 5.16949 16.0566 5.36244C16.021 5.5554 16.0429 5.75457 16.1197 5.93515C16.1964 6.11573 16.3246 6.26974 16.4883 6.37799C16.6519 6.48625 16.8438 6.54398 17.04 6.54398C17.2362 6.54398 17.4281 6.48625 17.5917 6.37799C17.7554 6.26974 17.8836 6.11573 17.9603 5.93515C18.0371 5.75457 18.059 5.5554 18.0234 5.36244C17.9878 5.16949 17.8962 4.99128 17.76 4.85Z" fill="black"/>
</svg>
