<svg width="24" height="24" viewBox="0 0 24 24" fill="none" xmlns="http://www.w3.org/2000/svg">
<path d="M20.04 14.47C20.75 15.08 20.25 16.11 19.24 16.11H11.85V4.55H19.24C20.25 4.55 20.75 5.59 20.04 6.19L17.03 8.76C16.02 9.62 16.02 11.03 17.03 11.89L20.04 14.47Z" stroke="black" stroke-width="1.5" stroke-linecap="round" stroke-linejoin="round"/>
<path d="M3.63 10.97V21.25" stroke="black" stroke-width="1.5" stroke-linecap="round" stroke-linejoin="round"/>
<path d="M10.82 14.06H4.64999C4.07999 14.06 3.62 13.6 3.62 13.03V3.78C3.62 3.21 4.07999 2.75 4.64999 2.75H10.82C11.39 2.75 11.85 3.21 11.85 3.78V13.03C11.85 13.6 11.39 14.06 10.82 14.06Z" stroke="black" stroke-width="1.5" stroke-linecap="round" stroke-linejoin="round"/>
</svg>
