<svg width="24" height="24" viewBox="0 0 24 24" fill="none" xmlns="http://www.w3.org/2000/svg">
<path d="M3.63 22C4.04 22 4.38 21.66 4.38 21.25V18.04V14.81H10.1C10.65 14.81 11.1 14.36 11.1 13.81V13.31V3.5V3C11.1 2.45 10.65 2 10.1 2H3.63C3.22 2 2.88 2.34 2.88 2.75V10.97V14.06V18.04V21.25C2.88 21.66 3.21 22 3.63 22Z" fill="black"/>
<path d="M13.6 16.86H19.24C20.06 16.86 20.76 16.4 21.02 15.69C21.09 15.51 21.12 15.32 21.12 15.13C21.12 14.67 20.92 14.23 20.53 13.9L17.52 11.33C17.2 11.05 17.02 10.7 17.02 10.33C17.02 9.96 17.2 9.61 17.52 9.33L20.53 6.76C21.07 6.3 21.26 5.61 21.02 4.97C20.76 4.26 20.06 3.8 19.24 3.8H13.6C13.05 3.8 12.6 4.25 12.6 4.8V5.3V15.36V15.86C12.6 16.41 13.05 16.86 13.6 16.86Z" fill="black"/>
</svg>
