<svg width="24" height="24" viewBox="0 0 24 24" fill="none" xmlns="http://www.w3.org/2000/svg">
<path d="M14.07 18.09L12.09 20.98C11.75 21.47 10.95 21.25 10.95 20.66L10.94 15.02C10.94 14.37 10.39 13.85 9.71 13.84L5.67999 13.79C5.18999 13.78 4.9 13.27 5.17 12.88L6.8 10.51" stroke="black" stroke-width="1.5" stroke-linecap="round" stroke-linejoin="round"/>
<path d="M8.49001 8.01999L11.91 3.01999C12.25 2.52999 13.05 2.74999 13.05 3.33999L13.06 8.98001C13.06 9.63001 13.61 10.15 14.29 10.16L18.32 10.21C18.81 10.22 19.1 10.73 18.83 11.12L15.69 15.7" stroke="black" stroke-width="1.5" stroke-linecap="round" stroke-linejoin="round"/>
<path d="M2.75 2.75L21.25 21.25" stroke="black" stroke-width="1.5" stroke-linecap="round" stroke-linejoin="round"/>
</svg>
