<svg width="24" height="24" viewBox="0 0 24 24" fill="none" xmlns="http://www.w3.org/2000/svg">
<path d="M14.69 18.51L12.7 21.4C12.44 21.79 12.02 22 11.57 22C11.43 22 11.29 21.98 11.15 21.94C10.58 21.76 10.19 21.25 10.19 20.66V15.02C10.19 14.79 9.97001 14.59 9.70001 14.59L5.67001 14.54C5.16001 14.54 4.69002 14.25 4.46002 13.81C4.24002 13.38 4.27002 12.86 4.55002 12.45L6.17001 10.08C6.41001 9.73999 6.87002 9.65001 7.21002 9.88001C7.56002 10.12 7.64002 10.59 7.41002 10.93L5.96002 13.04L9.72002 13.09C10.8 13.1 11.69 13.97 11.69 15.02V20.22L13.45 17.67C13.68 17.32 14.15 17.24 14.49 17.47C14.83 17.7 14.92 18.17 14.69 18.51Z" fill="black"/>
<path d="M14.49 17.47C14.83 17.7 14.92 18.17 14.69 18.51L12.7 21.4C12.44 21.79 12.02 22 11.57 22C11.43 22 11.29 21.98 11.15 21.94C10.58 21.76 10.19 21.25 10.19 20.66V15.02C10.19 14.79 9.97001 14.59 9.70001 14.59L5.67001 14.54C5.16001 14.54 4.69002 14.25 4.46002 13.81C4.24002 13.38 4.27002 12.86 4.55002 12.45L6.17001 10.08C6.41001 9.73999 6.87002 9.65001 7.21002 9.88001C7.56002 10.12 7.64002 10.59 7.41002 10.93L5.96002 13.04L9.72002 13.09C10.8 13.1 11.69 13.97 11.69 15.02V20.22L13.45 17.67C13.68 17.32 14.15 17.24 14.49 17.47Z" fill="black"/>
<path d="M21.78 21.78C21.63 21.93 21.44 22 21.25 22C21.06 22 20.87 21.93 20.72 21.78L2.22 3.27999C1.93 2.98999 1.93 2.51 2.22 2.22C2.51 1.93 2.99 1.93 3.28 2.22L8.19 7.13L11.3 2.6C11.64 2.1 12.27 1.87999 12.85 2.05999C13.42 2.23999 13.81 2.74999 13.81 3.33999V8.98001C13.81 9.21001 14.03 9.41 14.3 9.41L18.33 9.45999C18.84 9.45999 19.31 9.74 19.54 10.19C19.76 10.62 19.73 11.14 19.46 11.55L16.67 15.61L21.78 20.72C22.07 21.01 22.07 21.49 21.78 21.78Z" fill="black"/>
</svg>
