<svg width="24" height="24" viewBox="0 0 24 24" fill="none" xmlns="http://www.w3.org/2000/svg">
<path d="M19.46 11.55L12.7 21.4C12.44 21.79 12.02 22 11.57 22C11.43 22 11.29 21.98 11.15 21.94C10.58 21.76 10.19 21.25 10.19 20.66V15.02C10.19 14.79 9.97001 14.59 9.70001 14.59L5.67001 14.54C5.16001 14.54 4.69002 14.25 4.46002 13.81C4.24002 13.38 4.27002 12.86 4.55002 12.45L11.3 2.6C11.64 2.1 12.27 1.87999 12.85 2.05999C13.42 2.23999 13.81 2.74999 13.81 3.33999V8.98001C13.81 9.21001 14.03 9.41 14.3 9.41L18.33 9.45999C18.84 9.45999 19.31 9.74 19.54 10.19C19.76 10.62 19.73 11.14 19.46 11.55Z" fill="black"/>
</svg>
