<svg width="24" height="24" viewBox="0 0 24 24" fill="none" xmlns="http://www.w3.org/2000/svg">
<path d="M17.14 21.25H6.85999C4.58999 21.25 2.75 19.41 2.75 17.14V6.86C2.75 4.59 4.58999 2.75 6.85999 2.75H17.14C19.41 2.75 21.25 4.59 21.25 6.86V17.14C21.25 19.41 19.41 21.25 17.14 21.25Z" stroke="black" stroke-width="1.5" stroke-linecap="round" stroke-linejoin="round"/>
<path d="M7.92001 14.06C9.05772 14.06 9.98001 13.1377 9.98001 12C9.98001 10.8623 9.05772 9.94 7.92001 9.94C6.78231 9.94 5.85999 10.8623 5.85999 12C5.85999 13.1377 6.78231 14.06 7.92001 14.06Z" stroke="black" stroke-width="1.5" stroke-linecap="round" stroke-linejoin="round"/>
<path d="M16.15 14.06C17.2877 14.06 18.21 13.1377 18.21 12C18.21 10.8623 17.2877 9.94 16.15 9.94C15.0123 9.94 14.09 10.8623 14.09 12C14.09 13.1377 15.0123 14.06 16.15 14.06Z" stroke="black" stroke-width="1.5" stroke-linecap="round" stroke-linejoin="round"/>
</svg>
