<svg width="24" height="24" viewBox="0 0 24 24" fill="none" xmlns="http://www.w3.org/2000/svg">
<path d="M18.84 6.60001H15.02C14.56 6.60001 14.13 6.36 13.9 5.97L13.24 4.88C12.74 4.04 11.82 3.51999 10.84 3.51999H4.81C3.26 3.51999 2 4.77999 2 6.32999V17.32C2 19.06 3.42 20.48 5.16 20.48H18.84C20.58 20.48 22 19.06 22 17.32V9.76001C22 8.02001 20.58 6.60001 18.84 6.60001ZM3.5 6.32999C3.5 5.60999 4.09 5.01999 4.81 5.01999H10.84C11.29 5.01999 11.72 5.25999 11.96 5.64999L12.53 6.60001H3.5V6.32999Z" fill="black"/>
</svg>
