<svg width="24" height="24" viewBox="0 0 24 24" fill="none" xmlns="http://www.w3.org/2000/svg">
<path d="M19.37 17.59C19.12 17.92 18.85 18.24 18.54 18.54C17.53 19.56 16.33 20.3 15.03 20.75L12 18.89V15.61L15.43 13.12L18.55 14.15L19.37 17.59Z" stroke="black" stroke-width="1.5" stroke-linecap="round" stroke-linejoin="round"/>
<path d="M12 15.61V18.89L8.99001 20.75C7.67001 20.31 6.47001 19.56 5.46001 18.54C5.15001 18.24 4.88 17.92 4.63 17.59L5.44001 14.13L8.56001 13.12L12 15.61Z" stroke="black" stroke-width="1.5" stroke-linecap="round" stroke-linejoin="round"/>
<path d="M9.87 9.08L8.56 13.12L5.44 14.13L2.75 11.8C2.79 9.94 3.38 8.17 4.44 6.68L7.98 6.41L9.87 9.08Z" stroke="black" stroke-width="1.5" stroke-linecap="round" stroke-linejoin="round"/>
<path d="M21.25 11.82L18.56 14.15L15.44 13.12L14.13 9.08L16.06 6.43L19.57 6.69C20.63 8.19 21.21 9.95 21.25 11.82Z" stroke="black" stroke-width="1.5" stroke-linecap="round" stroke-linejoin="round"/>
<path d="M5.44 14.13L4.63 17.59C3.41 16 2.75 14.05 2.75 12V11.79L5.44 14.13Z" stroke="black" stroke-width="1.5" stroke-linecap="round" stroke-linejoin="round"/>
<path d="M9.31999 3.14L7.96999 6.41L4.42999 6.68C4.72999 6.25 5.07999 5.85 5.45999 5.47C6.54999 4.36 7.86999 3.58 9.31999 3.14Z" stroke="black" stroke-width="1.5" stroke-linecap="round" stroke-linejoin="round"/>
<path d="M19.37 17.59C19.12 17.92 18.85 18.24 18.54 18.54C17.53 19.56 16.33 20.3 15.03 20.75L12 18.89V15.61L15.43 13.12L18.55 14.15L19.37 17.59Z" stroke="black" stroke-width="1.5" stroke-linecap="round" stroke-linejoin="round"/>
<path d="M21.25 11.82L18.56 14.15L15.44 13.12L14.13 9.08L16.06 6.43L19.57 6.69C20.63 8.19 21.21 9.95 21.25 11.82Z" stroke="black" stroke-width="1.5" stroke-linecap="round" stroke-linejoin="round"/>
<path d="M19.57 6.69L16.06 6.43L14.69 3.14C16.13 3.58 17.44 4.36 18.53 5.46C18.93 5.84 19.27 6.25 19.57 6.69Z" stroke="black" stroke-width="1.5" stroke-linecap="round" stroke-linejoin="round"/>
<path d="M21.25 11.82V12C21.25 14.05 20.59 15.99 19.37 17.59L18.56 14.15L21.25 11.82Z" stroke="black" stroke-width="1.5" stroke-linecap="round" stroke-linejoin="round"/>
<path d="M15.02 20.75C14.05 21.08 13.04 21.25 12 21.25C10.96 21.25 9.93999 21.08 8.98999 20.75L12 18.89L15.02 20.75Z" stroke="black" stroke-width="1.5" stroke-linecap="round" stroke-linejoin="round"/>
<path d="M16.06 6.43L14.13 9.08H9.87L7.97 6.41L9.32 3.14C10.17 2.88 11.08 2.75 12 2.75C12.92 2.75 13.83 2.88 14.69 3.14L16.06 6.43Z" stroke="black" stroke-width="1.5" stroke-linecap="round" stroke-linejoin="round"/>
<path d="M15.43 13.12L12 15.61L8.57001 13.12L9.87001 9.08H14.13L15.43 13.12Z" stroke="black" stroke-width="1.5" stroke-linecap="round" stroke-linejoin="round"/>
</svg>
