<svg width="24" height="24" viewBox="0 0 24 24" fill="none" xmlns="http://www.w3.org/2000/svg">
<path d="M9.94 2C9.53 2 9.19 2.33 9.19 2.75V6.86C9.19 7.88 8.53 8.74 7.61 9.06V2.75C7.61 2.33 7.28 2 6.86 2C6.45 2 6.11 2.33 6.11 2.75V9.06C5.19 8.74 4.53 7.88 4.53 6.86V2.75C4.53 2.33 4.19 2 3.78 2C3.36 2 3.03 2.33 3.03 2.75V6.86C3.03 8.71 4.36 10.26 6.11 10.61V21.25C6.11 21.66 6.45 22 6.86 22C7.28 22 7.61 21.66 7.61 21.25V10.61C9.37 10.26 10.69 8.71 10.69 6.86V2.75C10.69 2.33 10.36 2 9.94 2Z" fill="black"/>
<path d="M16.62 2C14.23 2 12.28 3.95 12.28 6.34C12.28 8.48 13.84 10.26 15.88 10.61V21.25C15.88 21.66 16.21 22 16.62 22C17.04 22 17.38 21.66 17.38 21.25V10.61C19.41 10.26 20.97 8.48 20.97 6.34C20.97 3.95 19.02 2 16.62 2Z" fill="black"/>
</svg>
