<svg width="24" height="24" viewBox="0 0 24 24" fill="none" xmlns="http://www.w3.org/2000/svg">
<path d="M7.77 2.75V21.23" stroke="black" stroke-width="1.5" stroke-linecap="round" stroke-linejoin="round"/>
<path d="M10.85 2.75V6.86C10.85 8.56 9.47 9.94 7.77 9.94C6.07 9.94 4.69 8.56 4.69 6.86V2.75" stroke="black" stroke-width="1.5" stroke-linecap="round" stroke-linejoin="round"/>
<path d="M17.67 15.03L17.64 20.4C17.64 20.84 17.28 21.21 16.84 21.22L15.68 21.26C15.22 21.27 14.83 20.9 14.83 20.44L14.86 15.13L17.67 15.03Z" stroke="black" stroke-width="1.5" stroke-linecap="round" stroke-linejoin="round"/>
<path d="M19.31 6.59L19.26 14.18C19.26 14.62 18.9 14.99 18.46 15L14.85 15.11L14.93 2.78L15.39 2.77C17.57 2.7 19.33 4.42 19.31 6.59Z" stroke="black" stroke-width="1.5" stroke-linecap="round" stroke-linejoin="round"/>
</svg>
