<svg width="24" height="24" viewBox="0 0 24 24" fill="none" xmlns="http://www.w3.org/2000/svg">
<path d="M20.72 7.51L17.2 11.03C16.22 12.01 14.73 12.16 13.58 11.48L19.14 5.92C19.43 5.63 19.43 5.15 19.14 4.86C18.85 4.57 18.37 4.57 18.08 4.86L12.52 10.42C11.85 9.28 11.99 7.78 12.97 6.8L16.49 3.28C16.78 2.99 16.78 2.51 16.49 2.22C16.2 1.93 15.72 1.93 15.43 2.22L11.91 5.74C10.34 7.31 10.19 9.75 11.43 11.5L2.22 20.71C1.93 21 1.93 21.48 2.22 21.77C2.37 21.93 2.56 22 2.75 22C2.94 22 3.13 21.93 3.28 21.78L12.49 12.57C13.26 13.12 14.17 13.41 15.08 13.41C16.23 13.41 17.38 12.97 18.25 12.1L21.77 8.58C22.06 8.29 22.06 7.81 21.77 7.52C21.48 7.23 21.01 7.21 20.72 7.51Z" fill="black"/>
</svg>
