<svg width="24" height="24" viewBox="0 0 24 24" fill="none" xmlns="http://www.w3.org/2000/svg">
<path d="M4.33002 6.91C4.57691 6.74723 4.86499 6.65798 5.16066 6.65267C5.45634 6.64736 5.74743 6.7262 6.00002 6.88L7.67002 7.88C7.75694 7.92602 7.85226 7.95399 7.95026 7.96225C8.04827 7.97051 8.14693 7.95888 8.24032 7.92806C8.33372 7.89724 8.41992 7.84786 8.49376 7.78289C8.5676 7.71793 8.62755 7.63871 8.67002 7.55C8.76698 7.36403 8.78994 7.14824 8.73429 6.94603C8.67863 6.74381 8.54848 6.57017 8.37002 6.46L6.69002 5.46C6.21449 5.17214 5.6671 5.02498 5.11133 5.0356C4.55557 5.04622 4.0142 5.21418 3.55002 5.52C3.06551 5.84281 2.66974 6.28202 2.39895 6.79741C2.12816 7.31279 1.99099 7.88788 2.00002 8.47V15.47C1.98166 16.0617 2.11545 16.6483 2.38858 17.1735C2.66171 17.6988 3.06505 18.1452 3.56002 18.47C4.04201 18.7978 4.60738 18.9817 5.19002 19C5.72167 18.9963 6.24279 18.8513 6.70002 18.58L8.38002 17.58C8.55744 17.4664 8.68637 17.291 8.7418 17.0878C8.79723 16.8845 8.77522 16.6679 8.68002 16.48C8.63755 16.3913 8.5776 16.3121 8.50376 16.2471C8.42992 16.1821 8.34372 16.1328 8.25032 16.1019C8.15693 16.0711 8.05827 16.0595 7.96026 16.0678C7.86226 16.076 7.76694 16.104 7.68002 16.15L6.00002 17.12C5.75137 17.2762 5.46367 17.3591 5.17002 17.3591C4.87636 17.3591 4.58866 17.2762 4.34002 17.12C4.07977 16.9503 3.86702 16.7171 3.72181 16.4424C3.5766 16.1678 3.50371 15.8606 3.51002 15.55V8.55C3.49036 8.22867 3.55583 7.90784 3.6998 7.61989C3.84377 7.33195 4.06116 7.08708 4.33002 6.91Z" fill="black"/>
<path d="M20.33 9L14.33 5.48C13.8511 5.19692 13.3028 5.05262 12.7465 5.06321C12.1902 5.07381 11.6479 5.23889 11.18 5.54C10.6871 5.86689 10.2853 6.31369 10.0124 6.83846C9.73957 7.36322 9.60454 7.94873 9.62003 8.54V15.54C9.60837 16.1237 9.74545 16.7007 10.0184 17.2168C10.2913 17.7329 10.691 18.1711 11.18 18.49C11.6636 18.8108 12.2298 18.9845 12.81 18.99C13.3451 18.9881 13.8699 18.843 14.33 18.57L20.33 15.04C20.8549 14.729 21.2867 14.2829 21.5804 13.7482C21.8742 13.2135 22.0191 12.6098 22 12C22.0119 11.3969 21.8635 10.8015 21.5702 10.2745C21.2768 9.74745 20.8489 9.30767 20.33 9Z" fill="black"/>
</svg>
