<svg width="24" height="24" viewBox="0 0 24 24" fill="none" xmlns="http://www.w3.org/2000/svg">
<path d="M11.46 18.17C12.33 18.17 13.04 17.5 13.04 16.68C13.04 15.66 11.63 14.17 11.57 14.1C11.51 14.04 11.42 14.04 11.36 14.1C11.3 14.16 9.89 15.66 9.89 16.68C9.88 17.5 10.59 18.17 11.46 18.17Z" stroke="black" stroke-width="1.5" stroke-linecap="round" stroke-linejoin="round"/>
<path d="M2.75 21.25H20.16H2.75Z" stroke="black" stroke-width="1.5" stroke-linecap="round" stroke-linejoin="round"/>
<path d="M15.87 2.75H7.03999C5.86999 2.75 4.92 3.7 4.92 4.87V21.25H17.98V4.87C17.99 3.7 17.04 2.75 15.87 2.75Z" stroke="black" stroke-width="1.5" stroke-linecap="round" stroke-linejoin="round"/>
<path d="M13.66 10.97H9.25C8.67 10.97 8.19 10.5 8.19 9.91V6.89C8.19 6.31 8.66 5.83 9.25 5.83H13.66C14.24 5.83 14.72 6.3 14.72 6.89V9.91C14.72 10.5 14.25 10.97 13.66 10.97Z" stroke="black" stroke-width="1.5" stroke-linecap="round" stroke-linejoin="round"/>
<path d="M20.16 16.11H17.98V5.83L20.93 8.61C21.13 8.8 21.25 9.06 21.25 9.34V15.08C21.25 15.65 20.76 16.11 20.16 16.11Z" stroke="black" stroke-width="1.5" stroke-linecap="round" stroke-linejoin="round"/>
<path d="M17.99 12H21.25" stroke="black" stroke-width="1.5" stroke-linecap="round" stroke-linejoin="round"/>
</svg>
