<svg width="24" height="24" viewBox="0 0 24 24" fill="none" xmlns="http://www.w3.org/2000/svg">
<path d="M18.49 5.95001C18.94 6.53001 19.19 7.31 19.19 8.13V18.17C19.19 19.87 18.12 21.25 16.79 21.25H7.2C5.88 21.25 4.8 19.86 4.8 18.17V5.84C4.8 4.13 5.88 2.76001 7.2 2.76001H15.01C15.65 2.76001 16.26 3.08 16.71 3.66L18.49 5.95001Z" stroke="black" stroke-width="1.5" stroke-linecap="round" stroke-linejoin="round"/>
<path d="M10.89 15.42C10.95 15.48 11 15.56 11.03 15.63C11.06 15.71 11.08 15.79 11.08 15.87C11.08 15.95 11.06 16.04 11.03 16.12C11 16.2 10.95 16.28 10.88 16.34C10.82 16.4 10.74 16.45 10.66 16.49C10.58 16.52 10.5 16.54 10.41 16.54C10.32 16.54 10.24 16.53 10.16 16.5C10.08 16.47 9.99999 16.42 9.93999 16.36C9.80999 16.24 9.67 16.14 9.52 16.08C9.37 16.02 9.21 15.99 9.04 15.99C8.88 15.99 8.72 16.02 8.57 16.09C8.42 16.16 8.29 16.24 8.18 16.36C8.07 16.47 7.98 16.6 7.91 16.76C7.84 16.91 7.81 17.07 7.81 17.25C7.81 17.41 7.84 17.57 7.9 17.72C7.96 17.87 8.05 18 8.16 18.11C8.27 18.22 8.4 18.32 8.55 18.38C8.7 18.45 8.86 18.48 9.04 18.48C9.18 18.48 9.29999 18.47 9.41999 18.45C9.53999 18.43 9.66 18.38 9.79 18.3V18.18H9.68999C9.59999 18.18 9.51 18.16 9.43 18.13C9.35 18.09 9.28 18.05 9.22 17.98C9.16 17.92 9.11 17.85 9.08 17.76C9.05 17.68 9.02999 17.59 9.02999 17.5C9.02999 17.41 9.05 17.33 9.08 17.24C9.11 17.16 9.16 17.09 9.22 17.03C9.28 16.97 9.35 16.92 9.43 16.89C9.51 16.86 9.59999 16.84 9.68999 16.84H10.46C10.55 16.84 10.64 16.86 10.72 16.9C10.8 16.93 10.87 16.98 10.93 17.04C10.99 17.1 11.04 17.17 11.07 17.25C11.11 17.33 11.12 17.41 11.12 17.5V18.61C11.12 18.71 11.1 18.8 11.06 18.88C11.02 18.96 10.97 19.03 10.9 19.1C10.59 19.36 10.27 19.54 9.96 19.66C9.65 19.77 9.32 19.82 8.99 19.82C8.77 19.82 8.55 19.79 8.34 19.73C8.13 19.67 7.93 19.58 7.74 19.47C7.55 19.36 7.38 19.22 7.23 19.07C7.07 18.92 6.94 18.74 6.83 18.55C6.72 18.36 6.63 18.16 6.57 17.94C6.51 17.72 6.48 17.49 6.48 17.26C6.48 16.91 6.55 16.58 6.68 16.26C6.81 15.94 6.99 15.67 7.22 15.43C7.45 15.19 7.72 15.01 8.02 14.87C8.33 14.73 8.66 14.66 9.02 14.66C9.39 14.66 9.73 14.72 10.03 14.85C10.35 14.98 10.63 15.17 10.89 15.42Z" fill="black"/>
<path d="M13.14 19.11C13.14 19.2 13.12 19.29 13.09 19.37C13.06 19.45 13.01 19.52 12.95 19.58C12.89 19.64 12.82 19.69 12.74 19.72C12.66 19.75 12.57 19.77 12.48 19.77C12.39 19.77 12.3 19.75 12.22 19.72C12.14 19.69 12.07 19.64 12.01 19.58C11.95 19.52 11.9 19.45 11.87 19.37C11.83 19.29 11.82 19.2 11.82 19.11V15.35C11.82 15.26 11.84 15.17 11.87 15.09C11.9 15.01 11.95 14.94 12.01 14.88C12.07 14.82 12.14 14.77 12.22 14.74C12.3 14.71 12.39 14.69 12.48 14.69C12.57 14.69 12.66 14.71 12.74 14.74C12.82 14.77 12.89 14.82 12.95 14.88C13.01 14.94 13.06 15.01 13.09 15.09C13.13 15.17 13.14 15.25 13.14 15.35V19.11Z" fill="black"/>
<path d="M16.84 14.69C16.93 14.69 17.02 14.71 17.1 14.74C17.18 14.78 17.25 14.82 17.31 14.88C17.37 14.94 17.42 15.01 17.45 15.09C17.48 15.17 17.5 15.26 17.5 15.35C17.5 15.44 17.48 15.53 17.45 15.61C17.42 15.69 17.37 15.76 17.31 15.82C17.25 15.88 17.18 15.93 17.1 15.97C17.02 16.01 16.93 16.02 16.84 16.02H15.2V16.67H16.48C16.57 16.67 16.66 16.69 16.74 16.73C16.82 16.77 16.89 16.82 16.95 16.88C17.01 16.94 17.06 17.01 17.09 17.1C17.12 17.18 17.14 17.27 17.14 17.36C17.14 17.45 17.12 17.54 17.09 17.62C17.06 17.7 17.01 17.77 16.95 17.82C16.89 17.88 16.82 17.92 16.74 17.95C16.66 17.98 16.57 18 16.48 18H15.2V19.09C15.2 19.18 15.18 19.27 15.15 19.35C15.12 19.43 15.07 19.5 15.01 19.56C14.95 19.62 14.88 19.67 14.8 19.7C14.72 19.73 14.63 19.75 14.54 19.75C14.45 19.75 14.36 19.73 14.28 19.7C14.2 19.67 14.13 19.62 14.07 19.56C14.01 19.5 13.96 19.43 13.93 19.35C13.9 19.27 13.88 19.18 13.88 19.09V15.31C13.88 15.24 13.9 15.16 13.92 15.09C13.94 15.01 13.98 14.95 14.03 14.88C14.08 14.81 14.15 14.77 14.23 14.73C14.31 14.69 14.42 14.67 14.54 14.67H16.84V14.69Z" fill="black"/>
</svg>
