<svg width="24" height="24" viewBox="0 0 24 24" fill="none" xmlns="http://www.w3.org/2000/svg">
<path d="M20.43 16.51C19.31 18.65 17.39 20.39 15.1 21.18C14.94 21.23 14.76 21.28 14.62 21.2C14.48 21.11 14.44 20.93 14.42 20.76C14.32 19.9 14.45 19.04 14.45 18.18C14.46 17.32 14.33 16.41 13.81 15.73C15.27 15.94 16.82 15.23 17.61 13.99C18.4 12.75 18.39 11.04 17.58 9.80999C17.45 9.61999 17.31 9.42999 17.27 9.19999C17.24 8.99999 17.29 8.79999 17.32 8.60999C17.41 8.04999 17.35 7.46999 17.15 6.93999C17.12 6.84999 17.07 6.75999 17 6.71999C16.91 6.65999 16.79 6.67999 16.68 6.69999C16.16 6.79999 15.67 6.99999 15.22 7.27999C15.02 7.40999 14.82 7.54999 14.59 7.62999C14.19 7.75999 13.76 7.63999 13.35 7.56999C12.46 7.39999 11.54 7.40999 10.65 7.57999C10.33 7.63999 10.01 7.72999 9.68 7.67999C9.32 7.61999 9.01 7.39999 8.69 7.20999C8.28 6.97999 7.84 6.80999 7.38 6.70999C7.29 6.68999 7.19 6.66999 7.11 6.70999C7.01 6.75999 6.96 6.85999 6.92 6.96999C6.7 7.54999 6.65 8.19999 6.77 8.80999C6.8 8.98999 6.85 9.16999 6.81 9.33999C6.78 9.47999 6.69 9.58999 6.61 9.70999C5.77 10.93 5.72 12.65 6.49 13.92C7.26 15.19 8.8 15.94 10.28 15.76C9.97 16.14 9.75 16.62 9.69 17.11C9.69 17.11 9.66 17.33 9.64 17.55C9.65 18 9.66 18.45 9.66 18.45C9.68 19.2 9.66 19.96 9.66 20.71C9.66 20.87 9.65 21.06 9.53 21.17C9.37 21.32 9.12 21.27 8.91 21.2C5.55 20.04 2.99 16.84 2.58 13.31C2.17 9.77999 3.95 6.08999 6.96 4.18999C9.97 2.29999 14.07 2.29999 17.07 4.18999C20.08 6.07999 21.85 9.77999 21.44 13.31C21.3 14.42 20.96 15.51 20.43 16.51Z" stroke="black" stroke-width="1.5" stroke-linecap="round" stroke-linejoin="round"/>
</svg>
