<svg width="24" height="24" viewBox="0 0 24 24" fill="none" xmlns="http://www.w3.org/2000/svg">
<path d="M17.46 3.54C14.2 1.48 9.81 1.48 6.54 3.53C3.28 5.58999 1.38 9.54 1.82 13.37C2.26 17.21 5.01 20.63 8.65 21.89C8.88 21.97 9.08 22 9.25 22C9.62 22 9.87 21.85 10.03 21.69C10.39 21.35 10.39 20.89 10.39 20.69L10.4 19.98C10.4 19.46 10.4 18.94 10.39 18.42L10.38 17.57L10.42 17.19C10.47 16.84 10.62 16.5 10.85 16.22C11.04 15.98 11.07 15.65 10.92 15.38C10.78 15.11 10.49 14.97 10.17 15C9.01 15.15 7.74 14.53 7.12 13.52C6.5 12.5 6.54 11.11 7.25 10.09C7.34 9.94999 7.47 9.76999 7.53 9.51999C7.61 9.19999 7.55 8.92 7.5 8.66C7.43 8.29 7.44 7.9 7.53 7.51C7.8 7.6 8.07 7.70999 8.31 7.84999L8.49 7.94999C8.77 8.11999 9.12 8.33 9.56 8.4C9.97 8.47 10.36 8.39 10.67 8.33L10.79 8.3C11.58 8.15 12.42 8.14 13.21 8.29L13.35 8.32C13.76 8.4 14.28 8.5 14.81 8.33C15.09 8.24 15.32 8.1 15.5 7.98L15.61 7.91C15.9 7.73 16.2 7.59 16.54 7.5C16.61 7.82 16.63 8.17 16.56 8.57C16.52 8.76 16.47 9.03 16.52 9.32C16.58 9.67 16.76 9.94 16.95 10.21C17.6 11.2 17.61 12.58 16.98 13.58C16.34 14.57 15.08 15.15 13.92 14.98C13.61 14.93 13.32 15.08 13.17 15.34C13.01 15.6 13.03 15.93 13.21 16.17C13.55 16.62 13.71 17.27 13.7 18.17C13.7 18.45 13.68 18.74 13.67 19.02C13.63 19.61 13.6 20.21 13.67 20.84C13.69 21.02 13.75 21.54 14.23 21.83C14.69 22.12 15.17 21.95 15.35 21.89C17.77 21.05 19.86 19.22 21.1 16.86C21.68 15.75 22.04 14.58 22.18 13.38C22.62 9.53999 20.72 5.59 17.46 3.54Z" fill="black"/>
</svg>
