<svg width="24" height="24" viewBox="0 0 24 24" fill="none" xmlns="http://www.w3.org/2000/svg">
<path d="M21.25 12C21.25 14.32 20.39 16.46 18.97 18.07C17.55 19.7 15.57 20.83 13.33 21.14C12.9 21.21 12.46 21.24 12 21.24C11.54 21.24 11.11 21.21 10.67 21.14C8.43 20.83 6.45 19.7 5.03 18.07C3.61 16.46 2.75 14.32 2.75 12C2.75 9.68 3.61 7.54 5.03 5.93C6.45 4.3 8.43 3.17 10.67 2.86C11.1 2.79 11.54 2.76 12 2.76C12.46 2.76 12.89 2.79 13.33 2.86C15.57 3.17 17.55 4.3 18.97 5.93C20.39 7.54 21.25 9.68 21.25 12Z" stroke="black" stroke-width="1.5" stroke-linecap="round" stroke-linejoin="round"/>
<path d="M11.67 21.15C11.03 20.48 8 17.17 8 12C8 6.83 11.03 3.52 11.67 2.85" stroke="black" stroke-width="1.5" stroke-linecap="round" stroke-linejoin="round"/>
<path d="M12.33 21.15C12.97 20.48 16 17.17 16 12C16 6.83 12.97 3.52 12.33 2.85" stroke="black" stroke-width="1.5" stroke-linecap="round" stroke-linejoin="round"/>
<path d="M2.75 12H21.25" stroke="black" stroke-width="1.5" stroke-linecap="round" stroke-linejoin="round"/>
</svg>
