<svg width="24" height="24" viewBox="0 0 24 24" fill="none" xmlns="http://www.w3.org/2000/svg">
<path d="M7.76 8.40001C7.91 8.55001 8.1 8.62001 8.29 8.62001C8.48 8.62001 8.67 8.55001 8.82 8.40001C9.11 8.11001 9.11 7.63001 8.82 7.34001L7.37 5.89002C7.08 5.60002 6.6 5.60002 6.31 5.89002C6.02 6.18002 6.02 6.66001 6.31 6.95001L7.76 8.40001Z" fill="black"/>
<path d="M15.37 8.62001C15.56 8.62001 15.75 8.55001 15.9 8.40001L17.35 6.95001C17.64 6.66001 17.64 6.18002 17.35 5.89002C17.06 5.60002 16.58 5.60002 16.29 5.89002L14.84 7.34001C14.55 7.63001 14.55 8.11001 14.84 8.40001C14.98 8.54001 15.17 8.62001 15.37 8.62001Z" fill="black"/>
<path d="M11.86 6.64001C12.27 6.64001 12.61 6.30001 12.61 5.89001V3.83002C12.61 3.42002 12.27 3.08002 11.86 3.08002C11.45 3.08002 11.11 3.42002 11.11 3.83002V5.89001C11.11 6.30001 11.45 6.64001 11.86 6.64001Z" fill="black"/>
<path d="M16.47 14.03C16.12 14.48 15.57 14.75 14.98 14.75H8.98C8.39 14.75 7.85 14.49 7.5 14.03C7.17 13.6 7.05 13.06 7.19 12.54L7.72 10.48C7.93 9.69001 8.66 9.14001 9.52 9.14001H14.44C15.29 9.14001 16.03 9.69001 16.24 10.48L16.78 12.53C16.91 13.05 16.8 13.6 16.47 14.03Z" fill="black"/>
<path d="M21.64 20.19C21.28 20.65 20.74 20.91 20.15 20.91H14.15C13.56 20.91 13.02 20.65 12.66 20.2C12.33 19.77 12.22 19.22 12.35 18.71L12.89 16.65C13.09 15.86 13.83 15.3 14.68 15.3H19.61C20.46 15.3 21.19 15.85 21.4 16.64L21.94 18.7C22.08 19.22 21.97 19.76 21.64 20.19Z" fill="black"/>
<path d="M11.34 20.19C10.99 20.65 10.44 20.91 9.85001 20.91H3.85001C3.26001 20.91 2.72001 20.65 2.37001 20.2C2.03001 19.77 1.92001 19.22 2.06001 18.71L2.59001 16.65C2.79001 15.86 3.53001 15.3 4.38001 15.3H9.31001C10.16 15.3 10.9 15.85 11.1 16.64L11.64 18.7C11.78 19.22 11.67 19.76 11.34 20.19Z" fill="black"/>
</svg>
