<svg width="24" height="24" viewBox="0 0 24 24" fill="none" xmlns="http://www.w3.org/2000/svg">
<path d="M17.14 11.25H6.86C6.77 11.25 6.68 11.27 6.58 11.28V10.41L12.34 7.53C12.35 7.53 12.35 7.52 12.36 7.51C12.39 7.5 12.41 7.48 12.43 7.46C12.51 7.4 12.58 7.33 12.63 7.24C12.64 7.22 12.66 7.22 12.67 7.2C12.68 7.18 12.68 7.16 12.68 7.15C12.7 7.1 12.71 7.05 12.72 7C12.73 6.95 12.74 6.91 12.74 6.86C12.74 6.82 12.73 6.77 12.72 6.72C12.71 6.67 12.7 6.62 12.68 6.58C12.68 6.56 12.68 6.54 12.67 6.53C12.66 6.5 12.63 6.48 12.62 6.46C12.59 6.42 12.56 6.37 12.52 6.34C12.49 6.3 12.45 6.27 12.4 6.24C12.38 6.23 12.36 6.2 12.34 6.19L6.17 3.11C6.16 3.1 6.15 3.1 6.15 3.1C6.1 3.08 6.05 3.07 6 3.06C5.95 3.05 5.91 3.03 5.86 3.03H5.83C5.8 3.03 5.76 3.04 5.73 3.05C5.67 3.06 5.62 3.06 5.57 3.08C5.53 3.1 5.49 3.12 5.45 3.15C5.41 3.18 5.36 3.2 5.33 3.23C5.29 3.27 5.26 3.31 5.23 3.35C5.21 3.38 5.18 3.41 5.16 3.44V3.47C5.14 3.51 5.13 3.56 5.12 3.61C5.11 3.66 5.09 3.7 5.09 3.75C5.09 3.76 5.08 3.77 5.08 3.78V11.6C3.28 12.31 2 14.06 2 16.11C2 18.79 4.18 20.97 6.86 20.97H17.14C19.82 20.97 22 18.79 22 16.11C22 13.43 19.82 11.25 17.14 11.25ZM6.58 4.99L10.32 6.86L6.58 8.73V4.99ZM17.65 17.38C16.96 17.38 16.39 16.81 16.39 16.11C16.39 15.41 16.96 14.85 17.65 14.85C18.35 14.85 18.92 15.41 18.92 16.11C18.92 16.81 18.35 17.38 17.65 17.38Z" fill="black"/>
<path d="M17.14 11.25H6.86C6.77 11.25 6.68 11.27 6.58 11.28V10.41L12.34 7.53C12.35 7.53 12.35 7.52 12.36 7.51C12.39 7.5 12.41 7.48 12.43 7.46C12.51 7.4 12.58 7.33 12.63 7.24C12.64 7.22 12.66 7.22 12.67 7.2C12.68 7.18 12.68 7.16 12.68 7.15C12.7 7.1 12.71 7.05 12.72 7C12.73 6.95 12.74 6.91 12.74 6.86C12.74 6.82 12.73 6.77 12.72 6.72C12.71 6.67 12.7 6.62 12.68 6.58C12.68 6.56 12.68 6.54 12.67 6.53C12.66 6.5 12.63 6.48 12.62 6.46C12.59 6.42 12.56 6.37 12.52 6.34C12.49 6.3 12.45 6.27 12.4 6.24C12.38 6.23 12.36 6.2 12.34 6.19L6.17 3.11C6.16 3.1 6.15 3.1 6.15 3.1C6.1 3.08 6.05 3.07 6 3.06C5.95 3.05 5.91 3.03 5.86 3.03H5.83C5.8 3.03 5.76 3.04 5.73 3.05C5.67 3.06 5.62 3.06 5.57 3.08C5.53 3.1 5.49 3.12 5.45 3.15C5.41 3.18 5.36 3.2 5.33 3.23C5.29 3.27 5.26 3.31 5.23 3.35C5.21 3.38 5.18 3.41 5.16 3.44V3.47C5.14 3.51 5.13 3.56 5.12 3.61C5.11 3.66 5.09 3.7 5.09 3.75C5.09 3.76 5.08 3.77 5.08 3.78V11.6C3.28 12.31 2 14.06 2 16.11C2 18.79 4.18 20.97 6.86 20.97H17.14C19.82 20.97 22 18.79 22 16.11C22 13.43 19.82 11.25 17.14 11.25ZM6.58 4.99L10.32 6.86L6.58 8.73V4.99ZM17.14 19.47H6.86C5.01 19.47 3.5 17.96 3.5 16.11C3.5 14.91 4.14 13.87 5.08 13.27V16.11C5.08 16.53 5.42 16.86 5.83 16.86C6.25 16.86 6.58 16.53 6.58 16.11V12.78C6.68 12.77 6.77 12.75 6.86 12.75H17.14C18.99 12.75 20.5 14.26 20.5 16.11C20.5 17.96 18.99 19.47 17.14 19.47Z" fill="black"/>
</svg>
