<svg width="24" height="24" viewBox="0 0 24 24" fill="none" xmlns="http://www.w3.org/2000/svg">
<path d="M17.14 20.22H6.86C4.59 20.22 2.75 18.38 2.75 16.11C2.75 13.84 4.59 12 6.86 12H17.14C19.41 12 21.25 13.84 21.25 16.11C21.25 18.38 19.41 20.22 17.14 20.22Z" stroke="black" stroke-width="1.5" stroke-linecap="round" stroke-linejoin="round"/>
<path d="M5.83 16.11V3.78" stroke="black" stroke-width="1.5" stroke-linecap="round" stroke-linejoin="round"/>
<path d="M5.83 3.78L12 6.86" stroke="black" stroke-width="1.5" stroke-linecap="round" stroke-linejoin="round"/>
<path d="M12 6.86L5.83 9.94" stroke="black" stroke-width="1.5" stroke-linecap="round" stroke-linejoin="round"/>
<path d="M17.65 14.85C16.95 14.85 16.39 15.42 16.39 16.11C16.39 16.8 16.96 17.37 17.65 17.37C18.35 17.37 18.91 16.8 18.91 16.11C18.91 15.42 18.35 14.85 17.65 14.85Z" fill="black"/>
</svg>
