<svg width="24" height="24" viewBox="0 0 24 24" fill="none" xmlns="http://www.w3.org/2000/svg">
<path d="M4.84 15.5C3.27 15.5 2 16.77 2 18.34C2 19.9 3.27 21.18 4.84 21.18C6.4 21.18 7.67999 19.9 7.67999 18.34C7.67999 16.77 6.4 15.5 4.84 15.5Z" fill="black"/>
<path d="M11.99 9.14001C11.97 9.14001 11.93 9.15002 11.91 9.15002C10.33 9.23002 9.12997 10.54 9.15997 12.1V17.73C9.15997 19.54 10.03 20.84 11.42 21.12C11.61 21.16 11.8 21.18 11.99 21.18C12.55 21.18 13.09 21.02 13.56 20.7C14.2 20.28 14.63 19.64 14.78 18.89C14.82 18.7 14.84 18.51 14.84 18.32V12C14.84 10.43 13.56 9.15001 11.99 9.14001Z" fill="black"/>
<path d="M20.92 3.44001C20.32 2.97001 19.59 2.75001 18.8 2.85001C17.36 3.06001 16.29 4.32 16.33 5.77V18.22C16.29 19.68 17.35 20.94 18.82 21.16C18.92 21.17 19.04 21.18 19.14 21.18H19.17C19.93 21.17 20.64 20.87 21.18 20.33C21.71 19.79 22 19.08 22 18.32V5.69001C22 5.57001 22 5.46 21.98 5.34C21.89 4.58 21.52 3.91001 20.92 3.44001Z" fill="black"/>
</svg>
