<svg width="24" height="24" viewBox="0 0 24 24" fill="none" xmlns="http://www.w3.org/2000/svg">
<path d="M17.19 7.14002C16.07 7.14002 15.1 7.78001 14.6 8.70001C14.18 7.95001 13.47 7.39002 12.61 7.21002C12.45 6.13002 12.79 5.04002 13.54 4.33002C14.49 3.44002 15.69 3.48001 16.04 3.51001C16.45 3.53001 16.82 3.24002 16.85 2.83002C16.89 2.41002 16.59 2.05001 16.18 2.01001C15.67 1.97001 13.91 1.92002 12.51 3.24002C12.11 3.62002 11.79 4.08002 11.55 4.57002C11.38 4.01002 11.08 3.50002 10.66 3.07002C9.75002 2.16002 8.41002 1.80002 7.16002 2.13002C6.90002 2.20002 6.70002 2.40002 6.63002 2.66002C6.29002 3.91002 6.65002 5.25001 7.57002 6.17001C8.25002 6.86001 9.19001 7.23001 10.14 7.23001C10.45 7.23001 10.76 7.19002 11.07 7.11002C11.08 7.10002 11.09 7.09001 11.1 7.09001C11.1 7.16001 11.11 7.23001 11.12 7.29001C10.38 7.53001 9.77001 8.03001 9.40001 8.70001C8.90001 7.78001 7.93001 7.14002 6.81001 7.14002C5.17001 7.14002 3.83002 8.48001 3.83002 10.12C3.83002 11.76 5.16002 13.09 6.80002 13.09C6.65002 13.44 6.57002 13.83 6.57002 14.23C6.57002 15.87 7.91002 17.2 9.55002 17.2C9.59002 17.2 9.63001 17.19 9.67001 17.19C9.27001 17.7 9.02002 18.33 9.02002 19.02C9.02002 20.66 10.36 22 12 22C13.64 22 14.98 20.66 14.98 19.02C14.98 18.32 14.72 17.68 14.31 17.17C15.8 17.01 16.97 15.76 16.97 14.23C16.97 13.81 16.88 13.41 16.73 13.05C16.88 13.07 17.03 13.09 17.19 13.09C18.83 13.09 20.17 11.76 20.17 10.12C20.17 8.48001 18.83 7.14002 17.19 7.14002ZM8.63002 5.11002C8.20002 4.68002 7.98002 4.10001 8.00002 3.51001C8.60002 3.50001 9.18002 3.71002 9.60002 4.13002C10.02 4.56002 10.24 5.14001 10.22 5.73001C9.64002 5.75001 9.05002 5.53002 8.63002 5.11002Z" fill="black"/>
</svg>
