<svg width="24" height="24" viewBox="0 0 24 24" fill="none" xmlns="http://www.w3.org/2000/svg">
<path d="M12 11.68V8.04001C12 7.40001 12.56 6.89001 13.23 6.89001C13.91 6.89001 14.46 7.40001 14.46 8.04001V12.4" stroke="black" stroke-width="1.5" stroke-linecap="round" stroke-linejoin="round"/>
<path d="M9.53 10.43V6.79999C9.53 6.15999 10.09 5.64999 10.76 5.64999C11.44 5.64999 11.99 6.15999 11.99 6.79999V11.43" stroke="black" stroke-width="1.5" stroke-linecap="round" stroke-linejoin="round"/>
<path d="M14.47 12.39V9.45999C14.47 8.81999 15.03 8.31 15.7 8.31C16.38 8.31 16.93 8.81999 16.93 9.45999V13.74C16.93 16.28 14.73 18.34 11.99 18.34C9.26999 18.34 7.04999 16.29 7.04999 13.74V9.20001C7.04999 8.57001 7.61 8.04999 8.28 8.04999C8.96 8.04999 9.51001 8.57001 9.51001 9.20001V10.66" stroke="black" stroke-width="1.5" stroke-linecap="round" stroke-linejoin="round"/>
<path d="M18.25 21.25H5.75C4.09 21.25 2.75 19.91 2.75 18.25V5.75C2.75 4.09 4.09 2.75 5.75 2.75H18.25C19.91 2.75 21.25 4.09 21.25 5.75V18.25C21.25 19.91 19.91 21.25 18.25 21.25Z" stroke="black" stroke-width="1.5" stroke-linecap="round" stroke-linejoin="round"/>
</svg>
