<svg width="24" height="24" viewBox="0 0 24 24" fill="none" xmlns="http://www.w3.org/2000/svg">
<path d="M18.25 2H5.75C3.68 2 2 3.68 2 5.75V18.25C2 20.32 3.68 22 5.75 22H18.25C20.32 22 22 20.32 22 18.25V5.75C22 3.68 20.32 2 18.25 2ZM17.25 13.89C17.25 14.67 17.1 15.4 16.84 16.07C16.65 16.54 16.4 16.98 16.1 17.37C15.73 17.87 15.28 18.3 14.76 18.63C14.54 18.79 14.3 18.93 14.04 19.04C13.42 19.32 12.72 19.48 12 19.48C11.59 19.48 11.19 19.43 10.8 19.33C10.68 19.3 10.55 19.27 10.43 19.22C10.26 19.17 10.1 19.1 9.94 19.03C9.79 18.96 9.62999 18.88 9.48999 18.79C9.32999 18.71 9.18999 18.61 9.04999 18.51C8.76999 18.3 8.50999 18.07 8.26999 17.81C7.32999 16.81 6.75 15.43 6.75 13.91V7.89999C6.75 7.38999 7.17001 6.98001 7.67001 6.98001H7.67999C7.86999 6.98001 8.04999 7.03999 8.20999 7.14999C8.20999 7.15999 8.22999 7.17001 8.23999 7.17001C8.44999 7.34001 8.60001 7.59999 8.60001 7.89999V10.52C8.60001 10.84 8.85 11.09 9.16 11.09C9.47 11.09 9.73001 10.84 9.73001 10.52V5.39001C9.73001 5.13001 9.85 4.89001 10.03 4.73001C10.04 4.72001 10.04 4.72 10.04 4.72C10.1 4.67 10.17 4.63001 10.24 4.60001L10.25 4.59C10.32 4.56 10.39 4.54 10.46 4.53C10.5 4.52 10.55 4.51999 10.59 4.51999C10.61 4.51999 10.62 4.52 10.65 4.53C10.65 4.53 10.66 4.52 10.66 4.53C11.1 4.57 11.44 4.94001 11.44 5.39001V11.62C11.44 11.94 11.7 12.19 12.01 12.19C12.32 12.19 12.57 11.94 12.57 11.62V5.95001C12.57 5.95001 12.57 5.95001 12.58 5.95001C12.6 5.49001 12.97 5.12 13.43 5.12C13.91 5.12 14.29 5.51001 14.29 5.98001V10.61C14.29 10.61 14.29 10.62 14.29 10.63V12.41C14.29 12.72 14.55 12.98 14.86 12.98C15.16 12.98 15.4 12.75 15.41 12.46V7.87C15.41 7.83999 15.41 7.81 15.42 7.78C15.44 7.65 15.47 7.53 15.53 7.44C15.53 7.42 15.54 7.41001 15.55 7.39001C15.71 7.14001 15.98 6.98001 16.3 6.98001H16.36C16.85 6.98001 17.25 7.38 17.25 7.87V13.89Z" fill="black"/>
</svg>
