<svg width="24" height="24" viewBox="0 0 24 24" fill="none" xmlns="http://www.w3.org/2000/svg">
<path d="M13.31 10.69H10.69V13.31H13.31V10.69Z" fill="black"/>
<path d="M18.17 2H5.82999C3.71999 2 2 3.71999 2 5.82999V18.17C2 20.28 3.71999 22 5.82999 22H18.17C20.28 22 22 20.28 22 18.17V5.82999C22 3.71999 20.28 2 18.17 2ZM16.11 13.31C16.53 13.31 16.86 13.64 16.86 14.06C16.86 14.47 16.53 14.81 16.11 14.81H14.81V16.11C14.81 16.53 14.47 16.86 14.06 16.86C13.64 16.86 13.31 16.53 13.31 16.11V14.81H10.69V16.11C10.69 16.53 10.36 16.86 9.94 16.86C9.53 16.86 9.19 16.53 9.19 16.11V14.81H7.89001C7.48001 14.81 7.14001 14.47 7.14001 14.06C7.14001 13.64 7.48001 13.31 7.89001 13.31H9.19V10.69H7.89001C7.48001 10.69 7.14001 10.36 7.14001 9.94C7.14001 9.53 7.48001 9.19 7.89001 9.19H9.19V7.89001C9.19 7.47001 9.53 7.14001 9.94 7.14001C10.36 7.14001 10.69 7.47001 10.69 7.89001V9.19H13.31V7.89001C13.31 7.47001 13.64 7.14001 14.06 7.14001C14.47 7.14001 14.81 7.47001 14.81 7.89001V9.19H16.11C16.53 9.19 16.86 9.53 16.86 9.94C16.86 10.36 16.53 10.69 16.11 10.69H14.81V13.31H16.11Z" fill="black"/>
</svg>
