<svg width="24" height="24" viewBox="0 0 24 24" fill="none" xmlns="http://www.w3.org/2000/svg">
<path d="M15.08 3.03H8.91998C7.36998 3.03 6.10999 4.29 6.10999 5.84V20.98H17.89V5.84C17.89 4.29 16.63 3.03 15.08 3.03ZM12.79 19.48H11.21V16.87H12.79V19.48ZM14.06 9.67H12.75V10.98C12.75 11.39 12.41 11.73 12 11.73C11.59 11.73 11.25 11.39 11.25 10.98V9.67H9.93999C9.52999 9.67 9.18999 9.33 9.18999 8.92C9.18999 8.51 9.52999 8.17 9.93999 8.17H11.25V6.87C11.25 6.45 11.59 6.12 12 6.12C12.41 6.12 12.75 6.45 12.75 6.87V8.17H14.06C14.47 8.17 14.81 8.51 14.81 8.92C14.81 9.33 14.47 9.67 14.06 9.67Z" fill="black"/>
<path d="M2 12V20.23C2 20.64 2.34 20.98 2.75 20.98H4.61V19.48V10.72V9.21C3.15 9.31 2 10.53 2 12Z" fill="black"/>
<path d="M19.39 9.21V10.72V19.48V20.98H21.25C21.66 20.98 22 20.64 22 20.23V12C22 10.53 20.85 9.31 19.39 9.21Z" fill="black"/>
</svg>
