<svg width="24" height="24" viewBox="0 0 24 24" fill="none" xmlns="http://www.w3.org/2000/svg">
<path d="M21.25 11.79H2.75V13.79H21.25V11.79Z" stroke="black" stroke-width="1.5" stroke-linecap="round" stroke-linejoin="round"/>
<path d="M17.52 13.79H6.48V16.01H17.52V13.79Z" stroke="black" stroke-width="1.5" stroke-linecap="round" stroke-linejoin="round"/>
<path d="M6.48 21.25C7.30842 21.25 7.98 20.5784 7.98 19.75C7.98 18.9216 7.30842 18.25 6.48 18.25C5.65157 18.25 4.98 18.9216 4.98 19.75C4.98 20.5784 5.65157 21.25 6.48 21.25Z" stroke="black" stroke-width="1.5" stroke-linecap="round" stroke-linejoin="round"/>
<path d="M6.48 15.01V18" stroke="black" stroke-width="1.5" stroke-linecap="round" stroke-linejoin="round"/>
<path d="M17.52 21.25C18.3484 21.25 19.02 20.5784 19.02 19.75C19.02 18.9216 18.3484 18.25 17.52 18.25C16.6916 18.25 16.02 18.9216 16.02 19.75C16.02 20.5784 16.6916 21.25 17.52 21.25Z" stroke="black" stroke-width="1.5" stroke-linecap="round" stroke-linejoin="round"/>
<path d="M17.52 15.01V18" stroke="black" stroke-width="1.5" stroke-linecap="round" stroke-linejoin="round"/>
<path d="M6.54001 11.79V2.75" stroke="black" stroke-width="1.5" stroke-linecap="round" stroke-linejoin="round"/>
<path d="M4.66 3.76H10.22" stroke="black" stroke-width="1.5" stroke-linecap="round" stroke-linejoin="round"/>
<path d="M11.22 5.78H9.22V8.78H11.22V5.78Z" stroke="black" stroke-width="1.5" stroke-linecap="round" stroke-linejoin="round"/>
<path d="M10.22 3.76V5.34" stroke="black" stroke-width="1.5" stroke-linecap="round" stroke-linejoin="round"/>
</svg>
