<svg width="24" height="24" viewBox="0 0 24 24" fill="none" xmlns="http://www.w3.org/2000/svg">
<path d="M20.8 7.13C20.75 7.09 20.7 7.06 20.64 7.02C20.68 6.07 20.35 5.1 19.62 4.38C18.92 3.68 17.95 3.35 16.99 3.39C16.96 3.32 16.92 3.25 16.86 3.19C16.09 2.42 15.06 2 13.97 2C12.88 2 11.85 2.42 11.08 3.19L3.2 11.07C2.43 11.84 2 12.87 2 13.96C2 15.06 2.43 16.09 3.2 16.86C3.25 16.91 3.3 16.93 3.36 16.97C3.36 17.02 3.34 17.06 3.34 17.12C3.34 18.06 3.71 18.95 4.38 19.62C5.05 20.28 5.94 20.65 6.88 20.65C6.93 20.65 6.98 20.64 7.03 20.64C7.06 20.69 7.09 20.75 7.14 20.8C7.91 21.57 8.94 22 10.03 22C11.12 22 12.15 21.57 12.92 20.8L20.8 12.92C22.4 11.32 22.4 8.73 20.8 7.13ZM3.81 15.19C3.61 14.82 3.5 14.4 3.5 13.96C3.5 13.27 3.77 12.62 4.26 12.13L12.14 4.25C12.63 3.76 13.28 3.5 13.97 3.5C14.4 3.5 14.82 3.6 15.19 3.8L9.5 9.5L3.81 15.19ZM5.44 18.55C5.06 18.17 4.84 17.66 4.84 17.12C4.84 16.57 5.06 16.06 5.44 15.68L15.68 5.44C16.07 5.05 16.58 4.84 17.12 4.84C17.66 4.84 18.17 5.05 18.56 5.44C19.35 6.23 19.35 7.52 18.56 8.31L8.32 18.55C7.55 19.32 6.21 19.32 5.44 18.55ZM19.74 11.86L11.86 19.74C11.07 20.53 9.77 20.71 8.81 20.19L20.19 8.8C20.72 9.78 20.57 11.03 19.74 11.86Z" fill="black"/>
<path d="M20.8 7.13C20.75 7.09 20.7 7.06 20.64 7.02C20.68 6.07 20.35 5.1 19.62 4.38C18.92 3.68 17.95 3.35 16.99 3.39C16.96 3.32 16.92 3.25 16.86 3.19C16.09 2.42 15.06 2 13.97 2C12.88 2 11.85 2.42 11.08 3.19L3.2 11.07C2.43 11.84 2 12.87 2 13.96C2 15.06 2.43 16.09 3.2 16.86C3.25 16.91 3.3 16.93 3.36 16.97C3.36 17.02 3.34 17.06 3.34 17.12C3.34 18.06 3.71 18.95 4.38 19.62C5.05 20.28 5.94 20.65 6.88 20.65C6.93 20.65 6.98 20.64 7.03 20.64C7.06 20.69 7.09 20.75 7.14 20.8C7.91 21.57 8.94 22 10.03 22C11.12 22 12.15 21.57 12.92 20.8L20.8 12.92C22.4 11.32 22.4 8.73 20.8 7.13ZM7.06 17.26C6.87 17.26 6.68 17.19 6.53 17.04C6.24 16.75 6.24 16.27 6.53 15.98C7.21 15.3 7.7 15.07 8.13 14.86C8.5 14.69 8.82 14.54 9.32 14.04C9.81 13.54 9.96 13.23 10.14 12.86C10.34 12.43 10.57 11.94 11.25 11.26C11.94 10.57 12.43 10.34 12.86 10.14C13.23 9.97 13.54 9.82 14.04 9.32C14.54 8.82 14.69 8.5 14.87 8.13C15.07 7.7 15.3 7.21 15.98 6.53C16.28 6.23 16.75 6.23 17.04 6.53C17.34 6.82 17.34 7.29 17.04 7.59C16.55 8.09 16.4 8.4 16.22 8.77C16.02 9.2 15.79 9.69 15.1 10.38C14.42 11.06 13.93 11.29 13.5 11.5C13.13 11.67 12.81 11.82 12.31 12.32C11.82 12.82 11.67 13.13 11.49 13.5C11.29 13.93 11.06 14.42 10.38 15.1C9.69 15.79 9.21 16.02 8.77 16.22C8.41 16.39 8.09 16.54 7.59 17.04C7.45 17.19 7.25 17.26 7.06 17.26ZM3.81 15.19C3.61 14.82 3.5 14.4 3.5 13.96C3.5 13.27 3.77 12.62 4.26 12.13L12.14 4.25C12.63 3.76 13.28 3.5 13.97 3.5C14.4 3.5 14.82 3.6 15.19 3.8L9.5 9.5L3.81 15.19ZM19.74 11.86L11.86 19.74C11.07 20.53 9.77 20.71 8.81 20.19L20.19 8.8C20.72 9.78 20.57 11.03 19.74 11.86Z" fill="black"/>
</svg>
