<svg width="24" height="24" viewBox="0 0 24 24" fill="none" xmlns="http://www.w3.org/2000/svg">
<path d="M21.25 20.5H19.94V8.91C19.94 7.44 19.1 6.18 17.89 5.54V4.8C17.89 3.25 16.63 2 15.08 2H8.92C7.37 2 6.11 3.25 6.11 4.8V5.54C4.9 6.18 4.06 7.44 4.06 8.91V20.5H2.75C2.34 20.5 2 20.83 2 21.25C2 21.66 2.34 22 2.75 22H21.25C21.66 22 22 21.66 22 21.25C22 20.83 21.66 20.5 21.25 20.5ZM9.94 15.32H8.92C8.5 15.32 8.17 14.98 8.17 14.57V13.54C8.17 13.12 8.5 12.79 8.92 12.79H9.94C10.36 12.79 10.69 13.12 10.69 13.54V14.57C10.69 14.98 10.36 15.32 9.94 15.32ZM8.17 9.94V8.91C8.17 8.5 8.5 8.16 8.92 8.16H9.94C10.36 8.16 10.69 8.5 10.69 8.91V9.94C10.69 10.35 10.36 10.69 9.94 10.69H8.92C8.5 10.69 8.17 10.35 8.17 9.94ZM13.31 20.5H10.69V19.19C10.69 18.47 11.28 17.88 12 17.88C12.72 17.88 13.31 18.47 13.31 19.19V20.5ZM15.83 14.57C15.83 14.98 15.5 15.32 15.08 15.32H14.06C13.64 15.32 13.31 14.98 13.31 14.57V13.54C13.31 13.12 13.64 12.79 14.06 12.79H15.08C15.5 12.79 15.83 13.12 15.83 13.54V14.57ZM15.83 9.94C15.83 10.35 15.5 10.69 15.08 10.69H14.06C13.64 10.69 13.31 10.35 13.31 9.94V8.91C13.31 8.5 13.64 8.16 14.06 8.16H15.08C15.5 8.16 15.83 8.5 15.83 8.91V9.94ZM16.39 5.08H7.61V4.8C7.61 4.08 8.2 3.5 8.92 3.5H15.08C15.8 3.5 16.39 4.08 16.39 4.8V5.08Z" fill="black"/>
</svg>
