<svg width="24" height="24" viewBox="0 0 24 24" fill="none" xmlns="http://www.w3.org/2000/svg">
<path d="M10.03 15.59C9.95 15.51 9.86001 15.45 9.76001 15.4C9.65001 15.36 9.54001 15.33 9.42001 15.33C9.30001 15.33 9.18999 15.36 9.07999 15.4C8.97999 15.45 8.89 15.51 8.81 15.59C8.74 15.67 8.68 15.76 8.63 15.86C8.59 15.97 8.57001 16.08 8.57001 16.19C8.57001 16.32 8.59 16.43 8.63 16.53C8.68 16.64 8.74 16.73 8.81 16.8C8.89 16.88 8.97999 16.94 9.07999 16.98C9.18999 17.03 9.30001 17.05 9.42001 17.05C9.54001 17.05 9.65001 17.03 9.76001 16.98C9.86001 16.94 9.95 16.88 10.03 16.8C10.11 16.73 10.17 16.64 10.21 16.53C10.26 16.43 10.28 16.32 10.28 16.19C10.28 16.08 10.26 15.97 10.21 15.86C10.17 15.76 10.11 15.67 10.03 15.59Z" fill="black"/>
<path d="M19.63 11.38L14.18 5.92C14.24 5.7 14.29 5.47 14.29 5.23C14.29 3.97 13.26 2.94 12 2.94C10.74 2.94 9.70999 3.97 9.70999 5.23C9.70999 5.45 9.74999 5.66 9.79999 5.85L4.28 11.38C4.27 11.38 4.26999 11.39 4.26999 11.39C2.97999 11.64 2 12.77 2 14.14V18.25C2 19.8 3.26 21.06 4.81 21.06H19.19C20.74 21.06 22 19.8 22 18.25V14.14C22 12.74 20.97 11.59 19.63 11.38ZM12 4.44C12.44 4.44 12.79 4.8 12.79 5.23C12.79 5.67 12.44 6.03 12 6.03C11.56 6.03 11.21 5.67 11.21 5.23C11.21 4.8 11.56 4.44 12 4.44ZM7.25 17.49C7.25 17.55 7.24 17.61 7.22 17.66C7.19 17.72 7.16 17.77 7.12 17.81C7.08 17.85 7.03 17.88 6.97 17.91C6.92 17.93 6.86001 17.94 6.79001 17.94C6.73001 17.94 6.66999 17.93 6.60999 17.91C6.55999 17.88 6.51 17.85 6.47 17.81C6.43 17.77 6.39 17.72 6.37 17.66C6.35 17.61 6.32999 17.55 6.32999 17.49V16.65H4.92001V17.49C4.92001 17.55 4.91001 17.61 4.89001 17.66C4.86001 17.72 4.83001 17.77 4.79001 17.81C4.75001 17.85 4.70001 17.88 4.64001 17.91C4.58001 17.93 4.51999 17.94 4.45999 17.94C4.39999 17.94 4.34 17.93 4.28 17.91C4.22 17.88 4.18 17.85 4.13 17.81C4.09 17.77 4.06001 17.72 4.04001 17.66C4.01001 17.61 4 17.55 4 17.49V14.89C4 14.83 4.01001 14.77 4.04001 14.71C4.06001 14.66 4.09 14.61 4.13 14.57C4.18 14.53 4.22 14.49 4.28 14.47C4.34 14.45 4.39999 14.44 4.45999 14.44C4.51999 14.44 4.58001 14.45 4.64001 14.47C4.70001 14.49 4.75001 14.53 4.79001 14.57C4.83001 14.61 4.86001 14.66 4.89001 14.71C4.91001 14.77 4.92001 14.83 4.92001 14.89V15.73H6.32999V14.89C6.32999 14.83 6.35 14.77 6.37 14.71C6.4 14.66 6.43 14.61 6.47 14.57C6.51 14.53 6.56 14.49 6.62 14.47C6.68 14.45 6.73999 14.44 6.79999 14.44C6.86999 14.44 6.93001 14.45 6.98001 14.47C7.03001 14.49 7.08 14.53 7.12 14.57C7.16 14.61 7.2 14.66 7.22 14.71C7.24 14.77 7.25 14.83 7.25 14.89V17.49ZM11.06 16.89C10.96 17.1 10.84 17.29 10.67 17.45C10.51 17.61 10.32 17.74 10.11 17.83C9.88999 17.93 9.66 17.97 9.41 17.97C9.17 17.97 8.94 17.93 8.72 17.83C8.51 17.74 8.32 17.61 8.16 17.45C8 17.29 7.87 17.1 7.78 16.89C7.69 16.67 7.64001 16.44 7.64001 16.19C7.64001 15.95 7.69 15.72 7.78 15.5C7.87 15.29 8 15.1 8.16 14.94C8.32 14.78 8.51 14.65 8.72 14.55C8.94 14.46 9.17 14.42 9.41 14.42C9.66 14.42 9.88999 14.46 10.11 14.55C10.32 14.65 10.51 14.78 10.67 14.94C10.84 15.1 10.96 15.29 11.06 15.5C11.15 15.72 11.2 15.95 11.2 16.19C11.2 16.44 11.15 16.67 11.06 16.89ZM14.14 15.08C14.12 15.13 14.08 15.18 14.04 15.23C14 15.27 13.95 15.3 13.9 15.32C13.84 15.35 13.78 15.36 13.72 15.36H13.17V17.49C13.17 17.55 13.16 17.61 13.14 17.67C13.11 17.72 13.08 17.77 13.04 17.81C12.99 17.85 12.95 17.88 12.89 17.91C12.83 17.93 12.77 17.94 12.71 17.94C12.65 17.94 12.59 17.93 12.53 17.91C12.48 17.88 12.43 17.85 12.39 17.81C12.35 17.77 12.31 17.72 12.29 17.67C12.26 17.61 12.25 17.55 12.25 17.49V15.36H11.71C11.65 15.36 11.59 15.35 11.53 15.32C11.48 15.3 11.43 15.26 11.39 15.22C11.34 15.18 11.31 15.13 11.29 15.07C11.26 15.02 11.25 14.96 11.25 14.89C11.25 14.83 11.26 14.77 11.29 14.71C11.31 14.66 11.34 14.61 11.39 14.57C11.43 14.53 11.48 14.5 11.53 14.47C11.59 14.45 11.65 14.44 11.71 14.44H13.72C13.78 14.44 13.84 14.45 13.9 14.47C13.95 14.5 14 14.53 14.04 14.57C14.08 14.62 14.12 14.67 14.14 14.72C14.17 14.78 14.18 14.84 14.18 14.9C14.18 14.97 14.17 15.03 14.14 15.08ZM16.47 15.67C16.54 15.67 16.6 15.68 16.65 15.71C16.71 15.73 16.76 15.77 16.8 15.81C16.84 15.85 16.87 15.9 16.9 15.96C16.92 16.02 16.93 16.08 16.93 16.14C16.93 16.21 16.92 16.26 16.9 16.32C16.87 16.37 16.84 16.42 16.8 16.46C16.76 16.5 16.71 16.53 16.65 16.56C16.6 16.58 16.54 16.59 16.47 16.59H15.44V17.02H16.69C16.75 17.02 16.81 17.03 16.87 17.06C16.92 17.08 16.97 17.12 17.01 17.16C17.05 17.2 17.09 17.25 17.11 17.31C17.13 17.36 17.14 17.42 17.14 17.49C17.14 17.55 17.13 17.61 17.11 17.67C17.09 17.72 17.05 17.77 17.01 17.81C16.97 17.85 16.92 17.88 16.87 17.91C16.81 17.93 16.75 17.94 16.69 17.94H14.95C14.89 17.93 14.83 17.92 14.78 17.89C14.73 17.87 14.68 17.84 14.65 17.8C14.61 17.76 14.58 17.71 14.56 17.66C14.53 17.61 14.52 17.55 14.52 17.49V14.9C14.52 14.84 14.53 14.78 14.56 14.72C14.58 14.66 14.61 14.61 14.66 14.57C14.7 14.53 14.74 14.5 14.8 14.47C14.86 14.45 14.92 14.44 14.98 14.44H16.69C16.75 14.44 16.81 14.45 16.87 14.47C16.92 14.5 16.97 14.53 17.01 14.57C17.05 14.61 17.09 14.66 17.11 14.72C17.13 14.78 17.14 14.84 17.14 14.9C17.14 14.96 17.13 15.02 17.11 15.08C17.09 15.13 17.05 15.18 17.01 15.23C16.97 15.27 16.92 15.3 16.87 15.32C16.81 15.35 16.75 15.36 16.69 15.36H15.44V15.67H16.47ZM6.45001 11.33L10.68 7.1C11.05 7.37 11.51 7.53 12 7.53C12.47 7.53 12.91 7.38 13.27 7.14L17.47 11.33H6.45001ZM19.96 17.67C19.94 17.73 19.91 17.77 19.87 17.81C19.83 17.85 19.78 17.88 19.72 17.91C19.67 17.93 19.61 17.94 19.54 17.94H17.98C17.91 17.93 17.85 17.92 17.79 17.89C17.73 17.86 17.68 17.83 17.64 17.79C17.59 17.74 17.56 17.69 17.54 17.63C17.51 17.56 17.5 17.49 17.5 17.41V14.89C17.5 14.82 17.51 14.77 17.54 14.71C17.56 14.66 17.59 14.61 17.64 14.57C17.68 14.53 17.73 14.49 17.78 14.47C17.84 14.45 17.9 14.44 17.96 14.44C18.02 14.44 18.09 14.45 18.14 14.47C18.2 14.49 18.25 14.53 18.29 14.57C18.33 14.61 18.36 14.66 18.39 14.71C18.41 14.77 18.42 14.82 18.42 14.89V17.02H19.54C19.61 17.02 19.67 17.04 19.72 17.06C19.78 17.09 19.83 17.12 19.87 17.16C19.91 17.2 19.94 17.25 19.96 17.31C19.99 17.37 20 17.43 20 17.49C20 17.55 19.99 17.61 19.96 17.67Z" fill="black"/>
</svg>
