<svg width="24" height="24" viewBox="0 0 24 24" fill="none" xmlns="http://www.w3.org/2000/svg">
<path d="M20.04 6L13.87 2.49C12.72 1.84 11.28 1.84 10.13 2.49L3.96 6C2.75 6.69 2 8 2 9.41V18.09C2 20.24 3.72 22 5.83 22H18.17C20.28 22 22 20.24 22 18.09V9.41C22 8 21.25 6.69 20.04 6ZM16.39 20.22C16.39 20.37 16.26 20.5 16.11 20.5H7.89C7.74 20.5 7.61 20.37 7.61 20.22V17.83C7.7 17.86 7.79 17.88 7.89 17.88H16.11C16.21 17.88 16.3 17.86 16.39 17.83V20.22ZM16.39 16.44C16.3 16.41 16.21 16.38 16.11 16.38H7.89C7.79 16.38 7.7 16.41 7.61 16.44V13.72C7.7 13.75 7.79 13.77 7.89 13.77H16.11C16.21 13.77 16.3 13.75 16.39 13.72V16.44ZM16.39 12.33C16.3 12.29 16.21 12.27 16.11 12.27H7.89C7.79 12.27 7.7 12.29 7.61 12.33V12C7.61 10.71 8.66 9.66 9.94 9.66H14.06C15.34 9.66 16.39 10.71 16.39 12V12.33Z" fill="black"/>
</svg>
