<svg width="24" height="24" viewBox="0 0 24 24" fill="none" xmlns="http://www.w3.org/2000/svg">
<path d="M11.1 9.70999C9.53001 9.70999 8.25 10.98 8.25 12.56C8.25 14.13 9.53001 15.41 11.1 15.41C12.67 15.41 13.95 14.13 13.95 12.56C13.95 10.98 12.67 9.70999 11.1 9.70999Z" fill="black"/>
<path d="M14.42 2.91C13.02 1.69 10.98 1.69 9.58 2.91L3.33 8.4C2.49 9.14 2 10.23 2 11.39V18.09C2 20.24 3.68 22 5.75 22H18.25C20.32 22 22 20.24 22 18.09V11.39C22 10.23 21.51 9.14 20.67 8.4L14.42 2.91ZM17.03 18.49C16.88 18.63 16.69 18.71 16.5 18.71C16.31 18.71 16.12 18.63 15.97 18.49L13.59 16.11C12.89 16.61 12.03 16.91 11.1 16.91C8.70001 16.91 6.75 14.95 6.75 12.56C6.75 10.16 8.70001 8.20999 11.1 8.20999C13.5 8.20999 15.45 10.16 15.45 12.56C15.45 13.48 15.15 14.34 14.65 15.05L17.03 17.43C17.32 17.72 17.32 18.19 17.03 18.49Z" fill="black"/>
</svg>
