<svg width="24" height="24" viewBox="0 0 24 24" fill="none" xmlns="http://www.w3.org/2000/svg">
<path d="M21.25 9.42V18.09C21.25 19.83 19.87 21.25 18.17 21.25H5.84C4.14 21.25 2.76001 19.84 2.76001 18.09V9.42C2.76001 8.27 3.37001 7.22 4.35001 6.66L10.52 3.15C11.45 2.62 12.58 2.62 13.51 3.15L19.68 6.66C20.64 7.21 21.25 8.27 21.25 9.42Z" stroke="black" stroke-width="1.5" stroke-linecap="round" stroke-linejoin="round"/>
<path d="M14.06 8.92001H9.95C8.25 8.92001 6.87001 10.3 6.87001 12V20.22C6.87001 20.79 7.33001 21.25 7.90001 21.25H16.12C16.69 21.25 17.15 20.79 17.15 20.22V12C17.14 10.3 15.76 8.92001 14.06 8.92001Z" stroke="black" stroke-width="1.5" stroke-linecap="round" stroke-linejoin="round"/>
<path d="M7.89001 13.03H16.11" stroke="black" stroke-width="1.5" stroke-linecap="round" stroke-linejoin="round"/>
<path d="M7.89001 17.14H16.11" stroke="black" stroke-width="1.5" stroke-linecap="round" stroke-linejoin="round"/>
</svg>
