<svg width="24" height="24" viewBox="0 0 24 24" fill="none" xmlns="http://www.w3.org/2000/svg">
<path d="M12 14.62C11.19 14.62 10.54 15.28 10.54 16.09C10.54 16.9 11.19 17.55 12 17.55C12.81 17.55 13.46 16.9 13.46 16.09C13.46 15.28 12.81 14.62 12 14.62Z" fill="black"/>
<path d="M14.42 2.91C13.02 1.69 10.98 1.69 9.58 2.91L3.33 8.4C2.49 9.14 2 10.23 2 11.39V18.09C2 20.24 3.68 22 5.75 22H18.25C20.32 22 22 20.24 22 18.09V11.39C22 10.23 21.51 9.14 20.67 8.4L14.42 2.91ZM12 19.05C10.37 19.05 9.03999 17.72 9.03999 16.09C9.03999 14.71 9.98 13.56 11.25 13.23V7.43999C11.25 7.01999 11.59 6.68999 12 6.68999C12.41 6.68999 12.75 7.01999 12.75 7.43999V7.68H13.68C14.09 7.68 14.43 8.02 14.43 8.43C14.43 8.84 14.09 9.18 13.68 9.18H12.75V9.52999H13.68C14.09 9.52999 14.43 9.85999 14.43 10.28C14.43 10.69 14.09 11.03 13.68 11.03H12.75V13.23C14.02 13.56 14.96 14.71 14.96 16.09C14.96 17.72 13.63 19.05 12 19.05Z" fill="black"/>
</svg>
