<svg width="24" height="24" viewBox="0 0 24 24" fill="none" xmlns="http://www.w3.org/2000/svg">
<path d="M21.25 11.39V18.1C21.25 19.84 19.91 21.25 18.25 21.25H5.75C4.09 21.25 2.75 19.84 2.75 18.1V11.39C2.75 10.45 3.14 9.57 3.83 8.97L10.08 3.48C11.19 2.5 12.81 2.5 13.92 3.48L20.17 8.97C20.86 9.57 21.25 10.45 21.25 11.39Z" stroke="black" stroke-width="1.5" stroke-linecap="round" stroke-linejoin="round"/>
<path d="M16.57 9.82999C15.37 8.63999 13.43 8.63999 12.23 9.82999L12 10.05L11.78 9.81999C10.58 8.62999 8.63 8.62999 7.43 9.81999C6.85 10.4 6.53 11.17 6.53 12C6.53 12.82 6.85 13.59 7.43 14.17L11.42 18.16C11.46 18.2 11.53 18.26 11.58 18.29C11.71 18.37 11.85 18.42 12 18.42C12.15 18.42 12.29 18.38 12.42 18.29C12.46 18.26 12.53 18.2 12.57 18.17L16.57 14.17C17.15 13.59 17.47 12.82 17.47 12C17.47 11.18 17.15 10.41 16.57 9.82999Z" stroke="black" stroke-width="1.5" stroke-linecap="round" stroke-linejoin="round"/>
</svg>
