<svg width="24" height="24" viewBox="0 0 24 24" fill="none" xmlns="http://www.w3.org/2000/svg">
<path d="M12.75 10.35L12.53 10.58C12.39 10.72 12.2 10.8 12 10.8C11.8 10.8 11.61 10.72 11.47 10.57L11.25 10.35C10.79 9.9 10.2 9.68 9.61 9.68C9.01 9.68 8.41 9.9 7.96 10.35C7.52 10.79 7.28 11.38 7.28 12C7.28 12.62 7.52 13.2 7.96 13.64L11.96 17.63L16.04 13.64C16.48 13.2 16.72 12.62 16.72 12C16.72 11.38 16.48 10.79 16.04 10.35C15.13 9.45 13.66 9.45 12.75 10.35Z" fill="black"/>
<path d="M14.42 2.91C13.02 1.69 10.98 1.69 9.58 2.91L3.33 8.4C2.49 9.14 2 10.23 2 11.39V18.09C2 20.24 3.68 22 5.75 22H18.25C20.32 22 22 20.24 22 18.09V11.39C22 10.23 21.51 9.14 20.67 8.4L14.42 2.91ZM17.1 14.7L13.1 18.7C13.04 18.77 12.92 18.86 12.83 18.92C12.58 19.09 12.3 19.18 12 19.18C11.7 19.18 11.42 19.09 11.17 18.92C11.07 18.86 10.95 18.75 10.88 18.69L6.9 14.7C6.18 13.98 5.78 13.02 5.78 12C5.78 10.98 6.18 10.01 6.9 9.29C8.29 7.9 10.5 7.81 12 9.02C13.5 7.81 15.71 7.9 17.1 9.29C17.82 10.01 18.22 10.98 18.22 12C18.22 13.02 17.82 13.98 17.1 14.7Z" fill="black"/>
</svg>
