<svg width="24" height="24" viewBox="0 0 24 24" fill="none" xmlns="http://www.w3.org/2000/svg">
<path d="M18.25 2H5.75C3.68 2 2 3.68 2 5.75V18.25C2 20.32 3.68 22 5.75 22H18.25C20.32 22 22 20.32 22 18.25V5.75C22 3.68 20.32 2 18.25 2ZM9.7 10.27C10.81 9.16 12.62 9.16 13.73 10.27C14.02 10.57 14.02 11.04 13.73 11.33C13.44 11.63 12.96 11.63 12.67 11.33C12.14 10.81 11.28 10.81 10.76 11.33L7.15 14.94C6.62 15.47 6.62 16.33 7.15 16.85C7.67 17.38 8.53 17.38 9.06 16.85L10.56 15.35C10.86 15.06 11.33 15.06 11.62 15.35C11.92 15.64 11.92 16.12 11.62 16.41L10.12 17.92C9.56 18.47 8.83 18.75 8.1 18.75C7.37 18.75 6.64 18.47 6.09 17.92C4.97 16.8 4.97 15 6.09 13.88L9.7 10.27ZM14.31 13.73C13.75 14.28 13.02 14.56 12.29 14.56C11.56 14.56 10.83 14.28 10.27 13.73C9.98 13.43 9.98 12.96 10.27 12.67C10.57 12.37 11.04 12.37 11.33 12.67C11.86 13.19 12.72 13.19 13.25 12.67L16.86 9.06C17.38 8.53 17.38 7.66999 16.86 7.14999C16.33 6.61999 15.47 6.61999 14.94 7.14999L13.44 8.64999C13.15 8.93999 12.67 8.93999 12.38 8.64999C12.09 8.35999 12.09 7.88 12.38 7.59L13.88 6.08C15 4.97 16.8 4.97 17.92 6.08C19.03 7.2 19.03 9 17.92 10.12L14.31 13.73Z" fill="black"/>
</svg>
