<svg width="24" height="24" viewBox="0 0 24 24" fill="none" xmlns="http://www.w3.org/2000/svg">
<path d="M16.18 5.61H13.34L15.66 3.28C15.96 2.99 15.96 2.51 15.66 2.22C15.37 1.93 14.9 1.93 14.6 2.22L11.95 4.87L9.29999 2.22C9.00999 1.93 8.53999 1.93 8.23999 2.22C7.94999 2.51 7.94999 2.99 8.23999 3.28L10.57 5.61H7.82001C5.61001 5.61 3.79999 7.41 3.79999 9.62V17.98C3.79999 20.2 5.61001 22 7.82001 22H16.18C18.4 22 20.2 20.2 20.2 17.98V9.62C20.2 7.41 18.4 5.61 16.18 5.61ZM15.43 14.5L12.35 15.77C12.26 15.81 12.16 15.83 12.06 15.83C11.92 15.83 11.77 15.79 11.65 15.71C11.44 15.57 11.31 15.33 11.31 15.08V13.77L9.20999 14.87C8.84999 15.06 8.39001 14.92 8.20001 14.56C8.01001 14.19 8.15001 13.74 8.51001 13.54L11.71 11.86C11.95 11.74 12.23 11.75 12.45 11.88C12.67 12.02 12.81 12.26 12.81 12.52V13.96L14.85 13.11C15.23 12.95 15.67 13.13 15.83 13.51C15.99 13.9 15.81 14.34 15.43 14.5Z" fill="black"/>
</svg>
