<svg width="24" height="24" viewBox="0 0 24 24" fill="none" xmlns="http://www.w3.org/2000/svg">
<path d="M19.13 1.44H4.88001C3.30001 1.44 2.01001 2.73001 2.01001 4.32001V15.48C2.01001 17.07 3.30001 18.36 4.88001 18.36H8.91001L8.21001 20.45C8.13001 20.68 8.17001 20.93 8.31001 21.13C8.45001 21.32 8.68001 21.44 8.92001 21.44H15.09C15.33 21.44 15.56 21.32 15.7 21.13C15.84 20.93 15.88 20.68 15.8 20.45L15.1 18.36H19.13C20.71 18.36 22.01 17.07 22.01 15.48V4.32001C22.01 2.73001 20.71 1.44 19.13 1.44ZM9.96001 19.94L10.49 18.36H13.52L14.05 19.94H9.96001ZM20.51 15.48C20.51 16.24 19.89 16.86 19.13 16.86H4.88001C4.12001 16.86 3.51001 16.24 3.51001 15.48V14.25H20.51V15.48Z" fill="black"/>
</svg>
