<svg width="24" height="24" viewBox="0 0 24 24" fill="none" xmlns="http://www.w3.org/2000/svg">
<path d="M18.18 2H5.82001C3.72001 2 2 3.71001 2 5.82001V18.18C2 20.29 3.72001 22 5.82001 22H18.18C20.29 22 22 20.29 22 18.18V5.82001C22 3.71001 20.29 2 18.18 2ZM8.14999 5.91C8.98999 5.91 9.67001 6.58999 9.67001 7.42999C9.67001 8.26999 8.98999 8.95001 8.14999 8.95001C7.30999 8.95001 6.63 8.26999 6.63 7.42999C6.63 6.58999 7.30999 5.91 8.14999 5.91ZM20.5 18.18C20.5 19.46 19.46 20.5 18.18 20.5H5.82001C4.54001 20.5 3.5 19.46 3.5 18.18V17.76L6.82001 14.44C7.12001 14.13 7.63 14.13 7.94 14.44L8.84 15.35C9.73 16.24 11.19 16.24 12.08 15.35L16.07 11.36C16.37 11.05 16.88 11.05 17.19 11.36L20.5 14.67V18.18Z" fill="black"/>
</svg>
