<svg width="24" height="24" viewBox="0 0 24 24" fill="none" xmlns="http://www.w3.org/2000/svg">
<path d="M17.96 4.26001C17.64 4.52001 17.17 4.47 16.9 4.16C16.56 3.74 16.06 3.5 15.52 3.5H5.29001C4.31001 3.5 3.5 4.30001 3.5 5.29001V15.52C3.5 16 3.69 16.45 4.03 16.79C4.32 17.08 4.32 17.55 4.03 17.85C3.88 17.99 3.69 18.07 3.5 18.07C3.3 18.07 3.11 17.99 2.97 17.85C2.34 17.22 2 16.4 2 15.52V5.29001C2 3.48001 3.48001 2 5.29001 2H15.52C16.51 2 17.44 2.44001 18.06 3.20001C18.33 3.52001 18.28 4.00001 17.96 4.26001Z" fill="black"/>
<path d="M4.03 16.79C4.32 17.08 4.32 17.55 4.03 17.85C3.88 17.99 3.69 18.07 3.5 18.07C3.3 18.07 3.11 17.99 2.97 17.85C2.34 17.22 2 16.4 2 15.52V5.29001C2 3.48001 3.48001 2 5.29001 2H15.52C16.51 2 17.44 2.44001 18.06 3.20001C18.33 3.52001 18.28 4.00001 17.96 4.26001C17.64 4.52001 17.17 4.47 16.9 4.16C16.56 3.74 16.06 3.5 15.52 3.5H5.29001C4.31001 3.5 3.5 4.30001 3.5 5.29001V15.52C3.5 16 3.69 16.45 4.03 16.79Z" fill="black"/>
<path d="M18.71 5.19H8.48001C6.67001 5.19 5.19 6.67001 5.19 8.48001V18.71C5.19 20.52 6.67001 22 8.48001 22H18.71C20.52 22 22 20.52 22 18.71V8.48001C22 6.67001 20.52 5.19 18.71 5.19ZM10.41 8.42001C11.17 8.42001 11.79 9.04 11.79 9.81C11.79 10.58 11.17 11.2 10.41 11.2C9.64 11.2 9.01999 10.58 9.01999 9.81C9.01999 9.04 9.64 8.42001 10.41 8.42001ZM20.5 18.71C20.5 19.7 19.7 20.5 18.71 20.5H8.48001C7.49001 20.5 6.69 19.7 6.69 18.71V18.41L9.39999 15.71C9.59999 15.5 9.94001 15.5 10.14 15.71L10.89 16.46C11.65 17.22 12.99 17.22 13.75 16.46L17.05 13.16C17.25 12.96 17.6 12.96 17.8 13.16L20.5 15.86V18.71Z" fill="black"/>
</svg>
