<svg width="24" height="24" viewBox="0 0 24 24" fill="none" xmlns="http://www.w3.org/2000/svg">
<path d="M7.89999 14.06C8.90999 14.06 9.82999 14.63 10.35 15.59C10.67 16.18 11.31 16.54 12.01 16.54C12.7 16.54 13.34 16.18 13.66 15.59C14.18 14.63 15.1 14.06 16.11 14.06H20.1H21.61L20.64 5.2C20.45 3.4 18.88 2 17.08 2H6.92999C5.12999 2 3.55999 3.4 3.36999 5.2L2.39999 14.06H3.90999H7.89999ZM15 10.06L12.54 12.53C12.58 12.49 12.61 12.45 12.63 12.41C12.49 12.61 12.26 12.73 12.01 12.73C11.8 12.73 11.62 12.65 11.48 12.52V12.53L9.00999 10.06C8.71999 9.77 8.71999 9.3 9.00999 9C9.29999 8.71 9.77999 8.71 10.07 9L11.26 10.19V5.82C11.26 5.4 11.59 5.07 12.01 5.07C12.42 5.07 12.76 5.4 12.76 5.82V10.18L13.94 9C14.23 8.71 14.71 8.71 15 9C15.29 9.3 15.29 9.77 15 10.06Z" fill="black"/>
<path d="M21.98 17.44L21.77 15.56H20.26H16.11C15.66 15.56 15.23 15.84 14.98 16.31C14.39 17.38 13.25 18.04 12.01 18.04C10.76 18.04 9.62001 17.38 9.04001 16.31C8.78001 15.84 8.35001 15.56 7.90001 15.56H3.74001H2.24001L2.03001 17.44C1.89001 18.73 2.26001 19.98 3.05001 20.85C3.71001 21.59 4.61001 22 5.58001 22H18.43C19.4 22 20.3 21.59 20.96 20.85C21.75 19.98 22.12 18.73 21.98 17.44Z" fill="black"/>
</svg>
