<svg width="24" height="24" viewBox="0 0 24 24" fill="none" xmlns="http://www.w3.org/2000/svg">
<path d="M12 2C6.49 2 2 6.49 2 12C2 17.51 6.49 22 12 22C17.51 22 22 17.51 22 12C22 6.49 17.51 2 12 2ZM12 16.08C11.59 16.08 11.25 15.75 11.25 15.33C11.25 14.92 11.59 14.58 12 14.58C12.42 14.58 12.75 14.92 12.75 15.33C12.75 15.75 12.42 16.08 12 16.08ZM12.75 12.58C12.75 13 12.41 13.33 12 13.33C11.59 13.33 11.25 13 11.25 12.58V7.92C11.25 7.5 11.59 7.17 12 7.17C12.41 7.17 12.75 7.5 12.75 7.92V12.58Z" fill="black"/>
</svg>
