<svg width="24" height="24" viewBox="0 0 24 24" fill="none" xmlns="http://www.w3.org/2000/svg">
<path d="M17.14 2H6.86C4.18 2 2 4.18 2 6.86V17.14C2 19.82 4.18 22 6.86 22H17.14C19.82 22 22 19.82 22 17.14V6.86C22 4.18 19.82 2 17.14 2ZM3.5 8.17999V6.86C3.5 5.65 4.16 4.59 5.12 4C5.16 4.12 5.21 4.23001 5.3 4.32001L9.16 8.17999H3.5ZM14.88 15.74L10.62 17.93C10.51 17.98 10.4 18.01 10.28 18.01C10.15 18.01 10.02 17.97 9.9 17.9C9.68 17.77 9.55 17.53 9.55 17.28V12.9C9.55 12.65 9.68 12.41 9.9 12.28C10.12 12.15 10.39 12.14 10.62 12.25L14.88 14.44C15.13 14.56 15.28 14.81 15.28 15.09C15.28 15.37 15.13 15.62 14.88 15.74ZM11.28 8.17999L6.63 3.52C6.7 3.52 6.78 3.5 6.86 3.5H11.68L16.36 8.17999H11.28ZM20.5 8.17999H18.48L13.8 3.5H17.14C18.99 3.5 20.5 5.01 20.5 6.86V8.17999Z" fill="black"/>
</svg>
