<svg width="24" height="24" viewBox="0 0 24 24" fill="none" xmlns="http://www.w3.org/2000/svg">
<path d="M17.14 21.25H6.86C4.59 21.25 2.75 19.41 2.75 17.14V6.86C2.75 4.59 4.59 2.75 6.86 2.75H17.14C19.41 2.75 21.25 4.59 21.25 6.86V17.14C21.25 19.41 19.41 21.25 17.14 21.25Z" stroke="black" stroke-width="1.5" stroke-linecap="round" stroke-linejoin="round"/>
<path d="M2.75 8.92999H21.25" stroke="black" stroke-width="1.5" stroke-linecap="round" stroke-linejoin="round"/>
<path d="M18.17 8.92999L12 2.75999" stroke="black" stroke-width="1.5" stroke-linecap="round" stroke-linejoin="round"/>
<path d="M10.97 8.92999L5.83 3.78999" stroke="black" stroke-width="1.5" stroke-linecap="round" stroke-linejoin="round"/>
<path d="M13.57 14.2L11.31 12.97C10.7 12.64 9.96001 13.08 9.96001 13.77V16.23C9.96001 16.92 10.7 17.37 11.31 17.03L13.57 15.8C14.21 15.47 14.21 14.55 13.57 14.2Z" stroke="black" stroke-width="1.5" stroke-linecap="round" stroke-linejoin="round"/>
</svg>
