<svg width="24" height="24" viewBox="0 0 24 24" fill="none" xmlns="http://www.w3.org/2000/svg">
<path d="M17.14 21.25H6.85999C4.58999 21.25 2.75 19.41 2.75 17.14V6.86C2.75 4.59 4.58999 2.75 6.85999 2.75H17.14C19.41 2.75 21.25 4.59 21.25 6.86V17.14C21.25 19.41 19.41 21.25 17.14 21.25Z" stroke="black" stroke-width="1.5" stroke-linecap="round" stroke-linejoin="round"/>
<path d="M12 15.57C13.9717 15.57 15.57 13.9717 15.57 12C15.57 10.0283 13.9717 8.43 12 8.43C10.0283 8.43 8.42999 10.0283 8.42999 12C8.42999 13.9717 10.0283 15.57 12 15.57Z" stroke="black" stroke-width="1.5" stroke-linecap="round" stroke-linejoin="round"/>
<path d="M17.15 7.92C17.7188 7.92 18.18 7.45885 18.18 6.89C18.18 6.32115 17.7188 5.86 17.15 5.86C16.5811 5.86 16.12 6.32115 16.12 6.89C16.12 7.45885 16.5811 7.92 17.15 7.92Z" fill="black"/>
</svg>
