<svg width="24" height="24" viewBox="0 0 24 24" fill="none" xmlns="http://www.w3.org/2000/svg">
<path d="M17.15 7.14H16.86V6.86C16.86 4.18 14.68 2 12 2C9.32 2 7.14 4.18 7.14 6.86V7.14H6.85C4.74 7.14 3.03 8.85001 3.03 10.96V16.14C3.03 19.37 5.66 22 8.89 22H15.11C18.34 22 20.97 19.37 20.97 16.14V10.96C20.97 8.85001 19.26 7.14 17.15 7.14ZM7.14 11.79V10.97C7.14 10.56 7.48 10.22 7.89 10.22C8.3 10.22 8.64 10.56 8.64 10.97V11.79C8.64 13.19 10.15 14.33 12 14.33C13.85 14.33 15.36 13.19 15.36 11.79V10.97C15.36 10.56 15.7 10.22 16.11 10.22C16.53 10.22 16.86 10.56 16.86 10.97V11.79C16.86 14.02 14.68 15.83 12 15.83C9.32 15.83 7.14 14.02 7.14 11.79ZM8.64 6.86C8.64 5.01 10.15 3.5 12 3.5C13.85 3.5 15.36 5.01 15.36 6.86V7.14H8.64V6.86Z" fill="black"/>
</svg>
