<svg width="24" height="24" viewBox="0 0 24 24" fill="none" xmlns="http://www.w3.org/2000/svg">
<path d="M18.64 10.23V5.97C18.64 3.78 16.85 2 14.67 2H5.97C3.78 2 2 3.78 2 5.97V18.03C2 20.21 3.78 22 5.97 22H19.18C19.22 22 19.26 21.98 19.3 21.97C19.39 21.98 19.48 22 19.57 22C20.91 22 22 20.97 22 19.7V13.99C22 12.11 20.55 10.56 18.64 10.23ZM14.79 6.87C14.79 7.27999 14.45 7.62 14.04 7.62H6.85C6.43 7.62 6.1 7.27999 6.1 6.87C6.1 6.45 6.43 6.12 6.85 6.12H14.04C14.45 6.12 14.79 6.45 14.79 6.87ZM6.85 11.25H14.04C14.45 11.25 14.79 11.58 14.79 12C14.79 12.41 14.45 12.75 14.04 12.75H6.85C6.43 12.75 6.1 12.41 6.1 12C6.1 11.58 6.43 11.25 6.85 11.25ZM9.68 17.12C9.68 17.53 9.35 17.87 8.93 17.87H6.88C6.46 17.87 6.13 17.53 6.13 17.12C6.13 16.7 6.46 16.37 6.88 16.37H8.93C9.35 16.37 9.68 16.7 9.68 17.12ZM20.5 19.7C20.5 20.14 20.08 20.5 19.57 20.5C19.05 20.5 18.64 20.14 18.64 19.7V11.76C19.71 12.05 20.5 12.94 20.5 13.99V19.7Z" fill="black"/>
</svg>
