<svg width="24" height="24" viewBox="0 0 24 24" fill="none" xmlns="http://www.w3.org/2000/svg">
<path d="M10.32 12L12 13.69L13.68 12L12 10.34L10.32 12Z" fill="black"/>
<path d="M12.53 2.22C12.24 1.93 11.76 1.93 11.47 2.22L2.72998 10.96C2.43998 11.24 2.28998 11.62 2.28998 12.02C2.28998 12.42 2.43998 12.79 2.72998 13.08C5.82998 16.17 5.82998 16.17 7.24998 17.58L11.47 21.78C11.62 21.93 11.81 22 12 22C12.19 22 12.38 21.93 12.53 21.78L18.36 15.97C18.41 15.93 18.45 15.89 18.5 15.84C18.55 15.78 18.63 15.71 18.74 15.6L18.79 15.54C18.83 15.51 18.87 15.47 18.9 15.43C18.93 15.41 18.95 15.39 18.96 15.37L19.14 15.2C19.59 14.75 20.26 14.08 21.27 13.08C21.87 12.48 21.87 11.55 21.27 10.96L12.53 2.22ZM15.28 12.53L12.53 15.28C12.38 15.42 12.19 15.5 12 15.5C11.81 15.5 11.62 15.42 11.47 15.28L8.71999 12.53C8.57999 12.39 8.49998 12.2 8.49998 12C8.49998 11.8 8.57998 11.61 8.72998 11.47L11.47 8.76C11.77 8.47 12.24 8.47 12.53 8.76L15.27 11.47C15.42 11.61 15.5 11.8 15.5 12C15.5 12.2 15.42 12.39 15.28 12.53Z" fill="black"/>
</svg>
