<svg width="24" height="24" viewBox="0 0 24 24" fill="none" xmlns="http://www.w3.org/2000/svg">
<path d="M20.74 11.49L12 2.75C6.02998 8.72 3.25997 11.49 3.25997 11.49C2.95997 11.79 2.95997 12.25 3.25997 12.54C8.01997 17.3 5.45998 14.74 12 21.24C15.21 18.04 16.95 16.31 17.83 15.43C17.83 15.43 17.83 15.43 17.84 15.42C17.85 15.41 17.86 15.4 17.87 15.39C17.9 15.37 17.93 15.34 17.96 15.3C18.01 15.26 18.07 15.2 18.15 15.12C18.19 15.07 18.23 15.03 18.29 14.97C18.32 14.95 18.34 14.93 18.36 14.9C18.38 14.89 18.4 14.87 18.42 14.84C18.48 14.78 18.53 14.73 18.6 14.66C19.05 14.21 19.73 13.53 20.74 12.53C21.04 12.25 21.04 11.79 20.74 11.49ZM12 14.75L9.24998 12L12 9.29L14.75 12L12 14.75Z" stroke="black" stroke-width="1.5" stroke-linecap="round" stroke-linejoin="round"/>
</svg>
