<svg width="24" height="24" viewBox="0 0 24 24" fill="none" xmlns="http://www.w3.org/2000/svg">
<path d="M19.21 17.1H4.79001C3.66001 17.1 2.75 16.19 2.75 15.06V8.94C2.75 7.81 3.66001 6.89999 4.79001 6.89999H19.21C20.34 6.89999 21.25 7.81 21.25 8.94V15.06C21.25 16.19 20.34 17.1 19.21 17.1Z" stroke="black" stroke-width="1.5" stroke-linecap="round" stroke-linejoin="round"/>
<path d="M10.47 14.04H13.53" stroke="black" stroke-width="1.5" stroke-linecap="round" stroke-linejoin="round"/>
<path d="M18.12 10.98C17.84 10.98 17.59 10.88 17.4 10.68C17.21 10.49 17.1 10.23 17.1 9.96C17.1 9.83 17.13 9.7 17.18 9.57C17.23 9.45 17.3 9.32999 17.39 9.22999C17.77 8.84999 18.45 8.84999 18.84 9.22999C18.93 9.32999 19 9.43 19.05 9.57C19.1 9.69 19.13 9.82 19.13 9.96C19.13 10.23 19.03 10.49 18.83 10.68C18.65 10.88 18.39 10.98 18.12 10.98Z" fill="black"/>
<path d="M14.04 10.98C13.91 10.98 13.78 10.95 13.65 10.9C13.52 10.85 13.41 10.78 13.31 10.69C13.12 10.5 13.01 10.23 13.01 9.97C13.01 9.71 13.12 9.44 13.31 9.25C13.41 9.16 13.51 9.08999 13.65 9.03999C14.03 8.87999 14.48 8.97 14.76 9.25C14.85 9.35 14.92 9.45 14.97 9.59C15.02 9.71 15.05 9.83999 15.05 9.97999C15.05 10.24 14.95 10.51 14.75 10.7C14.65 10.79 14.54 10.86 14.41 10.91C14.3 10.95 14.17 10.98 14.04 10.98Z" fill="black"/>
<path d="M9.95999 10.98C9.82999 10.98 9.70001 10.95 9.57001 10.9C9.45001 10.85 9.33001 10.78 9.23001 10.69C9.14001 10.59 9.06999 10.48 9.01999 10.35C8.95999 10.23 8.94 10.1 8.94 9.96C8.94 9.83 8.96999 9.7 9.01999 9.57C9.06999 9.44 9.14001 9.32999 9.23001 9.22999C9.61001 8.84999 10.29 8.84999 10.68 9.22999C10.77 9.32999 10.84 9.43 10.89 9.57C10.94 9.69 10.97 9.82 10.97 9.96C10.97 10.09 10.94 10.22 10.89 10.35C10.84 10.47 10.77 10.58 10.68 10.69C10.58 10.78 10.47 10.85 10.34 10.9C10.23 10.95 10.09 10.98 9.95999 10.98Z" fill="black"/>
<path d="M18.12 15.17C17.84 15.17 17.59 15.07 17.4 14.87C17.21 14.68 17.1 14.42 17.1 14.15C17.1 14.02 17.13 13.89 17.18 13.76C17.23 13.63 17.3 13.52 17.39 13.42C17.77 13.04 18.45 13.04 18.84 13.42C18.93 13.52 19 13.62 19.05 13.76C19.1 13.88 19.13 14.01 19.13 14.15C19.13 14.28 19.1 14.41 19.05 14.54C19 14.66 18.93 14.77 18.84 14.88C18.65 15.07 18.39 15.17 18.12 15.17Z" fill="black"/>
<path d="M5.88 15.06C5.6 15.06 5.35 14.96 5.16 14.76C4.97 14.57 4.85999 14.31 4.85999 14.04C4.85999 13.91 4.89 13.78 4.94 13.65C4.99 13.52 5.05999 13.41 5.14999 13.31C5.52999 12.93 6.22001 12.93 6.60001 13.31C6.69001 13.41 6.76 13.51 6.81 13.65C6.86 13.77 6.89001 13.9 6.89001 14.04C6.89001 14.31 6.79 14.57 6.59 14.76C6.49 14.85 6.38 14.92 6.25 14.97C6.15 15.03 6.01 15.06 5.88 15.06Z" fill="black"/>
<path d="M5.88 10.98C5.6 10.98 5.35 10.88 5.16 10.68C4.97 10.49 4.85999 10.23 4.85999 9.96C4.85999 9.83 4.89 9.7 4.94 9.57C4.99 9.44 5.05999 9.32999 5.14999 9.22999C5.52999 8.84999 6.22001 8.84999 6.60001 9.22999C6.69001 9.32999 6.76 9.43 6.81 9.57C6.86 9.69 6.89001 9.82 6.89001 9.96C6.89001 10.23 6.79 10.49 6.59 10.68C6.49 10.77 6.38 10.84 6.25 10.89C6.15 10.95 6.01 10.98 5.88 10.98Z" fill="black"/>
</svg>
