<svg width="24" height="24" viewBox="0 0 24 24" fill="none" xmlns="http://www.w3.org/2000/svg">
<path d="M17.05 2H6.96001C5.36001 2 4.06 3.29999 4.06 4.89999V19.1C4.06 20.7 5.36001 22 6.96001 22H17.05C18.65 22 19.95 20.7 19.95 19.1V4.89999C19.95 3.29999 18.65 2 17.05 2ZM7.46001 9.75999C7.51001 9.62999 7.58999 9.52 7.67999 9.42C7.77999 9.33 7.89 9.26 8.02 9.2C8.26 9.09 8.55 9.09 8.8 9.2C8.92 9.26 9.03 9.33 9.14 9.42C9.23 9.52 9.30001 9.63999 9.35001 9.75999C9.40001 9.87999 9.44 10.02 9.44 10.15C9.44 10.43 9.33 10.68 9.14 10.88C8.94 11.07 8.69 11.18 8.41 11.18C8.13 11.18 7.86999 11.07 7.67999 10.88C7.47999 10.68 7.38 10.43 7.38 10.15C7.38 10.02 7.41001 9.87999 7.46001 9.75999ZM7.38 6.45C7.38 6.32 7.41001 6.18 7.46001 6.06C7.51001 5.93 7.58999 5.82 7.67999 5.72C8.05999 5.34 8.76 5.34 9.14 5.72C9.23 5.82 9.30001 5.94 9.35001 6.06C9.41001 6.18 9.44 6.32 9.44 6.45C9.44 6.72 9.33 6.96999 9.14 7.17999C8.94 7.37999 8.69 7.48 8.41 7.48C8.27 7.48 8.14 7.44999 8.02 7.39999C7.89 7.33999 7.77999 7.26999 7.67999 7.17999C7.47999 6.97999 7.38 6.73 7.38 6.45ZM7.46001 13.46C7.51001 13.33 7.58999 13.22 7.67999 13.12C8.06999 12.74 8.76 12.74 9.14 13.12C9.32 13.32 9.44 13.58 9.44 13.85C9.44 14.13 9.33 14.38 9.14 14.58C9.03 14.67 8.92 14.74 8.8 14.8C8.67 14.85 8.54 14.88 8.41 14.88C8.13 14.88 7.86999 14.76 7.67999 14.58C7.47999 14.38 7.38 14.13 7.38 13.85C7.38 13.72 7.41001 13.58 7.46001 13.46ZM11.06 9.75999C11.11 9.62999 11.18 9.52 11.28 9.42C11.38 9.33 11.49 9.26 11.61 9.2C11.99 9.04 12.45 9.13 12.73 9.42C12.83 9.52 12.9 9.63999 12.95 9.75999C13 9.87999 13.03 10.02 13.03 10.15C13.03 10.43 12.93 10.68 12.73 10.88C12.54 11.07 12.28 11.18 12 11.18C11.73 11.18 11.47 11.07 11.28 10.88C11.08 10.68 10.98 10.43 10.98 10.15C10.98 10.02 11.01 9.87999 11.06 9.75999ZM10.98 6.45C10.98 6.32 11.01 6.18 11.06 6.06C11.11 5.94 11.18 5.82 11.28 5.72C11.38 5.63 11.48 5.56 11.61 5.5C11.99 5.34 12.45 5.43 12.73 5.72C12.83 5.82 12.9 5.93 12.95 6.06C13 6.18 13.03 6.32 13.03 6.45C13.03 6.73 12.93 6.97999 12.73 7.17999C12.63 7.26999 12.52 7.33999 12.4 7.39999C12.27 7.44999 12.14 7.48 12 7.48C11.73 7.48 11.47 7.37999 11.28 7.17999C11.08 6.97999 10.98 6.72 10.98 6.45ZM11.06 13.46C11.11 13.33 11.18 13.22 11.28 13.12C11.66 12.74 12.34 12.74 12.73 13.12C12.83 13.22 12.9 13.33 12.95 13.46C13 13.58 13.03 13.72 13.03 13.85C13.03 14.13 12.93 14.38 12.73 14.58C12.63 14.67 12.52 14.74 12.4 14.8C12.27 14.85 12.14 14.88 12 14.88C11.87 14.88 11.74 14.85 11.61 14.8C11.49 14.74 11.38 14.67 11.28 14.58C11.08 14.38 10.98 14.13 10.98 13.85C10.98 13.72 11.01 13.58 11.06 13.46ZM11.28 16.82C11.66 16.44 12.35 16.44 12.73 16.82C12.83 16.92 12.9 17.04 12.95 17.16C13 17.28 13.03 17.42 13.03 17.55C13.03 17.83 12.93 18.08 12.73 18.28C12.54 18.47 12.28 18.58 12 18.58C11.87 18.58 11.74 18.55 11.61 18.49C11.49 18.44 11.38 18.37 11.28 18.28C11.08 18.08 10.98 17.83 10.98 17.55C10.98 17.28 11.09 17.02 11.28 16.82ZM14.87 13.12C14.97 13.03 15.09 12.96 15.21 12.9C15.46 12.79 15.75 12.79 15.99 12.9C16.13 12.96 16.23 13.03 16.33 13.12C16.52 13.32 16.63 13.58 16.63 13.85C16.63 13.98 16.6 14.12 16.55 14.24C16.5 14.36 16.42 14.48 16.33 14.58C16.14 14.76 15.88 14.88 15.6 14.88C15.32 14.88 15.07 14.76 14.87 14.58C14.78 14.48 14.71 14.36 14.66 14.24C14.61 14.12 14.57 13.98 14.57 13.85C14.57 13.58 14.69 13.32 14.87 13.12ZM14.57 10.15C14.57 10.02 14.61 9.87999 14.66 9.75999C14.71 9.62999 14.78 9.52 14.87 9.42C14.97 9.33 15.09 9.26 15.21 9.2C15.59 9.04 16.04 9.13 16.33 9.42C16.42 9.52 16.5 9.62999 16.55 9.75999C16.6 9.87999 16.63 10.02 16.63 10.15C16.63 10.43 16.53 10.68 16.33 10.88C16.14 11.07 15.88 11.18 15.6 11.18C15.32 11.18 15.07 11.07 14.87 10.88C14.68 10.68 14.57 10.43 14.57 10.15ZM16.33 7.17999C16.23 7.26999 16.12 7.33999 15.99 7.39999C15.87 7.44999 15.74 7.48 15.6 7.48C15.32 7.48 15.07 7.37999 14.87 7.17999C14.68 6.97999 14.57 6.73 14.57 6.45C14.57 6.32 14.61 6.18 14.66 6.06C14.71 5.94 14.78 5.82 14.87 5.72C14.97 5.63 15.08 5.56 15.21 5.5C15.59 5.34 16.04 5.43 16.33 5.72C16.42 5.82 16.5 5.93 16.55 6.06C16.6 6.18 16.63 6.32 16.63 6.45C16.63 6.73 16.53 6.97999 16.33 7.17999Z" fill="black"/>
</svg>
