<svg width="24" height="24" viewBox="0 0 24 24" fill="none" xmlns="http://www.w3.org/2000/svg">
<path d="M20.27 2.62L19.85 2.21C19.55 1.93 19.1 1.93 18.8 2.21L7.45001 13.15L2.54999 17.87C2.19999 18.21 2 18.67 2 19.16C2 19.65 2.19999 20.11 2.54999 20.46L3.62 21.49C3.98 21.83 4.43 22 4.88 22C5.33 22 5.78 21.83 6.13 21.49L10.56 17.23L10.77 17.43C11.12 17.77 11.57 17.94 12.02 17.94C12.47 17.94 12.92 17.77 13.28 17.43L20.27 10.69C21.39 9.62 22 8.18 22 6.66C22 5.12 21.39 3.69 20.27 2.62ZM5.09 20.41C4.97 20.53 4.79001 20.52 4.67001 20.41L3.59 19.38C3.51 19.3 3.5 19.21 3.5 19.16C3.5 19.11 3.51 19.02 3.59 18.95L7.97 14.73L8.84 15.58L9.48001 16.18L5.09 20.41Z" fill="black"/>
</svg>
