<svg width="24" height="24" viewBox="0 0 24 24" fill="none" xmlns="http://www.w3.org/2000/svg">
<path d="M21.23 5.41C21.17 4.78 20.88 4.19 20.44 3.74L20.25 3.55C19.81 3.11 19.21 2.81999 18.58 2.75999C17.94 2.68999 17.31 2.83999 16.77 3.17999C16.4 3.41999 15.96 3.50999 15.53 3.42999C14.05 3.13999 12.44 3.28 10.87 3.8C9.27999 4.34 7.77999 5.28 6.51999 6.52C5.27999 7.77 4.33999 9.27999 3.79999 10.87C3.27999 12.43 3.13999 14.05 3.42999 15.53C3.50999 15.96 3.41999 16.4 3.17999 16.77C2.83999 17.3 2.68999 17.94 2.75999 18.58C2.81999 19.21 3.10999 19.8 3.54999 20.25L3.73999 20.44C4.17999 20.88 4.77999 21.17 5.40999 21.23C5.50999 21.24 5.61999 21.25 5.70999 21.25C6.23999 21.25 6.76999 21.1 7.21999 20.81C7.58999 20.57 8.02999 20.48 8.45999 20.56C9.93999 20.85 11.55 20.71 13.12 20.19C14.71 19.65 16.21 18.71 17.47 17.47C18.71 16.22 19.65 14.71 20.19 13.12C20.71 11.56 20.85 9.94 20.56 8.46C20.48 8.03 20.57 7.59 20.81 7.22C21.15 6.68 21.3 6.05 21.23 5.41Z" stroke="black" stroke-width="1.5" stroke-linecap="round" stroke-linejoin="round"/>
<path d="M15.04 15.16C15 15.16 14.97 15.16 14.93 15.15C14.66 15.12 14.4 14.96 14.23 14.75C14.06 14.54 13.97 14.25 14 13.97C14.07 13.41 14.61 12.96 15.17 13.04C15.45 13.07 15.71 13.23 15.88 13.45C16.04 13.66 16.13 13.95 16.1 14.22C16.1 14.23 16.1 14.24 16.1 14.24V14.25C16.03 14.76 15.56 15.16 15.04 15.16Z" fill="black"/>
<path d="M14.02 12.07C13.98 12.07 13.95 12.07 13.91 12.06C13.64 12.03 13.38 11.87 13.21 11.66C13.04 11.45 12.95 11.16 12.98 10.88C13.05 10.32 13.59 9.87 14.15 9.95C14.43 9.98 14.69 10.14 14.86 10.36C15.02 10.57 15.11 10.86 15.08 11.13C15.08 11.14 15.08 11.15 15.08 11.15V11.16C15 11.68 14.53 12.07 14.02 12.07Z" fill="black"/>
<path d="M17.1 12.07C17.06 12.07 17.03 12.07 16.99 12.06C16.72 12.03 16.46 11.87 16.29 11.66C16.12 11.45 16.03 11.16 16.06 10.88C16.13 10.32 16.67 9.87 17.23 9.95C17.51 9.98 17.77 10.14 17.94 10.36C18.1 10.57 18.19 10.86 18.16 11.13C18.16 11.14 18.16 11.15 18.16 11.15V11.16C18.08 11.68 17.61 12.07 17.1 12.07Z" fill="black"/>
</svg>
