<svg width="24" height="24" viewBox="0 0 24 24" fill="none" xmlns="http://www.w3.org/2000/svg">
<path d="M20.92 7.50003C20.92 7.49003 20.92 7.47002 20.91 7.46002C20.91 7.45002 20.9 7.44004 20.89 7.42004C20.68 7.02004 20.44 6.64004 20.18 6.26004C20.12 6.17004 20.05 6.08002 19.98 5.99002C19.7 5.62002 19.41 5.26002 19.07 4.93002C18.74 4.59002 18.38 4.30002 18.01 4.02002C17.92 3.95002 17.83 3.89004 17.74 3.82004C17.36 3.56004 16.98 3.32001 16.58 3.11001C16.57 3.11001 16.55 3.10002 16.54 3.09002C16.53 3.08002 16.52 3.08001 16.5 3.08001C13.68 1.66001 10.32 1.66001 7.49001 3.08001C7.48001 3.08001 7.47002 3.08002 7.46001 3.09002C7.45001 3.10002 7.44001 3.10001 7.43001 3.11001C7.03001 3.32001 6.64002 3.56004 6.26002 3.82004C6.17001 3.89004 6.08001 3.95002 5.99001 4.02002C5.62001 4.30002 5.27001 4.59002 4.93001 4.93002C4.59001 5.26002 4.30001 5.62002 4.02001 5.99002C3.95001 6.08002 3.89001 6.17002 3.82001 6.27002C3.56001 6.64002 3.32001 7.02004 3.11001 7.42004C3.11001 7.44004 3.10001 7.45002 3.09001 7.46002C3.08001 7.47002 3.08001 7.49003 3.08001 7.50003C1.66001 10.32 1.66001 13.68 3.08001 16.5C3.08001 16.51 3.08001 16.53 3.09001 16.54C3.10001 16.55 3.11001 16.56 3.11001 16.58C3.32001 16.98 3.56001 17.36 3.82001 17.73C3.89001 17.83 3.95001 17.92 4.02001 18.01C4.30001 18.38 4.59001 18.74 4.93001 19.07C5.26001 19.41 5.62001 19.7 5.99001 19.98C6.08001 20.05 6.17001 20.12 6.27001 20.18C6.64001 20.44 7.03001 20.68 7.43001 20.89C7.44001 20.9 7.45001 20.9 7.46001 20.91C7.47002 20.91 7.48001 20.91 7.49001 20.92C8.90001 21.63 10.45 22 12 22C13.55 22 15.1 21.63 16.52 20.92C16.52 20.91 16.53 20.91 16.54 20.91C16.55 20.9 16.56 20.89 16.58 20.89C16.98 20.68 17.36 20.44 17.74 20.18C17.83 20.11 17.92 20.05 18.01 19.98C18.38 19.7 18.74 19.41 19.07 19.07C19.41 18.74 19.7 18.38 19.98 18.01C20.05 17.92 20.12 17.83 20.18 17.74C20.44 17.36 20.68 16.98 20.89 16.58C20.9 16.56 20.91 16.55 20.91 16.54C20.92 16.53 20.92 16.51 20.92 16.5C22.35 13.68 22.35 10.32 20.92 7.50003ZM16.51 4.80002C16.69 4.91002 16.86 5.03003 17.03 5.16003C17.12 5.22003 17.21 5.28003 17.29 5.35003C17.54 5.55003 17.78 5.76002 18.01 5.99002C18.24 6.22002 18.45 6.46002 18.65 6.71002C18.72 6.79002 18.78 6.88003 18.84 6.97003C18.97 7.14003 19.09 7.31002 19.2 7.49002C19.23 7.54002 19.25 7.58003 19.28 7.63003L16.43 10C16.42 9.96003 16.39 9.93002 16.37 9.90002C16.29 9.73002 16.2 9.57004 16.1 9.42004C16.06 9.34004 16.02 9.27003 15.96 9.19003C15.81 8.97003 15.63 8.76003 15.44 8.56003C15.24 8.37003 15.03 8.19004 14.81 8.04004C14.74 7.98004 14.66 7.94002 14.58 7.90002C14.43 7.80002 14.27 7.70003 14.1 7.63003C14.07 7.61003 14.04 7.58004 14 7.57004L16.37 4.72003C16.42 4.75003 16.46 4.77002 16.51 4.80002ZM13.68 14.9C13.48 15.02 13.26 15.12 13.03 15.19C13.01 15.2 12.98 15.21 12.95 15.22C12.46 15.36 11.94 15.4 11.42 15.31C10.74 15.19 10.12 14.87 9.62001 14.38C9.49001 14.24 9.37002 14.09 9.26002 13.94C9.07001 13.67 8.92001 13.38 8.82001 13.08C8.78001 12.97 8.76001 12.85 8.73001 12.74C8.72001 12.69 8.70001 12.63 8.69001 12.57C8.60001 12.07 8.64001 11.55 8.78001 11.07C8.79001 11.03 8.80001 11 8.81002 10.96C8.88002 10.74 8.98002 10.53 9.10002 10.32C9.12002 10.28 9.15001 10.24 9.18002 10.2C9.31002 9.99004 9.45001 9.80002 9.62001 9.62002C9.77001 9.48002 9.93001 9.35002 10.09 9.24002C10.14 9.21002 10.19 9.18002 10.24 9.15002C10.36 9.07002 10.49 9.00003 10.62 8.94003C10.68 8.92003 10.74 8.89002 10.8 8.87002C10.93 8.82002 11.07 8.78003 11.2 8.75003C11.26 8.73003 11.33 8.71004 11.39 8.70004C11.59 8.66004 11.79 8.64004 12 8.64004C12.19 8.64004 12.39 8.66003 12.58 8.69003C13.26 8.81003 13.88 9.13002 14.38 9.62002C14.87 10.12 15.19 10.74 15.31 11.43C15.4 11.93 15.36 12.45 15.22 12.93C15.21 12.97 15.21 13 15.19 13.04C15.12 13.26 15.02 13.47 14.9 13.68C14.88 13.72 14.85 13.76 14.83 13.8C14.7 14.01 14.55 14.2 14.38 14.38C14.2 14.55 14.01 14.7 13.8 14.83C13.76 14.85 13.72 14.88 13.68 14.9ZM4.81001 7.48004C4.92001 7.31004 5.03001 7.14004 5.16001 6.98004C5.22001 6.89004 5.28001 6.80002 5.35001 6.71002C5.55001 6.46002 5.76001 6.22002 5.99001 5.99002C6.22001 5.76002 6.46001 5.55003 6.71001 5.35003C6.80001 5.28003 6.89001 5.22002 6.98001 5.15002C7.15001 5.03002 7.31001 4.91002 7.49001 4.80002C7.53001 4.78002 7.58001 4.75003 7.63001 4.72003L10 7.57004C9.99001 7.57004 9.98002 7.58002 9.97002 7.59002C9.75002 7.69002 9.54001 7.81003 9.33001 7.94003C9.28001 7.98003 9.22001 8.02003 9.16001 8.06003C8.95001 8.22003 8.75002 8.38003 8.56002 8.56003C8.38002 8.75003 8.22001 8.95003 8.07001 9.16003C8.02001 9.22003 7.99001 9.27001 7.95001 9.33001C7.81001 9.54001 7.69001 9.75004 7.58001 9.98004C7.58001 9.98004 7.57001 9.99003 7.57001 10L4.72001 7.63003C4.75001 7.58003 4.78001 7.53004 4.81001 7.48004ZM7.49001 19.19C7.31001 19.09 7.15001 18.97 6.98001 18.85C6.89001 18.78 6.80001 18.72 6.71001 18.65C6.46001 18.45 6.22001 18.24 5.99001 18.01C5.76001 17.78 5.55001 17.54 5.35001 17.29C5.28001 17.2 5.22001 17.11 5.16001 17.02C5.03001 16.86 4.92001 16.69 4.81001 16.52C4.78001 16.47 4.75001 16.42 4.72001 16.37L7.57001 14C7.59001 14.04 7.61001 14.07 7.63001 14.1C7.71001 14.27 7.80001 14.43 7.90001 14.58C7.95002 14.66 7.99001 14.73 8.04001 14.81C8.20001 15.03 8.37002 15.24 8.56002 15.44C8.76002 15.63 8.97001 15.81 9.19001 15.96C9.27001 16.02 9.34001 16.06 9.42001 16.1C9.57001 16.2 9.73001 16.29 9.90001 16.37C9.93001 16.39 9.97001 16.42 10 16.43L7.63001 19.28C7.58001 19.25 7.53001 19.22 7.49001 19.19ZM19.2 16.51C19.09 16.69 18.97 16.86 18.84 17.03C18.78 17.12 18.72 17.21 18.65 17.29C18.45 17.54 18.24 17.78 18.01 18.01C17.78 18.24 17.54 18.45 17.29 18.65C17.21 18.71 17.12 18.77 17.04 18.84C16.86 18.96 16.69 19.09 16.5 19.2C16.46 19.23 16.42 19.25 16.37 19.28L14 16.43C14.18 16.35 14.34 16.25 14.5 16.15C14.57 16.11 14.65 16.07 14.72 16.03C14.97 15.85 15.22 15.66 15.44 15.44C15.62 15.25 15.79 15.05 15.94 14.84C15.98 14.78 16.02 14.73 16.05 14.67C16.19 14.46 16.32 14.25 16.42 14.02C16.42 14.02 16.43 14.01 16.43 14L19.28 16.37C19.25 16.42 19.23 16.46 19.2 16.51Z" fill="black"/>
</svg>
