<svg width="24" height="24" viewBox="0 0 24 24" fill="none" xmlns="http://www.w3.org/2000/svg">
<path d="M18.17 2H5.82999C3.71999 2 2 3.72 2 5.83V18.16C2 20.28 3.71999 22 5.82999 22H18.17C20.28 22 22 20.28 22 18.16V5.83C22 3.72 20.28 2 18.17 2ZM16.45 9.08C16.37 9.08 16.3 9.07 16.23 9.06L13.8 11.8C13.87 11.97 13.91 12.15 13.91 12.34C13.91 13.19 13.22 13.88 12.36 13.88C12.16 13.88 11.97 13.84 11.8 13.77L9.04999 16.16C9.06999 16.26 9.07999 16.36 9.07999 16.47C9.07999 17.32 8.39001 18.01 7.54001 18.01C6.69001 18.01 6 17.32 6 16.47C6 15.62 6.69001 14.93 7.54001 14.93C7.72001 14.93 7.9 14.97 8.06 15.03L10.85 12.62C10.83 12.53 10.82 12.43 10.82 12.34C10.82 11.49 11.51 10.8 12.36 10.8C12.47 10.8 12.57 10.81 12.66 10.83L15.04 8.15C14.95 7.96 14.91 7.76 14.91 7.54C14.91 6.69 15.6 6 16.45 6C17.3 6 17.99 6.69 17.99 7.54C17.99 8.39 17.3 9.08 16.45 9.08Z" fill="black"/>
</svg>
