<svg width="24" height="24" viewBox="0 0 24 24" fill="none" xmlns="http://www.w3.org/2000/svg">
<path d="M2 5.83V18.16C2 20.28 3.71999 22 5.82999 22H18.17C20.28 22 22 20.28 22 18.16V5.83C22 3.72 20.28 2 18.17 2H5.82999C3.71999 2 2 3.72 2 5.83ZM6.01001 7.54C6.01001 6.69 6.69999 6 7.54999 6C8.39999 6 9.09 6.69 9.09 7.54C9.09 7.76 9.04999 7.96 8.95999 8.15L11.34 10.83C11.43 10.81 11.53 10.8 11.64 10.8C12.49 10.8 13.18 11.49 13.18 12.34C13.18 12.43 13.17 12.53 13.15 12.62L15.94 15.03C16.1 14.97 16.28 14.93 16.46 14.93C17.31 14.93 18 15.62 18 16.47C18 17.32 17.31 18.01 16.46 18.01C15.61 18.01 14.92 17.32 14.92 16.47C14.92 16.36 14.93 16.26 14.95 16.16L12.2 13.77C12.03 13.84 11.84 13.88 11.64 13.88C10.78 13.88 10.09 13.19 10.09 12.34C10.09 12.15 10.13 11.97 10.2 11.8L7.76999 9.06C7.69999 9.07 7.62999 9.08 7.54999 9.08C6.69999 9.08 6.01001 8.39 6.01001 7.54Z" fill="black"/>
</svg>
