<svg width="24" height="24" viewBox="0 0 24 24" fill="none" xmlns="http://www.w3.org/2000/svg">
<path d="M15.1 15.85C15.1 15.07 15.1 14.29 15.1 13.5C15.1 12.72 14.92 12.38 14.63 12.12C14.28 11.81 13.82 11.75 13.56 11.74C13.3 11.75 12.84 11.81 12.49 12.12C12.2 12.38 12.02 12.73 12.02 13.5C12.02 14.28 12.02 15.06 12.02 15.85" stroke="black" stroke-width="1.5" stroke-linecap="round" stroke-linejoin="round"/>
<path d="M8.92001 9.17C8.35001 9.17 7.89001 8.71 7.89001 8.14C7.89001 7.57 8.35 7.11 8.91 7.11H8.92001C9.49001 7.11 9.95001 7.57 9.95001 8.14C9.95001 8.71 9.49001 9.17 8.92001 9.17Z" fill="black"/>
<path d="M8.89999 15.85V10.72" stroke="black" stroke-width="1.5" stroke-linecap="round" stroke-linejoin="round"/>
<path d="M17.14 21.25H6.85999C4.58999 21.25 2.75 19.41 2.75 17.14V6.86C2.75 4.59 4.58999 2.75 6.85999 2.75H17.14C19.41 2.75 21.25 4.59 21.25 6.86V17.14C21.25 19.41 19.41 21.25 17.14 21.25Z" stroke="black" stroke-width="1.5" stroke-linecap="round" stroke-linejoin="round"/>
</svg>
