<svg width="24" height="24" viewBox="0 0 24 24" fill="none" xmlns="http://www.w3.org/2000/svg">
<path d="M17.14 1.96002H6.85999C5.31999 1.96002 4.06 3.21001 4.06 4.76001V19.15C4.06 20.7 5.31999 21.96 6.85999 21.96H17.14C18.69 21.96 19.94 20.7 19.94 19.15V4.76001C19.94 3.21001 18.69 1.96002 17.14 1.96002ZM7.89001 16.39H16.11C16.53 16.39 16.86 16.73 16.86 17.14C16.86 17.55 16.53 17.89 16.11 17.89H7.89001C7.48001 17.89 7.14001 17.55 7.14001 17.14C7.14001 16.73 7.48001 16.39 7.89001 16.39ZM7.14001 12C7.14001 11.59 7.48001 11.25 7.89001 11.25H16.11C16.53 11.25 16.86 11.59 16.86 12C16.86 12.42 16.53 12.75 16.11 12.75H7.89001C7.48001 12.75 7.14001 12.42 7.14001 12ZM16.11 7.61002H7.89001C7.48001 7.61002 7.14001 7.28002 7.14001 6.86002C7.14001 6.45002 7.48001 6.11002 7.89001 6.11002H16.11C16.53 6.11002 16.86 6.45002 16.86 6.86002C16.86 7.28002 16.53 7.61002 16.11 7.61002Z" fill="black"/>
</svg>
