<svg width="24" height="24" viewBox="0 0 24 24" fill="none" xmlns="http://www.w3.org/2000/svg">
<path d="M12 2.25C6.62 2.25 2.25 6.62 2.25 12C2.25 17.37 6.62 21.75 12 21.75C17.38 21.75 21.75 17.37 21.75 12C21.75 6.62 17.38 2.25 12 2.25ZM15.1 16.73L10.14 16.69C9.90001 16.69 9.68001 16.57 9.54001 16.38C9.40001 16.18 9.35999 15.93 9.42999 15.71L10.33 12.92L9.23001 13.12C9.18001 13.12 9.14001 13.13 9.10001 13.13C8.74001 13.13 8.41999 12.87 8.35999 12.51C8.28999 12.1 8.56 11.71 8.97 11.64L10.86 11.3L12.01 7.75C12.14 7.36 12.56 7.14 12.95 7.27C13.35 7.4 13.56 7.82 13.44 8.21L12.53 11L13.95 10.75C14.36 10.68 14.75 10.95 14.82 11.36C14.89 11.76 14.62 12.15 14.21 12.23L12.01 12.62L11.18 15.17L15.14 15.24C15.54 15.26 15.85 15.59 15.85 15.99C15.84 16.4 15.51 16.73 15.1 16.73Z" fill="black"/>
</svg>
