<svg width="24" height="24" viewBox="0 0 24 24" fill="none" xmlns="http://www.w3.org/2000/svg">
<path d="M15.08 3.66C13.38 3.66 12 5 12 6.64C12 8.68 14.76 11.67 14.88 11.8C14.99 11.92 15.18 11.92 15.29 11.8C15.41 11.67 18.17 8.68 18.17 6.64C18.17 5 16.78 3.66 15.08 3.66Z" stroke="black" stroke-width="1.5" stroke-linecap="round" stroke-linejoin="round"/>
<path d="M15.08 7.77C15.6654 7.77 16.14 7.29543 16.14 6.71C16.14 6.12458 15.6654 5.65 15.08 5.65C14.4946 5.65 14.02 6.12458 14.02 6.71C14.02 7.29543 14.4946 7.77 15.08 7.77Z" fill="black"/>
<path d="M13.03 10.11H4.81L2.75 20.34H21.25L19.19 10.11H17.14" stroke="black" stroke-width="1.5" stroke-linecap="round" stroke-linejoin="round"/>
<path d="M8.92 20.34L20.22 15.23" stroke="black" stroke-width="1.5" stroke-linecap="round" stroke-linejoin="round"/>
<path d="M6.86 10.11L13.03 17.78" stroke="black" stroke-width="1.5" stroke-linecap="round" stroke-linejoin="round"/>
</svg>
