<svg width="24" height="24" viewBox="0 0 24 24" fill="none" xmlns="http://www.w3.org/2000/svg">
<path d="M2.74997 21.09H21.25C21.47 21.09 21.69 20.99 21.83 20.81C21.97 20.64 22.03 20.41 21.99 20.19L19.93 9.97C19.86 9.61 19.55 9.36 19.19 9.36H18.02C18.52 8.47 18.92 7.5 18.92 6.64C18.92 4.58 17.2 2.91 15.08 2.91C12.97 2.91 11.25 4.58 11.25 6.64C11.25 7.5 11.64 8.47 12.15 9.36H4.80997C4.44997 9.36 4.13998 9.61 4.06998 9.97L2.00997 20.19C1.96997 20.41 2.02997 20.64 2.16997 20.81C2.30997 20.99 2.52997 21.09 2.74997 21.09ZM19.67 16.3L20.33 19.59H12.4L19.67 16.3ZM15.08 5.64C15.67 5.64 16.15 6.12 16.15 6.71C16.15 7.3 15.67 7.77 15.08 7.77C14.5 7.77 14.02 7.3 14.02 6.71C14.02 6.12 14.5 5.64 15.08 5.64ZM13.03 10.86C13.06 10.86 13.09 10.85 13.12 10.84C13.69 11.61 14.2 12.17 14.33 12.3C14.52 12.51 14.8 12.63 15.08 12.63C15.37 12.63 15.65 12.51 15.84 12.31C15.96 12.17 16.47 11.61 17.04 10.84C17.08 10.85 17.1 10.86 17.14 10.86H18.58L19.37 14.79L13.64 17.38C13.63 17.35 13.63 17.33 13.61 17.31L8.42997 10.86H13.03ZM5.41997 10.86H6.49997L12.25 18.01L8.75997 19.59H3.66997L5.41997 10.86Z" fill="black"/>
</svg>
