<svg width="24" height="24" viewBox="0 0 24 24" fill="none" xmlns="http://www.w3.org/2000/svg">
<path d="M19.19 5.03H16.11C15.7 5.03 15.36 5.37 15.36 5.78V8.11H11.29C11.54 7.54 11.72 6.95 11.72 6.4C11.72 4.57 10.23 3.08 8.39999 3.08C6.56999 3.08 5.08 4.57 5.08 6.4C5.08 6.94 5.26 7.54 5.52 8.11H4.81C3.26 8.11 2 9.37 2 10.92V18.11C2 19.66 3.26 20.92 4.81 20.92H19.19C20.74 20.92 22 19.66 22 18.11V7.84C22 6.29 20.74 5.03 19.19 5.03ZM8.39999 5.6C8.88999 5.6 9.28999 6 9.28999 6.49C9.28999 6.98 8.88999 7.37 8.39999 7.37C7.90999 7.37 7.52 6.98 7.52 6.49C7.52 6 7.90999 5.6 8.39999 5.6ZM10.22 19.42H4.81C4.09 19.42 3.5 18.83 3.5 18.11V14.75H6.86C7.04 14.75 7.14 14.85 7.14 14.89C7.14 15.78 7.94 16.52 8.92 16.52H9.94C10.13 16.52 10.22 16.62 10.22 16.65V19.42ZM19.19 19.42H11.72V16.65C11.72 15.75 10.92 15.02 9.94 15.02H8.92C8.74 15.02 8.64 14.92 8.64 14.89C8.64 13.99 7.84 13.25 6.86 13.25H3.5V10.92C3.5 10.2 4.09 9.61 4.81 9.61H6.35001C6.90001 10.45 7.46999 11.12 7.67999 11.35C7.85999 11.55 8.12999 11.67 8.39999 11.67C8.67999 11.67 8.95001 11.55 9.13 11.35C9.33 11.12 9.91001 10.45 10.46 9.61H15.36V16.06C15.36 16.47 15.7 16.81 16.11 16.81H19.19C19.91 16.81 20.5 17.4 20.5 18.11C20.5 18.83 19.91 19.42 19.19 19.42Z" fill="black"/>
</svg>
