<svg width="24" height="24" viewBox="0 0 24 24" fill="none" xmlns="http://www.w3.org/2000/svg">
<path d="M9.95999 9.64999C8.66999 9.64999 7.60999 10.7 7.60999 12C7.60999 13.3 8.66999 14.35 9.95999 14.35C10.28 14.35 10.58 14.29 10.86 14.17C10.44 13.55 10.19 12.81 10.19 12C10.19 11.19 10.44 10.45 10.86 9.83C10.58 9.71 10.28 9.64999 9.95999 9.64999Z" fill="black"/>
<path d="M11.69 12C11.69 12.42 11.81 12.81 12 13.15C12.19 12.81 12.31 12.42 12.31 12C12.31 11.58 12.19 11.19 12 10.85C11.81 11.19 11.69 11.58 11.69 12Z" fill="black"/>
<path d="M14.04 9.64999C13.72 9.64999 13.42 9.71 13.14 9.83C13.56 10.45 13.81 11.19 13.81 12C13.81 12.81 13.56 13.55 13.14 14.17C13.42 14.29 13.72 14.35 14.04 14.35C15.34 14.35 16.39 13.3 16.39 12C16.39 10.7 15.34 9.64999 14.04 9.64999Z" fill="black"/>
<path d="M17.14 2H6.85999C4.17999 2 2 4.18 2 6.86V17.14C2 19.82 4.17999 22 6.85999 22H17.14C19.82 22 22 19.82 22 17.14V6.86C22 4.18 19.82 2 17.14 2ZM14.04 15.85C13.29 15.85 12.59 15.63 12 15.26C11.41 15.63 10.71 15.85 9.95999 15.85C7.83999 15.85 6.10999 14.12 6.10999 12C6.10999 9.88 7.83999 8.14999 9.95999 8.14999C10.71 8.14999 11.41 8.37001 12 8.74001C12.59 8.37001 13.29 8.14999 14.04 8.14999C16.16 8.14999 17.89 9.88 17.89 12C17.89 14.12 16.16 15.85 14.04 15.85Z" fill="black"/>
</svg>
