<svg width="24" height="24" viewBox="0 0 24 24" fill="none" xmlns="http://www.w3.org/2000/svg">
<path d="M11.82 13.47L8.89999 11.89C8.81999 11.85 8.75 11.84 8.69 11.84C8.59 11.84 8.51 11.88 8.47 11.9C8.41 11.94 8.26001 12.05 8.26001 12.27V15.44C8.26001 15.66 8.41 15.77 8.47 15.81C8.53 15.84 8.69999 15.92 8.89999 15.81L11.82 14.23C12.02 14.12 12.04 13.93 12.04 13.85C12.04 13.78 12.02 13.58 11.82 13.47Z" fill="black"/>
<path d="M16.07 5.7H4.23001C3.00001 5.7 2 6.7 2 7.93V19.77C2 21 3.00001 22 4.23001 22H16.07C17.3 22 18.3 21 18.3 19.77V7.93C18.3 6.7 17.3 5.7 16.07 5.7ZM12.53 15.55L9.60999 17.13C9.31999 17.29 9.01 17.37 8.69 17.37C8.35 17.37 8.01001 17.28 7.70001 17.1C7.11001 16.74 6.76001 16.12 6.76001 15.44V12.27C6.76001 11.58 7.11001 10.96 7.70001 10.61C8.30001 10.26 9.00999 10.25 9.60999 10.57L12.53 12.16C13.16 12.49 13.54 13.14 13.54 13.85C13.54 14.56 13.15 15.21 12.53 15.55Z" fill="black"/>
<path d="M19.78 2H7.92999C6.69999 2 5.70001 3 5.70001 4.23C5.70001 4.64 6.03001 4.98 6.45001 4.98C6.86001 4.98 7.20001 4.64 7.20001 4.23C7.20001 3.83 7.52999 3.5 7.92999 3.5H19.78C20.18 3.5 20.5 3.83 20.5 4.23V16.07C20.5 16.48 20.18 16.81 19.78 16.81C19.36 16.81 19.03 17.14 19.03 17.56C19.03 17.97 19.36 18.31 19.78 18.31C21 18.31 22 17.3 22 16.07V4.23C22 3 21 2 19.78 2Z" fill="black"/>
</svg>
