<svg width="24" height="24" viewBox="0 0 24 24" fill="none" xmlns="http://www.w3.org/2000/svg">
<path d="M17.14 21.25H6.85999C4.58999 21.25 2.75 19.41 2.75 17.14V6.86C2.75 4.59 4.58999 2.75 6.85999 2.75H17.14C19.41 2.75 21.25 4.59 21.25 6.86V17.14C21.25 19.41 19.41 21.25 17.14 21.25Z" stroke="black" stroke-width="1.5" stroke-linecap="round" stroke-linejoin="round"/>
<path d="M8.01999 14.61C8.14999 14.51 8.17999 14.34 8.14999 14.17V9.72C8.17999 9.62 8.12 9.49 8.06 9.39L7.17999 8.29V8.09H9.91L12.01 13.04" stroke="black" stroke-width="1.5" stroke-linecap="round" stroke-linejoin="round"/>
<path d="M7.04999 15.92L8.01999 14.61" stroke="black" stroke-width="1.5" stroke-linecap="round" stroke-linejoin="round"/>
<path d="M8.01999 14.61L8.98999 15.92" stroke="black" stroke-width="1.5" stroke-linecap="round" stroke-linejoin="round"/>
<path d="M7.04999 15.92H8.98999" stroke="black" stroke-width="1.5" stroke-linecap="round" stroke-linejoin="round"/>
<path d="M12 13.04L14.1 8.09H16.83V8.29L15.95 9.39C15.89 9.49 15.82 9.62 15.86 9.72V14.17C15.83 14.34 15.86 14.5 15.99 14.61" stroke="black" stroke-width="1.5" stroke-linecap="round" stroke-linejoin="round"/>
<path d="M15.98 14.61L16.95 15.92" stroke="black" stroke-width="1.5" stroke-linecap="round" stroke-linejoin="round"/>
<path d="M15.01 15.92L15.98 14.61" stroke="black" stroke-width="1.5" stroke-linecap="round" stroke-linejoin="round"/>
<path d="M16.95 15.92H15.01" stroke="black" stroke-width="1.5" stroke-linecap="round" stroke-linejoin="round"/>
</svg>
