<svg width="24" height="24" viewBox="0 0 24 24" fill="none" xmlns="http://www.w3.org/2000/svg">
<path d="M19.19 8.92H16.11C15.54 8.92 15.08 8.46 15.08 7.89V4.81C15.08 3.67 14.16 2.75 13.02 2.75H10.96C9.81999 2.75 8.89999 3.67 8.89999 4.81V7.89C8.89999 8.46 8.44 8.92 7.87 8.92H4.79001C3.65001 8.92 2.73001 9.84 2.73001 10.98V13.04C2.73001 14.18 3.65001 15.1 4.79001 15.1H7.87C8.44 15.1 8.89999 15.56 8.89999 16.13V19.21C8.89999 20.35 9.81999 21.27 10.96 21.27H13.02C14.16 21.27 15.08 20.35 15.08 19.21V16.13C15.08 15.56 15.54 15.1 16.11 15.1H19.19C20.33 15.1 21.25 14.18 21.25 13.04V10.98C21.25 9.84 20.33 8.92 19.19 8.92Z" stroke="black" stroke-width="1.5" stroke-linecap="round" stroke-linejoin="round"/>
</svg>
