<svg width="24" height="24" viewBox="0 0 24 24" fill="none" xmlns="http://www.w3.org/2000/svg">
<path d="M22 11.25C22 11.66 21.66 12 21.25 12H19.25C18.84 12 18.5 11.66 18.5 11.25C18.5 10.84 18.84 10.5 19.25 10.5H21.25C21.66 10.5 22 10.84 22 11.25Z" fill="black"/>
<path d="M19.44 5.62L17.73 7.33C17.58 7.48 17.39 7.55 17.2 7.55C17.01 7.55 16.82 7.48 16.67 7.33C16.38 7.04 16.38 6.56001 16.67 6.27001L18.38 4.56C18.67 4.27 19.15 4.27 19.44 4.56C19.73 4.86 19.73 5.33 19.44 5.62Z" fill="black"/>
<path d="M13.5 2.75V4.75C13.5 5.16 13.16 5.5 12.75 5.5C12.34 5.5 12 5.16 12 4.75V2.75C12 2.34 12.34 2 12.75 2C13.16 2 13.5 2.34 13.5 2.75Z" fill="black"/>
<path d="M12 4.75V2.75C12 2.34 12.34 2 12.75 2C13.16 2 13.5 2.34 13.5 2.75V4.75C13.5 5.16 13.16 5.5 12.75 5.5C12.34 5.5 12 5.16 12 4.75Z" fill="black"/>
<path d="M16.73 14.19L16.02 13.48L14.39 11.86C14.81 11.18 14.73 10.29 14.15 9.70001C13.82 9.37001 13.38 9.19002 12.91 9.19002C12.58 9.19002 12.26 9.28001 11.99 9.45001L10.36 7.83002L9.65001 7.12001C9.36001 6.83001 8.89001 6.82001 8.59001 7.12001C8.30001 7.41001 8.30001 7.89001 8.59001 8.18001L8.83001 8.42001L4.32001 14.22L2.71 15.83C1.77 16.78 1.77 18.32 2.71 19.27L4.57001 21.13C5.05001 21.61 5.67 21.84 6.3 21.84C6.92 21.84 7.54001 21.61 8.02001 21.13L9.12 20.02L10.88 21.78C11.03 21.93 11.22 22 11.41 22C11.6 22 11.8 21.93 11.94 21.78C12.23 21.49 12.23 21.01 11.94 20.72L10.26 19.03L15.43 15.01L15.67 15.25C15.81 15.4 16 15.47 16.2 15.47C16.39 15.47 16.58 15.4 16.73 15.25C17.02 14.96 17.02 14.48 16.73 14.19ZM6.96 20.07C6.59 20.43 6.00001 20.43 5.64001 20.07L3.77001 18.21C3.41001 17.84 3.41001 17.25 3.77001 16.89L4.88001 15.78L8.06001 18.96L6.96 20.07Z" fill="black"/>
<path d="M19.44 5.62L17.73 7.33C17.58 7.48 17.39 7.55 17.2 7.55C17.01 7.55 16.82 7.48 16.67 7.33C16.38 7.04 16.38 6.56001 16.67 6.27001L18.38 4.56C18.67 4.27 19.15 4.27 19.44 4.56C19.73 4.86 19.73 5.33 19.44 5.62Z" fill="black"/>
<path d="M22 11.25C22 11.66 21.66 12 21.25 12H19.25C18.84 12 18.5 11.66 18.5 11.25C18.5 10.84 18.84 10.5 19.25 10.5H21.25C21.66 10.5 22 10.84 22 11.25Z" fill="black"/>
</svg>
