<svg width="24" height="24" viewBox="0 0 24 24" fill="none" xmlns="http://www.w3.org/2000/svg">
<path d="M4.81 9.19C3.26 9.19 2 10.45 2 12C2 13.55 3.26 14.81 4.81 14.81C6.35 14.81 7.60999 13.55 7.60999 12C7.60999 10.45 6.35 9.19 4.81 9.19Z" fill="black"/>
<path d="M12 14.81C13.5519 14.81 14.81 13.5519 14.81 12C14.81 10.4481 13.5519 9.19 12 9.19C10.4481 9.19 9.19 10.4481 9.19 12C9.19 13.5519 10.4481 14.81 12 14.81Z" fill="black"/>
<path d="M19.19 9.19C17.65 9.19 16.39 10.45 16.39 12C16.39 13.55 17.65 14.81 19.19 14.81C20.74 14.81 22 13.55 22 12C22 10.45 20.74 9.19 19.19 9.19Z" fill="black"/>
</svg>
