<svg width="24" height="24" viewBox="0 0 24 24" fill="none" xmlns="http://www.w3.org/2000/svg">
<path d="M12 6.87C13.1377 6.87 14.06 5.9477 14.06 4.81C14.06 3.67229 13.1377 2.75 12 2.75C10.8623 2.75 9.94 3.67229 9.94 4.81C9.94 5.9477 10.8623 6.87 12 6.87Z" stroke="black" stroke-width="1.5" stroke-linecap="round" stroke-linejoin="round"/>
<path d="M12 14.06C13.1377 14.06 14.06 13.1377 14.06 12C14.06 10.8623 13.1377 9.94 12 9.94C10.8623 9.94 9.94 10.8623 9.94 12C9.94 13.1377 10.8623 14.06 12 14.06Z" stroke="black" stroke-width="1.5" stroke-linecap="round" stroke-linejoin="round"/>
<path d="M12 21.25C13.1377 21.25 14.06 20.3277 14.06 19.19C14.06 18.0523 13.1377 17.13 12 17.13C10.8623 17.13 9.94 18.0523 9.94 19.19C9.94 20.3277 10.8623 21.25 12 21.25Z" stroke="black" stroke-width="1.5" stroke-linecap="round" stroke-linejoin="round"/>
</svg>
