<svg width="24" height="24" viewBox="0 0 24 24" fill="none" xmlns="http://www.w3.org/2000/svg">
<path d="M11.64 15.06H11.9C13.84 15.06 15.41 13.49 15.41 11.56V5.51C15.41 3.57 13.84 2 11.9 2H11.64C9.7 2 8.13 3.57 8.13 5.51V11.56C8.13 13.49 9.7 15.06 11.64 15.06Z" fill="black"/>
<path d="M18.84 12.07C18.88 11.65 18.57 11.29 18.16 11.25C17.74 11.22 17.38 11.52 17.35 11.93C17.09 14.79 14.64 17.03 11.77 17.03C8.90002 17.03 6.45002 14.79 6.19002 11.93C6.16002 11.52 5.79002 11.22 5.38002 11.25C4.97002 11.29 4.66001 11.65 4.70001 12.07C5.00001 15.44 7.71002 18.13 11.02 18.49V20.5H9.46002C9.04002 20.5 8.71002 20.84 8.71002 21.25C8.71002 21.66 9.04002 22 9.46002 22H14.08C14.5 22 14.83 21.66 14.83 21.25C14.83 20.84 14.5 20.5 14.08 20.5H12.52V18.49C15.83 18.13 18.54 15.44 18.84 12.07Z" fill="black"/>
</svg>
