<svg width="24" height="24" viewBox="0 0 24 24" fill="none" xmlns="http://www.w3.org/2000/svg">
<path d="M19.93 8.85C19.93 8.8 19.92 8.75 19.9 8.7C19.89 8.65 19.87 8.6 19.84 8.56C19.83 8.54 19.83 8.52 19.82 8.5L17.89 5.6V3.77C17.89 2.79 17.09 2 16.11 2H7.89C6.91 2 6.11 2.79 6.11 3.77V5.6L4.17999 8.5C4.16999 8.51 4.17 8.53 4.17 8.54C4.12 8.63 4.09001 8.72 4.07001 8.83C4.07001 8.85 4.06 8.87 4.06 8.89C4.06 8.9 4.06 8.9 4.06 8.91V19.19C4.06 20.74 5.31 22 6.86 22H17.14C18.69 22 19.94 20.74 19.94 19.19V8.91C19.94 8.89 19.93 8.87 19.93 8.85ZM7.61 3.77C7.61 3.62 7.74 3.5 7.89 3.5H16.11C16.26 3.5 16.39 3.62 16.39 3.77V5.08H7.61V3.77ZM11.72 17.13C11.24 17.62 10.61 17.88 9.94 17.88C9.28 17.88 8.65 17.62 8.17 17.13C7.7 16.65 7.42999 16.02 7.42999 15.39C7.43999 14.81 7.68 14.24 8.11 13.78L9.42 12.49C9.71 12.2 10.18 12.2 10.47 12.49L11.75 13.75C12.02 14.04 12.45 14.61 12.46 15.39C12.46 16.02 12.19 16.65 11.72 17.13ZM14.68 8.16H6.21001L7.25999 6.58H15.74L14.68 8.16ZM18.44 19.19C18.44 19.91 17.86 20.5 17.14 20.5H15.83V9.14L17.14 7.18L18.44 9.14V19.19Z" fill="black"/>
<path d="M9.94 14.08L9.19 14.82C9.11 14.91 8.93999 15.13 8.92999 15.4C8.92999 15.63 9.05001 15.89 9.24001 16.08C9.35001 16.19 9.59 16.38 9.94 16.38C10.3 16.38 10.54 16.19 10.65 16.08C10.84 15.89 10.96 15.63 10.96 15.4C10.95 15.13 10.78 14.91 10.68 14.8L9.94 14.08Z" fill="black"/>
</svg>
