<svg width="24" height="24" viewBox="0 0 24 24" fill="none" xmlns="http://www.w3.org/2000/svg">
<path d="M16.27 2H7.73999C6.36999 2 5.26001 3.14 5.26001 4.53V19.47C5.26001 20.86 6.36999 22 7.73999 22H16.27C17.64 22 18.76 20.86 18.76 19.47V4.53C18.76 3.14 17.64 2 16.27 2ZM11.51 5.08H12.51C12.92 5.08 13.26 5.42 13.26 5.83C13.26 6.25 12.92 6.58 12.51 6.58H11.51C11.09 6.58 10.76 6.25 10.76 5.83C10.76 5.42 11.09 5.08 11.51 5.08ZM12 19.68C11.08 19.68 10.33 18.93 10.33 18.01C10.33 17.09 11.08 16.34 12 16.34C12.92 16.34 13.67 17.09 13.67 18.01C13.67 18.93 12.92 19.68 12 19.68Z" fill="black"/>
</svg>
