<svg width="24" height="24" viewBox="0 0 24 24" fill="none" xmlns="http://www.w3.org/2000/svg">
<path d="M16.77 5.62V4.53C16.77 3.13 15.64 2 14.24 2H5.47C4.08 2 2.94 3.13 2.94 4.53V19.47C2.94 20.86 4.08 22 5.47 22H14.24C15.64 22 16.77 20.86 16.77 19.47V15.35H15.27V17.4H4.44V4.53C4.44 3.96 4.9 3.5 5.47 3.5H14.24C14.81 3.5 15.27 3.96 15.27 4.53V5.62H16.77ZM15.27 18.9V19.47C15.27 20.03 14.81 20.5 14.24 20.5H5.47C4.9 20.5 4.44 20.03 4.44 19.47V18.9H15.27Z" fill="black"/>
<path d="M16.77 5.62V4.53C16.77 3.13 15.64 2 14.24 2H5.47C4.08 2 2.94 3.13 2.94 4.53V19.47C2.94 20.86 4.08 22 5.47 22H14.24C15.64 22 16.77 20.86 16.77 19.47V15.35H15.27V17.4H4.44V4.53C4.44 3.96 4.9 3.5 5.47 3.5H14.24C14.81 3.5 15.27 3.96 15.27 4.53V5.62H16.77ZM15.27 18.9V19.47C15.27 20.03 14.81 20.5 14.24 20.5H5.47C4.9 20.5 4.44 20.03 4.44 19.47V18.9H15.27Z" fill="black"/>
<path d="M18.92 5.62H10.54V5.35001C10.54 4.93001 10.2 4.60001 9.79004 4.60001C9.38004 4.60001 9.04004 4.93001 9.04004 5.35001V15.62C9.04004 16.04 9.38004 16.38 9.79004 16.38C10.2 16.38 10.54 16.04 10.54 15.62V15.35H18.92C20.1 15.35 21.06 14.39 21.06 13.21V7.75999C21.06 6.57999 20.1 5.62 18.92 5.62ZM13.28 8.95C13.28 8.54 13.61 8.2 14.03 8.2H17.11C17.53 8.2 17.86 8.54 17.86 8.95C17.86 9.37 17.53 9.7 17.11 9.7H14.03C13.61 9.7 13.28 9.37 13.28 8.95ZM17.82 12.33C17.68 12.47 17.49 12.55 17.29 12.55C17.09 12.55 16.9 12.47 16.76 12.33C16.62 12.19 16.54 12 16.54 11.8C16.54 11.7 16.56 11.61 16.6 11.52C16.64 11.42 16.69 11.34 16.76 11.27C16.83 11.2 16.91 11.15 17 11.11C17.18 11.03 17.39 11.03 17.58 11.11C17.67 11.15 17.75 11.2 17.82 11.27C17.89 11.34 17.94 11.42 17.98 11.52C18.02 11.61 18.04 11.7 18.04 11.8C18.04 12 17.96 12.19 17.82 12.33Z" fill="black"/>
</svg>
