<svg width="24" height="24" viewBox="0 0 24 24" fill="none" xmlns="http://www.w3.org/2000/svg">
<path d="M18 14.73V19.47C18 20.45 17.22 21.25 16.27 21.25H7.73001C6.77001 21.25 6 20.45 6 19.47V4.53C6 3.55 6.78001 2.75 7.73001 2.75H16.27C17.23 2.75 18 3.55 18 4.53V15.08" stroke="black" stroke-width="1.5" stroke-linecap="round" stroke-linejoin="round"/>
<path d="M11.5 5.83H12.5" stroke="black" stroke-width="1.5" stroke-linecap="round" stroke-linejoin="round"/>
<path d="M12 19.01C12.5523 19.01 13 18.5623 13 18.01C13 17.4577 12.5523 17.01 12 17.01C11.4477 17.01 11 17.4577 11 18.01C11 18.5623 11.4477 19.01 12 19.01Z" fill="black"/>
</svg>
