<svg width="24" height="24" viewBox="0 0 24 24" fill="none" xmlns="http://www.w3.org/2000/svg">
<path d="M21.24 8.18C20.24 5.74 18.26 3.76 15.82 2.76C15.78 2.74 15.73 2.73 15.68 2.71C14.51 2.23 13.28 2 12 2C6.49 2 2 6.49 2 12C2 17.51 6.49 22 12 22C13.22 22 14.41 21.78 15.54 21.35C16.84 20.86 18.02 20.1 19.01 19.13C19.3 18.84 19.58 18.53 19.84 18.2C20.1 17.87 20.34 17.53 20.56 17.17C20.57 17.15 20.58 17.13 20.59 17.11C21.51 15.57 22 13.81 22 12C22 10.67 21.75 9.39 21.24 8.18ZM15.25 4.14C15.39 4.2 15.52 4.26 15.65 4.33C15.74 4.36 15.83 4.4 15.91 4.45C15.97 4.48 16.03 4.51 16.09 4.55C16.27 4.64 16.44 4.75 16.61 4.86C16.67 4.89 16.73 4.93 16.78 4.97C16.98 5.11 17.18 5.25 17.37 5.41C17.38 5.42 17.39 5.42 17.39 5.43C17.61 5.6 17.81 5.79 18.01 5.99C18.21 6.19 18.4 6.39 18.57 6.61C18.58 6.61 18.58 6.62 18.59 6.63C18.75 6.82 18.89 7.02 19.03 7.22C19.07 7.27 19.11 7.33 19.14 7.39C19.25 7.56 19.36 7.73 19.45 7.91C19.49 7.97 19.52 8.03 19.55 8.09C19.6 8.17 19.64 8.26 19.67 8.35C19.74 8.48 19.8 8.61 19.86 8.75C20.01 9.11 20.13 9.47 20.23 9.84C19.49 10.39 18.59 10.69 17.65 10.69C15.26 10.69 13.31 8.74 13.31 6.35C13.31 5.41 13.61 4.51 14.16 3.77C14.53 3.87 14.89 3.99 15.25 4.14ZM8.92999 6.86H8.94C9.5 6.86 9.95999 7.32 9.95999 7.89C9.95999 8.46 9.5 8.92 8.94 8.92C8.37 8.92 7.89999 8.46 7.89999 7.89C7.89999 7.32 8.35999 6.86 8.92999 6.86ZM10.72 18.17C10.01 18.17 9.42999 17.59 9.42999 16.88C9.42999 16.17 10.01 15.6 10.72 15.6C11.42 15.6 12 16.17 12 16.88C12 17.59 11.42 18.17 10.72 18.17ZM16.13 13.03C16.13 13.6 15.67 14.06 15.1 14.06C14.54 14.06 14.07 13.6 14.07 13.03C14.07 12.46 14.53 12 15.09 12H15.1C15.67 12 16.13 12.46 16.13 13.03ZM19.27 16.39C19.14 16.61 19 16.82 18.85 17.02C18.27 17.81 17.57 18.49 16.77 19.03C16.65 19.11 16.53 19.19 16.4 19.27C16.32 19.32 16.25 19.36 16.17 19.4C16.06 19.47 15.94 19.53 15.83 19.58C15.79 19.6 15.75 19.61 15.71 19.63V19.64C15.48 19.75 15.25 19.85 15.01 19.94C14.78 20.03 14.54 20.11 14.3 20.17C14.21 19.85 14.17 19.52 14.17 19.19C14.17 17.08 15.89 15.36 18 15.36C18.57 15.36 19.13 15.49 19.63 15.73C19.52 15.95 19.4 16.17 19.27 16.39Z" fill="black"/>
</svg>
