<svg width="24" height="24" viewBox="0 0 24 24" fill="none" xmlns="http://www.w3.org/2000/svg">
<path d="M18.06 12V15.34C18.06 15.94 17.76 16.49 17.27 16.82C16.06 17.62 14.08 18.57 11.48 18.57C10.3 18.57 7.98003 18.34 5.69003 16.81C5.20003 16.49 4.91003 15.94 4.91003 15.34V12.01L6.41003 12.67L10.46 14.48C10.69 14.59 10.91 14.63 11.03 14.64C11.33 14.7 11.63 14.7 11.91 14.65C12.05 14.63 12.27 14.59 12.5 14.48L16.56 12.67L18.06 12Z" fill="black"/>
<path d="M22 17.14C22 17.85 21.58 18.47 20.97 18.75V20.2199C20.97 20.6399 20.63 20.9699 20.22 20.9699C19.8 20.9699 19.47 20.6399 19.47 20.2199V18.75C18.86 18.47 18.44 17.85 18.44 17.14C18.44 16.43 18.86 15.81 19.47 15.53V9.94999L18.06 10.58L16.56 11.25L12.5 13.06C12.27 13.17 12.05 13.21 11.91 13.23C11.63 13.28 11.33 13.2799 11.03 13.2199C10.91 13.2099 10.69 13.17 10.46 13.06L6.41 11.25L4.91 10.59L3.17001 9.80997C2.45001 9.48997 2 8.86 2 8.15C2 7.44 2.45001 6.79996 3.17001 6.47996L10.47 3.22996C11.11 2.95996 11.85 2.95995 12.48 3.21995L19.8 6.47996C20.52 6.79996 20.97 7.44 20.97 8.15V15.53C21.58 15.81 22 16.43 22 17.14Z" fill="black"/>
</svg>
