<svg width="24" height="24" viewBox="0 0 24 24" fill="none" xmlns="http://www.w3.org/2000/svg">
<path d="M6.11 21.25C7.51832 21.25 8.66 20.1128 8.66 18.71C8.66 17.3072 7.51832 16.17 6.11 16.17C4.70167 16.17 3.56 17.3072 3.56 18.71C3.56 20.1128 4.70167 21.25 6.11 21.25Z" fill="black" stroke="black" stroke-width="1.5" stroke-linecap="round" stroke-linejoin="round"/>
<path d="M8.66 18.72V10.23" stroke="black" stroke-width="1.5" stroke-linecap="round" stroke-linejoin="round"/>
<path d="M17.38 17.71C18.7883 17.71 19.93 16.5728 19.93 15.17C19.93 13.7672 18.7883 12.63 17.38 12.63C15.9717 12.63 14.83 13.7672 14.83 15.17C14.83 16.5728 15.9717 17.71 17.38 17.71Z" fill="black" stroke="black" stroke-width="1.5" stroke-linecap="round" stroke-linejoin="round"/>
<path d="M19.92 2.75V6.69L8.66 10.23V6.29L19.92 2.75Z" fill="black" stroke="black" stroke-width="1.5" stroke-linecap="round" stroke-linejoin="round"/>
<path d="M19.92 15.18V6.69" stroke="black" stroke-width="1.5" stroke-linecap="round" stroke-linejoin="round"/>
</svg>
