<svg width="24" height="24" viewBox="0 0 24 24" fill="none" xmlns="http://www.w3.org/2000/svg">
<path d="M6.37001 21.25C7.77833 21.25 8.92001 20.1128 8.92001 18.71C8.92001 17.3072 7.77833 16.17 6.37001 16.17C4.96168 16.17 3.82001 17.3072 3.82001 18.71C3.82001 20.1128 4.96168 21.25 6.37001 21.25Z" stroke="black" stroke-width="1.5" stroke-linecap="round" stroke-linejoin="round"/>
<path d="M8.91 18.71V6.29" stroke="black" stroke-width="1.5" stroke-linecap="round" stroke-linejoin="round"/>
<path d="M17.63 17.71C19.0383 17.71 20.18 16.5728 20.18 15.17C20.18 13.7672 19.0383 12.63 17.63 12.63C16.2217 12.63 15.08 13.7672 15.08 15.17C15.08 16.5728 16.2217 17.71 17.63 17.71Z" stroke="black" stroke-width="1.5" stroke-linecap="round" stroke-linejoin="round"/>
<path d="M20.18 15.17V2.75" stroke="black" stroke-width="1.5" stroke-linecap="round" stroke-linejoin="round"/>
<path d="M8.91 6.29L20.18 2.75" stroke="black" stroke-width="1.5" stroke-linecap="round" stroke-linejoin="round"/>
<path d="M9.23001 10.13L20.18 6.69" stroke="black" stroke-width="1.5" stroke-linecap="round" stroke-linejoin="round"/>
</svg>
