<svg width="24" height="24" viewBox="0 0 24 24" fill="none" xmlns="http://www.w3.org/2000/svg">
<path d="M14.39 4.02999C13.88 3.78999 13.31 3.84999 12.85 4.19999L6.70999 7.95999H5.59C4.02 7.95999 2.73999 9.23999 2.73999 10.81V13.3C2.73999 14.06 3.03999 14.78 3.57999 15.32C4.11999 15.86 4.83 16.15 5.59 16.15C5.6 16.15 5.59999 16.15 5.60999 16.15L6.70001 16.14L12.85 19.82C13.12 20.02 13.44 20.13 13.75 20.13C13.97 20.13 14.18 20.08 14.39 19.98C14.98 19.7 15.37 19.06 15.37 18.34V5.66999C15.37 4.94999 14.98 4.30999 14.39 4.02999Z" fill="black"/>
<path d="M21.05 9.97999C20.75 9.67999 20.28 9.67999 19.99 9.96999L19 10.95L18.04 9.99999C17.75 9.70999 17.27 9.70999 16.98 9.99999C16.69 10.3 16.69 10.77 16.99 11.06L17.93 12L16.99 12.94C16.69 13.23 16.69 13.71 16.98 14C17.13 14.15 17.32 14.23 17.51 14.23C17.7 14.23 17.9 14.15 18.04 14.01L19 13.06L19.99 14.04C20.13 14.18 20.32 14.25 20.51 14.25C20.71 14.25 20.9 14.18 21.05 14.03C21.34 13.74 21.34 13.26 21.04 12.97L20.07 12L21.04 11.04C21.34 10.75 21.34 10.27 21.05 9.97999Z" fill="black"/>
</svg>
