<svg width="24" height="24" viewBox="0 0 24 24" fill="none" xmlns="http://www.w3.org/2000/svg">
<path d="M15.34 4.46999C14.77 4.15999 14.08 4.18999 13.53 4.53999L6.28 9.28999H3.5C3.09 9.28999 2.75 9.62999 2.75 10.04V13.97C2.75 14.38 3.09 14.72 3.5 14.72H6.28L13.53 19.47C13.83 19.66 14.16 19.75 14.5 19.75C14.79 19.75 15.08 19.68 15.34 19.54C15.9 19.24 16.25 18.65 16.25 18.02V5.98999C16.25 5.34999 15.9 4.76999 15.34 4.46999ZM5.75 13.22H4.25V10.79H5.75V13.22Z" fill="black"/>
<path d="M21.03 10.47C20.74 10.18 20.26 10.18 19.97 10.47L19.5 10.94L19.03 10.47C18.74 10.18 18.26 10.18 17.97 10.47C17.68 10.77 17.68 11.24 17.97 11.53L18.44 12L17.97 12.47C17.68 12.77 17.68 13.24 17.97 13.53C18.12 13.68 18.31 13.75 18.5 13.75C18.69 13.75 18.88 13.68 19.03 13.53L19.5 13.06L19.97 13.53C20.12 13.68 20.31 13.75 20.5 13.75C20.69 13.75 20.88 13.68 21.03 13.53C21.32 13.24 21.32 12.77 21.03 12.47L20.56 12L21.03 11.53C21.32 11.24 21.32 10.77 21.03 10.47Z" fill="black"/>
</svg>
