<svg width="24" height="24" viewBox="0 0 24 24" fill="none" xmlns="http://www.w3.org/2000/svg">
<path d="M11.13 11.17L14.25 9.76L12.87 12.83L9.72 14.32L11.13 11.17Z" fill="black"/>
<path d="M12 2C6.49 2 2 6.49 2 12C2 17.51 6.49 22 12 22C17.51 22 22 17.51 22 12C22 6.49 17.51 2 12 2ZM15.7 10.17L14.19 13.49C14.05 13.8 13.8 14.05 13.49 14.19L10.17 15.7C9.98 15.79 9.78 15.83 9.58 15.83C9.21 15.83 8.86 15.69 8.58 15.42C8.16 15 8.05 14.37 8.3 13.83L9.81 10.51C9.95 10.2 10.2 9.95 10.51 9.81L13.83 8.3C14.37 8.05 15 8.16 15.42 8.58C15.84 9 15.95 9.63 15.7 10.17Z" fill="black"/>
</svg>
