<svg width="24" height="24" viewBox="0 0 24 24" fill="none" xmlns="http://www.w3.org/2000/svg">
<path d="M8.85999 4.41C8.98999 4.41 9.12999 4.37 9.24999 4.3C10.92 3.27 13.12 3.25 14.76 4.19C15.12 4.4 15.58 4.27 15.78 3.91C15.98 3.55 15.86 3.09 15.5 2.89C13.39 1.68 10.58 1.71 8.44999 3.03C8.09999 3.25 7.98999 3.71 8.20999 4.06C8.35999 4.29 8.60999 4.41 8.85999 4.41Z" fill="black"/>
<path d="M10.07 5.65C9.71998 5.87 9.60998 6.33 9.82998 6.68C9.96998 6.91 10.22 7.03 10.47 7.03C10.61 7.03 10.74 6.99 10.87 6.91C11.57 6.47 12.54 6.46 13.24 6.86C13.6 7.07 14.06 6.95 14.27 6.59C14.48 6.23 14.36 5.77 14 5.56C12.83 4.9 11.23 4.92 10.07 5.65Z" fill="black"/>
<path d="M19 8.15H5C3.35 8.15 2 9.5 2 11.15V18.98C2 20.64 3.35 21.99 5 21.99H19C20.65 21.99 22 20.64 22 18.98V11.15C22 9.5 20.65 8.15 19 8.15ZM7.91 18.9H6.88C6.46 18.9 6.13 18.57 6.13 18.15C6.13 17.74 6.46 17.4 6.88 17.4H7.91C8.32 17.4 8.66 17.74 8.66 18.15C8.66 18.57 8.32 18.9 7.91 18.9ZM9.96 15.82H6.88C6.46 15.82 6.13 15.48 6.13 15.07C6.13 14.66 6.46 14.32 6.88 14.32H9.96C10.38 14.32 10.71 14.66 10.71 15.07C10.71 15.48 10.38 15.82 9.96 15.82Z" fill="black"/>
</svg>
