<svg width="24" height="24" viewBox="0 0 24 24" fill="none" xmlns="http://www.w3.org/2000/svg">
<path d="M18.26 2H5.76001C3.69001 2 2.01001 3.68 2.01001 5.75V18.25C2.01001 20.32 3.69001 22 5.76001 22H18.26C20.32 22 22.01 20.32 22.01 18.25V5.75C22.01 3.68 20.32 2 18.26 2ZM18.63 15.87C18.49 16.12 18.24 16.25 17.98 16.25C17.85 16.25 17.73 16.22 17.61 16.15C17.25 15.94 17.13 15.48 17.33 15.13C17.85 14.22 18.13 13.18 18.13 12.11C18.13 10.98 17.81 9.87 17.21 8.89C16.99 8.54 17.1 8.08 17.45 7.86C17.8 7.64 18.27 7.75 18.48 8.11C19.23 9.31 19.63 10.7 19.63 12.11C19.63 13.44 19.28 14.74 18.63 15.87ZM5.38 15.87C4.73 14.74 4.38 13.44 4.38 12.11C4.38 10.7 4.78001 9.31 5.53001 8.1C5.75001 7.75 6.21001 7.64 6.56001 7.86C6.91001 8.08 7.02001 8.54 6.80001 8.9C6.20001 9.86 5.88 10.98 5.88 12.11C5.88 13.18 6.16001 14.22 6.68001 15.13C6.88001 15.48 6.76001 15.94 6.40001 16.15C6.28001 16.22 6.15001 16.25 6.03001 16.25C5.77001 16.25 5.52 16.12 5.38 15.87ZM14.29 10.65C14.07 10.3 14.17 9.83 14.52 9.61C14.88 9.39 15.34 9.5 15.56 9.85C15.97 10.5 16.19 11.27 16.19 12.06C16.19 12.8 16 13.51 15.64 14.13C15.5 14.37 15.25 14.5 14.99 14.5C14.86 14.5 14.73 14.47 14.61 14.4C14.26 14.19 14.14 13.73 14.34 13.38C14.57 12.99 14.69 12.53 14.69 12.06C14.69 11.55 14.55 11.06 14.29 10.65ZM12.95 12C12.95 12.55 12.5 13 11.95 13C11.39 13 10.94 12.55 10.94 12C10.94 11.45 11.39 11 11.95 11C12.5 11 12.95 11.45 12.95 12ZM9.67001 13.38C9.87001 13.73 9.75001 14.19 9.40001 14.4C9.28001 14.47 9.15 14.5 9.02 14.5C8.76 14.5 8.51001 14.37 8.37001 14.13C8.01001 13.51 7.82001 12.8 7.82001 12.06C7.82001 11.27 8.04 10.5 8.45 9.85C8.67 9.5 9.13001 9.39 9.48001 9.61C9.84001 9.83 9.94001 10.3 9.72001 10.65C9.46001 11.06 9.32001 11.55 9.32001 12.06C9.32001 12.53 9.44001 12.99 9.67001 13.38Z" fill="black"/>
</svg>
