<svg width="24" height="24" viewBox="0 0 24 24" fill="none" xmlns="http://www.w3.org/2000/svg">
<path d="M10.85 14.43C10.8 14.38 10.74 14.34 10.68 14.31C10.62 14.29 10.56 14.27 10.5 14.27H9.84V15.32H10.5C10.56 15.32 10.62 15.31 10.69 15.28C10.75 15.25 10.8 15.21 10.85 15.17C10.9 15.12 10.95 15.06 10.98 15C11.01 14.94 11.02 14.87 11.02 14.8C11.02 14.73 11.01 14.66 10.97 14.59C10.94 14.53 10.9 14.47 10.85 14.43Z" fill="black"/>
<path d="M5.72999 16.22C5.84999 16.27 5.98998 16.3 6.12998 16.3C6.27998 16.3 6.40998 16.27 6.52998 16.22C6.65998 16.17 6.76999 16.1 6.85999 16.01C6.94999 15.91 7.02999 15.81 7.07999 15.68C7.12999 15.56 7.15999 15.42 7.15999 15.27C7.15999 15.13 7.12999 15 7.07999 14.87C7.02999 14.75 6.94999 14.64 6.85999 14.55C6.76999 14.45 6.65998 14.38 6.52998 14.32C6.40998 14.27 6.27998 14.24 6.12998 14.24C5.98998 14.24 5.84999 14.27 5.72999 14.32C5.59999 14.38 5.48999 14.45 5.39999 14.55C5.30999 14.64 5.23999 14.75 5.17999 14.87C5.12999 15 5.10999 15.13 5.10999 15.27C5.10999 15.42 5.12999 15.56 5.17999 15.68C5.23999 15.81 5.30999 15.91 5.39999 16.01C5.48999 16.1 5.59999 16.17 5.72999 16.22Z" fill="black"/>
<path d="M19.63 10.46L14.17 5C14.24 4.78 14.29 4.55 14.29 4.31C14.29 3.05 13.26 2.02 12 2.02C10.74 2.02 9.71 3.05 9.71 4.31C9.71 4.53 9.75 4.74 9.8 4.93L4.28 10.46C4.27 10.46 4.27 10.47 4.27 10.47C2.98 10.72 2 11.85 2 13.22V17.33C2 18.88 3.26 20.13 4.81 20.13H19.19C20.74 20.13 22 18.88 22 17.33V13.22C22 11.82 20.97 10.67 19.63 10.46ZM20 16.82C20 16.9 19.99 16.97 19.96 17.03C19.93 17.1 19.89 17.16 19.84 17.21C19.79 17.26 19.74 17.3 19.67 17.33C19.6 17.35 19.52 17.37 19.44 17.37H19.4C19.33 17.36 19.27 17.34 19.21 17.31C19.15 17.27 19.1 17.22 19.05 17.16L17.21 15.11V16.82C17.21 16.9 17.19 16.97 17.16 17.04C17.14 17.1 17.1 17.16 17.05 17.21C17 17.26 16.94 17.3 16.87 17.33C16.8 17.35 16.73 17.37 16.65 17.37C16.57 17.37 16.5 17.35 16.44 17.33C16.37 17.3 16.31 17.26 16.26 17.21C16.21 17.16 16.17 17.1 16.14 17.04C16.11 16.97 16.1 16.9 16.1 16.82V13.73C16.1 13.66 16.11 13.59 16.14 13.52C16.17 13.45 16.2 13.39 16.25 13.34C16.3 13.29 16.36 13.25 16.43 13.21C16.49 13.18 16.57 13.17 16.65 13.17C16.82 13.17 16.96 13.24 17.09 13.37L18.89 15.38V13.71C18.89 13.63 18.91 13.56 18.94 13.49C18.97 13.43 19.01 13.37 19.06 13.32C19.11 13.27 19.17 13.23 19.24 13.21C19.31 13.18 19.38 13.17 19.45 13.17C19.53 13.17 19.6 13.18 19.67 13.21C19.73 13.23 19.79 13.27 19.84 13.32C19.89 13.37 19.93 13.43 19.96 13.49C19.99 13.56 20 13.63 20 13.71V16.82ZM4.17 16.1C4.06 15.85 4 15.57 4 15.27C4 14.98 4.06 14.7 4.17 14.44C4.28 14.19 4.43 13.96 4.62 13.76C4.81 13.57 5.03 13.42 5.29 13.31C5.55 13.2 5.83 13.14 6.12 13.14C6.42 13.14 6.7 13.2 6.96 13.31C7.22 13.42 7.44 13.57 7.64 13.76C7.83 13.96 7.98 14.19 8.1 14.44C8.21 14.7 8.26 14.98 8.26 15.27C8.26 15.57 8.21 15.85 8.1 16.1C7.98 16.36 7.83 16.59 7.64 16.78C7.44 16.98 7.22 17.13 6.96 17.24C6.7 17.35 6.42 17.41 6.12 17.41C5.83 17.41 5.55 17.35 5.29 17.24C5.03 17.13 4.81 16.98 4.62 16.78C4.43 16.59 4.28 16.36 4.17 16.1ZM14.87 14.65C14.94 14.65 15.01 14.66 15.08 14.69C15.15 14.72 15.21 14.76 15.26 14.81C15.31 14.86 15.35 14.92 15.37 14.99C15.4 15.06 15.42 15.13 15.42 15.21C15.42 15.29 15.4 15.36 15.37 15.42C15.35 15.49 15.31 15.55 15.26 15.6C15.21 15.64 15.15 15.68 15.08 15.71C15.01 15.74 14.94 15.75 14.87 15.75H13.63V16.26H15.12C15.2 16.26 15.27 16.28 15.34 16.31C15.41 16.34 15.46 16.38 15.51 16.43C15.56 16.48 15.6 16.54 15.63 16.61C15.66 16.68 15.67 16.75 15.67 16.83C15.67 16.9 15.66 16.97 15.63 17.04C15.6 17.11 15.56 17.17 15.51 17.22C15.46 17.26 15.41 17.3 15.34 17.33C15.27 17.36 15.2 17.37 15.12 17.37H13.03C12.96 17.36 12.89 17.34 12.83 17.31C12.77 17.28 12.72 17.25 12.67 17.2C12.63 17.15 12.59 17.1 12.56 17.03C12.54 16.97 12.52 16.9 12.52 16.83V13.72C12.52 13.64 12.54 13.57 12.57 13.5C12.6 13.44 12.63 13.38 12.68 13.33C12.73 13.28 12.79 13.24 12.86 13.21C12.92 13.18 13 13.17 13.08 13.17H15.12C15.2 13.17 15.27 13.18 15.34 13.21C15.41 13.24 15.46 13.28 15.51 13.33C15.56 13.38 15.6 13.44 15.63 13.5C15.66 13.57 15.67 13.64 15.67 13.72C15.67 13.79 15.66 13.87 15.63 13.93C15.6 14 15.56 14.06 15.51 14.11C15.46 14.16 15.41 14.2 15.34 14.23C15.27 14.26 15.2 14.27 15.12 14.27H13.63V14.65H14.87ZM12.12 14.8C12.12 15.03 12.08 15.24 11.99 15.43C11.91 15.63 11.79 15.8 11.64 15.95C11.49 16.1 11.32 16.21 11.12 16.3C10.92 16.38 10.71 16.43 10.48 16.43H9.84V16.82C9.84 16.9 9.82 16.97 9.79 17.04C9.77 17.1 9.73 17.16 9.68 17.21C9.63 17.26 9.57 17.3 9.5 17.33C9.43 17.35 9.36 17.37 9.28 17.37C9.21 17.37 9.13 17.35 9.07 17.33C9 17.3 8.94 17.26 8.89 17.21C8.84 17.16 8.8 17.1 8.77 17.04C8.74 16.97 8.73 16.9 8.73 16.82V13.72C8.73 13.64 8.74 13.57 8.77 13.5C8.8 13.44 8.84 13.38 8.89 13.33C8.94 13.28 9 13.24 9.07 13.21C9.13 13.18 9.21 13.17 9.28 13.17H10.48C10.71 13.17 10.92 13.21 11.12 13.29C11.32 13.38 11.49 13.5 11.64 13.64C11.79 13.79 11.91 13.96 11.99 14.16C12.08 14.36 12.12 14.57 12.12 14.8ZM12 3.52C12.44 3.52 12.79 3.88 12.79 4.31C12.79 4.75 12.44 5.1 12 5.1C11.56 5.1 11.21 4.75 11.21 4.31C11.21 3.88 11.56 3.52 12 3.52ZM10.68 6.18C11.05 6.45 11.51 6.6 12 6.6C12.47 6.6 12.91 6.46 13.27 6.22L17.47 10.41H6.45L10.68 6.18Z" fill="black"/>
</svg>
