<svg width="24" height="24" viewBox="0 0 24 24" fill="none" xmlns="http://www.w3.org/2000/svg">
<path d="M10.72 9.81L9.91 20.8C9.9 20.92 9.94 21.04 10.01 21.12C10.09 21.2 10.21 21.25 10.32 21.25H13.67C13.78 21.25 13.9 21.2 13.98 21.12C14.05 21.04 14.09 20.92 14.09 20.8L13.27 9.81" stroke="black" stroke-width="1.5" stroke-linecap="round" stroke-linejoin="round"/>
<path d="M7.67001 8.29C6.59001 8.18 5.52 8.33001 4.64 8.76001C3.33 9.40001 2.66001 10.58 2.76001 12.06C2.77001 12.18 2.82001 12.28 2.90001 12.35C3.00001 12.44 3.14001 12.45 3.20001 12.45C4.37001 12.49 4.95 12.51 5.25001 12.33C5.42001 12.23 5.77 11.99 6.04 11.48C6.24 11.67 6.56001 11.91 6.99001 12C7.53001 12.11 7.70001 11.87 8.87001 11.51C9.71001 11.25 10.51 10.73 11.39 10.73C11.5 10.73 11.6 10.67 11.67 10.59C11.7 10.55 11.74 10.5 11.76 10.45C11.81 10.29 11.77 10.11 11.64 10C10.53 9.03 9.09001 8.44 7.67001 8.29Z" stroke="black" stroke-width="1.5" stroke-linecap="round" stroke-linejoin="round"/>
<path d="M16.33 8.29C17.41 8.18 18.48 8.33001 19.36 8.76001C20.67 9.40001 21.34 10.58 21.24 12.06C21.23 12.18 21.18 12.28 21.1 12.35C21 12.44 20.86 12.45 20.8 12.45C20.53 12.46 19.78 12.45 18.78 12.4C18.51 12.1 18.23 11.8 17.96 11.5C17.61 11.65 17.25 11.81 16.9 11.96C16.13 11.75 15.52 11.6 15.13 11.51C14.27 11.3 13.49 10.73 12.61 10.73C12.5 10.73 12.4 10.67 12.33 10.59C12.3 10.55 12.26 10.5 12.24 10.45C12.19 10.29 12.23 10.11 12.36 10C13.47 9.03 14.91 8.44 16.33 8.29Z" stroke="black" stroke-width="1.5" stroke-linecap="round" stroke-linejoin="round"/>
<path d="M10.4 5C9.77001 4.11 8.96001 3.41 8.05001 3.03C6.70001 2.46 5.38001 2.74 4.33001 3.79C4.25001 3.87 4.21001 3.98 4.21001 4.08C4.21001 4.22 4.29001 4.32 4.33001 4.37C4.50001 4.58 5.08001 5.17 5.87001 5.94C6.21001 5.95 6.56001 5.95 6.90001 5.96C6.92001 6.24 6.94001 6.52 6.96001 6.79C7.74001 7.29 8.35001 7.71 8.77001 8.01C9.49001 8.52 10.44 8.73 11.02 9.39C11.09 9.47 11.2 9.51 11.31 9.51C11.36 9.51 11.42 9.5 11.47 9.48C11.62 9.41 11.73 9.26 11.73 9.09C11.73 7.64 11.22 6.17 10.4 5Z" stroke="black" stroke-width="1.5" stroke-linecap="round" stroke-linejoin="round"/>
<path d="M13.57 5C14.2 4.11 15.01 3.41 15.92 3.03C17.27 2.46 18.59 2.74 19.64 3.79C19.72 3.87 19.76 3.98 19.76 4.08C19.76 4.22 19.68 4.32 19.64 4.37C19.47 4.58 18.89 5.17 18.1 5.94C17.76 5.95 17.41 5.95 17.07 5.96C17.05 6.24 17.03 6.52 17.01 6.79C16.23 7.29 15.62 7.71 15.2 8.01C14.48 8.52 13.53 8.73 12.95 9.39C12.88 9.47 12.77 9.51 12.66 9.51C12.61 9.51 12.55 9.5 12.5 9.48C12.35 9.41 12.24 9.26 12.24 9.09C12.24 7.64 12.75 6.17 13.57 5Z" stroke="black" stroke-width="1.5" stroke-linecap="round" stroke-linejoin="round"/>
<path d="M10.97 18.17H13.03" stroke="black" stroke-width="1.5" stroke-linecap="round" stroke-linejoin="round"/>
<path d="M10.97 14.06H13.03" stroke="black" stroke-width="1.5" stroke-linecap="round" stroke-linejoin="round"/>
</svg>
