<svg width="24" height="24" viewBox="0 0 24 24" fill="none" xmlns="http://www.w3.org/2000/svg">
<path d="M21.47 2.54C20.95 2.03 20.2 1.86 19.52 2.12L3.20997 8.06C2.50997 8.32 2.03997 8.94 1.98997 9.68C1.92997 10.42 2.3 11.1 2.95 11.46L7.90999 14.17C8.20999 14.33 8.56998 14.28 8.80998 14.04L9.62999 13.24L14.65 8.32C14.95 8.04 15.42 8.04 15.71 8.34C16 8.63 16 9.11 15.7 9.4L10.62 14.37L9.93999 15.04C9.68999 15.28 9.63998 15.66 9.80998 15.96L12.75 21.1C13.1 21.67 13.69 22 14.34 22C14.41 22 14.47 22 14.54 21.99C15.26 21.92 15.86 21.44 16.11 20.76L21.92 4.5C22.16 3.81 21.99 3.06 21.47 2.54Z" fill="black"/>
</svg>
