<svg width="24" height="24" viewBox="0 0 24 24" fill="none" xmlns="http://www.w3.org/2000/svg">
<path d="M12.01 21.25V11.75L21.25 7.24999V12.38V16.25L12.01 21.25Z" stroke="black" stroke-width="1.5" stroke-linecap="round" stroke-linejoin="round"/>
<path d="M11.99 21.25V11.75L2.75 7.24999V12.38V16.25L11.99 21.25Z" stroke="black" stroke-width="1.5" stroke-linecap="round" stroke-linejoin="round"/>
<path d="M2.75 7.24999L11.99 11.75L15.59 9.99999L17.09 9.26999L21.25 7.23999L12.01 2.73999L8.07 4.64999L6.5 5.41L2.75 7.24999Z" stroke="black" stroke-width="1.5" stroke-linecap="round" stroke-linejoin="round"/>
<path d="M9.1 4.16C12.19 5.74 15.09 7.16999 18.18 8.74999C18.18 8.74999 18.18 13.02 18.18 13.05C17.81 12.99 17.43 12.92 17.06 12.86L15.47 14.52C15.47 13.04 15.47 11.55 15.47 10.07C12.49 8.58999 9.59 6.97 6.61 5.48" stroke="black" stroke-width="1.5" stroke-linecap="round" stroke-linejoin="round"/>
</svg>
