<svg width="24" height="24" viewBox="0 0 24 24" fill="none" xmlns="http://www.w3.org/2000/svg">
<path d="M3.5 8.6L2 7.88V16.4C2 16.67 2.15 16.92 2.39 17.06L11.25 21.85V12.37V12.36L7.1 10.35L3.5 8.6Z" fill="black"/>
<path d="M10.93 8.01C10.38 7.72 9.82001 7.43 9.27001 7.14L8.10001 6.53C7.80001 6.38 7.49001 6.22 7.19001 6.07C6.87001 5.9 6.55001 5.74 6.25001 5.59C6.22001 5.57 6.21001 5.55 6.19001 5.54L5.54001 5.2L2.73001 6.57L2.99001 6.69L10.04 10.11L12 11.06L14.47 9.86C13.33 9.27 12.13 8.64 10.93 8.01Z" fill="black"/>
<path d="M14.66 5.59C16.12 6.33 17.58 7.05 18.87 7.71L18.88 7.72L20.97 6.71L21.26 6.56L12.34 2.22C12.13 2.12 11.89 2.12 11.68 2.22L9.79999 3.13L11.49 3.98001L14.66 5.59Z" fill="black"/>
<path d="M21.58 8.07L20.5 8.6L19.51 9.08V12.8C19.51 13.02 19.41 13.23 19.24 13.37C19.07 13.51 18.85 13.57 18.63 13.54L17.87 13.4C17.28 14.11 16.37 15.01 16.05 15.01C15.63 15.01 15.3 14.68 15.3 14.26V11.13L12.75 12.36V12.37V20.14V21.85L21.61 17.06C21.85 16.92 22 16.67 22 16.4V7.87L21.58 8.07Z" fill="black"/>
</svg>
