<svg width="24" height="24" viewBox="0 0 24 24" fill="none" xmlns="http://www.w3.org/2000/svg">
<path d="M9.29001 8.17L9.82001 4.53L10.04 3.03H4.81C4.5 3.03 4.21999 3.22 4.10999 3.5L2.23999 8.17H3.85999H9.29001Z" fill="black"/>
<path d="M14.71 8.17H20.14H21.76L19.89 3.5C19.78 3.22 19.5 3.03 19.19 3.03H13.96L14.18 4.53L14.71 8.17Z" fill="black"/>
<path d="M20.5 9.67H14.81V14.06C14.81 14.33 14.66 14.59 14.42 14.72C14.31 14.78 14.18 14.81 14.06 14.81C13.92 14.81 13.78 14.77 13.66 14.7L12 13.65L10.34 14.69C10.11 14.83 9.81999 14.84 9.57999 14.71C9.33999 14.58 9.19 14.32 9.19 14.05V9.66H3.5H2V20.22C2 20.63 2.34 20.97 2.75 20.97H21.25C21.66 20.97 22 20.63 22 20.22V9.67H20.5Z" fill="black"/>
</svg>
