<svg width="24" height="24" viewBox="0 0 24 24" fill="none" xmlns="http://www.w3.org/2000/svg">
<path d="M19.19 7.14H4.81C3.26 7.14 2 8.4 2 9.94V14.06C2 15.6 3.26 16.86 4.81 16.86H19.19C20.74 16.86 22 15.6 22 14.06V9.94C22 8.4 20.74 7.14 19.19 7.14ZM6.86 13.26C6.16 13.26 5.6 12.7 5.6 12C5.6 11.3 6.16 10.74 6.86 10.74C7.56 10.74 8.13 11.3 8.13 12C8.13 12.7 7.56 13.26 6.86 13.26ZM12 13.26C11.3 13.26 10.74 12.7 10.74 12C10.74 11.3 11.3 10.74 12 10.74C12.7 10.74 13.26 11.3 13.26 12C13.26 12.7 12.7 13.26 12 13.26ZM17.14 13.26C16.44 13.26 15.88 12.7 15.88 12C15.88 11.3 16.44 10.74 17.14 10.74C17.84 10.74 18.4 11.3 18.4 12C18.4 12.7 17.84 13.26 17.14 13.26Z" fill="black"/>
</svg>
