<svg width="24" height="24" viewBox="0 0 24 24" fill="none" xmlns="http://www.w3.org/2000/svg">
<path d="M19.89 10.35C19.89 10.67 19.86 10.99 19.78 11.31C19.17 14.74 17.53 16.63 15.17 16.63H13.16L12.22 20.38C12.09 20.89 11.62 21.25 11.1 21.25H8.78C8.71 21.25 8.64 21.24 8.56 21.23" stroke="black" stroke-width="1.5" stroke-linecap="round" stroke-linejoin="round"/>
<path d="M18.34 7.17C18.33 7.24 18.32 7.31 18.31 7.39C18.3 7.53 18.27 7.69 18.24 7.84C17.41 11.62 15.6 13.54 12.85 13.54H9.67998L8.58999 18.63C8.55999 18.8 8.38999 18.94 8.21999 18.94H5.26C5.2 18.94 5.13999 18.94 5.08999 18.93C4.44999 18.84 4.01998 18.24 4.10998 17.61L6.08999 4.38C6.21999 3.43 7.04999 2.75 7.99999 2.75H14.38C15.53 2.76 16.62 3.26 17.38 4.13C18.13 4.97 18.47 6.07 18.34 7.17Z" stroke="black" stroke-width="1.5" stroke-linecap="round" stroke-linejoin="round"/>
</svg>
