<svg width="24" height="24" viewBox="0 0 24 24" fill="none" xmlns="http://www.w3.org/2000/svg">
<path d="M9.33 18.79L10.3 14.29H12.85C15.01 14.29 17.83 13.2 18.98 7.99C19.01 7.8 19.05 7.61 19.06 7.49L19.09 7.27C19.09 7.26 19.09 7.26 19.09 7.25C19.24 5.95 18.83 4.63 17.96 3.63C17.06 2.61 15.76 2.01 14.4 2H8.01002C6.68002 2 5.53999 2.98 5.35999 4.27L3.38001 17.5C3.30001 18 3.43002 18.51 3.73002 18.91C4.03002 19.33 4.48002 19.6 4.95002 19.66C5.04002 19.68 5.16 19.69 5.27 19.69H8.23002C8.77002 19.69 9.24 19.29 9.33 18.79Z" fill="black"/>
<path d="M19.89 9.60001C19.48 9.60001 19.14 9.93001 19.14 10.35C19.14 10.63 19.12 10.88 19.04 11.17C18.73 12.93 17.82 15.88 15.17 15.88H13.15C12.81 15.88 12.51 16.11 12.42 16.44L11.49 20.19C11.44 20.37 11.28 20.5 11.1 20.5H8.76998C8.73998 20.5 8.7 20.49 8.66 20.49C8.25 20.43 7.88 20.71 7.82 21.12C7.76 21.53 8.04998 21.91 8.45998 21.97C8.55998 21.99 8.66998 22 8.76998 22H11.1C11.96 22 12.72 21.41 12.95 20.56L13.74 17.38H15.17C17.9 17.38 19.85 15.21 20.51 11.49C20.6 11.13 20.64 10.76 20.64 10.35C20.64 9.93001 20.31 9.60001 19.89 9.60001Z" fill="black"/>
</svg>
