<svg width="24" height="24" viewBox="0 0 24 24" fill="none" xmlns="http://www.w3.org/2000/svg">
<path d="M13.93 10.83H17.41C17.6089 10.83 17.7997 10.751 17.9403 10.6103C18.081 10.4697 18.16 10.2789 18.16 10.08C18.16 9.88108 18.081 9.69032 17.9403 9.54967C17.7997 9.40901 17.6089 9.33 17.41 9.33H15.74L18.83 6.23C18.9625 6.08782 19.0346 5.89977 19.0312 5.70547C19.0277 5.51117 18.949 5.32579 18.8116 5.18837C18.6742 5.05096 18.4888 4.97225 18.2945 4.96882C18.1002 4.96539 17.9122 5.03752 17.77 5.17L14.68 8.26V6.59C14.68 6.39108 14.601 6.20032 14.4603 6.05967C14.3197 5.91901 14.1289 5.84 13.93 5.84C13.7311 5.84 13.5403 5.91901 13.3997 6.05967C13.259 6.20032 13.18 6.39108 13.18 6.59V10.08C13.18 10.2789 13.259 10.4697 13.3997 10.6103C13.5403 10.751 13.7311 10.83 13.93 10.83Z" fill="black"/>
<path d="M11.51 12.5C15.71 16.7 16.66 11.84 19.33 14.5C22 17.16 23.39 17.59 20.13 20.86C19.72 21.19 17.13 25.14 7.98001 16.01C-1.16999 6.88 2.80001 4.29 3.13001 3.88C6.40001 0.6 6.91001 2.09 9.49001 4.67C12.07 7.25 7.31001 8.3 11.51 12.5Z" fill="black"/>
</svg>
