<svg width="24" height="24" viewBox="0 0 24 24" fill="none" xmlns="http://www.w3.org/2000/svg">
<path d="M18.12 12.81H11.19V5.87C11.19 5.46 10.85 5.12 10.44 5.12C5.79001 5.12 2.01001 8.9 2.01001 13.56C2.01001 18.21 5.79001 22 10.44 22C15.09 22 18.87 18.22 18.87 13.56C18.87 13.15 18.53 12.81 18.12 12.81Z" fill="black"/>
<path d="M19.53 4.47C17.96 2.9 15.79 2 13.57 2C13.16 2 12.82 2.34 12.82 2.75V10.44C12.82 10.85 13.16 11.19 13.57 11.19H21.25C21.66 11.19 22 10.85 22 10.44C22 8.22 21.1 6.04 19.53 4.47Z" fill="black"/>
</svg>
