<svg width="24" height="24" viewBox="0 0 24 24" fill="none" xmlns="http://www.w3.org/2000/svg">
<path d="M11.57 5.99001C12.4647 5.99001 13.19 5.2647 13.19 4.37C13.19 3.47529 12.4647 2.75 11.57 2.75C10.6753 2.75 9.95001 3.47529 9.95001 4.37C9.95001 5.2647 10.6753 5.99001 11.57 5.99001Z" stroke="black" stroke-width="1.5" stroke-linecap="round" stroke-linejoin="round"/>
<path d="M4.14003 12.08C4.56003 11.39 5.13002 10.8 5.85002 10.36C6.62002 9.89 7.50001 9.63001 8.40001 9.49001C9.86001 9.28001 11.33 9.33 12.8 9.39C12.87 9.39 12.93 9.4 13 9.4C13.38 9.45 13.69 9.37 14.03 9.14C15.03 8.48 16.17 8.24001 17.39 8.30001C17.66 8.31001 17.83 8.4 17.91 8.54C18 8.72 17.89 8.94001 17.84 9.05001C17.64 9.47001 17.4 10.05 17.1 10.84C17.25 11.05 17.46 11.33 17.73 11.65C17.83 11.77 18.22 12.23 18.56 12.54C18.88 12.83 19.52 13.33 20.63 13.69C20.62 14.65 20.61 15.6 20.6 16.56C20.35 16.62 19.98 16.74 19.59 16.98C18.81 17.47 18.66 18.04 18.06 18.56C17.72 18.86 17.15 19.21 16.22 19.35C16.05 19.54 15.83 19.82 15.65 20.19C15.46 20.6 15.38 20.96 15.34 21.22C14.46 21.22 13.59 21.22 12.71 21.22C12.63 21.08 12.55 20.93 12.47 20.77C12.4 20.63 12.33 20.49 12.28 20.35C11.26 20.35 10.24 20.35 9.22002 20.35C9.16002 20.46 9.10001 20.58 9.03001 20.71C8.94001 20.89 8.87001 21.07 8.81001 21.23C7.93001 21.22 7.06001 21.22 6.18001 21.21C6.13001 21.14 6.05003 21.03 5.98003 20.88C5.77003 20.46 5.81001 20.13 5.71001 19.87C5.56001 19.5 5.39002 19.13 5.13002 18.82C4.17002 17.66 3.38 16.32 3.36 14.83C3.35 13.9 3.63003 12.92 4.14003 12.08Z" stroke="black" stroke-width="1.5" stroke-linecap="round" stroke-linejoin="round"/>
<path d="M9.92999 12.49H13.22" stroke="black" stroke-width="1.5" stroke-linecap="round" stroke-linejoin="round"/>
<path d="M15.98 13.84C16.4329 13.84 16.8 13.4773 16.8 13.03C16.8 12.5826 16.4329 12.22 15.98 12.22C15.5271 12.22 15.16 12.5826 15.16 13.03C15.16 13.4773 15.5271 13.84 15.98 13.84Z" fill="black"/>
</svg>
