<svg width="24" height="24" viewBox="0 0 24 24" fill="none" xmlns="http://www.w3.org/2000/svg">
<path d="M12 3.23999C9.11 3.23999 6.75 5.58999 6.75 8.48999C6.75 11.13 8.71 13.3 11.25 13.66V20.01C11.25 20.42 11.59 20.76 12 20.76C12.41 20.76 12.75 20.42 12.75 20.01V13.66C15.29 13.3 17.25 11.13 17.25 8.48999C17.25 5.58999 14.9 3.23999 12 3.23999ZM13.5 9.23999C13.09 9.23999 12.75 8.89999 12.75 8.48999C12.75 8.14999 12.53 7.85999 12.2 7.76999C11.8 7.64999 11.57 7.24 11.69 6.84C11.8 6.44 12.21 6.21001 12.61 6.32001C13.58 6.59001 14.25 7.48999 14.25 8.48999C14.25 8.89999 13.91 9.23999 13.5 9.23999Z" fill="black"/>
</svg>
