<svg width="24" height="24" viewBox="0 0 24 24" fill="none" xmlns="http://www.w3.org/2000/svg">
<path d="M12 2C6.49 2 2 6.49 2 12C2 17.51 6.49 22 12 22C17.51 22 22 17.51 22 12C22 6.49 17.51 2 12 2ZM10.48 20.98C10.39 21.31 10.09 21.53 9.76001 21.53C9.69001 21.53 9.63 21.53 9.56 21.51C9.16 21.4 8.92 20.99 9.03 20.59L9.17999 20.02L11.28 12.14C11.38 11.75 11.79 11.5 12.19 11.61C12.59 11.72 12.83 12.13 12.73 12.53L11.96 15.44C12.04 15.44 12.13 15.47 12.21 15.5C12.47 15.61 12.73 15.67 12.99 15.67H13.03C14.35 15.67 15.8 14.24 16.09 12.65C16.21 11.94 16.12 11.28 15.82 10.69C15.12 9.31 13.47 8.69 12.24 8.69C10.8 8.69 9.63 9.14 8.87 9.98C8.25 10.66 7.95999 11.39 8.01999 12.16C8.07999 13.01 8.56 13.63 8.84 13.92C9.12 14.22 9.11 14.69 8.81 14.98C8.51 15.27 8.04 15.26 7.75 14.96C7.33 14.52 6.61999 13.59 6.51999 12.26C6.45999 11.45 6.63 10.22 7.75 8.97C8.79 7.82 10.39 7.19 12.24 7.19C13.97 7.19 16.16 8.06 17.16 10C17.47 10.61 17.79 11.61 17.56 12.91C17.2 14.99 15.29 17.17 13.03 17.17H12.95C12.5 17.16 12.05 17.06 11.61 16.87C11.6 16.86 11.59 16.86 11.58 16.85L10.64 20.39L10.48 20.98Z" fill="black"/>
</svg>
