<svg width="24" height="24" viewBox="0 0 24 24" fill="none" xmlns="http://www.w3.org/2000/svg">
<path d="M12 21.25C17.1086 21.25 21.25 17.1086 21.25 12C21.25 6.89137 17.1086 2.75 12 2.75C6.89137 2.75 2.75 6.89137 2.75 12C2.75 17.1086 6.89137 21.25 12 21.25Z" stroke="black" stroke-width="1.5" stroke-linecap="round" stroke-linejoin="round"/>
<path d="M8.29 14.44C8.04 14.18 7.34998 13.39 7.26998 12.21C7.16998 10.75 8.05999 9.75 8.30999 9.48C9.13999 8.56 10.46 7.94 12.24 7.94C13.77 7.94 15.66 8.72 16.49 10.34C17.05 11.44 16.88 12.46 16.83 12.78C16.5 14.66 14.75 16.46 12.97 16.42C12.51 16.41 12.14 16.28 11.91 16.18" stroke="black" stroke-width="1.5" stroke-linecap="round" stroke-linejoin="round"/>
<path d="M12 12.34L9.76001 20.78" stroke="black" stroke-width="1.5" stroke-linecap="round" stroke-linejoin="round"/>
</svg>
