<svg width="24" height="24" viewBox="0 0 24 24" fill="none" xmlns="http://www.w3.org/2000/svg">
<path d="M21.96 14.96C21.43 11.66 19.94 8.7 17.64 6.41C15.33 4.09 12.38 2.58 9.10003 2.05C7.48003 1.78 5.91002 2.83 5.52002 4.43L4.10003 10.16C4.10003 10.16 4.10002 10.16 4.09002 10.17C4.08002 10.21 4.06002 10.25 4.05002 10.29L3.81002 11.28L3.29001 13.37L3.05002 14.37C3.05002 14.39 3.04001 14.42 3.04001 14.44L2.10003 18.22C1.84003 19.28 2.13001 20.37 2.90001 21.13C3.47001 21.7 4.24002 22 5.02002 22C5.27002 22 5.51002 21.97 5.77002 21.92L19.57 18.57C21.17 18.17 22.22 16.59 21.96 14.96ZM6.33002 14.01C5.98002 14.36 5.50001 14.56 5.01001 14.56C4.86001 14.56 4.71003 14.54 4.57003 14.5L4.73002 13.84H4.74003L5.29001 11.58V11.57L5.46003 10.91C5.78003 10.98 6.08002 11.13 6.33002 11.37C7.06002 12.1 7.06002 13.28 6.33002 14.01ZM9.90001 19.37L7.86002 19.86L7.10003 20.05C6.72003 19.35 6.83002 18.46 7.41002 17.87C8.11002 17.16 9.35002 17.16 10.06 17.87C10.42 18.23 10.6 18.72 10.59 19.2L9.90001 19.37ZM13.12 14.34C12.76 14.69 12.29 14.89 11.79 14.89C11.3 14.89 10.83 14.69 10.47 14.34C9.76002 13.61 9.76002 12.43 10.47 11.71C11.18 11 12.41 11 13.12 11.71C13.83 12.43 13.83 13.61 13.12 14.34ZM19.2 17.11L18.99 17.16V17.13C18.79 14.05 17.45 11.11 15.2 8.86C12.94 6.58 10 5.23 6.92002 5.04L6.98002 4.78C7.16002 4.03 7.85002 3.51 8.59002 3.51C8.68002 3.51 8.76003 3.51 8.85003 3.53C11.81 4.01 14.48 5.37 16.56 7.47C18.62 9.53 19.97 12.21 20.46 15.2C20.61 16.05 20.04 16.9 19.2 17.11Z" fill="black"/>
</svg>
