<svg width="24" height="24" viewBox="0 0 24 24" fill="none" xmlns="http://www.w3.org/2000/svg">
<path d="M18.25 2H5.75C3.68 2 2 3.69 2 5.75V18.25C2 20.32 3.68 22 5.75 22H18.25C20.32 22 22 20.32 22 18.25V5.75C22 3.69 20.32 2 18.25 2ZM4.78 17.01C4.78 16.32 5.33 15.76 6.02 15.76C6.7 15.76 7.25 16.32 7.25 17.01C7.25 17.7 6.7 18.27 6.02 18.27C5.33 18.27 4.78 17.7 4.78 17.01ZM7.25 6.99C7.25 7.68 6.7 8.24 6.02 8.24C5.33 8.24 4.78 7.68 4.78 6.99C4.78 6.3 5.33 5.73 6.02 5.73C6.7 5.73 7.25 6.3 7.25 6.99ZM7.25 12C7.25 12.69 6.7 13.25 6.02 13.25C5.33 13.25 4.78 12.69 4.78 12C4.78 11.31 5.33 10.75 6.02 10.75C6.7 10.75 7.25 11.31 7.25 12ZM9.06 17.01C9.06 16.6 9.39 16.26 9.81 16.26H18.47C18.88 16.26 19.22 16.6 19.22 17.01C19.22 17.43 18.88 17.76 18.47 17.76H9.81C9.39 17.76 9.06 17.43 9.06 17.01ZM9.06 12C9.06 11.59 9.39 11.25 9.81 11.25H18.47C18.88 11.25 19.22 11.59 19.22 12C19.22 12.41 18.88 12.75 18.47 12.75H9.81C9.39 12.75 9.06 12.41 9.06 12ZM18.47 7.74H9.81C9.39 7.74 9.06 7.4 9.06 6.99C9.06 6.57 9.39 6.24 9.81 6.24H18.47C18.88 6.24 19.22 6.57 19.22 6.99C19.22 7.4 18.88 7.74 18.47 7.74Z" fill="black"/>
</svg>
