<svg width="24" height="24" viewBox="0 0 24 24" fill="none" xmlns="http://www.w3.org/2000/svg">
<path d="M11.77 9.41999L6.35001 6.46999C5.43001 5.96999 4.34 5.99999 3.44 6.52999C2.54 7.06999 2 8.00999 2 9.05999V14.95C2 15.99 2.54 16.94 3.44 17.48C3.91 17.75 4.42 17.89 4.94 17.89C5.42 17.89 5.90001 17.77 6.35001 17.53L11.77 14.59C12.74 14.07 13.31 13.1 13.31 12C13.31 10.91 12.74 9.93999 11.77 9.41999Z" fill="black"/>
<path d="M19.01 5.09C17.36 5.09 16.02 6.43 16.02 8.08V15.93C16.02 17.58 17.36 18.92 19.01 18.92C20.66 18.92 22 17.58 22 15.93V8.08C22 6.43 20.66 5.09 19.01 5.09Z" fill="black"/>
</svg>
