<svg width="24" height="24" viewBox="0 0 24 24" fill="none" xmlns="http://www.w3.org/2000/svg">
<path d="M12.01 12.19C12.9765 12.19 13.76 11.4065 13.76 10.44C13.76 9.4735 12.9765 8.69 12.01 8.69C11.0435 8.69 10.26 9.4735 10.26 10.44C10.26 11.4065 11.0435 12.19 12.01 12.19Z" fill="black"/>
<path d="M13.09 13.4H10.92C10.41 13.4 9.92997 13.61 9.59997 14C9.26997 14.38 9.11996 14.89 9.18996 15.39L9.64996 18.68C9.76996 19.54 10.52 20.19 11.38 20.19H12.63C13.49 20.19 14.2399 19.54 14.3599 18.68L14.82 15.39C14.89 14.89 14.74 14.38 14.41 14C14.08 13.61 13.6 13.4 13.09 13.4Z" fill="black"/>
<path d="M12.01 5.69C9.39001 5.69 7.26001 7.82 7.26001 10.44C7.26001 11.27 7.48001 12.1 7.89001 12.82C8.10001 13.17 8.56001 13.3 8.92001 13.09C9.28001 12.88 9.4 12.42 9.19 12.06C8.91 11.57 8.76001 11.01 8.76001 10.44C8.76001 8.65 10.21 7.19 12.01 7.19C13.8 7.19 15.26 8.65 15.26 10.44C15.26 11.01 15.1 11.57 14.82 12.06C14.61 12.42 14.73 12.88 15.09 13.09C15.21 13.16 15.34 13.19 15.47 13.19C15.73 13.19 15.98 13.06 16.12 12.82C16.53 12.09 16.76 11.27 16.76 10.44C16.76 7.82 14.62 5.69 12.01 5.69Z" fill="black"/>
<path d="M12.01 2.69C7.73001 2.69 4.26001 6.17 4.26001 10.44C4.26001 12.54 5.07999 14.51 6.57999 15.98C6.86999 16.27 7.35001 16.26 7.64001 15.96C7.93001 15.67 7.92 15.19 7.63 14.9C6.42 13.72 5.76001 12.14 5.76001 10.44C5.76001 6.99 8.56001 4.19 12.01 4.19C15.45 4.19 18.26 6.99 18.26 10.44C18.26 12.13 17.59 13.72 16.38 14.9C16.09 15.19 16.08 15.67 16.37 15.96C16.52 16.11 16.71 16.19 16.91 16.19C17.1 16.19 17.28 16.12 17.43 15.98C18.93 14.51 19.76 12.54 19.76 10.44C19.76 6.17 16.28 2.69 12.01 2.69Z" fill="black"/>
</svg>
