<svg width="24" height="24" viewBox="0 0 24 24" fill="none" xmlns="http://www.w3.org/2000/svg">
<path d="M9.94002 3.5C10.66 3.5 11.25 4.08 11.25 4.8C11.25 5.22 11.59 5.55 12 5.55C12.41 5.55 12.75 5.22 12.75 4.8C12.75 3.26 11.49 2 9.94002 2C8.40002 2 7.14001 3.26 7.14001 4.8V13.03C7.14001 13.44 7.47001 13.78 7.89001 13.78C8.30001 13.78 8.64001 13.44 8.64001 13.03V11.66C8.72001 11.7 8.82001 11.72 8.92001 11.72H14.06C14.15 11.72 14.25 11.7 14.33 11.66V13.03C14.33 13.44 14.67 13.78 15.08 13.78C15.5 13.78 15.83 13.44 15.83 13.03V4.8C15.83 4.08 16.42 3.5 17.14 3.5C17.86 3.5 18.44 4.08 18.44 4.8C18.44 5.22 18.78 5.55 19.19 5.55C19.61 5.55 19.94 5.22 19.94 4.8C19.94 3.26 18.69 2 17.14 2C15.59 2 14.33 3.26 14.33 4.8V7.19C14.25 7.16 14.15 7.14 14.06 7.14H8.92001C8.82001 7.14 8.72001 7.16 8.64001 7.19V4.8C8.64001 4.08 9.22002 3.5 9.94002 3.5ZM8.92001 8.64H14.06C14.15 8.64 14.25 8.62 14.33 8.58V10.28C14.25 10.24 14.15 10.22 14.06 10.22H8.92001C8.82001 10.22 8.72001 10.24 8.64001 10.28V8.58C8.72001 8.62 8.82001 8.64 8.92001 8.64Z" fill="black"/>
<path d="M19.4 20.5C18.76 20.5 18.48 20.25 18.05 19.87C17.54 19.42 16.91 18.85 15.7 18.85C14.49 18.85 13.86 19.41 13.36 19.87C12.93 20.25 12.64 20.5 12 20.5C11.36 20.5 11.08 20.25 10.65 19.87C10.14 19.41 9.51001 18.85 8.30001 18.85C7.09001 18.85 6.46 19.41 5.95 19.87C5.52 20.25 5.24001 20.5 4.60001 20.5C4.19001 20.5 3.85001 20.83 3.85001 21.25C3.85001 21.66 4.19001 22 4.60001 22C5.81001 22 6.44 21.44 6.95 20.99C7.38 20.61 7.66001 20.35 8.30001 20.35C8.94001 20.35 9.23001 20.61 9.66001 20.99C10.16 21.44 10.79 22 12 22C13.21 22 13.85 21.44 14.35 20.99C14.78 20.61 15.06 20.35 15.7 20.35C16.34 20.35 16.62 20.61 17.05 20.99C17.56 21.44 18.19 22 19.4 22C19.81 22 20.15 21.66 20.15 21.25C20.15 20.83 19.81 20.5 19.4 20.5Z" fill="black"/>
<path d="M19.4 17.2C18.76 17.2 18.48 16.95 18.05 16.57C17.54 16.12 16.91 15.56 15.7 15.56C14.49 15.56 13.86 16.12 13.36 16.57C12.93 16.95 12.64 17.2 12 17.2C11.36 17.2 11.08 16.95 10.65 16.57C10.14 16.12 9.51001 15.56 8.30001 15.56C7.09001 15.56 6.46 16.12 5.95 16.57C5.52 16.95 5.24001 17.2 4.60001 17.2C4.19001 17.2 3.85001 17.54 3.85001 17.95C3.85001 18.36 4.19001 18.7 4.60001 18.7C5.81001 18.7 6.44 18.14 6.95 17.69C7.38 17.31 7.66001 17.06 8.30001 17.06C8.94001 17.06 9.23001 17.31 9.66001 17.69C10.16 18.14 10.79 18.7 12 18.7C13.21 18.7 13.85 18.14 14.35 17.69C14.78 17.31 15.06 17.06 15.7 17.06C16.34 17.06 16.62 17.31 17.05 17.69C17.56 18.14 18.19 18.7 19.4 18.7C19.81 18.7 20.15 18.36 20.15 17.95C20.15 17.54 19.81 17.2 19.4 17.2Z" fill="black"/>
</svg>
