<svg width="24" height="24" viewBox="0 0 24 24" fill="none" xmlns="http://www.w3.org/2000/svg">
<path d="M19.4 21.25C17.55 21.25 17.55 19.61 15.7 19.61C13.85 19.61 13.85 21.25 12 21.25C10.15 21.25 10.15 19.61 8.3 19.61C6.45 19.61 6.45 21.25 4.6 21.25" stroke="black" stroke-width="1.5" stroke-linecap="round" stroke-linejoin="round"/>
<path d="M19.4 17.95C17.55 17.95 17.55 16.31 15.7 16.31C13.85 16.31 13.85 17.95 12 17.95C10.15 17.95 10.15 16.31 8.3 16.31C6.45 16.31 6.45 17.95 4.6 17.95" stroke="black" stroke-width="1.5" stroke-linecap="round" stroke-linejoin="round"/>
<path d="M12 4.81C12 3.67 11.08 2.75 9.94 2.75C8.8 2.75 7.88 3.67 7.88 4.81V13.03" stroke="black" stroke-width="1.5" stroke-linecap="round" stroke-linejoin="round"/>
<path d="M19.19 4.81C19.19 3.67 18.27 2.75 17.13 2.75C15.99 2.75 15.07 3.67 15.07 4.81V13.03" stroke="black" stroke-width="1.5" stroke-linecap="round" stroke-linejoin="round"/>
<path d="M8.5 7.89H15" stroke="black" stroke-width="1.5" stroke-linecap="round" stroke-linejoin="round"/>
<path d="M8 10.97H15" stroke="black" stroke-width="1.5" stroke-linecap="round" stroke-linejoin="round"/>
</svg>
