<svg width="24" height="24" viewBox="0 0 24 24" fill="none" xmlns="http://www.w3.org/2000/svg">
<path d="M15 9.53C15 9.06 14.79 8.61 14.41 8.27C14.03 7.94 13.53 7.75 13 7.75C12.47 7.75 11.96 7.94 11.59 8.27C11.21 8.6 11 9.06 11 9.53V13.97C11 14.44 10.79 14.89 10.41 15.23C10.03 15.56 9.53 15.75 9 15.75H15" stroke="black" stroke-width="1.5" stroke-linecap="round" stroke-linejoin="round"/>
<path d="M9 12.2H13" stroke="black" stroke-width="1.5" stroke-linecap="round" stroke-linejoin="round"/>
<path d="M21 12C21 13.18 20.77 14.35 20.31 15.44C19.86 16.53 19.19 17.52 18.36 18.36C17.52 19.2 16.53 19.86 15.44 20.31C14.35 20.76 13.18 21 12 21C10.82 21 9.65 20.77 8.56 20.31C7.47 19.86 6.48 19.19 5.64 18.36C4.8 17.52 4.14 16.53 3.69 15.44C3.23 14.35 3 13.18 3 12C3 9.61 3.95 7.32 5.64 5.64C7.33 3.96 9.61 3 12 3C14.39 3 16.68 3.95 18.36 5.64C20.05 7.32 21 9.61 21 12Z" stroke="black" stroke-width="1.5" stroke-linecap="round" stroke-linejoin="round"/>
</svg>
