<svg width="24" height="24" viewBox="0 0 24 24" fill="none" xmlns="http://www.w3.org/2000/svg">
<path d="M8.19 20.6L3.39001 15.8C2.51001 14.92 2.53 13.46 3.44 12.55L12.55 3.44001C13.05 2.94001 13.75 2.69001 14.44 2.75001L18.82 3.17C19.89 3.27 20.72 4.1 20.82 5.17L21.24 9.55001C21.31 10.24 21.05 10.94 20.55 11.44L11.44 20.55C10.53 21.46 9.08 21.49 8.19 20.6Z" stroke="black" stroke-width="1.5" stroke-linecap="round" stroke-linejoin="round"/>
<path d="M17.52 6.48001C17.01 5.97001 16.17 5.97001 15.66 6.48001C15.15 6.99001 15.15 7.83 15.66 8.34C15.92 8.6 16.25 8.72001 16.59 8.72001C16.93 8.72001 17.26 8.59 17.52 8.34C18.03 7.83 18.03 7.00001 17.52 6.48001Z" fill="black"/>
</svg>
