<svg width="24" height="24" viewBox="0 0 24 24" fill="none" xmlns="http://www.w3.org/2000/svg">
<path d="M16.11 2.75H7.89001C7.32001 2.75 6.85999 3.21 6.85999 3.78V7.89H17.14V3.78C17.14 3.21 16.68 2.75 16.11 2.75Z" stroke="black" stroke-width="1.5" stroke-linecap="round" stroke-linejoin="round"/>
<path d="M3.5 10.22C3.5 9.34421 4.20421 8.64 5.07999 8.64H18.92C19.7958 8.64 20.5 9.34421 20.5 10.22V14.81C20.5 15.6858 19.7958 16.39 18.92 16.39H17.14V17.89H18.92C20.6242 17.89 22 16.5142 22 14.81V10.22C22 8.51579 20.6242 7.14 18.92 7.14H5.07999C3.37577 7.14 2 8.51579 2 10.22V14.81C2 16.5142 3.37577 17.89 5.07999 17.89H6.85999V16.39H5.07999C4.20421 16.39 3.5 15.6858 3.5 14.81V10.22Z" fill="black"/>
<path d="M17.14 12H6.85999V19.87C6.85999 20.63 7.47999 21.25 8.23999 21.25H15.76C16.52 21.25 17.14 20.63 17.14 19.87V12Z" stroke="black" stroke-width="1.5" stroke-linecap="round" stroke-linejoin="round"/>
<path d="M9.94 18.17H10.97" stroke="black" stroke-width="1.5" stroke-linecap="round" stroke-linejoin="round"/>
<path d="M9.94 15.08H14.06" stroke="black" stroke-width="1.5" stroke-linecap="round" stroke-linejoin="round"/>
</svg>
