<svg width="24" height="24" viewBox="0 0 24 24" fill="none" xmlns="http://www.w3.org/2000/svg">
<path d="M4.81 4.81H19.19" stroke="black" stroke-width="1.5" stroke-linecap="round" stroke-linejoin="round"/>
<path d="M18.17 10.97H5.83C4.12896 10.97 2.75 12.349 2.75 14.05V16.11C2.75 17.811 4.12896 19.19 5.83 19.19H18.17C19.871 19.19 21.25 17.811 21.25 16.11V14.05C21.25 12.349 19.871 10.97 18.17 10.97Z" stroke="black" stroke-width="1.5" stroke-linecap="round" stroke-linejoin="round"/>
<path d="M16.53 16.72C17.4357 16.72 18.17 15.9857 18.17 15.08C18.17 14.1743 17.4357 13.44 16.53 13.44C15.6243 13.44 14.89 14.1743 14.89 15.08C14.89 15.9857 15.6243 16.72 16.53 16.72Z" stroke="black" stroke-width="1.5" stroke-linecap="round" stroke-linejoin="round"/>
<path d="M2.97 13.54H6.86" stroke="black" stroke-width="1.5" stroke-linecap="round" stroke-linejoin="round"/>
<path d="M2.97 16.62H6.86" stroke="black" stroke-width="1.5" stroke-linecap="round" stroke-linejoin="round"/>
<path d="M12 4.81V10.69" stroke="black" stroke-width="1.5" stroke-linecap="round" stroke-linejoin="round"/>
</svg>
