<svg width="24" height="24" viewBox="0 0 24 24" fill="none" xmlns="http://www.w3.org/2000/svg">
<path d="M20.25 11.25H18.13C17.71 11.25 17.38 11.59 17.38 12C17.38 12.42 17.04 12.75 16.63 12.75C16.21 12.75 15.87 12.42 15.87 12C15.87 11.59 15.54 11.25 15.12 11.25H13C12.91 11.25 12.81 11.26 12.72 11.28C12.74 11.19 12.75 11.09 12.75 11V9.5C13.62 9.19 14.25 8.35001 14.25 7.38C14.25 6.4 13.62 5.56 12.75 5.25V3.75C12.75 2.79 11.97 2 11 2H3.75C2.77 2 2 2.77 2 3.75V11C2 11.37 2.12001 11.72 2.32001 12C2.12001 12.28 2 12.63 2 13V20.25C2 21.23 2.77 22 3.75 22H11C11.37 22 11.72 21.88 12 21.68C12.28 21.88 12.63 22 13 22H20.25C21.23 22 22 21.23 22 20.25V13C22 12.04 21.22 11.25 20.25 11.25ZM11.25 20.25C11.25 20.39 11.14 20.5 11 20.5H3.75C3.61 20.5 3.5 20.39 3.5 20.25V13C3.5 12.86 3.61 12.75 3.75 12.75H5.87C6.29 12.75 6.62 12.41 6.62 12C6.62 11.58 6.96 11.25 7.38 11.25C7.79 11.25 8.13 11.58 8.13 12C8.13 12.41 8.46 12.75 8.88 12.75H11C11.14 12.75 11.25 12.87 11.25 13V14.5C10.38 14.81 9.75 15.65 9.75 16.62C9.75 17.6 10.38 18.44 11.25 18.75V20.25Z" fill="black"/>
</svg>
