<svg width="24" height="24" viewBox="0 0 24 24" fill="none" xmlns="http://www.w3.org/2000/svg">
<path d="M18.25 2H5.75C3.68 2 2 3.69 2 5.75V18.25C2 20.32 3.68 22 5.75 22H18.25C20.32 22 22 20.32 22 18.25V5.75C22 3.69 20.32 2 18.25 2ZM4.45 18.11C4.45 17.7 4.78 17.36 5.2 17.36H18.8C19.22 17.36 19.55 17.7 19.55 18.11C19.55 18.52 19.22 18.86 18.8 18.86H5.2C4.78 18.86 4.45 18.52 4.45 18.11ZM7.19 5.89C7.54 6.1 7.75999 6.48 7.75999 6.89C7.75999 7.3 7.54 7.68 7.19 7.89L6.21001 8.48C6.02001 8.59 5.82 8.64 5.61 8.64C5.41 8.64 5.20999 8.59 5.03999 8.49C4.66999 8.28 4.45 7.89 4.45 7.48V6.31C4.45 5.89 4.66999 5.5 5.03999 5.29C5.39999 5.09 5.85001 5.09 6.21001 5.31L7.19 5.89ZM18.8 11.75C19.22 11.75 19.55 12.09 19.55 12.5C19.55 12.91 19.22 13.25 18.8 13.25H5.2C4.78 13.25 4.45 12.91 4.45 12.5C4.45 12.09 4.78 11.75 5.2 11.75H18.8ZM18.8 7.64H10.8C10.39 7.64 10.05 7.31 10.05 6.89C10.05 6.48 10.39 6.14 10.8 6.14H18.8C19.22 6.14 19.55 6.48 19.55 6.89C19.55 7.31 19.22 7.64 18.8 7.64Z" fill="black"/>
</svg>
