<svg width="24" height="24" viewBox="0 0 24 24" fill="none" xmlns="http://www.w3.org/2000/svg">
<path d="M17.59 7.53H6.39999C4.37999 7.53 2.73999 9.17 2.73999 11.19V16.88C2.73999 18.9 4.37999 20.54 6.39999 20.54H17.59C19.61 20.54 21.25 18.9 21.25 16.88V11.19C21.25 9.17 19.61 7.53 17.59 7.53Z" stroke="black" stroke-width="1.5" stroke-linecap="round" stroke-linejoin="round"/>
<path d="M7.89001 16.09C9.02772 16.09 9.95001 15.1677 9.95001 14.03C9.95001 12.8923 9.02772 11.97 7.89001 11.97C6.75231 11.97 5.82999 12.8923 5.82999 14.03C5.82999 15.1677 6.75231 16.09 7.89001 16.09Z" stroke="black" stroke-width="1.5" stroke-linecap="round" stroke-linejoin="round"/>
<path d="M13.03 11.97H18.17" stroke="black" stroke-width="1.5" stroke-linecap="round" stroke-linejoin="round"/>
<path d="M13.03 16.09H18.17" stroke="black" stroke-width="1.5" stroke-linecap="round" stroke-linejoin="round"/>
<path d="M5.82999 7.58L16.11 3.47" stroke="black" stroke-width="1.5" stroke-linecap="round" stroke-linejoin="round"/>
</svg>
