<svg width="24" height="24" viewBox="0 0 24 24" fill="none" xmlns="http://www.w3.org/2000/svg">
<path d="M21.55 9.04C21.5 8.87 21.44 8.71 21.39 8.58C21.28 8.26 21.15 7.95 21.01 7.67C20.74 7.09 20.4 6.54 20.01 6.02C19.91 5.89 19.81 5.77 19.72 5.66C19.52 5.4 19.3 5.16 19.05 4.92C18.97 4.84 18.9 4.77 18.85 4.73C18.29 4.19 17.66 3.72 17 3.34C16.98 3.33 16.95 3.32 16.93 3.31C13.94 1.6 10.06 1.6 7.07001 3.31C7.05001 3.32 7.02 3.33 7 3.34C6.34 3.72 5.70999 4.19 5.17999 4.7C5.09999 4.77 5.03001 4.84 4.95001 4.92C4.70001 5.16 4.48001 5.4 4.29001 5.65C4.19001 5.77 4.08999 5.89 3.98999 6.02C3.83999 6.22 3.68999 6.43 3.57999 6.62C3.52999 6.7 3.47001 6.79 3.42001 6.88C3.41001 6.89 3.40001 6.91 3.39001 6.92C3.24001 7.16 3.10999 7.41 2.98999 7.66C2.84999 7.95 2.72 8.26 2.62 8.56C2.56 8.71 2.49999 8.87 2.45999 9.01C2.37999 9.25 2.31999 9.48 2.26999 9.73C2.25999 9.73 2.26001 9.74 2.26001 9.75C2.23001 9.87 2.20999 9.99 2.17999 10.11L2.16 10.23C2.16 10.25 2.14999 10.27 2.14999 10.29C2.08999 10.6 2.06 10.92 2.03 11.23C2.01 11.49 2 11.75 2 12C2 15.54 3.88999 18.83 6.92999 20.61C6.94999 20.63 6.98 20.65 7 20.66C7.01 20.66 7.00999 20.67 7.01999 20.67C7.18999 20.78 7.38 20.87 7.56 20.96C7.74 21.05 7.91999 21.14 8.10999 21.22C8.12999 21.22 8.15001 21.23 8.17001 21.24C8.36001 21.32 8.56001 21.4 8.73001 21.45C8.95001 21.53 9.16001 21.59 9.45001 21.67C9.63001 21.72 9.80001 21.76 9.98001 21.8C10 21.81 10.02 21.81 10.03 21.81C10.23 21.85 10.43 21.88 10.61 21.9C11.06 21.97 11.53 22 12 22C12.47 22 12.94 21.97 13.37 21.91C13.56 21.88 13.77 21.85 13.96 21.81C13.98 21.81 14 21.81 14.02 21.8C14.2 21.76 14.37 21.72 14.62 21.65C14.84 21.59 15.05 21.53 15.25 21.46C15.44 21.4 15.64 21.32 15.83 21.24C15.85 21.23 15.87 21.22 15.89 21.22C16.08 21.14 16.26 21.05 16.42 20.97C16.62 20.87 16.81 20.78 16.98 20.67C16.99 20.67 16.99 20.66 17 20.66C17.02 20.65 17.05 20.63 17.07 20.61C20.11 18.83 22 15.54 22 12C22 10.98 21.85 9.98 21.55 9.04ZM11.35 13.13C11.18 13.03 11.04 12.9 10.93 12.75C10.89 12.69 10.85 12.62 10.82 12.55C10.73 12.38 10.69 12.2 10.69 12C10.69 11.54 10.94 11.12 11.34 10.87H11.35C11.51 10.78 11.69 10.72 11.88 10.71C11.92 10.7 11.96 10.7 12 10.7C12.04 10.7 12.08 10.7 12.12 10.71C12.31 10.72 12.49 10.78 12.65 10.87H12.66C13.06 11.12 13.31 11.54 13.31 12C13.31 12.2 13.27 12.38 13.18 12.55C13.15 12.62 13.11 12.69 13.07 12.75C12.96 12.9 12.82 13.03 12.66 13.14H12.65C12.31 13.33 11.86 13.36 11.5 13.21C11.45 13.18 11.4 13.16 11.35 13.13ZM15.58 4.3L12.7 9.29C12.24 9.18 11.76 9.18 11.3 9.29L8.42001 4.3C10.64 3.25 13.36 3.25 15.58 4.3ZM3.53 12.75H9.29999C9.41999 13.21 9.65999 13.63 9.98999 13.97L7.12 18.96C5.07 17.52 3.76 15.24 3.53 12.75ZM16.88 18.96L14.01 13.97C14.34 13.63 14.58 13.21 14.7 12.75H20.47C20.24 15.24 18.93 17.52 16.88 18.96Z" fill="black"/>
</svg>
