<svg width="24" height="24" viewBox="0 0 24 24" fill="none" xmlns="http://www.w3.org/2000/svg">
<path d="M17.6 6.78H9.85999L16.39 4.16999C16.78 4.00999 16.97 3.58 16.81 3.19C16.66 2.81 16.22 2.62 15.84 2.77L5.62 6.86C3.57 7.23 2.01001 9.03 2.01001 11.19V16.88C2.01001 19.3 3.98 21.28 6.41 21.28H17.6C20.03 21.28 22.01 19.3 22.01 16.88V11.19C22.01 8.76 20.03 6.78 17.6 6.78ZM7.89001 16.34C6.62001 16.34 5.59 15.3 5.59 14.03C5.59 12.76 6.62001 11.72 7.89001 11.72C9.17001 11.72 10.2 12.76 10.2 14.03C10.2 15.3 9.17001 16.34 7.89001 16.34ZM18.17 16.84H13.03C12.62 16.84 12.28 16.5 12.28 16.09C12.28 15.67 12.62 15.34 13.03 15.34H18.17C18.59 15.34 18.92 15.67 18.92 16.09C18.92 16.5 18.59 16.84 18.17 16.84ZM18.17 12.72H13.03C12.62 12.72 12.28 12.39 12.28 11.97C12.28 11.56 12.62 11.22 13.03 11.22H18.17C18.59 11.22 18.92 11.56 18.92 11.97C18.92 12.39 18.59 12.72 18.17 12.72Z" fill="black"/>
</svg>
