<svg width="24" height="24" viewBox="0 0 24 24" fill="none" xmlns="http://www.w3.org/2000/svg">
<path d="M4.27999 19.69L3.24999 20.72C2.94999 21.01 2.94999 21.49 3.24999 21.78C3.38999 21.93 3.58999 22 3.77999 22C3.96999 22 4.16 21.93 4.31 21.78L5.33999 20.75C5.62999 20.46 5.62999 19.98 5.33999 19.69C5.03999 19.4 4.56999 19.4 4.27999 19.69Z" fill="black"/>
<path d="M8.39002 19.69L7.36002 20.72C7.07002 21.01 7.07002 21.49 7.36002 21.78C7.50002 21.93 7.70002 22 7.89002 22C8.08002 22 8.27001 21.93 8.42001 21.78L9.45002 20.75C9.74002 20.46 9.74002 19.98 9.45002 19.69C9.15002 19.4 8.68002 19.4 8.39002 19.69Z" fill="black"/>
<path d="M12.5 19.69L11.47 20.72C11.18 21.01 11.18 21.49 11.47 21.78C11.62 21.93 11.81 22 12 22C12.19 22 12.38 21.93 12.53 21.78L13.56 20.75C13.85 20.46 13.85 19.98 13.56 19.69C13.27 19.4 12.79 19.4 12.5 19.69Z" fill="black"/>
<path d="M16.61 19.69L15.58 20.72C15.29 21.01 15.29 21.49 15.58 21.78C15.73 21.93 15.92 22 16.11 22C16.3 22 16.5 21.93 16.64 21.78L17.67 20.75C17.96 20.46 17.96 19.98 17.67 19.69C17.38 19.4 16.9 19.4 16.61 19.69Z" fill="black"/>
<path d="M20.12 8.53C19.16 7.72 17.98 7.33 16.81 7.42C16.53 3.79 13.56 1.97 10.78 2C8.05 2.06 5.08 3.9 5 7.8C2.82 8.8 1.61 11.31 2.11 13.76C2.42 15.26 3.38 16.59 4.68 17.3C5.53 17.77 6.35 17.89 6.96 17.89C7.09 17.89 7.21 17.88 7.32 17.88L17.48 17.83C20.06 17.82 22 15.07 22 12.62C22 10.16 20.31 8.68 20.12 8.53Z" fill="black"/>
</svg>
