<svg width="24" height="24" viewBox="0 0 24 24" fill="none" xmlns="http://www.w3.org/2000/svg">
<path d="M18.25 8.32999C18.42 7.21999 18.7 4.29999 16.98 3.31999C15.21 2.32999 12.71 4.20999 11.99 4.80999C11.35 4.28999 9.67999 3.04999 8.13999 3.04999C7.71999 3.04999 7.31 3.13999 6.93 3.36999C5.19 4.40999 5.58999 7.50999 5.74999 8.43999C5.74999 8.43999 5.74999 8.43999 5.74999 8.44999C4.76999 8.82999 1.97 10.08 2 12.12C2.04 14.11 4.81999 15.3 5.74999 15.64V15.67C5.59999 16.58 5.23999 19.62 6.97999 20.65C7.35999 20.87 7.76999 20.96 8.18999 20.96C9.78999 20.96 11.51 19.65 12.04 19.21C12.06 19.23 12.07 19.23 12.08 19.25C12.65 19.71 14.31 20.94 15.85 20.94C16.25 20.94 16.65 20.85 17.02 20.64C18.82 19.62 18.44 16.46 18.29 15.56C18.3 15.55 18.32 15.54 18.34 15.54C19.19 15.21 21.99 13.97 22 11.95C22.01 9.89999 19.15 8.66999 18.25 8.32999ZM6.11999 14.17C4.81999 13.67 3.51 12.8 3.5 12.09C3.49 11.38 4.78999 10.46 6.11999 9.91999C6.28999 10.5 6.52 11.21 6.84 12.01C6.55 12.71 6.31999 13.43 6.11999 14.17ZM15.83 4.53999C15.99 4.53999 16.13 4.56999 16.24 4.62999C16.84 4.96999 16.98 6.50999 16.79 7.90999C16.05 7.71999 15.3 7.55999 14.55 7.45999C14.02 6.79999 13.51 6.25999 13.1 5.84999C13.99 5.12999 15.11 4.53999 15.83 4.53999ZM7.7 4.65999C7.82 4.58999 7.96 4.55999 8.13 4.55999C8.85 4.55999 9.98 5.13999 10.9 5.85999C10.47 6.28999 9.96999 6.83999 9.43999 7.51999C8.54999 7.65999 7.79 7.83999 7.2 7.99999C6.99 6.61999 7.09 5.02999 7.7 4.65999ZM7.75 19.36C7.05 18.94 7.03999 17.21 7.20999 16.06C7.80999 16.21 8.56 16.37 9.45 16.49C9.91 17.08 10.42 17.63 10.95 18.17C9.95 18.95 8.43 19.77 7.75 19.36ZM12 13.54C11.15 13.54 10.46 12.85 10.46 12C10.46 11.15 11.15 10.46 12 10.46C12.85 10.46 13.54 11.15 13.54 12C13.54 12.85 12.85 13.54 12 13.54ZM16.28 19.34C15.64 19.7 14.24 19.03 13.14 18.17C13.69 17.62 14.2 17.05 14.67 16.45C15.39 16.34 16.12 16.18 16.83 15.99C17.01 17.24 16.96 18.95 16.28 19.34ZM17.92 14.08C17.72 13.36 17.49 12.64 17.21 11.95C17.54 11.12 17.76 10.39 17.91 9.80999C19.08 10.28 20.5 11.16 20.5 11.95C20.5 12.67 19.22 13.56 17.92 14.08Z" fill="black"/>
</svg>
