<svg width="24" height="24" viewBox="0 0 24 24" fill="none" xmlns="http://www.w3.org/2000/svg">
<path d="M17.42 15.05C17.58 15.01 17.8 14.94 18.06 14.84C18.39 14.71 21.24 13.58 21.25 11.95C21.26 10.21 18.02 9.05 17.84 8.98C17.64 8.91 17.46 8.86 17.34 8.83C15.97 8.41 14.01 7.99 11.69 8.06C9.34 8.13 7.49 8.69 6.63 8.95C6.38 9.03 6.27 9.06 6.23 9.08C5.17 9.46 2.73 10.62 2.75 12.11C2.78 13.75 5.77 14.86 6.06 14.96C6.21 15.01 6.36 15.06 6.66 15.14C7.68 15.42 9.48 15.91 11.89 15.91C14.18 15.91 16.08 15.47 17.42 15.05Z" stroke="black" stroke-width="1.5" stroke-linecap="round" stroke-linejoin="round"/>
<path d="M12.05 18.21C12.16 18.33 12.33 18.49 12.55 18.66C12.82 18.88 15.22 20.79 16.64 19.99C18.15 19.13 17.55 15.75 17.52 15.56C17.48 15.35 17.44 15.17 17.4 15.05C17.08 13.66 16.47 11.74 15.26 9.76C14.03 7.76 12.63 6.43 11.98 5.81C11.79 5.63 11.7 5.55 11.67 5.53C10.82 4.8 8.58999 3.26 7.30999 4.02C5.90999 4.85 6.42999 8 6.48999 8.31C6.51999 8.46 6.54999 8.62 6.62999 8.92C6.89999 9.94 7.36999 11.75 8.55999 13.84C9.69999 15.82 11.02 17.26 12.05 18.21Z" stroke="black" stroke-width="1.5" stroke-linecap="round" stroke-linejoin="round"/>
<path d="M6.63001 15.13C6.59001 15.29 6.53 15.51 6.48 15.79C6.42 16.14 5.96 19.17 7.36 20C8.85 20.89 11.5 18.69 11.64 18.57C11.8 18.43 11.94 18.3 12.03 18.21C13.08 17.24 14.44 15.76 15.56 13.73C16.69 11.67 17.15 9.79 17.36 8.92C17.42 8.67 17.44 8.55 17.45 8.51C17.66 7.4 17.9 4.71 16.6 3.98C15.18 3.18 12.7 5.19 12.46 5.39C12.34 5.49 12.22 5.6 12 5.81C11.24 6.55 9.91 7.86 8.68 9.93C7.53 11.9 6.95001 13.76 6.63001 15.13Z" stroke="black" stroke-width="1.5" stroke-linecap="round" stroke-linejoin="round"/>
<path d="M12 13.54C12.8505 13.54 13.54 12.8505 13.54 12C13.54 11.1495 12.8505 10.46 12 10.46C11.1495 10.46 10.46 11.1495 10.46 12C10.46 12.8505 11.1495 13.54 12 13.54Z" fill="black"/>
</svg>
