<svg width="24" height="24" viewBox="0 0 24 24" fill="none" xmlns="http://www.w3.org/2000/svg">
<path d="M6.24002 15.29C6.19002 15.24 6.13003 15.21 6.06003 15.18C5.99003 15.15 5.93002 15.14 5.86002 15.14H5.17004V16.22H5.87003C5.94003 16.22 6.00004 16.2 6.07004 16.17C6.13004 16.15 6.19002 16.11 6.24002 16.06C6.29002 16 6.34003 15.95 6.37003 15.88C6.40003 15.81 6.42004 15.74 6.42004 15.67C6.42004 15.59 6.40003 15.52 6.37003 15.46C6.33003 15.39 6.29002 15.34 6.24002 15.29Z" fill="black"/>
<path d="M19.63 11.37L14.17 5.92C14.24 5.7 14.29 5.47 14.29 5.23C14.29 3.97 13.26 2.94 12 2.94C10.74 2.94 9.70999 3.97 9.70999 5.23C9.70999 5.45 9.74999 5.65 9.79999 5.85L4.28 11.38C4.27 11.38 4.26999 11.38 4.26999 11.38C2.97999 11.63 2 12.77 2 14.14V18.25C2 19.79 3.26 21.05 4.81 21.05H19.19C20.74 21.05 22 19.79 22 18.25V14.14C22 12.74 20.97 11.59 19.63 11.37ZM12 4.44C12.44 4.44 12.79 4.79 12.79 5.23C12.79 5.67 12.44 6.02 12 6.02C11.56 6.02 11.21 5.67 11.21 5.23C11.21 4.79 11.56 4.44 12 4.44ZM10.68 7.1C11.05 7.36 11.51 7.52 12 7.52C12.47 7.52 12.91 7.38 13.27 7.14L17.47 11.33H6.45001L10.68 7.1ZM7.39999 16.44C7.27999 16.67 7.11 16.87 6.91 17.02L7.22 17.41C7.28 17.47 7.32001 17.53 7.35001 17.6C7.37001 17.67 7.39001 17.75 7.39001 17.82C7.39001 17.89 7.37001 17.97 7.35001 18.04C7.32001 18.11 7.28 18.17 7.22 18.23C7.17 18.29 7.11001 18.33 7.04001 18.36C6.98001 18.39 6.91 18.41 6.84 18.41C6.77 18.41 6.70001 18.39 6.64001 18.37C6.57001 18.34 6.51001 18.3 6.45001 18.24L5.70999 17.38H5.17001V17.83C5.17001 17.91 5.15 17.99 5.12 18.06C5.09 18.13 5.05 18.19 5 18.24C4.94 18.29 4.88 18.33 4.81 18.36C4.74 18.39 4.65999 18.4 4.57999 18.4C4.49999 18.4 4.43001 18.39 4.35001 18.36C4.28001 18.33 4.22001 18.29 4.17001 18.24C4.12001 18.19 4.07999 18.13 4.04999 18.06C4.01999 17.99 4 17.91 4 17.83V14.56C4 14.48 4.01999 14.4 4.04999 14.33C4.07999 14.26 4.12001 14.2 4.17001 14.15C4.22001 14.1 4.28001 14.05 4.35001 14.02C4.43001 13.99 4.49999 13.98 4.57999 13.98H5.84C6.08 13.98 6.30999 14.02 6.51999 14.11C6.72999 14.19 6.91001 14.31 7.07001 14.46C7.23001 14.61 7.35 14.79 7.44 15C7.53 15.2 7.57999 15.43 7.57999 15.67C7.57999 15.95 7.51999 16.2 7.39999 16.44ZM10.47 15.54C10.55 15.54 10.63 15.55 10.7 15.58C10.77 15.61 10.83 15.66 10.89 15.71C10.94 15.77 10.98 15.83 11.01 15.9C11.04 15.97 11.06 16.05 11.06 16.13C11.06 16.21 11.04 16.29 11.01 16.36C10.98 16.42 10.94 16.49 10.89 16.54C10.83 16.59 10.77 16.63 10.7 16.66C10.63 16.68 10.55 16.7 10.47 16.7H9.17001V17.24H10.75C10.83 17.24 10.9 17.25 10.98 17.29C11.04 17.32 11.11 17.36 11.16 17.42C11.21 17.47 11.25 17.53 11.28 17.61C11.31 17.68 11.32 17.75 11.32 17.83C11.32 17.91 11.31 17.99 11.28 18.06C11.25 18.13 11.21 18.19 11.16 18.24C11.11 18.3 11.04 18.34 10.98 18.36C10.9 18.39 10.83 18.41 10.75 18.4H8.54001C8.47001 18.4 8.39999 18.38 8.32999 18.35C8.26999 18.32 8.21 18.28 8.16 18.23C8.11 18.18 8.07999 18.12 8.04999 18.05C8.01999 17.99 8.01001 17.92 8.01001 17.84V14.56C8.01001 14.48 8.01999 14.4 8.04999 14.33C8.07999 14.26 8.11999 14.2 8.17999 14.15C8.22999 14.1 8.28999 14.05 8.35999 14.02C8.42999 13.99 8.51 13.98 8.59 13.98H10.75C10.83 13.98 10.9 13.99 10.98 14.02C11.04 14.05 11.11 14.1 11.16 14.15C11.21 14.2 11.25 14.26 11.28 14.33C11.31 14.4 11.32 14.48 11.32 14.56C11.32 14.64 11.31 14.71 11.28 14.79C11.25 14.86 11.21 14.92 11.16 14.97C11.11 15.03 11.04 15.07 10.98 15.1C10.9 15.13 10.83 15.14 10.75 15.14H9.17001V15.54H10.47ZM15.89 17.83C15.89 17.91 15.87 17.98 15.84 18.05C15.81 18.12 15.77 18.18 15.72 18.24C15.67 18.29 15.61 18.33 15.53 18.36C15.46 18.39 15.38 18.4 15.29 18.4H15.26C15.18 18.4 15.11 18.38 15.05 18.34C14.99 18.3 14.94 18.25 14.89 18.18L12.94 16.02V17.83C12.94 17.91 12.93 17.99 12.9 18.06C12.87 18.13 12.83 18.19 12.77 18.24C12.72 18.29 12.66 18.33 12.58 18.36C12.51 18.39 12.44 18.4 12.36 18.4C12.28 18.4 12.2 18.39 12.13 18.36C12.06 18.33 12 18.29 11.94 18.24C11.89 18.19 11.85 18.13 11.82 18.06C11.79 17.99 11.78 17.91 11.78 17.83V14.57C11.78 14.49 11.79 14.42 11.82 14.35C11.84 14.28 11.88 14.21 11.93 14.16C11.98 14.1 12.05 14.06 12.12 14.03C12.19 13.99 12.27 13.98 12.36 13.98C12.53 13.98 12.69 14.05 12.82 14.19L14.72 16.31V14.55C14.72 14.47 14.74 14.39 14.77 14.32C14.8 14.25 14.84 14.19 14.89 14.14C14.95 14.09 15.01 14.05 15.08 14.02C15.15 13.99 15.23 13.98 15.31 13.98C15.39 13.98 15.47 13.99 15.54 14.02C15.61 14.05 15.67 14.09 15.72 14.14C15.77 14.19 15.81 14.25 15.84 14.32C15.87 14.39 15.89 14.47 15.89 14.55V17.83ZM19.95 14.79C19.92 14.86 19.88 14.92 19.83 14.97C19.78 15.03 19.71 15.07 19.64 15.1C19.57 15.13 19.5 15.14 19.42 15.14H18.73V17.83C18.73 17.91 18.71 17.99 18.68 18.06C18.65 18.13 18.61 18.19 18.56 18.24C18.5 18.29 18.44 18.33 18.37 18.36C18.3 18.39 18.22 18.4 18.14 18.4C18.06 18.4 17.99 18.39 17.92 18.36C17.85 18.33 17.79 18.29 17.73 18.24C17.68 18.19 17.64 18.13 17.61 18.06C17.58 17.99 17.56 17.91 17.56 17.83V15.14H16.88C16.8 15.14 16.72 15.13 16.65 15.1C16.58 15.06 16.52 15.02 16.47 14.97C16.42 14.92 16.38 14.85 16.35 14.78C16.32 14.71 16.3 14.63 16.3 14.55C16.3 14.47 16.32 14.4 16.35 14.33C16.38 14.26 16.42 14.2 16.47 14.14C16.52 14.09 16.58 14.05 16.65 14.02C16.72 13.99 16.8 13.98 16.88 13.98H19.42C19.5 13.98 19.57 13.99 19.64 14.02C19.71 14.05 19.78 14.1 19.83 14.15C19.88 14.2 19.92 14.26 19.95 14.34C19.98 14.41 20 14.48 20 14.56C20 14.64 19.98 14.72 19.95 14.79Z" fill="black"/>
</svg>
