<svg width="24" height="24" viewBox="0 0 24 24" fill="none" xmlns="http://www.w3.org/2000/svg">
<path d="M7.95004 22H16.05C16.54 22 17.01 21.8 17.34 21.44C17.68 21.09 17.85 20.61 17.83 20.12L16.91 3.68C16.86 2.74 16.08 2 15.14 2H8.86001C7.92001 2 7.14002 2.74 7.09002 3.68L6.17004 20.12C6.15004 20.61 6.32003 21.09 6.66003 21.44C6.99003 21.8 7.46004 22 7.95004 22ZM11.25 5.83C11.25 5.42 11.59 5.08 12 5.08C12.41 5.08 12.75 5.42 12.75 5.83V6.86C12.75 7.27 12.41 7.61 12 7.61C11.59 7.61 11.25 7.27 11.25 6.86V5.83ZM11.25 10.97C11.25 10.56 11.59 10.22 12 10.22C12.41 10.22 12.75 10.56 12.75 10.97V12C12.75 12.41 12.41 12.75 12 12.75C11.59 12.75 11.25 12.41 11.25 12V10.97ZM11.25 16.11C11.25 15.7 11.59 15.36 12 15.36C12.41 15.36 12.75 15.7 12.75 16.11V17.14C12.75 17.55 12.41 17.89 12 17.89C11.59 17.89 11.25 17.55 11.25 17.14V16.11Z" fill="black"/>
</svg>
