<svg width="24" height="24" viewBox="0 0 24 24" fill="none" xmlns="http://www.w3.org/2000/svg">
<path d="M18 10.06C17.908 9.61055 17.7912 9.16653 17.65 8.73001C17.466 8.21321 17.2489 7.70883 17 7.22001C16.1476 5.44241 14.9551 3.84906 13.49 2.53001C13.0965 2.18677 12.5921 1.99765 12.07 1.99765C11.5479 1.99765 11.0434 2.18677 10.65 2.53001C9.17765 3.84721 7.9783 5.44068 7.11997 7.22001C6.88977 7.70959 6.69266 8.21406 6.52997 8.73001C6.38997 9.18001 6.26997 9.63001 6.17997 10.07C5.84234 12.0493 5.97247 14.0801 6.55997 16H17.56C18.1676 14.0814 18.3183 12.0472 18 10.06ZM12.07 12.53C11.5272 12.532 10.9961 12.3727 10.544 12.0724C10.0918 11.7721 9.7391 11.3443 9.53048 10.8432C9.32185 10.3421 9.26675 9.79037 9.37215 9.25793C9.47756 8.72549 9.73872 8.23636 10.1225 7.85256C10.5063 7.46876 10.9955 7.2076 11.5279 7.10219C12.0603 6.99679 12.6121 7.05189 13.1132 7.26052C13.6142 7.46914 14.0421 7.82188 14.3424 8.274C14.6427 8.72612 14.802 9.25725 14.8 9.80001C14.8 10.1585 14.7294 10.5135 14.5922 10.8447C14.455 11.176 14.2539 11.4769 14.0004 11.7304C13.7469 11.9839 13.4459 12.185 13.1147 12.3222C12.7835 12.4594 12.4285 12.53 12.07 12.53Z" fill="black"/>
<path d="M6.62998 18.64C6.35487 17.8142 6.14424 16.9684 5.99997 16.11C5.97419 15.9812 5.91269 15.8623 5.8225 15.7668C5.73232 15.6713 5.61708 15.6031 5.48998 15.57C5.36297 15.5351 5.22863 15.5372 5.10282 15.5762C4.97701 15.6152 4.86498 15.6894 4.77998 15.79L4.50998 16.1C4.30133 16.3239 4.14685 16.5927 4.05843 16.8857C3.97001 17.1787 3.95001 17.4881 3.99998 17.79L4.59998 20.73C4.65486 20.9934 4.77526 21.2386 4.95005 21.4432C5.12484 21.6477 5.34837 21.8048 5.59998 21.9C5.84774 21.9925 6.11467 22.0218 6.37659 21.9851C6.6385 21.9484 6.88714 21.847 7.09997 21.69L7.26997 21.56C7.4051 21.4632 7.50075 21.3209 7.53933 21.1592C7.57791 20.9976 7.55683 20.8274 7.47997 20.68C7.15611 20.0176 6.87227 19.3364 6.62998 18.64Z" fill="black"/>
<path d="M17.47 18.64C17.7586 17.8153 17.9826 16.9695 18.14 16.11C18.1658 15.9812 18.2273 15.8623 18.3174 15.7668C18.4076 15.6713 18.5229 15.6031 18.65 15.57C18.777 15.5351 18.9113 15.5372 19.0371 15.5762C19.1629 15.6152 19.275 15.6894 19.36 15.79L19.63 16.1C19.8246 16.331 19.9644 16.603 20.0389 16.8957C20.1133 17.1884 20.1205 17.4941 20.06 17.79L19.46 20.73C19.4051 20.9934 19.2847 21.2386 19.1099 21.4432C18.9351 21.6477 18.7116 21.8048 18.46 21.9C18.2811 21.9678 18.0912 22.0017 17.9 22C17.5617 21.9986 17.2327 21.8901 16.96 21.69L16.79 21.56C16.6548 21.4632 16.5592 21.3209 16.5206 21.1592C16.482 20.9976 16.5031 20.8274 16.58 20.68C16.9216 20.0205 17.2189 19.339 17.47 18.64Z" fill="black"/>
<path d="M17.13 16.93C17.08 17.07 17.04 17.22 16.99 17.37C16.7929 18.154 16.483 18.9051 16.07 19.6C16.0418 19.6334 16.0183 19.6704 16 19.71C15.7982 19.9817 15.5359 20.2027 15.2338 20.3554C14.9318 20.5081 14.5984 20.5885 14.26 20.59H9.90998C9.57011 20.5905 9.23502 20.51 8.93244 20.3552C8.62986 20.2005 8.3685 19.9759 8.16998 19.7C8.14106 19.6672 8.11744 19.6301 8.09998 19.59C7.68712 18.8986 7.37719 18.1508 7.17998 17.37C7.12998 17.21 7.08998 17.06 7.03998 16.92L17.13 16.93Z" fill="black"/>
</svg>
