<svg width="24" height="24" viewBox="0 0 24 24" fill="none" xmlns="http://www.w3.org/2000/svg">
<path d="M19.01 10.22C18.84 10.22 18.69 10.29 18.56 10.38C18.28 9.15 17.68 8.03 16.79 7.13C16.77 7.1 16.74 7.08 16.72 7.06C16.73 6.99 16.76 6.93 16.76 6.86V3.93C16.76 2.87 15.9 2 14.85 2H9.14999C8.10999 2 7.26001 2.87 7.26001 3.93V6.86C7.26001 6.93 7.28001 6.99 7.29001 7.06C7.27001 7.08 7.25001 7.1 7.23001 7.12C5.96001 8.41 5.26001 10.15 5.26001 12C5.26001 13.89 6.00999 15.65 7.29999 16.94C7.27999 17 7.26001 17.07 7.26001 17.14V20.07C7.26001 21.13 8.10999 22 9.14999 22H14.85C15.9 22 16.76 21.13 16.76 20.07V17.14C16.76 17.07 16.73 17.01 16.72 16.94C16.74 16.92 16.76 16.9 16.78 16.88C17.67 15.97 18.28 14.85 18.56 13.62C18.69 13.71 18.84 13.78 19.01 13.78C19.42 13.78 19.76 13.44 19.76 13.03V10.97C19.76 10.56 19.42 10.22 19.01 10.22ZM11.47 13.22L10.47 12.2C10.18 11.9 10.19 11.42 10.48 11.14C10.78 10.85 11.26 10.85 11.54 11.15L12.01 11.63L13.47 10.12C13.76 9.83 14.23 9.82 14.53 10.11C14.83 10.4 14.83 10.87 14.54 11.17L12.54 13.22C12.54 13.23 12.54 13.23 12.54 13.23C12.53 13.23 12.53 13.24 12.53 13.24C12.48 13.29 12.42 13.31 12.37 13.34C12.34 13.36 12.32 13.38 12.29 13.4C12.2 13.43 12.1 13.45 12.01 13.45C11.91 13.45 11.81 13.43 11.72 13.4C11.7 13.38 11.67 13.36 11.64 13.34C11.59 13.31 11.53 13.29 11.48 13.24V13.23C11.47 13.23 11.47 13.23 11.47 13.22ZM8.76001 3.93C8.76001 3.7 8.93999 3.5 9.14999 3.5H14.85C15.07 3.5 15.26 3.7 15.26 3.93V5.94C15.17 5.89 15.08 5.85 14.99 5.81C14.92 5.77 14.85 5.74 14.78 5.71C13.92 5.31 12.98 5.08 12.01 5.08C11.03 5.08 10.09 5.3 9.23001 5.71C9.16001 5.74 9.08999 5.77 9.01999 5.81C8.92999 5.85 8.84001 5.89 8.76001 5.94V3.93ZM15.26 20.07C15.26 20.3 15.07 20.5 14.85 20.5H9.14999C8.93999 20.5 8.76001 20.3 8.76001 20.07V18.06C8.82001 18.1 8.88999 18.13 8.95999 18.16C9.07999 18.22 9.19999 18.28 9.32999 18.34C9.46999 18.4 9.61 18.45 9.75 18.51C9.92 18.57 10.08 18.62 10.25 18.67C10.33 18.69 10.42 18.71 10.5 18.73C10.99 18.84 11.49 18.92 12.01 18.92C12.52 18.92 13.02 18.84 13.51 18.73C13.59 18.71 13.68 18.69 13.76 18.67C13.93 18.62 14.09 18.57 14.26 18.51C14.4 18.45 14.54 18.4 14.68 18.34C14.81 18.28 14.93 18.22 15.05 18.16C15.12 18.12 15.19 18.1 15.26 18.06V20.07Z" fill="black"/>
</svg>
