<svg width="24" height="24" viewBox="0 0 24 24" fill="none" xmlns="http://www.w3.org/2000/svg">
<path d="M20.1 14.29H3.89999C3.26999 14.29 2.75 14.8 2.75 15.44V18.28C2.75 18.91 3.25999 19.43 3.89999 19.43H20.1C20.73 19.43 21.25 18.92 21.25 18.28V15.44C21.25 14.8 20.74 14.29 20.1 14.29Z" stroke="black" stroke-width="1.5" stroke-linecap="round" stroke-linejoin="round"/>
<path d="M5.83 19.42V20.45" stroke="black" stroke-width="1.5" stroke-linecap="round" stroke-linejoin="round"/>
<path d="M18.17 19.42V20.45" stroke="black" stroke-width="1.5" stroke-linecap="round" stroke-linejoin="round"/>
<path d="M18.19 17.88C17.62 17.88 17.16 17.42 17.16 16.85C17.16 16.28 17.61 15.82 18.18 15.82H18.19C18.76 15.82 19.22 16.28 19.22 16.85C19.22 17.42 18.75 17.88 18.19 17.88Z" fill="black"/>
<path d="M15.1 17.88C14.53 17.88 14.07 17.42 14.07 16.85C14.07 16.28 14.52 15.82 15.09 15.82H15.1C15.67 15.82 16.13 16.28 16.13 16.85C16.13 17.42 15.67 17.88 15.1 17.88Z" fill="black"/>
<path d="M5.83 14.29L3.78 6.06" stroke="black" stroke-width="1.5" stroke-linecap="round" stroke-linejoin="round"/>
<path d="M18.17 14.29L20.22 6.06" stroke="black" stroke-width="1.5" stroke-linecap="round" stroke-linejoin="round"/>
<path d="M8.86 4.93002C9.81 4.34002 10.92 4 12.1 4C13.21 4 14.25 4.29002 15.14 4.80002" stroke="black" stroke-width="1.5" stroke-linecap="round" stroke-linejoin="round"/>
<path d="M10.47 7.55002C10.94 7.25002 11.5 7.09 12.09 7.09C12.65 7.09 13.17 7.23002 13.61 7.49002" stroke="black" stroke-width="1.5" stroke-linecap="round" stroke-linejoin="round"/>
<path d="M12.12 11.2C11.55 11.2 11.09 10.74 11.09 10.17C11.09 9.60001 11.54 9.14001 12.11 9.14001H12.12C12.69 9.14001 13.15 9.60001 13.15 10.17C13.15 10.74 12.69 11.2 12.12 11.2Z" fill="black"/>
</svg>
