<svg width="24" height="24" viewBox="0 0 24 24" fill="none" xmlns="http://www.w3.org/2000/svg">
<path d="M18.26 2H5.76001C3.69001 2 2.01001 3.68 2.01001 5.75V18.25C2.01001 20.32 3.69001 22 5.76001 22H18.26C20.32 22 22.01 20.32 22.01 18.25V5.75C22.01 3.68 20.32 2 18.26 2ZM7.88001 14.58C8.73001 14.58 9.42001 15.27 9.42001 16.12C9.42001 16.98 8.73001 17.67 7.88001 17.67C7.03001 17.67 6.34001 16.98 6.34001 16.12C6.34001 15.27 7.03001 14.58 7.88001 14.58ZM7.13001 10.99C7.13001 10.57 7.47001 10.24 7.88001 10.24C11.13 10.24 13.77 12.88 13.77 16.12C13.77 16.54 13.43 16.87 13.02 16.87C12.6 16.87 12.27 16.54 12.27 16.12C12.27 13.7 10.3 11.74 7.88001 11.74C7.47001 11.74 7.13001 11.4 7.13001 10.99ZM17.67 17.36C17.26 17.36 16.92 17.03 16.92 16.61C16.92 11.36 12.65 7.08 7.39001 7.08C6.98001 7.08 6.64001 6.75 6.64001 6.33C6.64001 5.92 6.98001 5.58 7.39001 5.58C13.47 5.58 18.42 10.53 18.42 16.61C18.42 17.03 18.09 17.36 17.67 17.36Z" fill="black"/>
</svg>
