<svg width="24" height="24" viewBox="0 0 24 24" fill="none" xmlns="http://www.w3.org/2000/svg">
<path d="M11.82 12.23H12.25C12.17 12.39 12.07 12.55 11.94 12.69L11.82 12.23Z" fill="black"/>
<path d="M11.82 10.15C12.01 10.32 12.15 10.52 12.26 10.73H11.45L11.21 9.76999C11.43 9.86999 11.64 9.99999 11.82 10.15Z" fill="black"/>
<path d="M18.89 5.1C17.05 3.26 14.6 2.25 12 2.25C9.4 2.25 6.95 3.26 5.11 5.1C3.26 6.94 2.25 9.39 2.25 12C2.25 13.28 2.50001 14.54 2.99001 15.73C3.48001 16.92 4.2 17.98 5.11 18.89C6.01 19.8 7.08 20.51 8.27 21C9.46 21.5 10.71 21.75 12 21.75C13.29 21.75 14.54 21.5 15.73 21C16.92 20.51 17.99 19.8 18.89 18.89C19.8 17.98 20.52 16.92 21.01 15.73C21.5 14.54 21.75 13.28 21.75 12C21.75 9.39 20.74 6.94 18.89 5.1ZM13.65 10.14C13.73 10.33 13.8 10.53 13.85 10.73H15.19C15.61 10.73 15.94 11.06 15.94 11.48C15.94 11.89 15.61 12.23 15.19 12.23H13.85C13.8 12.43 13.73 12.62 13.65 12.82C13.45 13.23 13.17 13.61 12.81 13.92C12.66 14.06 12.5 14.18 12.33 14.29L12.92 16.63C13 16.95 12.86 17.28 12.58 17.45C12.46 17.53 12.33 17.56 12.19 17.56C12.01 17.56 11.84 17.5 11.7 17.37L8.7 14.71C8.46 14.5 8.38001 14.17 8.49001 13.88C8.60001 13.59 8.88 13.4 9.19 13.4H10.19C10.32 13.4 10.44 13.39 10.56 13.37L10.27 12.23H9.19C8.78 12.23 8.44 11.89 8.44 11.48C8.44 11.06 8.78 10.73 9.19 10.73H9.89999L9.61 9.56H9.19C8.78 9.56 8.44 9.23 8.44 8.81C8.44 8.4 8.78 8.06 9.19 8.06H15.19C15.61 8.06 15.94 8.4 15.94 8.81C15.94 9.23 15.61 9.56 15.19 9.56H13.3C13.43 9.74 13.55 9.94 13.65 10.14Z" fill="black"/>
</svg>
