<svg width="24" height="24" viewBox="0 0 24 24" fill="none" xmlns="http://www.w3.org/2000/svg">
<path d="M9.19 8.82001H15.19H9.19Z" stroke="black" stroke-width="1.5" stroke-linecap="round" stroke-linejoin="round"/>
<path d="M10.19 8.82001C10.58 8.82001 10.97 8.89 11.34 9.02C11.7 9.15 12.03 9.35001 12.31 9.60001C12.59 9.85001 12.81 10.14 12.96 10.47C13.11 10.79 13.19 11.14 13.19 11.49C13.19 11.84 13.11 12.19 12.96 12.51C12.81 12.83 12.59 13.13 12.31 13.38C12.03 13.63 11.7 13.82 11.34 13.96C10.98 14.09 10.59 14.16 10.19 14.16H9.19L12.19 16.83L10.19 8.82001Z" stroke="black" stroke-width="1.5" stroke-linecap="round" stroke-linejoin="round"/>
<path d="M9.19 11.48H15.19H9.19Z" stroke="black" stroke-width="1.5" stroke-linecap="round" stroke-linejoin="round"/>
<path d="M21 12C21 13.18 20.77 14.35 20.31 15.44C19.86 16.53 19.19 17.52 18.36 18.36C17.52 19.2 16.53 19.86 15.44 20.31C14.35 20.76 13.18 21 12 21C10.82 21 9.65 20.77 8.56 20.31C7.47 19.85 6.48 19.19 5.64 18.36C4.8 17.52 4.14 16.53 3.69 15.44C3.24 14.35 3 13.18 3 12C3 9.61 3.95 7.32 5.64 5.64C7.33 3.95 9.62 3 12 3C14.39 3 16.68 3.95 18.36 5.64C20.05 7.32 21 9.61 21 12Z" stroke="black" stroke-width="1.5" stroke-linecap="round" stroke-linejoin="round"/>
</svg>
