<svg width="24" height="24" viewBox="0 0 24 24" fill="none" xmlns="http://www.w3.org/2000/svg">
<path d="M21.25 16.11L2.75 18.17C2.75 19.87 4.12999 21.25 5.82999 21.25H15.48C16.37 21.25 17.22 20.86 17.8 20.17L21.25 16.11Z" stroke="black" stroke-width="1.5" stroke-linecap="round" stroke-linejoin="round"/>
<path d="M12 17.14V2.75" stroke="black" stroke-width="1.5" stroke-linecap="round" stroke-linejoin="round"/>
<path d="M12 2.75C13.03 3.01 16.57 4.05 18.98 7.53C20.52 9.75 20.91 11.97 21.03 13.13" stroke="black" stroke-width="1.5" stroke-linecap="round" stroke-linejoin="round"/>
<path d="M12.19 3C12.84 3.84 15 6.83 14.79 11.05C14.73 12.18 14.52 13.18 14.24 14.04C16.62 13.73 18.65 13.43 21.04 13.13" stroke="black" stroke-width="1.5" stroke-linecap="round" stroke-linejoin="round"/>
<path d="M12 2.75C11.14 5.03 9.93 7.69 8.19 10.5C7.06 12.31 5.90999 13.88 4.79999 15.23C7.08999 14.92 9.38001 14.62 11.67 14.31" stroke="black" stroke-width="1.5" stroke-linecap="round" stroke-linejoin="round"/>
</svg>
