<svg width="24" height="24" viewBox="0 0 24 24" fill="none" xmlns="http://www.w3.org/2000/svg">
<path d="M22 15C22 15 22 15 22 14.93L21.13 10.62C21.0469 10.2177 20.8273 9.85659 20.5083 9.59778C20.1894 9.33897 19.7907 9.19843 19.38 9.2H14.38L14 8.81C13.6487 8.4628 13.2098 8.21742 12.73 8.1C12.7395 8.03032 12.7395 7.95968 12.73 7.89V6.59H16.09C16.2889 6.59 16.4797 6.51098 16.6203 6.37033C16.761 6.22968 16.84 6.03891 16.84 5.84V2.75C16.8401 2.5545 16.7638 2.36671 16.6274 2.22662C16.4911 2.08653 16.3054 2.00521 16.11 2H12C11.8019 2.00259 11.6126 2.08244 11.4725 2.22253C11.3324 2.36263 11.2526 2.55189 11.25 2.75V7.89C11.2405 7.95968 11.2405 8.03032 11.25 8.1C10.7774 8.22074 10.3457 8.46591 9.99999 8.81L9.60999 9.2H4.60999C4.20128 9.2035 3.80622 9.34756 3.49119 9.60796C3.17616 9.86836 2.96034 10.2293 2.87999 10.63L1.99999 14.94V15C1.99431 15.0264 1.99431 15.0536 1.99999 15.08V21.24C1.99866 21.3393 2.01708 21.4379 2.05418 21.5301C2.09128 21.6222 2.14631 21.7061 2.21609 21.7768C2.28586 21.8475 2.36899 21.9037 2.46064 21.942C2.5523 21.9803 2.65065 22 2.74999 22H21.25C21.4489 22 21.6397 21.921 21.7803 21.7803C21.921 21.6397 22 21.4489 22 21.25V15.09C22.0072 15.0604 22.0072 15.0296 22 15ZM12.75 3.5H15.36V5.09H12.75V3.5ZM12 13.78C11.748 13.782 11.501 13.7089 11.2907 13.5701C11.0803 13.4314 10.916 13.2331 10.8186 13.0006C10.7213 12.7682 10.6953 12.512 10.7439 12.2647C10.7926 12.0174 10.9138 11.7902 11.092 11.612C11.2702 11.4338 11.4974 11.3126 11.7447 11.264C11.992 11.2153 12.2482 11.2413 12.4806 11.3386C12.7131 11.436 12.9113 11.6003 13.0501 11.8107C13.1889 12.0211 13.262 12.268 13.26 12.52C13.26 12.8542 13.1272 13.1747 12.8909 13.411C12.6546 13.6473 12.3342 13.78 12 13.78ZM6.10999 20.5H3.49999V15.84H6.10999V20.5ZM6.10999 13.88V14.34H3.66999L4.34999 10.92C4.36178 10.8574 4.39536 10.8009 4.44477 10.7606C4.49419 10.7204 4.55625 10.6989 4.61999 10.7H8.12999L6.92999 11.9C6.40674 12.4264 6.11211 13.1378 6.10999 13.88ZM12.66 20.5H11.08V17.89H12.66V20.5ZM15.87 10.7H19.38C19.4437 10.6989 19.5058 10.7204 19.5552 10.7606C19.6046 10.8009 19.6382 10.8574 19.65 10.92L20.33 14.34H17.89V13.88C17.8916 13.5091 17.8199 13.1415 17.6792 12.7983C17.5385 12.4551 17.3315 12.1431 17.07 11.88L15.87 10.7ZM20.5 20.5H17.89V15.84H20.5V20.5Z" fill="black"/>
</svg>
