<svg width="24" height="24" viewBox="0 0 24 24" fill="none" xmlns="http://www.w3.org/2000/svg">
<path d="M18.17 21.25C19.5507 21.25 20.67 20.1307 20.67 18.75C20.67 17.3693 19.5507 16.25 18.17 16.25C16.7893 16.25 15.67 17.3693 15.67 18.75C15.67 20.1307 16.7893 21.25 18.17 21.25Z" stroke="black" stroke-width="1.5" stroke-linecap="round" stroke-linejoin="round"/>
<path d="M16.18 20.26L6.02 2.75" stroke="black" stroke-width="1.5" stroke-linecap="round" stroke-linejoin="round"/>
<path d="M5.81 21.25C7.19071 21.25 8.31 20.1307 8.31 18.75C8.31 17.3693 7.19071 16.25 5.81 16.25C4.42929 16.25 3.31 17.3693 3.31 18.75C3.31 20.1307 4.42929 21.25 5.81 21.25Z" stroke="black" stroke-width="1.5" stroke-linecap="round" stroke-linejoin="round"/>
<path d="M7.8 20.26L17.96 2.75" stroke="black" stroke-width="1.5" stroke-linecap="round" stroke-linejoin="round"/>
<path d="M12 8.64001C12.6959 8.64001 13.26 8.07588 13.26 7.38C13.26 6.68413 12.6959 6.12 12 6.12C11.3041 6.12 10.74 6.68413 10.74 7.38C10.74 8.07588 11.3041 8.64001 12 8.64001Z" fill="black"/>
<path d="M12 4.51999C12.6959 4.51999 13.26 3.95589 13.26 3.26001C13.26 2.56413 12.6959 2 12 2C11.3041 2 10.74 2.56413 10.74 3.26001C10.74 3.95589 11.3041 4.51999 12 4.51999Z" fill="black"/>
</svg>
