<svg width="24" height="24" viewBox="0 0 24 24" fill="none" xmlns="http://www.w3.org/2000/svg">
<path d="M19.06 5.67L16.28 2.88C15.71 2.31 14.95 2 14.14 2H6.86C5.31 2 4.06 3.26 4.06 4.81V19.19C4.06 20.74 5.31 22 6.86 22H17.14C18.69 22 19.94 20.74 19.94 19.19V7.8C19.94 6.99 19.63 6.24 19.06 5.67ZM13.31 5.83C13.31 5.42 13.64 5.08 14.06 5.08C14.47 5.08 14.81 5.42 14.81 5.83V6.86C14.81 7.28 14.47 7.61 14.06 7.61C13.64 7.61 13.31 7.28 13.31 6.86V5.83ZM10.22 5.83C10.22 5.42 10.56 5.08 10.97 5.08C11.39 5.08 11.72 5.42 11.72 5.83V6.86C11.72 7.28 11.39 7.61 10.97 7.61C10.56 7.61 10.22 7.28 10.22 6.86V5.83ZM7.14 5.83C7.14 5.42 7.47 5.08 7.89 5.08C8.3 5.08 8.64 5.42 8.64 5.83V6.86C8.64 7.28 8.3 7.61 7.89 7.61C7.47 7.61 7.14 7.28 7.14 6.86V5.83ZM16.86 18.47C16.86 19.02 16.41 19.47 15.86 19.47H8.14C7.59 19.47 7.14 19.02 7.14 18.47V16.87C7.14 16.31 7.59 15.87 8.14 15.87H15.86C16.41 15.87 16.86 16.31 16.86 16.87V18.47Z" fill="black"/>
</svg>
