<svg width="24" height="24" viewBox="0 0 24 24" fill="none" xmlns="http://www.w3.org/2000/svg">
<path d="M19.19 7.8V19.2C19.19 20.33 18.26 21.26 17.13 21.26H6.84999C5.71999 21.26 4.78998 20.33 4.78998 19.2V4.81C4.78998 3.68 5.71999 2.75 6.84999 2.75H14.13C14.73 2.75 15.31 2.99 15.73 3.41L18.51 6.19C18.96 6.62 19.19 7.2 19.19 7.8Z" stroke="black" stroke-width="1.5" stroke-linecap="round" stroke-linejoin="round"/>
<path d="M7.88998 5.83V6.86" stroke="black" stroke-width="1.5" stroke-linecap="round" stroke-linejoin="round"/>
<path d="M10.97 5.83V6.86" stroke="black" stroke-width="1.5" stroke-linecap="round" stroke-linejoin="round"/>
<path d="M14.06 5.83V6.86" stroke="black" stroke-width="1.5" stroke-linecap="round" stroke-linejoin="round"/>
<path d="M15.61 14.06H8.38998C8.10998 14.06 7.88998 14.28 7.88998 14.56V17.67C7.88998 17.95 8.10998 18.17 8.38998 18.17H15.61C15.89 18.17 16.11 17.95 16.11 17.67V14.56C16.11 14.28 15.89 14.06 15.61 14.06Z" stroke="black" stroke-width="1.5" stroke-linecap="round" stroke-linejoin="round"/>
</svg>
