<svg width="24" height="24" viewBox="0 0 24 24" fill="none" xmlns="http://www.w3.org/2000/svg">
<path d="M21.27 6.84999V2.73999" stroke="black" stroke-width="1.5" stroke-linecap="round" stroke-linejoin="round"/>
<path d="M9.98001 21.23C13.9509 21.23 17.17 18.0064 17.17 14.03C17.17 10.0535 13.9509 6.83 9.98001 6.83C6.00908 6.83 2.79001 10.0535 2.79001 14.03C2.79001 18.0064 6.00908 21.23 9.98001 21.23Z" stroke="black" stroke-width="1.5" stroke-linecap="round" stroke-linejoin="round"/>
<path d="M21.28 2.73L17.17 6.84999" stroke="black" stroke-width="1.5" stroke-linecap="round" stroke-linejoin="round"/>
<path d="M17.17 2.73999H21.27" stroke="black" stroke-width="1.5" stroke-linecap="round" stroke-linejoin="round"/>
<path d="M10.53 13.53V12.61L11.22 12.88C11.29 12.9 11.35 12.92 11.42 12.92C11.6 12.92 11.77 12.83 11.88 12.68C12.03 12.47 12.01 12.19 11.84 12C11.54 11.65 11.07 11.4 10.53 11.3V11.25C10.53 10.94 10.28 10.69 9.97 10.69C9.66 10.69 9.41 10.94 9.41 11.25V11.31C8.44 11.49 7.73999 12.13 7.73999 12.92C7.73999 13.71 8.44 14.35 9.41 14.53V15.45L8.72 15.18C8.48 15.09 8.21001 15.17 8.07001 15.38C7.92001 15.59 7.93999 15.87 8.10999 16.06C8.40999 16.41 8.88001 16.66 9.42001 16.76V16.81C9.42001 17.12 9.67001 17.37 9.98001 17.37C10.29 17.37 10.54 17.12 10.54 16.81V16.75C11.51 16.57 12.21 15.93 12.21 15.14C12.21 14.35 11.5 13.71 10.53 13.53ZM9.42001 13.38C9.07001 13.27 8.85999 13.07 8.85999 12.91C8.85999 12.75 9.07001 12.55 9.42001 12.44V13.38ZM10.53 15.61V14.67C10.88 14.78 11.09 14.98 11.09 15.14C11.09 15.3 10.88 15.5 10.53 15.61Z" fill="black"/>
</svg>
