<svg width="24" height="24" viewBox="0 0 24 24" fill="none" xmlns="http://www.w3.org/2000/svg">
<path d="M21 16H3C3 17.66 4.34 19 6 19H18C19.66 19 21 17.66 21 16Z" stroke="black" stroke-width="1.5" stroke-linecap="round" stroke-linejoin="round"/>
<path d="M12 7C7.58 7 4 10.58 4 15V16H20V15C20 10.58 16.42 7 12 7Z" stroke="black" stroke-width="1.5" stroke-linecap="round" stroke-linejoin="round"/>
<path d="M12 7.75C12.9665 7.75 13.75 6.9665 13.75 6C13.75 5.0335 12.9665 4.25 12 4.25C11.0335 4.25 10.25 5.0335 10.25 6C10.25 6.9665 11.0335 7.75 12 7.75Z" fill="black"/>
</svg>
