<svg width="24" height="24" viewBox="0 0 24 24" fill="none" xmlns="http://www.w3.org/2000/svg">
<path d="M18.26 8.92H5.73001C4.08001 8.92 2.73999 10.26 2.73999 11.91V12.11C2.73999 13.76 4.08001 15.1 5.73001 15.1H18.26C19.91 15.1 21.25 13.76 21.25 12.11V11.91C21.25 10.25 19.91 8.92 18.26 8.92Z" stroke="black" stroke-width="1.5" stroke-linecap="round" stroke-linejoin="round"/>
<path d="M15.08 12H18.17" stroke="black" stroke-width="1.5" stroke-linecap="round" stroke-linejoin="round"/>
<path d="M6.60001 13.16C6.30001 13.16 6.00001 13.04 5.79001 12.82C5.67001 12.7 5.59001 12.58 5.54001 12.44C5.48001 12.3 5.45001 12.15 5.45001 12C5.45001 11.85 5.48001 11.7 5.54001 11.56C5.60001 11.41 5.68001 11.28 5.79001 11.18C5.89001 11.08 6.02 10.99 6.16 10.94C6.37 10.85 6.59999 10.82 6.82999 10.87C6.89999 10.88 6.96999 10.91 7.04999 10.94C7.10999 10.96 7.18 11 7.25 11.04C7.31 11.08 7.37001 11.13 7.42001 11.18C7.52001 11.3 7.61001 11.41 7.67001 11.56C7.73001 11.7 7.75 11.85 7.75 12C7.75 12.31 7.63 12.6 7.41 12.82C7.31 12.92 7.18001 13.01 7.04001 13.06C6.90001 13.11 6.76001 13.16 6.60001 13.16Z" fill="black"/>
<path d="M18.26 15.08H5.73001C4.08001 15.08 2.73999 16.42 2.73999 18.07V18.27C2.73999 19.92 4.08001 21.26 5.73001 21.26H18.26C19.91 21.26 21.25 19.92 21.25 18.27V18.07C21.25 16.42 19.91 15.08 18.26 15.08Z" stroke="black" stroke-width="1.5" stroke-linecap="round" stroke-linejoin="round"/>
<path d="M15.08 18.17H18.17" stroke="black" stroke-width="1.5" stroke-linecap="round" stroke-linejoin="round"/>
<path d="M6.60001 19.32C6.30001 19.32 6.00001 19.2 5.79001 18.98C5.57001 18.76 5.44 18.47 5.44 18.16C5.44 17.86 5.57001 17.56 5.79001 17.35C6.22001 16.91 6.99001 16.91 7.42001 17.35C7.64001 17.56 7.76001 17.86 7.76001 18.16C7.76001 18.47 7.64001 18.76 7.42001 18.98C7.32001 19.08 7.18999 19.18 7.04999 19.23C6.89999 19.3 6.76001 19.32 6.60001 19.32Z" fill="black"/>
<path d="M18.26 2.75H5.73001C4.08001 2.75 2.73999 4.09001 2.73999 5.74001V5.94C2.73999 7.59 4.08001 8.92999 5.73001 8.92999H18.26C19.91 8.92999 21.25 7.59 21.25 5.94V5.74001C21.25 4.09001 19.91 2.75 18.26 2.75Z" stroke="black" stroke-width="1.5" stroke-linecap="round" stroke-linejoin="round"/>
<path d="M15.08 5.83H18.17" stroke="black" stroke-width="1.5" stroke-linecap="round" stroke-linejoin="round"/>
<path d="M6.60001 6.99001C6.30001 6.99001 6.00001 6.86 5.79001 6.64C5.57001 6.42 5.44 6.13 5.44 5.83C5.44 5.68 5.47 5.53001 5.53 5.38001C5.59 5.24001 5.67 5.11 5.78 5.01C5.88 4.91 6.00999 4.81 6.14999 4.76C6.35999 4.68 6.59001 4.65 6.82001 4.7C6.89001 4.71 6.97001 4.74 7.04001 4.76C7.11001 4.79 7.16999 4.83 7.23999 4.86C7.29999 4.91 7.36 4.95 7.41 5.01C7.63 5.23 7.75 5.52 7.75 5.83C7.75 6.13 7.63 6.42 7.41 6.64C7.2 6.87 6.91001 6.99001 6.60001 6.99001Z" fill="black"/>
</svg>
