<svg width="24" height="24" viewBox="0 0 24 24" fill="none" xmlns="http://www.w3.org/2000/svg">
<path d="M7 14.72H17C17.3998 14.7434 17.8002 14.6848 18.1766 14.5478C18.553 14.4109 18.8974 14.1985 19.1888 13.9236C19.4801 13.6488 19.7123 13.3173 19.8709 12.9496C20.0296 12.5818 20.1114 12.1855 20.1114 11.785C20.1114 11.3845 20.0296 10.9882 19.8709 10.6204C19.7123 10.2527 19.4801 9.9212 19.1888 9.64637C18.8974 9.37154 18.553 9.15913 18.1766 9.02219C17.8002 8.88525 17.3998 8.82665 17 8.85H7C6.60016 8.82665 6.19977 8.88525 5.82339 9.02219C5.447 9.15913 5.10257 9.37154 4.81122 9.64637C4.51987 9.9212 4.28775 10.2527 4.1291 10.6204C3.97045 10.9882 3.88861 11.3845 3.88861 11.785C3.88861 12.1855 3.97045 12.5818 4.1291 12.9496C4.28775 13.3173 4.51987 13.6488 4.81122 13.9236C5.10257 14.1985 5.447 14.4109 5.82339 14.5478C6.19977 14.6848 6.60016 14.7434 7 14.72ZM7.75 10.88C7.99135 10.88 8.22281 10.9759 8.39347 11.1465C8.56413 11.3172 8.66 11.5487 8.66 11.79C8.66 12.0313 8.56413 12.2628 8.39347 12.4335C8.22281 12.6041 7.99135 12.7 7.75 12.7C7.50774 12.6974 7.2763 12.5993 7.10592 12.427C6.93554 12.2548 6.83999 12.0223 6.84 11.78C6.84264 11.5404 6.93967 11.3115 7.11004 11.143C7.28042 10.9745 7.51038 10.88 7.75 10.88ZM17.52 11.78C17.52 11.955 17.4505 12.1229 17.3267 12.2467C17.2029 12.3705 17.035 12.44 16.86 12.44H14.42C14.2458 12.4374 14.0794 12.3671 13.9562 12.2438C13.8329 12.1206 13.7626 11.9542 13.76 11.78C13.7626 11.6058 13.8329 11.4394 13.9562 11.3162C14.0794 11.1929 14.2458 11.1226 14.42 11.12H16.86C17.0342 11.1226 17.2006 11.1929 17.3238 11.3162C17.4471 11.4394 17.5174 11.6058 17.52 11.78Z" fill="black"/>
<path d="M9.09003 19.2C9.22651 19.3251 9.40491 19.3945 9.59003 19.3945C9.77516 19.3945 9.95356 19.3251 10.09 19.2L11.24 18.05V21.27C11.24 21.4636 11.3169 21.6493 11.4538 21.7862C11.5907 21.9231 11.7764 22 11.97 22C12.1636 22 12.3493 21.9231 12.4862 21.7862C12.6231 21.6493 12.7 21.4636 12.7 21.27V18.05L13.85 19.2C13.9067 19.2958 13.9846 19.3774 14.0776 19.4385C14.1707 19.4996 14.2764 19.5386 14.3869 19.5525C14.4973 19.5665 14.6095 19.5549 14.7148 19.5189C14.8201 19.4828 14.9158 19.4232 14.9945 19.3444C15.0732 19.2657 15.1329 19.1701 15.1689 19.0648C15.205 18.9594 15.2165 18.8473 15.2025 18.7368C15.1886 18.6264 15.1496 18.5206 15.0885 18.4276C15.0274 18.3345 14.9458 18.2567 14.85 18.2L12.45 15.81C12.3849 15.7435 12.3071 15.6906 12.2212 15.6546C12.1353 15.6185 12.0432 15.5999 11.95 15.5999C11.8569 15.5999 11.7647 15.6185 11.6789 15.6546C11.593 15.6906 11.5152 15.7435 11.45 15.81L9.05003 18.2C8.93028 18.3414 8.86794 18.5226 8.87535 18.7078C8.88275 18.893 8.95936 19.0686 9.09003 19.2Z" fill="black"/>
<path d="M7 7.88H17C17.7797 7.88 18.5275 7.57025 19.0789 7.01889C19.6302 6.46754 19.94 5.71974 19.94 4.94C19.94 4.16026 19.6302 3.41246 19.0789 2.86111C18.5275 2.30975 17.7797 2 17 2L7 2C6.22026 2 5.47246 2.30975 4.9211 2.86111C4.36975 3.41246 4.06 4.16026 4.06 4.94C4.06 5.71974 4.36975 6.46754 4.9211 7.01889C5.47246 7.57025 6.22026 7.88 7 7.88ZM7.75 4C7.92998 4 8.10592 4.05337 8.25557 4.15336C8.40522 4.25335 8.52185 4.39548 8.59073 4.56176C8.6596 4.72804 8.67762 4.91101 8.64251 5.08753C8.6074 5.26406 8.52073 5.4262 8.39346 5.55347C8.2662 5.68073 8.10405 5.7674 7.92753 5.80251C7.75101 5.83763 7.56804 5.81961 7.40176 5.75073C7.23548 5.68185 7.09335 5.56522 6.99336 5.41557C6.89337 5.26592 6.84 5.08998 6.84 4.91C6.84 4.66865 6.93587 4.43719 7.10653 4.26653C7.27719 4.09587 7.50865 4 7.75 4ZM17.52 4.91C17.52 5.08504 17.4505 5.25292 17.3267 5.37669C17.2029 5.50046 17.035 5.57 16.86 5.57H14.42C14.245 5.57 14.0771 5.50046 13.9533 5.37669C13.8295 5.25292 13.76 5.08504 13.76 4.91C13.76 4.73496 13.8295 4.56708 13.9533 4.44331C14.0771 4.31954 14.245 4.25 14.42 4.25H16.86C16.9493 4.24991 17.0376 4.26792 17.1197 4.30295C17.2018 4.33798 17.2759 4.38929 17.3376 4.45379C17.3993 4.51829 17.4473 4.59464 17.4786 4.67821C17.51 4.76178 17.5241 4.85084 17.52 4.94V4.91Z" fill="black"/>
</svg>
