<svg width="24" height="24" viewBox="0 0 24 24" fill="none" xmlns="http://www.w3.org/2000/svg">
<path d="M21 15.25H20.75V15C20.75 10.75 17.71 7.21 13.69 6.41C13.73 6.28 13.75 6.14 13.75 6C13.75 5.03 12.96 4.25 12 4.25C11.04 4.25 10.25 5.03 10.25 6C10.25 6.14 10.27 6.28 10.31 6.41C6.29 7.21 3.25 10.75 3.25 15V15.25H3C2.59 15.25 2.25 15.58 2.25 16C2.25 18.06 3.93 19.75 6 19.75H18C20.07 19.75 21.75 18.06 21.75 16C21.75 15.58 21.41 15.25 21 15.25ZM18 18.25H6C5.02 18.25 4.19 17.62 3.88 16.75H20.12C19.81 17.62 18.98 18.25 18 18.25Z" fill="black"/>
</svg>
