<svg width="24" height="24" viewBox="0 0 24 24" fill="none" xmlns="http://www.w3.org/2000/svg">
<path d="M12 13.82C13.0052 13.82 13.82 13.0052 13.82 12C13.82 10.9948 13.0052 10.18 12 10.18C10.9948 10.18 10.18 10.9948 10.18 12C10.18 13.0052 10.9948 13.82 12 13.82Z" fill="black"/>
<path d="M20.34 12.98L19.83 12.69C19.47 12.48 19.43 12.14 19.43 12C19.43 11.86 19.47 11.52 19.83 11.31L20.34 11.02C20.87 10.71 21.25 10.22 21.4 9.63C21.56 9.04 21.48 8.42 21.18 7.89L20.15 6.11C19.52 5.02 18.11 4.64 17.02 5.27L16.51 5.56C16.15 5.77 15.83 5.63 15.72 5.56C15.6 5.5 15.32 5.29 15.32 4.88V4.29C15.32 3.03 14.29 2 13.03 2H10.97C9.71001 2 8.68001 3.03 8.68001 4.29V4.88C8.68001 5.29 8.40002 5.5 8.29002 5.56C8.17002 5.63 7.85 5.77 7.49 5.56L6.98002 5.27C5.89002 4.64 4.49 5.02 3.86 6.11L2.83 7.89C2.19 8.98 2.57003 10.39 3.67003 11.02L4.17003 11.31C4.53003 11.52 4.57002 11.86 4.57002 12C4.57002 12.14 4.53003 12.48 4.17003 12.69L3.67003 12.98C2.57003 13.61 2.19 15.02 2.83 16.11L3.86 17.89C4.16 18.42 4.65001 18.8 5.25001 18.96C5.84001 19.12 6.45002 19.03 6.98002 18.73L7.49 18.44C7.85 18.23 8.17002 18.37 8.29002 18.44C8.40002 18.5 8.68001 18.71 8.68001 19.12V19.71C8.68001 20.97 9.71001 22 10.97 22H13.03C14.29 22 15.32 20.97 15.32 19.71V19.12C15.32 18.71 15.6 18.5 15.72 18.44C15.83 18.37 16.15 18.23 16.51 18.44L17.02 18.73C17.55 19.03 18.16 19.12 18.76 18.96C19.35 18.8 19.84 18.42 20.15 17.89L21.18 16.11C21.48 15.58 21.56 14.96 21.4 14.37C21.25 13.78 20.87 13.29 20.34 12.98ZM8.68001 12C8.68001 10.17 10.17 8.68 12 8.68C13.83 8.68 15.32 10.17 15.32 12C15.32 13.83 13.83 15.32 12 15.32C10.17 15.32 8.68001 13.83 8.68001 12Z" fill="black"/>
</svg>
