<svg width="24" height="24" viewBox="0 0 24 24" fill="none" xmlns="http://www.w3.org/2000/svg">
<path d="M15.76 7.28999C15.9 7.14999 15.98 6.96 15.98 6.75C15.98 6.55 15.9 6.36 15.76 6.22C15.61 6.07 15.42 6 15.22 6C15.03 6 14.83 6.07 14.68 6.22C14.54 6.36 14.46 6.55 14.46 6.75C14.46 6.96 14.54 7.14999 14.68 7.28999C14.98 7.58999 15.47 7.58999 15.76 7.28999Z" fill="black"/>
<path d="M7.69002 11.24C7.25002 11.24 6.89001 11.58 6.89001 12C6.89001 12.42 7.25002 12.76 7.69002 12.76C8.14002 12.76 8.50002 12.42 8.50002 12C8.50002 11.58 8.14002 11.24 7.69002 11.24Z" fill="black"/>
<path d="M15.76 17.78C15.9 17.64 15.98 17.45 15.98 17.25C15.98 17.04 15.9 16.85 15.76 16.71C15.61 16.56 15.42 16.48 15.22 16.48C15.03 16.48 14.83 16.56 14.68 16.71C14.54 16.85 14.46 17.04 14.46 17.25C14.46 17.45 14.54 17.64 14.68 17.78C14.98 18.08 15.47 18.08 15.76 17.78Z" fill="black"/>
<path d="M18.25 2H5.75C3.68 2 2 3.68 2 5.75V18.25C2 20.32 3.68 22 5.75 22H18.25C20.32 22 22 20.32 22 18.25V5.75C22 3.68 20.32 2 18.25 2ZM10 12C10 12.22 9.97 12.43 9.91 12.63L13.9 15.41C14.78 14.77 16.03 14.85 16.82 15.65C17.25 16.07 17.48 16.64 17.48 17.25C17.48 17.85 17.25 18.42 16.82 18.84C16.38 19.28 15.8 19.5 15.22 19.5C14.64 19.5 14.06 19.28 13.62 18.84C13.03 18.25 12.83 17.4 13.04 16.64L9.03 13.84C8.65 14.11 8.18 14.26 7.69 14.26C6.42 14.26 5.39 13.25 5.39 12C5.39 10.75 6.42 9.74001 7.69 9.74001C8.18 9.74001 8.65 9.89 9.03 10.16L13.04 7.36C12.83 6.6 13.03 5.75 13.62 5.16C14.51 4.28 15.94 4.28 16.82 5.16C17.25 5.58 17.48 6.15 17.48 6.75C17.48 7.36 17.25 7.93001 16.82 8.35001C16.38 8.79001 15.8 9.00999 15.22 9.00999C14.76 9.00999 14.3 8.87 13.91 8.59L9.91 11.37C9.97 11.57 10 11.78 10 12Z" fill="black"/>
</svg>
