<svg width="24" height="24" viewBox="0 0 24 24" fill="none" xmlns="http://www.w3.org/2000/svg">
<path d="M7.00001 11.17L11 9.11C11.3087 8.94952 11.6521 8.86712 12 8.87C12.3725 8.86835 12.7398 8.9576 13.07 9.13L17.07 11.13L18.71 11.98L18.16 8.17C18.0131 7.56866 17.6588 7.03841 17.1594 6.67258C16.6601 6.30674 16.0477 6.12878 15.43 6.17H14.43V4.79C14.3948 4.49631 14.2468 4.22781 14.0173 4.04122C13.7878 3.85462 13.4947 3.76454 13.2 3.79H10.81C10.5153 3.76454 10.2223 3.85462 9.99275 4.04122C9.76324 4.22781 9.61523 4.49631 9.58001 4.79V6.19H8.58001C7.96235 6.14878 7.34995 6.32674 6.85059 6.69258C6.35123 7.05841 5.99692 7.58866 5.85001 8.19L5.32001 12L6.32001 11.48L7.00001 11.17ZM11.12 5.25H12.96V6.14H11.08L11.12 5.25Z" fill="black"/>
<path d="M4.23004 17C4.58495 17.141 4.92088 17.3258 5.23004 17.55C5.54004 17.75 5.56004 17.77 5.81004 17.77C5.96793 17.7845 6.12539 17.738 6.25004 17.64L6.38004 17.55C6.61077 17.3863 6.85498 17.2424 7.11004 17.12C7.66933 16.8567 8.28202 16.7267 8.90004 16.74C9.80286 16.7277 10.6847 17.0123 11.41 17.55C11.71 17.75 11.74 17.77 11.98 17.77C12.22 17.77 12.24 17.77 12.55 17.55C13.2732 17.0082 14.1565 16.7231 15.06 16.74C15.6114 16.7313 16.1589 16.8333 16.67 17.04L16.83 17.11C17.0893 17.2343 17.337 17.3816 17.57 17.55L17.69 17.63C17.8158 17.7341 17.9775 17.7844 18.14 17.77C18.38 17.77 18.41 17.77 18.71 17.55C19.0192 17.3258 19.3551 17.141 19.71 17L20.49 15.57C20.5734 15.4188 20.626 15.2526 20.6449 15.081C20.6637 14.9094 20.6485 14.7357 20.6 14.57C20.5496 14.4149 20.4688 14.2713 20.3624 14.1477C20.2559 14.0241 20.126 13.9229 19.98 13.85L18.8 13.24L17.15 12.39L12.59 10C12.4114 9.91105 12.2146 9.86476 12.015 9.86476C11.8155 9.86476 11.6187 9.91105 11.44 10L6.79004 12.39L5.15004 13.24L4.00004 13.84C3.8496 13.9157 3.71616 14.0212 3.60785 14.1502C3.49953 14.2791 3.41862 14.4288 3.37004 14.59C3.28012 14.9044 3.31598 15.2415 3.47004 15.53L4.23004 17Z" fill="black"/>
<path d="M21.25 17.72C20.5297 17.6975 19.8235 17.9235 19.25 18.36C19.1245 18.4523 18.9906 18.5327 18.85 18.6C18.6267 18.7106 18.3789 18.7623 18.13 18.75C17.8114 18.7612 17.4972 18.6739 17.23 18.5L17.01 18.36C16.4412 17.944 15.7547 17.7197 15.05 17.7197C14.3453 17.7197 13.6588 17.944 13.09 18.36C12.7693 18.6122 12.3731 18.7493 11.965 18.7493C11.557 18.7493 11.1608 18.6122 10.84 18.36C10.2681 17.9205 9.56084 17.6942 8.84002 17.72C8.11931 17.695 7.41232 17.9212 6.84002 18.36L6.61002 18.51C6.33975 18.6758 6.02698 18.7592 5.71002 18.75C5.45824 18.7585 5.20803 18.7071 4.98002 18.6C4.83845 18.5386 4.70427 18.4615 4.58002 18.37C4.00655 17.9335 3.30038 17.7075 2.58002 17.73C2.3811 17.73 2.19034 17.809 2.04969 17.9497C1.90903 18.0903 1.83002 18.2811 1.83002 18.48C1.83002 18.6789 1.90903 18.8697 2.04969 19.0103C2.19034 19.151 2.3811 19.23 2.58002 19.23C2.99148 19.2189 3.39299 19.3575 3.71002 19.62C4.28572 20.0522 4.99034 20.2777 5.71002 20.26C6.42969 20.2777 7.13432 20.0522 7.71002 19.62C8.02613 19.3559 8.42827 19.2171 8.84002 19.23C9.24849 19.2186 9.64697 19.3573 9.96002 19.62C10.5357 20.0522 11.2403 20.2777 11.96 20.26C12.6804 20.2825 13.3866 20.0565 13.96 19.62C14.2779 19.3591 14.6788 19.2207 15.09 19.23C15.4985 19.2186 15.897 19.3573 16.21 19.62C16.7788 20.036 17.4653 20.2603 18.17 20.2603C18.8748 20.2603 19.5612 20.036 20.13 19.62C20.4431 19.3573 20.8415 19.2186 21.25 19.23C21.4489 19.23 21.6397 19.151 21.7803 19.0103C21.921 18.8697 22 18.6789 22 18.48C22 18.2811 21.921 18.0903 21.7803 17.9497C21.6397 17.809 21.4489 17.73 21.25 17.73V17.72Z" fill="black"/>
</svg>
