<svg width="24" height="24" viewBox="0 0 24 24" fill="none" xmlns="http://www.w3.org/2000/svg">
<path d="M21.92 9.8L20.8 6.05C20.48 4.98 19.73 4.07 18.74 3.56C16.81 2.56 16.14 2.23 15.87 2.11L15.86 2.1C15.84 2.1 15.81 2.08 15.79 2.07C15.78 2.06 15.76 2.06 15.75 2.05C15.73 2.05 15.71 2.04 15.69 2.03H15.68C15.68 2.03 15.68 2.02 15.67 2.02C15.64 2.01 15.61 2 15.58 2.01C15.54 2 15.5 2 15.47 2H15.46H15.34H8.65002H8.55002H8.53001C8.49001 2 8.45001 2 8.42001 2.01C8.39001 2 8.36002 2.01 8.33002 2.02C8.32002 2.02 8.32001 2.03 8.32001 2.03H8.31001C8.29001 2.04 8.27001 2.05 8.25001 2.05C8.24001 2.06 8.22001 2.06 8.21001 2.07C8.19001 2.08 8.16001 2.1 8.14001 2.1L8.13001 2.11C7.86001 2.23 7.19002 2.56 5.26002 3.56C4.27002 4.07 3.52001 4.98 3.20001 6.05L2.08002 9.8C1.93002 10.29 2.00001 10.82 2.25001 11.26C2.51001 11.69 2.94001 12.01 3.43001 12.11L4.56001 12.36V10.83C4.58001 10.57 4.79001 10.36 5.06001 10.36C5.34001 10.36 5.56001 10.59 5.56001 10.86V18.89C5.56001 19.79 6.05001 20.62 6.85001 21.05C7.19001 21.23 7.55002 21.39 7.91002 21.52C7.91002 21.52 8.12002 21.6 8.33002 21.66C9.07002 21.89 10.53 22 12 22C13.46 22 14.93 21.89 15.67 21.66C15.88 21.6 16.09 21.52 16.09 21.52C16.46 21.39 16.81 21.23 17.15 21.05C17.95 20.62 18.44 19.79 18.44 18.89V10.86C18.44 10.59 18.66 10.36 18.94 10.36C19.21 10.36 19.42 10.57 19.44 10.83V12.37L20.57 12.12C21.06 12.01 21.49 11.69 21.75 11.26C22 10.82 22.07 10.29 21.92 9.8ZM14.42 3.5C14.2 3.94 13.82 4.44 13.18 4.76C12.81 4.94 12.41 5.03 12 5.04C11.59 5.03 11.19 4.94 10.82 4.76C10.18 4.44 9.80002 3.94 9.58002 3.5H14.42Z" fill="black"/>
</svg>
