<svg width="24" height="24" viewBox="0 0 24 24" fill="none" xmlns="http://www.w3.org/2000/svg">
<path d="M9.08 21.25C9.72065 21.25 10.24 20.7262 10.24 20.08C10.24 19.4338 9.72065 18.91 9.08 18.91C8.43935 18.91 7.92 19.4338 7.92 20.08C7.92 20.7262 8.43935 21.25 9.08 21.25Z" stroke="black" stroke-width="1.5" stroke-linecap="round" stroke-linejoin="round"/>
<path d="M16.95 21.25C17.5906 21.25 18.11 20.7262 18.11 20.08C18.11 19.4338 17.5906 18.91 16.95 18.91C16.3093 18.91 15.79 19.4338 15.79 20.08C15.79 20.7262 16.3093 21.25 16.95 21.25Z" stroke="black" stroke-width="1.5" stroke-linecap="round" stroke-linejoin="round"/>
<path d="M18.45 15.42H8.16999C7.62999 15.42 7.15999 15.04 7.03999 14.5L5.51999 7.51C5.35999 6.78 5.90999 6.1 6.64999 6.1H19.97C20.71 6.1 21.26 6.79 21.1 7.51L19.58 14.5C19.47 15.04 19 15.42 18.45 15.42Z" stroke="black" stroke-width="1.5" stroke-linecap="round" stroke-linejoin="round"/>
<path d="M2.75 2.75H3.58C4.13 2.75 4.6 3.13 4.71 3.66L5.64 8" stroke="black" stroke-width="1.5" stroke-linecap="round" stroke-linejoin="round"/>
<path d="M17.35 15.42H6.92C6.09 15.42 5.42 16.09 5.42 16.92C5.42 17.75 6.09 18.42 6.92 18.42H19.43" stroke="black" stroke-width="1.5" stroke-linecap="round" stroke-linejoin="round"/>
</svg>
