<svg width="24" height="24" viewBox="0 0 24 24" fill="none" xmlns="http://www.w3.org/2000/svg">
<path d="M19.96 9.69C19.83 8.24 18.63 7.14 17.17 7.14H16.86V6.86C16.86 4.18 14.68 2 12 2C9.32001 2 7.14002 4.18 7.14002 6.86V7.14H6.83C5.37 7.14 4.17002 8.24 4.04002 9.69L3.23002 18.94C3.16002 19.73 3.42002 20.51 3.95002 21.09C4.48002 21.66 5.24 22 6.02 22H17.98C18.76 22 19.52 21.66 20.05 21.09C20.58 20.51 20.84 19.73 20.77 18.94L19.96 9.69ZM8.9 14.55C9.19 14.26 9.67 14.26 9.96 14.55L11.14 15.73L14.04 12.84C14.33 12.54 14.81 12.54 15.1 12.84C15.39 13.13 15.39 13.6 15.1 13.9L11.67 17.32C11.53 17.47 11.34 17.54 11.14 17.54C10.95 17.54 10.76 17.47 10.61 17.32L8.9 15.61C8.61 15.32 8.61 14.84 8.9 14.55ZM8.64002 6.86C8.64002 5 10.15 3.5 12 3.5C13.85 3.5 15.36 5 15.36 6.86V7.14H8.64002V6.86Z" fill="black"/>
</svg>
