<svg width="24" height="24" viewBox="0 0 24 24" fill="none" xmlns="http://www.w3.org/2000/svg">
<path d="M19.96 9.69C19.83 8.24 18.63 7.14 17.17 7.14H16.86V6.86C16.86 4.18 14.68 2 12 2C9.32002 2 7.14002 4.18 7.14002 6.86V7.14H6.83002C5.37002 7.14 4.17002 8.24 4.04002 9.69L3.23002 18.94C3.16002 19.73 3.42001 20.51 3.95001 21.09C4.48001 21.66 5.24001 22 6.02001 22H17.98C18.76 22 19.52 21.66 20.05 21.09C20.58 20.51 20.84 19.73 20.77 18.94L19.96 9.69ZM9.11002 12.8C9.58002 12.48 10.21 12.38 10.85 12.52C11.27 12.61 11.68 12.81 12.02 13.09C12.35 12.82 12.74 12.64 13.17 12.55C13.86 12.42 14.53 12.57 15.02 12.96C15.48 13.33 15.77 13.91 15.82 14.56C15.87 15.29 15.61 16.02 15.1 16.57C15.09 16.58 15.08 16.59 15.07 16.6L13.22 18.41C12.87 18.75 12.42 18.92 11.97 18.92C11.52 18.92 11.08 18.75 10.73 18.41L8.99001 16.71C8.39001 16.08 8.11001 15.26 8.20001 14.44C8.27001 13.74 8.61002 13.15 9.11002 12.8ZM8.64002 6.86C8.64002 5 10.15 3.5 12 3.5C13.85 3.5 15.36 5 15.36 6.86V7.14H8.64002V6.86Z" fill="black"/>
</svg>
