<svg width="24" height="24" viewBox="0 0 24 24" fill="none" xmlns="http://www.w3.org/2000/svg">
<path d="M19.19 2H17.14H12H4.81C3.26 2 2 3.25 2 4.8V19.19C2 20.74 3.26 22 4.81 22H15.08C16.63 22 17.89 20.74 17.89 19.19V12.75H19.19C20.74 12.75 22 11.49 22 9.94V4.8C22 3.25 20.74 2 19.19 2ZM14.06 12.79H9.94C9.53 12.79 9.19 12.46 9.19 12.04C9.19 11.63 9.53 11.29 9.94 11.29H14.06C14.47 11.29 14.81 11.63 14.81 12.04C14.81 12.46 14.47 12.79 14.06 12.79ZM14.81 17.18C14.81 17.6 14.47 17.93 14.06 17.93H9.94C9.53 17.93 9.19 17.6 9.19 17.18C9.19 16.77 9.53 16.43 9.94 16.43H14.06C14.47 16.43 14.81 16.77 14.81 17.18ZM6.85999 7.65H5.82999C5.41999 7.65 5.07999 7.32 5.07999 6.9C5.07999 6.49 5.41999 6.15 5.82999 6.15H6.85999C7.27999 6.15 7.60999 6.49 7.60999 6.9C7.60999 7.32 7.27999 7.65 6.85999 7.65ZM7.60999 12.04C7.60999 12.46 7.27999 12.79 6.85999 12.79H5.82999C5.41999 12.79 5.07999 12.46 5.07999 12.04C5.07999 11.63 5.41999 11.29 5.82999 11.29H6.85999C7.27999 11.29 7.60999 11.63 7.60999 12.04ZM5.82999 16.43H6.85999C7.27999 16.43 7.60999 16.77 7.60999 17.18C7.60999 17.6 7.27999 17.93 6.85999 17.93H5.82999C5.41999 17.93 5.07999 17.6 5.07999 17.18C5.07999 16.77 5.41999 16.43 5.82999 16.43ZM14.06 7.65H9.94C9.53 7.65 9.19 7.32 9.19 6.9C9.19 6.49 9.53 6.15 9.94 6.15H14.06C14.47 6.15 14.81 6.49 14.81 6.9C14.81 7.32 14.47 7.65 14.06 7.65ZM20.5 9.94C20.5 10.66 19.91 11.25 19.19 11.25H17.89V4.8V3.5H19.19C19.91 3.5 20.5 4.08 20.5 4.8V9.94Z" fill="black"/>
</svg>
