<svg width="24" height="24" viewBox="0 0 24 24" fill="none" xmlns="http://www.w3.org/2000/svg">
<path d="M14.66 6.68H5.7C4.63 6.68 3.74 7.48 3.66 8.52L2.77 19.09C2.67 20.26 3.61 21.25 4.81 21.25H15.56C16.76 21.25 17.7 20.25 17.6 19.09L16.7 8.50999C16.61 7.47999 15.73 6.68 14.66 6.68Z" stroke="black" stroke-width="1.5" stroke-linecap="round" stroke-linejoin="round"/>
<path d="M14.18 6.68H18.3C19.37 6.68 20.26 7.48 20.34 8.52L21.23 19.09C21.33 20.26 20.39 21.25 19.19 21.25H15.73" stroke="black" stroke-width="1.5" stroke-linecap="round" stroke-linejoin="round"/>
<path d="M12.99 8.3V5.52999C12.99 3.99999 11.73 2.75999 10.18 2.75999C8.63 2.75999 7.37 3.99999 7.37 5.52999V8.3" stroke="black" stroke-width="1.5" stroke-linecap="round" stroke-linejoin="round"/>
<path d="M16.69 8.3V5.52999C16.69 3.99999 15.43 2.75999 13.88 2.75999C12.33 2.75999 11.07 3.99999 11.07 5.52999V6.45" stroke="black" stroke-width="1.5" stroke-linecap="round" stroke-linejoin="round"/>
<path d="M7.53999 13.96L9.29999 15.7L12.81 12.23" stroke="black" stroke-width="1.5" stroke-linecap="round" stroke-linejoin="round"/>
</svg>
