<svg width="24" height="24" viewBox="0 0 24 24" fill="none" xmlns="http://www.w3.org/2000/svg">
<path fill-rule="evenodd" clip-rule="evenodd" d="M12.88 2.07C13.1102 2.02202 13.3448 1.99855 13.58 2C14.0409 2.00131 14.4971 2.0934 14.9225 2.27101C15.3478 2.44861 15.734 2.70826 16.059 3.03512C16.384 3.36199 16.6415 3.74966 16.8166 4.17602C16.9918 4.60238 17.0813 5.05906 17.08 5.52V8.31C17.0849 8.33644 17.0849 8.36356 17.08 8.39C17.085 8.48327 17.085 8.57674 17.08 8.67V19.25C17.0806 19.6858 16.9742 20.115 16.77 20.5C16.5412 20.9508 16.1922 21.3295 15.7616 21.5942C15.331 21.8589 14.8355 21.9994 14.33 22H5.89999C5.17146 21.9974 4.47352 21.7068 3.95836 21.1916C3.44321 20.6765 3.15263 19.9785 3.14999 19.25V8.67C3.15263 7.94147 3.44321 7.24352 3.95836 6.72837C4.47352 6.21321 5.17146 5.92264 5.89999 5.92H6.61999V5.52C6.61733 4.59082 6.98322 3.69849 7.63744 3.03865C8.29165 2.3788 9.18082 2.00529 10.11 2C10.7146 1.98692 11.3118 2.13535 11.84 2.43C12.1216 2.261 12.429 2.13939 12.75 2.07H12.88ZM11.7 4.82C11.6205 5.04483 11.58 5.28155 11.58 5.52L11.59 5.92H12.1V5.52C12.1024 5.16965 12.0128 4.82481 11.84 4.52C11.8246 4.55077 11.8054 4.58154 11.7863 4.61231C11.7431 4.68154 11.7 4.75077 11.7 4.82ZM8.69578 4.10579C8.32071 4.48086 8.10999 4.98957 8.10999 5.52L8.08999 5.94H10.09V5.54C10.0898 5.12758 10.1608 4.71823 10.3 4.33C10.3929 4.07242 10.5172 3.82725 10.67 3.6C10.4881 3.54694 10.2995 3.52 10.11 3.52C9.57956 3.52 9.07085 3.73072 8.69578 4.10579ZM13.57 5.92H15.57L15.55 5.58C15.55 5.04957 15.3393 4.54086 14.9642 4.16579C14.5891 3.79072 14.0804 3.58 13.55 3.58C13.4171 3.56522 13.2829 3.56522 13.15 3.58H13C13.3762 4.15676 13.5744 4.83142 13.57 5.52V5.92ZM13.68 11.5007C13.8788 11.5007 14.0694 11.5796 14.21 11.72C14.3372 11.8569 14.4087 12.0363 14.4105 12.2231C14.4124 12.4099 14.3444 12.5906 14.22 12.73L10.79 16.2C10.6495 16.3407 10.4589 16.4198 10.26 16.42C10.0585 16.4182 9.86537 16.3395 9.72001 16.2L8.01001 14.46C7.91744 14.3965 7.84031 14.313 7.78431 14.2157C7.72831 14.1184 7.69487 14.0098 7.68644 13.8979C7.67802 13.7859 7.69483 13.6735 7.73564 13.5689C7.77644 13.4644 7.84021 13.3703 7.92222 13.2936C8.00424 13.217 8.10242 13.1597 8.20951 13.1261C8.31661 13.0924 8.42989 13.0832 8.54101 13.0992C8.65213 13.1152 8.75824 13.1559 8.85153 13.2183C8.94481 13.2808 9.02289 13.3634 9.08001 13.46L10.26 14.65L13.15 11.72C13.2906 11.5796 13.4813 11.5007 13.68 11.5007Z" fill="black"/>
<path d="M18.58 6V19.25C18.5813 19.6601 18.5206 20.068 18.4 20.46C18.3278 20.7171 18.2272 20.9653 18.1 21.2C17.9601 21.4916 17.7781 21.7612 17.56 22H18.1C18.4611 22 18.8187 21.9289 19.1524 21.7907C19.486 21.6525 19.7892 21.4499 20.0445 21.1945C20.2999 20.9392 20.5025 20.636 20.6407 20.3024C20.7789 19.9687 20.85 19.6111 20.85 19.25V8.67C20.8431 8.02988 20.6123 7.41236 20.1977 6.92464C19.783 6.43691 19.2107 6.10978 18.58 6Z" fill="black"/>
</svg>
