<svg width="24" height="24" viewBox="0 0 24 24" fill="none" xmlns="http://www.w3.org/2000/svg">
<path d="M18.25 2H5.75C3.68 2 2 3.69 2 5.75V18.25C2 20.32 3.68 22 5.75 22H18.25C20.32 22 22 20.32 22 18.25V5.75C22 3.69 20.32 2 18.25 2ZM14.42 9.14C13.41 9.14 12.47 9.64 11.89 10.47L10.83 12L11.89 13.53C12.47 14.36 13.41 14.86 14.42 14.86H17.19L16.89 14.58C16.59 14.3 16.58 13.82 16.86 13.52C17.15 13.22 17.62 13.21 17.92 13.49L19.59 15.06C19.74 15.2 19.82 15.4 19.82 15.61C19.82 15.81 19.74 16.01 19.59 16.15L17.92 17.72C17.78 17.86 17.59 17.93 17.41 17.93C17.21 17.93 17.01 17.85 16.86 17.69C16.58 17.39 16.59 16.92 16.89 16.63L17.19 16.36H14.42C12.92 16.36 11.51 15.62 10.66 14.39L9.92001 13.32L9.17999 14.39C8.32999 15.62 6.92001 16.36 5.42001 16.36H4.92999C4.50999 16.36 4.17999 16.02 4.17999 15.61C4.17999 15.19 4.50999 14.86 4.92999 14.86H5.42001C6.43001 14.86 7.37001 14.36 7.95001 13.53L9.01001 12L7.95001 10.47C7.37001 9.64 6.43001 9.14 5.42001 9.14H4.92999C4.50999 9.14 4.17999 8.81 4.17999 8.39C4.17999 7.98 4.50999 7.64 4.92999 7.64H5.42001C6.92001 7.64 8.32999 8.38 9.17999 9.61L9.92001 10.68L10.66 9.61C11.51 8.38 12.92 7.64 14.42 7.64H17.19L16.89 7.37C16.59 7.08 16.58 6.61 16.86 6.31C17.15 6.01 17.62 5.99 17.92 6.28L19.59 7.85C19.74 7.99 19.82 8.19 19.82 8.39C19.82 8.6 19.74 8.8 19.59 8.94L17.92 10.51C17.78 10.65 17.59 10.72 17.41 10.72C17.21 10.72 17.01 10.64 16.86 10.48C16.58 10.18 16.59 9.7 16.89 9.42L17.19 9.14H14.42Z" fill="black"/>
</svg>
