<svg width="24" height="24" viewBox="0 0 24 24" fill="none" xmlns="http://www.w3.org/2000/svg">
<path d="M21.25 10.13C21.23 10.6 21.05 11.04 20.72 11.41L13.58 19.38C13.24 19.77 12.8 19.99 12.33 20.06V20.07C12.11 20.1 11.89 20.1 11.67 20.06C11.2 20 10.76 19.76 10.42 19.38L3.28 11.41C2.95 11.04 2.77 10.59 2.75 10.13C2.72 9.65 2.84999 9.16001 3.14999 8.74001L6.08 4.77C6.27 4.51 6.5 4.30001 6.78 4.15001C7.09 3.99001 7.42999 3.91 7.78999 3.91H16.21C16.57 3.91 16.91 3.99001 17.21 4.15001C17.49 4.31001 17.73 4.51 17.92 4.77L20.84 8.74001C21.15 9.16001 21.28 9.65 21.25 10.13Z" stroke="black" stroke-width="1.5" stroke-linecap="round" stroke-linejoin="round"/>
<path d="M2.75 10.13H8.62H15.38H21.25" stroke="black" stroke-width="1.5" stroke-linecap="round" stroke-linejoin="round"/>
<path d="M6.78999 4.15001L8.62 10.13L11.67 20.06" stroke="black" stroke-width="1.5" stroke-linecap="round" stroke-linejoin="round"/>
<path d="M17.21 4.15001L15.38 10.13L12.33 20.06V20.07" stroke="black" stroke-width="1.5" stroke-linecap="round" stroke-linejoin="round"/>
</svg>
