<svg width="24" height="24" viewBox="0 0 24 24" fill="none" xmlns="http://www.w3.org/2000/svg">
<path d="M21.06 15.61C19.37 15.34 18.37 13.84 17.9 12.91C17.89 12.89 17.88 12.88 17.88 12.87C17.92 12.84 17.99 12.81 18.09 12.76L18.21 12.72C19.03 12.41 19.93 12.02 20.12 11.22C20.18 10.99 20.21 10.52 19.77 10.04C19.28 9.51999 18.54 9.35 17.78 9.61C17.85 8.36 17.89 6.91999 17.44 5.92999C16.51 3.81999 14.54 2.56 12.17 2.56H11.81C10.94 2.56 7.99 2.81001 6.58 5.96001C6.21 6.75001 6.19 7.61 6.2 8.5C6.21 8.88 6.22 9.26 6.25 9.63C6.01 9.54 5.7 9.45001 5.34 9.49001C4.66 9.58001 4.12 10.03 3.94 10.65C3.86 10.94 3.72 11.92 5.26 12.52C5.36 12.56 5.49 12.61 5.63 12.66C5.77 12.7 6.02 12.78 6.15 12.86C6.13 12.9 6.1 12.96 6.09 12.97C5.65 13.84 4.65 15.34 2.93 15.61C2.4 15.72 2 16.21 2 16.75C2 16.86 2.03 16.98 2.08 17.08C2.35 18.02 3.62 18.38 4.66 18.59C4.7 18.73 4.73 18.88 4.77 18.98C4.9 19.53 5.36 19.88 5.93 19.88C6.12 19.88 6.3 19.84 6.49 19.8C6.73 19.75 7 19.7 7.34 19.7C8.05 19.7 8.22 19.82 8.94 20.33L9.04 20.39C9.59 20.76 10.58 21.44 11.77 21.44C11.83 21.44 11.9 21.43 11.97 21.43C13.29 21.45 14.2 20.93 15.1 20.32C15.8 19.82 15.97 19.7 16.69 19.7C16.95 19.7 17.22 19.74 17.49 19.77C17.65 19.79 17.81 19.81 17.97 19.83C18.1 19.84 18.38 19.87 18.66 19.73C19.12 19.5 19.24 19.04 19.28 18.87L19.36 18.58C19.47 18.56 19.58 18.53 19.69 18.5L19.87 18.46C20.22 18.38 20.48 18.29 20.73 18.2C20.99 18.09 21.62 17.84 21.88 17.24C22.04 16.9 22.04 16.52 21.88 16.21C21.72 15.89 21.42 15.67 21.06 15.61Z" fill="black"/>
</svg>
