<svg width="24" height="24" viewBox="0 0 24 24" fill="none" xmlns="http://www.w3.org/2000/svg">
<path d="M17.45 9.72L19.96 10.39C20.02 10.41 20.09 10.42 20.15 10.42C20.48 10.42 20.78 10.2 20.87 9.86C20.98 9.46 20.74 9.04999 20.34 8.93999L19.28 8.66L20.38 8.02C20.74 7.81 20.86 7.35 20.65 7C20.44 6.65 19.98 6.52 19.63 6.73L18.53 7.37L18.81 6.31C18.92 5.91 18.68 5.5 18.28 5.39C17.88 5.28 17.47 5.51999 17.36 5.91999L16.69 8.43L12.74 10.71V6.15L14.58 4.31C14.87 4.02 14.87 3.54 14.58 3.25C14.29 2.96 13.81 2.96 13.52 3.25L12.74 4.02999V2.75999C12.74 2.34999 12.4 2.00999 11.99 2.00999C11.58 2.00999 11.24 2.34999 11.24 2.75999V4.02999L10.46 3.25C10.17 2.96 9.68998 2.96 9.39998 3.25C9.10998 3.54 9.10998 4.02 9.39998 4.31L11.24 6.15V10.71L7.29998 8.41999L6.62998 5.91C6.51998 5.51 6.10998 5.27 5.70998 5.38C5.30998 5.49 5.06998 5.9 5.17998 6.3L5.45998 7.36L4.35998 6.72C4.00998 6.52 3.54998 6.64 3.33998 7C3.12998 7.36 3.25998 7.82 3.60998 8.02L4.70998 8.66L3.64998 8.93999C3.24998 9.04999 3.00998 9.46 3.11998 9.86C3.20998 10.19 3.50998 10.42 3.83998 10.42C3.89998 10.42 3.96998 10.41 4.02998 10.39L6.53998 9.72L10.5 12L6.54998 14.28L4.03998 13.61C3.63998 13.5 3.22998 13.74 3.11998 14.14C3.00998 14.54 3.24998 14.95 3.64998 15.06L4.70998 15.34L3.60998 15.98C3.25998 16.18 3.12998 16.64 3.33998 17C3.47998 17.24 3.72998 17.38 3.98998 17.38C4.11998 17.38 4.24998 17.35 4.35998 17.28L5.45998 16.64L5.17998 17.7C5.06998 18.1 5.30998 18.51 5.70998 18.62C5.76998 18.64 5.83998 18.65 5.89998 18.65C6.22998 18.65 6.52998 18.43 6.61998 18.09L7.28998 15.58L11.24 13.3V17.86L9.39998 19.7C9.10998 19.99 9.10998 20.47 9.39998 20.76C9.54998 20.91 9.73998 20.98 9.92998 20.98C10.12 20.98 10.31 20.91 10.46 20.76L11.24 19.98V21.25C11.24 21.66 11.58 22 11.99 22C12.4 22 12.74 21.66 12.74 21.25V19.98L13.52 20.76C13.67 20.91 13.86 20.98 14.05 20.98C14.24 20.98 14.43 20.91 14.58 20.76C14.87 20.47 14.87 19.99 14.58 19.7L12.74 17.86V13.3L16.69 15.58L17.36 18.09C17.45 18.42 17.75 18.65 18.08 18.65C18.14 18.65 18.21 18.64 18.27 18.62C18.67 18.51 18.91 18.1 18.8 17.7L18.52 16.64L19.62 17.28C19.74 17.35 19.87 17.38 19.99 17.38C20.25 17.38 20.5 17.25 20.64 17C20.85 16.64 20.72 16.18 20.37 15.98L19.27 15.34L20.33 15.06C20.73 14.95 20.97 14.54 20.86 14.14C20.75 13.74 20.34 13.5 19.94 13.61L17.43 14.28L13.5 12L17.45 9.72Z" fill="black"/>
</svg>
