<svg width="24" height="24" viewBox="0 0 24 24" fill="none" xmlns="http://www.w3.org/2000/svg">
<path d="M17.14 15.08H6.85999V19.19H17.14V15.08Z" stroke="black" stroke-width="1.5" stroke-linecap="round" stroke-linejoin="round"/>
<path d="M4.81 20.22V19.19" stroke="black" stroke-width="1.5" stroke-linecap="round" stroke-linejoin="round"/>
<path d="M19.19 20.22V19.19" stroke="black" stroke-width="1.5" stroke-linecap="round" stroke-linejoin="round"/>
<path d="M18.17 9.94V12.27C17.55 12.63 17.14 13.29 17.14 14.05V15.08H6.85999V14.05C6.85999 13.29 6.44999 12.63 5.82999 12.27V9.94C5.82999 6.54 8.59 3.77 12 3.77C15.41 3.77 18.17 6.54 18.17 9.94Z" stroke="black" stroke-width="1.5" stroke-linecap="round" stroke-linejoin="round"/>
<path d="M6.85999 14.06V19.2H2.75V14.06C2.75 12.93 3.68 12 4.81 12C5.18 12 5.54 12.1 5.84 12.28C6.45 12.64 6.85999 13.3 6.85999 14.06Z" stroke="black" stroke-width="1.5" stroke-linecap="round" stroke-linejoin="round"/>
<path d="M21.25 14.06V19.2H17.14V14.06C17.14 13.3 17.55 12.64 18.17 12.28C18.47 12.11 18.83 12 19.2 12C20.32 12 21.25 12.92 21.25 14.06Z" stroke="black" stroke-width="1.5" stroke-linecap="round" stroke-linejoin="round"/>
</svg>
