<svg width="24" height="24" viewBox="0 0 24 24" fill="none" xmlns="http://www.w3.org/2000/svg">
<path d="M19.19 11.25C19.1 11.25 19.01 11.27 18.92 11.28V9.93999C18.92 6.12999 15.81 3.01999 12 3.01999C8.19 3.01999 5.07999 6.12999 5.07999 9.93999V11.28C4.98999 11.27 4.9 11.25 4.81 11.25C3.26 11.25 2 12.5 2 14.05V19.19C2 19.6 2.34 19.94 2.75 19.94H4.06V20.22C4.06 20.63 4.39 20.97 4.81 20.97C5.22 20.97 5.56 20.63 5.56 20.22V19.94H18.44V20.22C18.44 20.63 18.78 20.97 19.19 20.97C19.61 20.97 19.94 20.63 19.94 20.22V19.94H21.25C21.66 19.94 22 19.6 22 19.19V14.05C22 12.5 20.74 11.25 19.19 11.25ZM6.10999 18.44H3.5V14.05C3.5 13.33 4.09 12.75 4.81 12.75C5.03 12.75 5.25999 12.81 5.45999 12.92C5.86999 13.16 6.10999 13.58 6.10999 14.05V18.44ZM16.39 18.44H7.60999V15.83H16.39V18.44ZM20.5 18.44H17.89V14.05C17.89 13.93 17.9 13.82 17.93 13.71C18.02 13.38 18.24 13.1 18.55 12.92C18.74 12.81 18.97 12.75 19.19 12.75C19.91 12.75 20.5 13.33 20.5 14.05V18.44Z" fill="black"/>
</svg>
