<svg width="24" height="24" viewBox="0 0 24 24" fill="none" xmlns="http://www.w3.org/2000/svg">
<path d="M10.54 15.41C10.44 15.31 10.32 15.23 10.19 15.17C10.05 15.11 9.91003 15.08 9.75003 15.08C9.60003 15.08 9.46004 15.11 9.32004 15.17C9.19004 15.23 9.07003 15.31 8.97003 15.41C8.87003 15.51 8.80002 15.63 8.74002 15.76C8.69002 15.9 8.66003 16.04 8.66003 16.19C8.66003 16.35 8.69002 16.49 8.74002 16.63C8.80002 16.76 8.87003 16.88 8.97003 16.97C9.07003 17.07 9.19004 17.15 9.32004 17.21C9.46004 17.26 9.60003 17.29 9.75003 17.29C9.91003 17.29 10.05 17.26 10.19 17.21C10.32 17.15 10.44 17.07 10.54 16.97C10.64 16.88 10.72 16.76 10.77 16.63C10.83 16.49 10.86 16.35 10.86 16.19C10.86 16.04 10.83 15.9 10.77 15.76C10.72 15.63 10.64 15.51 10.54 15.41Z" fill="black"/>
<path d="M18.69 15.43C18.59 15.33 18.48 15.25 18.35 15.2C18.22 15.14 18.09 15.12 17.95 15.12H17.35V17.25H17.95C18.09 17.25 18.22 17.22 18.35 17.17C18.48 17.11 18.59 17.04 18.69 16.95C18.8 16.85 18.88 16.74 18.94 16.61C19.01 16.48 19.04 16.35 19.04 16.2C19.04 16.04 19.01 15.9 18.94 15.77C18.88 15.64 18.8 15.53 18.69 15.43Z" fill="black"/>
<path d="M19.63 11.37L14.17 5.92C14.24 5.7 14.29 5.47 14.29 5.23C14.29 3.97 13.26 2.94 12 2.94C10.74 2.94 9.70999 3.97 9.70999 5.23C9.70999 5.45 9.74999 5.65 9.79999 5.85L4.28 11.38C4.27 11.38 4.26999 11.38 4.26999 11.38C2.97999 11.63 2 12.77 2 14.14V18.25C2 19.79 3.26 21.05 4.81 21.05H19.19C20.74 21.05 22 19.79 22 18.25V14.14C22 12.74 20.97 11.59 19.63 11.37ZM12 4.44C12.44 4.44 12.79 4.79 12.79 5.23C12.79 5.67 12.44 6.02 12 6.02C11.56 6.02 11.21 5.67 11.21 5.23C11.21 4.79 11.56 4.44 12 4.44ZM10.68 7.1C11.05 7.36 11.51 7.52 12 7.52C12.47 7.52 12.91 7.38 13.27 7.14L17.47 11.33H6.45001L10.68 7.1ZM7.14001 17.68C7.05001 17.84 6.93999 17.98 6.79999 18.09C6.64999 18.21 6.48 18.31 6.28 18.38C6.09 18.44 5.87 18.48 5.63 18.48C5.26 18.48 4.92 18.41 4.63 18.28C4.34 18.15 4.10999 17.98 3.92999 17.77C3.87999 17.7 3.84 17.64 3.81 17.57C3.79 17.5 3.78 17.44 3.78 17.37C3.78 17.27 3.79999 17.19 3.82999 17.11C3.86999 17.03 3.92 16.96 3.97 16.91C4.03 16.85 4.09 16.81 4.16 16.78C4.23 16.75 4.29001 16.73 4.35001 16.73C4.44001 16.73 4.52001 16.75 4.60001 16.79C4.68001 16.84 4.76999 16.89 4.85999 16.97C4.91999 17.02 4.96999 17.06 5.01999 17.11C5.07999 17.15 5.14001 17.2 5.20001 17.24C5.26001 17.27 5.33 17.31 5.41 17.33C5.48 17.35 5.57001 17.36 5.67001 17.36C5.79001 17.36 5.88 17.35 5.94 17.32C6.01 17.29 6.04001 17.23 6.04001 17.16C6.04001 17.12 6.03 17.07 6 17.04C5.98 17 5.93999 16.97 5.89999 16.94C5.86999 16.91 5.82 16.89 5.78 16.87C5.73 16.86 5.7 16.84 5.66 16.84C5.35 16.77 5.08001 16.7 4.85001 16.61C4.63001 16.52 4.44999 16.41 4.29999 16.28C4.15999 16.16 4.04999 16.02 3.98999 15.85C3.91999 15.69 3.88 15.5 3.88 15.29C3.88 15.08 3.92999 14.88 4.01999 14.71C4.10999 14.54 4.23 14.4 4.38 14.28C4.53 14.16 4.71 14.06 4.91 14C5.12 13.94 5.33 13.9 5.56 13.9C5.7 13.9 5.84999 13.92 5.98999 13.94C6.12999 13.97 6.26999 14.01 6.39999 14.07C6.51999 14.13 6.64 14.19 6.75 14.28C6.86 14.36 6.94001 14.46 7.01001 14.57C7.06001 14.65 7.07999 14.73 7.07999 14.81C7.07999 14.89 7.06 14.96 7.03 15.03C7 15.1 6.96 15.16 6.91 15.21C6.85 15.26 6.79 15.3 6.72 15.32C6.65 15.35 6.57999 15.37 6.48999 15.37C6.43999 15.37 6.38001 15.36 6.32001 15.34C6.26001 15.32 6.19999 15.3 6.14999 15.26C6.09999 15.23 6.05 15.2 6 15.17C5.96 15.14 5.90999 15.11 5.85999 15.09C5.80999 15.07 5.76001 15.05 5.70001 15.04C5.64001 15.03 5.58001 15.03 5.51001 15.03H5.29001C5.24001 15.04 5.20001 15.05 5.17001 15.07C5.15001 15.08 5.13 15.1 5.12 15.13C5.11 15.16 5.10999 15.2 5.10999 15.25C5.10999 15.31 5.12001 15.37 5.14001 15.41C5.17001 15.45 5.21 15.49 5.28 15.52C5.35 15.56 5.44 15.6 5.56 15.64C5.68 15.67 5.82001 15.72 6.01001 15.78C6.15001 15.82 6.29 15.87 6.44 15.93C6.59 15.99 6.72 16.07 6.84 16.18C6.96 16.28 7.06001 16.41 7.14001 16.57C7.22001 16.73 7.26001 16.94 7.26001 17.18C7.26001 17.36 7.22001 17.52 7.14001 17.68ZM11.86 17.08C11.74 17.36 11.57 17.6 11.37 17.81C11.16 18.01 10.92 18.18 10.64 18.3C10.36 18.42 10.06 18.48 9.75 18.48C9.43 18.48 9.12999 18.42 8.85999 18.3C8.57999 18.18 8.34 18.01 8.13 17.81C7.93001 17.6 7.76999 17.36 7.64999 17.08C7.52999 16.8 7.47 16.51 7.47 16.19C7.47 15.87 7.52999 15.58 7.64999 15.3C7.76999 15.02 7.93001 14.78 8.13 14.57C8.34 14.37 8.57999 14.2 8.85999 14.08C9.12999 13.96 9.43 13.9 9.75 13.9C10.06 13.9 10.36 13.96 10.64 14.08C10.92 14.2 11.16 14.37 11.37 14.57C11.57 14.78 11.74 15.02 11.86 15.3C11.98 15.58 12.04 15.87 12.04 16.19C12.04 16.51 11.98 16.8 11.86 17.08ZM15.71 18.09C15.67 18.16 15.63 18.22 15.58 18.27C15.53 18.32 15.47 18.36 15.39 18.39C15.32 18.42 15.25 18.43 15.16 18.43H13.16C13.07 18.42 12.98 18.4 12.91 18.37C12.83 18.34 12.77 18.29 12.71 18.24C12.66 18.18 12.62 18.11 12.59 18.03C12.55 17.95 12.54 17.86 12.54 17.75V14.51C12.54 14.43 12.55 14.35 12.59 14.28C12.62 14.21 12.66 14.15 12.71 14.1C12.77 14.05 12.83 14 12.9 13.97C12.97 13.95 13.05 13.93 13.13 13.93C13.21 13.93 13.29 13.95 13.36 13.97C13.44 14 13.5 14.05 13.55 14.1C13.61 14.15 13.65 14.21 13.68 14.28C13.71 14.35 13.73 14.43 13.73 14.51V17.25H15.16C15.25 17.25 15.32 17.27 15.39 17.3C15.47 17.34 15.53 17.38 15.58 17.43C15.63 17.49 15.67 17.55 15.71 17.62C15.74 17.7 15.75 17.77 15.75 17.85C15.75 17.94 15.74 18.02 15.71 18.09ZM20.14 16.78C20.08 16.97 20 17.15 19.9 17.32C19.8 17.48 19.68 17.64 19.53 17.77C19.39 17.91 19.24 18.03 19.06 18.13C18.89 18.22 18.71 18.3 18.52 18.35C18.32 18.41 18.12 18.43 17.92 18.43H16.76C16.68 18.43 16.6 18.42 16.53 18.39C16.46 18.36 16.39 18.32 16.34 18.27C16.28 18.21 16.24 18.15 16.21 18.08C16.18 18.01 16.17 17.93 16.17 17.85V14.51C16.17 14.43 16.18 14.36 16.21 14.29C16.24 14.22 16.28 14.15 16.34 14.1C16.39 14.05 16.46 14.01 16.53 13.98C16.6 13.95 16.68 13.93 16.76 13.93H17.92C18.12 13.93 18.32 13.96 18.52 14.01C18.71 14.07 18.89 14.14 19.06 14.24C19.24 14.34 19.39 14.46 19.53 14.6C19.68 14.73 19.8 14.89 19.9 15.05C20 15.22 20.08 15.4 20.14 15.59C20.19 15.78 20.22 15.98 20.22 16.19C20.22 16.39 20.19 16.59 20.14 16.78Z" fill="black"/>
</svg>
