<svg width="24" height="24" viewBox="0 0 24 24" fill="none" xmlns="http://www.w3.org/2000/svg">
<path d="M19.19 20.31H4.79999C3.65999 20.31 2.73999 19.39 2.73999 18.25V14.14C2.73999 13 3.65999 12.08 4.79999 12.08H19.19C20.33 12.08 21.25 13 21.25 14.14V18.25C21.25 19.39 20.33 20.31 19.19 20.31Z" stroke="black" stroke-width="1.5" stroke-linecap="round" stroke-linejoin="round"/>
<path d="M12 6.77999C12.8505 6.77999 13.54 6.09052 13.54 5.24C13.54 4.38948 12.8505 3.7 12 3.7C11.1495 3.7 10.46 4.38948 10.46 5.24C10.46 6.09052 11.1495 6.77999 12 6.77999Z" stroke="black" stroke-width="1.5" stroke-linecap="round" stroke-linejoin="round"/>
<path d="M4.81 11.92L10.46 6.25999" stroke="black" stroke-width="1.5" stroke-linecap="round" stroke-linejoin="round"/>
<path d="M19.11 11.92L13.46 6.25999" stroke="black" stroke-width="1.5" stroke-linecap="round" stroke-linejoin="round"/>
<path d="M5.66 16.84C5.35 16.78 5.08001 16.7 4.85001 16.61C4.63001 16.52 4.43999 16.41 4.29999 16.29C4.15999 16.17 4.05001 16.02 3.98001 15.86C3.91001 15.7 3.88 15.51 3.88 15.3C3.88 15.09 3.92001 14.89 4.01001 14.72C4.10001 14.55 4.22 14.4 4.37 14.28C4.52 14.16 4.69999 14.07 4.89999 14C5.09999 13.94 5.31999 13.9 5.54999 13.9C5.68999 13.9 5.83001 13.91 5.98001 13.94C6.12001 13.97 6.26001 14.01 6.39001 14.07C6.52001 14.13 6.63999 14.19 6.73999 14.28C6.84999 14.36 6.93 14.46 7 14.57C7.04 14.65 7.07001 14.72 7.07001 14.81C7.07001 14.89 7.04999 14.96 7.01999 15.03C6.98999 15.1 6.94999 15.16 6.89999 15.21C6.84999 15.26 6.79 15.3 6.72 15.33C6.65 15.36 6.56999 15.37 6.48999 15.37C6.42999 15.37 6.37 15.36 6.31 15.35C6.25 15.33 6.20001 15.31 6.14001 15.27C6.09001 15.24 6.04 15.21 6 15.18C5.95 15.15 5.90999 15.13 5.85999 15.1C5.80999 15.08 5.76001 15.06 5.70001 15.05C5.64001 15.04 5.58 15.03 5.5 15.03C5.41 15.03 5.34001 15.03 5.29001 15.04C5.24001 15.05 5.20001 15.06 5.17001 15.07C5.14001 15.08 5.13 15.11 5.12 15.14C5.11 15.17 5.10999 15.21 5.10999 15.26C5.10999 15.32 5.11999 15.38 5.14999 15.42C5.16999 15.46 5.22001 15.5 5.29001 15.54C5.36001 15.58 5.45001 15.61 5.57001 15.65C5.69001 15.69 5.83999 15.74 6.01999 15.79C6.15999 15.83 6.31001 15.88 6.45001 15.94C6.60001 16 6.73001 16.08 6.85001 16.18C6.97001 16.28 7.06999 16.42 7.14999 16.58C7.22999 16.74 7.26999 16.94 7.26999 17.19C7.26999 17.37 7.22999 17.53 7.14999 17.69C7.06999 17.85 6.96 17.98 6.81 18.1C6.67 18.22 6.48999 18.31 6.29999 18.38C6.09999 18.45 5.87999 18.48 5.64999 18.48C5.26999 18.48 4.93999 18.42 4.64999 18.29C4.35999 18.16 4.13001 17.99 3.95001 17.77C3.90001 17.7 3.85999 17.64 3.82999 17.57C3.80999 17.5 3.79001 17.44 3.79001 17.37C3.79001 17.27 3.81001 17.19 3.85001 17.11C3.89001 17.03 3.92999 16.96 3.98999 16.91C4.04999 16.85 4.10999 16.81 4.17999 16.78C4.24999 16.75 4.31 16.73 4.37 16.73C4.45 16.73 4.53 16.75 4.62 16.79C4.7 16.83 4.79 16.89 4.88 16.97C4.93 17.02 4.99001 17.06 5.04001 17.11C5.09001 17.16 5.15 17.2 5.22 17.24C5.28 17.28 5.34999 17.31 5.42999 17.33C5.50999 17.35 5.59 17.37 5.69 17.37C5.81 17.37 5.89999 17.35 5.95999 17.32C6.01999 17.29 6.04999 17.24 6.04999 17.17C6.04999 17.12 6.04001 17.08 6.01001 17.04C5.98001 17 5.95 16.97 5.91 16.94C5.87 16.91 5.83 16.89 5.78 16.87C5.73 16.86 5.7 16.85 5.66 16.84Z" fill="black"/>
<path d="M9.75 13.91C10.07 13.91 10.36 13.97 10.64 14.09C10.92 14.21 11.16 14.37 11.37 14.58C11.58 14.79 11.74 15.03 11.86 15.31C11.98 15.59 12.04 15.88 12.04 16.2C12.04 16.52 11.98 16.81 11.86 17.09C11.74 17.37 11.58 17.61 11.37 17.82C11.16 18.03 10.92 18.19 10.64 18.31C10.36 18.43 10.06 18.49 9.75 18.49C9.43 18.49 9.13999 18.43 8.85999 18.31C8.57999 18.19 8.34001 18.03 8.14001 17.82C7.93001 17.61 7.76999 17.37 7.64999 17.09C7.52999 16.81 7.47 16.52 7.47 16.2C7.47 15.89 7.52999 15.59 7.64999 15.31C7.76999 15.03 7.93001 14.79 8.14001 14.58C8.34001 14.37 8.58999 14.21 8.85999 14.09C9.12999 13.97 9.43 13.91 9.75 13.91ZM9.75 15.09C9.6 15.09 9.45001 15.12 9.32001 15.18C9.19001 15.24 9.07 15.32 8.97 15.42C8.87 15.52 8.78999 15.64 8.73999 15.77C8.67999 15.9 8.66 16.05 8.66 16.2C8.66 16.36 8.68999 16.5 8.73999 16.64C8.79999 16.77 8.87 16.89 8.97 16.99C9.07 17.09 9.18001 17.17 9.32001 17.22C9.45001 17.28 9.6 17.3 9.75 17.3C9.9 17.3 10.05 17.27 10.18 17.22C10.31 17.16 10.43 17.09 10.53 16.99C10.63 16.89 10.71 16.78 10.77 16.64C10.83 16.51 10.86 16.36 10.86 16.2C10.86 16.05 10.83 15.91 10.77 15.77C10.71 15.64 10.63 15.52 10.53 15.42C10.43 15.32 10.31 15.24 10.18 15.18C10.05 15.12 9.91 15.09 9.75 15.09Z" fill="black"/>
<path d="M13.73 17.25L15.17 17.26C15.25 17.26 15.33 17.28 15.4 17.31C15.47 17.34 15.53 17.39 15.59 17.44C15.64 17.49 15.68 17.56 15.71 17.63C15.74 17.7 15.76 17.78 15.76 17.86C15.76 17.94 15.74 18.02 15.71 18.09C15.68 18.16 15.64 18.22 15.59 18.27C15.54 18.32 15.47 18.36 15.4 18.39C15.33 18.42 15.25 18.43 15.17 18.43H13.16C13.07 18.42 12.99 18.4 12.91 18.37C12.83 18.34 12.77 18.29 12.71 18.24C12.66 18.18 12.61 18.12 12.58 18.03C12.55 17.95 12.53 17.85 12.53 17.75V14.51C12.53 14.43 12.54 14.35 12.58 14.28C12.61 14.21 12.65 14.15 12.71 14.1C12.76 14.05 12.83 14.01 12.9 13.98C12.97 13.95 13.05 13.94 13.13 13.94C13.21 13.94 13.29 13.95 13.36 13.98C13.43 14.01 13.5 14.05 13.55 14.1C13.6 14.15 13.65 14.21 13.68 14.28C13.71 14.35 13.73 14.43 13.73 14.51V17.25Z" fill="black"/>
<path d="M16.76 18.44C16.68 18.44 16.6 18.43 16.53 18.4C16.46 18.37 16.4 18.33 16.34 18.28C16.29 18.23 16.24 18.17 16.21 18.09C16.18 18.02 16.16 17.94 16.16 17.86V14.53C16.16 14.45 16.17 14.37 16.21 14.3C16.24 14.23 16.28 14.17 16.34 14.12C16.39 14.07 16.46 14.03 16.53 13.99C16.6 13.96 16.68 13.94 16.76 13.94H17.92C18.13 13.94 18.33 13.97 18.52 14.02C18.71 14.07 18.9 14.15 19.07 14.25C19.24 14.35 19.4 14.47 19.54 14.6C19.68 14.74 19.8 14.89 19.91 15.06C20.01 15.23 20.09 15.4 20.15 15.6C20.21 15.79 20.23 15.99 20.23 16.2C20.23 16.41 20.2 16.61 20.15 16.8C20.09 16.99 20.02 17.17 19.91 17.34C19.81 17.51 19.69 17.66 19.54 17.8C19.39 17.94 19.24 18.05 19.07 18.15C18.9 18.25 18.72 18.32 18.52 18.38C18.33 18.43 18.13 18.46 17.92 18.46H16.76V18.44ZM17.35 15.12V17.25H17.95C18.08 17.25 18.21 17.22 18.34 17.17C18.47 17.12 18.59 17.04 18.69 16.95C18.79 16.86 18.87 16.75 18.94 16.62C19 16.49 19.04 16.35 19.04 16.2C19.04 16.05 19.01 15.91 18.94 15.77C18.88 15.64 18.79 15.52 18.69 15.43C18.59 15.33 18.47 15.26 18.34 15.2C18.21 15.15 18.08 15.12 17.95 15.12H17.35Z" fill="black"/>
</svg>
