<svg width="24" height="24" viewBox="0 0 24 24" fill="none" xmlns="http://www.w3.org/2000/svg">
<path d="M15.7 19.4H8.29999V20.46H15.7V19.4Z" stroke="black" stroke-width="1.5" stroke-linecap="round" stroke-linejoin="round"/>
<path d="M20.18 10.94C20.86 10.94 21.38 11.58 21.22 12.24C20.17 16.35 16.44 19.39 12 19.39C7.55999 19.39 3.82999 16.35 2.77999 12.24C2.60999 11.58 3.13 10.94 3.82 10.94H20.18Z" stroke="black" stroke-width="1.5" stroke-linecap="round" stroke-linejoin="round"/>
<path d="M11.58 7.77C11.58 6.71 12.43 6.71 12.43 5.66C12.43 4.61 11.58 4.6 11.58 3.55" stroke="black" stroke-width="1.5" stroke-linecap="round" stroke-linejoin="round"/>
<path d="M15.17 7.77C15.17 6.71 16.02 6.71 16.02 5.66C16.02 4.61 15.17 4.6 15.17 3.55" stroke="black" stroke-width="1.5" stroke-linecap="round" stroke-linejoin="round"/>
<path d="M7.98001 7.77C7.98001 6.71 8.82999 6.71 8.82999 5.66C8.82999 4.61 7.98001 4.6 7.98001 3.55" stroke="black" stroke-width="1.5" stroke-linecap="round" stroke-linejoin="round"/>
<path d="M3.54001 14.11H20.46" stroke="black" stroke-width="1.5" stroke-linecap="round" stroke-linejoin="round"/>
</svg>
