<svg width="24" height="24" viewBox="0 0 24 24" fill="none" xmlns="http://www.w3.org/2000/svg">
<path d="M18.33 2.22C18.04 1.92 17.56 1.92 17.27 2.22L14.68 4.8C14.54 4.94 14.46 5.13 14.46 5.33C14.46 5.53 14.54 5.71999 14.68 5.85999L15.88 7.05999L10.04 12.9L7.55 10.41C7.26 10.12 6.78 10.12 6.49 10.41L3.47 13.43C2.52 14.38 2 15.64 2 16.98C2 18.32 2.52 19.58 3.47 20.53C4.45 21.5 5.73 21.99 7.02 21.99C8.3 21.99 9.59 21.5 10.57 20.53L13.59 17.51C13.73 17.37 13.81 17.18 13.81 16.98C13.81 16.78 13.73 16.59 13.59 16.45L11.1 13.96L16.94 8.12L18.13 9.30999C18.27 9.44999 18.46 9.52999 18.66 9.52999C18.86 9.52999 19.05 9.44999 19.19 9.30999L21.78 6.73C22.07 6.43 22.07 5.96 21.78 5.66L18.33 2.22ZM18.66 7.72L16.27 5.33L17.8 3.80999L20.19 6.19999L18.66 7.72Z" fill="black"/>
</svg>
