<svg width="24" height="24" viewBox="0 0 24 24" fill="none" xmlns="http://www.w3.org/2000/svg">
<path d="M11.77 12.75C10.53 12.75 9.51999 13.8 9.51999 15.08C9.51999 16.37 10.53 17.42 11.77 17.42C13.01 17.42 14.02 16.37 14.02 15.08C14.02 13.8 13.01 12.75 11.77 12.75Z" fill="black"/>
<path d="M12.52 7.38C12.52 6.94 12.18 6.58 11.77 6.58C11.36 6.58 11.02 6.94 11.02 7.38C11.02 7.81 11.36 8.17 11.77 8.17C12.18 8.17 12.52 7.81 12.52 7.38Z" fill="black"/>
<path d="M16.58 2H6.95999C5.33999 2 4.01999 3.32 4.01999 4.94V19.06C4.01999 20.68 5.33999 22 6.95999 22H16.58C18.2 22 19.52 20.68 19.52 19.06V4.94C19.52 3.32 18.2 2 16.58 2ZM11.77 18.92C9.69999 18.92 8.01999 17.2 8.01999 15.08C8.01999 12.97 9.69999 11.25 11.77 11.25C13.84 11.25 15.52 12.97 15.52 15.08C15.52 17.2 13.84 18.92 11.77 18.92ZM9.51999 7.38C9.51999 6.11 10.53 5.08 11.77 5.08C13.01 5.08 14.02 6.11 14.02 7.38C14.02 8.64 13.01 9.67 11.77 9.67C10.53 9.67 9.51999 8.64 9.51999 7.38Z" fill="black"/>
</svg>
