<svg width="24" height="24" viewBox="0 0 24 24" fill="none" xmlns="http://www.w3.org/2000/svg">
<path d="M22.01 12C22.01 6.49 17.52 2 12.01 2C6.49001 2 2.01001 6.49 2.01001 12C2.01001 17.51 6.49001 22 12.01 22C13.51 22 14.96 21.67 16.32 21.01L21.1 21.72C21.33 21.75 21.57 21.67 21.74 21.5C21.9 21.34 21.98 21.1 21.95 20.86L21.21 15.89C21.74 14.64 22.01 13.34 22.01 12ZM7.89001 13.03C7.33001 13.03 6.87001 12.57 6.87001 12C6.87001 11.43 7.33001 10.97 7.89001 10.97C8.46001 10.97 8.92001 11.43 8.92001 12C8.92001 12.57 8.46001 13.03 7.89001 13.03ZM12 13.03C11.44 13.03 10.98 12.57 10.98 12C10.98 11.43 11.44 10.97 12 10.97C12.57 10.97 13.03 11.43 13.03 12C13.03 12.57 12.57 13.03 12 13.03ZM16.12 13.03C15.55 13.03 15.09 12.57 15.09 12C15.09 11.43 15.55 10.97 16.12 10.97C16.68 10.97 17.14 11.43 17.14 12C17.14 12.57 16.68 13.03 16.12 13.03Z" fill="black"/>
</svg>
