<svg width="24" height="24" viewBox="0 0 24 24" fill="none" xmlns="http://www.w3.org/2000/svg">
<path d="M7.89 13.03C8.45885 13.03 8.92 12.5689 8.92 12C8.92 11.4311 8.45885 10.97 7.89 10.97C7.32115 10.97 6.86 11.4311 6.86 12C6.86 12.5689 7.32115 13.03 7.89 13.03Z" fill="black"/>
<path d="M12 13.03C12.5689 13.03 13.03 12.5689 13.03 12C13.03 11.4311 12.5689 10.97 12 10.97C11.4311 10.97 10.97 11.4311 10.97 12C10.97 12.5689 11.4311 13.03 12 13.03Z" fill="black"/>
<path d="M16.11 13.03C16.6789 13.03 17.14 12.5689 17.14 12C17.14 11.4311 16.6789 10.97 16.11 10.97C15.5411 10.97 15.08 11.4311 15.08 12C15.08 12.5689 15.5411 13.03 16.11 13.03Z" fill="black"/>
<path d="M20.44 15.8H20.43C20.95 14.64 21.25 13.35 21.25 12C21.25 6.89 17.11 2.75 12 2.75C6.89 2.75 2.75 6.89 2.75 12C2.75 17.11 6.89 21.25 12 21.25C13.51 21.25 14.94 20.88 16.2 20.24L21.2 20.98L20.44 15.8Z" stroke="black" stroke-width="1.5" stroke-linecap="round" stroke-linejoin="round"/>
</svg>
