<svg width="24" height="24" viewBox="0 0 24 24" fill="none" xmlns="http://www.w3.org/2000/svg">
<path d="M12 2C6.49 2 2 6.49 2 12C2 17.51 6.49 22 12 22C17.51 22 22 17.51 22 12C22 6.49 17.51 2 12 2ZM18.24 10.87C18.1 11.1 17.85 11.23 17.6 11.23C17.46 11.23 17.33 11.19 17.21 11.12C14.79 9.64999 10.24 9.18 7.07 10.06C6.67 10.17 6.26 9.93 6.15 9.53C6.04 9.14 6.27 8.72 6.67 8.61C9.8 7.74 14.89 7.96 17.99 9.84C18.34 10.05 18.45 10.51 18.24 10.87ZM7.14 11.51C10.32 10.66 14.13 11.15 16.83 12.73C17.19 12.94 17.31 13.4 17.1 13.76C16.96 14 16.71 14.13 16.45 14.13C16.32 14.13 16.19 14.1 16.07 14.03C13.7 12.63 10.34 12.21 7.52 12.96C7.12 13.07 6.71 12.83 6.6 12.43C6.5 12.03 6.74 11.62 7.14 11.51ZM7.74 15.68C7.34 15.76 6.94 15.5 6.86 15.09C6.78 14.68 7.04 14.29 7.45 14.21C10.86 13.55 13.62 13.89 15.89 15.26C16.24 15.47 16.35 15.93 16.14 16.29C16 16.52 15.75 16.65 15.5 16.65C15.37 16.65 15.23 16.62 15.11 16.54C13.18 15.38 10.76 15.09 7.74 15.68Z" fill="black"/>
</svg>
