<svg width="24" height="24" viewBox="0 0 24 24" fill="none" xmlns="http://www.w3.org/2000/svg">
<path d="M7.62 17.82L7.03 17.61C6.76 17.51 6.55 17.3 6.45 17.03L6.23 16.44C6.11 16.13 5.81 15.92 5.48 15.92C5.17 15.92 4.83 16.16 4.72 16.45L4.50999 17.03C4.40999 17.3 4.2 17.51 3.92 17.61L3.34 17.82C3.02 17.94 2.81 18.24 2.81 18.58C2.81 18.89 3.04 19.23 3.33 19.34L3.92 19.55C4.2 19.65 4.40999 19.86 4.50999 20.13L4.73 20.72C4.85 21.03 5.15 21.24 5.48 21.24C5.79 21.24 6.13001 21.01 6.24001 20.71L6.45 20.13C6.55 19.86 6.75999 19.65 7.03999 19.55L7.61 19.34C7.91 19.24 8.14999 18.9 8.14999 18.58C8.14999 18.27 7.92 17.93 7.62 17.82Z" fill="black"/>
<path d="M11.04 5.96L9.8 5.5C9 5.21 8.37 4.59 8.08 3.8L7.62 2.56C7.49 2.23 7.17 2 6.81 2C6.44 2 6.12001 2.23 5.99001 2.57L5.53 3.8C5.24 4.59 4.61 5.21 3.81 5.5L2.58 5.96C2.23 6.08 2 6.41 2 6.77C2 7.13 2.23001 7.46 2.57001 7.59L3.81 8.04C4.61 8.33 5.24 8.96 5.53 9.75L5.99001 10.98C6.12001 11.32 6.45 11.54 6.81 11.54C7.17 11.54 7.49 11.32 7.62 10.98L8.08 9.75C8.37 8.96 9 8.33 9.8 8.04L11.05 7.58C11.39 7.46 11.61 7.13 11.61 6.77C11.61 6.41 11.38 6.08 11.04 5.96Z" fill="black"/>
<path d="M17.55 5.97L17.91 6.09999C17.99 6.12999 18.05 6.19 18.08 6.27L18.2 6.61C18.31 6.91 18.62 7.13 18.94 7.13C19.25 7.13 19.57 6.91 19.68 6.62L19.81 6.27C19.84 6.19 19.9 6.12999 19.98 6.09999L20.33 5.97C20.63 5.86 20.85 5.55 20.85 5.23C20.85 4.92 20.63 4.6 20.33 4.5L19.98 4.37C19.9 4.34 19.84 4.28 19.81 4.2L19.67 3.84C19.56 3.55 19.25 3.34 18.94 3.34C18.63 3.34 18.32 3.55999 18.21 3.84999L18.08 4.2C18.05 4.28 17.99 4.34 17.91 4.37L17.55 4.5C17.26 4.61 17.04 4.92 17.04 5.23C17.04 5.55 17.26 5.86 17.55 5.97Z" fill="black"/>
<path d="M21.43 16.41L20.19 15.96C19.39 15.67 18.76 15.04 18.47 14.25L18.01 13.02C17.88 12.68 17.55 12.46 17.19 12.46C16.83 12.46 16.51 12.68 16.38 13.02L15.92 14.25C15.63 15.04 15 15.67 14.2 15.96L12.96 16.41C12.62 16.53 12.39 16.86 12.39 17.23C12.39 17.59 12.62 17.92 12.96 18.04L14.2 18.5C15 18.79 15.63 19.41 15.92 20.2L16.38 21.44C16.51 21.78 16.83 22 17.19 22C17.55 22 17.88 21.77 18.01 21.43L18.47 20.2C18.76 19.41 19.39 18.79 20.19 18.5L21.42 18.04C21.77 17.92 22 17.59 22 17.23C22 16.86 21.77 16.54 21.43 16.41Z" fill="black"/>
</svg>
