<svg width="24" height="24" viewBox="0 0 24 24" fill="none" xmlns="http://www.w3.org/2000/svg">
<path d="M6.24001 9.49L6.7 10.72C6.72 10.77 6.76 10.8 6.81 10.8C6.86 10.8 6.9 10.77 6.92 10.72L7.38 9.49C7.75 8.49 8.54 7.71 9.55 7.34L10.79 6.89C10.84 6.87 10.87 6.82999 10.87 6.77999C10.87 6.72999 10.84 6.68999 10.79 6.66999L9.55 6.22C8.54 5.85 7.75 5.07 7.38 4.07L6.92 2.84C6.9 2.79 6.86 2.75999 6.81 2.75999C6.76 2.75999 6.72 2.79 6.7 2.84L6.24001 4.07C5.87001 5.07 5.08001 5.85 4.07001 6.22L2.83 6.66999C2.78 6.68999 2.75 6.72999 2.75 6.77999C2.75 6.82999 2.78 6.87 2.83 6.89L4.07001 7.34C5.07001 7.7 5.87001 8.49 6.24001 9.49Z" stroke="black" stroke-width="1.5" stroke-linecap="round" stroke-linejoin="round"/>
<path d="M21.17 17.12L19.93 16.67C18.92 16.3 18.13 15.52 17.76 14.52L17.3 13.29C17.28 13.24 17.24 13.21 17.19 13.21C17.14 13.21 17.1 13.24 17.08 13.29L16.62 14.52C16.25 15.52 15.46 16.3 14.45 16.67L13.21 17.12C13.16 17.14 13.13 17.18 13.13 17.23C13.13 17.28 13.16 17.32 13.21 17.34L14.45 17.79C15.46 18.16 16.25 18.94 16.62 19.94L17.08 21.17C17.1 21.22 17.14 21.25 17.19 21.25C17.24 21.25 17.28 21.22 17.3 21.17L17.76 19.94C18.13 18.94 18.92 18.16 19.93 17.79L21.17 17.34C21.22 17.32 21.25 17.28 21.25 17.23C21.25 17.18 21.22 17.13 21.17 17.12Z" stroke="black" stroke-width="1.5" stroke-linecap="round" stroke-linejoin="round"/>
<path d="M20.07 5.2L19.72 5.07C19.43 4.97 19.21 4.74 19.1 4.46L18.97 4.11C18.97 4.1 18.95 4.09 18.94 4.09C18.93 4.09 18.91 4.1 18.91 4.11L18.78 4.46C18.67 4.74 18.45 4.97 18.16 5.07L17.81 5.2C17.8 5.2 17.79 5.22 17.79 5.23C17.79 5.24 17.8 5.25999 17.81 5.25999L18.16 5.39C18.45 5.49 18.67 5.72 18.78 6L18.91 6.34999C18.91 6.35999 18.93 6.37 18.94 6.37C18.95 6.37 18.97 6.35999 18.97 6.34999L19.1 6C19.21 5.72 19.43 5.49 19.72 5.39L20.07 5.25999C20.08 5.25999 20.09 5.24 20.09 5.23C20.1 5.22 20.09 5.21 20.07 5.2Z" stroke="black" stroke-width="1.5" stroke-linecap="round" stroke-linejoin="round"/>
<path d="M7.37 18.53L6.78 18.31C6.3 18.14 5.93 17.76 5.75 17.29L5.53 16.71C5.52 16.69 5.5 16.67 5.48 16.67C5.46 16.67 5.43999 16.68 5.42999 16.71L5.21001 17.29C5.03001 17.76 4.65999 18.13 4.17999 18.31L3.59 18.53C3.57 18.54 3.55 18.56 3.55 18.58C3.55 18.6 3.56 18.62 3.59 18.63L4.17999 18.85C4.65999 19.02 5.03001 19.4 5.21001 19.87L5.42999 20.45C5.43999 20.47 5.46 20.49 5.48 20.49C5.5 20.49 5.52 20.48 5.53 20.45L5.75 19.87C5.93 19.4 6.3 19.03 6.78 18.85L7.37 18.63C7.39 18.62 7.41 18.6 7.41 18.58C7.41 18.56 7.39 18.54 7.37 18.53Z" fill="black" stroke="black" stroke-width="1.5" stroke-linecap="round" stroke-linejoin="round"/>
</svg>
