<svg width="24" height="24" viewBox="0 0 24 24" fill="none" xmlns="http://www.w3.org/2000/svg">
<path d="M12 21.25C16.2581 21.25 19.71 17.7981 19.71 13.54C19.71 9.28189 16.2581 5.83 12 5.83C7.74188 5.83 4.29001 9.28189 4.29001 13.54C4.29001 17.7981 7.74188 21.25 12 21.25Z" stroke="black" stroke-width="1.5" stroke-linecap="round" stroke-linejoin="round"/>
<path d="M12 4.81V2.75" stroke="black" stroke-width="1.5" stroke-linecap="round" stroke-linejoin="round"/>
<path d="M10.8 2.75H13.03" stroke="black" stroke-width="1.5" stroke-linecap="round" stroke-linejoin="round"/>
<path d="M17.46 7.57L18.17 6.86" stroke="black" stroke-width="1.5" stroke-linecap="round" stroke-linejoin="round"/>
<path d="M12 15.32C12.9831 15.32 13.78 14.5231 13.78 13.54C13.78 12.5569 12.9831 11.76 12 11.76C11.0169 11.76 10.22 12.5569 10.22 13.54C10.22 14.5231 11.0169 15.32 12 15.32Z" fill="black"/>
<path d="M12 13.03V9.94" stroke="black" stroke-width="1.5" stroke-linecap="round" stroke-linejoin="round"/>
</svg>
