<svg width="24" height="24" viewBox="0 0 24 24" fill="none" xmlns="http://www.w3.org/2000/svg">
<path d="M16.11 21.25H7.89C6.19 21.25 4.81 19.87 4.81 18.17V5.84001C4.81 4.14001 6.19 2.76001 7.89 2.76001H16.11C17.81 2.76001 19.19 4.14001 19.19 5.84001V18.17C19.19 19.87 17.81 21.25 16.11 21.25Z" stroke="black" stroke-width="1.5" stroke-linecap="round" stroke-linejoin="round"/>
<path d="M12 14.05C14.2699 14.05 16.11 12.2099 16.11 9.94002C16.11 7.67013 14.2699 5.83002 12 5.83002C9.73011 5.83002 7.89 7.67013 7.89 9.94002C7.89 12.2099 9.73011 14.05 12 14.05Z" stroke="black" stroke-width="1.5" stroke-linecap="round" stroke-linejoin="round"/>
<path d="M12.02 10.69C11.61 10.69 11.27 10.35 11.27 9.94C11.27 9.53 11.6 9.19 12.01 9.19H12.02C12.43 9.19 12.77 9.53 12.77 9.94C12.77 10.35 12.43 10.69 12.02 10.69Z" fill="black"/>
<path d="M16.11 14.06L14.06 12" stroke="black" stroke-width="1.5" stroke-linecap="round" stroke-linejoin="round"/>
<path d="M9.94 18.17H14.06" stroke="black" stroke-width="1.5" stroke-linecap="round" stroke-linejoin="round"/>
</svg>
