<svg width="24" height="24" viewBox="0 0 24 24" fill="none" xmlns="http://www.w3.org/2000/svg">
<path d="M12.01 6.58C10.15 6.58 8.64001 8.09 8.64001 9.94C8.64001 11.8 10.15 13.31 12.01 13.31C12.66 13.31 13.27 13.11 13.78 12.78L13.53 12.53C13.24 12.24 13.24 11.76 13.53 11.47C13.82 11.18 14.3 11.18 14.59 11.47L14.84 11.72C15.17 11.21 15.37 10.6 15.37 9.94C15.37 8.09 13.86 6.58 12.01 6.58ZM12.03 10.69C11.61 10.69 11.27 10.36 11.27 9.94C11.27 9.53 11.6 9.19 12.01 9.19H12.03C12.44 9.19 12.78 9.53 12.78 9.94C12.78 10.36 12.44 10.69 12.03 10.69Z" fill="black"/>
<path d="M16.12 2H7.89C5.78 2 4.06 3.72 4.06 5.83V18.17C4.06 20.28 5.78 22 7.89 22H16.12C18.23 22 19.95 20.28 19.95 18.17V5.83C19.95 3.72 18.23 2 16.12 2ZM16.65 13.53C16.94 13.82 16.94 14.29 16.65 14.59C16.5 14.73 16.31 14.81 16.12 14.81C15.92 14.81 15.73 14.73 15.59 14.59L14.86 13.86C14.06 14.45 13.07 14.81 12.01 14.81C9.31999 14.81 7.14 12.62 7.14 9.94C7.14 7.26 9.31999 5.08 12.01 5.08C14.69 5.08 16.87 7.26 16.87 9.94C16.87 11.01 16.51 12 15.92 12.8L16.65 13.53ZM9.2 18.17C9.2 17.75 9.54 17.42 9.95 17.42H14.06C14.47 17.42 14.81 17.75 14.81 18.17C14.81 18.58 14.47 18.92 14.06 18.92H9.95C9.54 18.92 9.2 18.58 9.2 18.17Z" fill="black"/>
</svg>
