<svg width="24" height="24" viewBox="0 0 24 24" fill="none" xmlns="http://www.w3.org/2000/svg">
<path d="M16.8 7.25C17.24 6.28 17.22 4.79 17.2 4.45C17.19 4.25 17.09 4.08001 16.92 3.99001C16.76 3.89001 16.55 3.88001 16.38 3.96001C16.21 4.04001 15.04 4.61 14.15 5.18C13.68 3.76 12.39 2.89 12.32 2.84C12.12 2.72 11.88 2.72 11.68 2.84C11.61 2.89 10.32 3.77 9.85 5.18C8.96 4.6 7.79 4.04001 7.62 3.96001C7.45 3.88001 7.24 3.89001 7.08 3.99001C6.92 4.08001 6.81 4.26 6.8 4.45C6.78 4.79 6.76 6.28 7.2 7.25" stroke="black" stroke-width="1.5" stroke-linecap="round" stroke-linejoin="round"/>
<path d="M12 21.25C15.58 21.25 18.94 14.99 18.94 11.21C18.94 8.79 17.56 5.88999 10.92 6.25999C6.14 6.57999 5.07 9.09 5.07 11.21C5.06 14.99 8.42 21.25 12 21.25Z" stroke="black" stroke-width="1.5" stroke-linecap="round" stroke-linejoin="round"/>
<path d="M16.11 14.06C15.54 14.06 15.08 13.6 15.08 13.03C15.08 12.46 15.53 12 16.1 12H16.11C16.68 12 17.14 12.46 17.14 13.03C17.14 13.6 16.68 14.06 16.11 14.06Z" fill="black"/>
<path d="M7.89 14.06C7.32 14.06 6.86 13.6 6.86 13.03C6.86 12.46 7.31 12 7.88 12H7.89C8.46 12 8.92 12.46 8.92 13.03C8.92 13.6 8.46 14.06 7.89 14.06Z" fill="black"/>
<path d="M12.01 14.06C11.44 14.06 10.98 13.6 10.98 13.03C10.98 12.46 11.43 12 12 12H12.01C12.58 12 13.04 12.46 13.04 13.03C13.04 13.6 12.58 14.06 12.01 14.06Z" fill="black"/>
<path d="M10.46 18.17C9.88999 18.17 9.42999 17.71 9.42999 17.14C9.42999 16.57 9.87999 16.11 10.45 16.11H10.46C11.03 16.11 11.49 16.57 11.49 17.14C11.49 17.71 11.03 18.17 10.46 18.17Z" fill="black"/>
<path d="M13.54 18.17C12.97 18.17 12.51 17.71 12.51 17.14C12.51 16.57 12.96 16.11 13.53 16.11H13.54C14.11 16.11 14.57 16.57 14.57 17.14C14.57 17.71 14.11 18.17 13.54 18.17Z" fill="black"/>
<path d="M9.95 9.94C9.38 9.94 8.92 9.48 8.92 8.91C8.92 8.34 9.37 7.88 9.94 7.88H9.95C10.52 7.88 10.98 8.34 10.98 8.91C10.98 9.48 10.52 9.94 9.95 9.94Z" fill="black"/>
<path d="M14.06 9.94C13.49 9.94 13.03 9.48 13.03 8.91C13.03 8.34 13.48 7.88 14.05 7.88H14.06C14.63 7.88 15.09 8.34 15.09 8.91C15.08 9.48 14.62 9.94 14.06 9.94Z" fill="black"/>
</svg>
