<svg width="24" height="24" viewBox="0 0 24 24" fill="none" xmlns="http://www.w3.org/2000/svg">
<path d="M9.94 9.84L10.85 8.98001H6.29001L7.20001 9.84" stroke="black" stroke-width="1.5" stroke-linecap="round" stroke-linejoin="round"/>
<path d="M9.94 15.89V20.21H7.20001V15.89" stroke="black" stroke-width="1.5" stroke-linecap="round" stroke-linejoin="round"/>
<path d="M7.20001 15.89L6.29001 15.02H10.85L9.94 15.89" stroke="black" stroke-width="1.5" stroke-linecap="round" stroke-linejoin="round"/>
<path d="M7.20001 14.16V9.84H9.94V14.16" stroke="black" stroke-width="1.5" stroke-linecap="round" stroke-linejoin="round"/>
<path d="M9.94 14.16L10.85 15.02H6.29001L7.20001 14.16" stroke="black" stroke-width="1.5" stroke-linecap="round" stroke-linejoin="round"/>
<path d="M7.20001 8.11001V3.79001H9.94V8.11001" stroke="black" stroke-width="1.5" stroke-linecap="round" stroke-linejoin="round"/>
<path d="M9.94 8.11001L10.85 8.98001H6.29001L7.20001 8.11001" stroke="black" stroke-width="1.5" stroke-linecap="round" stroke-linejoin="round"/>
<path d="M5.77189 7.82354C6.24051 7.35491 5.96193 6.31652 5.14965 5.50424C4.33736 4.69196 3.29897 4.41338 2.83035 4.882C2.36172 5.35062 2.64033 6.38899 3.45261 7.20128C4.26489 8.01356 5.30326 8.29216 5.77189 7.82354Z" stroke="black" stroke-width="1.5" stroke-linecap="round" stroke-linejoin="round"/>
<path d="M5.77189 7.82354C6.24051 7.35491 5.96193 6.31652 5.14965 5.50424C4.33736 4.69196 3.29897 4.41338 2.83035 4.882C2.36172 5.35062 2.64033 6.38899 3.45261 7.20128C4.26489 8.01356 5.30326 8.29216 5.77189 7.82354Z" stroke="black" stroke-width="1.5" stroke-linecap="round" stroke-linejoin="round"/>
<path d="M14.06 9.84L13.15 8.98001H17.71L16.8 9.84" stroke="black" stroke-width="1.5" stroke-linecap="round" stroke-linejoin="round"/>
<path d="M14.06 15.89V20.21H16.8V15.89" stroke="black" stroke-width="1.5" stroke-linecap="round" stroke-linejoin="round"/>
<path d="M16.8 15.89L17.71 15.02H13.15L14.06 15.89" stroke="black" stroke-width="1.5" stroke-linecap="round" stroke-linejoin="round"/>
<path d="M16.8 14.16V9.84H14.06V14.16" stroke="black" stroke-width="1.5" stroke-linecap="round" stroke-linejoin="round"/>
<path d="M14.06 14.16L13.15 15.02H17.71L16.8 14.16" stroke="black" stroke-width="1.5" stroke-linecap="round" stroke-linejoin="round"/>
<path d="M16.8 8.11001V3.79001H14.06V8.11001" stroke="black" stroke-width="1.5" stroke-linecap="round" stroke-linejoin="round"/>
<path d="M14.06 8.11001L13.15 8.98001H17.71L16.8 8.11001" stroke="black" stroke-width="1.5" stroke-linecap="round" stroke-linejoin="round"/>
<path d="M20.5428 13.3588C21.3551 12.5465 21.6337 11.5081 21.1651 11.0395C20.6964 10.5709 19.6581 10.8494 18.8458 11.6617C18.0335 12.474 17.7549 13.5124 18.2235 13.981C18.6921 14.4497 19.7305 14.1711 20.5428 13.3588Z" stroke="black" stroke-width="1.5" stroke-linecap="round" stroke-linejoin="round"/>
<path d="M20.5428 13.3588C21.3551 12.5465 21.6337 11.5081 21.1651 11.0395C20.6964 10.5709 19.6581 10.8494 18.8458 11.6617C18.0335 12.474 17.7549 13.5124 18.2235 13.981C18.6921 14.4497 19.7305 14.1711 20.5428 13.3588Z" stroke="black" stroke-width="1.5" stroke-linecap="round" stroke-linejoin="round"/>
</svg>
