<svg width="24" height="24" viewBox="0 0 24 24" fill="none" xmlns="http://www.w3.org/2000/svg">
<path d="M21.25 10.05H20.71C20.32 8.95 19.43 8.21999 18.22 8.01999C17.47 7.89999 15.69 7.88 15.47 7.87H8.45C8.25 7.88 6.47001 7.89999 5.71001 8.01999C4.52001 8.20999 3.65 8.91999 3.25 9.99999C3.24 10.02 3.24 10.03 3.23 10.05H2.75C2.34 10.05 2 10.39 2 10.8C2 11.21 2.34 11.55 2.75 11.55H3.00999C3.03999 12.51 3.34 13.44 3.75 14.11C3.97 14.48 4.24 14.81 4.55 15.09C5.86 16.31 8.26 16.85 10.67 14.36C11.28 13.74 11.7 13.14 11.97 12.5C12.23 13.14 12.65 13.74 13.26 14.37C14.63 15.77 15.9 16.12 16.83 16.12C16.97 16.12 17.11 16.12 17.24 16.1C18.43 15.97 19.5 15.24 20.19 14.11C20.62 13.39 20.87 12.45 20.9 11.55H21.25C21.66 11.55 22 11.21 22 10.8C22 10.39 21.66 10.05 21.25 10.05Z" fill="black"/>
</svg>
