<svg width="24" height="24" viewBox="0 0 24 24" fill="none" xmlns="http://www.w3.org/2000/svg">
<path d="M4.73001 15.25H2.73001C2.5311 15.25 2.34033 15.329 2.19968 15.4697C2.05903 15.6103 1.98001 15.8011 1.98001 16C1.98001 16.1989 2.05903 16.3897 2.19968 16.5303C2.34033 16.671 2.5311 16.75 2.73001 16.75H4.73001C4.92892 16.75 5.11969 16.671 5.26034 16.5303C5.40099 16.3897 5.48001 16.1989 5.48001 16C5.48001 15.8011 5.40099 15.6103 5.26034 15.4697C5.11969 15.329 4.92892 15.25 4.73001 15.25Z" fill="black"/>
<path d="M7.34 10.27L5.94 8.87C5.87134 8.79632 5.78854 8.73721 5.69654 8.69622C5.60454 8.65523 5.50523 8.63319 5.40453 8.63141C5.30382 8.62963 5.2038 8.64816 5.11041 8.68588C5.01702 8.7236 4.93218 8.77975 4.86097 8.85096C4.78975 8.92218 4.7336 9.00702 4.69588 9.10041C4.65816 9.19379 4.63964 9.29382 4.64141 9.39452C4.64319 9.49523 4.66523 9.59454 4.70622 9.68654C4.74722 9.77854 4.80632 9.86134 4.88 9.93L6.28 11.33C6.42052 11.4707 6.61116 11.5498 6.81 11.55C7.008 11.5457 7.19716 11.4672 7.34 11.33C7.48046 11.1894 7.55934 10.9988 7.55934 10.8C7.55934 10.6013 7.48046 10.4106 7.34 10.27Z" fill="black"/>
<path d="M12 9.44C12.1981 9.43741 12.3874 9.35756 12.5275 9.21747C12.6676 9.07737 12.7474 8.88811 12.75 8.69V6.69C12.75 6.49109 12.671 6.30032 12.5303 6.15967C12.3897 6.01902 12.1989 5.94 12 5.94C11.8011 5.94 11.6103 6.01902 11.4697 6.15967C11.329 6.30032 11.25 6.49109 11.25 6.69V8.69C11.2526 8.88811 11.3324 9.07737 11.4725 9.21747C11.6126 9.35756 11.8019 9.43741 12 9.44Z" fill="black"/>
<path d="M12 10.84C11.1966 10.8431 10.4051 11.0346 9.68912 11.3989C8.97309 11.7632 8.35243 12.2903 7.87696 12.9379C7.40148 13.5855 7.08442 14.3355 6.95123 15.1278C6.81803 15.9201 6.87241 16.7325 7.11 17.5C7.15543 17.6558 7.25018 17.7926 7.38 17.89C7.50982 17.9874 7.66772 18.04 7.83 18.04H16.17C16.3323 18.04 16.4902 17.9874 16.62 17.89C16.7498 17.7926 16.8446 17.6558 16.89 17.5C17.1276 16.7325 17.182 15.9201 17.0488 15.1278C16.9156 14.3355 16.5985 13.5855 16.123 12.9379C15.6476 12.2903 15.0269 11.7632 14.3109 11.3989C13.5948 11.0346 12.8034 10.8431 12 10.84Z" fill="black"/>
<path d="M19.12 8.87001C18.9794 8.72956 18.7888 8.65067 18.59 8.65067C18.3913 8.65067 18.2006 8.72956 18.06 8.87001L16.66 10.27C16.5196 10.4106 16.4407 10.6013 16.4407 10.8C16.4407 10.9988 16.5196 11.1894 16.66 11.33C16.8029 11.4672 16.992 11.5457 17.19 11.55C17.3889 11.5498 17.5795 11.4707 17.72 11.33L19.12 9.93001C19.2605 9.78938 19.3394 9.59876 19.3394 9.40001C19.3394 9.20125 19.2605 9.01063 19.12 8.87001Z" fill="black"/>
<path d="M21.25 15.25H19.25C19.0511 15.25 18.8603 15.329 18.7197 15.4697C18.579 15.6103 18.5 15.8011 18.5 16C18.5 16.1989 18.579 16.3897 18.7197 16.5303C18.8603 16.671 19.0511 16.75 19.25 16.75H21.25C21.4489 16.75 21.6397 16.671 21.7803 16.5303C21.921 16.3897 22 16.1989 22 16C22 15.8011 21.921 15.6103 21.7803 15.4697C21.6397 15.329 21.4489 15.25 21.25 15.25Z" fill="black"/>
</svg>
