<svg width="24" height="24" viewBox="0 0 24 24" fill="none" xmlns="http://www.w3.org/2000/svg">
<path d="M4.59 19.41L10.76 13.24" stroke="black" stroke-width="1.5" stroke-linecap="round" stroke-linejoin="round"/>
<path d="M18.23 20.34L3.66 5.77C7.69 1.74 14.21 1.74 18.23 5.77C22.26 9.79 22.26 16.31 18.23 20.34Z" stroke="black" stroke-width="1.5" stroke-linecap="round" stroke-linejoin="round"/>
<path d="M18.5 6.25999C18.55 7.10999 18.6 9.62999 17.06 12.28C16.15 13.84 15.04 14.86 14.22 15.46" stroke="black" stroke-width="1.5" stroke-linecap="round" stroke-linejoin="round"/>
<path d="M17.71 5.47C16.86 5.42 14.34 5.36999 11.69 6.90999C10.13 7.81999 9.10999 8.92999 8.50999 9.74999" stroke="black" stroke-width="1.5" stroke-linecap="round" stroke-linejoin="round"/>
<path d="M3.66 5.77L2.75 6.68" stroke="black" stroke-width="1.5" stroke-linecap="round" stroke-linejoin="round"/>
<path d="M8.21001 10.32L7.3 11.23" stroke="black" stroke-width="1.5" stroke-linecap="round" stroke-linejoin="round"/>
<path d="M13.68 15.79L12.77 16.7" stroke="black" stroke-width="1.5" stroke-linecap="round" stroke-linejoin="round"/>
<path d="M18.23 20.34L17.32 21.25" stroke="black" stroke-width="1.5" stroke-linecap="round" stroke-linejoin="round"/>
</svg>
