<svg width="24" height="24" viewBox="0 0 24 24" fill="none" xmlns="http://www.w3.org/2000/svg">
<path d="M10 20.28C7.98458 19.8808 6.16639 18.8041 4.84751 17.2288C3.52864 15.6534 2.78847 13.6742 2.75 11.62C2.79988 9.21607 3.80226 6.93033 5.53678 5.26518C7.27131 3.60003 9.59605 2.69175 12 2.73999C14.404 2.69175 16.7287 3.60003 18.4632 5.26518C20.1977 6.93033 21.2001 9.21607 21.25 11.62C21.2138 13.6759 20.4747 15.6575 19.1556 17.2349C17.8365 18.8123 16.0171 19.8905 14 20.29" stroke="black" stroke-width="1.5" stroke-linecap="round" stroke-linejoin="round"/>
<path d="M9.99 20.3L9.01 17.53" stroke="black" stroke-width="1.5" stroke-linecap="round" stroke-linejoin="round"/>
<path d="M9.99 20.3L7.1 21.24" stroke="black" stroke-width="1.5" stroke-linecap="round" stroke-linejoin="round"/>
<path d="M12.03 7.88998V12" stroke="black" stroke-width="1.5" stroke-linecap="round" stroke-linejoin="round"/>
<path d="M12 14.06C11.7922 14.0678 11.5914 14.1366 11.4224 14.2577C11.2534 14.3789 11.1238 14.547 11.0497 14.7413C10.9755 14.9355 10.9602 15.1473 11.0055 15.3502C11.0508 15.5531 11.1548 15.7382 11.3045 15.8825C11.4542 16.0268 11.643 16.1238 11.8475 16.1616C12.0519 16.1994 12.263 16.1762 12.4543 16.0949C12.6457 16.0136 12.809 15.8779 12.9238 15.7045C13.0386 15.5312 13.0998 15.3279 13.1 15.12C13.0896 14.8352 12.9692 14.5656 12.764 14.3679C12.5588 14.1702 12.2849 14.0598 12 14.06Z" fill="black"/>
</svg>
