<svg width="24" height="24" viewBox="0 0 24 24" fill="none" xmlns="http://www.w3.org/2000/svg">
<path d="M21.78 8.06L19.78 6.11L17.88 4.16L15.94 2.22C15.8713 2.14631 15.7885 2.08721 15.6965 2.04622C15.6046 2.00523 15.5052 1.98319 15.4045 1.98141C15.3038 1.97963 15.2038 1.99816 15.1104 2.03588C15.017 2.0736 14.9322 2.12974 14.861 2.20096C14.7898 2.27218 14.7336 2.35702 14.6959 2.4504C14.6582 2.54379 14.6396 2.64382 14.6414 2.74452C14.6432 2.84523 14.6652 2.94454 14.7062 3.03654C14.7472 3.12854 14.8063 3.21134 14.88 3.28L16.29 4.69L13.46 7.53L11.07 5.14C11.0011 5.06924 10.9186 5.01301 10.8276 4.97461C10.7366 4.93621 10.6388 4.91643 10.54 4.91643C10.4412 4.91643 10.3434 4.93621 10.2524 4.97461C10.1614 5.01301 10.079 5.06924 10.01 5.14C9.86823 5.2793 9.78753 5.46918 9.78566 5.66793C9.78378 5.86668 9.86088 6.05805 10 6.2L11.5 7.69C11.305 7.77961 11.1286 7.90513 10.98 8.06L4.17001 14.87C3.7743 15.2689 3.55226 15.8081 3.55226 16.37C3.55226 16.9319 3.7743 17.4711 4.17001 17.87L4.61001 18.31L2.22001 20.71C2.07956 20.8506 2.00067 21.0413 2.00067 21.24C2.00067 21.4388 2.07956 21.6294 2.22001 21.77C2.36286 21.9072 2.55201 21.9857 2.75001 21.99C2.94801 21.9857 3.13717 21.9072 3.28001 21.77L5.67001 19.38L6.11001 19.82C6.51227 20.2171 7.05475 20.4399 7.62001 20.44C8.18224 20.4394 8.72143 20.2165 9.12001 19.82L15.94 13C16.0861 12.8514 16.2106 12.6831 16.31 12.5L17.8 14C17.9417 14.1389 18.1316 14.2177 18.33 14.22C18.528 14.2157 18.7172 14.1372 18.86 14C19.0005 13.8594 19.0794 13.6688 19.0794 13.47C19.0794 13.2713 19.0005 13.0806 18.86 12.94L16.47 10.55L19.3 7.7L20.72 9.12C20.8606 9.26045 21.0513 9.33934 21.25 9.33934C21.4488 9.33934 21.6394 9.26045 21.78 9.12C21.9205 8.97938 21.9994 8.78875 21.9994 8.59C21.9994 8.39125 21.9205 8.20063 21.78 8.06ZM11.78 10.74C11.8508 10.8089 11.907 10.8914 11.9454 10.9824C11.9838 11.0734 12.0036 11.1712 12.0036 11.27C12.0036 11.3688 11.9838 11.4666 11.9454 11.5576C11.907 11.6486 11.8508 11.7311 11.78 11.8C11.7111 11.8706 11.6286 11.9265 11.5375 11.9643C11.4464 12.0021 11.3486 12.021 11.25 12.02C11.1515 12.0205 11.0538 12.0012 10.9628 11.9635C10.8718 11.9257 10.7893 11.8701 10.72 11.8L10.03 11.11L11.09 10.05L11.78 10.74ZM9.62001 12.92C9.69077 12.9889 9.747 13.0714 9.7854 13.1624C9.8238 13.2534 9.84358 13.3512 9.84358 13.45C9.84358 13.5488 9.8238 13.6466 9.7854 13.7376C9.747 13.8286 9.69077 13.9111 9.62001 13.98C9.55111 14.0506 9.46863 14.1065 9.37753 14.1443C9.28644 14.1821 9.18863 14.201 9.09001 14.2C8.99286 14.2031 8.89605 14.187 8.80512 14.1527C8.71418 14.1184 8.63089 14.0665 8.56001 14L7.87001 13.31L8.93001 12.25L9.62001 12.92ZM7.44001 15.1C7.51077 15.1689 7.567 15.2514 7.6054 15.3424C7.6438 15.4334 7.66358 15.5312 7.66358 15.63C7.66358 15.7288 7.6438 15.8266 7.6054 15.9176C7.567 16.0086 7.51077 16.0911 7.44001 16.16C7.37111 16.2306 7.28863 16.2865 7.19754 16.3243C7.10644 16.3621 7.00863 16.381 6.91001 16.38C6.81147 16.3805 6.71383 16.3612 6.62282 16.3235C6.53181 16.2857 6.44926 16.2301 6.38001 16.16L5.69001 15.47L6.75001 14.41L7.44001 15.1ZM15.44 9.47L14.55 8.59L17.38 5.75L18.27 6.64L15.44 9.47Z" fill="black"/>
</svg>
