<svg width="24" height="24" viewBox="0 0 24 24" fill="none" xmlns="http://www.w3.org/2000/svg">
<path d="M6.64 19.3L4.69 17.35C4.15 16.81 4.15 15.94 4.69 15.4L11.51 8.58C12.05 8.04 12.92 8.04 13.46 8.58L15.41 10.53C15.95 11.07 15.95 11.94 15.41 12.48L8.59 19.3C8.05 19.84 7.18 19.84 6.64 19.3Z" stroke="black" stroke-width="1.5" stroke-linecap="round" stroke-linejoin="round"/>
<path d="M10.54 5.67L18.33 13.46" stroke="black" stroke-width="1.5" stroke-linecap="round" stroke-linejoin="round"/>
<path d="M21.25 8.59L15.41 2.75" stroke="black" stroke-width="1.5" stroke-linecap="round" stroke-linejoin="round"/>
<path d="M5.67 18.33L2.75 21.25" stroke="black" stroke-width="1.5" stroke-linecap="round" stroke-linejoin="round"/>
<path d="M17.3562 4.69431L13.4601 8.59042L15.4046 10.5349L19.3007 6.63883L17.3562 4.69431Z" stroke="black" stroke-width="1.5" stroke-linecap="round" stroke-linejoin="round"/>
<path d="M10.55 10.55L11.27 11.27" stroke="black" stroke-width="1.5" stroke-linecap="round" stroke-linejoin="round"/>
<path d="M8.37 12.73L9.09 13.45" stroke="black" stroke-width="1.5" stroke-linecap="round" stroke-linejoin="round"/>
<path d="M6.19 14.91L6.91 15.63" stroke="black" stroke-width="1.5" stroke-linecap="round" stroke-linejoin="round"/>
</svg>
