<svg width="24" height="24" viewBox="0 0 24 24" fill="none" xmlns="http://www.w3.org/2000/svg">
<path d="M19.07 15.45C21.97 12.55 21.97 7.84 19.07 4.93C16.17 2.03 11.46 2.03 8.55 4.93C6.1 7.38 5.73 11.11 7.41 13.96L3.28999 18.08C2.55999 18.81 2.55999 19.98 3.28999 20.71C4.01999 21.44 5.19 21.44 5.92 20.71L10.04 16.59C12.89 18.27 16.62 17.9 19.07 15.45Z" stroke="black" stroke-width="1.5" stroke-linecap="round" stroke-linejoin="round"/>
<path d="M6.8 8.43L15.57 17.2" stroke="black" stroke-width="1.5" stroke-linecap="round" stroke-linejoin="round"/>
<path d="M19.71 21.25C20.5605 21.25 21.25 20.5605 21.25 19.71C21.25 18.8595 20.5605 18.17 19.71 18.17C18.8595 18.17 18.17 18.8595 18.17 19.71C18.17 20.5605 18.8595 21.25 19.71 21.25Z" stroke="black" stroke-width="1.5" stroke-linecap="round" stroke-linejoin="round"/>
</svg>
