<svg width="24" height="24" viewBox="0 0 24 24" fill="none" xmlns="http://www.w3.org/2000/svg">
<path d="M19.6 4.4C18.06 2.85 16 2 13.81 2C11.63 2 9.57 2.85 8.02 4.4C5.52 6.9 4.93001 10.7 6.49001 13.82L2.75999 17.55C2.26999 18.04 2 18.69 2 19.39C2 20.09 2.26999 20.74 2.75999 21.24C3.25999 21.73 3.91 22 4.61 22C5.31 22 5.96 21.73 6.45 21.24L10.18 17.51C13.3 19.07 17.1 18.48 19.6 15.98C22.79 12.78 22.79 7.59 19.6 4.4ZM10.42 15.94C10.13 15.77 9.74999 15.82 9.50999 16.06L5.39 20.17C4.97 20.59 4.24001 20.59 3.82001 20.17C3.62001 19.96 3.5 19.69 3.5 19.39C3.5 19.09 3.62001 18.82 3.82001 18.61L7.94 14.49C8.18 14.25 8.23 13.87 8.06 13.58C7.37 12.42 7.1 11.13 7.16 9.85L14.15 16.84C12.88 16.9 11.58 16.63 10.42 15.94Z" fill="black"/>
<path d="M19.71 17.42C18.44 17.42 17.42 18.44 17.42 19.71C17.42 20.97 18.44 22 19.71 22C20.97 22 22 20.97 22 19.71C22 18.44 20.97 17.42 19.71 17.42Z" fill="black"/>
</svg>
