<svg width="24" height="24" viewBox="0 0 24 24" fill="none" xmlns="http://www.w3.org/2000/svg">
<path d="M14.29 11.67V5.83C14.29 3.72 12.57 2 10.46 2C8.34001 2 6.62001 3.72 6.62001 5.83V11.67C5.31001 12.79 4.57001 14.39 4.57001 16.11C4.57001 19.36 7.21001 22 10.46 22C13.71 22 16.35 19.36 16.35 16.11C16.35 14.39 15.6 12.79 14.29 11.67ZM8.21001 16.11C8.21001 15.14 8.84001 14.31 9.71001 14V8.92C9.71001 8.5 10.04 8.17 10.46 8.17C10.87 8.17 11.21 8.5 11.21 8.92V14C12.08 14.31 12.71 15.14 12.71 16.11C12.71 17.35 11.7 18.36 10.46 18.36C9.22001 18.36 8.21001 17.35 8.21001 16.11Z" fill="black"/>
<path d="M17.65 10.22H16.62C16.21 10.22 15.88 10.56 15.88 10.97C15.88 11.39 16.21 11.72 16.62 11.72H17.65C18.07 11.72 18.4 11.39 18.4 10.97C18.4 10.56 18.07 10.22 17.65 10.22Z" fill="black"/>
<path d="M16.62 5.56H17.65C18.07 5.56 18.4 5.22 18.4 4.81C18.4 4.39 18.07 4.06 17.65 4.06H16.62C16.21 4.06 15.88 4.39 15.88 4.81C15.88 5.22 16.21 5.56 16.62 5.56Z" fill="black"/>
<path d="M18.68 7.14H16.62C16.21 7.14 15.88 7.47 15.88 7.89C15.88 8.3 16.21 8.64 16.62 8.64H18.68C19.09 8.64 19.43 8.3 19.43 7.89C19.43 7.47 19.09 7.14 18.68 7.14Z" fill="black"/>
</svg>
