<svg width="24" height="24" viewBox="0 0 24 24" fill="none" xmlns="http://www.w3.org/2000/svg">
<path d="M15.04 12.02V5.83C15.04 4.13 13.66 2.75 11.96 2.75C10.26 2.75 8.88 4.13 8.88 5.83V12.02C7.64 12.96 6.82001 14.43 6.82001 16.11C6.82001 18.95 9.12001 21.25 11.96 21.25C14.8 21.25 17.1 18.95 17.1 16.11C17.1 14.44 16.28 12.96 15.04 12.02Z" stroke="black" stroke-width="1.5" stroke-linecap="round" stroke-linejoin="round"/>
<path d="M11.96 18.92C13.2026 18.92 14.21 17.9126 14.21 16.67C14.21 15.4274 13.2026 14.42 11.96 14.42C10.7174 14.42 9.71001 15.4274 9.71001 16.67C9.71001 17.9126 10.7174 18.92 11.96 18.92Z" fill="black"/>
<path d="M11.96 16.11V8.92" stroke="black" stroke-width="1.5" stroke-linecap="round" stroke-linejoin="round"/>
<path d="M18.12 4.81H19.15" stroke="black" stroke-width="1.5" stroke-linecap="round" stroke-linejoin="round"/>
<path d="M18.12 7.89H20.18" stroke="black" stroke-width="1.5" stroke-linecap="round" stroke-linejoin="round"/>
<path d="M18.12 10.97H19.15" stroke="black" stroke-width="1.5" stroke-linecap="round" stroke-linejoin="round"/>
</svg>
