<svg width="24" height="24" viewBox="0 0 24 24" fill="none" xmlns="http://www.w3.org/2000/svg">
<path d="M13.54 12.02V5.83C13.54 4.13 12.16 2.75 10.46 2.75C8.76001 2.75 7.38 4.13 7.38 5.83V12.02C6.14 12.96 5.32001 14.43 5.32001 16.11C5.32001 18.95 7.62001 21.25 10.46 21.25C13.3 21.25 15.6 18.95 15.6 16.11C15.6 14.44 14.78 12.96 13.54 12.02Z" stroke="black" stroke-width="1.5" stroke-linecap="round" stroke-linejoin="round"/>
<path d="M10.46 18.36C11.7026 18.36 12.71 17.3526 12.71 16.11C12.71 14.8674 11.7026 13.86 10.46 13.86C9.21737 13.86 8.21001 14.8674 8.21001 16.11C8.21001 17.3526 9.21737 18.36 10.46 18.36Z" fill="black"/>
<path d="M10.46 16.11V8.92" stroke="black" stroke-width="1.5" stroke-linecap="round" stroke-linejoin="round"/>
<path d="M16.62 4.81H17.65" stroke="black" stroke-width="1.5" stroke-linecap="round" stroke-linejoin="round"/>
<path d="M16.62 7.89H18.68" stroke="black" stroke-width="1.5" stroke-linecap="round" stroke-linejoin="round"/>
<path d="M16.62 10.97H17.65" stroke="black" stroke-width="1.5" stroke-linecap="round" stroke-linejoin="round"/>
</svg>
