<svg width="24" height="24" viewBox="0 0 24 24" fill="none" xmlns="http://www.w3.org/2000/svg">
<path d="M21.7 12C21.89 11.63 22 11.21 22 10.78C22 9.36003 20.84 8.21002 19.41 8.21002H16.84C17.56 5.37002 17.09 3.46001 15.44 2.51001C15.05 2.29001 13.73 1.74001 12.77 2.14001C12.35 2.32001 12.06 2.66002 11.94 3.15002C11.64 4.36002 11.35 5.49999 10.68 6.48999C10.34 6.97999 9.87001 7.55001 9.32001 7.89001V9.54999V9.69V18.27V18.93V19.84L10.68 20.29C11.44 20.55 12.24 20.68 13.05 20.68H18.18C19.61 20.68 20.78 19.52 20.78 18.1C20.78 18.02 20.78 17.94 20.77 17.86C21.52 17.39 22 16.57 22 15.66C22 15.23 21.89 14.81 21.7 14.44C21.89 14.07 22 13.65 22 13.22C22 12.79 21.89 12.37 21.7 12Z" fill="black"/>
<path d="M2.75 6.62C2.34 6.62 2 6.96 2 7.38V21.25C2 21.66 2.34 22 2.75 22H6.25C6.83 22 7.36 21.84 7.82 21.56V18.93V9.69V7.06C7.36 6.78 6.83 6.62 6.25 6.62H2.75ZM5.66 18.73C5.23 18.73 4.88 18.39 4.88 17.96C4.88 17.53 5.23 17.18 5.66 17.18C6.09 17.18 6.43 17.53 6.43 17.96C6.43 18.39 6.09 18.73 5.66 18.73Z" fill="black"/>
</svg>
