<svg width="24" height="24" viewBox="0 0 24 24" fill="none" xmlns="http://www.w3.org/2000/svg">
<path d="M9.75999 12.69C8.27999 12.69 7.04999 13.92 7.04999 15.4C7.04999 16.88 8.27999 18.11 9.75999 18.11C11.24 18.11 12.47 16.88 12.47 15.4V2.75H15.65C15.65 2.79 15.65 2.79 15.65 2.82C15.65 3.07 15.65 3.33 15.72 3.58C15.94 4.77 16.66 5.82 17.67 6.47C18.36 6.94 19.19 7.19 20.05 7.19C20.05 7.19 20.05 7.19 20.09 7.19V10.33H20.05C18.39 10.33 16.87 9.82 15.64 8.92V15.39C15.64 18.64 13 21.24 9.74999 21.24C6.49999 21.24 3.89999 18.64 3.89999 15.39C3.89999 12.14 6.49999 9.5 9.74999 9.5V12.69H9.75999Z" stroke="black" stroke-width="1.5" stroke-linecap="round" stroke-linejoin="round"/>
</svg>
