<svg width="24" height="24" viewBox="0 0 24 24" fill="none" xmlns="http://www.w3.org/2000/svg">
<path d="M9.58001 12.74C9.00051 12.74 8.43402 12.9118 7.95219 13.2338C7.47035 13.5557 7.09481 14.0133 6.87304 14.5487C6.65128 15.0841 6.59325 15.6733 6.70631 16.2416C6.81936 16.81 7.09842 17.3321 7.50819 17.7418C7.91795 18.1516 8.44003 18.4306 9.00839 18.5437C9.57676 18.6568 10.1659 18.5987 10.7013 18.377C11.2367 18.1552 11.6943 17.7797 12.0162 17.2978C12.3382 16.816 12.51 16.2495 12.51 15.67V2H16V2.08C15.9658 2.35226 15.9658 2.62774 16 2.9C16.1259 3.53431 16.3796 4.13632 16.7458 4.66931C17.112 5.20229 17.583 5.65506 18.13 6C18.8918 6.51403 19.7911 6.78591 20.71 6.78V10.18C19.0201 10.196 17.3695 9.67032 16 8.68V15.68C15.994 16.9316 15.6183 18.1536 14.92 19.1923C14.2217 20.231 13.232 21.0402 12.0753 21.5183C10.9185 21.9963 9.64627 22.1218 8.41841 21.879C7.19054 21.6362 6.06181 21.036 5.17401 20.1538C4.28621 19.2715 3.67894 18.1465 3.4285 16.9202C3.17806 15.6939 3.29561 14.4209 3.76639 13.2612C4.23717 12.1014 5.04018 11.1067 6.07453 10.402C7.10889 9.69718 8.32845 9.31381 9.58001 9.3V12.74Z" fill="black"/>
</svg>
