<svg width="24" height="24" viewBox="0 0 24 24" fill="none" xmlns="http://www.w3.org/2000/svg">
<path d="M12 2C6.49 2 2 6.49 2 12C2 17.51 6.49 22 12 22C17.51 22 22 17.51 22 12C22 6.49 17.51 2 12 2ZM16.56 10.33L12.45 13.42C12.43 13.43 12.4 13.44 12.38 13.46C12.35 13.47 12.33 13.48 12.3 13.49C12.21 13.54 12.1 13.57 12 13.57C11.9 13.57 11.8 13.54 11.71 13.5C11.69 13.49 11.67 13.48 11.64 13.47C11.62 13.46 11.6 13.45 11.58 13.44L8.57999 11.38C8.23999 11.15 8.15001 10.68 8.39001 10.34C8.62001 10 9.08999 9.91 9.42999 10.14L11.98 11.89L15.66 9.13C15.99 8.88 16.46 8.95 16.71 9.28C16.96 9.61 16.89 10.08 16.56 10.33Z" fill="black"/>
</svg>
