<svg width="24" height="24" viewBox="0 0 24 24" fill="none" xmlns="http://www.w3.org/2000/svg">
<path d="M12 22C16.93 22 20.8 18.23 20.8 13.42C20.8 7.76002 16.79 3.85001 13.05 2.09001C12.77 1.95001 12.43 1.97002 12.17 2.16002C11.9 2.34002 11.76 2.65001 11.79 3.01001C12.13 5.21001 11.91 8.04002 9.07001 9.31002C8.82001 8.74002 8.69001 7.97001 8.65001 7.34001C8.62001 7.04001 8.45001 6.77002 8.18001 6.63002C7.91001 6.49002 7.58001 6.49002 7.31001 6.64002C5.32001 7.75002 3.20001 10.51 3.20001 13.41C3.20001 18.47 6.82001 22 12 22Z" fill="black"/>
</svg>
