<svg width="24" height="24" viewBox="0 0 24 24" fill="none" xmlns="http://www.w3.org/2000/svg">
<path d="M14.57 20.22H9.42999V21.25H14.57V20.22Z" stroke="black" stroke-width="1.5" stroke-linecap="round" stroke-linejoin="round"/>
<path d="M18.17 14.06H5.84V14.6C5.84 17.71 8.36 20.23 11.47 20.23H12.54C15.65 20.23 18.17 17.71 18.17 14.6V14.06Z" stroke="black" stroke-width="1.5" stroke-linecap="round" stroke-linejoin="round"/>
<path d="M17.14 5.83H6.85999V14.05H17.14V5.83Z" stroke="black" stroke-width="1.5" stroke-linecap="round" stroke-linejoin="round"/>
<path d="M17.22 2.75H6.79001C6.26001 2.75 5.84 3.18 5.84 3.7V5.83H18.17V3.7C18.17 3.18 17.74 2.75 17.22 2.75Z" stroke="black" stroke-width="1.5" stroke-linecap="round" stroke-linejoin="round"/>
<path d="M18.74 14.06H5.25C5 14.06 4.79999 14.06 4.79999 14.06C4.79999 14.06 5 14.06 5.25 14.06H18.74ZM18.74 14.06C18.99 14.06 19.19 14.06 19.19 14.06C19.19 14.06 18.99 14.06 18.74 14.06Z" stroke="black" stroke-width="1.5" stroke-linecap="round" stroke-linejoin="round"/>
<path d="M14.06 9.94V8.92" stroke="black" stroke-width="1.5" stroke-linecap="round" stroke-linejoin="round"/>
</svg>
