<svg width="24" height="24" viewBox="0 0 24 24" fill="none" xmlns="http://www.w3.org/2000/svg">
<path d="M19.97 4.72C18.97 3.39 17.93 2.77 16.69 2.77C15.89 2.77 15.11 3.03 14.36 3.28H14.33C13.53 3.55 12.77 3.79 11.95 3.79C11.14 3.79 10.33 3.52 9.54 3.27C8.77 3.01 7.98 2.75 7.19 2.75C5.94 2.75 4.91999 3.39 3.98999 4.74C2.51999 6.87 3.34999 9.15 4.02999 11C4.32999 11.81 4.60998 12.59 4.60998 13.17C4.60998 16.17 5.24998 21.25 7.60998 21.25C9.22998 21.25 9.73999 19.37 10.18 17.69C10.64 15.93 11.05 14.7 12.01 14.7C12.84 14.7 13.15 15.5 13.59 17.43C13.97 19.12 14.44 21.21 16.44 21.21C19.23 21.21 19.44 15.05 19.44 13.16C19.44 12.6 19.71 11.83 20 11.02L20.02 10.99C20.66 9.12 21.5 6.79 19.97 4.72Z" stroke="black" stroke-width="1.5" stroke-linecap="round" stroke-linejoin="round"/>
</svg>
