<svg width="24" height="24" viewBox="0 0 24 24" fill="none" xmlns="http://www.w3.org/2000/svg">
<path d="M17.57 17.82C17.59 17.8 17.61 17.77 17.63 17.75C17.65 17.73 17.67 17.7 17.69 17.68C17.72 17.65 17.74 17.62 17.77 17.59C17.78 17.57 17.8 17.55 17.81 17.54C17.84 17.5 17.87 17.47 17.89 17.43C17.9 17.42 17.91 17.4 17.92 17.39C17.95 17.35 17.98 17.31 18.01 17.27C18.02 17.26 18.02 17.26 18.03 17.25C19.04 15.86 19.58 14.19 19.67 12.51C19.67 12.49 19.67 12.48 19.67 12.46C19.67 12.42 19.67 12.38 19.67 12.35C19.67 12.32 19.67 12.29 19.67 12.26C19.67 12.23 19.67 12.2 19.67 12.17C19.67 12.13 19.67 12.1 19.67 12.06C19.67 12.03 19.67 12.01 19.67 11.98C19.67 11.94 19.67 11.89 19.67 11.85C19.67 11.83 19.67 11.81 19.67 11.79C19.67 11.74 19.67 11.69 19.67 11.64C19.67 11.63 19.67 11.62 19.67 11.6C19.67 11.54 19.66 11.48 19.66 11.42C19.66 11.42 19.66 11.42 19.66 11.41C19.63 10.87 19.54 10.34 19.41 9.82C19.41 9.82 19.41 9.82 19.41 9.81C19.39 9.75 19.38 9.68 19.36 9.62C19.36 9.62 19.36 9.62 19.36 9.61C19.34 9.55 19.33 9.48 19.31 9.42C19.23 9.16 19.15 8.91 19.05 8.66V8.65C19.03 8.59 19 8.54 18.98 8.48C18.97 8.47 18.97 8.45 18.96 8.44C18.94 8.39 18.92 8.35 18.9 8.3C18.89 8.28 18.88 8.27 18.88 8.25C18.86 8.21 18.84 8.17 18.82 8.12C18.81 8.1 18.8 8.08 18.79 8.07C18.77 8.03 18.75 7.99 18.73 7.94C18.72 7.92 18.71 7.91 18.71 7.89C18.69 7.85 18.66 7.8 18.64 7.76C18.63 7.75 18.63 7.74 18.62 7.72C18.59 7.67 18.56 7.62 18.53 7.57L18.52 7.56C18.42 7.38 18.31 7.2 18.19 7.03C18.33 7.01 18.46 7 18.6 6.99C19.2 6.97 19.8 7.04 20.39 7.22C20.41 7.23 20.43 7.23 20.45 7.24C20.46 7.24 20.46 7.24 20.47 7.24C20.48 7.24 20.5 7.25 20.51 7.25C20.52 7.25 20.52 7.25 20.53 7.25C20.55 7.25 20.57 7.25 20.58 7.26C20.59 7.26 20.59 7.26 20.6 7.26C20.61 7.26 20.62 7.26 20.64 7.26C20.65 7.26 20.65 7.26 20.66 7.26C20.67 7.26 20.69 7.26 20.7 7.26C20.71 7.26 20.71 7.26 20.72 7.26C20.74 7.26 20.75 7.25 20.77 7.25C20.78 7.25 20.78 7.25 20.79 7.24C20.8 7.24 20.82 7.23 20.83 7.23C20.84 7.23 20.84 7.23 20.85 7.22C20.87 7.21 20.88 7.21 20.9 7.2C20.9 7.2 20.9 7.2 20.91 7.2C20.92 7.19 20.94 7.18 20.95 7.18C20.96 7.18 20.96 7.17 20.96 7.17C20.97 7.16 20.98 7.15 20.99 7.15L21 7.14C21.01 7.13 21.03 7.12 21.04 7.1C21.05 7.1 21.05 7.09 21.05 7.09C21.06 7.08 21.06 7.08 21.07 7.07C21.07 7.07 21.07 7.07 21.08 7.06C21.09 7.05 21.1 7.04 21.11 7.03C21.12 7.02 21.12 7.02 21.12 7.01C21.13 7 21.13 6.99 21.14 6.98C21.15 6.97 21.15 6.96 21.16 6.95C21.17 6.94 21.17 6.93 21.18 6.92C21.19 6.91 21.19 6.9 21.2 6.89C21.2 6.88 21.21 6.87 21.21 6.87C21.22 6.86 21.22 6.84 21.23 6.83V6.82C21.23 6.81 21.24 6.8 21.24 6.79C21.24 6.78 21.24 6.78 21.25 6.77C21.26 6.75 21.26 6.73 21.26 6.71C21.26 6.7 21.26 6.7 21.26 6.69C21.26 6.67 21.26 6.66 21.27 6.64C21.27 6.63 21.27 6.63 21.27 6.62C21.27 6.6 21.27 6.58 21.27 6.57C21.27 6.57 21.27 6.57 21.27 6.56C21.27 6.54 21.27 6.52 21.27 6.5C21.27 6.49 21.27 6.49 21.27 6.48C21.27 6.47 21.27 6.45 21.26 6.44C21.26 6.43 21.26 6.43 21.26 6.42C21.26 6.4 21.25 6.38 21.25 6.37C21.25 6.36 21.25 6.36 21.25 6.35C21.25 6.34 21.24 6.32 21.24 6.31C21.24 6.3 21.23 6.3 21.23 6.29C21.23 6.28 21.22 6.27 21.21 6.25C21.21 6.24 21.2 6.24 21.2 6.23C21.19 6.21 21.18 6.2 21.17 6.18C21.17 6.17 21.16 6.17 21.16 6.16C21.15 6.15 21.14 6.13 21.13 6.12C21.13 6.11 21.12 6.11 21.12 6.1C21.11 6.08 21.09 6.07 21.08 6.05C17.07 1.67 10.59 1.67 6.57998 6.05C6.53998 6.1 6.49001 6.15 6.45001 6.19C6.43001 6.22 6.4 6.25 6.38 6.27C6.36 6.29 6.34998 6.31 6.32998 6.33C6.29998 6.36 6.27 6.4 6.25 6.43C6.24 6.44 6.23 6.46 6.22 6.47C6.19 6.51 6.16 6.55 6.13 6.59C6.12 6.6 6.11998 6.61 6.10998 6.61C6.07998 6.66 6.04001 6.7 6.01001 6.75C4.92001 8.25 4.37 10.07 4.35 11.89C4.35 11.9 4.35 11.91 4.35 11.92C4.35 11.97 4.35 12.02 4.35 12.07C4.35 12.09 4.35 12.1 4.35 12.12C4.35 12.16 4.35 12.21 4.35 12.25C4.35 12.27 4.35 12.3 4.35 12.32C4.35 12.36 4.35 12.4 4.35 12.44C4.35 12.47 4.35 12.5 4.35 12.53C4.35 12.56 4.34998 12.6 4.35998 12.63C4.35998 12.67 4.36999 12.7 4.36999 12.74C4.36999 12.77 4.37 12.79 4.38 12.82C4.39 12.88 4.38999 12.93 4.39999 12.99C4.39999 13 4.39999 13 4.39999 13.01C4.40999 13.08 4.42001 13.14 4.42001 13.21C4.43001 13.27 4.44001 13.34 4.45001 13.4C4.45001 13.41 4.44999 13.42 4.45999 13.43C4.46999 13.48 4.47999 13.54 4.48999 13.59C4.48999 13.61 4.5 13.62 4.5 13.64C4.51 13.69 4.51999 13.74 4.52999 13.79C4.52999 13.81 4.54 13.82 4.54 13.84C4.55 13.89 4.56 13.93 4.57 13.98C4.57 14 4.57998 14.02 4.57998 14.04C4.58998 14.08 4.59998 14.13 4.60998 14.17C4.60998 14.19 4.61999 14.21 4.61999 14.23C4.62999 14.27 4.63999 14.32 4.64999 14.36C4.65999 14.38 4.66001 14.4 4.67001 14.42C4.68001 14.46 4.68999 14.51 4.70999 14.55C4.71999 14.57 4.72001 14.59 4.73001 14.61C4.74001 14.65 4.75998 14.7 4.76998 14.74C4.77998 14.76 4.78 14.78 4.79 14.8C4.8 14.84 4.81998 14.89 4.82998 14.93C4.83998 14.95 4.84 14.97 4.85 14.98C4.87 15.04 4.89 15.1 4.91 15.16C4.92 15.18 4.91999 15.19 4.92999 15.21C4.94999 15.26 4.96001 15.3 4.98001 15.34C4.99001 15.37 5.00001 15.39 5.01001 15.42C5.02001 15.45 5.03998 15.49 5.04998 15.52C5.05998 15.55 5.06999 15.58 5.08999 15.6C5.09999 15.63 5.12 15.66 5.13 15.69C5.14 15.72 5.16001 15.75 5.17001 15.77C5.18001 15.8 5.19999 15.83 5.20999 15.87C5.21999 15.9 5.23 15.92 5.25 15.95C5.27 15.98 5.27998 16.02 5.29998 16.05C5.30998 16.07 5.31998 16.1 5.32998 16.12C5.34998 16.16 5.37001 16.2 5.39001 16.24C5.40001 16.26 5.41001 16.28 5.42001 16.29C5.45001 16.34 5.47 16.38 5.5 16.43C5.51 16.44 5.50998 16.45 5.51998 16.46C5.61998 16.64 5.73 16.82 5.85 16.99C5.76 17 5.66998 17.01 5.57998 17.02C4.92998 17.06 4.28 16.99 3.66 16.8H3.64999C3.60999 16.79 3.56999 16.77 3.52999 16.77H3.51998C3.50998 16.77 3.49001 16.77 3.48001 16.77H3.47C3.43 16.77 3.38999 16.77 3.33999 16.78C3.20999 16.8 3.08001 16.87 2.98001 16.98C2.76001 17.23 2.73 17.61 2.91 17.88C2.91 17.89 2.92001 17.89 2.92001 17.9C2.93001 17.91 2.93 17.92 2.94 17.92C2.95 17.94 2.96001 17.95 2.98001 17.96C6.99001 22.34 13.47 22.34 17.48 17.96C17.48 17.91 17.52 17.87 17.57 17.82Z" stroke="black" stroke-width="1.5" stroke-linecap="round" stroke-linejoin="round"/>
<path d="M12 15.75C13.8888 15.75 15.42 14.0711 15.42 12C15.42 9.92893 13.8888 8.25 12 8.25C10.1112 8.25 8.57999 9.92893 8.57999 12C8.57999 14.0711 10.1112 15.75 12 15.75Z" stroke="black" stroke-width="1.5" stroke-linecap="round" stroke-linejoin="round"/>
</svg>
