<svg width="24" height="24" viewBox="0 0 24 24" fill="none" xmlns="http://www.w3.org/2000/svg">
<path d="M21.25 19.34H19.5L18.95 17.42C18.94 17.37 18.93 17.32 18.91 17.28L15.27 4.54C15.04 3.72 14.29 3.16 13.44 3.16H10.56C9.71 3.16 8.96001 3.72 8.73001 4.54L5.09 17.28C5.07 17.32 5.05999 17.37 5.04999 17.42L4.5 19.34H2.75C2.34 19.34 2 19.68 2 20.09C2 20.51 2.34 20.84 2.75 20.84H5.06H18.94H21.25C21.66 20.84 22 20.51 22 20.09C22 19.68 21.66 19.34 21.25 19.34ZM8.92999 9.28H15.07L16.29 13.56H7.70999L8.92999 9.28ZM6.06 19.34L6.35001 18.32H17.65L17.94 19.34H6.06Z" fill="black"/>
</svg>
