<svg width="24" height="24" viewBox="0 0 24 24" fill="none" xmlns="http://www.w3.org/2000/svg">
<path d="M21.25 19.19H2.75" stroke="black" stroke-width="1.5" stroke-linecap="round" stroke-linejoin="round"/>
<path d="M21.25 15.79V16.11H2.75V4.81H10.67C13.67 4.81 16.38 6.11 18.3 8.2C19.2 9.17 19.93 10.31 20.44 11.59C20.97 12.88 21.25 14.3 21.25 15.79Z" stroke="black" stroke-width="1.5" stroke-linecap="round" stroke-linejoin="round"/>
<path d="M20.23 12H13.7C12.76 12 12 11.31 12 10.46C12 9.61 12.76 8.91999 13.7 8.91999H18.78" stroke="black" stroke-width="1.5" stroke-linecap="round" stroke-linejoin="round"/>
<path d="M4.81 9.93999H3.78V10.97H4.81V9.93999Z" stroke="black" stroke-width="1.5" stroke-linecap="round" stroke-linejoin="round"/>
<path d="M8.92 9.93999H7.89V10.97H8.92V9.93999Z" stroke="black" stroke-width="1.5" stroke-linecap="round" stroke-linejoin="round"/>
<path d="M16.11 16.11C16.11 16.68 16.57 17.14 17.14 17.14C17.71 17.14 18.17 16.68 18.17 16.11" stroke="black" stroke-width="1.5" stroke-linecap="round" stroke-linejoin="round"/>
<path d="M4.81 16.11C4.81 16.68 5.27 17.14 5.84 17.14C6.41 17.14 6.87 16.68 6.87 16.11" stroke="black" stroke-width="1.5" stroke-linecap="round" stroke-linejoin="round"/>
</svg>
