<svg width="24" height="24" viewBox="0 0 24 24" fill="none" xmlns="http://www.w3.org/2000/svg">
<path d="M18.25 2H5.75C3.68 2 2 3.68 2 5.75V18.25C2 20.31 3.68 22 5.75 22H18.25C20.32 22 22 20.31 22 18.25V5.75C22 3.68 20.32 2 18.25 2ZM13.57 7.15C13.28 6.85 13.28 6.38 13.57 6.09C13.86 5.79 14.34 5.79 14.63 6.09L18.02 9.48C18.24 9.69 18.3 10.02 18.18 10.3C18.07 10.58 17.79 10.76 17.49 10.76H6.50999C6.08999 10.76 5.75999 10.42 5.75999 10.01C5.75999 9.6 6.08999 9.26 6.50999 9.26H15.68L13.57 7.15ZM17.49 14.73H8.32001L10.43 16.85C10.73 17.14 10.73 17.61 10.43 17.91C10.29 18.05 10.09 18.13 9.89999 18.13C9.70999 18.13 9.52 18.05 9.37 17.91L5.98 14.51C5.77 14.3 5.70001 13.98 5.82001 13.7C5.94001 13.42 6.20999 13.23 6.50999 13.23H17.49C17.9 13.23 18.24 13.57 18.24 13.98C18.24 14.4 17.9 14.73 17.49 14.73Z" fill="black"/>
</svg>
