<svg width="24" height="24" viewBox="0 0 24 24" fill="none" xmlns="http://www.w3.org/2000/svg">
<path d="M18.17 8.16998H5.83002C5.42002 8.16998 5.08002 8.49998 5.08002 8.91998V18.17C5.08002 20.28 6.80001 22 8.92001 22H15.08C17.2 22 18.92 20.28 18.92 18.17V8.91998C18.92 8.49998 18.58 8.16998 18.17 8.16998ZM14.59 15.58C14.88 15.87 14.88 16.35 14.59 16.64C14.44 16.79 14.25 16.86 14.06 16.86C13.86 16.86 13.67 16.79 13.53 16.64L12 15.12L10.48 16.64C10.33 16.79 10.14 16.86 9.94002 16.86C9.75002 16.86 9.56002 16.79 9.41002 16.64C9.12002 16.35 9.12002 15.87 9.41002 15.58L10.94 14.06L9.41002 12.53C9.12002 12.24 9.12002 11.76 9.41002 11.47C9.71002 11.18 10.18 11.18 10.48 11.47L12 13L13.53 11.47C13.82 11.18 14.29 11.18 14.59 11.47C14.88 11.76 14.88 12.24 14.59 12.53L13.06 14.06L14.59 15.58Z" fill="black"/>
<path d="M20.22 5.08002H15.76C15.41 3.33002 13.86 2 12 2C10.14 2 8.59004 3.33002 8.24004 5.08002H3.78003C3.36003 5.08002 3.03003 5.42002 3.03003 5.83002C3.03003 6.25002 3.36003 6.58002 3.78003 6.58002H20.22C20.64 6.58002 20.97 6.25002 20.97 5.83002C20.97 5.42002 20.64 5.08002 20.22 5.08002Z" fill="black"/>
</svg>
