<svg width="24" height="24" viewBox="0 0 24 24" fill="none" xmlns="http://www.w3.org/2000/svg">
<path d="M6.11998 21.05H17.88C19.3 21.05 20.58 20.31 21.29 19.08C22 17.85 22 16.38 21.29 15.14L15.41 4.93001C14.7 3.69001 13.43 2.95001 12 2.95001C10.57 2.95001 9.29998 3.69001 8.58998 4.93001L2.70999 15.14C1.99999 16.38 1.99999 17.85 2.70999 19.08C3.41999 20.31 4.69998 21.05 6.11998 21.05ZM12 16.16C11.61 16.16 11.29 15.84 11.29 15.45C11.29 15.05 11.61 14.73 12 14.73C12.39 14.73 12.71 15.05 12.71 15.45C12.71 15.84 12.39 16.16 12 16.16ZM11.25 9.30001C11.25 8.89001 11.59 8.55001 12 8.55001C12.41 8.55001 12.75 8.89001 12.75 9.30001V13.46C12.75 13.88 12.41 14.21 12 14.21C11.59 14.21 11.25 13.88 11.25 13.46V9.30001Z" fill="black"/>
</svg>
