<svg width="24" height="24" viewBox="0 0 24 24" fill="none" xmlns="http://www.w3.org/2000/svg">
<path d="M19.19 20.22H4.79999C3.65999 20.22 2.73999 19.3 2.73999 18.16V7.88C2.73999 6.74 3.65999 5.82001 4.79999 5.82001H19.19C20.33 5.82001 21.25 6.74 21.25 7.88V18.16C21.25 19.3 20.33 20.22 19.19 20.22Z" stroke="black" stroke-width="1.5" stroke-linecap="round" stroke-linejoin="round"/>
<path d="M18.17 20.22V21.25" stroke="black" stroke-width="1.5" stroke-linecap="round" stroke-linejoin="round"/>
<path d="M5.82999 20.22V21.25" stroke="black" stroke-width="1.5" stroke-linecap="round" stroke-linejoin="round"/>
<path d="M15.11 17.14H6.82999C6.27999 17.14 5.82999 16.69 5.82999 16.14V9.92C5.82999 9.37 6.27999 8.92 6.82999 8.92H15.11C15.66 8.92 16.11 9.37 16.11 9.92V16.14C16.11 16.69 15.66 17.14 15.11 17.14Z" stroke="black" stroke-width="1.5" stroke-linecap="round" stroke-linejoin="round"/>
<path d="M12 5.83L15.08 2.75" stroke="black" stroke-width="1.5" stroke-linecap="round" stroke-linejoin="round"/>
<path d="M12 5.83L8.92001 2.75" stroke="black" stroke-width="1.5" stroke-linecap="round" stroke-linejoin="round"/>
<path d="M18.38 9.61C18.47 9.65 18.57 9.66999 18.67 9.66999C18.76 9.66999 18.86 9.65 18.95 9.61C19.04 9.57 19.13 9.51999 19.19 9.44999C19.33 9.30999 19.41 9.10999 19.41 8.91999C19.41 8.71999 19.33 8.51999 19.19 8.38999C19.13 8.31999 19.04 8.26 18.95 8.22C18.77 8.15 18.56 8.15 18.38 8.22C18.29 8.26 18.2 8.31999 18.13 8.38999C17.99 8.52999 17.91 8.71999 17.91 8.91999C17.91 9.10999 17.99 9.30999 18.13 9.44999C18.2 9.51999 18.29 9.57 18.38 9.61Z" fill="black"/>
<path d="M18.95 11.31C18.77 11.23 18.56 11.23 18.38 11.31C18.29 11.35 18.2 11.4 18.13 11.47C17.99 11.61 17.91 11.8 17.91 12C17.91 12.2 17.99 12.39 18.13 12.53C18.2 12.6 18.29 12.65 18.38 12.69C18.47 12.73 18.57 12.75 18.67 12.75C18.76 12.75 18.86 12.73 18.95 12.69C19.04 12.65 19.12 12.6 19.19 12.53C19.33 12.39 19.41 12.2 19.41 12C19.41 11.8 19.33 11.61 19.19 11.47C19.13 11.4 19.04 11.35 18.95 11.31Z" fill="black"/>
</svg>
