<svg width="24" height="24" viewBox="0 0 24 24" fill="none" xmlns="http://www.w3.org/2000/svg">
<path d="M7.60001 8.03001C7.88001 8.40001 8.49 9.11001 9.52 9.60001C10.38 10 11.15 10.07 11.6 10.07C11.57 8.99001 12.21 8.02 13.18 7.65C14.03 7.32 15.02 7.51001 15.72 8.14001C16.19 8.13001 16.66 8.11001 17.13 8.10001C16.87 8.46001 16.6 8.82 16.34 9.17C16.9 11.38 16.28 13.69 14.69 15.11C12.65 16.94 9.32999 17.02 6.89999 15.12C7.07999 15.15 7.24 15.16 7.39 15.15C8.54 15.1 9.33001 14.19 9.57001 13.88C9.14001 13.52 8.49 12.86 8.02 11.86C7.22 10.17 7.47001 8.60001 7.60001 8.03001Z" stroke="black" stroke-width="1.5" stroke-linecap="round" stroke-linejoin="round"/>
<path d="M17.14 21.25H6.86C4.59 21.25 2.75 19.41 2.75 17.14V6.86C2.75 4.59 4.59 2.75 6.86 2.75H17.14C19.41 2.75 21.25 4.59 21.25 6.86V17.14C21.25 19.41 19.41 21.25 17.14 21.25Z" stroke="black" stroke-width="1.5" stroke-linecap="round" stroke-linejoin="round"/>
</svg>
