<svg width="24" height="24" viewBox="0 0 24 24" fill="none" xmlns="http://www.w3.org/2000/svg">
<path d="M12.73 2.89C12.72 2.83 12.71 2.77 12.69 2.71C12.66 2.62 12.6 2.54 12.53 2.47C12.32 2.26 11.99 2.2 11.71 2.31C11.62 2.35 11.54 2.4 11.47 2.47C11.4 2.54 11.35 2.62 11.31 2.71C11.29 2.77 11.28 2.83 11.27 2.89C6.06 3.25 2 7.33 2 12.28C2 12.73 2.23 13.14 2.6 13.39C2.98 13.64 3.46 13.67 3.88 13.48C6.07 12.48 7.44 13.66 7.53 13.73C7.99 14.27 8.82 14.34 9.36 13.89C9.37 13.89 9.43 13.84 9.44 13.83C9.45 13.81 9.47 13.8 9.53 13.75C9.71 13.61 10.29 13.23 11.25 13.09V19.7C11.25 20.96 12.28 21.99 13.54 21.99C14.81 21.99 15.83 20.96 15.83 19.7V19.18C15.83 18.77 15.5 18.43 15.08 18.43C14.67 18.43 14.33 18.77 14.33 19.18V19.7C14.33 20.13 13.98 20.49 13.54 20.49C13.1 20.49 12.75 20.13 12.75 19.7V13.1C13.71 13.24 14.32 13.63 14.55 13.81L14.62 13.88C14.88 14.1 15.19 14.2 15.5 14.2C15.85 14.2 16.19 14.06 16.41 13.79C16.56 13.66 17.93 12.49 20.12 13.48C20.54 13.67 21.02 13.64 21.4 13.39C21.77 13.14 22 12.73 22 12.28C22 7.32 17.9 3.25 12.73 2.89Z" fill="black"/>
</svg>
