<svg width="24" height="24" viewBox="0 0 24 24" fill="none" xmlns="http://www.w3.org/2000/svg">
<path d="M12.69 2.71C12.66 2.62 12.6 2.54 12.53 2.47C12.32 2.26 11.99 2.2 11.71 2.31C11.62 2.35 11.54 2.4 11.47 2.47C11.4 2.54 11.35 2.62 11.31 2.71C11.27 2.81 11.25 2.9 11.25 3C11.25 3.2 11.33 3.39 11.47 3.53C11.54 3.6 11.62 3.66 11.71 3.69C11.81 3.73 11.9 3.75 12 3.75C12.2 3.75 12.39 3.67 12.53 3.53C12.67 3.39 12.75 3.2 12.75 3C12.75 2.9 12.73 2.81 12.69 2.71Z" fill="black"/>
<path d="M12 3.61C11.84 3.61 11.69 3.61 11.53 3.62C6.82 3.85 2.75 7.47 2.75 12.28C2.75 12.7 3.18 12.98 3.57 12.8C6.16 11.62 7.85 13.02 8.09 13.24C8.29 13.47 8.64 13.51 8.88 13.31C8.93 13.27 8.94 13.25 9.07 13.16C9.71 12.66 10.79 12.25 12.1 12.28C13.33 12.29 14.34 12.69 14.95 13.17C15.05 13.25 15.06 13.27 15.1 13.3C15.36 13.52 15.71 13.46 15.9 13.24C16.15 13.01 17.83 11.63 20.42 12.8C20.81 12.97 21.24 12.7 21.24 12.28C21.25 7.3 16.91 3.61 12 3.61Z" stroke="black" stroke-width="1.5" stroke-linecap="round" stroke-linejoin="round"/>
<path d="M12 13.02V19.7C12 20.55 12.69 21.24 13.54 21.24C14.39 21.24 15.08 20.55 15.08 19.7V19.19" stroke="black" stroke-width="1.5" stroke-linecap="round" stroke-linejoin="round"/>
<path d="M12 3.77C11.22 4.44 9.86999 5.77 8.91999 7.88C7.94999 10.05 7.86 11.99 7.89 13.02" stroke="black" stroke-width="1.5" stroke-linecap="round" stroke-linejoin="round"/>
<path d="M12 3.77C12.78 4.44 14.13 5.77 15.08 7.88C16.05 10.05 16.14 11.99 16.11 13.02" stroke="black" stroke-width="1.5" stroke-linecap="round" stroke-linejoin="round"/>
</svg>
