<svg width="24" height="24" viewBox="0 0 24 24" fill="none" xmlns="http://www.w3.org/2000/svg">
<path d="M8.53001 11.23C8.24001 10.93 7.76002 10.94 7.47002 11.23L5.11001 13.59C3.65001 15.05 3.65001 17.43 5.11001 18.89C5.84001 19.62 6.80001 19.99 7.76001 19.99C8.72001 19.99 9.68002 19.62 10.41 18.89L12.78 16.53C12.92 16.38 13 16.19 13 16C13 15.8 12.92 15.6 12.78 15.46L8.53001 11.23Z" fill="black"/>
<path d="M18.9 5.10998C17.43 3.63998 15.05 3.64998 13.59 5.10998L9.88001 8.82001L7.53 6.47C7.24 6.18 6.76 6.18 6.47 6.47C6.18 6.76 6.18 7.24 6.47 7.53L16.47 17.53C16.62 17.68 16.81 17.75 17 17.75C17.19 17.75 17.38 17.68 17.53 17.53C17.82 17.24 17.82 16.76 17.53 16.47L15.18 14.12L18.9 10.41C20.36 8.95 20.36 6.56998 18.9 5.10998Z" fill="black"/>
</svg>
