<svg width="24" height="24" viewBox="0 0 24 24" fill="none" xmlns="http://www.w3.org/2000/svg">
<path d="M16.62 9.94002V19.19C16.62 20.33 15.7 21.25 14.56 21.25H9.42001C8.28001 21.25 7.35999 20.33 7.35999 19.19V9.94002C7.35999 8.80002 8.28001 7.88002 9.42001 7.88002H14.56C15.7 7.89002 16.62 8.81002 16.62 9.94002Z" stroke="black" stroke-width="1.5" stroke-linecap="round" stroke-linejoin="round"/>
<path d="M8.92059 2.74951V7.88953H15.0906V2.74951H8.92059Z" stroke="black" stroke-width="1.5" stroke-linecap="round" stroke-linejoin="round"/>
<path d="M12 18.92C11.16 18.92 10.48 18.24 10.48 17.4C10.48 16.56 11.16 15.88 12 15.88C12.84 15.88 13.52 16.56 13.52 17.4C13.52 18.24 12.84 18.92 12 18.92ZM12.02 17.4L12 17.42C12.01 17.42 12.02 17.41 12.02 17.4Z" fill="black"/>
</svg>
