<svg width="24" height="24" viewBox="0 0 24 24" fill="none" xmlns="http://www.w3.org/2000/svg">
<path d="M17.73 4.63H16C15.24 4.63 14.62 5.25001 14.62 6.01001V7.75C14.62 8.51 15.24 9.13 16 9.13H16.12V10.51L12.22 12.16V6.78H12.28C13 6.78 13.64 6.41001 14 5.79001C14.36 5.17001 14.36 4.43 14 3.81L13.19 2.39001C12.83 1.77001 12.19 1.39001 11.47 1.39001C10.75 1.39001 10.11 1.76001 9.75002 2.39001L8.94002 3.81C8.58002 4.43 8.58002 5.17001 8.94002 5.79001C9.30002 6.41001 9.94002 6.78 10.66 6.78H10.72V13.29V13.88L7.89001 12.48V11.01C8.76001 10.7 9.39001 9.86999 9.39001 8.89999C9.39001 7.65999 8.38001 6.64999 7.14001 6.64999C5.90001 6.64999 4.89001 7.65999 4.89001 8.89999C4.89001 9.87999 5.52001 10.7 6.39001 11.01V12.95C6.39001 12.99 6.41002 13.02 6.41002 13.06C6.42002 13.11 6.42002 13.16 6.44002 13.21C6.46002 13.26 6.49001 13.3 6.51001 13.34C6.53001 13.38 6.56001 13.42 6.59001 13.45C6.63001 13.49 6.67002 13.52 6.72002 13.55C6.75002 13.57 6.77002 13.6 6.80002 13.62L10.71 15.56V16.85C9.79002 17.17 9.12001 18.03 9.12001 19.06C9.12001 20.35 10.17 21.4 11.46 21.4C12.75 21.4 13.8 20.35 13.8 19.06C13.8 18.03 13.13 17.17 12.21 16.85V13.79L17.15 11.7C17.24 11.66 17.32 11.6 17.39 11.53C17.42 11.49 17.44 11.45 17.47 11.41C17.5 11.37 17.53 11.34 17.55 11.29C17.59 11.2 17.61 11.1 17.61 11V9.12H17.73C18.49 9.12 19.11 8.49999 19.11 7.73999V6C19.11 5.25 18.49 4.63 17.73 4.63Z" fill="black"/>
</svg>
