<svg width="24" height="24" viewBox="0 0 24 24" fill="none" xmlns="http://www.w3.org/2000/svg">
<path d="M8.06 2.04001H5.89999C3.78999 2.04001 2.07001 3.76001 2.07001 5.87001V7.94001C2.07001 8.35001 2.41001 8.69001 2.82001 8.69001C3.23001 8.69001 3.57001 8.35001 3.57001 7.94001V5.87001C3.57001 4.58001 4.61999 3.54001 5.89999 3.54001H8.06C8.47 3.54001 8.81 3.20001 8.81 2.79001C8.81 2.38001 8.48 2.04001 8.06 2.04001Z" fill="black"/>
<path d="M18.09 2.04001H15.93C15.52 2.04001 15.18 2.38001 15.18 2.79001C15.18 3.20001 15.52 3.54001 15.93 3.54001H18.09C19.38 3.54001 20.42 4.59001 20.42 5.87001V7.94001C20.42 8.35001 20.76 8.69001 21.17 8.69001C21.58 8.69001 21.92 8.35001 21.92 7.94001V5.87001C21.93 3.76001 20.21 2.04001 18.09 2.04001Z" fill="black"/>
<path d="M8.06 20.46H5.89999C4.60999 20.46 3.57001 19.41 3.57001 18.13V16.06C3.57001 15.65 3.23001 15.31 2.82001 15.31C2.41001 15.31 2.07001 15.65 2.07001 16.06V18.13C2.07001 20.24 3.78999 21.96 5.89999 21.96H8.06C8.47 21.96 8.81 21.63 8.81 21.21C8.81 20.8 8.48 20.46 8.06 20.46Z" fill="black"/>
<path d="M21.18 15.31C20.77 15.31 20.43 15.65 20.43 16.06V18.13C20.43 19.42 19.38 20.46 18.1 20.46H15.94C15.53 20.46 15.19 20.8 15.19 21.21C15.19 21.62 15.53 21.96 15.94 21.96H18.1C20.21 21.96 21.93 20.24 21.93 18.13V16.06C21.93 15.64 21.59 15.31 21.18 15.31Z" fill="black"/>
<path d="M11.87 11.49C13.64 11.49 15.09 10.05 15.09 8.27C15.09 6.49 13.65 5.05001 11.87 5.05001C10.09 5.05001 8.65002 6.49 8.65002 8.27C8.65002 10.05 10.1 11.49 11.87 11.49Z" fill="black"/>
<path d="M14.29 12.46H9.86003C7.81003 12.46 6.15002 14.13 6.15002 16.17V16.58C6.15002 17.54 6.94002 18.33 7.90002 18.33H16.26C17.22 18.33 18.01 17.54 18.01 16.58V16.17C18 14.12 16.34 12.46 14.29 12.46Z" fill="black"/>
</svg>
