<svg width="24" height="24" viewBox="0 0 24 24" fill="none" xmlns="http://www.w3.org/2000/svg">
<path d="M12 2C6.49 2 2 6.49 2 12C2 17.51 6.49 22 12 22C17.51 22 22 17.51 22 12C22 6.49 17.51 2 12 2ZM12 6.10999C13.83 6.10999 15.32 7.59999 15.32 9.42999C15.32 11.26 13.83 12.75 12 12.75C10.17 12.75 8.68 11.26 8.68 9.42999C8.68 7.59999 10.17 6.10999 12 6.10999ZM12 20.5C9.55 20.5 7.34 19.46 5.79 17.8C5.45 17.44 5.14 17.04 4.86 16.61C6.76 15.16 9.33 14.33 12 14.33C14.67 14.33 17.24 15.16 19.14 16.61C18.86 17.04 18.55 17.44 18.21 17.8C16.66 19.46 14.45 20.5 12 20.5Z" fill="black"/>
</svg>
