<svg width="24" height="24" viewBox="0 0 24 24" fill="none" xmlns="http://www.w3.org/2000/svg">
<path d="M20.9 15.09C20.54 14.88 20.08 15.01 19.88 15.36L19.71 15.65C19.65 15.58 19.58 15.51 19.5 15.47L18.37 14.81L18.33 14.79C18.61 14.15 18.8 13.47 18.87 12.75H19.19C19.61 12.75 19.94 12.42 19.94 12C19.94 11.59 19.61 11.25 19.19 11.25H18.87C18.8 10.54 18.61 9.85 18.33 9.22L18.37 9.19L19.5 8.54C19.58 8.49 19.65 8.43 19.71 8.35L19.88 8.64C20.01 8.88 20.27 9.02 20.53 9.02C20.65 9.02 20.78 8.99 20.9 8.92C21.26 8.71 21.38 8.25 21.17 7.89L20.15 6.11C19.94 5.76 19.48 5.63 19.12 5.84C18.76 6.05 18.64 6.51 18.85 6.86L19.01 7.15C18.92 7.17 18.83 7.19 18.75 7.24L17.86 7.75C17.86 7.76 17.86 7.76 17.85 7.76L17.57 7.92C17.15 7.35 16.65 6.85 16.08 6.43L16.25 6.15C16.45 5.79 16.33 5.33 15.97 5.12C15.61 4.92 15.16 5.04 14.95 5.4L14.79 5.68C14.15 5.4 13.47 5.21 12.75 5.13V3.78C12.75 3.68 12.73 3.59 12.69 3.5H13.03C13.44 3.5 13.78 3.17 13.78 2.75C13.78 2.34 13.44 2 13.03 2H10.97C10.56 2 10.22 2.34 10.22 2.75C10.22 3.17 10.56 3.5 10.97 3.5H11.31C11.27 3.59 11.25 3.68 11.25 3.78V5.13C10.53 5.21 9.85002 5.4 9.21002 5.68L9.05001 5.4C8.84001 5.04 8.39003 4.92 8.03003 5.12C7.67002 5.33 7.55003 5.79 7.75003 6.15L7.92004 6.43C7.35004 6.85 6.85002 7.35 6.43002 7.92L6.15002 7.76C6.14002 7.76 6.14004 7.76 6.14004 7.75L5.25003 7.24C5.17003 7.19 5.08002 7.17 4.99002 7.15L5.15002 6.86C5.36002 6.51 5.24003 6.05 4.88003 5.84C4.52003 5.63 4.06003 5.76 3.85003 6.11L2.83001 7.89C2.62001 8.25 2.74003 8.71 3.10003 8.92C3.22003 8.99 3.35003 9.02 3.47003 9.02C3.73003 9.02 3.99002 8.88 4.12002 8.64L4.29003 8.35C4.35003 8.43 4.42003 8.49 4.50003 8.54L5.63003 9.19L5.67004 9.22C5.39004 9.85 5.20003 10.54 5.13003 11.25H4.81002C4.39002 11.25 4.06002 11.59 4.06002 12C4.06002 12.42 4.39002 12.75 4.81002 12.75H5.13003C5.20003 13.47 5.39004 14.15 5.67004 14.79L5.63003 14.81L4.50003 15.47C4.42003 15.51 4.35003 15.58 4.29003 15.65L4.12002 15.36C3.92002 15.01 3.46003 14.88 3.10003 15.09C2.74003 15.3 2.62001 15.76 2.83001 16.11L3.85003 17.89C3.99003 18.13 4.24003 18.27 4.50003 18.27C4.63003 18.27 4.76003 18.24 4.88003 18.17C5.24003 17.96 5.36002 17.5 5.15002 17.14L4.98004 16.84C5.07004 16.83 5.17003 16.82 5.25003 16.76L6.14004 16.25C6.14004 16.25 6.14002 16.25 6.15002 16.25L6.43002 16.09C6.85002 16.66 7.35004 17.16 7.92004 17.57L7.75003 17.86C7.55003 18.22 7.67002 18.68 8.03003 18.88C8.15002 18.95 8.27002 18.98 8.40002 18.98C8.66002 18.98 8.91001 18.85 9.05001 18.61L9.21002 18.33C9.85002 18.61 10.53 18.8 11.25 18.88V20.23C11.25 20.32 11.27 20.42 11.31 20.5H10.97C10.56 20.5 10.22 20.84 10.22 21.25C10.22 21.67 10.56 22 10.97 22H13.03C13.44 22 13.78 21.67 13.78 21.25C13.78 20.84 13.44 20.5 13.03 20.5H12.69C12.73 20.42 12.75 20.32 12.75 20.23V18.88C13.47 18.8 14.15 18.61 14.79 18.33L14.95 18.61C15.09 18.85 15.34 18.98 15.6 18.98C15.73 18.98 15.85 18.95 15.97 18.88C16.33 18.68 16.45 18.22 16.25 17.86L16.08 17.57C16.65 17.16 17.15 16.66 17.57 16.09L17.85 16.25C17.86 16.25 17.86 16.25 17.86 16.25L18.75 16.76C18.83 16.82 18.93 16.83 19.02 16.84L18.85 17.14C18.64 17.5 18.76 17.96 19.12 18.17C19.24 18.24 19.37 18.27 19.5 18.27C19.76 18.27 20.01 18.13 20.15 17.89L21.17 16.11C21.38 15.76 21.26 15.3 20.9 15.09ZM8.93002 13.03H8.94003C9.50003 13.03 9.96002 13.49 9.96002 14.06C9.96002 14.63 9.50003 15.09 8.94003 15.09C8.37003 15.09 7.90002 14.63 7.90002 14.06C7.90002 13.49 8.36002 13.03 8.93002 13.03ZM10.99 8.92C10.99 8.35 11.44 7.89 12.01 7.89H12.02C12.59 7.89 13.05 8.35 13.05 8.92C13.05 9.49 12.59 9.95 12.02 9.95C11.45 9.95 10.99 9.49 10.99 8.92ZM15.1 14.06C14.54 14.06 14.07 13.6 14.07 13.03C14.07 12.46 14.53 12 15.09 12H15.1C15.67 12 16.13 12.46 16.13 13.03C16.13 13.6 15.67 14.06 15.1 14.06Z" fill="black"/>
</svg>
