<svg width="24" height="24" viewBox="0 0 24 24" fill="none" xmlns="http://www.w3.org/2000/svg">
<path d="M18.62 10.67V13.33" stroke="black" stroke-width="1.5" stroke-linecap="round" stroke-linejoin="round"/>
<path d="M16.51 5.66V18.34C16.51 19.16 15.74 19.65 15.17 19.19L8.8 15.39H7.49C7.21254 15.3913 6.93757 15.3377 6.68097 15.2321C6.42438 15.1265 6.19125 14.9711 5.99505 14.7749C5.79885 14.5788 5.64348 14.3456 5.53791 14.089C5.43235 13.8324 5.37867 13.5575 5.38 13.28V10.81C5.37999 10.2521 5.60092 9.71695 5.99446 9.32153C6.388 8.92611 6.92213 8.70265 7.48 8.7H8.8L15.17 4.8C15.74 4.35 16.51 4.84 16.51 5.66Z" stroke="black" stroke-width="1.5" stroke-linecap="round" stroke-linejoin="round"/>
</svg>
