<svg width="24" height="24" viewBox="0 0 24 24" fill="none" xmlns="http://www.w3.org/2000/svg">
<path d="M18.63 9.92C18.4319 9.92259 18.2426 10.0024 18.1025 10.1425C17.9624 10.2826 17.8826 10.4719 17.88 10.67V13.34C17.88 13.5389 17.959 13.7297 18.0997 13.8703C18.2403 14.011 18.4311 14.09 18.63 14.09C18.8289 14.09 19.0197 14.011 19.1603 13.8703C19.301 13.7297 19.38 13.5389 19.38 13.34V10.67C19.3774 10.4719 19.2976 10.2826 19.1575 10.1425C19.0174 10.0024 18.8281 9.92259 18.63 9.92Z" fill="black"/>
<path d="M16.2 4.44C15.935 4.30095 15.6365 4.23852 15.3379 4.25972C15.0394 4.28092 14.7527 4.3849 14.51 4.56L7.88 9.29H5.37C5.17189 9.29259 4.98262 9.37244 4.84253 9.51253C4.70243 9.65263 4.62259 9.84189 4.62 10.04V14C4.62259 14.1981 4.70243 14.3874 4.84253 14.5275C4.98262 14.6676 5.17189 14.7474 5.37 14.75H7.88L14.51 19.48C14.8027 19.6843 15.1532 19.7894 15.51 19.78C15.7675 19.7797 16.0211 19.718 16.25 19.6C16.5313 19.4419 16.7628 19.2083 16.9183 18.9256C17.0738 18.6428 17.1471 18.3222 17.13 18V6C17.136 5.6791 17.052 5.36293 16.8877 5.08724C16.7233 4.81156 16.4851 4.58736 16.2 4.44ZM7.37 13.22H6.12V10.79H7.37V13.22Z" fill="black"/>
</svg>
