<svg width="24" height="24" viewBox="0 0 24 24" fill="none" xmlns="http://www.w3.org/2000/svg">
<path d="M18.63 10.67V13.33" stroke="black" stroke-width="1.5" stroke-linecap="round" stroke-linejoin="round"/>
<path d="M8.12 10.04H5.37V13.97H8.12V10.04Z" stroke="black" stroke-width="1.5" stroke-linecap="round" stroke-linejoin="round"/>
<path d="M15 18.83L8.12 14V10L15 5.17C15.1423 5.08769 15.3041 5.04502 15.4685 5.04642C15.6329 5.04783 15.7939 5.09326 15.9348 5.178C16.0757 5.26274 16.1913 5.38368 16.2696 5.52824C16.3479 5.6728 16.386 5.83571 16.38 6V18C16.386 18.1643 16.3479 18.3272 16.2696 18.4718C16.1913 18.6163 16.0757 18.7373 15.9348 18.822C15.7939 18.9067 15.6329 18.9522 15.4685 18.9536C15.3041 18.955 15.1423 18.9123 15 18.83Z" stroke="black" stroke-width="1.5" stroke-linecap="round" stroke-linejoin="round"/>
</svg>
