<svg width="24" height="24" viewBox="0 0 24 24" fill="none" xmlns="http://www.w3.org/2000/svg">
<path d="M17.32 10.67V13.33" stroke="black" stroke-width="1.5" stroke-linecap="round" stroke-linejoin="round"/>
<path d="M19.94 9.33V14.67" stroke="black" stroke-width="1.5" stroke-linecap="round" stroke-linejoin="round"/>
<path d="M6.81 10.04H4.06V13.97H6.81V10.04Z" stroke="black" stroke-width="1.5" stroke-linecap="round" stroke-linejoin="round"/>
<path d="M13.64 18.83L6.81 14V10L13.64 5.13C13.786 5.03098 13.9574 4.97602 14.1337 4.97166C14.31 4.9673 14.4839 5.01372 14.6346 5.10541C14.7853 5.19709 14.9065 5.33016 14.9837 5.48877C15.0609 5.64738 15.0908 5.82484 15.07 6V18C15.0823 18.1719 15.0462 18.3438 14.9656 18.4961C14.885 18.6484 14.7632 18.7751 14.6142 18.8616C14.4652 18.9481 14.2948 18.991 14.1226 18.9854C13.9503 18.9798 13.7831 18.926 13.64 18.83Z" stroke="black" stroke-width="1.5" stroke-linecap="round" stroke-linejoin="round"/>
</svg>
