<svg width="24" height="24" viewBox="0 0 24 24" fill="none" xmlns="http://www.w3.org/2000/svg">
<path d="M17.32 9.92C17.1219 9.92259 16.9326 10.0024 16.7925 10.1425C16.6524 10.2826 16.5726 10.4719 16.57 10.67V13.34C16.57 13.5389 16.649 13.7297 16.7897 13.8703C16.9303 14.011 17.1211 14.09 17.32 14.09C17.5189 14.09 17.7097 14.011 17.8503 13.8703C17.991 13.7297 18.07 13.5389 18.07 13.34V10.67C18.0674 10.4719 17.9876 10.2826 17.8475 10.1425C17.7074 10.0024 17.5181 9.92259 17.32 9.92Z" fill="black"/>
<path d="M19.94 8.59C19.7411 8.59 19.5503 8.66902 19.4097 8.80967C19.269 8.95032 19.19 9.14109 19.19 9.34V14.67C19.19 14.8689 19.269 15.0597 19.4097 15.2003C19.5503 15.341 19.7411 15.42 19.94 15.42C20.1389 15.42 20.3297 15.341 20.4703 15.2003C20.611 15.0597 20.69 14.8689 20.69 14.67V9.34C20.69 9.14109 20.611 8.95032 20.4703 8.80967C20.3297 8.66902 20.1389 8.59 19.94 8.59Z" fill="black"/>
<path d="M14.89 4.44C14.625 4.30095 14.3265 4.23852 14.0279 4.25972C13.7294 4.28092 13.4427 4.3849 13.2 4.56L6.57 9.29H4.06C3.86189 9.29259 3.67263 9.37244 3.53253 9.51253C3.39244 9.65263 3.31259 9.84189 3.31 10.04V14C3.31259 14.1981 3.39244 14.3874 3.53253 14.5275C3.67263 14.6676 3.86189 14.7474 4.06 14.75H6.57L13.2 19.48C13.4927 19.6843 13.8432 19.7894 14.2 19.78C14.4575 19.7797 14.7111 19.718 14.94 19.6C15.2213 19.4419 15.4528 19.2083 15.6083 18.9256C15.7638 18.6428 15.8371 18.3222 15.82 18V6C15.826 5.6791 15.742 5.36293 15.5777 5.08724C15.4133 4.81156 15.1751 4.58736 14.89 4.44ZM6.06 13.22H4.81V10.79H6.06V13.22Z" fill="black"/>
</svg>
