<svg width="24" height="24" viewBox="0 0 24 24" fill="none" xmlns="http://www.w3.org/2000/svg">
<path d="M5.5 10.04H2.75V13.97H5.5V10.04Z" stroke="black" stroke-width="1.5" stroke-linecap="round" stroke-linejoin="round"/>
<path d="M12.33 18.83L5.5 14V10L12.33 5.13C12.476 5.03098 12.6474 4.97602 12.8237 4.97166C13 4.9673 13.1739 5.01372 13.3246 5.10541C13.4753 5.19709 13.5965 5.33016 13.6737 5.48877C13.7509 5.64738 13.7808 5.82484 13.76 6V18C13.7723 18.1719 13.7362 18.3438 13.6556 18.4961C13.575 18.6484 13.4532 18.7751 13.3042 18.8616C13.1552 18.9481 12.9848 18.991 12.8126 18.9854C12.6403 18.9798 12.4731 18.926 12.33 18.83Z" stroke="black" stroke-width="1.5" stroke-linecap="round" stroke-linejoin="round"/>
<path d="M16.01 10.67V13.33" stroke="black" stroke-width="1.5" stroke-linecap="round" stroke-linejoin="round"/>
<path d="M18.63 9.33V14.67" stroke="black" stroke-width="1.5" stroke-linecap="round" stroke-linejoin="round"/>
<path d="M21.25 8V16" stroke="black" stroke-width="1.5" stroke-linecap="round" stroke-linejoin="round"/>
</svg>
