<svg width="24" height="24" viewBox="0 0 24 24" fill="none" xmlns="http://www.w3.org/2000/svg">
<path d="M6.13 14.72L12.76 19.45C13.04 19.65 13.37 19.75 13.7 19.75C13.95 19.75 14.21 19.69 14.44 19.57C15.01 19.28 15.37 18.68 15.37 18.02V5.98997C15.37 5.31997 15.01 4.72998 14.44 4.43998C13.9 4.15998 13.25 4.19997 12.76 4.55997L6.13 9.28998H3.62C3.2 9.28998 2.87 9.62998 2.87 10.04V13.97C2.87 14.38 3.2 14.72 3.62 14.72H6.13ZM4.37 10.79H5.62V13.22H4.37V10.79Z" fill="black"/>
<path d="M20.39 11.25H19.62V10.5C19.62 10.09 19.28 9.75 18.87 9.75C18.46 9.75 18.12 10.09 18.12 10.5V11.23H17.39C16.99 11.24 16.64 11.56 16.63 11.97C16.63 12.38 16.96 12.72 17.38 12.73H18.12V13.5C18.12 13.92 18.46 14.25 18.87 14.25C19.28 14.25 19.62 13.92 19.62 13.5V12.75H20.38C20.79 12.75 21.13 12.42 21.13 12.01C21.14 11.6 20.8 11.26 20.39 11.25Z" fill="black"/>
</svg>
