<svg width="24" height="24" viewBox="0 0 24 24" fill="none" xmlns="http://www.w3.org/2000/svg">
<path d="M13.66 4C13.4138 3.87861 13.138 3.83012 12.8652 3.86023C12.5923 3.89035 12.3338 3.99783 12.12 4.17L6 8H4.86C4.11006 7.99989 3.39009 8.29433 2.85515 8.81992C2.32021 9.34551 2.01311 10.0602 2 10.81V13.3C1.99998 13.6768 2.07468 14.0499 2.21978 14.3976C2.36488 14.7454 2.57749 15.0609 2.84532 15.3259C3.11316 15.591 3.43089 15.8003 3.78014 15.9417C4.12939 16.0832 4.50322 16.154 4.88 16.15H6L12.15 19.83C12.4101 20.0252 12.7249 20.1336 13.05 20.14C13.2721 20.1404 13.4912 20.089 13.69 19.99C13.9938 19.838 14.2487 19.6036 14.4255 19.3136C14.6023 19.0236 14.694 18.6897 14.69 18.35V5.67C14.6983 5.32183 14.6054 4.97874 14.4225 4.68232C14.2397 4.3859 13.9748 4.14888 13.66 4Z" fill="black"/>
<path d="M16 9.92C15.8011 9.92 15.6103 9.99902 15.4697 10.1397C15.329 10.2803 15.25 10.4711 15.25 10.67V13.33C15.25 13.5289 15.329 13.7197 15.4697 13.8603C15.6103 14.001 15.8011 14.08 16 14.08C16.1989 14.08 16.3897 14.001 16.5303 13.8603C16.671 13.7197 16.75 13.5289 16.75 13.33V10.67C16.75 10.4711 16.671 10.2803 16.5303 10.1397C16.3897 9.99902 16.1989 9.92 16 9.92Z" fill="black"/>
<path d="M18.63 8.58C18.4319 8.58259 18.2426 8.66244 18.1025 8.80254C17.9624 8.94263 17.8826 9.13189 17.88 9.33V14.67C17.88 14.8689 17.959 15.0597 18.0997 15.2003C18.2403 15.341 18.4311 15.42 18.63 15.42C18.8289 15.42 19.0197 15.341 19.1603 15.2003C19.301 15.0597 19.38 14.8689 19.38 14.67V9.33C19.3774 9.13189 19.2976 8.94263 19.1575 8.80254C19.0174 8.66244 18.8281 8.58259 18.63 8.58Z" fill="black"/>
<path d="M21.25 7.25C21.0519 7.25259 20.8626 7.33244 20.7225 7.47253C20.5824 7.61263 20.5026 7.80189 20.5 8V16C20.5 16.1989 20.579 16.3897 20.7197 16.5303C20.8603 16.671 21.0511 16.75 21.25 16.75C21.4489 16.75 21.6397 16.671 21.7803 16.5303C21.921 16.3897 22 16.1989 22 16V8C21.9974 7.80189 21.9176 7.61263 21.7775 7.47253C21.6374 7.33244 21.4481 7.25259 21.25 7.25Z" fill="black"/>
</svg>
