<svg width="24" height="24" viewBox="0 0 24 24" fill="none" xmlns="http://www.w3.org/2000/svg">
<path d="M18.25 4.01001H15.06C14.65 4.01001 14.26 4.23001 14.06 4.59001L12.5 7.30002C12.27 7.69002 11.71 7.69001 11.48 7.31001L9.86999 4.58002C9.65999 4.23002 9.27999 4.01001 8.86999 4.01001H5.68999H4.33999C3.10999 4.01001 2.34 5.34002 2.96 6.41002L10.26 19C11.03 20.33 12.95 20.33 13.72 19L21.02 6.41002C21.64 5.35002 20.87 4.01001 19.64 4.01001H18.25V4.01001Z" stroke="black" stroke-width="1.5" stroke-linecap="round" stroke-linejoin="round"/>
<path d="M18.04 4.17001L12.02 14.6L5.95999 4.17001L12.02 14.54L18.04 4.17001Z" stroke="black" stroke-width="1.5" stroke-linecap="round" stroke-linejoin="round"/>
</svg>
