<svg width="24" height="24" viewBox="0 0 24 24" fill="none" xmlns="http://www.w3.org/2000/svg">
<path d="M12.02 13.05L16.83 4.76001L17.7 3.26001H15.07C14.39 3.26001 13.75 3.62002 13.41 4.22002L11.99 6.69002L10.53 4.20001C10.19 3.62001 9.55999 3.26001 8.87999 3.26001H6.29999L7.17998 4.76001L12.02 13.05Z" fill="black"/>
<path d="M21.68 4.43001C21.26 3.70001 20.5 3.26001 19.65 3.26001H19.44L18.57 4.76001L12.67 14.97C12.54 15.21 12.29 15.35 12.02 15.35C11.75 15.35 11.51 15.21 11.37 14.98L5.42998 4.76001L4.55999 3.26001H4.35C3.5 3.26001 2.74 3.70001 2.32 4.43001C1.89 5.17001 1.89 6.05001 2.32 6.78001L9.61999 19.37C10.12 20.23 11.01 20.74 12 20.74C12.99 20.74 13.88 20.23 14.38 19.37L21.68 6.78001C22.11 6.05001 22.11 5.17001 21.68 4.43001Z" fill="black"/>
</svg>
