<svg width="24" height="24" viewBox="0 0 24 24" fill="none" xmlns="http://www.w3.org/2000/svg">
<path d="M18.27 6.43H17.88C17.55 4.52 15.99 3.06 14.12 3.06H4.29C3.03 3.06 2 4.16 2 5.5C2 5.59 2.02 5.67 2.03 5.76C2.02 5.8 2 5.84 2 5.89V17.19C2 19.25 3.68 20.93 5.73 20.93H18.27C20.32 20.93 22 19.25 22 17.19V10.16C22 8.1 20.32 6.43 18.27 6.43ZM17.71 14.94C17.02 14.94 16.45 14.38 16.45 13.68C16.45 12.98 17.02 12.41 17.71 12.41C18.41 12.41 18.98 12.98 18.98 13.68C18.98 14.38 18.41 14.94 17.71 14.94ZM4.29 4.56H14.12C15.17 4.56 16.05 5.35 16.34 6.43H4.29C3.85 6.43 3.5 6.01 3.5 5.5C3.5 4.98 3.85 4.56 4.29 4.56Z" fill="black"/>
</svg>
