<svg width="24" height="24" viewBox="0 0 24 24" fill="none" xmlns="http://www.w3.org/2000/svg">
<path d="M11.47 13.92C11.94 13.64 12.53 13.3 13.61 13.3C14.01 13.3 14.33 13.35 14.6 13.42C14.16 12.42 13.16 11.72 12 11.72C10.56 11.72 9.38 12.79 9.19 14.17C9.19 14.18 9.20001 14.18 9.20001 14.18C9.46001 14.28 9.73 14.33 10.09 14.33C10.77 14.33 11.06 14.16 11.47 13.92Z" fill="black"/>
<path d="M13.61 14.8C12.93 14.8 12.64 14.97 12.23 15.21C11.76 15.49 11.17 15.83 10.09 15.83C9.85 15.83 9.63999 15.81 9.42999 15.77C9.88999 16.74 10.86 17.41 12 17.41C13.39 17.41 14.55 16.4 14.8 15.08C14.77 15.07 14.75 15.07 14.73 15.06C14.49 14.94 14.19 14.8 13.61 14.8Z" fill="black"/>
<path d="M3.5 8.63H2V18.16C2 20.28 3.71999 22 5.82999 22H18.17C20.28 22 22 20.28 22 18.16V8.63H20.5H3.5ZM12 18.91C9.6 18.91 7.64999 16.96 7.64999 14.57C7.64999 12.17 9.6 10.22 12 10.22C14.4 10.22 16.35 12.17 16.35 14.57C16.35 16.96 14.4 18.91 12 18.91Z" fill="black"/>
<path d="M18.17 2H5.82999C3.71999 2 2 3.72 2 5.83V7.13H3.5H20.5H22V5.83C22 3.72 20.28 2 18.17 2ZM6.85999 6.07H5.82999C5.41999 6.07 5.07999 5.73 5.07999 5.32C5.07999 4.9 5.41999 4.57 5.82999 4.57H6.85999C7.27999 4.57 7.60999 4.9 7.60999 5.32C7.60999 5.73 7.27999 6.07 6.85999 6.07ZM10.97 6.07H9.94C9.53 6.07 9.19 5.73 9.19 5.32C9.19 4.9 9.53 4.57 9.94 4.57H10.97C11.39 4.57 11.72 4.9 11.72 5.32C11.72 5.73 11.39 6.07 10.97 6.07Z" fill="black"/>
</svg>
