<svg width="24" height="24" viewBox="0 0 24 24" fill="none" xmlns="http://www.w3.org/2000/svg">
<path d="M21.25 5.83V7.89H2.75V5.83C2.75 4.12 4.12999 2.75 5.82999 2.75H18.16C19.87 2.75 21.25 4.13 21.25 5.83Z" stroke="black" stroke-width="1.5" stroke-linecap="round" stroke-linejoin="round"/>
<path d="M21.25 7.89V18.17C21.25 19.88 19.87 21.25 18.17 21.25H5.84C4.13 21.25 2.76001 19.87 2.76001 18.17V7.89H21.25Z" stroke="black" stroke-width="1.5" stroke-linecap="round" stroke-linejoin="round"/>
<path d="M9.94 5.32H10.97" stroke="black" stroke-width="1.5" stroke-linecap="round" stroke-linejoin="round"/>
<path d="M5.82999 5.32H6.85999" stroke="black" stroke-width="1.5" stroke-linecap="round" stroke-linejoin="round"/>
<path d="M12 18.17C13.9882 18.17 15.6 16.5582 15.6 14.57C15.6 12.5818 13.9882 10.97 12 10.97C10.0118 10.97 8.39999 12.5818 8.39999 14.57C8.39999 16.5582 10.0118 18.17 12 18.17Z" stroke="black" stroke-width="1.5" stroke-linecap="round" stroke-linejoin="round"/>
<path d="M8.92001 14.88C9.22001 15 9.58 15.09 10.09 15.09C11.85 15.09 11.85 14.06 13.62 14.06C14.31 14.06 14.73 14.22 15.09 14.41" stroke="black" stroke-width="1.5" stroke-linecap="round" stroke-linejoin="round"/>
</svg>
