<svg width="24" height="24" viewBox="0 0 24 24" fill="none" xmlns="http://www.w3.org/2000/svg">
<path d="M13.03 2.75H10.97V3.78H13.03V2.75Z" stroke="black" stroke-width="1.5" stroke-linecap="round" stroke-linejoin="round"/>
<path d="M12.34 4.81H11.67C10.82 4.81 10.02 5.15 9.53999 5.73L7.32001 8.41C7.04001 8.75 6.89 9.14 6.89 9.55V19.21C6.89 20.35 8.03 21.27 9.45 21.27H14.56C15.97 21.27 17.12 20.35 17.12 19.21V9.55C17.12 9.14 16.97 8.75 16.69 8.41L14.47 5.73C13.99 5.15 13.19 4.81 12.34 4.81Z" stroke="black" stroke-width="1.5" stroke-linecap="round" stroke-linejoin="round"/>
<path d="M13.76 12.65C13.77 13.49 13.01 14.39 12 14.39C10.99 14.39 10.23 13.49 10.24 12.65C10.25 12.09 10.58 11.69 10.72 11.54C11.15 11.12 11.57 10.7 12 10.28C12.43 10.7 12.85 11.12 13.28 11.54C13.42 11.7 13.76 12.1 13.76 12.65Z" stroke="black" stroke-width="1.5" stroke-linecap="round" stroke-linejoin="round"/>
</svg>
