<svg width="24" height="24" viewBox="0 0 24 24" fill="none" xmlns="http://www.w3.org/2000/svg">
<path d="M14.5 3.45C13.95 2.54 13 2 11.96 2C10.94 2 10.01 2.52 9.47 3.41L2.44 15C1.61 16.36 1.97999 18.16 3.27999 19.1C3.63999 19.36 4.00999 19.6 4.38999 19.83C6.71999 21.23 9.34999 21.98 12.01 22H12.12C15.21 22 18.19 21.03 20.75 19.19C22.02 18.27 22.38 16.49 21.56 15.12L14.5 3.45ZM16.93 13.97C16.93 14.23 16.83 14.48 16.65 14.67C16.55 14.76 16.44 14.83 16.32 14.88C16.2 14.93 16.07 14.96 15.95 14.96C15.68 14.96 15.43 14.86 15.25 14.67C15.06 14.48 14.96 14.23 14.96 13.97C14.96 13.71 15.07 13.46 15.25 13.27C15.62 12.9 16.28 12.9 16.65 13.27C16.82 13.46 16.93 13.71 16.93 13.97ZM14.67 9.32001C14.76 9.42001 14.83 9.51999 14.88 9.64999C14.93 9.76999 14.96 9.89 14.96 10.02C14.96 10.29 14.86 10.54 14.67 10.72C14.57 10.81 14.47 10.88 14.35 10.93C14.23 10.98 14.1 11.01 13.97 11.01C13.71 11.01 13.46 10.91 13.27 10.72C13.18 10.62 13.11 10.52 13.07 10.4C13.02 10.28 12.99 10.15 12.99 10.02C12.99 9.89 13.02 9.76999 13.07 9.64999C13.11 9.51999 13.18 9.42001 13.27 9.32001C13.65 8.96001 14.31 8.96001 14.67 9.32001ZM12.91 6.45C12.86 6.57 12.79 6.68 12.7 6.78C12.6 6.87 12.49 6.93 12.37 6.98C12.26 7.03 12.13 7.06 12 7.06C11.73 7.06 11.49 6.96 11.3 6.78C11.21 6.68 11.14 6.57 11.09 6.45C11.04 6.33 11.01 6.2 11.01 6.08C11.01 5.82 11.12 5.56 11.3 5.38C11.4 5.29 11.5 5.22 11.62 5.17C11.99 5.01 12.42 5.11 12.7 5.38C12.88 5.56 12.99 5.81 12.99 6.08C12.99 6.2 12.96 6.33 12.91 6.45ZM12.99 14.96C12.99 15.22 12.89 15.47 12.7 15.66C12.51 15.84 12.27 15.94 12 15.94C11.73 15.94 11.49 15.84 11.3 15.66C11.11 15.47 11.01 15.22 11.01 14.96C11.01 14.7 11.12 14.44 11.3 14.26C11.4 14.17 11.51 14.1 11.62 14.05C11.86 13.95 12.14 13.95 12.37 14.05C12.5 14.1 12.6 14.17 12.7 14.26C12.88 14.44 12.99 14.7 12.99 14.96ZM10.93 10.4C10.88 10.52 10.82 10.62 10.73 10.72C10.54 10.91 10.29 11.01 10.03 11.01C9.89999 11.01 9.76999 10.98 9.64999 10.93C9.52999 10.88 9.42 10.81 9.33 10.72C9.14 10.54 9.03999 10.29 9.03999 10.02C9.03999 9.89 9.06999 9.76999 9.11999 9.64999C9.16999 9.51999 9.24 9.42001 9.33 9.32001C9.69 8.96001 10.35 8.96001 10.73 9.32001C10.82 9.42001 10.88 9.52999 10.93 9.64999C10.99 9.76999 11.01 9.89 11.01 10.02C11.01 10.15 10.99 10.28 10.93 10.4ZM9.03999 13.97C9.03999 14.23 8.94 14.48 8.75 14.67C8.57 14.86 8.32 14.96 8.05 14.96C7.79 14.96 7.54 14.86 7.35 14.67C7.17 14.48 7.07 14.23 7.07 13.97C7.07 13.71 7.18 13.46 7.35 13.27C7.45 13.18 7.54999 13.11 7.67999 13.06C7.91999 12.96 8.18999 12.96 8.42999 13.06C8.54999 13.11 8.66 13.18 8.75 13.27C8.93 13.46 9.03999 13.71 9.03999 13.97ZM19.87 17.97C17.55 19.64 14.84 20.47 12.02 20.5C9.63 20.48 7.26 19.8 5.16 18.54C4.82 18.34 4.49 18.12 4.16 17.88C3.49 17.4 3.3 16.47 3.72 15.77L3.82 15.62C6.05 17.58 8.95 18.67 12 18.69H12.09C15.12 18.69 17.98 17.63 20.16 15.71L20.27 15.89C20.69 16.59 20.52 17.51 19.87 17.97Z" fill="black"/>
</svg>
