<svg width="24" height="24" viewBox="0 0 24 24" fill="none" xmlns="http://www.w3.org/2000/svg">
<path d="M15.04 5.24C14.67 4.79 14.16 4.48 13.58 4.28C13.7 4.14 13.78 3.97 13.78 3.77V2.75C13.78 2.33 13.44 2 13.03 2H10.97C10.56 2 10.22 2.33 10.22 2.75V3.77C10.22 3.97 10.3 4.14 10.42 4.28C9.84001 4.48 9.33002 4.79 8.96002 5.24L6.74002 7.92C6.35002 8.39 6.14001 8.95 6.14001 9.54V19.19C6.14001 20.74 7.62002 22 9.44002 22H14.56C16.38 22 17.86 20.74 17.86 19.19V9.54C17.86 8.95 17.65 8.39 17.26 7.92L15.04 5.24ZM13.77 14.39C13.29 14.87 12.66 15.14 12 15.14C11.34 15.14 10.71 14.87 10.23 14.39C9.75001 13.91 9.48002 13.27 9.49002 12.64C9.49002 12.07 9.74001 11.5 10.17 11.03L11.47 9.75C11.77 9.46 12.23 9.46 12.53 9.75L13.81 11.01C14.26 11.5 14.51 12.07 14.51 12.64C14.52 13.27 14.25 13.91 13.77 14.39Z" fill="black"/>
<path d="M12 11.33L11.25 12.08C11.16 12.17 10.99 12.39 10.99 12.66C10.99 12.88 11.1 13.14 11.29 13.33C11.41 13.45 11.65 13.64 12 13.64C12.35 13.64 12.59 13.45 12.71 13.33C12.9 13.14 13.01 12.88 13.01 12.66C13.01 12.39 12.84 12.17 12.73 12.06L12 11.33Z" fill="black"/>
</svg>
