<svg width="24" height="24" viewBox="0 0 24 24" fill="none" xmlns="http://www.w3.org/2000/svg">
<path d="M21.25 17.11C18.94 17.11 18.94 15.11 16.63 15.11C14.32 15.11 14.32 17.11 12.01 17.11C9.70001 17.11 9.7 15.11 7.38 15.11C5.07 15.11 5.07 17.11 2.75 17.11" stroke="black" stroke-width="1.5" stroke-linecap="round" stroke-linejoin="round"/>
<path d="M21.25 12.99C18.94 12.99 18.94 10.99 16.63 10.99C14.32 10.99 14.32 12.99 12.01 12.99C9.70001 12.99 9.7 10.99 7.38 10.99C5.07 10.99 5.07 12.99 2.75 12.99" stroke="black" stroke-width="1.5" stroke-linecap="round" stroke-linejoin="round"/>
<path d="M21.25 8.89C18.94 8.89 18.94 6.89 16.63 6.89C14.32 6.89 14.32 8.89 12.01 8.89C9.70001 8.89 9.7 6.89 7.38 6.89C5.07 6.89 5.07 8.89 2.75 8.89" stroke="black" stroke-width="1.5" stroke-linecap="round" stroke-linejoin="round"/>
</svg>
