<svg width="24" height="24" viewBox="0 0 24 24" fill="none" xmlns="http://www.w3.org/2000/svg">
<path d="M21.25 16.36C20.37 16.36 19.98 16.02 19.43 15.54C18.82 15.02 18.06 14.36 16.63 14.36C15.19 14.36 14.44 15.02 13.83 15.54C13.28 16.02 12.88 16.36 12 16.36C11.13 16.36 10.73 16.02 10.18 15.54C9.56999 15.02 8.81 14.36 7.38 14.36C5.94 14.36 5.18001 15.02 4.57001 15.54C4.02001 16.02 3.63 16.36 2.75 16.36C2.34 16.36 2 16.7 2 17.11C2 17.53 2.34 17.86 2.75 17.86C4.19 17.86 4.93999 17.21 5.54999 16.68C6.09999 16.2 6.5 15.86 7.38 15.86C8.26 15.86 8.65001 16.2 9.20001 16.68C9.81001 17.21 10.57 17.86 12 17.86C13.44 17.86 14.2 17.21 14.81 16.68C15.36 16.2 15.75 15.86 16.63 15.86C17.5 15.86 17.9 16.2 18.45 16.68C19.06 17.21 19.82 17.86 21.25 17.86C21.66 17.86 22 17.53 22 17.11C22 16.7 21.66 16.36 21.25 16.36Z" fill="black"/>
<path d="M21.25 12.24C20.37 12.24 19.98 11.89 19.43 11.42C18.82 10.89 18.06 10.24 16.63 10.24C15.19 10.24 14.44 10.89 13.83 11.42C13.28 11.89 12.88 12.24 12 12.24C11.13 12.24 10.73 11.89 10.18 11.42C9.56999 10.89 8.81 10.24 7.38 10.24C5.94 10.24 5.18001 10.89 4.57001 11.42C4.02001 11.89 3.63 12.24 2.75 12.24C2.34 12.24 2 12.57 2 12.99C2 13.4 2.34 13.74 2.75 13.74C4.19 13.74 4.93999 13.08 5.54999 12.55C6.09999 12.08 6.5 11.74 7.38 11.74C8.26 11.74 8.65001 12.08 9.20001 12.55C9.81001 13.08 10.57 13.74 12 13.74C13.44 13.74 14.2 13.08 14.81 12.55C15.36 12.08 15.75 11.74 16.63 11.74C17.5 11.74 17.9 12.08 18.45 12.55C19.06 13.08 19.82 13.74 21.25 13.74C21.66 13.74 22 13.4 22 12.99C22 12.57 21.66 12.24 21.25 12.24Z" fill="black"/>
<path d="M2.75 9.64C4.19 9.64 4.93999 8.98 5.54999 8.46C6.09999 7.98 6.5 7.64 7.38 7.64C8.26 7.64 8.65001 7.98 9.20001 8.46C9.81001 8.98 10.57 9.64 12 9.64C13.44 9.64 14.2 8.98 14.81 8.46C15.36 7.98 15.75 7.64 16.63 7.64C17.5 7.64 17.9 7.98 18.45 8.46C19.06 8.98 19.82 9.64 21.25 9.64C21.66 9.64 22 9.3 22 8.89C22 8.47 21.66 8.14 21.25 8.14C20.37 8.14 19.98 7.8 19.43 7.32C18.82 6.79 18.06 6.14 16.63 6.14C15.19 6.14 14.44 6.79 13.83 7.32C13.28 7.8 12.88 8.14 12 8.14C11.13 8.14 10.73 7.8 10.18 7.32C9.56999 6.79 8.81 6.14 7.38 6.14C5.94 6.14 5.18001 6.79 4.57001 7.32C4.02001 7.8 3.63 8.14 2.75 8.14C2.34 8.14 2 8.47 2 8.89C2 9.3 2.34 9.64 2.75 9.64Z" fill="black"/>
</svg>
