<svg width="24" height="24" viewBox="0 0 24 24" fill="none" xmlns="http://www.w3.org/2000/svg">
<path d="M12 2C6.49 2 2 6.49 2 12C2 17.51 6.49 22 12 22C17.51 22 22 17.51 22 12C22 6.49 17.51 2 12 2ZM16.96 9.69L15.25 13.84C14.87 15.05 13.7 15.92 12.35 15.92C11.97 15.92 11.65 15.64 11.6 15.27C11.56 14.95 11.52 14.66 11.48 14.4C10.9 15.38 10 15.92 8.9 15.92C8.54 15.92 8.22 15.65 8.16 15.29L7.22 9.53C7.15 9.12 7.43 8.74 7.83 8.67C8.24 8.61 8.63 8.87999 8.7 9.28999L9.52 14.29C9.81 14.15 10.15 13.85 10.39 13.21L11.15 11.26C11.28 10.92 11.63 10.73 11.99 10.79C12.34 10.86 12.6 11.17 12.6 11.53C12.61 11.63 12.81 13.06 12.98 14.29C13.38 14.11 13.7 13.77 13.84 13.33L15.57 9.12C15.73 8.74 16.17 8.55001 16.55 8.71001C16.93 8.87001 17.11 9.31 16.96 9.69Z" fill="black"/>
</svg>
