<svg width="24" height="24" viewBox="0 0 24 24" fill="none" xmlns="http://www.w3.org/2000/svg">
<path d="M19.01 4.94C17.11 3.04 14.6 2 11.94 2C6.48999 2 2.05999 6.46 2.05999 11.94C2.05999 13.59 2.45999 15.2 3.21999 16.61L2.02999 21.06C1.95999 21.31 2.02999 21.59 2.21999 21.78C2.35999 21.92 2.54999 22 2.74999 22C2.80999 22 2.87999 21.99 2.93999 21.98L7.50998 20.78C8.88998 21.5 10.42 21.88 11.94 21.88C17.49 21.88 22 17.42 22 11.94C22 9.36 20.94 6.87 19.01 4.94ZM16.17 15.25L15.33 16.08C14.45 16.96 12.13 16 10.06 13.93C7.99999 11.87 7.06999 9.54 7.90999 8.66L8.74 7.82001C8.84 7.74001 9.05 7.6 9.32 7.59C9.57 7.59 9.74998 7.70001 9.92998 7.82001C10.65 8.32001 11.02 8.57 11.16 9.05C11.33 9.63 11.11 10.16 11.01 10.36C11.07 10.66 11.27 11.46 11.98 12.15C12.69 12.85 13.49 13.05 13.79 13.11C13.98 12.98 14.43 12.72 14.94 12.83C15.37 12.92 15.63 13.31 16.17 14.06C16.28 14.22 16.39 14.4 16.4 14.64C16.4 14.93 16.25 15.15 16.17 15.25Z" fill="black"/>
</svg>
