<svg width="24" height="24" viewBox="0 0 24 24" fill="none" xmlns="http://www.w3.org/2000/svg">
<path d="M19.19 16.11V11.73C19.19 10.18 17.93 8.92 16.38 8.92H6.86V12" stroke="black" stroke-width="1.5" stroke-linecap="round" stroke-linejoin="round"/>
<path d="M8.92 18.17H18.17" stroke="black" stroke-width="1.5" stroke-linecap="round" stroke-linejoin="round"/>
<path d="M6.86 9.94V4.81" stroke="black" stroke-width="1.5" stroke-linecap="round" stroke-linejoin="round"/>
<path d="M3.78 4.81H6.86" stroke="black" stroke-width="1.5" stroke-linecap="round" stroke-linejoin="round"/>
<path d="M7.89 5.83H15.08" stroke="black" stroke-width="1.5" stroke-linecap="round" stroke-linejoin="round"/>
<path d="M13.03 8.92V5.83" stroke="black" stroke-width="1.5" stroke-linecap="round" stroke-linejoin="round"/>
<path d="M6.35 19.2C8.33822 19.2 9.95 17.5882 9.95 15.6C9.95 13.6118 8.33822 12 6.35 12C4.36177 12 2.75 13.6118 2.75 15.6C2.75 17.5882 4.36177 19.2 6.35 19.2Z" stroke="black" stroke-width="1.5" stroke-linecap="round" stroke-linejoin="round"/>
<path d="M19.71 19.19C20.5605 19.19 21.25 18.5005 21.25 17.65C21.25 16.7995 20.5605 16.11 19.71 16.11C18.8595 16.11 18.17 16.7995 18.17 17.65C18.17 18.5005 18.8595 19.19 19.71 19.19Z" stroke="black" stroke-width="1.5" stroke-linecap="round" stroke-linejoin="round"/>
</svg>
