<svg width="24" height="24" viewBox="0 0 24 24" fill="none" xmlns="http://www.w3.org/2000/svg">
<path d="M20.22 12H15.75C16.03 12.76 16.15 13.57 16.1 14.43C15.94 17.2 13.86 19.6 11.13 20.11C7.15001 20.86 3.67999 17.76 3.76999 13.9C3.85999 10.51 6.81002 7.89 10.2 7.89H20.21C20.78 7.89 21.24 8.35 21.24 8.92V10.98C21.25 11.54 20.79 12 20.22 12Z" stroke="black" stroke-width="1.5" stroke-linecap="round" stroke-linejoin="round"/>
<path d="M9.94 12.28C8.96 12.28 8.16 13.08 8.16 14.06C8.16 15.04 8.96 15.84 9.94 15.84C10.92 15.84 11.72 15.04 11.72 14.06C11.72 13.08 10.92 12.28 9.94 12.28Z" fill="black"/>
<path d="M3.78 14.06H2.75" stroke="black" stroke-width="1.5" stroke-linecap="round" stroke-linejoin="round"/>
<path d="M13.03 4.81V3.78" stroke="black" stroke-width="1.5" stroke-linecap="round" stroke-linejoin="round"/>
<path d="M10.31 4.66L9.57999 3.93" stroke="black" stroke-width="1.5" stroke-linecap="round" stroke-linejoin="round"/>
<path d="M15.75 4.66L16.47 3.93" stroke="black" stroke-width="1.5" stroke-linecap="round" stroke-linejoin="round"/>
</svg>
