<svg width="24" height="24" viewBox="0 0 24 24" fill="none" xmlns="http://www.w3.org/2000/svg">
<path d="M12 21.24C6.90001 21.24 2.76001 17.1 2.76001 12C2.76001 6.90002 6.90001 2.76001 12 2.76001C17.1 2.76001 21.24 6.90002 21.24 12" stroke="black" stroke-width="1.5" stroke-linecap="round" stroke-linejoin="round"/>
<path d="M8.85001 9.83998C9.79001 9.24998 10.9 8.91998 12.08 8.91998C13.19 8.91998 14.23 9.20999 15.12 9.71999" stroke="black" stroke-width="1.5" stroke-linecap="round" stroke-linejoin="round"/>
<path d="M10.47 12.46C10.94 12.16 11.5 12 12.09 12C12.64 12 13.17 12.14 13.61 12.4" stroke="black" stroke-width="1.5" stroke-linecap="round" stroke-linejoin="round"/>
<path d="M12.11 16.1C11.54 16.1 11.08 15.64 11.08 15.07C11.08 14.5 11.53 14.04 12.1 14.04H12.11C12.68 14.04 13.14 14.5 13.14 15.07C13.14 15.64 12.68 16.1 12.11 16.1Z" fill="black"/>
<path d="M17.66 21.25C19.6427 21.25 21.25 19.6427 21.25 17.66C21.25 15.6773 19.6427 14.07 17.66 14.07C15.6773 14.07 14.07 15.6773 14.07 17.66C14.07 19.6427 15.6773 21.25 17.66 21.25Z" stroke="black" stroke-width="1.5" stroke-linecap="round" stroke-linejoin="round"/>
<path d="M17.65 19.86C17.57 19.86 17.48 19.84 17.4 19.81C17.33 19.78 17.25 19.73 17.19 19.67C17.07 19.54 17 19.37 17 19.2C17 19.11 17.02 19.03 17.05 18.95C17.08 18.87 17.13 18.79 17.19 18.73C17.44 18.48 17.88 18.48 18.13 18.73C18.25 18.85 18.33 19.03 18.33 19.21C18.33 19.38 18.26 19.55 18.13 19.68C18 19.79 17.83 19.86 17.65 19.86Z" fill="black"/>
<path d="M17.66 15.46C17.29 15.46 17 15.76 17 16.12V17.43C17 17.8 17.3 18.09 17.66 18.09C18.03 18.09 18.32 17.79 18.32 17.43V16.12C18.32 15.75 18.02 15.46 17.66 15.46Z" fill="black"/>
</svg>
