<svg width="24" height="24" viewBox="0 0 24 24" fill="none" xmlns="http://www.w3.org/2000/svg">
<path d="M8.86 9.83998C9.8 9.24998 10.91 8.91998 12.09 8.91998C13.2 8.91998 14.24 9.20999 15.13 9.71999" stroke="black" stroke-width="1.5" stroke-linecap="round" stroke-linejoin="round"/>
<path d="M10.47 12.46C10.94 12.16 11.5 12 12.09 12C12.64 12 13.17 12.14 13.61 12.4" stroke="black" stroke-width="1.5" stroke-linecap="round" stroke-linejoin="round"/>
<path d="M12.12 16.11C11.55 16.11 11.09 15.65 11.09 15.08C11.09 14.51 11.54 14.05 12.11 14.05H12.12C12.69 14.05 13.15 14.51 13.15 15.08C13.15 15.65 12.69 16.11 12.12 16.11Z" fill="black"/>
<path d="M12 21.24C6.89999 21.24 2.75999 17.1 2.75999 12C2.75999 6.90002 6.89999 2.76001 12 2.76001C17.1 2.76001 21.24 6.90002 21.24 12" stroke="black" stroke-width="1.5" stroke-linecap="round" stroke-linejoin="round"/>
<path d="M17.66 21.25C19.6427 21.25 21.25 19.6427 21.25 17.66C21.25 15.6773 19.6427 14.07 17.66 14.07C15.6773 14.07 14.07 15.6773 14.07 17.66C14.07 19.6427 15.6773 21.25 17.66 21.25Z" stroke="black" stroke-width="1.5" stroke-linecap="round" stroke-linejoin="round"/>
<path d="M18.78 16.89C18.78 17.35 18.45 17.62 18.21 17.83C18.12 17.91 17.95 18.05 17.95 18.1C17.95 18.31 17.79 18.47 17.58 18.47C17.38 18.47 17.21 18.31 17.21 18.11C17.21 17.71 17.5 17.46 17.74 17.27C17.93 17.11 18.05 17 18.05 16.9C18.05 16.7 17.88 16.53 17.68 16.53C17.48 16.53 17.31 16.7 17.31 16.9C17.31 17.11 17.14 17.27 16.94 17.27C16.74 17.27 16.57 17.1 16.57 16.9C16.57 16.29 17.07 15.78 17.69 15.78C18.28 15.77 18.78 16.27 18.78 16.89Z" fill="black"/>
<path d="M17.58 18.81C17.37 18.81 17.22 18.98 17.22 19.18C17.22 19.39 17.38 19.55 17.58 19.55C17.79 19.55 17.95 19.38 17.95 19.18C17.95 18.98 17.79 18.81 17.58 18.81Z" fill="black"/>
</svg>
