<svg width="24" height="24" viewBox="0 0 24 24" fill="none" xmlns="http://www.w3.org/2000/svg">
<path d="M11.77 2C6.26002 2 1.77002 6.49 1.77002 12C1.77002 17.51 6.26002 22 11.77 22C17.28 22 21.77 17.51 21.77 12C21.77 6.49 17.28 2 11.77 2ZM9.84003 11.83C11 11.1 12.59 11.07 13.77 11.75C14.12 11.96 14.25 12.42 14.04 12.78C13.83 13.14 13.37 13.26 13.01 13.05C12.31 12.64 11.34 12.66 10.64 13.1C10.52 13.18 10.38 13.21 10.24 13.21C10 13.21 9.75002 13.09 9.61002 12.86C9.39002 12.51 9.49003 12.05 9.84003 11.83ZM10.86 15.08C10.86 14.51 11.31 14.05 11.88 14.05H11.89C12.46 14.05 12.92 14.51 12.92 15.08C12.92 15.65 12.46 16.11 11.89 16.11C11.32 16.11 10.86 15.65 10.86 15.08ZM15.56 10.09C15.35 10.45 14.9 10.57 14.54 10.37C12.89 9.42 10.69 9.45 9.03003 10.48C8.90003 10.56 8.77004 10.59 8.63004 10.59C8.38004 10.59 8.14002 10.47 7.99002 10.24C7.77002 9.89 7.88004 9.42 8.23004 9.21C10.37 7.89 13.17 7.85 15.28 9.07C15.64 9.28 15.77 9.73 15.56 10.09Z" fill="black"/>
</svg>
