<svg width="24" height="24" viewBox="0 0 24 24" fill="none" xmlns="http://www.w3.org/2000/svg">
<path d="M8.85999 9.84C9.80999 9.25 10.92 8.91 12.1 8.91C13.21 8.91 14.25 9.2 15.14 9.71" stroke="black" stroke-width="1.5" stroke-linecap="round" stroke-linejoin="round"/>
<path d="M10.47 12.46C10.94 12.16 11.5 12 12.09 12C12.65 12 13.17 12.14 13.61 12.4" stroke="black" stroke-width="1.5" stroke-linecap="round" stroke-linejoin="round"/>
<path d="M12.12 16.11C11.55 16.11 11.09 15.65 11.09 15.08C11.09 14.51 11.55 14.05 12.11 14.05H12.12C12.69 14.05 13.15 14.51 13.15 15.08C13.15 15.65 12.69 16.11 12.12 16.11Z" fill="black"/>
<path d="M12 21.25C17.1086 21.25 21.25 17.1086 21.25 12C21.25 6.89137 17.1086 2.75 12 2.75C6.89137 2.75 2.75 6.89137 2.75 12C2.75 17.1086 6.89137 21.25 12 21.25Z" stroke="black" stroke-width="1.5" stroke-linecap="round" stroke-linejoin="round"/>
</svg>
