<svg width="24" height="24" viewBox="0 0 24 24" fill="none" xmlns="http://www.w3.org/2000/svg">
<path d="M19.68 15.65C19.16 15.12 18.45 14.8 17.66 14.8C16.09 14.8 14.81 16.08 14.81 17.65C14.81 18.43 15.13 19.15 15.66 19.67C16.09 20.1 16.67 20.39 17.31 20.47C17.42 20.48 17.54 20.49 17.66 20.49C19.23 20.49 20.5 19.21 20.5 17.65C20.5 17.53 20.49 17.42 20.48 17.31C20.4 16.66 20.11 16.08 19.68 15.65ZM17.3 19.38C17.11 19.38 16.92 19.31 16.77 19.16L16.7 19.09L15.91 18.29C15.61 18 15.61 17.53 15.91 17.23C16.2 16.94 16.67 16.94 16.97 17.23L17.3 17.57L18.35 16.53C18.6 16.27 18.98 16.24 19.27 16.42C19.32 16.45 19.37 16.49 19.41 16.53C19.7 16.82 19.7 17.29 19.41 17.59L17.83 19.16C17.69 19.31 17.5 19.38 17.3 19.38Z" fill="black"/>
<path d="M12.01 2C6.49001 2 2.01001 6.49 2.01001 12C2.01001 17.51 6.49001 22 12.01 22C13.22 22 14.38 21.78 15.46 21.38C14.95 21.09 14.51 20.69 14.16 20.22C13.63 19.5 13.31 18.61 13.31 17.65C13.31 15.25 15.26 13.3 17.66 13.3C18.62 13.3 19.51 13.62 20.23 14.16C20.7 14.49 21.1 14.94 21.4 15.45C21.79 14.37 22.01 13.21 22.01 12C22.01 6.49 17.52 2 12.01 2ZM11.08 15.06C11.08 14.49 11.53 14.04 12.1 14.04H12.11C12.68 14.04 13.14 14.49 13.14 15.06C13.14 15.63 12.68 16.09 12.11 16.09C11.55 16.09 11.08 15.63 11.08 15.06ZM14.26 12.76C14.05 13.12 13.6 13.24 13.23 13.03C12.53 12.63 11.57 12.64 10.87 13.08C10.74 13.16 10.61 13.2 10.47 13.2C10.22 13.2 9.98001 13.07 9.83001 12.85C9.61001 12.5 9.72001 12.03 10.07 11.81C11.23 11.08 12.81 11.05 13.99 11.73C14.35 11.94 14.47 12.4 14.26 12.76ZM15.78 10.08C15.57 10.44 15.12 10.56 14.76 10.35C13.11 9.41001 10.92 9.43001 9.25001 10.46C9.13001 10.54 8.99001 10.58 8.86001 10.58C8.61001 10.58 8.36001 10.45 8.22001 10.22C8.00001 9.87 8.11001 9.41 8.46001 9.19C10.59 7.87 13.39 7.84 15.5 9.05C15.86 9.26 15.99 9.72 15.78 10.08Z" fill="black"/>
</svg>
