<svg width="24" height="24" viewBox="0 0 24 24" fill="none" xmlns="http://www.w3.org/2000/svg">
<path d="M15.61 6.37C15.47 6.52 15.27 6.59 15.08 6.59C14.89 6.59 14.7 6.52 14.55 6.37L12.75 4.57V10.97C12.75 11.18 12.66 11.37 12.53 11.5C12.39 11.64 12.2 11.72 12 11.72C11.8 11.72 11.61 11.64 11.47 11.5C11.34 11.37 11.25 11.18 11.25 10.97V4.57L9.45004 6.37C9.30004 6.52 9.11004 6.59 8.92004 6.59C8.73004 6.59 8.53004 6.52 8.39004 6.37C8.09004 6.08 8.09004 5.61 8.39004 5.31L11.44 2.25C11.58 2.1 11.78 2 12 2C12.22 2 12.42 2.1 12.56 2.25L15.61 5.31C15.91 5.61 15.91 6.08 15.61 6.37Z" fill="black"/>
<path d="M12 11.72C11.8 11.72 11.61 11.64 11.47 11.5H12.53C12.39 11.64 12.2 11.72 12 11.72Z" fill="black"/>
<path d="M17.14 12.27H6.85999C4.17999 12.27 2 14.45 2 17.13C2 19.81 4.17999 22 6.85999 22H17.14C19.82 22 22 19.81 22 17.13C22 14.45 19.82 12.27 17.14 12.27ZM13.03 17.88H10.97C10.56 17.88 10.22 17.55 10.22 17.13C10.22 16.72 10.56 16.38 10.97 16.38H13.03C13.44 16.38 13.78 16.72 13.78 17.13C13.78 17.55 13.44 17.88 13.03 17.88Z" fill="black"/>
</svg>
