<svg width="24" height="24" viewBox="0 0 24 24" fill="none" xmlns="http://www.w3.org/2000/svg">
<path d="M12 2.25C6.62 2.25 2.25 6.62 2.25 12C2.25 17.37 6.62 21.75 12 21.75C17.38 21.75 21.75 17.37 21.75 12C21.75 6.62 17.38 2.25 12 2.25ZM9.57001 16.49C9.29001 16.8 8.82001 16.83 8.51001 16.56C8.20001 16.29 8.15999 15.82 8.42999 15.5L10.43 13.2C11.25 12.27 12.75 12.27 13.57 13.2L15.57 15.5C15.84 15.82 15.8 16.29 15.49 16.56C15.35 16.69 15.17 16.75 15 16.75C14.79 16.75 14.58 16.66 14.43 16.49L12.43 14.19C12.19 13.9 11.81 13.9 11.57 14.19L9.57001 16.49ZM15.57 8.49L13.57 10.79C13.16 11.26 12.59 11.53 12 11.53C11.41 11.53 10.84 11.26 10.43 10.79L8.42999 8.49C8.15999 8.17 8.20001 7.7 8.51001 7.43C8.82001 7.16 9.29001 7.19 9.57001 7.5L11.57 9.81C11.81 10.09 12.19 10.09 12.43 9.81L14.43 7.5C14.71 7.19 15.18 7.16 15.49 7.43C15.8 7.7 15.84 8.17 15.57 8.49Z" fill="black"/>
</svg>
