<svg width="24" height="24" viewBox="0 0 24 24" fill="none" xmlns="http://www.w3.org/2000/svg">
<path d="M19.42 5.19002C17.91 4.77002 12.62 4.76001 12.02 4.76001C11.42 4.76001 6.09 4.77002 4.59 5.19002C3.54 5.46002 2.69999 6.32002 2.42999 7.36002C2.00999 8.87002 2 11.91 2 12.03C2 12.16 2.00999 15.16 2.42999 16.68C2.68999 17.74 3.52 18.57 4.59 18.85C6.1 19.23 11.42 19.24 12.02 19.24C12.62 19.24 17.9 19.23 19.41 18.85C20.48 18.57 21.31 17.74 21.57 16.7C22 15.16 22 12.16 22 12.03C22 11.91 22 8.88002 21.57 7.38002C21.3 6.32002 20.45 5.46002 19.42 5.19002ZM10.5 15.35C10.27 15.35 10.05 15.29 9.84 15.18C9.44 14.94 9.19 14.52 9.19 14.04V10.02C9.19 9.55002 9.44 9.13001 9.84 8.89001C10.25 8.66001 10.74 8.65001 11.15 8.89001L14.67 10.9C15.08 11.13 15.33 11.57 15.33 12.03C15.33 12.5 15.08 12.94 14.67 13.17L11.15 15.18C10.94 15.3 10.72 15.35 10.5 15.35Z" fill="black"/>
</svg>
