<svg width="24" height="24" viewBox="0 0 24 24" fill="none" xmlns="http://www.w3.org/2000/svg">
<path d="M5.84 14.81C5.43 14.81 5.09 14.47 5.09 14.06C5.09 13.64 5.43 13.31 5.84 13.31H7.03999C7.09999 12.9 7.14 12.48 7.14 12.06C7.14 11.6 7.1 11.14 7.03 10.69H5.84C5.43 10.69 5.09 10.36 5.09 9.94C5.09 9.53 5.43 9.19 5.84 9.19H6.64C6.33 8.33 5.88 7.51 5.3 6.78C5.14 6.98 5 7.19 4.86 7.4C4.82 7.45 4.78999 7.51 4.75999 7.57C4.65999 7.73 4.56 7.89 4.48 8.05C4.44 8.13 4.4 8.21 4.36 8.29C4.29 8.44 4.22 8.59 4.16 8.74C4.12 8.83 4.09 8.91 4.05 9C4 9.15 3.93999 9.3 3.89999 9.45C3.86999 9.54 3.84 9.64 3.81 9.73C3.77 9.88 3.73 10.04 3.7 10.2C3.68 10.29 3.66 10.38 3.64 10.48C3.61 10.64 3.59001 10.82 3.57001 10.99C3.56001 11.07 3.53999 11.15 3.53999 11.23C3.50999 11.49 3.5 11.74 3.5 12C3.5 12.26 3.50999 12.52 3.53999 12.78C3.53999 12.86 3.56001 12.95 3.57001 13.03C3.59001 13.2 3.61 13.37 3.64 13.54C3.66 13.64 3.68001 13.74 3.71001 13.83C3.74001 13.99 3.78001 14.14 3.82001 14.29C3.85001 14.39 3.88 14.49 3.91 14.59C3.95 14.73 4 14.88 4.06 15.02C4.1 15.12 4.13 15.21 4.17 15.31C4.23 15.45 4.3 15.59 4.37 15.73C4.41 15.82 4.45999 15.91 4.50999 16C4.57999 16.15 4.67 16.29 4.75 16.43C4.8 16.5 4.84999 16.59 4.89999 16.66C5.01999 16.85 5.14999 17.03 5.28999 17.21C5.30999 17.23 5.33 17.26 5.34 17.28C5.93 16.53 6.38 15.7 6.69 14.81H5.84Z" fill="black"/>
<path d="M15.09 14.81C14.68 14.81 14.34 14.47 14.34 14.06C14.34 13.64 14.68 13.31 15.09 13.31H15.45C15.4 12.9 15.36 12.48 15.36 12.06C15.36 11.6 15.4 11.14 15.47 10.69H15.09C14.68 10.69 14.34 10.36 14.34 9.94C14.34 9.53 14.68 9.19 15.09 9.19H15.78C16.16 7.92 16.8 6.73 17.67 5.68C16.12 4.29 14.09 3.5 12 3.5C9.90002 3.5 7.88002 4.29 6.33002 5.68C7.20002 6.73 7.84002 7.92 8.22002 9.19H8.93001C9.34001 9.19 9.68001 9.53 9.68001 9.94C9.68001 10.36 9.34001 10.69 8.93001 10.69H8.53001C8.60001 11.14 8.64001 11.6 8.64001 12.06C8.64001 12.48 8.60002 12.9 8.55002 13.31H8.93001C9.34001 13.31 9.68001 13.64 9.68001 14.06C9.68001 14.47 9.34001 14.81 8.93001 14.81H8.25002C7.89002 16.1 7.25001 17.31 6.39001 18.37C7.94001 19.74 9.90002 20.5 12 20.5C14.1 20.5 16.06 19.74 17.61 18.37C16.75 17.31 16.11 16.1 15.75 14.81H15.09Z" fill="black"/>
<path d="M20.46 11.23C20.46 11.15 20.44 11.07 20.43 10.99C20.41 10.82 20.39 10.64 20.36 10.48C20.34 10.38 20.32 10.29 20.3 10.2C20.27 10.04 20.23 9.89 20.19 9.73C20.16 9.64 20.13 9.54 20.1 9.45C20.06 9.3 20.01 9.15 19.95 9.01C19.92 8.92 19.88 8.82 19.84 8.73C19.78 8.59 19.71 8.44 19.64 8.3C19.6 8.22 19.56 8.13 19.52 8.05C19.44 7.89 19.35 7.74 19.26 7.59C19.22 7.53 19.18 7.46 19.14 7.39C19 7.18 18.85 6.98 18.7 6.78C18.12 7.51 17.67 8.33 17.36 9.19H18.18C18.59 9.19 18.93 9.53 18.93 9.94C18.93 10.36 18.59 10.69 18.18 10.69H16.97C16.9 11.14 16.86 11.6 16.86 12.06C16.86 12.48 16.9 12.9 16.96 13.31H18.18C18.59 13.31 18.93 13.64 18.93 14.06C18.93 14.47 18.59 14.81 18.18 14.81H17.31C17.62 15.7 18.07 16.53 18.66 17.28C18.67 17.26 18.68 17.24 18.7 17.22C18.84 17.04 18.98 16.85 19.1 16.66C19.15 16.59 19.2 16.51 19.24 16.43C19.33 16.29 19.42 16.15 19.5 16C19.54 15.91 19.59 15.82 19.63 15.73C19.7 15.59 19.77 15.45 19.83 15.31C19.87 15.21 19.9 15.12 19.94 15.02C20 14.88 20.05 14.73 20.09 14.59C20.12 14.49 20.15 14.39 20.18 14.29C20.22 14.14 20.26 13.99 20.29 13.83C20.32 13.73 20.34 13.64 20.36 13.54C20.39 13.37 20.41 13.2 20.43 13.03C20.44 12.95 20.46 12.86 20.46 12.78C20.49 12.52 20.5 12.26 20.5 12C20.5 11.74 20.49 11.49 20.46 11.23Z" fill="black"/>
</svg>
