<svg width="24" height="24" viewBox="0 0 24 24" fill="none" xmlns="http://www.w3.org/2000/svg">
<path d="M19.71 7.96C19.3 7.96 18.92 8.08 18.59 8.27C18.19 7.59 17.46 7.14 16.62 7.14C15.36 7.14 14.33 8.17 14.33 9.43V11.25H9.94C9.85 11.25 9.75001 11.27 9.67001 11.31V9.43C9.67001 8.17 8.64001 7.14 7.38 7.14C6.54 7.14 5.81 7.59 5.41 8.27C5.08 8.08 4.70001 7.96 4.29001 7.96C3.03001 7.96 2 8.99 2 10.25V13.91C2 15.08 2.96 16.04 4.13 16.04H4.45001C4.79001 16.04 5.11001 15.95 5.39001 15.81C5.76001 16.44 6.42999 16.86 7.20999 16.86H7.54001C8.71001 16.86 9.67001 15.91 9.67001 14.73V12.69C9.75001 12.73 9.85 12.75 9.94 12.75H14.33V14.73C14.33 15.91 15.29 16.86 16.46 16.86H16.79C17.59 16.86 18.28 16.41 18.64 15.76C18.96 15.93 19.32 16.04 19.71 16.04C20.97 16.04 22 15.01 22 13.75V10.25C22 8.99 20.97 7.96 19.71 7.96Z" fill="black"/>
</svg>
