<svg width="24" height="24" viewBox="0 0 24 24" fill="none" xmlns="http://www.w3.org/2000/svg">
<path d="M10.66 10.16L9.82999 12.71L12 14.28L14.17 12.71L13.34 10.16H10.66Z" fill="black"/>
<path d="M20.49 11.73C20.49 11.6 20.48 11.48 20.47 11.35C20.45 11.14 20.43 10.92 20.39 10.71C20.38 10.61 20.36 10.51 20.34 10.42C20.33 10.33 20.31 10.23 20.29 10.14C20.27 10.05 20.25 9.96 20.22 9.88C20.19 9.74 20.15 9.61 20.11 9.48C20.07 9.35 20.03 9.23 19.98 9.1C19.97 9.09 19.97 9.08 19.96 9.07C19.92 8.95 19.87 8.82 19.82 8.7C19.77 8.57 19.71 8.45 19.65 8.33C19.59 8.2 19.53 8.08 19.47 7.96C19.46 7.96 19.45 7.95 19.45 7.93C19.39 7.82 19.32 7.71 19.25 7.6C19.18 7.48 19.11 7.36 19.03 7.25C19.01 7.22 19 7.19 18.97 7.17C18.97 7.15 18.95 7.14 18.94 7.12C18.89 7.05 18.84 6.98 18.79 6.92C18.36 6.35 17.85 5.83 17.3 5.37C17.22 5.31 17.15 5.25 17.06 5.19C16.95 5.11 16.84 5.03 16.73 4.95C16.5 4.8 16.27 4.65 16.03 4.52C15.67 4.32 15.3 4.15 14.91 4.01C14.77 3.95 14.62 3.9 14.48 3.86C14.47 3.86 14.46 3.85 14.45 3.85C14.33 3.82 14.22 3.78 14.1 3.77C13.9 3.72 13.72 3.68 13.52 3.64C13.35 3.61 13.17 3.58 12.99 3.56C12.86 3.54 12.73 3.53 12.59 3.53C12.39 3.51 12.17 3.5 11.97 3.5C11.96 3.5 11.96 3.5 11.95 3.5C11.75 3.5 11.54 3.51 11.34 3.53C11.21 3.54 11.09 3.55 10.97 3.56C10.77 3.59 10.59 3.61 10.4 3.64C10.21 3.67 10.03 3.72 9.84999 3.77C9.72999 3.79 9.61999 3.82 9.50999 3.85C9.48999 3.86 9.47999 3.86 9.45999 3.88H9.44999C9.04999 4 8.65999 4.15 8.28999 4.34C8.15999 4.4 8.03999 4.46 7.91999 4.53C7.67999 4.66 7.44999 4.8 7.21999 4.96C7.10999 5.04 6.99999 5.11 6.88999 5.2C6.79999 5.27 6.7 5.34 6.62 5.4C6.59 5.44 6.54999 5.47 6.50999 5.49C6.41999 5.57 6.33999 5.63 6.25999 5.71C5.85999 6.08 5.49 6.48 5.16 6.92C5.13 6.96 5.08999 7.01 5.06999 7.06C5.05999 7.07 5.05 7.07 5.05 7.08C5.03 7.09 5.01999 7.11 5.01999 7.12C5.01999 7.13 5.00999 7.13 5.00999 7.14C4.97999 7.17 4.94999 7.22 4.92999 7.26C4.75999 7.51 4.60999 7.77 4.45999 8.03C4.40999 8.13 4.35999 8.23 4.31999 8.33C4.19999 8.58 4.08999 8.83 3.99999 9.09C3.94999 9.23 3.90999 9.35 3.85999 9.49C3.77999 9.74 3.72 9.98 3.66 10.25C3.65 10.28 3.63999 10.32 3.62999 10.36C3.59999 10.48 3.58999 10.6 3.56999 10.73C3.53999 10.87 3.52999 11.01 3.50999 11.16C3.49999 11.24 3.48999 11.32 3.48999 11.41C3.46999 11.52 3.46999 11.62 3.46999 11.73C3.45999 11.76 3.45999 11.79 3.45999 11.82V11.86V12C3.45999 12.2 3.46999 12.4 3.48999 12.6C3.49999 12.84 3.51999 13.06 3.56999 13.29C3.57999 13.39 3.6 13.49 3.62 13.6C3.63 13.68 3.65 13.74 3.66 13.81C3.71 14.04 3.75999 14.26 3.82999 14.47C3.83999 14.5 3.84999 14.52 3.85999 14.55C3.88999 14.67 3.94 14.78 3.98 14.89C4.02 15.03 4.07999 15.16 4.13999 15.31C4.18999 15.44 4.24999 15.56 4.30999 15.68C4.53999 16.16 4.81999 16.62 5.13999 17.06C5.16999 17.09 5.17999 17.12 5.20999 17.15C5.60999 17.67 6.05999 18.14 6.55999 18.56C6.65999 18.65 6.76999 18.73 6.87999 18.81C6.98999 18.89 7.09999 18.97 7.20999 19.05C7.31999 19.13 7.43999 19.2 7.55999 19.27C8.05999 19.58 8.59999 19.83 9.14999 20.03C9.15999 20.04 9.17999 20.04 9.18999 20.05H9.19999C9.22999 20.07 9.27 20.08 9.3 20.08C9.33 20.1 9.34999 20.11 9.37999 20.11C9.43999 20.14 9.49 20.15 9.55 20.17C9.71 20.22 9.87999 20.26 10.06 20.3C10.21 20.34 10.37 20.38 10.53 20.39C10.8 20.44 11.08 20.48 11.36 20.49C11.56 20.51 11.76 20.52 11.96 20.52C12.16 20.52 12.36 20.51 12.56 20.49C12.84 20.47 13.12 20.44 13.39 20.39C13.54 20.37 13.7 20.34 13.86 20.3C14.03 20.27 14.2 20.22 14.37 20.17C14.45 20.14 14.54 20.12 14.62 20.09C14.63 20.09 14.64 20.09 14.64 20.09C14.67 20.08 14.7 20.07 14.73 20.06C14.75 20.05 14.76 20.05 14.77 20.04C15.07 19.94 15.36 19.82 15.63 19.68C15.88 19.55 16.12 19.43 16.36 19.28C16.48 19.21 16.6 19.14 16.71 19.06C16.82 18.98 16.93 18.91 17.04 18.82C17.54 18.45 17.99 18.02 18.41 17.55C18.49 17.45 18.58 17.35 18.66 17.24C18.67 17.22 18.69 17.21 18.7 17.19C18.71 17.18 18.73 17.16 18.73 17.16V17.15C18.74 17.14 18.74 17.14 18.74 17.13C18.83 17.01 18.92 16.89 19 16.76C19.08 16.65 19.15 16.53 19.22 16.41C19.3 16.3 19.36 16.18 19.42 16.06C19.62 15.69 19.79 15.32 19.93 14.93C19.97 14.81 20.01 14.69 20.05 14.57C20.1 14.43 20.14 14.27 20.18 14.13C20.21 14.04 20.23 13.94 20.25 13.85C20.28 13.76 20.29 13.66 20.31 13.56C20.33 13.48 20.34 13.39 20.35 13.3C20.38 13.08 20.41 12.85 20.43 12.62C20.45 12.42 20.46 12.21 20.46 12.01V11.87V11.84C20.5 11.79 20.5 11.75 20.49 11.73ZM18.72 13.67L18.29 14.04V14.05L18.54 15.09C18.54 15.1 18.54 15.1 18.54 15.1C18.29 15.64 17.96 16.14 17.59 16.6L17.45 15.99L17.06 14.32H17.05L15.05 13.66H15.04L12.65 15.39V17.5L14.64 18.72C14.1 18.94 13.53 19.09 12.94 19.16H12.93L12 18.6L11.08 19.17C10.48 19.09 9.91 18.95 9.37 18.73L11.36 17.51V15.4L8.96999 13.67H8.95999L6.95999 14.32H6.94999L6.55 16.05L6.41 16.61C6.04 16.15 5.70999 15.65 5.45999 15.11C5.45999 15.11 5.45999 15.11 5.45999 15.1C5.45999 15.1 5.45999 15.1 5.45999 15.09L5.70999 14.04V14.03L4.88999 13.33C4.87999 13.33 4.87999 13.32 4.87999 13.32C4.79999 12.89 4.75999 12.44 4.75999 11.99C4.75999 11.84 4.76999 11.69 4.77999 11.54L6.55999 13.08L8.56999 12.44V12.43L9.48 9.62L8.25999 7.9L7.99999 7.93L5.92999 8.08C6.24999 7.58 6.63999 7.13 7.06999 6.72L8.12999 6.64L8.53999 5.65C9.04999 5.37 9.59999 5.15 10.18 5L9.68999 6.21L9.3 7.16L9.45999 7.39L10.51 8.88H10.52H13.49L14.73 7.18V7.17L13.82 5.01C14.41 5.15 14.97 5.38 15.49 5.67L15.89 6.65L15.9 6.66L16.94 6.74H16.95C17.38 7.14 17.77 7.59 18.09 8.09L15.77 7.93L14.53 9.63L15.44 12.45L15.69 12.54L17.44 13.12V13.1L19.22 11.56H19.23C19.23 11.7 19.24 11.85 19.24 11.99C19.24 12.45 19.2 12.9 19.11 13.33L18.72 13.67Z" fill="black"/>
</svg>
