<svg width="24" height="24" viewBox="0 0 24 24" fill="none" xmlns="http://www.w3.org/2000/svg">
<path d="M20.22 2H3.78C3.30791 2 2.85516 2.18754 2.52135 2.52135C2.18754 2.85516 2 3.30791 2 3.78L2 16.11C2 16.3089 2.07902 16.4997 2.21967 16.6403C2.36032 16.781 2.55109 16.86 2.75 16.86H2.85H2.95H4.81C5.00891 16.86 5.19968 16.781 5.34033 16.6403C5.48098 16.4997 5.56 16.3089 5.56 16.11C5.56 15.9111 5.48098 15.7203 5.34033 15.5797C5.19968 15.439 5.00891 15.36 4.81 15.36H3.5V3.78C3.4986 3.74285 3.50488 3.70582 3.51845 3.67121C3.53203 3.6366 3.5526 3.60517 3.57889 3.57889C3.60517 3.5526 3.6366 3.53203 3.67121 3.51845C3.70582 3.50488 3.74285 3.4986 3.78 3.5H20.22C20.2571 3.4986 20.2942 3.50488 20.3288 3.51845C20.3634 3.53203 20.3948 3.5526 20.4211 3.57889C20.4474 3.60517 20.468 3.6366 20.4815 3.67121C20.4951 3.70582 20.5014 3.74285 20.5 3.78V15.36H19.1C18.9011 15.36 18.7103 15.439 18.5697 15.5797C18.429 15.7203 18.35 15.9111 18.35 16.11C18.35 16.3089 18.429 16.4997 18.5697 16.6403C18.7103 16.781 18.9011 16.86 19.1 16.86H21.25C21.4489 16.86 21.6397 16.781 21.7803 16.6403C21.921 16.4997 22 16.3089 22 16.11V3.78C22 3.30791 21.8125 2.85516 21.4786 2.52135C21.1448 2.18754 20.6921 2 20.22 2Z" fill="black"/>
<path d="M18.92 12C18.9174 11.8019 18.8376 11.6126 18.6975 11.4725C18.5574 11.3324 18.3681 11.2526 18.17 11.25H16.86V8.64H18.17C18.3689 8.64 18.5597 8.56098 18.7003 8.42033C18.841 8.27968 18.92 8.08891 18.92 7.89C18.92 7.69109 18.841 7.50032 18.7003 7.35967C18.5597 7.21902 18.3689 7.14 18.17 7.14H16.86V5.83C16.86 5.63109 16.781 5.44032 16.6403 5.29967C16.4997 5.15902 16.3089 5.08 16.11 5.08C15.9111 5.08 15.7203 5.15902 15.5797 5.29967C15.439 5.44032 15.36 5.63109 15.36 5.83V7.14H12.75V5.83C12.75 5.63109 12.671 5.44032 12.5303 5.29967C12.3897 5.15902 12.1989 5.08 12 5.08C11.8011 5.08 11.6103 5.15902 11.4697 5.29967C11.329 5.44032 11.25 5.63109 11.25 5.83V7.14H8.64002V5.83C8.64002 5.73151 8.62062 5.63398 8.58293 5.54299C8.54524 5.452 8.48999 5.36932 8.42035 5.29967C8.3507 5.23003 8.26802 5.17478 8.17703 5.13709C8.08604 5.0994 7.98851 5.08 7.89002 5.08C7.79153 5.08 7.694 5.0994 7.603 5.13709C7.51201 5.17478 7.42933 5.23003 7.35969 5.29967C7.29004 5.36932 7.2348 5.452 7.19711 5.54299C7.15942 5.63398 7.14002 5.73151 7.14002 5.83V7.14H5.83002C5.73153 7.14 5.634 7.1594 5.543 7.19709C5.45201 7.23478 5.36933 7.29003 5.29969 7.35967C5.23004 7.42932 5.1748 7.512 5.13711 7.60299C5.09942 7.69398 5.08002 7.79151 5.08002 7.89C5.08002 7.98849 5.09942 8.08602 5.13711 8.17701C5.1748 8.26801 5.23004 8.35069 5.29969 8.42033C5.36933 8.48998 5.45201 8.54522 5.543 8.58291C5.634 8.6206 5.73153 8.64 5.83002 8.64H7.14002V11.25H5.83002C5.6311 11.25 5.44034 11.329 5.29969 11.4697C5.15903 11.6103 5.08002 11.8011 5.08002 12C5.08002 12.1989 5.15903 12.3897 5.29969 12.5303C5.44034 12.671 5.6311 12.75 5.83002 12.75H7.14002V14.06C7.14002 14.2589 7.21903 14.4497 7.35969 14.5903C7.50034 14.731 7.6911 14.81 7.89002 14.81C8.08893 14.81 8.2797 14.731 8.42035 14.5903C8.561 14.4497 8.64002 14.2589 8.64002 14.06V12.75H11.25V14.06C11.25 14.2589 11.329 14.4497 11.4697 14.5903C11.6103 14.731 11.8011 14.81 12 14.81C12.1989 14.81 12.3897 14.731 12.5303 14.5903C12.671 14.4497 12.75 14.2589 12.75 14.06V12.75H15.36V14.06C15.36 14.2589 15.439 14.4497 15.5797 14.5903C15.7203 14.731 15.9111 14.81 16.11 14.81C16.3089 14.81 16.4997 14.731 16.6403 14.5903C16.781 14.4497 16.86 14.2589 16.86 14.06V12.75H18.17C18.3681 12.7474 18.5574 12.6676 18.6975 12.5275C18.8376 12.3874 18.9174 12.1981 18.92 12ZM11.25 11.25H8.64002V8.64H11.25V11.25ZM15.36 11.25H12.75V8.64H15.36V11.25Z" fill="black"/>
<path d="M14 16.39C13.4434 16.388 12.8987 16.5514 12.4351 16.8594C11.9714 17.1674 11.6097 17.6062 11.3958 18.12C11.1819 18.6339 11.1254 19.1997 11.2335 19.7457C11.3416 20.2918 11.6094 20.7934 12.003 21.187C12.3966 21.5805 12.8982 21.8484 13.4442 21.9565C13.9903 22.0646 14.5561 22.0081 15.0699 21.7942C15.5838 21.5803 16.0226 21.2185 16.3306 20.7549C16.6386 20.2913 16.802 19.7466 16.8 19.19C16.7973 18.4482 16.5015 17.7375 15.977 17.213C15.4524 16.6885 14.7418 16.3926 14 16.39Z" fill="black"/>
</svg>
