<svg width="24" height="24" viewBox="0 0 24 24" fill="none" xmlns="http://www.w3.org/2000/svg">
<path d="M20.46 10.46C20.46 5.79 16.66 2 12 2C7.34001 2 3.54001 5.79 3.54001 10.46C3.54001 14.57 6.49001 18 10.38 18.76C10.34 18.81 10.3 18.85 10.28 18.91C10.2 19.09 10.2 19.3 10.28 19.48C10.32 19.57 10.37 19.66 10.44 19.72L11.25 20.53V21.25C11.25 21.66 11.59 22 12 22C12.41 22 12.75 21.66 12.75 21.25V20.53L13.56 19.72C13.63 19.66 13.68 19.57 13.72 19.48C13.8 19.3 13.8 19.09 13.72 18.91C13.7 18.85 13.66 18.81 13.62 18.76C17.51 18 20.46 14.57 20.46 10.46ZM10.48 6.86C10.48 7.43 10.02 7.89 9.45001 7.89C8.88001 7.89 8.42001 7.43 8.42001 6.86C8.42001 6.29 8.87001 5.83 9.44001 5.83H9.45001C10.02 5.83 10.48 6.29 10.48 6.86ZM7.90001 7.89C8.48001 7.89 8.94001 8.35 8.94001 8.92C8.94001 9.48 8.48001 9.94 7.91001 9.94C7.34001 9.94 6.88001 9.48 6.88001 8.92C6.88001 8.35 7.33001 7.89 7.90001 7.89ZM10.99 9.94C10.43 9.94 9.96001 9.48 9.96001 8.92C9.96001 8.35 10.41 7.89 10.98 7.89H10.99C11.56 7.89 12.02 8.35 12.02 8.92C12.02 9.48 11.56 9.94 10.99 9.94Z" fill="black"/>
<path d="M12 2C7.34001 2 3.54001 5.79 3.54001 10.46C3.54001 14.57 6.49001 18 10.38 18.76C10.34 18.81 10.3 18.85 10.28 18.91C10.2 19.09 10.2 19.3 10.28 19.48C10.32 19.57 10.37 19.66 10.44 19.72L11.25 20.53V21.25C11.25 21.66 11.59 22 12 22C12.41 22 12.75 21.66 12.75 21.25V20.53L13.56 19.72C13.63 19.66 13.68 19.57 13.72 19.48C13.8 19.3 13.8 19.09 13.72 18.91C13.7 18.85 13.66 18.81 13.62 18.76C17.51 18 20.46 14.57 20.46 10.46C20.46 5.79 16.66 2 12 2ZM12 17.42C8.16001 17.42 5.04001 14.29 5.04001 10.46C5.04001 6.62 8.16001 3.5 12 3.5C15.84 3.5 18.96 6.62 18.96 10.46C18.96 14.29 15.84 17.42 12 17.42Z" fill="black"/>
</svg>
