<svg width="24" height="24" viewBox="0 0 24 24" fill="none" xmlns="http://www.w3.org/2000/svg">
<path d="M19.82 4.06H12.75V2.75C12.75 2.34 12.41 2 12 2H2.75C2.34 2 2 2.34 2 2.75V21.25C2 21.66 2.34 22 2.75 22C3.16 22 3.5 21.66 3.5 21.25V15.83H11.25V17.14C11.25 17.55 11.59 17.89 12 17.89H19.89C21.06 17.89 22 16.94 22 15.78V6.24C22 5.03 21.02 4.06 19.82 4.06ZM6.62 10.22H3.5V7.61H6.62V10.22ZM11.25 14.33H8.12V11.72H11.25V14.33ZM11.25 6.11H8.12V3.5H11.25V6.11ZM15.88 12.28H12.75V9.67H15.88V12.28ZM20.5 15.78C20.5 16.12 20.23 16.39 19.89 16.39H17.38V13.78H20.5V15.78ZM20.5 8.17H17.38V5.56H19.82C20.2 5.56 20.5 5.86 20.5 6.24V8.17Z" fill="black"/>
</svg>
