<svg width="24" height="24" viewBox="0 0 24 24" fill="none" xmlns="http://www.w3.org/2000/svg">
<path d="M18.7 7.39C18.84 7.25 18.92 7.06 18.92 6.86C18.92 6.78 18.9 6.7 18.87 6.62C18.87 6.61 18.87 6.59 18.86 6.58C18.86 6.57 18.86 6.57 18.86 6.57C18.82 6.48 18.77 6.4 18.7 6.33C18.67 6.3 18.62 6.28 18.58 6.25C18.47 6.18 18.35 6.13 18.22 6.12C18.16 6.12 18.11 6.12 18.05 6.13C17.9 6.16 17.75 6.22 17.64 6.33L17.13 6.83C15.88 5.87 14.35 5.25 12.68 5.12C12.72 5.02 12.75 4.92 12.75 4.81V3.5H13.03C13.44 3.5 13.78 3.16 13.78 2.75C13.78 2.34 13.44 2 13.03 2H10.8C10.39 2 10.05 2.34 10.05 2.75C10.05 3.16 10.39 3.5 10.8 3.5H11.25V4.81C11.25 4.92 11.28 5.02 11.32 5.12C6.97004 5.46 3.54004 9.11 3.54004 13.54C3.54004 18.21 7.34003 22 12 22C16.66 22 20.46 18.21 20.46 13.54C20.46 11.35 19.61 9.35 18.24 7.85L18.7 7.39ZM12 15.32C11.02 15.32 10.22 14.52 10.22 13.54C10.22 12.83 10.65 12.22 11.25 11.94V9.94C11.25 9.53 11.59 9.19 12 9.19C12.41 9.19 12.75 9.53 12.75 9.94V11.94C13.35 12.22 13.78 12.83 13.78 13.54C13.78 14.52 12.98 15.32 12 15.32Z" fill="black"/>
</svg>
