<svg width="24" height="24" viewBox="0 0 24 24" fill="none" xmlns="http://www.w3.org/2000/svg">
<path d="M3.54001 13.04C3.57001 13.3 3.62001 13.55 3.67001 13.79C3.68001 13.86 3.70001 13.92 3.71001 13.98C3.76001 14.16 3.81001 14.35 3.86001 14.53C3.89001 14.61 3.92001 14.69 3.94001 14.77C4.00001 14.93 4.05001 15.09 4.12001 15.24C4.15001 15.33 4.19001 15.41 4.23001 15.5C4.30001 15.65 4.37001 15.79 4.44001 15.93C4.48001 16.02 4.53001 16.1 4.58001 16.19C4.66001 16.33 4.74001 16.46 4.83001 16.6C4.88001 16.68 4.93001 16.76 4.98001 16.83C5.08001 16.98 5.19001 17.11 5.30001 17.25C5.35001 17.32 5.39001 17.38 5.44001 17.44C5.61001 17.64 5.78001 17.83 5.96001 18.01C6.15001 18.2 6.34001 18.37 6.54001 18.53C6.61001 18.59 6.68001 18.64 6.75001 18.7C6.88001 18.8 7.01001 18.9 7.15001 19C7.24001 19.06 7.33001 19.11 7.41001 19.17C7.54001 19.25 7.67001 19.33 7.80001 19.41C7.90001 19.46 7.99001 19.51 8.09001 19.56C8.22001 19.63 8.35001 19.69 8.49001 19.75C8.59001 19.8 8.69001 19.84 8.79001 19.88C8.93001 19.94 9.07001 19.99 9.22001 20.04C9.31001 20.07 9.41001 20.1 9.51001 20.13C9.67001 20.18 9.83001 20.22 10 20.26C10.08 20.28 10.16 20.31 10.25 20.32C10.5 20.37 10.75 20.42 11.01 20.45C10.78 18.57 9.93001 16.82 8.57001 15.47C7.22001 14.11 5.45001 13.26 3.54001 13.04Z" fill="black"/>
<path d="M11.54 3.5C9.46 3.61 7.45 4.48 5.97 5.97C4.49 7.46 3.61 9.46 3.5 11.54C5.83 11.75 7.99 12.76 9.65 14.43C11.29 16.07 12.3 18.21 12.53 20.5C14.61 20.38 16.54 19.52 18.02 18.02C19.51 16.54 20.37 14.6 20.5 12.53C18.2 12.3 16.07 11.3 14.43 9.65C12.76 7.99 11.76 5.83 11.54 3.5Z" fill="black"/>
<path d="M20.47 11.03C20.44 10.77 20.39 10.52 20.34 10.26C20.33 10.19 20.3 10.11 20.29 10.03C20.25 9.86 20.2 9.69 20.15 9.52C20.13 9.43 20.09 9.34 20.06 9.25C20.01 9.1 19.96 8.95 19.9 8.8C19.86 8.7 19.82 8.61 19.78 8.52C19.71 8.38 19.65 8.24 19.57 8.1C19.53 8 19.48 7.91 19.43 7.82C19.35 7.68 19.27 7.54 19.18 7.41C19.13 7.33 19.08 7.25 19.02 7.17C18.92 7.02 18.82 6.88 18.71 6.74C18.66 6.68 18.61 6.61 18.56 6.55C18.39 6.35 18.22 6.16 18.03 5.97C17.85 5.79 17.66 5.62 17.46 5.45C17.4 5.4 17.34 5.36 17.28 5.31C17.14 5.2 17 5.09 16.85 4.99C16.77 4.94 16.7 4.89 16.62 4.84C16.48 4.75 16.35 4.67 16.21 4.59C16.12 4.54 16.03 4.49 15.95 4.45C15.81 4.38 15.67 4.31 15.53 4.24C15.44 4.2 15.35 4.16 15.25 4.13C15.1 4.06 14.95 4 14.8 3.95C14.71 3.92 14.62 3.89 14.53 3.86C14.36 3.81 14.2 3.76 14.03 3.72C13.95 3.7 13.87 3.68 13.8 3.67C13.55 3.61 13.3 3.57 13.05 3.54C13.27 5.45 14.12 7.22 15.5 8.59C16.84 9.95 18.59 10.8 20.47 11.03Z" fill="black"/>
</svg>
