<svg width="24" height="24" viewBox="0 0 24 24" fill="none" xmlns="http://www.w3.org/2000/svg">
<path d="M9.78003 5.19C9.92003 5.33 10.12 5.41 10.31 5.41C10.5 5.41 10.69 5.33 10.84 5.19C11.13 4.89 11.13 4.42 10.84 4.12L10.11 3.4C9.82002 3.11 9.34002 3.11 9.05002 3.4C8.76002 3.69 8.76002 4.17 9.05002 4.46L9.78003 5.19Z" fill="black"/>
<path d="M13.03 5.56C13.44 5.56 13.78 5.22 13.78 4.81V3.78C13.78 3.36 13.44 3.03 13.03 3.03C12.61 3.03 12.28 3.36 12.28 3.78V4.81C12.28 5.22 12.61 5.56 13.03 5.56Z" fill="black"/>
<path d="M15.75 5.41C15.94 5.41 16.13 5.33 16.28 5.19L17 4.46C17.3 4.17 17.3 3.69 17 3.4C16.71 3.11 16.24 3.11 15.94 3.4L15.22 4.12C14.92 4.42 14.92 4.89 15.22 5.19C15.36 5.33 15.56 5.41 15.75 5.41Z" fill="black"/>
<path d="M20.22 7.14H10.21C6.53999 7.14 3.47001 9.86 3.07001 13.31H2.75C2.34 13.31 2 13.64 2 14.06C2 14.47 2.34 14.81 2.75 14.81H3.07999C3.25999 16.55 4.1 18.16 5.47 19.32C6.73 20.4 8.31001 20.97 9.95001 20.97C10.39 20.97 10.83 20.93 11.27 20.85C14.32 20.28 16.67 17.59 16.85 14.47C16.88 13.89 16.85 13.31 16.74 12.75H20.22C21.2 12.75 22 11.95 22 10.97V8.92C22 7.94 21.2 7.14 20.22 7.14ZM9.94 15.83C8.96 15.83 8.17001 15.04 8.17001 14.06C8.17001 13.08 8.96 12.28 9.94 12.28C10.92 12.28 11.72 13.08 11.72 14.06C11.72 15.04 10.92 15.83 9.94 15.83Z" fill="black"/>
</svg>
