<svg width="24" height="24" viewBox="0 0 24 24" fill="none" xmlns="http://www.w3.org/2000/svg">
<path d="M21.25 12C21.25 14.49 20.25 16.77 18.65 18.42C16.96 20.17 14.61 21.25 12 21.25C9.39 21.25 7.04 20.17 5.35 18.42C3.75 16.77 2.75 14.48 2.75 12C2.75 9.53 3.72 7.29 5.3 5.64C6.97 3.86 9.36 2.75 12 2.75C14.64 2.75 17.03 3.86 18.7 5.64C20.28 7.29 21.25 9.53 21.25 12Z" stroke="black" stroke-width="1.5" stroke-linecap="round" stroke-linejoin="round"/>
<path d="M7.89 12.06C7.89 14.53 6.92 16.77 5.35 18.42C3.75 16.77 2.75 14.48 2.75 12C2.75 9.53 3.72 7.29 5.3 5.64C6.9 7.3 7.89 9.56 7.89 12.06Z" stroke="black" stroke-width="1.5" stroke-linecap="round" stroke-linejoin="round"/>
<path d="M21.25 12C21.25 14.49 20.25 16.77 18.65 18.42C17.08 16.77 16.11 14.52 16.11 12.06C16.11 9.56 17.1 7.3 18.7 5.64C20.28 7.29 21.25 9.53 21.25 12Z" stroke="black" stroke-width="1.5" stroke-linecap="round" stroke-linejoin="round"/>
<path d="M12 2.75V21.25" stroke="black" stroke-width="1.5" stroke-linecap="round" stroke-linejoin="round"/>
<path d="M21.25 12H2.75" stroke="black" stroke-width="1.5" stroke-linecap="round" stroke-linejoin="round"/>
</svg>
