<svg width="24" height="24" viewBox="0 0 24 24" fill="none" xmlns="http://www.w3.org/2000/svg">
<path d="M9.13 14.95C10.88 16.7 11.78 18.96 11.84 21.25C9.53 21.21 7.21 20.3 5.45 18.54C3.7 16.79 2.8 14.53 2.75 12.23C5.07 12.28 7.36 13.18 9.13 14.95Z" stroke="black" stroke-width="1.5" stroke-linecap="round" stroke-linejoin="round"/>
<path d="M18.54 5.45C20.3 7.21 21.21 9.53 21.25 11.84C21.29 14.27 20.39 16.7 18.54 18.55C16.69 20.4 14.26 21.3 11.83 21.26C9.52 21.22 7.19999 20.31 5.43999 18.55C3.68999 16.8 2.78999 14.54 2.73999 12.24C2.66999 9.8 3.56999 7.32 5.43999 5.45C7.30999 3.58 9.77999 2.68 12.23 2.75C14.53 2.8 16.8 3.71 18.54 5.45Z" stroke="black" stroke-width="1.5" stroke-linecap="round" stroke-linejoin="round"/>
<path d="M18.54 5.45C20.3 7.21 21.21 9.53 21.25 11.84C18.97 11.78 16.7 10.88 14.95 9.13C13.18 7.36 12.28 5.06 12.24 2.75C14.53 2.8 16.8 3.71 18.54 5.45Z" stroke="black" stroke-width="1.5" stroke-linecap="round" stroke-linejoin="round"/>
</svg>
