<svg width="24" height="24" viewBox="0 0 24 24" fill="none" xmlns="http://www.w3.org/2000/svg">
<path d="M19.36 17.42C18.64 16.42 17.91 15.49 17.18 14.52L16 13L15.06 14.25L13.54 16.25L12.61 17.49L15.82 21.73C15.8882 21.8217 15.9774 21.8958 16.08 21.9463C16.1826 21.9967 16.2957 22.022 16.41 22.02C16.483 22.0298 16.557 22.0298 16.63 22.02C16.776 21.9755 16.905 21.8876 16.9997 21.7678C17.0944 21.6481 17.1503 21.5023 17.16 21.35L17.34 19L18.94 18.59C19.0606 18.5588 19.1718 18.4989 19.2641 18.4153C19.3564 18.3317 19.427 18.2269 19.47 18.11C19.5082 17.9946 19.5181 17.8717 19.499 17.7516C19.4798 17.6315 19.4322 17.5178 19.36 17.42Z" fill="black"/>
<path d="M14.45 13.39L15.39 12.15L19 7.36C19.0865 7.24907 19.1392 7.11549 19.1516 6.97534C19.164 6.83518 19.1357 6.69442 19.07 6.57L17 2.41C16.9389 2.29547 16.8502 2.19799 16.742 2.1264C16.6337 2.0548 16.5093 2.01136 16.38 2H7.78999H7.69999H7.60999C7.48194 2.01118 7.35881 2.05465 7.25213 2.12636C7.14545 2.19806 7.0587 2.29565 6.99999 2.41L4.89999 6.57C4.84081 6.69779 4.8188 6.83966 4.83648 6.97937C4.85417 7.11908 4.91083 7.25099 4.99999 7.36L7.99999 11.36L8.18999 11.11C8.2674 10.9924 8.35084 10.8789 8.43999 10.77L8.93999 10.1L10.44 8L11.09 7.14L11.39 6.71L9.11999 3.5H14.88L12 7.6L11.89 7.76L11.05 8.87L9.53999 10.87L9.18999 11.33L8.99999 11.69L8.63999 12.15L7.99999 13L6.80999 14.52C6.07999 15.52 5.34999 16.45 4.62999 17.42C4.55538 17.5187 4.50707 17.6346 4.48958 17.7571C4.47208 17.8795 4.48599 18.0044 4.52999 18.12C4.57123 18.2362 4.64012 18.3406 4.73071 18.4242C4.8213 18.5078 4.93088 18.5682 5.04999 18.6L6.64999 19.01L6.80999 21.3C6.82269 21.4901 6.90728 21.6683 7.04658 21.7983C7.18588 21.9283 7.36944 22.0004 7.55999 22C7.67656 22.0008 7.79167 21.974 7.89593 21.9219C8.0002 21.8698 8.09068 21.7937 8.15999 21.7L12 16.64L12.93 15.4L14.45 13.39Z" fill="black"/>
</svg>
