<svg width="24" height="24" viewBox="0 0 24 24" fill="none" xmlns="http://www.w3.org/2000/svg">
<path d="M17.84 13.83C17.82 13.76 17.79 13.7 17.75 13.64L15.66 9.56V3.5H16.11C16.53 3.5 16.86 3.17 16.86 2.75C16.86 2.34 16.53 2 16.11 2H7.88999C7.46999 2 7.13999 2.34 7.13999 2.75C7.13999 3.17 7.46999 3.5 7.88999 3.5H8.33997V9.56L6.24997 13.64C6.20997 13.7 6.17998 13.76 6.15998 13.83L4.51996 17.03C3.96996 18.1 4.01997 19.35 4.64997 20.37C5.25997 21.39 6.34997 22 7.55997 22H16.44C17.65 22 18.74 21.39 19.35 20.37C19.98 19.35 20.03 18.1 19.48 17.04L17.84 13.83ZM18.07 19.59C17.72 20.16 17.12 20.5 16.44 20.5H7.55997C6.87997 20.5 6.27997 20.16 5.92997 19.59C5.56997 19 5.53998 18.32 5.84998 17.72L7.33997 14.81H16.66L18.15 17.72C18.46 18.32 18.43 19 18.07 19.59Z" fill="black"/>
</svg>
