<svg width="24" height="24" viewBox="0 0 24 24" fill="none" xmlns="http://www.w3.org/2000/svg">
<path d="M12.43 15.09C12.11 15.58 11.56 15.87 10.97 15.87L10.82 15.86C10.2 15.81 9.64001 15.42 9.38001 14.84L7.86001 11.5L7.07001 12.29C6.75001 12.62 6.30001 12.8 5.84001 12.8H3.89001L11.41 20.32C11.45 20.36 11.51 20.42 11.6 20.47C11.72 20.55 11.86 20.59 12 20.59C12.15 20.59 12.29 20.55 12.41 20.47C12.46 20.44 12.56 20.35 12.6 20.31L20.13 12.79H13.97L12.43 15.09Z" fill="black"/>
<path d="M2.75 9.30001H5.11L7.18 7.24001C7.51 6.91001 7.95 6.73001 8.42 6.73001C8.52 6.73001 8.62 6.74001 8.72 6.75001C9.29 6.86001 9.77 7.23001 10.01 7.75001L11.27 10.53L11.57 10.07C11.9 9.58001 12.44 9.29001 13.03 9.29001H21.25C21.5 9.29001 21.73 9.34001 21.94 9.44001C21.98 9.21001 22 8.96001 22 8.72001C22 7.30001 21.45 5.97001 20.45 4.96001C18.38 2.91001 15.02 2.90001 12.95 4.96001L12 5.91001L11.06 4.96001C8.99 2.90001 5.63 2.90001 3.56 4.96001C2.55 5.96001 2 7.30001 2 8.72001C2 8.97001 2.02 9.21001 2.06 9.45001C2.27 9.35001 2.51 9.30001 2.75 9.30001Z" fill="black"/>
<path d="M21.25 10.29H13.03C12.78 10.29 12.54 10.41 12.41 10.62L11.1 12.58L9.1 8.17C9 7.94 8.79 7.78 8.55 7.74C8.3 7.7 8.06 7.77 7.88 7.95L5.52 10.3H2.75C2.58 10.3 2.43 10.36 2.3 10.46C2.12 10.59 2 10.81 2 11.05C2 11.47 2.34 11.8 2.75 11.8H2.99H5.84C6.03 11.8 6.23 11.73 6.37 11.58L8.18 9.77001L10.29 14.43C10.4 14.68 10.64 14.85 10.91 14.87H10.97C11.22 14.87 11.46 14.75 11.6 14.54L13.43 11.79H21.01H21.25C21.67 11.79 22 11.45 22 11.04C22 10.79 21.88 10.58 21.7 10.45C21.58 10.35 21.42 10.29 21.25 10.29Z" fill="black"/>
</svg>
