<svg width="24" height="24" viewBox="0 0 24 24" fill="none" xmlns="http://www.w3.org/2000/svg">
<path d="M21.25 11.04H7.29V4.51H9.47V5.03H9.22C8.81 5.03 8.47 5.37 8.47 5.78V8.79C8.47 9.2 8.81 9.54 9.22 9.54H11.22C11.64 9.54 11.97 9.2 11.97 8.79V5.78C11.97 5.37 11.64 5.03 11.22 5.03H10.97V3.76C10.97 3.35 10.64 3.01 10.22 3.01H7.29V2.75C7.29 2.34 6.96 2 6.54 2C6.13 2 5.79 2.34 5.79 2.75V3.01H4.66C4.25 3.01 3.91 3.35 3.91 3.76C3.91 4.18 4.25 4.51 4.66 4.51H5.79V11.04H2.75C2.33 11.04 2 11.38 2 11.79V13.79C2 14.21 2.33 14.54 2.75 14.54H5.73V17.64C4.86 17.95 4.23 18.78 4.23 19.75C4.23 20.99 5.24 22 6.48 22C7.72 22 8.73 20.99 8.73 19.75C8.73 18.78 8.1 17.95 7.23 17.64V16.77H16.77V17.64C15.9 17.95 15.27 18.78 15.27 19.75C15.27 20.99 16.28 22 17.52 22C18.76 22 19.77 20.99 19.77 19.75C19.77 18.78 19.14 17.95 18.27 17.64V14.54H21.25C21.67 14.54 22 14.21 22 13.79V11.79C22 11.38 21.67 11.04 21.25 11.04ZM9.97 6.53H10.47V8.04H9.97V6.53ZM6.48 20.5C6.06 20.5 5.73 20.17 5.73 19.75C5.73 19.34 6.06 19 6.48 19C6.89 19 7.23 19.34 7.23 19.75C7.23 20.17 6.89 20.5 6.48 20.5ZM17.52 20.5C17.11 20.5 16.77 20.17 16.77 19.75C16.77 19.34 17.11 19 17.52 19C17.94 19 18.27 19.34 18.27 19.75C18.27 20.17 17.94 20.5 17.52 20.5Z" fill="black"/>
</svg>
