<svg width="24" height="24" viewBox="0 0 24 24" fill="none" xmlns="http://www.w3.org/2000/svg">
<path d="M18.41 7.08C15.92 5.58 13.56 5.25 12 5.25C9.21 5.25 7 6.23 5.59 7.08C3.59 7.21 2 8.86 2 10.89V13.12C2 15.15 3.59 16.8 5.59 16.93C8.08 18.43 10.44 18.75 12 18.75C14.79 18.75 17 17.78 18.41 16.93C20.41 16.8 22 15.15 22 13.12V10.89C22 8.86 20.41 7.2 18.41 7.08ZM5.08 15.33C4.16 15.02 3.5 14.14 3.5 13.12V10.89C3.5 9.86 4.16 8.99 5.08 8.68V15.33ZM17.42 15.78C16.17 16.5 14.3 17.25 12 17.25C10.68 17.25 8.69 16.99 6.58 15.78V8.23C7.83 7.51 9.7 6.75 12 6.75C13.32 6.75 15.31 7.02 17.42 8.23V15.78ZM20.5 13.12C20.5 14.14 19.84 15.02 18.92 15.33V8.68C19.84 8.99 20.5 9.86 20.5 10.89V13.12Z" fill="black"/>
<path d="M18.41 7.08C15.92 5.58 13.56 5.25 12 5.25C9.21 5.25 7 6.23 5.59 7.08C3.59 7.21 2 8.86 2 10.89V13.12C2 15.15 3.59 16.8 5.59 16.93C8.08 18.43 10.44 18.75 12 18.75C14.79 18.75 17 17.78 18.41 16.93C20.41 16.8 22 15.15 22 13.12V10.89C22 8.86 20.41 7.2 18.41 7.08ZM5.08 15.33C4.16 15.02 3.5 14.14 3.5 13.12V10.89C3.5 9.86 4.16 8.99 5.08 8.68V15.33ZM8.17 14.4C8.17 13.99 8.5 13.65 8.92 13.65H15.08C15.5 13.65 15.83 13.99 15.83 14.4C15.83 14.82 15.5 15.15 15.08 15.15H8.92C8.5 15.15 8.17 14.82 8.17 14.4ZM15.08 10.35H8.92C8.5 10.35 8.17 10.02 8.17 9.6C8.17 9.19 8.5 8.85 8.92 8.85H15.08C15.5 8.85 15.83 9.19 15.83 9.6C15.83 10.02 15.5 10.35 15.08 10.35ZM20.5 13.12C20.5 14.14 19.84 15.02 18.92 15.33V8.68C19.84 8.99 20.5 9.86 20.5 10.89V13.12Z" fill="black"/>
</svg>
