<svg width="24" height="24" viewBox="0 0 24 24" fill="none" xmlns="http://www.w3.org/2000/svg">
<path d="M18.84 6.61H15.01C14.56 6.61 14.13 6.37001 13.89 5.97001L13.24 4.89C12.74 4.05 11.82 3.52 10.84 3.52H4.81C3.26 3.52 2 4.78001 2 6.33001V7.36V9.41V9.77V17.32C2 19.07 3.42 20.48 5.16 20.48H18.84C20.58 20.48 22 19.07 22 17.32V9.77C22 8.03 20.58 6.61 18.84 6.61ZM10 12.8H11.25V11.55C11.25 11.13 11.59 10.8 12 10.8C12.41 10.8 12.75 11.13 12.75 11.55V12.8H14C14.41 12.8 14.75 13.13 14.75 13.55C14.75 13.96 14.41 14.3 14 14.3H12.75V15.55C12.75 15.96 12.41 16.3 12 16.3C11.59 16.3 11.25 15.96 11.25 15.55V14.3H10C9.59 14.3 9.25 13.96 9.25 13.55C9.25 13.13 9.59 12.8 10 12.8ZM3.5 6.33001C3.5 5.61001 4.09 5.02 4.81 5.02H10.84C11.29 5.02 11.72 5.27 11.96 5.66L12.53 6.61H3.5V6.33001Z" fill="black"/>
</svg>
