<svg width="24" height="24" viewBox="0 0 24 24" fill="none" xmlns="http://www.w3.org/2000/svg">
<path d="M17.14 3.55H16.11C16.01 3.55 15.91 3.57 15.82 3.61C15.73 2.71 14.98 2 14.06 2H9.94C9.04 2 8.31 2.68 8.19 3.55H6.86C5.31 3.55 4.06 4.8 4.06 6.35V19.2C4.06 20.75 5.31 22 6.86 22H17.14C18.69 22 19.94 20.75 19.94 19.2V6.35C19.94 4.8 18.69 3.55 17.14 3.55ZM7.14 18.17C7.14 17.76 7.47 17.42 7.89 17.42H16.11C16.53 17.42 16.86 17.76 16.86 18.17C16.86 18.58 16.53 18.92 16.11 18.92H7.89C7.47 18.92 7.14 18.58 7.14 18.17ZM16.11 15.84H7.89C7.47 15.84 7.14 15.5 7.14 15.09C7.14 14.67 7.47 14.34 7.89 14.34H16.11C16.53 14.34 16.86 14.67 16.86 15.09C16.86 15.5 16.53 15.84 16.11 15.84ZM10.46 9.71H11.25V8.92C11.25 8.51 11.59 8.17 12 8.17C12.41 8.17 12.75 8.51 12.75 8.92V9.71H13.54C13.96 9.71 14.29 10.05 14.29 10.46C14.29 10.88 13.96 11.21 13.54 11.21H12.75V12C12.75 12.42 12.41 12.75 12 12.75C11.59 12.75 11.25 12.42 11.25 12V11.21H10.46C10.04 11.21 9.71 10.88 9.71 10.46C9.71 10.05 10.04 9.71 10.46 9.71ZM9.67 3.78C9.67 3.63 9.79 3.5 9.94 3.5H14.06C14.21 3.5 14.33 3.63 14.33 3.78V4.81C14.33 4.96 14.21 5.09 14.06 5.09H9.94C9.79 5.09 9.67 4.96 9.67 4.81V3.78Z" fill="black"/>
</svg>
