<svg width="24" height="24" viewBox="0 0 24 24" fill="none" xmlns="http://www.w3.org/2000/svg">
<path d="M19.19 8.17H16.11C15.96 8.17 15.83 8.05 15.83 7.89V4.81C15.83 3.26 14.57 2 13.03 2H10.97C9.43 2 8.17001 3.26 8.17001 4.81V7.89C8.17001 8.05 8.04001 8.17 7.89001 8.17H4.81C3.26 8.17 2 9.43 2 10.98V13.03C2 14.58 3.26 15.84 4.81 15.84H7.89001C8.04001 15.84 8.17001 15.96 8.17001 16.12V19.2C8.17001 20.75 9.43 22 10.97 22H13.03C14.57 22 15.83 20.75 15.83 19.2V16.12C15.83 15.96 15.96 15.84 16.11 15.84H19.19C20.74 15.84 22 14.58 22 13.03V10.98C22 9.43 20.74 8.17 19.19 8.17Z" fill="black"/>
</svg>
