<svg width="24" height="24" viewBox="0 0 24 24" fill="none" xmlns="http://www.w3.org/2000/svg">
<path d="M20.34 3.66C19.28 2.6 17.86 2.01 16.33 2C14.82 2.01 13.4 2.6 12.34 3.66L8 8L3.66 12.34C2.59 13.41 2 14.83 2 16.34C2 17.85 2.59 19.27 3.66 20.34C4.72 21.4 6.14 21.99 7.67 22C9.18 21.99 10.6 21.4 11.66 20.34L16 16L20.34 11.67C21.41 10.6 22 9.18 22 7.66C22 6.15 21.41 4.73 20.34 3.66ZM10.6 19.28C9.82 20.06 8.78 20.5 7.67 20.5C6.55 20.5 5.5 20.06 4.72 19.28C3.93 18.5 3.5 17.45 3.5 16.34C3.5 15.23 3.93 14.19 4.72 13.4L8.53 9.59L14.41 15.47L10.6 19.28ZM19.28 10.61L15.47 14.41L9.59 8.53L13.4 4.72C14.18 3.95 15.22 3.51 16.33 3.5C17.45 3.51 18.5 3.95 19.28 4.72C20.07 5.51 20.5 6.55 20.5 7.66C20.5 8.78 20.07 9.82 19.28 10.61Z" fill="black"/>
<path d="M20.34 3.66C19.28 2.6 17.86 2.01 16.33 2C14.82 2.01 13.4 2.6 12.34 3.66L8 8L3.66 12.34C2.59 13.41 2 14.83 2 16.34C2 17.85 2.59 19.27 3.66 20.34C4.72 21.4 6.14 21.99 7.67 22C9.18 21.99 10.6 21.4 11.66 20.34L16 16L20.34 11.67C21.41 10.6 22 9.18 22 7.66C22 6.15 21.41 4.73 20.34 3.66ZM16.36 6.19C16.17 6.38 15.91 6.49 15.64 6.49C15.36 6.49 15.09 6.38 14.91 6.19C14.71 6 14.61 5.73 14.61 5.47C14.61 5.19 14.71 4.93 14.91 4.74C15.29 4.36 15.98 4.36 16.36 4.74C16.55 4.93 16.67 5.19 16.67 5.47C16.67 5.73 16.55 6 16.36 6.19ZM12.2 7.84L12.92 7.11C13.22 6.82 13.69 6.82 13.98 7.11C14.28 7.41 14.28 7.88 13.98 8.17L13.26 8.9C13.11 9.05 12.92 9.12 12.73 9.12C12.53 9.12 12.34 9.05 12.2 8.9C11.9 8.61 11.9 8.13 12.2 7.84ZM10.6 19.28C9.82 20.06 8.78 20.5 7.67 20.5C6.55 20.5 5.5 20.06 4.72 19.28C3.93 18.5 3.5 17.45 3.5 16.34C3.5 15.23 3.93 14.19 4.72 13.4L8.53 9.59L14.41 15.47L10.6 19.28Z" fill="black"/>
</svg>
