<svg width="24" height="24" viewBox="0 0 24 24" fill="none" xmlns="http://www.w3.org/2000/svg">
<path d="M15.79 11.67V5.84C15.79 3.72 14.07 2 11.96 2C9.84001 2 8.12 3.72 8.12 5.84V11.67C6.81 12.79 6.07001 14.39 6.07001 16.12C6.07001 19.36 8.71001 22 11.96 22C15.21 22 17.85 19.36 17.85 16.12C17.85 14.39 17.1 12.79 15.79 11.67ZM9.71001 16.67C9.71001 15.69 10.34 14.87 11.21 14.56V8.92C11.21 8.51 11.54 8.17 11.96 8.17C12.37 8.17 12.71 8.51 12.71 8.92V14.56C13.58 14.87 14.21 15.69 14.21 16.67C14.21 17.91 13.2 18.92 11.96 18.92C10.72 18.92 9.71001 17.91 9.71001 16.67Z" fill="black"/>
<path d="M19.15 10.23H18.12C17.71 10.23 17.38 10.56 17.38 10.98C17.38 11.39 17.71 11.73 18.12 11.73H19.15C19.57 11.73 19.9 11.39 19.9 10.98C19.9 10.56 19.57 10.23 19.15 10.23Z" fill="black"/>
<path d="M18.12 5.56H19.15C19.57 5.56 19.9 5.22 19.9 4.81C19.9 4.4 19.57 4.06 19.15 4.06H18.12C17.71 4.06 17.38 4.4 17.38 4.81C17.38 5.22 17.71 5.56 18.12 5.56Z" fill="black"/>
<path d="M20.18 7.14H18.12C17.71 7.14 17.38 7.48 17.38 7.89C17.38 8.31 17.71 8.64 18.12 8.64H20.18C20.59 8.64 20.93 8.31 20.93 7.89C20.93 7.48 20.59 7.14 20.18 7.14Z" fill="black"/>
</svg>
