<svg width="24" height="24" viewBox="0 0 24 24" fill="none" xmlns="http://www.w3.org/2000/svg">
<path d="M19.25 4.61001C19.34 3.86001 19.07 3.08001 18.46 2.55001C17.99 2.15001 17.39 1.96001 16.77 2.01001C16.16 2.07001 15.6 2.36001 15.2 2.84001L2.54 18.18C1.73 19.16 1.85001 20.63 2.82001 21.45C3.24001 21.81 3.76001 22 4.30001 22H4.5C5.12 21.94 5.68001 21.65 6.07001 21.17L13.25 12.47L15.06 14.02C15.39 14.29 15.79 14.44 16.21 14.44H16.36C16.84 14.39 17.27 14.17 17.57 13.8L21.59 8.94001C22.21 8.18001 22.11 7.05001 21.37 6.42001L19.25 4.61001ZM20.43 7.98001L16.42 12.84C16.36 12.92 16.28 12.94 16.23 12.94C16.18 12.94 16.11 12.94 16.04 12.88L14.21 11.32L16.67 8.33001L18.59 6.01001L20.4 7.56001C20.52 7.66001 20.53 7.86001 20.43 7.98001Z" fill="black"/>
</svg>
