<svg width="24" height="24" viewBox="0 0 24 24" fill="none" xmlns="http://www.w3.org/2000/svg">
<path d="M16.69 2.02C15.77 2.02 14.9 2.31 14.2 2.55C14.16 2.55 14.12 2.56 14.09 2.58C13.39 2.81 12.66 3.05 11.94 3.05C11.25 3.05 10.49 2.8 9.73998 2.56C8.91998 2.28 8.07998 2 7.17998 2C5.67998 2 4.42998 2.76 3.36998 4.32C1.66998 6.77 2.62 9.37 3.32 11.27C3.54 11.87 3.85 12.71 3.85 13.18C3.85 14.65 4.03 22 7.6 22C9.81 22 10.44 19.63 10.9 17.89C11.1 17.1 11.54 15.46 12 15.46C12.26 15.46 12.5 16.06 12.85 17.61C13.25 19.35 13.84 21.97 16.43 21.97C19.69 21.97 20.18 16.46 20.18 13.18C20.18 12.74 20.45 11.98 20.67 11.35C20.69 11.3 20.72 11.25 20.73 11.21C21.4 9.29 22.32 6.65 20.57 4.28C19.43 2.76 18.16 2.02 16.69 2.02Z" fill="black"/>
</svg>
