<svg width="24" height="24" viewBox="0 0 24 24" fill="none" xmlns="http://www.w3.org/2000/svg">
<path d="M19.94 15.39V11.73C19.94 9.77 18.35 8.17 16.38 8.17H13.78V6.59H15.08C15.5 6.59 15.83 6.25 15.83 5.84C15.83 5.42 15.5 5.09 15.08 5.09H7.89C7.79 5.09 7.7 5.11 7.61 5.14V4.81C7.61 4.4 7.28 4.06 6.86 4.06H3.78C3.36 4.06 3.03 4.4 3.03 4.81C3.03 5.22 3.36 5.56 3.78 5.56H6.11V11.28C3.83 11.4 2 13.28 2 15.6C2 18 3.95 19.95 6.35 19.95C7.41 19.95 8.37 19.55 9.12 18.92H17.8C18.21 19.54 18.91 19.95 19.71 19.95C20.97 19.95 22 18.92 22 17.66C22 16.47 21.1 15.51 19.94 15.39ZM7.61 6.53C7.7 6.57 7.79 6.59 7.89 6.59H12.28V8.17H7.61V6.53ZM6.35 18.45C4.78 18.45 3.5 17.17 3.5 15.6C3.5 14.03 4.78 12.75 6.35 12.75C7.92 12.75 9.19 14.03 9.19 15.6C9.19 17.17 7.92 18.45 6.35 18.45ZM19.71 18.45C19.27 18.45 18.92 18.09 18.92 17.66C18.92 17.22 19.27 16.87 19.71 16.87C20.15 16.87 20.5 17.22 20.5 17.66C20.5 18.09 20.15 18.45 19.71 18.45Z" fill="black"/>
</svg>
