<svg width="24" height="24" viewBox="0 0 24 24" fill="none" xmlns="http://www.w3.org/2000/svg">
<path d="M20.16 4.02C18.19 2.35 14.64 2 12 2C9.36001 2 5.81001 2.35 3.84001 4.02C2.86001 4.85 2.33001 5.95 2.31001 7.22C2.30001 8.5 2.84001 9.81 3.81001 10.85V20.7C3.81001 21.42 4.38001 22 5.09001 22H18.91C19.62 22 20.19 21.42 20.19 20.7V10.85C21.16 9.81 21.7 8.5 21.69 7.21C21.67 5.95 21.14 4.85 20.16 4.02ZM12.25 15.08C12.81 15.08 13.27 15.54 13.27 16.11C13.27 16.67 12.81 17.13 12.25 17.13C11.68 17.13 11.22 16.67 11.22 16.11C11.22 15.54 11.68 15.08 12.25 15.08ZM10.98 10.75C10.79 10.75 10.6 10.68 10.45 10.53C10.31 10.39 10.23 10.2 10.23 10C10.23 9.81 10.31 9.62 10.45 9.47L11.18 8.75C11.47 8.45 11.95 8.45 12.24 8.74C12.38 8.89 12.46 9.08 12.46 9.28C12.46 9.47 12.39 9.66 12.24 9.8L11.51 10.53C11.37 10.68 11.17 10.75 10.98 10.75ZM12.25 6.73C11.68 6.73 11.22 6.27 11.22 5.71C11.22 5.14 11.68 4.68 12.25 4.68C12.81 4.68 13.27 5.14 13.27 5.71C13.27 6.27 12.81 6.73 12.25 6.73ZM7.89003 17.13C8.46003 17.13 8.92003 17.59 8.92003 18.16C8.92003 18.73 8.46003 19.19 7.89003 19.19C7.32003 19.19 6.86 18.73 6.86 18.16C6.86 17.59 7.32003 17.13 7.89003 17.13ZM5.83 6.86C5.83 6.29 6.29 5.83 6.86 5.83C7.43 5.83 7.89003 6.29 7.89003 6.86C7.89003 7.42 7.43 7.88 6.86 7.88C6.29 7.88 5.83 7.42 5.83 6.86ZM8.70003 14.12L7.81001 13.61C7.57001 13.48 7.43001 13.22 7.43001 12.96C7.43001 12.84 7.46001 12.71 7.53001 12.59C7.74001 12.23 8.2 12.11 8.55 12.31L9.44002 12.82C9.69002 12.96 9.82002 13.21 9.82002 13.47C9.82002 13.6 9.79002 13.73 9.72002 13.85C9.58002 14.09 9.33002 14.22 9.07002 14.22C8.95002 14.22 8.82003 14.19 8.70003 14.12ZM16.47 13.36C16.33 13.59 16.08 13.71 15.83 13.71C15.69 13.71 15.56 13.68 15.43 13.6L14.56 13.06C14.33 12.92 14.21 12.67 14.21 12.42C14.21 12.29 14.24 12.15 14.32 12.02C14.54 11.67 15 11.57 15.35 11.79L16.23 12.33C16.45 12.47 16.58 12.71 16.58 12.96C16.58 13.1 16.54 13.24 16.47 13.36ZM17.11 17.67C17.12 17.73 17.13 17.8 17.13 17.87C17.13 18.2 16.92 18.5 16.58 18.59L15.6 18.86C15.53 18.88 15.46 18.89 15.39 18.89C15.07 18.89 14.76 18.68 14.67 18.34C14.65 18.28 14.64 18.21 14.64 18.14C14.64 17.81 14.86 17.51 15.19 17.42L16.18 17.14C16.58 17.03 17 17.27 17.11 17.67ZM17.14 8.91C16.57 8.91 16.11 8.45 16.11 7.88C16.11 7.32 16.57 6.86 17.14 6.86C17.71 6.86 18.17 7.32 18.17 7.88C18.17 8.45 17.71 8.91 17.14 8.91Z" fill="black"/>
</svg>
