<svg width="24" height="24" viewBox="0 0 24 24" fill="none" xmlns="http://www.w3.org/2000/svg">
<path d="M21.89 8.45C21.52 6.76 20.12 5.43 18.42 5.14C17.8 5.04 17.1599 5.06 16.5799 5.22C16.5599 5.17 16.53 5.13 16.51 5.08C16.47 4.98 16.43 4.88 16.38 4.78C16.31 4.63 16.22 4.48 16.13 4.33C16.07 4.22 16 4.12 15.93 4.02C15.84 3.9 15.74 3.78 15.64 3.67C15.53 3.55 15.4199 3.42 15.2999 3.31C15.1399 3.16 14.9799 3.02 14.7999 2.89C14.6799 2.81 14.55 2.74 14.42 2.67C14.3 2.6 14.18 2.53 14.06 2.47C13.93 2.41 13.81 2.36 13.68 2.31C13.52 2.25 13.36 2.21 13.2 2.16C13.09 2.14 12.98 2.1 12.87 2.08C12.59 2.03 12.3 2 12 2C11.7 2 11.41 2.03 11.13 2.08C11.02 2.1 10.9099 2.14 10.7999 2.16C10.6399 2.21 10.48 2.25 10.32 2.31C10.19 2.36 10.07 2.41 9.93996 2.47C9.81996 2.53 9.69995 2.6 9.57995 2.67C9.44995 2.74 9.31997 2.81 9.19997 2.89C9.01997 3.02 8.85997 3.16 8.69997 3.31C8.57997 3.42 8.46995 3.55 8.35995 3.67C8.25995 3.78 8.15997 3.9 8.06997 4.02C7.99997 4.12 7.92996 4.22 7.86996 4.33C7.77996 4.48 7.68996 4.63 7.61996 4.78C7.56996 4.88 7.52995 4.98 7.48995 5.08C7.46995 5.13 7.43998 5.17 7.41998 5.22C6.83998 5.06 6.19995 5.04 5.57995 5.14C3.87995 5.43 2.47995 6.76 2.10995 8.45C1.83995 9.67 2.06995 10.89 2.76995 11.89C3.32995 12.71 4.14995 13.3 5.07995 13.58V19.19C5.07995 20.74 6.33998 22 7.88998 22H16.1099C17.6599 22 18.92 20.74 18.92 19.19V13.58C19.85 13.3 20.67 12.71 21.23 11.89C21.93 10.89 22.16 9.67 21.89 8.45ZM8.16998 14.05C8.16998 13.64 8.49998 13.3 8.91998 13.3C9.32998 13.3 9.66998 13.64 9.66998 14.05V15.08C9.66998 15.49 9.32998 15.83 8.91998 15.83C8.49998 15.83 8.16998 15.49 8.16998 15.08V14.05ZM11.25 13.02C11.25 12.61 11.59 12.27 12 12.27C12.41 12.27 12.75 12.61 12.75 13.02V15.08C12.75 15.49 12.41 15.83 12 15.83C11.59 15.83 11.25 15.49 11.25 15.08V13.02ZM14.3299 14.05C14.3299 13.64 14.6699 13.3 15.0799 13.3C15.4999 13.3 15.8299 13.64 15.8299 14.05V15.08C15.8299 15.49 15.4999 15.83 15.0799 15.83C14.6699 15.83 14.3299 15.49 14.3299 15.08V14.05ZM17.42 19.19C17.42 19.91 16.8299 20.5 16.1099 20.5H7.88998C7.16998 20.5 6.57995 19.91 6.57995 19.19V18.91H17.42V19.19Z" fill="black"/>
</svg>
