<svg width="24" height="24" viewBox="0 0 24 24" fill="none" xmlns="http://www.w3.org/2000/svg">
<path d="M18.99 5.04999H16.59L17.74 3.13C17.96 2.78 17.84 2.31999 17.48 2.09999C17.13 1.88999 16.67 2 16.46 2.36L14.84 5.04999H5.01002C4.72002 5.04999 4.46001 5.21 4.34001 5.47C4.21001 5.72 4.24002 6.03 4.41002 6.25L11.25 15.38V20.23C11.25 20.32 11.27 20.41 11.3 20.5H8.94002C8.53002 20.5 8.19002 20.83 8.19002 21.25C8.19002 21.66 8.53002 22 8.94002 22H15.06C15.47 22 15.81 21.66 15.81 21.25C15.81 20.83 15.47 20.5 15.06 20.5H12.7C12.73 20.41 12.75 20.32 12.75 20.23V15.38L19.59 6.25C19.76 6.03 19.79 5.72 19.66 5.47C19.54 5.21 19.28 5.04999 18.99 5.04999ZM6.51002 6.54999H13.94L13.4 7.45999C13.36 7.51999 13.34 7.58999 13.32 7.66C12.68 7.77 12.26 8.01 11.91 8.22C11.5 8.45 11.21 8.61999 10.54 8.61999C9.87002 8.61999 9.58003 8.45 9.17003 8.22C8.75003 7.97 8.21001 7.67999 7.31001 7.61999L6.51002 6.54999ZM16.22 8.25C16.2 8.24 16.18 8.22999 16.16 8.20999C15.86 8.03999 15.49 7.84 14.99 7.72L15.69 6.54999H17.49L16.22 8.25Z" fill="black"/>
</svg>
