<svg width="24" height="24" viewBox="0 0 24 24" fill="none" xmlns="http://www.w3.org/2000/svg">
<path d="M12.5 12.98C12.19 12.98 11.79 13.14 11.44 13.49C10.9 14.04 10.81 14.71 11.08 14.97C11.34 15.24 12.02 15.16 12.56 14.61C13.1 14.07 13.19 13.39 12.92 13.13C12.83 13.03 12.68 12.98 12.5 12.98Z" fill="black"/>
<path d="M20 5.08H19.55L18.71 2.51C18.61 2.21 18.33 2 18 2H6C5.67 2 5.39001 2.21 5.29001 2.51L4.45001 5.08H4C3.59 5.08 3.25 5.42 3.25 5.83V8.91C3.25 9.33 3.59 9.66 4 9.66H4.84L6.67999 19.66C6.93999 21.01 8.20999 22 9.70999 22H14.29C15.79 22 17.06 21.01 17.32 19.66L19.16 9.66H20C20.41 9.66 20.75 9.33 20.75 8.91V5.83C20.75 5.42 20.41 5.08 20 5.08ZM6.54001 3.5H17.46L17.97 5.08H6.03L6.54001 3.5ZM11.85 16.59C11.73 16.61 11.61 16.62 11.49 16.62C10.92 16.62 10.39 16.41 10.02 16.04C9.55999 15.58 9.35999 14.91 9.45999 14.2C9.54999 13.56 9.88 12.93 10.38 12.43C11.49 11.32 13.08 11.16 13.98 12.07C14.89 12.98 14.73 14.56 13.62 15.67C13.12 16.17 12.49 16.5 11.85 16.59ZM19.25 8.16H4.75V6.58H19.25V8.16Z" fill="black"/>
</svg>
