<svg width="24" height="24" viewBox="0 0 24 24" fill="none" xmlns="http://www.w3.org/2000/svg">
<path d="M10.84 6.86C10.84 7.27 11.17 7.61 11.59 7.61C12 7.61 12.34 7.27 12.34 6.86C12.34 6.61 12.41 6.52 12.59 6.3C12.81 6.01 13.16 5.58 13.16 4.8C13.16 4.02 12.81 3.59 12.59 3.3C12.41 3.09 12.34 3 12.34 2.75C12.34 2.33 12 2 11.59 2C11.17 2 10.84 2.33 10.84 2.75C10.84 3.52 11.19 3.96 11.41 4.24C11.59 4.46 11.66 4.55 11.66 4.8C11.66 5.05 11.59 5.14 11.41 5.36C11.19 5.65 10.84 6.08 10.84 6.86Z" fill="black"/>
<path d="M14.33 6.86C14.33 7.27 14.67 7.61 15.08 7.61C15.5 7.61 15.83 7.27 15.83 6.86C15.83 6.61 15.91 6.52 16.08 6.3C16.31 6.01 16.66 5.58 16.66 4.8C16.66 4.02 16.31 3.59 16.08 3.3C15.91 3.09 15.83 3 15.83 2.75C15.83 2.33 15.5 2 15.08 2C14.67 2 14.33 2.33 14.33 2.75C14.33 3.52 14.68 3.96 14.91 4.24C15.08 4.46 15.16 4.55 15.16 4.8C15.16 5.05 15.08 5.14 14.91 5.36C14.68 5.65 14.33 6.08 14.33 6.86Z" fill="black"/>
<path d="M7.34 6.86C7.34 7.27 7.68 7.61 8.09 7.61C8.51 7.61 8.84 7.27 8.84 6.86C8.84 6.61 8.92 6.52 9.09 6.3C9.32 6.01 9.67 5.58 9.67 4.8C9.67 4.02 9.32 3.59 9.09 3.3C8.92 3.09 8.84 3 8.84 2.75C8.84 2.33 8.51 2 8.09 2C7.68 2 7.34 2.33 7.34 2.75C7.34 3.52 7.69 3.96 7.92 4.24C8.09 4.46 8.17 4.55 8.17 4.8C8.17 5.05 8.09 5.14 7.92 5.36C7.69 5.65 7.34 6.08 7.34 6.86Z" fill="black"/>
<path d="M20.22 20.5H13.89C15.52 19.83 16.82 18.51 17.46 16.86H17.65C19.48 16.86 20.97 15.37 20.97 13.54C20.97 11.79 19.61 10.37 17.89 10.24V9.94C17.89 9.53 17.55 9.19 17.14 9.19H5.83C5.42 9.19 5.08 9.53 5.08 9.94V14.57C5.08 17.25 6.74 19.54 9.08 20.5H3.78C3.36 20.5 3.03 20.83 3.03 21.25C3.03 21.66 3.36 22 3.78 22H20.22C20.64 22 20.97 21.66 20.97 21.25C20.97 20.83 20.64 20.5 20.22 20.5ZM17.89 11.73C18.78 11.85 19.47 12.61 19.47 13.54C19.47 14.46 18.78 15.23 17.89 15.34V11.73Z" fill="black"/>
</svg>
