<svg width="24" height="24" viewBox="0 0 24 24" fill="none" xmlns="http://www.w3.org/2000/svg">
<path d="M9.67004 12C9.67004 13.28 10.71 14.33 12 14.33C13.29 14.33 14.33 13.28 14.33 12C14.33 10.71 13.29 9.66 12 9.66C10.71 9.66 9.67004 10.71 9.67004 12Z" fill="black"/>
<path d="M12 2C6.49 2 2 6.48 2 12C2 17.51 6.49 22 12 22C17.51 22 22 17.51 22 12C22 6.48 17.51 2 12 2ZM15.83 12C15.83 14.11 14.11 15.83 12 15.83C9.89 15.83 8.17001 14.11 8.17001 12C8.17001 9.88 9.89 8.16 12 8.16C14.11 8.16 15.83 9.88 15.83 12ZM12 20.5C9.91 20.5 7.99999 19.74 6.51999 18.48C6.63999 18.28 6.94999 18.14 7.29999 18.14C7.68999 18.13 8.12999 18.25 8.57999 18.38L8.78 18.44C9.42 18.62 10.12 18.77 10.84 18.62C11.3 18.52 11.7 18.31 12.05 18.12C12.21 18.04 12.38 17.95 12.55 17.88C13.01 17.68 13.54 17.61 14.04 17.69C14.19 17.71 14.33 17.74 14.48 17.77C14.92 17.87 15.43 17.98 15.98 17.86C16.58 17.73 17.12 17.36 17.64 16.73C17.75 16.6 17.86 16.46 17.96 16.32C18.16 16.06 18.34 15.82 18.54 15.63C18.9 15.31 19.39 15.14 19.89 15.13C18.64 18.27 15.58 20.5 12 20.5Z" fill="black"/>
</svg>
