<svg width="24" height="24" viewBox="0 0 24 24" fill="none" xmlns="http://www.w3.org/2000/svg">
<path d="M15.33 3.22C13.22 1.6 10.79 1.59 8.66 3.22C7.75 3.94 6.93999 4.89 6.26999 6.06C4.95999 8.28 4.17999 11.15 4.17999 13.73C4.17999 15.05 4.37999 16.25 4.76999 17.3C5.15999 18.33 5.72999 19.23 6.48999 19.96C7.87999 21.29 9.78 22 12 22C14.22 22 16.12 21.29 17.52 19.95C18.27 19.23 18.84 18.33 19.23 17.3C19.62 16.25 19.82 15.05 19.82 13.73C19.82 11.15 19.04 8.28 17.74 6.06C17.06 4.89 16.25 3.94 15.33 3.22Z" fill="black"/>
</svg>
