<svg width="24" height="24" viewBox="0 0 24 24" fill="none" xmlns="http://www.w3.org/2000/svg">
<path d="M10.85 2C10.43 2 10.1 2.33 10.1 2.75V6.85C10.1 7.87 9.43 8.73 8.52 9.05V2.75C8.52 2.33 8.18 2 7.77 2C7.35 2 7.02 2.33 7.02 2.75V9.05C6.1 8.73 5.44 7.87 5.44 6.85V2.75C5.44 2.33 5.1 2 4.69 2C4.27 2 3.94 2.33 3.94 2.75V6.85C3.94 8.71 5.26 10.26 7.02 10.61V21.23C7.02 21.64 7.35 21.98 7.77 21.98C8.18 21.98 8.52 21.64 8.52 21.23V10.61C10.27 10.26 11.6 8.71 11.6 6.85V2.75C11.6 2.33 11.26 2 10.85 2Z" fill="black"/>
<path d="M15.38 2.02L14.92 2.03C14.51 2.04 14.19 2.37 14.19 2.78L14.11 15.1L14.08 20.42C14.08 20.85 14.24 21.25 14.55 21.55C14.85 21.84 15.24 22 15.65 22H15.7L16.86 21.96C17.71 21.93 18.38 21.25 18.39 20.39L18.42 15.75H18.49C19.34 15.72 20.01 15.03 20.02 14.18L20.06 6.59C20.07 5.33 19.59 4.17 18.7 3.3C17.81 2.43 16.64 2 15.38 2.02ZM16.89 20.38C16.89 20.42 16.86 20.46 16.82 20.46L15.65 20.5L15.58 20.43L15.61 15.84L16.92 15.8L16.89 20.38Z" fill="black"/>
</svg>
