<svg width="24" height="24" viewBox="0 0 24 24" fill="none" xmlns="http://www.w3.org/2000/svg">
<path d="M18.8 2.56C18.47 2.2 18 2 17.5 2H6.5C6 2 5.53 2.2 5.2 2.56C4.86 2.92 4.69 3.41 4.72 3.9L5.9 20.34C5.96 21.27 6.74 22 7.67 22H16.33C17.26 22 18.04 21.27 18.1 20.34L19.28 3.9C19.31 3.41 19.14 2.92 18.8 2.56ZM17.4 9.13C17.36 9.12 17.33 9.1 17.29 9.1C16.6 9.1 16.3 8.93 15.89 8.7C15.42 8.43 14.84 8.1 13.76 8.1C12.68 8.1 12.1 8.43 11.63 8.7C11.22 8.93 10.92 9.1 10.23 9.1C9.55 9.1 9.26 8.93 8.84 8.7C8.38 8.43 7.79 8.1 6.71 8.1C6.65 8.1 6.59 8.12 6.53 8.14L6.22 3.79C6.21 3.69 6.26 3.62 6.29 3.58C6.32 3.55 6.39 3.5 6.5 3.5H17.5C17.61 3.5 17.68 3.55 17.71 3.58C17.74 3.62 17.79 3.69 17.78 3.79L17.4 9.13Z" fill="black"/>
</svg>
