<svg width="24" height="24" viewBox="0 0 24 24" fill="none" xmlns="http://www.w3.org/2000/svg">
<path d="M18.17 8.68C18.04 8.68 17.94 8.69 17.83 8.7C17.86 8.43 17.89 8.16 17.89 7.88C17.89 4.64 15.25 2 12 2C8.75002 2 6.11002 4.64 6.11002 7.88C6.11002 8.16 6.14001 8.43 6.17001 8.7C6.06001 8.69 5.96002 8.68 5.83002 8.68C5.42002 8.68 5.08002 9.01 5.08002 9.43C5.08002 9.84 5.42002 10.18 5.83002 10.18C5.96002 10.18 6.08001 10.18 6.17001 10.2C6.30001 10.22 6.41002 10.26 6.52002 10.31C6.28002 10.44 6.11002 10.68 6.11002 10.97C6.11002 11.38 6.45002 11.72 6.86002 11.72H7.74002L11.29 21.5C11.4 21.8 11.68 22 12 22C12.32 22 12.6 21.8 12.71 21.5L16.26 11.72H17.14C17.55 11.72 17.89 11.38 17.89 10.97C17.89 10.68 17.72 10.44 17.48 10.31C17.59 10.26 17.69 10.22 17.83 10.2C17.92 10.18 18.04 10.18 18.17 10.18C18.58 10.18 18.92 9.84 18.92 9.43C18.92 9.01 18.58 8.68 18.17 8.68ZM16.28 8.86C15.95 9 15.71 9.19 15.51 9.35C15.27 9.53 15.11 9.65 14.85 9.69C14.47 9.65 14.25 9.51 13.95 9.31C13.52 9.03 12.99 8.68 12 8.68C11 8.68 10.46 9.03 10.04 9.32C9.74002 9.51 9.52002 9.65 9.15002 9.69C8.89002 9.65 8.73002 9.53 8.49002 9.35C8.29002 9.19 8.05002 9 7.72002 8.86C7.65002 8.55 7.61002 8.22 7.61002 7.88C7.61002 5.46 9.58002 3.5 12 3.5C14.42 3.5 16.39 5.46 16.39 7.88C16.39 8.22 16.35 8.55 16.28 8.86Z" fill="black"/>
</svg>
