<svg width="24" height="24" viewBox="0 0 24 24" fill="none" xmlns="http://www.w3.org/2000/svg">
<path d="M19.23 11.25H16.47C16.67 10.86 16.8 10.43 16.8 9.96999V5.92999C16.8 4.39999 15.55 3.14999 14.02 3.14999H9.98C8.45 3.14999 7.2 4.39999 7.2 5.92999V9.96999C7.2 10.43 7.33 10.86 7.53 11.25H4.77C3.24 11.25 2 12.49 2 14.02V18.07C2 19.6 3.24 20.84 4.77 20.84H8.82001C10.35 20.84 11.59 19.6 11.59 18.07V14.02C11.59 13.56 11.47 13.13 11.27 12.75H12.73C12.53 13.13 12.41 13.56 12.41 14.02V18.07C12.41 19.6 13.65 20.84 15.18 20.84H19.23C20.76 20.84 22 19.6 22 18.07V14.02C22 12.49 20.76 11.25 19.23 11.25Z" fill="black"/>
</svg>
