<svg width="24" height="24" viewBox="0 0 24 24" fill="none" xmlns="http://www.w3.org/2000/svg">
<path d="M21.98 5.33C21.9 4.53 21.54 3.78001 20.97 3.21001L20.79 3.02C20.21 2.45 19.46 2.09 18.67 2.02C17.88 1.93 17.06 2.12 16.38 2.55C16.16 2.69 15.92 2.74 15.68 2.69C14.08 2.38 12.34 2.52 10.64 3.09C8.92999 3.67 7.32999 4.68 5.99999 6C4.67999 7.32 3.67999 8.92 3.08999 10.63C2.52999 12.33 2.38999 14.07 2.69999 15.67C2.73999 15.91 2.68999 16.16 2.55999 16.37C2.11999 17.06 1.92999 17.87 2.01999 18.66C2.09999 19.46 2.45999 20.21 3.02999 20.78L3.20999 20.96C3.78999 21.54 4.54 21.89 5.33 21.97C5.46 21.99 5.58999 22 5.70999 22C6.37999 22 7.05 21.8 7.62 21.44C7.84 21.3 8.07999 21.25 8.31999 21.29C9.91999 21.6 11.66 21.47 13.36 20.9C15.07 20.31 16.67 19.31 18 17.99C19.32 16.67 20.32 15.06 20.91 13.35C21.47 11.66 21.61 9.91001 21.3 8.32001C21.26 8.08001 21.31 7.82999 21.44 7.61999C21.88 6.92999 22.07 6.12 21.98 5.33ZM14.15 9.96001C14.42 9.99001 14.69 10.15 14.86 10.37C15.02 10.58 15.11 10.87 15.08 11.13C15.08 11.14 15.07 11.15 15.07 11.16C15 11.67 14.53 12.07 14.02 12.07C13.98 12.07 13.94 12.07 13.9 12.06C13.63 12.03 13.37 11.88 13.2 11.66C13.03 11.45 12.94 11.16 12.97 10.89C13.04 10.32 13.58 9.88001 14.15 9.96001ZM15.17 13.04C15.45 13.07 15.72 13.23 15.89 13.45C16.05 13.67 16.14 13.95 16.11 14.22C16.1 14.23 16.1 14.23 16.1 14.24V14.25C16.03 14.76 15.56 15.15 15.04 15.15H14.93C14.66 15.12 14.4 14.96 14.23 14.75C14.06 14.53 13.97 14.24 14 13.97C14.07 13.41 14.61 12.96 15.17 13.04ZM16.06 10.89C16.12 10.32 16.67 9.88001 17.23 9.96001C17.51 9.99001 17.77 10.15 17.94 10.37C18.11 10.58 18.19 10.87 18.16 11.13V11.16C18.08 11.67 17.61 12.07 17.1 12.07C17.06 12.07 17.03 12.07 16.99 12.06C16.72 12.03 16.46 11.88 16.29 11.66C16.12 11.45 16.02 11.16 16.06 10.89Z" fill="black"/>
</svg>
