<svg width="24" height="24" viewBox="0 0 24 24" fill="none" xmlns="http://www.w3.org/2000/svg">
<path d="M7.22998 7.77001C7.22998 8.18001 7.56998 8.52001 7.97998 8.52001C8.39998 8.52001 8.72998 8.18001 8.72998 7.77001C8.72998 7.50001 8.80996 7.41001 8.98996 7.18001C9.21996 6.88001 9.57996 6.44001 9.57996 5.65001C9.57996 4.86001 9.21996 4.42001 8.98996 4.12001C8.80996 3.90001 8.72998 3.80001 8.72998 3.54001C8.72998 3.12001 8.39998 2.79001 7.97998 2.79001C7.56998 2.79001 7.22998 3.12001 7.22998 3.54001C7.22998 4.33001 7.57998 4.77001 7.81998 5.06001C7.99998 5.29001 8.07996 5.39001 8.07996 5.65001C8.07996 5.92001 7.99998 6.01001 7.81998 6.24001C7.57998 6.53001 7.22998 6.97001 7.22998 7.77001Z" fill="black"/>
<path d="M10.83 7.77001C10.83 8.18001 11.16 8.52001 11.58 8.52001C11.99 8.52001 12.33 8.18001 12.33 7.77001C12.33 7.50001 12.4 7.41001 12.59 7.18001C12.82 6.88001 13.17 6.44001 13.17 5.65001C13.17 4.86001 12.82 4.42001 12.59 4.12001C12.4 3.90001 12.33 3.80001 12.33 3.54001C12.33 3.12001 11.99 2.79001 11.58 2.79001C11.16 2.79001 10.83 3.12001 10.83 3.54001C10.83 4.33001 11.18 4.77001 11.41 5.06001C11.6 5.29001 11.67 5.39001 11.67 5.65001C11.67 5.92001 11.6 6.01001 11.41 6.24001C11.18 6.53001 10.83 6.97001 10.83 7.77001Z" fill="black"/>
<path d="M14.42 7.77001C14.42 8.18001 14.76 8.52001 15.17 8.52001C15.59 8.52001 15.92 8.18001 15.92 7.77001C15.92 7.50001 16 7.41001 16.18 7.18001C16.42 6.88001 16.77 6.44001 16.77 5.65001C16.77 4.86001 16.42 4.42001 16.18 4.12001C16 3.90001 15.92 3.80001 15.92 3.54001C15.92 3.12001 15.59 2.79001 15.17 2.79001C14.76 2.79001 14.42 3.12001 14.42 3.54001C14.42 4.33001 14.78 4.77001 15.01 5.06001C15.19 5.29001 15.27 5.39001 15.27 5.65001C15.27 5.92001 15.19 6.01001 15.01 6.24001C14.78 6.53001 14.42 6.97001 14.42 7.77001Z" fill="black"/>
<path d="M21.62 10.89C21.27 10.45 20.75 10.19 20.18 10.19H3.82004C3.25004 10.19 2.73004 10.45 2.38004 10.89C2.04004 11.33 1.92003 11.89 2.06003 12.43C2.83003 15.46 4.91004 17.88 7.60004 19.15C7.57004 19.23 7.55002 19.31 7.55002 19.4V20.46C7.55002 20.87 7.88002 21.21 8.30002 21.21H15.7C16.12 21.21 16.45 20.87 16.45 20.46V19.4C16.45 19.31 16.43 19.23 16.4 19.15C19.09 17.88 21.17 15.46 21.94 12.43C22.08 11.89 21.96 11.33 21.62 10.89ZM20.05 13.36H3.95004C3.78004 12.94 3.62004 12.51 3.51004 12.06C3.48004 11.94 3.53003 11.86 3.56003 11.81C3.59003 11.78 3.68004 11.69 3.82004 11.69H20.18C20.32 11.69 20.41 11.78 20.44 11.81C20.47 11.86 20.52 11.94 20.49 12.06C20.38 12.51 20.22 12.94 20.05 13.36Z" fill="black"/>
</svg>
