<svg width="24" height="24" viewBox="0 0 24 24" fill="none" xmlns="http://www.w3.org/2000/svg">
<path d="M12.69 3.68C11.65 4.7 11.08 6.05999 11.08 7.50999C11.08 8.69999 11.49 9.81 12.2 10.74L2.22 20.6C1.93 20.89 1.93 21.37 2.22 21.66C2.36 21.81 2.56 21.89 2.75 21.89C2.94 21.89 3.13 21.81 3.28 21.67L13.27 11.8C14.23 12.52 15.38 12.91 16.54 12.91C17.94 12.91 19.33 12.38 20.4 11.33C21.43 10.31 22 8.94999 22 7.50999C22 6.05999 21.43 4.7 20.4 3.68C18.27 1.58 14.81 1.58 12.69 3.68Z" fill="black"/>
</svg>
