<svg width="24" height="24" viewBox="0 0 24 24" fill="none" xmlns="http://www.w3.org/2000/svg">
<path d="M18.13 7.31C17.99 7.19 17.84 7.07001 17.69 6.96001C18.02 5.79001 17.95 4.47 17.95 4.41C17.93 3.96 17.68 3.55001 17.32 3.35001C16.94 3.12001 16.47 3.09 16.06 3.28C16.05 3.29 15.29 3.65 14.48 4.11C13.9 3.09 13.04 2.43 12.72 2.2C12.28 1.93 11.72 1.93 11.24 2.23C10.95 2.44 10.1 3.09 9.52 4.11C8.71 3.65 7.95 3.29 7.94 3.28C7.53 3.09 7.06 3.11 6.71 3.34C6.32 3.55 6.07 3.96 6.05 4.41C6.05 4.47 5.98 5.78 6.3 6.95C4.65 8.19 4.31 9.97 4.31 11.2C4.31 15.27 7.91 22 12 22C16.09 22 19.69 15.27 19.69 11.2C19.69 9.62 19.15 8.28 18.13 7.31ZM10.46 18.16C9.89 18.16 9.43 17.7 9.43 17.13C9.43 16.57 9.88 16.11 10.45 16.11H10.46C11.03 16.11 11.49 16.57 11.49 17.13C11.49 17.7 11.03 18.16 10.46 18.16ZM17.14 13.02C17.14 13.59 16.68 14.05 16.11 14.05C15.54 14.05 15.08 13.59 15.08 13.02C15.08 12.46 15.53 12 16.1 12H16.11C16.68 12 17.14 12.46 17.14 13.02ZM7.88 12H7.89C8.46 12 8.92 12.46 8.92 13.02C8.92 13.59 8.46 14.05 7.89 14.05C7.33 14.05 6.86 13.59 6.86 13.02C6.86 12.46 7.32 12 7.88 12ZM8.92 8.91C8.92 8.34 9.37 7.88001 9.94 7.88001H9.95C10.52 7.88001 10.98 8.34 10.98 8.91C10.98 9.48 10.52 9.94 9.95 9.94C9.38 9.94 8.92 9.48 8.92 8.91ZM10.98 13.02C10.98 12.46 11.43 12 12 12H12.01C12.58 12 13.04 12.46 13.04 13.02C13.04 13.59 12.58 14.05 12.01 14.05C11.44 14.05 10.98 13.59 10.98 13.02ZM13.54 18.16C12.98 18.16 12.51 17.7 12.51 17.13C12.51 16.57 12.97 16.11 13.53 16.11H13.54C14.11 16.11 14.57 16.57 14.57 17.13C14.57 17.7 14.11 18.16 13.54 18.16ZM14.06 9.94C13.49 9.94 13.02 9.48 13.02 8.91C13.02 8.34 13.48 7.88001 14.05 7.88001H14.06C14.62 7.88001 15.08 8.34 15.08 8.91C15.08 9.48 14.62 9.94 14.06 9.94ZM16.46 4.75C16.46 5.11 16.43 5.67 16.33 6.19C15.84 5.99 15.3 5.83 14.71 5.72C15.32 5.34 16.04 4.96 16.46 4.75ZM10.56 5.42C10.89 4.45 11.7 3.76 12 3.53C12.32 3.78 13.12 4.46 13.44 5.42C13.45 5.47 13.49 5.49999 13.51 5.53999C12.7 5.46999 11.83 5.45 10.86 5.5C10.73 5.51 10.61 5.52999 10.49 5.53999C10.51 5.49999 10.55 5.47 10.56 5.42ZM9.28 5.71001C8.68 5.83001 8.14 5.99 7.67 6.19C7.57 5.67 7.54 5.11 7.54 4.75C7.96 4.96 8.68 5.34001 9.28 5.71001Z" fill="black"/>
</svg>
