<svg width="24" height="24" viewBox="0 0 24 24" fill="none" xmlns="http://www.w3.org/2000/svg">
<path d="M11.55 8.69001C11.54 8.68001 11.53 8.67001 11.52 8.65001C11.51 8.62001 11.49 8.59001 11.47 8.55001C11.44 8.52001 11.42 8.49001 11.4 8.47001C11.38 8.45001 11.38 8.44001 11.37 8.43001L10.69 7.79001V3.79001C10.69 3.37001 10.35 3.04001 9.94001 3.04001H7.20002C6.79002 3.04001 6.45002 3.37001 6.45002 3.79001V6.26001C6.30002 5.78001 6.05 5.33001 5.68 4.96001C4.89 4.17001 3.72002 3.86001 2.64002 4.14001C2.38002 4.21001 2.17999 4.42001 2.10999 4.68001C1.81999 5.76001 2.13002 6.93001 2.92002 7.72001C3.52002 8.32001 4.33001 8.64001 5.16001 8.64001C5.33001 8.64001 5.49001 8.60001 5.66001 8.58001C5.64001 8.60001 5.63 8.63001 5.62 8.65001C5.61 8.67001 5.6 8.68001 5.59 8.69001C5.59 8.71001 5.58999 8.73001 5.57999 8.75001C5.56999 8.79001 5.55999 8.83001 5.54999 8.86001V9.08001C5.55999 9.12001 5.56999 9.16001 5.57999 9.19001C5.58999 9.21001 5.59 9.23001 5.59 9.25001C5.6 9.26001 5.61 9.28001 5.62 9.29001C5.63 9.32001 5.65 9.36001 5.68 9.39001C5.7 9.42001 5.72 9.45001 5.74 9.48001C5.76 9.49001 5.76 9.5 5.77 9.52L6.45002 10.16V13.83L5.77 14.47C5.76 14.49 5.75 14.5 5.74 14.52C5.72 14.54 5.7 14.57 5.68 14.6C5.65 14.63 5.63 14.67 5.62 14.7C5.61 14.72 5.6 14.73 5.59 14.74C5.59 14.76 5.58999 14.78 5.57999 14.8C5.56999 14.84 5.55999 14.87 5.54999 14.91V15.13C5.55999 15.17 5.56999 15.2 5.57999 15.23C5.57999 15.26 5.58 15.28 5.59 15.3C5.6 15.31 5.61 15.33 5.62 15.34C5.63 15.37 5.65002 15.4 5.67002 15.43C5.70002 15.47 5.72001 15.5 5.75001 15.53C5.76001 15.54 5.76 15.55 5.77 15.56L6.45002 16.21V20.2C6.45002 20.62 6.79002 20.95 7.20002 20.95H9.94001C10.35 20.95 10.69 20.62 10.69 20.2V16.21L11.37 15.56C11.38 15.55 11.38 15.54 11.39 15.53C11.42 15.5 11.45 15.47 11.47 15.43C11.49 15.4 11.51 15.37 11.52 15.34C11.53 15.33 11.54 15.31 11.55 15.3C11.56 15.28 11.56 15.26 11.56 15.23C11.57 15.2 11.58 15.17 11.59 15.13V14.91C11.58 14.87 11.57 14.84 11.56 14.8C11.55 14.78 11.55 14.76 11.55 14.74C11.54 14.73 11.53 14.72 11.52 14.7C11.51 14.67 11.49 14.63 11.46 14.6C11.44 14.57 11.42 14.54 11.4 14.52C11.39 14.5 11.38 14.49 11.37 14.47L10.69 13.83V10.16L11.37 9.52C11.38 9.5 11.38 9.49001 11.4 9.48001C11.42 9.45001 11.44 9.42001 11.47 9.39001C11.49 9.36001 11.51 9.32001 11.52 9.29001C11.53 9.28001 11.54 9.26001 11.55 9.25001C11.55 9.23001 11.55 9.21001 11.56 9.19001C11.57 9.16001 11.58 9.12001 11.59 9.08001V8.86001C11.58 8.83001 11.57 8.79001 11.56 8.75001C11.55 8.73001 11.55 8.71001 11.55 8.69001ZM3.98002 6.66001C3.68002 6.36001 3.51001 5.95001 3.50001 5.54001C3.92001 5.55001 4.32 5.72 4.62 6.02C4.92 6.32 5.08999 6.73001 5.10999 7.14001C4.68999 7.13001 4.29002 6.96001 3.98002 6.66001Z" fill="black"/>
<path d="M21.36 10.31C20.28 10.02 19.11 10.33 18.32 11.13C17.95 11.5 17.7 11.95 17.55 12.43V10.16L18.23 9.52C18.24 9.5 18.24 9.49001 18.26 9.48001C18.28 9.45001 18.3 9.42001 18.32 9.39001C18.35 9.36001 18.37 9.32001 18.38 9.29001C18.39 9.28001 18.4 9.26001 18.41 9.25001C18.41 9.23001 18.41 9.21001 18.42 9.19001C18.43 9.16001 18.44 9.12001 18.45 9.08001V8.86001C18.44 8.83001 18.43 8.79001 18.42 8.75001C18.41 8.73001 18.41 8.71001 18.41 8.69001C18.4 8.68001 18.39 8.67001 18.38 8.65001C18.37 8.62001 18.35 8.59001 18.32 8.55001C18.3 8.52001 18.28 8.49001 18.26 8.47001C18.24 8.45001 18.24 8.44001 18.23 8.43001L17.55 7.79001V3.79001C17.55 3.37001 17.21 3.04001 16.8 3.04001H14.06C13.65 3.04001 13.31 3.37001 13.31 3.79001V7.79001L12.63 8.43001C12.62 8.44001 12.62 8.45001 12.6 8.47001C12.58 8.49001 12.56 8.52001 12.53 8.55001C12.51 8.59001 12.49 8.62001 12.48 8.65001C12.47 8.67001 12.46 8.68001 12.45 8.69001C12.45 8.71001 12.45 8.73001 12.44 8.75001C12.43 8.79001 12.42 8.83001 12.41 8.86001V9.08001C12.42 9.12001 12.43 9.16001 12.44 9.19001C12.45 9.21001 12.45 9.23001 12.45 9.25001C12.46 9.26001 12.47 9.28001 12.48 9.29001C12.49 9.32001 12.51 9.36001 12.53 9.39001C12.56 9.42001 12.58 9.45001 12.6 9.48001C12.62 9.49001 12.62 9.5 12.63 9.52L13.31 10.16V13.83L12.63 14.47C12.62 14.49 12.61 14.5 12.6 14.52C12.58 14.54 12.56 14.57 12.54 14.6C12.51 14.63 12.49 14.67 12.48 14.7C12.47 14.72 12.46 14.73 12.45 14.74C12.45 14.76 12.45 14.78 12.44 14.8C12.43 14.84 12.42 14.87 12.41 14.91V15.13C12.42 15.17 12.43 15.2 12.44 15.23C12.44 15.26 12.44 15.28 12.45 15.3C12.46 15.31 12.47 15.33 12.48 15.34C12.49 15.37 12.51 15.4 12.53 15.43C12.55 15.47 12.58 15.5 12.61 15.53C12.62 15.54 12.62 15.55 12.63 15.56L13.31 16.21V20.2C13.31 20.62 13.65 20.95 14.06 20.95H16.8C17.21 20.95 17.55 20.62 17.55 20.2V16.21L18.23 15.56C18.24 15.55 18.24 15.54 18.25 15.53C18.28 15.5 18.3 15.47 18.33 15.43C18.35 15.4 18.37 15.37 18.38 15.34C18.39 15.33 18.4 15.31 18.41 15.3C18.42 15.28 18.42 15.26 18.42 15.23C18.43 15.2 18.44 15.17 18.45 15.13V14.91C18.44 14.87 18.43 14.84 18.42 14.8C18.41 14.78 18.41 14.77 18.41 14.75C18.55 14.77 18.7 14.81 18.84 14.81C19.67 14.81 20.48 14.48 21.08 13.89C21.87 13.09 22.18 11.93 21.89 10.84C21.82 10.58 21.62 10.38 21.36 10.31ZM20.02 12.83C19.71 13.13 19.31 13.3 18.89 13.31C18.91 12.89 19.08 12.49 19.38 12.19C19.68 11.89 20.08 11.72 20.5 11.71C20.49 12.12 20.32 12.53 20.02 12.83Z" fill="black"/>
</svg>
