<svg width="24" height="24" viewBox="0 0 24 24" fill="none" xmlns="http://www.w3.org/2000/svg">
<path d="M18.99 9.19H17.65C17.62 9.19 17.59 9.2 17.56 9.21L17.44 7.81C17.3 6.25 15.84 5.08 14.03 5.08H13.26V3.77C13.26 3.68 13.24 3.58 13.21 3.5H14.57C14.98 3.5 15.32 3.16 15.32 2.75C15.32 2.33 14.98 2 14.57 2H10.46C10.04 2 9.71002 2.33 9.71002 2.75C9.71002 3.16 10.04 3.5 10.46 3.5H11.82C11.79 3.58 11.76 3.68 11.76 3.77V5.08H11C9.22002 5.08 7.72001 6.28 7.59001 7.81L6.85002 16.38C6.13002 16.37 5.56001 15.79 5.56001 15.08V11.82C5.56001 11.08 5.26001 10.36 4.73001 9.84L3.79001 8.9C3.50001 8.6 3.03001 8.6 2.73001 8.9C2.44001 9.19 2.44001 9.66 2.73001 9.96L3.67001 10.9C3.92001 11.14 4.06001 11.48 4.06001 11.82V15.08C4.06001 16.58 5.24002 17.79 6.72002 17.87L6.63002 18.82C6.57002 19.57 6.83002 20.3 7.36002 20.88C8.01002 21.59 8.99001 22 10.04 22H14.98C16.04 22 17.01 21.59 17.67 20.88C18.2 20.3 18.46 19.57 18.39 18.82L18.25 17.18C18.38 17.27 18.52 17.33 18.68 17.33C18.81 17.33 18.94 17.3 19.06 17.23C20.56 16.37 21.49 14.75 21.49 13.02V11.68C21.49 10.31 20.37 9.19 18.99 9.19ZM9.08002 7.94C9.15002 7.18 9.99002 6.58 11 6.58H14.03C15.04 6.58 15.88 7.18 15.95 7.94L15.97 8.16H9.43001C9.29001 8.16 9.17002 8.21 9.05002 8.28L9.08002 7.94ZM8.95001 9.48C9.08001 9.59 9.24001 9.66 9.43001 9.66H16.1L16.44 13.59C16.05 13.57 15.83 13.48 15.56 13.36C15.19 13.2 14.73 13 13.89 13C13.04 13 12.58 13.2 12.21 13.36C11.9 13.5 11.67 13.6 11.14 13.6C10.62 13.6 10.39 13.5 10.07 13.36C9.74002 13.22 9.33002 13.05 8.64002 13.02L8.95001 9.48ZM19.99 13.02C19.99 14.22 19.34 15.34 18.3 15.94C18.24 15.97 18.2 16.02 18.15 16.07L17.69 10.69H18.99C19.54 10.69 19.99 11.14 19.99 11.68V13.02Z" fill="black"/>
</svg>
