<svg width="24" height="24" viewBox="0 0 24 24" fill="none" xmlns="http://www.w3.org/2000/svg">
<path d="M18.24 8.52C18.24 6.7 17.22 3.52 17.02 2.89C16.83 2.36 16.33 2 15.76 2H8.24002C7.67002 2 7.17001 2.36 6.98001 2.9C6.78001 3.52 5.76001 6.7 5.76001 8.52C5.76001 10.58 6.66002 12.48 8.22002 13.72C9.11002 14.44 10.16 14.86 11.27 14.99C11.26 15.02 11.25 15.05 11.25 15.08V20.22C11.25 20.32 11.27 20.41 11.31 20.5H8.92001C8.50001 20.5 8.17001 20.83 8.17001 21.25C8.17001 21.66 8.50001 22 8.92001 22H15.08C15.5 22 15.83 21.66 15.83 21.25C15.83 20.83 15.5 20.5 15.08 20.5H12.69C12.73 20.41 12.75 20.32 12.75 20.22V15.08C12.75 15.06 12.74 15.04 12.74 15.01C12.96 14.99 13.18 14.95 13.4 14.9C16.25 14.21 18.24 11.59 18.24 8.52ZM8.36002 3.5H15.64C15.97 4.53 16.45 6.24 16.65 7.54C16.4 7.47 16.19 7.36 15.96 7.23C15.49 6.97 14.91 6.63 13.83 6.63C12.75 6.63 12.17 6.97 11.7 7.23C11.28 7.47 10.99 7.63 10.3 7.63C9.62002 7.63 9.32002 7.47 8.91002 7.23C8.56002 7.03 8.14002 6.8 7.50002 6.69C7.74002 5.56 8.10002 4.31 8.36002 3.5Z" fill="black"/>
</svg>
