<svg width="24" height="24" viewBox="0 0 24 24" fill="none" xmlns="http://www.w3.org/2000/svg">
<path d="M18.44 11.15C18.02 11.15 17.63 11.23 17.25 11.37L16.09 9.56V7.16H18.72C19.13 7.16 19.47 6.82 19.47 6.41C19.47 6 19.13 5.66 18.72 5.66H15.34C14.93 5.66 14.59 6 14.59 6.41V9.03H9.82L8.74 7.13C9.08 7.06 9.34 6.77 9.34 6.41C9.34 6 9 5.66 8.59 5.66H6.34C5.93 5.66 5.59 6 5.59 6.41C5.59 6.82 5.93 7.16 6.34 7.16H7.03L8.49 9.73L7.17 11.55C6.68 11.3 6.14 11.15 5.56 11.15C3.58 11.15 1.97 12.76 1.97 14.74C1.97 16.73 3.58 18.34 5.56 18.34C7.22 18.34 8.61 17.19 9.02 15.66L12.3 15.69H12.31C12.43 15.69 12.54 15.65 12.64 15.6C12.65 15.6 12.66 15.6 12.68 15.59C12.71 15.58 12.72 15.55 12.75 15.53C12.79 15.5 12.83 15.47 12.86 15.43C12.89 15.4 12.91 15.38 12.93 15.35C12.94 15.33 12.95 15.33 12.95 15.32L15.37 11.21L15.97 12.15C15.28 12.8 14.85 13.72 14.85 14.74C14.85 16.73 16.46 18.34 18.44 18.34C20.42 18.34 22.03 16.73 22.03 14.74C22.03 12.76 20.42 11.15 18.44 11.15ZM5.56 16.84C4.4 16.84 3.47 15.9 3.47 14.74C3.47 13.59 4.4 12.65 5.56 12.65C5.81 12.65 6.04 12.7 6.27 12.78L5.06 14.43C5.05 14.44 5.05 14.46 5.04 14.48C5.01 14.53 4.99 14.58 4.97 14.64C4.95 14.69 4.94 14.74 4.94 14.79C4.93 14.81 4.92 14.84 4.92 14.86C4.92 14.88 4.93 14.9 4.93 14.92L4.96 15.07C4.97 15.12 4.99 15.16 5.01 15.2C5.03 15.24 5.06 15.28 5.08 15.32C5.12 15.36 5.15 15.4 5.19 15.43C5.2 15.45 5.21 15.46 5.23 15.48C5.26 15.5 5.29 15.51 5.32 15.52C5.35 15.54 5.37 15.55 5.4 15.57C5.48 15.6 5.56 15.61 5.64 15.62C5.65 15.62 5.66 15.62 5.66 15.62L7.44 15.64C7.11 16.35 6.39 16.84 5.56 16.84ZM18.44 16.84C17.29 16.84 16.35 15.9 16.35 14.74C16.35 14.25 16.52 13.8 16.81 13.45L17.81 15C17.95 15.22 18.2 15.34 18.44 15.34C18.58 15.34 18.72 15.31 18.85 15.22C19.2 15 19.3 14.54 19.07 14.19L18.1 12.68C18.21 12.67 18.32 12.65 18.44 12.65C19.6 12.65 20.53 13.59 20.53 14.74C20.53 15.9 19.6 16.84 18.44 16.84Z" fill="black"/>
</svg>
