<svg width="24" height="24" viewBox="0 0 24 24" fill="none" xmlns="http://www.w3.org/2000/svg">
<path d="M17.36 3.74V2.75C17.36 2.33 17.02 2 16.61 2C16.2 2 15.86 2.33 15.86 2.75V3.74C15.86 4.15 16.2 4.49 16.61 4.49C17.02 4.49 17.36 4.15 17.36 3.74Z" fill="black"/>
<path d="M14.76 5.03C14.08 4.35 12.98 4.36 12.3 5.03L10.2 7.14C9.07 8.26 8.64001 9.81 8.89001 11.27C8.86001 11.3 8.82 11.31 8.79 11.34L2.53 17.61C1.83 18.31 1.83 19.45 2.53 20.15L3.85001 21.47C4.19001 21.81 4.64 22 5.12 22C5.6 22 6.05001 21.81 6.39001 21.47L12.66 15.2C12.69 15.17 12.7 15.14 12.73 15.1C12.99 15.15 13.26 15.18 13.53 15.18C14.74 15.18 15.94 14.72 16.86 13.8L18.96 11.7C19.64 11.02 19.64 9.92 18.96 9.24L14.76 5.03ZM17.9 10.64L17.03 11.51L12.49 6.97L13.36 6.09C13.41 6.05 13.47 6.02 13.53 6.02C13.59 6.02 13.65 6.05 13.7 6.09L17.9 10.3C18 10.39 18 10.55 17.9 10.64Z" fill="black"/>
<path d="M18.96 6.08998L19.67 5.38999C19.96 5.09999 19.96 4.62999 19.67 4.32999C19.37 4.03999 18.9 4.03999 18.6 4.32999L17.9 5.02998C17.61 5.32998 17.61 5.79998 17.9 6.08998C18.05 6.23998 18.24 6.30998 18.43 6.30998C18.63 6.30998 18.82 6.23998 18.96 6.08998Z" fill="black"/>
<path d="M21.25 6.64001H20.26C19.84 6.64001 19.51 6.97001 19.51 7.39001C19.51 7.80001 19.84 8.14001 20.26 8.14001H21.25C21.66 8.14001 22 7.80001 22 7.39001C22 6.97001 21.66 6.64001 21.25 6.64001Z" fill="black"/>
</svg>
