<svg width="24" height="24" viewBox="0 0 24 24" fill="none" xmlns="http://www.w3.org/2000/svg">
<path d="M10.63 16.68C10.63 17.08 11 17.41 11.46 17.41C11.91 17.41 12.28 17.08 12.28 16.68C12.28 16.33 11.91 15.7 11.46 15.12C11 15.7 10.63 16.33 10.63 16.68Z" fill="black"/>
<path d="M13.66 6.58002H9.25C9.08 6.58002 8.94 6.72001 8.94 6.89001V9.91002C8.94 10.08 9.08 10.22 9.25 10.22H13.66C13.83 10.22 13.97 10.08 13.97 9.91002V6.89001C13.97 6.72001 13.83 6.58002 13.66 6.58002Z" fill="black"/>
<path d="M18.74 5.51V4.86C18.74 3.28 17.45 2 15.87 2H7.03999C5.45999 2 4.17999 3.28 4.17999 4.86V20.5H2.75C2.34 20.5 2 20.83 2 21.25C2 21.66 2.34 22 2.75 22H20.16C20.58 22 20.91 21.66 20.91 21.25C20.91 20.83 20.58 20.5 20.16 20.5H18.74V16.86H20.16C21.18 16.86 22 16.06 22 15.08V9.34C22 8.86 21.8 8.4 21.45 8.07L18.74 5.51ZM11.46 18.91C10.17 18.91 9.13 17.91 9.13 16.68C9.13 15.45 10.41 14 10.81 13.58C11.14 13.23 11.77 13.23 12.1 13.58C12.5 14 13.78 15.45 13.78 16.68C13.78 17.91 12.74 18.91 11.46 18.91ZM15.47 9.91C15.47 10.91 14.66 11.72 13.66 11.72H9.25C8.25 11.72 7.44 10.91 7.44 9.91V6.89C7.44 5.89 8.25 5.08 9.25 5.08H13.66C14.66 5.08 15.47 5.89 15.47 6.89V9.91ZM20.5 15.08C20.5 15.23 20.35 15.36 20.16 15.36H18.74V12.75H20.5V15.08ZM20.5 11.25H18.74V7.57L20.42 9.16C20.47 9.21 20.5 9.27 20.5 9.34V11.25Z" fill="black"/>
</svg>
