<svg width="24" height="24" viewBox="0 0 24 24" fill="none" xmlns="http://www.w3.org/2000/svg">
<path d="M9.59 21.73C7.69988 19.1523 6.59866 16.0814 6.42 12.89H2C2.18889 15.0005 3.0433 16.9965 4.44 18.59C5.78608 20.1495 7.58722 21.2476 9.59 21.73Z" fill="black"/>
<path d="M9.58 2.27C7.55016 2.76801 5.72738 3.8895 4.36779 5.47688C3.00821 7.06426 2.18015 9.03774 2 11.12H6.42C6.59892 7.92721 7.69623 4.85405 9.58 2.27Z" fill="black"/>
<path d="M12 21.91C14.2451 19.4233 15.5872 16.2529 15.81 12.91H8.19C8.41279 16.2529 9.75492 19.4233 12 21.91Z" fill="black"/>
<path d="M15.81 11.12C15.5803 7.77879 14.2391 4.61054 12 2.12C9.76089 4.61054 8.41966 7.77879 8.19 11.12H15.81Z" fill="black"/>
<path d="M22 12.89H17.58C17.3998 16.0795 16.3025 19.149 14.42 21.73C16.4483 21.2326 18.27 20.1125 19.6295 18.5271C20.9889 16.9417 21.8179 14.9705 22 12.89Z" fill="black"/>
<path d="M22 11.12C21.811 9.03804 20.9788 7.0665 19.6188 5.47888C18.2587 3.89127 16.4383 2.76628 14.41 2.26C16.2997 4.84547 17.4006 7.92261 17.58 11.12H22Z" fill="black"/>
</svg>
