<svg width="24" height="24" viewBox="0 0 24 24" fill="none" xmlns="http://www.w3.org/2000/svg">
<path d="M6.06999 22H14.84C16.24 22 17.38 20.86 17.38 19.47V13.45C17.54 13.28 18.3 12.44 19.04 11.35C19.77 10.27 20.46 8.93 20.46 7.78C20.46 5.96 19.11 4.45 17.33 4.12C17.14 2.92 16.1 2 14.84 2H6.06999C4.67999 2 3.53998 3.13 3.53998 4.53V19.47C3.53998 20.86 4.67999 22 6.06999 22ZM17.69 7.85C17.69 8.44 17.21 8.92 16.62 8.92C16.04 8.92 15.56 8.44 15.56 7.85C15.56 7.26 16.04 6.79 16.62 6.79C17.21 6.79 17.69 7.26 17.69 7.85ZM5.03998 4.53C5.03998 3.96 5.49999 3.5 6.06999 3.5H14.84C15.28 3.5 15.65 3.77 15.8 4.15C14.08 4.52 12.79 6 12.79 7.78C12.79 10.09 15.56 13.11 15.87 13.45C15.87 13.45 15.87 13.45 15.88 13.45V16.35L9.95999 10.44L5.33998 5.82C5.24998 5.73 5.14998 5.68 5.03998 5.64V4.53ZM5.03998 7.64L8.36998 10.97L5.03998 14.3V7.64ZM5.03998 16.42L9.42998 12.03L14.8 17.4H5.03998V16.42Z" fill="black"/>
</svg>
