<svg width="24" height="24" viewBox="0 0 24 24" fill="none" xmlns="http://www.w3.org/2000/svg">
<path d="M14.06 17.41H9.94C9.53 17.41 9.19 17.75 9.19 18.16V21.25C9.19 21.66 9.53 22 9.94 22H14.06C14.47 22 14.81 21.66 14.81 21.25V18.16C14.81 17.75 14.47 17.41 14.06 17.41Z" fill="black"/>
<path d="M9.26001 16.21C9.30001 16.25 9.33 16.28 9.37 16.3C9.49 16.38 9.64001 16.43 9.79001 16.43H10.87C10.75 16.28 10.63 16.1 10.5 15.91C10.31 15.62 10.11 15.3 9.91 14.93C9.79 14.71 9.67 14.47 9.56 14.23C9.55 14.22 9.54999 14.21 9.54999 14.21C8.90999 12.82 8.4 11.01 8.5 8.88C8.6 6.65 9.33001 4.84 10.1 3.53C10.45 2.93 10.8 2.44 11.1 2.06C11.13 2.04 11.14 2.02 11.15 2H11.1H10.42C7.10001 2.14 4.48999 4.86 4.48999 8.19C4.48999 9.62 4.98999 11.02 5.89999 12.12L9.20999 16.16L9.26001 16.21Z" fill="black"/>
<path d="M11.65 14.93C11.77 15.12 11.89 15.28 12 15.43C12.11 15.28 12.23 15.12 12.35 14.93C13.16 13.67 14.12 11.6 14.01 8.94998C13.9 6.50998 12.92 4.64998 12.1 3.49998C12.07 3.44998 12.03 3.39999 12 3.35999C11.97 3.39999 11.93 3.44998 11.9 3.49998C11.08 4.64998 10.1 6.50998 9.98998 8.94998C9.87998 11.6 10.84 13.67 11.65 14.93Z" fill="black"/>
<path d="M13.58 2H12.9H12.85C12.86 2.02 12.87 2.04 12.9 2.06C13.2 2.44 13.55 2.93 13.9 3.53C14.67 4.84 15.4 6.65 15.5 8.88C15.6 11.01 15.09 12.82 14.45 14.21C14.45 14.21 14.45 14.22 14.44 14.23L14.09 14.93C13.89 15.3 13.69 15.62 13.5 15.91C13.37 16.1 13.25 16.28 13.13 16.43H14.21C14.36 16.43 14.51 16.38 14.63 16.3C14.67 16.28 14.7 16.25 14.74 16.21L14.79 16.16L18.1 12.12C19.01 11.02 19.51 9.62 19.51 8.19C19.51 4.86 16.9 2.14 13.58 2Z" fill="black"/>
</svg>
