<svg width="24" height="24" viewBox="0 0 24 24" fill="none" xmlns="http://www.w3.org/2000/svg">
<path d="M6.10999 7.89C6.10999 9.97 7.21001 11.88 8.98001 12.94L8.39001 13.52C8.09001 13.82 8.09001 14.29 8.39001 14.58L8.88 15.08L8.39001 15.58C8.09001 15.87 8.09001 16.35 8.39001 16.64L8.88 17.14L8.39001 17.63C8.09001 17.93 8.09001 18.4 8.39001 18.7L9.19 19.5V20.22C9.19 20.5 9.34999 20.76 9.60999 20.89L11.67 21.92C11.77 21.97 11.88 22 12 22C12.12 22 12.23 21.97 12.33 21.92L14.39 20.89C14.65 20.76 14.81 20.5 14.81 20.22V13.06C16.69 12.04 17.89 10.06 17.89 7.89C17.89 4.64 15.25 2 12 2C8.75 2 6.10999 4.64 6.10999 7.89ZM12 5.08C12.7 5.08 13.26 5.65 13.26 6.35C13.26 7.04 12.7 7.61 12 7.61C11.3 7.61 10.74 7.04 10.74 6.35C10.74 5.65 11.3 5.08 12 5.08Z" fill="black"/>
</svg>
