<svg width="24" height="24" viewBox="0 0 24 24" fill="none" xmlns="http://www.w3.org/2000/svg">
<path d="M19.69 8.08999C18.98 7.73999 18.16 7.54999 17.29 7.51999C17.33 7.48999 17.37 7.46 17.41 7.44C17.62 7.31 17.74 7.09 17.76 6.86L17.77 6.70999L18.12 6.69999C18.31 6.69999 18.49 6.61999 18.62 6.48999C19.4 5.73999 20.01 5.12 20.23 4.86C20.42 4.62 20.52 4.35999 20.52 4.09999C20.52 3.77999 20.4 3.48999 20.18 3.26999C18.91 1.99999 17.26 1.65999 15.64 2.33999C14.62 2.76999 13.69 3.52999 12.96 4.56999C12.55 5.14999 12.23 5.79 11.98 6.47C11.74 5.79 11.42 5.14999 11.01 4.56999C10.28 3.52999 9.34999 2.76999 8.32999 2.33999C6.70999 1.65999 5.05999 1.99999 3.78999 3.26999C3.56999 3.48999 3.44999 3.77999 3.44999 4.08999C3.44999 4.35999 3.54999 4.62 3.74999 4.86C3.95999 5.12 4.56999 5.73999 5.34999 6.48999C5.47999 6.61999 5.65999 6.69999 5.84999 6.69999L6.19999 6.70999L6.20999 6.86C6.22999 7.09 6.34999 7.31 6.55999 7.44C6.59999 7.47 6.63999 7.48999 6.67999 7.51999C5.81999 7.55999 5.00999 7.74999 4.30999 8.08999C2.72999 8.85999 1.88999 10.33 2.00999 12.11C2.02999 12.43 2.16999 12.72 2.40999 12.92C2.60999 13.1 2.86999 13.19 3.17999 13.2C3.60999 13.22 3.95999 13.23 4.25999 13.23C4.90999 13.23 5.29999 13.17 5.62999 12.98C5.83999 12.86 6.03999 12.7 6.21999 12.52C6.41999 12.62 6.61999 12.69 6.83999 12.73C7.39999 12.84 7.75999 12.71 8.21999 12.53C8.42999 12.45 8.70999 12.34 9.08999 12.23C9.33999 12.15 9.56999 12.05 9.80999 11.95L9.15999 20.73C9.13999 21.05 9.23999 21.37 9.47999 21.65C9.70999 21.87 10.01 22 10.32 22H13.67C13.98 22 14.28 21.87 14.54 21.61C14.74 21.39 14.84 21.1 14.84 20.74L14.18 11.98C14.43 12.08 14.68 12.17 14.95 12.24C15.34 12.33 15.94 12.48 16.71 12.69C16.87 12.73 17.04 12.72 17.2 12.65L17.77 12.4L18.22 12.91C18.36 13.06 18.55 13.15 18.75 13.15C19.59 13.19 20.24 13.2 20.61 13.2H20.82C21.13 13.19 21.39 13.1 21.59 12.92C21.83 12.72 21.97 12.43 21.99 12.11C22.11 10.33 21.27 8.85999 19.69 8.08999ZM11.35 11.48H11.4C11.62 11.48 11.82 11.39 12 11.27C12.18 11.39 12.39 11.48 12.6 11.48H12.64L12.78 13.3H11.21L11.35 11.48ZM11.1 14.8H12.89L13.09 17.43C13.07 17.43 13.05 17.41 13.03 17.41H10.97C10.95 17.41 10.93 17.43 10.91 17.43L11.1 14.8ZM10.68 20.5L10.8 18.88C10.86 18.89 10.91 18.91 10.97 18.91H13.03C13.09 18.91 13.14 18.89 13.2 18.88L13.32 20.5H10.68Z" fill="black"/>
</svg>
