<svg width="24" height="24" viewBox="0 0 24 24" fill="none" xmlns="http://www.w3.org/2000/svg">
<path d="M21.17 15.36L12.75 16.3V5.28C13.47 6.67 14.16 8.65 14.04 11.01C13.99 11.95 13.81 12.89 13.52 13.81C13.44 14.05 13.49 14.32 13.66 14.52C13.8 14.69 14.01 14.79 14.23 14.79C14.26 14.79 14.3 14.78 14.33 14.78C15.46 14.64 16.51 14.49 17.56 14.35C18.71 14.19 19.87 14.03 21.12 13.87C21.17 13.87 21.22 13.84 21.26 13.82C21.31 13.81 21.35 13.8 21.39 13.78C21.44 13.75 21.47 13.72 21.51 13.68C21.55 13.65 21.59 13.63 21.61 13.59C21.64 13.56 21.66 13.51 21.68 13.46C21.7 13.42 21.73 13.39 21.75 13.34C21.76 13.29 21.76 13.24 21.76 13.19C21.76 13.14 21.78 13.1 21.77 13.05V13.04C21.77 13.04 21.77 13.04 21.77 13.03C21.55 10.88 20.8 8.83 19.6 7.1C17.26 3.73 13.95 2.47 12.19 2.02C12.16 2.01 12.13 2.02 12.1 2.02C12.06 2.01 12.03 2 12 2C11.99 2 11.99 2 11.98 2C11.96 2 11.95 2.01 11.93 2.01C11.89 2.01 11.86 2.03 11.82 2.04C11.78 2.05 11.74 2.05 11.7 2.07C11.68 2.07 11.67 2.09 11.65 2.1C11.62 2.11 11.6 2.13 11.57 2.15C11.54 2.18 11.5 2.19 11.46 2.23C11.45 2.24 11.44 2.26 11.43 2.27C11.41 2.3 11.39 2.33 11.37 2.37C11.35 2.4 11.32 2.43 11.31 2.47C11.3 2.48 11.3 2.48 11.3 2.49C10.3 5.14 9.03999 7.7 7.54999 10.1C6.54999 11.72 5.43 13.28 4.22 14.75C4.02 14.99 3.99001 15.32 4.14001 15.59C4.28001 15.83 4.52999 15.98 4.79999 15.98C4.82999 15.98 4.86999 15.97 4.89999 15.97L11.25 15.12V16.47L2.67001 17.42C2.65001 17.42 2.64 17.42 2.62 17.43C2.26 17.49 2 17.8 2 18.16C2 20.28 3.71999 22 5.82999 22H15.49C16.6 22 17.66 21.51 18.38 20.66L21.11 17.43L21.82 16.59C22.02 16.36 22.06 16.03 21.91 15.76C21.77 15.49 21.48 15.33 21.17 15.36Z" fill="black"/>
</svg>
