<svg width="24" height="24" viewBox="0 0 24 24" fill="none" xmlns="http://www.w3.org/2000/svg">
<path d="M13.91 14.95C14.78 14.22 15.7 13.23 16.45 11.93C17.59 9.95999 17.92 7.99999 17.97 6.57999C17.98 6.36999 17.98 6.17999 17.98 6.00999C17.81 6.00999 17.62 6.01999 17.41 6.01999C15.99 6.06999 14.03 6.39999 12.06 7.53999C10.76 8.28999 9.77003 9.20999 9.04003 10.08C8.87003 10.28 8.71004 10.48 8.57004 10.67C8.41004 10.89 8.27003 11.1 8.14003 11.3L9.89003 13.05L4.06003 18.88C3.77003 19.17 3.77003 19.65 4.06003 19.94C4.35003 20.23 4.83003 20.23 5.12003 19.94L10.95 14.11L12.7 15.86C12.9 15.73 13.11 15.59 13.33 15.43C13.52 15.28 13.71 15.12 13.91 14.95Z" fill="black"/>
<path d="M7.99002 9.02999C8.80002 8.07999 9.89002 7.08999 11.32 6.24999C12.82 5.38999 14.3 4.93 15.61 4.72C16.02 4.65 16.41 4.59999 16.78 4.56999C17.22 4.52999 17.62 4.51999 17.98 4.51999C13.65 0.949995 7.22002 1.17999 3.16002 5.22999C3.16002 5.22999 3.15002 5.24 3.14002 5.24L2.23001 6.15C1.94001 6.44 1.94001 6.91999 2.23001 7.20999C2.52001 7.49999 3.00001 7.49999 3.29001 7.20999L3.67001 6.83L7.07002 10.23C7.21002 10.03 7.36002 9.82999 7.52002 9.61999C7.65002 9.41999 7.81002 9.21999 7.99002 9.02999Z" fill="black"/>
<path d="M6.66 10.84C6.48 11.14 6.53 11.52 6.77 11.76C6.81 11.8 6.85999 11.84 6.91999 11.87C7.26999 12.08 7.72999 11.97 7.94999 11.61C8.00999 11.51 8.07999 11.41 8.13999 11.31L7.05999 10.23C6.90999 10.44 6.78 10.65 6.66 10.84Z" fill="black"/>
<path d="M12.39 16.05C12.03 16.27 11.92 16.72 12.13 17.08C12.16 17.14 12.19 17.19 12.24 17.23C12.48 17.47 12.86 17.53 13.16 17.34C13.36 17.23 13.56 17.09 13.78 16.94L12.7 15.86C12.59 15.92 12.49 15.99 12.39 16.05Z" fill="black"/>
<path d="M18.78 20.85C22.83 16.79 23.06 10.36 19.49 6.02999C19.49 6.37999 19.48 6.78999 19.44 7.22999C19.41 7.59999 19.36 7.98999 19.29 8.39999C19.07 9.70999 18.62 11.19 17.76 12.69C16.93 14.12 15.94 15.21 14.98 16.02C14.79 16.2 14.59 16.35 14.39 16.49C14.18 16.65 13.98 16.8 13.78 16.94L17.18 20.34L16.8 20.72C16.51 21.01 16.51 21.49 16.8 21.78C17.09 22.07 17.57 22.07 17.86 21.78L18.77 20.87C18.77 20.86 18.77 20.85 18.78 20.85Z" fill="black"/>
</svg>
