<svg width="24" height="24" viewBox="0 0 24 24" fill="none" xmlns="http://www.w3.org/2000/svg">
<path d="M21.25 18.44H2.75C2.34 18.44 2 18.78 2 19.19C2 19.61 2.34 19.94 2.75 19.94H21.25C21.66 19.94 22 19.61 22 19.19C22 18.78 21.66 18.44 21.25 18.44Z" fill="black"/>
<path d="M21.14 11.31C21.13 11.29 21.12 11.27 21.11 11.25C20.89 10.69 20.62 10.16 20.32 9.64999C20.01 9.11999 19.66 8.62999 19.27 8.15999C19.13 7.99999 18.99 7.83999 18.85 7.68999C16.71 5.34999 13.8 4.04999 10.67 4.04999H2.75C2.34 4.04999 2 4.38999 2 4.79999V16.11C2 16.52 2.34 16.86 2.75 16.86H4.23C4.51 17.47 5.12 17.89 5.83 17.89C6.54 17.89 7.16 17.47 7.44 16.86H15.53C15.81 17.47 16.43 17.89 17.14 17.89C17.85 17.89 18.47 17.47 18.75 16.86H21.25C21.66 16.86 22 16.52 22 16.11V15.79C22 14.74 21.87 13.73 21.61 12.75C21.49 12.26 21.33 11.78 21.14 11.31ZM5.56 10.97C5.56 11.38 5.22 11.72 4.81 11.72H3.78C3.68 11.72 3.58 11.7 3.5 11.66V9.24999C3.58 9.20999 3.68 9.18999 3.78 9.18999H4.81C5.22 9.18999 5.56 9.52999 5.56 9.93999V10.97ZM9.67 10.97C9.67 11.38 9.33 11.72 8.92 11.72H7.89C7.47 11.72 7.14 11.38 7.14 10.97V9.93999C7.14 9.52999 7.47 9.18999 7.89 9.18999H8.92C9.33 9.18999 9.67 9.52999 9.67 9.93999V10.97ZM13.7 11.25C13.18 11.25 12.75 10.89 12.75 10.46C12.75 10.02 13.18 9.65999 13.7 9.65999H18.53C18.89 10.15 19.21 10.69 19.47 11.25H13.7Z" fill="black"/>
</svg>
