<svg width="24" height="24" viewBox="0 0 24 24" fill="none" xmlns="http://www.w3.org/2000/svg">
<path d="M20.22 14.33H19.19C19.1 14.33 19.01 14.35 18.92 14.36V9.94C18.92 9.81 18.9 9.69 18.87 9.56C20.08 9.25 20.97 8.16 20.97 6.86V4.8C20.97 3.26 19.71 2 18.17 2H5.76001C4.21001 2 2.95999 3.26 2.95999 4.8V6.86C2.95999 8.18 3.88 9.29 5.12 9.58C5.1 9.7 5.07999 9.82 5.07999 9.94V14.36C4.98999 14.35 4.9 14.33 4.81 14.33H3.78C2.8 14.33 2 15.13 2 16.11V20.22C2 21.2 2.8 22 3.78 22H20.22C21.2 22 22 21.2 22 20.22V16.11C22 15.13 21.2 14.33 20.22 14.33ZM11.21 6.58H12.79V11.25H11.21V6.58ZM11.21 12.75H12.79V13.65L12 14.18L11.21 13.65V12.75ZM17.42 20.22C17.42 20.37 17.29 20.5 17.14 20.5H6.85999C6.70999 20.5 6.57999 20.37 6.57999 20.22V9.94C6.57999 9.79 6.70999 9.66 6.85999 9.66H9.70999V11.25H8.92001C8.50001 11.25 8.17001 11.58 8.17001 12C8.17001 12.41 8.50001 12.75 8.92001 12.75H9.70999V14.05C9.70999 14.31 9.82999 14.54 10.05 14.68L11.59 15.71C11.84 15.87 12.16 15.87 12.41 15.71L13.95 14.68C14.17 14.54 14.29 14.31 14.29 14.05V12.75H15.08C15.5 12.75 15.83 12.41 15.83 12C15.83 11.58 15.5 11.25 15.08 11.25H14.29V9.66H17.14C17.29 9.66 17.42 9.79 17.42 9.94V20.22Z" fill="black"/>
</svg>
