<svg width="24" height="24" viewBox="0 0 24 24" fill="none" xmlns="http://www.w3.org/2000/svg">
<path d="M14.78 11.58H16.28V12.45C16.28 12.6489 16.201 12.8397 16.0604 12.9803C15.9197 13.121 15.7289 13.2 15.53 13.2C15.3311 13.2 15.1404 13.121 14.9997 12.9803C14.859 12.8397 14.78 12.6489 14.78 12.45V11.58Z" fill="black"/>
<path d="M18.65 10.75C18.5821 10.8521 18.4899 10.9356 18.3817 10.9932C18.2734 11.0508 18.1526 11.0807 18.03 11.08H12.74V20.56H14.94C15.1389 20.56 15.3297 20.639 15.4703 20.7797C15.611 20.9203 15.69 21.1111 15.69 21.31C15.69 21.5089 15.611 21.6997 15.4703 21.8403C15.3297 21.981 15.1389 22.06 14.94 22.06H9.00002C8.8011 22.06 8.61034 21.981 8.46969 21.8403C8.32903 21.6997 8.25002 21.5089 8.25002 21.31C8.25002 21.1111 8.32903 20.9203 8.46969 20.7797C8.61034 20.639 8.8011 20.56 9.00002 20.56H11.2V11.08H6.00002C5.87742 11.0807 5.75659 11.0508 5.64837 10.9932C5.54015 10.9356 5.44794 10.8521 5.38002 10.75C5.31117 10.6484 5.26793 10.5317 5.254 10.4098C5.24007 10.2879 5.25586 10.1645 5.30002 10.05L8.34002 2.4C8.39449 2.26738 8.48537 2.15288 8.60216 2.06971C8.71895 1.98655 8.85687 1.93811 9.00002 1.93H15C15.1501 1.93049 15.2966 1.97539 15.4212 2.05903C15.5457 2.14267 15.6428 2.26131 15.7 2.4L18.77 10.05C18.8085 10.1676 18.8177 10.2929 18.7968 10.4149C18.7759 10.5369 18.7255 10.6519 18.65 10.75Z" fill="black"/>
</svg>
