<svg width="24" height="24" viewBox="0 0 24 24" fill="none" xmlns="http://www.w3.org/2000/svg">
<path d="M15.23 11.13L14.21 11.04C13.93 11.01 13.69 10.84 13.59 10.59L13.18 9.64C12.98 9.17 12.51 8.86 12 8.86C11.48 8.86 11.02 9.17 10.82 9.64L10.41 10.59C10.31 10.84 10.07 11.01 9.78999 11.04L8.76999 11.13C8.25999 11.18 7.82999 11.53 7.66999 12.02C7.50999 12.51 7.64999 13.04 8.03999 13.38L8.81999 14.06C9.01999 14.24 9.11 14.52 9.05 14.79L8.81999 15.79C8.70999 16.29 8.90999 16.81 9.31999 17.12C9.53999 17.28 9.8 17.36 10.08 17.36C10.24 17.36 10.6 17.27 10.74 17.18L11.61 16.65C11.73 16.58 11.87 16.55 12 16.55C12.13 16.55 12.27 16.58 12.39 16.65L13.26 17.18C13.69 17.44 14.26 17.42 14.68 17.11C15.09 16.81 15.29 16.29 15.18 15.79L14.95 14.79C14.89 14.52 14.98 14.24 15.19 14.06L15.95 13.38C16.34 13.04 16.49 12.51 16.33 12.02C16.17 11.52 15.74 11.18 15.23 11.13Z" fill="black"/>
<path d="M14.42 2.91C13.02 1.69 10.98 1.69 9.58 2.91L3.33 8.4C2.49 9.14 2 10.23 2 11.39V18.09C2 20.24 3.68 22 5.75 22H18.25C20.32 22 22 20.24 22 18.09V11.39C22 10.23 21.51 9.14 20.67 8.4L14.42 2.91ZM16.94 14.51L16.51 14.89L16.64 15.46C16.88 16.55 16.46 17.67 15.56 18.33C15.08 18.68 14.51 18.86 13.92 18.86C13.42 18.86 12.92 18.72 12.48 18.46L12 18.17L11.51 18.47C11.13 18.69 10.52 18.86 10.08 18.86C9.48 18.86 8.92 18.68 8.44 18.33C7.54 17.67 7.12 16.55 7.36 15.46L7.49 14.89L7.05 14.51C6.22 13.78 5.9 12.62 6.24 11.56C6.58 10.5 7.52 9.73999 8.63 9.63999L9.21 9.58L9.44 9.04999C9.88 8.02999 10.88 7.36 12 7.36C13.11 7.36 14.12 8.01999 14.56 9.04999L14.79 9.58L15.36 9.63999C16.47 9.73999 17.41 10.49 17.76 11.55V11.56C18.1 12.62 17.78 13.78 16.94 14.51Z" fill="black"/>
</svg>
