<svg width="24" height="24" viewBox="0 0 24 24" fill="none" xmlns="http://www.w3.org/2000/svg">
<path d="M20.67 8.4L14.42 2.92C13.02 1.69 10.98 1.69 9.58 2.92L3.33 8.4C2.49 9.15 2 10.24 2 11.39V18.1C2 20.25 3.68 22 5.75 22H18.25C20.32 22 22 20.25 22 18.1V11.39C22 10.24 21.51 9.15 20.67 8.4ZM13.46 14.47C12.65 13.99 11.5 14.01 10.68 14.53C10.51 14.63 10.33 14.68 10.15 14.68C9.81 14.68 9.49 14.51 9.3 14.21C9 13.75 9.15 13.13 9.61 12.83C11.05 11.93 13.02 11.9 14.47 12.74C14.95 13.02 15.11 13.63 14.83 14.11C14.55 14.58 13.94 14.75 13.46 14.47ZM13.66 16.86C13.66 17.7 12.98 18.37 12.15 18.37C11.32 18.37 10.63 17.7 10.63 16.86C10.63 16.03 11.3 15.35 12.13 15.35H12.15C12.98 15.35 13.66 16.03 13.66 16.86ZM16.68 10.84C16.41 11.32 15.8 11.49 15.32 11.21C13.35 10.08 10.71 10.11 8.71 11.34C8.55 11.45 8.37 11.49 8.19 11.49C7.85 11.49 7.52 11.33 7.33 11.02C7.04 10.55 7.19 9.94 7.66 9.65C10.27 8.02 13.72 7.99 16.31 9.48C16.79 9.75 16.96 10.37 16.68 10.84Z" fill="black"/>
</svg>
