<svg width="24" height="24" viewBox="0 0 24 24" fill="none" xmlns="http://www.w3.org/2000/svg">
<path d="M19.71 4.54001H4.29C3.03 4.54001 2 5.57001 2 6.83001C2 8.02001 2.9 8.98001 4.06 9.10001V18.7C4.06 19.11 4.39 19.45 4.81 19.45C5.22 19.45 5.56 19.11 5.56 18.7V12.21H18.17C18.27 12.21 18.36 12.19 18.44 12.15V18.7C18.44 19.11 18.78 19.45 19.19 19.45C19.61 19.45 19.94 19.11 19.94 18.7V9.10001C21.1 8.98001 22 8.02001 22 6.83001C22 5.57001 20.97 4.54001 19.71 4.54001ZM18.44 10.76C18.36 10.73 18.27 10.71 18.17 10.71H5.56V9.13H18.44V10.76Z" fill="black"/>
</svg>
