<svg width="24" height="24" viewBox="0 0 24 24" fill="none" xmlns="http://www.w3.org/2000/svg">
<path d="M14.06 10.69C14.47 10.69 14.81 10.35 14.81 9.94V8.91C14.81 8.5 14.47 8.16 14.06 8.16C13.64 8.16 13.31 8.5 13.31 8.91V9.94C13.31 10.35 13.64 10.69 14.06 10.69Z" fill="black"/>
<path d="M19.19 13.3H17.89V6.58H18.17C18.58 6.58 18.92 6.24 18.92 5.83V3.7C18.92 2.76 18.15 2 17.21 2H6.79001C5.85001 2 5.07999 2.76 5.07999 3.7V5.83C5.07999 6.24 5.41999 6.58 5.82999 6.58H6.10999V13.3H4.81C4.39 13.3 4.06 13.64 4.06 14.05C4.06 14.47 4.39 14.8 4.81 14.8H5.09C5.17 17.23 6.61999 19.31 8.67999 20.32V21.25C8.67999 21.66 9.01999 22 9.42999 22H14.57C14.98 22 15.32 21.66 15.32 21.25V20.32C17.38 19.31 18.83 17.23 18.91 14.8H19.19C19.61 14.8 19.94 14.47 19.94 14.05C19.94 13.64 19.61 13.3 19.19 13.3ZM16.39 13.3H7.60999V6.58H16.39V13.3ZM17.42 5.08H6.57999V3.7C6.57999 3.59 6.67001 3.5 6.79001 3.5H17.21C17.33 3.5 17.42 3.59 17.42 3.7V5.08Z" fill="black"/>
</svg>
