<svg width="24" height="24" viewBox="0 0 24 24" fill="none" xmlns="http://www.w3.org/2000/svg">
<path d="M12 2C6.49 2 2 6.49 2 12C2 17.51 6.49 22 12 22C17.51 22 22 17.51 22 12C22 6.49 17.51 2 12 2ZM8.62 15.75L8.1 16.67C7.97 16.92 7.71 17.05 7.45 17.05C7.33 17.05 7.2 17.02 7.08 16.96C6.72 16.75 6.6 16.29 6.8 15.93L7.32 15.01C7.52 14.65 7.98 14.53 8.34 14.73C8.7 14.94 8.83 15.39 8.62 15.75ZM6.75 14.02C6.34 14.02 6 13.68 6 13.27C6 12.86 6.34 12.52 6.75 12.52H8.74L11.14 8.32L10.35 6.94C10.14 6.58 10.27 6.12 10.63 5.92C10.99 5.71 11.45 5.84 11.65 6.2L12 6.81L12.35 6.2C12.55 5.84 13.01 5.71 13.37 5.92C13.73 6.12 13.86 6.58 13.65 6.94L10.47 12.52H12.83C13.25 12.52 13.58 12.86 13.58 13.27C13.58 13.68 13.25 14.02 12.83 14.02H6.75ZM17.25 14.02H16.16L17.21 15.94C17.41 16.31 17.27 16.76 16.91 16.96C16.79 17.02 16.67 17.05 16.55 17.05C16.28 17.05 16.03 16.91 15.89 16.66L12.49 10.43C12.29 10.07 12.42 9.61 12.79 9.41C13.15 9.21 13.61 9.35 13.81 9.71L15.34 12.52H17.25C17.67 12.52 18 12.86 18 13.27C18 13.68 17.67 14.02 17.25 14.02Z" fill="black"/>
</svg>
