<svg width="24" height="24" viewBox="0 0 24 24" fill="none" xmlns="http://www.w3.org/2000/svg">
<path d="M18.25 2H5.75C3.68 2 2 3.68 2 5.75V18.25C2 20.32 3.68 22 5.75 22H18.25C20.32 22 22 20.32 22 18.25V5.75C22 3.68 20.32 2 18.25 2ZM20.16 13.25C20.09 14.08 19.49 14.79 18.38 15.37C18.27 15.43 18.15 15.45 18.04 15.45C17.77 15.45 17.51 15.31 17.37 15.05C17.18 14.68 17.32 14.23 17.69 14.04C18.28 13.73 18.65 13.39 18.67 13.12C18.71 12.61 17.67 11.78 16.67 11.3C16.58 11.25 16.47 11.21 16.27 11.13C15.48 10.82 14.16 10.31 12.33 10.12C11.7 10.05 11.06 10.04 10.41 10.06C10.27 10.28 10.13 10.48 9.98001 10.72C9.76001 11.11 9.56 11.51 9.37 11.91C9.52 12.34 9.68001 12.76 9.88 13.17C10.64 14.8 11.58 15.93 12.04 16.47C12.15 16.61 12.21 16.67 12.23 16.69C13.04 17.57 14.23 18.36 14.72 18.13C15.19 17.92 15.4 16.6 15.34 15.5C15.33 15.39 15.32 15.28 15.29 15.06C15.21 14.53 15.1 13.72 14.82 12.76C14.71 12.36 14.94 11.95 15.34 11.83C15.73 11.72 16.15 11.95 16.26 12.35C16.57 13.41 16.69 14.28 16.77 14.85C16.81 15.12 16.83 15.27 16.83 15.41C16.88 16.19 16.92 18.78 15.34 19.5C15.08 19.61 14.81 19.67 14.54 19.67C13.03 19.67 11.47 18.08 11.13 17.72C11.12 17.7 11.04 17.62 10.89 17.44C10.41 16.87 9.43999 15.7 8.60999 14C8.53999 14.23 8.48001 14.46 8.42001 14.7C8.39001 14.84 8.35001 15 8.32001 15.19C8.14001 16.27 8.23001 17.55 8.67001 17.81C8.85001 17.91 9.12999 17.87 9.32999 17.82C9.72999 17.72 10.14 17.95 10.24 18.35C10.35 18.75 10.11 19.17 9.70999 19.27C9.43999 19.34 9.19001 19.37 8.95001 19.37C8.57001 19.37 8.22 19.28 7.91 19.1C6.44 18.23 6.71 15.7 6.84 14.95C6.88 14.69 6.93 14.49 6.97 14.34C7.16 13.48 7.42999 12.64 7.76999 11.83C7.63999 11.39 7.51999 10.94 7.42999 10.48C6.41999 10.79 5.38999 11.36 5.32999 11.85C5.30999 12.07 5.51 12.4 5.88 12.75C6.19 13.03 6.20999 13.51 5.92999 13.81C5.64999 14.12 5.17 14.13 4.87 13.85C4.11 13.15 3.76 12.42 3.84 11.68C4.03 9.98 6.43999 9.19 7.17999 8.99C7.18999 8.99 7.19001 8.99 7.20001 8.99C7.19001 8.91 7.18001 8.81 7.17001 8.7C7.13001 8.12 7.01001 5.22 8.73001 4.49C9.29001 4.25 9.93001 4.29 10.64 4.59C11.02 4.76 11.2 5.2 11.03 5.58C10.87 5.96 10.42 6.13 10.05 5.97C9.82999 5.88 9.52001 5.78 9.32001 5.87C8.78001 6.1 8.59001 7.6 8.67001 8.59C8.67001 8.64 8.66999 8.67 8.67999 8.71C8.97999 8.67 9.28 8.64 9.59 8.61C10.33 7.61 11.03 6.91 11.47 6.48C11.67 6.29 11.78 6.19 11.88 6.1C12.48 5.6 14.55 4.03 16.06 4.87C16.82 5.3 17.23 6.21 17.27 7.58C17.28 7.99 16.95 8.34 16.54 8.35C16.53 8.35 16.52 8.35 16.52 8.35C16.11 8.35 15.78 8.02 15.77 7.62C15.74 6.73 15.52 6.29 15.33 6.18C14.88 5.93 13.69 6.54 12.85 7.25C12.76 7.32 12.68 7.4 12.52 7.55C12.26 7.8 11.92 8.15 11.55 8.57C11.86 8.58 12.18 8.6 12.49 8.63C14.52 8.84 16 9.42 16.81 9.73C17.07 9.83 17.2 9.89 17.32 9.95C18.03 10.29 20.31 11.53 20.16 13.25ZM12.96 12C12.96 12.56 12.53 13.02 12 13.02C11.47 13.02 11.04 12.56 11.04 12C11.04 11.44 11.47 10.98 12 10.98C12.53 10.98 12.96 11.44 12.96 12Z" fill="black"/>
</svg>
