<svg width="24" height="24" viewBox="0 0 24 24" fill="none" xmlns="http://www.w3.org/2000/svg">
<path d="M9.81 10.28C9.81 9.73 9.69001 9.19 8.20001 9.19H5.45001V11.08H9.35999C9.72999 10.84 9.81 10.59 9.81 10.28Z" fill="black"/>
<path d="M10.7 13.69C10.7 13.1 10.44 12.74 9.89001 12.58H5.45001V15.1H8.60001C9.09001 15.1 10.7 14.99 10.7 13.69Z" fill="black"/>
<path d="M16.79 11.15C15.78 11.15 15.07 11.76 14.91 12.72H18.5C18.36 11.9 17.86 11.15 16.79 11.15Z" fill="black"/>
<path d="M18.25 2H5.75C3.68 2 2 3.68 2 5.75V18.25C2 20.32 3.68 22 5.75 22H18.25C20.32 22 22 20.32 22 18.25V5.75C22 3.68 20.32 2 18.25 2ZM20.04 13.42C20.04 13.84 19.69 14.22 19.28 14.22H15.13C15.43 14.78 16.01 15.1 16.79 15.1C17.15 15.1 17.46 15.03 17.71 14.91C18.08 14.72 18.53 14.87 18.71 15.24C18.9 15.61 18.75 16.06 18.38 16.25C17.93 16.48 17.39 16.6 16.79 16.6C14.78 16.6 13.38 15.17 13.38 13.13C13.38 11.11 14.81 9.65 16.79 9.65C18.71 9.65 20.05 11.11 20.05 13.21C20.05 13.28 20.04 13.35 20.04 13.42ZM3.95001 15.85V8.44C3.95001 8.02 4.29001 7.69 4.70001 7.69H8.20001C10.91 7.69 11.31 9.31 11.31 10.28C11.31 10.63 11.25 11.05 11.02 11.46C11.77 11.92 12.2 12.71 12.2 13.69C12.2 15.43 10.75 16.6 8.60001 16.6H4.70001C4.29001 16.6 3.95001 16.26 3.95001 15.85ZM19.18 8.15C19.18 8.57 18.84 8.9 18.43 8.9H15.01C14.59 8.9 14.26 8.57 14.26 8.15C14.26 7.74 14.59 7.4 15.01 7.4H18.43C18.84 7.4 19.18 7.74 19.18 8.15Z" fill="black"/>
</svg>
