<svg width="24" height="24" viewBox="0 0 24 24" fill="none" xmlns="http://www.w3.org/2000/svg">
<path d="M3.5 9.98999V13.71L6.34 11.9L3.5 9.98999Z" fill="black"/>
<path d="M11.18 8.82999V4.10999L4.12 8.59999L7.72 11.02L11.18 8.82999Z" fill="black"/>
<path d="M4.12 15.09L11.18 19.84V15.16L7.70001 12.82L4.12 15.09Z" fill="black"/>
<path d="M11.93 10.13L9.07996 11.94L11.94 13.86L14.83 12L11.93 10.13Z" fill="black"/>
<path d="M12.68 15.17V19.87L19.87 15.24L16.22 12.89L12.68 15.17Z" fill="black"/>
<path d="M19.87 8.76L12.68 4.13V8.83L16.22 11.11L19.87 8.76Z" fill="black"/>
<path d="M17.6 12L20.5 13.87V10.13L17.6 12Z" fill="black"/>
</svg>
