<svg width="24" height="24" viewBox="0 0 24 24" fill="none" xmlns="http://www.w3.org/2000/svg">
<path d="M10.45 12.67L6.46001 15.53L2.45001 12.67L6.42001 9.84L10.45 12.67Z" fill="black"/>
<path d="M6.48002 7.64L2.46002 4.85L6.46002 2L10.45 4.85L6.48002 7.64Z" fill="black"/>
<path d="M8.02002 8.76L12.01 5.95L15.99 8.72L12.01 11.57L8.02002 8.76Z" fill="black"/>
<path d="M12.01 13.78L16.66 17.13V18.72L12.01 22L7.36002 18.72V17.09L12.01 13.78Z" fill="black"/>
<path d="M17.52 9.85L21.55 12.67L17.52 15.53L13.55 12.67L17.52 9.85Z" fill="black"/>
<path d="M17.58 7.63L13.57 4.83L17.52 2L21.55 4.85L17.58 7.63Z" fill="black"/>
</svg>
