<svg width="24" height="24" viewBox="0 0 24 24" fill="none" xmlns="http://www.w3.org/2000/svg">
<path d="M12 2C6.3 2 2 6.19 2 11.74C2 14.59 3.13 17.15 5.13 18.89C5.16 18.97 5.16999 19.29 5.17999 19.66C5.17999 19.9 5.19001 20.2 5.21001 20.54C5.21001 21.36 5.87 22 6.7 22C6.8 22 7.01 22 7.31 21.9L8.28 21.46C8.73 21.26 9.08999 21.1 9.12 21.08C12.32 21.96 15.75 21.32 18.3 19.38C20.69 17.56 22 14.84 22 11.74C22 6.19 17.7 2 12 2ZM17.98 9.49L15.05 14.11C14.81 14.55 14.33 14.83 13.81 14.83C13.45 14.83 13.16 14.71 12.88 14.51L10.56 12.78C10.48 12.7 10.36 12.66 10.19 12.66C10.07 12.66 9.95 12.7 9.83 12.78L6.7 15.15C6.26 15.47 5.74 14.95 6.02 14.51L8.95 9.89C9.19 9.45 9.67 9.17 10.19 9.17C10.56 9.17 10.88 9.29 11.12 9.49L13.45 11.22C13.53 11.3 13.65 11.34 13.81 11.34C13.93 11.34 14.05 11.3 14.17 11.22L17.3 8.85C17.74 8.53 18.26 9.05 17.98 9.49Z" fill="black"/>
</svg>
