<svg width="24" height="24" viewBox="0 0 24 24" fill="none" xmlns="http://www.w3.org/2000/svg">
<path d="M16.15 10.69C15.43 10.69 14.84 11.28 14.84 12C14.84 12.72 15.43 13.31 16.15 13.31C16.87 13.31 17.45 12.72 17.45 12C17.45 11.28 16.87 10.69 16.15 10.69Z" fill="black"/>
<path d="M9.23001 12C9.23001 11.28 8.64001 10.69 7.92001 10.69C7.21001 10.69 6.62 11.28 6.62 12C6.62 12.72 7.21001 13.31 7.92001 13.31C8.64001 13.31 9.23001 12.72 9.23001 12Z" fill="black"/>
<path d="M17.14 2H6.85999C4.17999 2 2 4.18 2 6.86V17.14C2 19.82 4.17999 22 6.85999 22H17.14C19.82 22 22 19.82 22 17.14V6.86C22 4.18 19.82 2 17.14 2ZM16.15 14.81C14.6 14.81 13.34 13.55 13.34 12C13.34 10.45 14.6 9.19 16.15 9.19C17.69 9.19 18.95 10.45 18.95 12C18.95 13.55 17.69 14.81 16.15 14.81ZM5.12 12C5.12 10.45 6.38001 9.19 7.92001 9.19C9.47001 9.19 10.73 10.45 10.73 12C10.73 13.55 9.47001 14.81 7.92001 14.81C6.38001 14.81 5.12 13.55 5.12 12Z" fill="black"/>
</svg>
