<svg width="24" height="24" viewBox="0 0 24 24" fill="none" xmlns="http://www.w3.org/2000/svg">
<path d="M22 13.6L18.49 3.52C18.4203 3.33332 18.2965 3.17171 18.1343 3.0559C17.9722 2.94009 17.7792 2.87535 17.58 2.87C17.3796 2.87613 17.1857 2.94233 17.0235 3.06002C16.8612 3.17771 16.738 3.34145 16.67 3.53L14.72 9.26H9.27998L7.33998 3.53C7.27192 3.34145 7.14877 3.17771 6.9865 3.06002C6.82423 2.94233 6.63034 2.87613 6.42998 2.87C6.2279 2.87414 6.03181 2.93943 5.86758 3.05725C5.70334 3.17507 5.57866 3.33989 5.50998 3.53L2.05998 13.59C1.99625 13.7894 1.9967 14.0038 2.06129 14.203C2.12588 14.4021 2.25134 14.5759 2.41998 14.7L11.42 20.95C11.5816 21.0629 11.7729 21.1255 11.97 21.13H12C12.1971 21.1255 12.3884 21.0629 12.55 20.95L21.55 14.7C21.7328 14.5889 21.8751 14.4221 21.9561 14.2241C22.0371 14.0261 22.0525 13.8074 22 13.6Z" fill="black"/>
</svg>
