<svg width="24" height="24" viewBox="0 0 24 24" fill="none" xmlns="http://www.w3.org/2000/svg">
<path d="M21.84 10.56C21.78 10.19 21.47 9.92001 21.1 9.92001H12.15C11.74 9.92001 11.4 10.26 11.4 10.67V13.9C11.4 14.31 11.74 14.65 12.15 14.65H16.47C15.98 15.81 14.72 17.2 12.15 17.2C9.34999 17.2 7.06 14.87 7.06 12C7.06 9.47001 8.68 7.88001 10.2 7.24001C12.04 6.46001 14.01 6.78001 15.35 8.07001C15.64 8.35001 16.09 8.35001 16.39 8.07001L18.96 5.60001C19.11 5.46001 19.2 5.26001 19.2 5.06001C19.19 4.85001 19.11 4.65001 18.96 4.51001C17.08 2.77001 14.73 1.85001 12.15 1.85001C6.54999 1.85001 2 6.40001 2 12C2 17.69 6.45999 22.15 12.15 22.15C17.95 22.15 22 18.07 22 12.23C22 11.6 21.93 11.11 21.84 10.56Z" fill="black"/>
</svg>
