<svg width="24" height="24" viewBox="0 0 24 24" fill="none" xmlns="http://www.w3.org/2000/svg">
<path d="M17.14 2H6.85999C4.17999 2 2 4.18 2 6.86V17.14C2 19.82 4.17999 22 6.85999 22H17.14C19.82 22 22 19.82 22 17.14V6.86C22 4.18 19.82 2 17.14 2ZM17.69 15.97C17.69 16.02 17.67 16.07 17.66 16.12C17.65 16.16 17.64 16.21 17.61 16.25C17.59 16.29 17.57 16.33 17.54 16.37C17.5 16.41 17.47 16.44 17.43 16.48C17.42 16.49 17.41 16.51 17.4 16.52C17.37 16.54 17.33 16.55 17.3 16.57C17.27 16.59 17.25 16.6 17.22 16.61C17.13 16.65 17.04 16.67 16.95 16.67H15.01C14.92 16.67 14.83 16.65 14.74 16.61C14.71 16.6 14.69 16.59 14.66 16.57C14.63 16.55 14.59 16.54 14.56 16.52C14.55 16.51 14.54 16.49 14.52 16.48C14.49 16.44 14.46 16.41 14.42 16.37C14.39 16.33 14.37 16.29 14.35 16.25C14.32 16.21 14.31 16.16 14.3 16.12C14.29 16.07 14.27 16.02 14.27 15.97C14.27 15.95 14.26 15.94 14.26 15.92C14.26 15.89 14.27 15.86 14.28 15.83C14.28 15.78 14.29 15.73 14.31 15.68C14.32 15.63 14.34 15.59 14.37 15.55C14.39 15.52 14.39 15.49 14.41 15.47L15.12 14.51C15.1 14.39 15.09 14.26 15.1 14.12V9.8C15.07 9.54 15.14 9.27 15.31 8.99L15.44 8.83H14.6L12.7 13.32L12.69 13.33C12.68 13.36 12.65 13.38 12.64 13.41C12.61 13.46 12.58 13.52 12.53 13.57C12.48 13.62 12.41 13.66 12.34 13.7C12.32 13.71 12.31 13.72 12.29 13.73C12.18 13.77 12.06 13.79 11.94 13.78C11.86 13.77 11.79 13.76 11.71 13.73C11.68 13.72 11.66 13.69 11.63 13.68C11.58 13.65 11.52 13.61 11.47 13.57C11.42 13.52 11.39 13.46 11.36 13.4C11.35 13.38 11.32 13.36 11.31 13.33V13.32L9.39999 8.83H8.57001L8.64001 8.92C8.85001 9.26 8.92999 9.54 8.89999 9.79V14.12C8.90999 14.25 8.9 14.39 8.88 14.51L9.59 15.47C9.61 15.49 9.62 15.52 9.63 15.54C9.66001 15.59 9.68001 15.63 9.70001 15.68L9.73001 15.83C9.73001 15.86 9.73999 15.89 9.73999 15.92C9.73999 15.94 9.73001 15.95 9.73001 15.97C9.73001 16.02 9.72001 16.07 9.70001 16.12C9.69001 16.16 9.68 16.21 9.66 16.25C9.63 16.29 9.60999 16.33 9.57999 16.37C9.54999 16.41 9.51001 16.44 9.48001 16.48C9.46001 16.49 9.45 16.51 9.44 16.52C9.41 16.54 9.37 16.55 9.34 16.57C9.31 16.59 9.29001 16.6 9.26001 16.61C9.17001 16.65 9.07999 16.67 8.98999 16.67H7.04999C6.95999 16.67 6.87001 16.65 6.79001 16.61C6.76001 16.6 6.73001 16.59 6.70001 16.57C6.67001 16.55 6.63001 16.54 6.60001 16.52C6.59001 16.51 6.58001 16.49 6.57001 16.48C6.53001 16.44 6.5 16.41 6.47 16.37C6.44 16.33 6.41001 16.29 6.39001 16.25C6.37001 16.21 6.35 16.16 6.34 16.12C6.33 16.07 6.31 16.02 6.31 15.97C6.31 15.95 6.29999 15.94 6.29999 15.92C6.29999 15.89 6.31001 15.86 6.32001 15.83C6.32001 15.78 6.33001 15.73 6.35001 15.68C6.36001 15.63 6.39 15.59 6.41 15.55C6.43 15.52 6.43001 15.49 6.45001 15.47L7.39999 14.19V9.77L6.59 8.75C6.48 8.62 6.42001 8.45 6.42001 8.28V8.08C6.42001 7.67 6.76001 7.33 7.17001 7.33H9.89999C10.2 7.33 10.47 7.51 10.59 7.79L12 11.12L13.41 7.79C13.53 7.51 13.8 7.33 14.1 7.33H16.83C17.24 7.33 17.58 7.67 17.58 8.08V8.28C17.58 8.45 17.52 8.62 17.41 8.75L16.6 9.77V14.19L17.55 15.47C17.57 15.49 17.57 15.52 17.59 15.54C17.61 15.59 17.64 15.63 17.65 15.68C17.67 15.73 17.68 15.78 17.68 15.83C17.69 15.86 17.7 15.89 17.7 15.92C17.7 15.94 17.69 15.95 17.69 15.97Z" fill="black"/>
</svg>
