<svg width="24" height="24" viewBox="0 0 24 24" fill="none" xmlns="http://www.w3.org/2000/svg">
<path d="M20.19 5.05002L17.34 2.82002C16.59 2.23002 15.65 1.94002 14.68 2.01002L5.92996 2.63002C3.90996 2.77002 2.32996 4.47002 2.32996 6.49002V15.74C2.32996 16.62 2.62997 17.49 3.18997 18.18L5.12997 20.57C5.86997 21.48 6.96997 22 8.12997 22C8.25997 22 8.39997 21.99 8.52997 21.98L18.19 21C20.18 20.8 21.67 19.14 21.67 17.15V8.10002C21.67 6.90002 21.13 5.79002 20.19 5.05002ZM17.46 11.09L17.33 11.1V16.6C17.33 16.6 17.32 16.61 17.32 16.62C17.32 16.67 17.3 16.72 17.29 16.78C17.28 16.82 17.28 16.86 17.26 16.9C17.24 16.94 17.21 16.97 17.19 17C17.16 17.05 17.13 17.1 17.09 17.14C17.08 17.15 17.08 17.15 17.08 17.16C17.04 17.19 17 17.21 16.95 17.23C16.92 17.25 16.89 17.28 16.85 17.29C16.76 17.33 16.67 17.35 16.58 17.35C16.47 17.35 16.37 17.32 16.28 17.28C16.26 17.28 16.25 17.26 16.23 17.25C16.16 17.21 16.09 17.17 16.03 17.11C16.03 17.1 16.02 17.1 16.02 17.1L12.28 12.89V16.28C12.67 16.24 13.04 16.54 13.08 16.95C13.12 17.36 12.82 17.72 12.41 17.77L10.8 17.93H10.72C10.34 17.93 10.01 17.64 9.97998 17.25C9.93998 16.84 10.24 16.48 10.65 16.43L10.78 16.42V11.75L10.3 11.8H10.23C9.84998 11.8 9.51998 11.51 9.47998 11.13C9.43998 10.71 9.73997 10.35 10.16 10.31L11.46 10.18C11.47 10.17 11.48 10.18 11.49 10.18C11.51 10.18 11.52 10.17 11.53 10.17C11.54 10.17 11.54 10.18 11.55 10.18C11.59 10.18 11.62 10.19 11.66 10.2C11.7 10.2 11.75 10.21 11.79 10.22C11.8 10.23 11.82 10.23 11.84 10.24C11.86 10.25 11.89 10.28 11.92 10.29C11.96 10.32 12 10.34 12.03 10.37C12.04 10.39 12.06 10.4 12.07 10.41C12.08 10.42 12.08 10.42 12.09 10.42L15.83 14.62V11.25H15.77C15.39 11.25 15.06 10.96 15.03 10.57C14.98 10.16 15.29 9.79002 15.7 9.75002L17.31 9.59001C17.71 9.55001 18.09 9.85001 18.13 10.27C18.17 10.68 17.87 11.04 17.46 11.09ZM6.06998 8.63002L6.02997 19.3L4.35995 17.23C4.01995 16.81 3.82996 16.28 3.82996 15.74V6.49002C3.82996 6.20002 3.88998 5.92002 3.97998 5.66002L6.17996 8.04002C6.10996 8.22002 6.06998 8.42002 6.06998 8.63002ZM4.94998 4.49002C5.26998 4.29002 5.62997 4.15002 6.02997 4.12002L14.79 3.51002C14.85 3.50002 14.9 3.50002 14.96 3.50002C15.49 3.50002 16 3.68002 16.42 4.00002L18.92 5.96002L7.71997 6.85002C7.54997 6.86002 7.38998 6.91002 7.22998 6.97002L4.94998 4.49002Z" fill="black"/>
</svg>
