<svg width="24" height="24" viewBox="0 0 24 24" fill="none" xmlns="http://www.w3.org/2000/svg">
<path d="M12 18.57L14.36 10.88H9.64001L12 18.57Z" fill="black"/>
<path d="M21.45 8.3L18.53 4.3C18.2932 3.97978 17.9938 3.71101 17.65 3.51L17.56 3.45H17.44C17.0575 3.27192 16.6418 3.17651 16.22 3.17H7.79C7.3676 3.17177 6.95089 3.26741 6.57 3.45L6.41 3.52H6.35C6.01152 3.72068 5.71862 3.98974 5.48999 4.31L2.55999 8.31C2.1745 8.8367 1.97727 9.4777 2 10.13C2.02988 10.781 2.28837 11.4007 2.73 11.88L9.85999 19.88C10.1328 20.1852 10.4651 20.4314 10.8366 20.6034C11.208 20.7754 11.6108 20.8695 12.02 20.88H12.43H12.55C13.158 20.7669 13.7107 20.4536 14.12 19.99L21.25 11.99C21.7128 11.4946 21.9794 10.8476 22 10.17C22.0439 9.5012 21.849 8.83854 21.45 8.3ZM15.93 10.88L13.71 18.12L13.01 18.9C12.8077 19.1277 12.5314 19.2765 12.23 19.32H12.12C12.0041 19.3394 11.8859 19.3394 11.77 19.32C11.4639 19.2752 11.1838 19.1228 10.98 18.89L10.29 18.11L8.06999 10.88H3.82C3.62479 10.6579 3.51182 10.3755 3.5 10.08C3.47887 9.83691 3.53112 9.59308 3.65 9.38H7.65L6.44 5.57L6.7 5.21C6.81517 5.04928 6.96138 4.91327 7.13 4.81C7.31735 4.71725 7.52134 4.66285 7.73 4.65L9.18 9.38H14.82L16.27 4.65C16.4765 4.66026 16.6781 4.71682 16.8599 4.81548C17.0416 4.91414 17.1989 5.05239 17.32 5.22L17.57 5.55L16.39 9.38H20.39C20.5089 9.59308 20.5611 9.83691 20.54 10.08C20.5193 10.3675 20.4072 10.6408 20.22 10.86L15.93 10.88Z" fill="black"/>
</svg>
