<svg width="24" height="24" viewBox="0 0 24 24" fill="none" xmlns="http://www.w3.org/2000/svg">
<path d="M21.24 12C21.24 6.92 17.1 2.78 12.02 2.78C11.5 2.78 10.95 2.84 10.38 2.94C9.50002 2.33 8.45002 2 7.39002 2C4.43002 2 2.02002 4.41 2.02002 7.38C2.02002 8.5 2.33002 9.52999 2.92002 10.4C2.82002 10.97 2.76002 11.51 2.76002 12C2.76002 17.1 6.90002 21.26 11.98 21.26C12.5 21.26 13.05 21.2 13.62 21.1C14.48 21.68 15.52 22 16.6 22C19.57 22 21.98 19.59 21.98 16.65C22.02 15.6 21.7 14.54 21.08 13.64C21.18 13.07 21.24 12.52 21.24 12ZM12.11 16.76C10.05 16.76 8.51002 15.78 8.51002 14.48C8.51002 14.06 8.84002 13.73 9.26002 13.73C9.67002 13.73 10.01 14.06 10.01 14.48C10.01 14.71 10.8 15.26 12.11 15.26C12.76 15.26 14 14.99 14 13.96C14 13.84 13.97 13.67 13.86 13.52C13.54 13.11 12.7 12.93 11.88 12.77C10.45 12.48 8.51002 12.08 8.51002 9.92C8.51002 8.07 10.17 7.24001 11.82 7.24001C13.5 7.24001 15.19 7.95 15.19 9.31C15.19 9.73 14.85 10.06 14.44 10.06C14.03 10.06 13.69 9.73001 13.69 9.32001C13.63 9.15001 12.91 8.74001 11.82 8.74001C11.64 8.74001 10.01 8.78 10.01 9.92C10.01 10.73 10.52 10.96 12.17 11.3C13.27 11.52 14.4 11.75 15.05 12.61C15.34 12.99 15.5 13.46 15.5 13.96C15.5 15.8 13.79 16.76 12.11 16.76Z" fill="black"/>
</svg>
