<svg width="24" height="24" viewBox="0 0 24 24" fill="none" xmlns="http://www.w3.org/2000/svg">
<path d="M12 2C6.48 2 2 6.48 2 12C2 17.52 6.48 22 12 22C17.52 22 22 17.52 22 12C22 6.48 17.52 2 12 2ZM16.53 8.53L15.04 15.7C14.93 16.22 14.63 16.33 14.18 16.11C13.48 15.63 12.77 15.16 12.06 14.69C11.89 14.57 11.65 14.58 11.48 14.71L10.49 15.47C10.21 14.72 9.92 13.97 9.63 13.23C9.58 13.09 9.48 12.98 9.34 12.93C8.8 12.74 7.56999 12.3 6.87 12C6.75 11.95 6.54 11.85 6.52 11.7C6.51 11.55 6.66 11.38 6.98 11.26L15.9 7.83C16.31 7.68 16.68 7.94 16.53 8.53Z" fill="black"/>
</svg>
