<svg width="24" height="24" viewBox="0 0 24 24" fill="none" xmlns="http://www.w3.org/2000/svg">
<path d="M12.66 15.13L10.66 16.63C10.53 16.73 10.37 16.78 10.21 16.78C10.1 16.78 9.98 16.75 9.88 16.7C9.62 16.57 9.45999 16.31 9.45999 16.03V15.13H7.20001C6.79001 15.13 6.45001 14.79 6.45001 14.38V4.34V2.39C6.25001 2.5 6.07 2.62999 5.91 2.78999L3.63 4.97C3.08 5.5 2.76001 6.24999 2.76001 7.00999V16.1C2.76001 17.67 4.03001 18.94 5.60001 18.94H7.01001V21.04C7.01001 21.42 7.24 21.77 7.59 21.92C7.72 21.97 7.85 22 7.97 22C8.21 22 8.45001 21.91 8.63 21.74L11.58 18.94H14.11C14.3 18.94 14.49 18.87 14.63 18.73L18.43 15.13H16.24H12.66Z" fill="black"/>
<path d="M18.4 2H7.95001V3.5V13.63H10.21C10.63 13.63 10.96 13.97 10.96 14.38V14.53L11.96 13.78C12.09 13.68 12.25 13.63 12.41 13.63H17.82H20.01L20.36 13.3C20.92 12.77 21.24 12.02 21.24 11.24V4.84C21.24 3.27 19.97 2 18.4 2ZM13.98 9.96001C13.98 10.38 13.64 10.71 13.23 10.71C12.81 10.71 12.48 10.38 12.48 9.96001V5.85001C12.48 5.44001 12.81 5.10001 13.23 5.10001C13.64 5.10001 13.98 5.44001 13.98 5.85001V9.96001ZM17.34 10.71C16.92 10.71 16.59 10.38 16.59 9.96001V5.85001C16.59 5.44001 16.92 5.10001 17.34 5.10001C17.75 5.10001 18.09 5.44001 18.09 5.85001V9.96001C18.09 10.38 17.75 10.71 17.34 10.71Z" fill="black"/>
</svg>
