<svg width="24" height="24" viewBox="0 0 24 24" fill="none" xmlns="http://www.w3.org/2000/svg">
<path d="M17.14 2H6.85999C4.17999 2 2 4.18 2 6.86V17.14C2 19.82 4.17999 22 6.85999 22H17.14C19.82 22 22 19.82 22 17.14V6.86C22 4.18 19.82 2 17.14 2ZM15.67 9.3L13.37 14.97C13.25 15.26 12.98 15.44 12.67 15.44H11.09C10.75 15.44 10.46 15.21 10.37 14.88L9.14001 10.26C8.77001 10.08 8.40001 9.94001 8.04001 9.85001C7.64001 9.74001 7.41001 9.32999 7.51001 8.92999C7.62001 8.52999 8.02999 8.28999 8.42999 8.39999C8.98999 8.54999 9.56 8.78 10.13 9.09C10.31 9.18 10.45 9.35 10.5 9.55L11.67 13.94H12.17L14.28 8.73C14.44 8.35 14.88 8.17001 15.26 8.32001C15.64 8.48001 15.83 8.91 15.67 9.3Z" fill="black"/>
</svg>
