<svg width="24" height="24" viewBox="0 0 24 24" fill="none" xmlns="http://www.w3.org/2000/svg">
<path d="M14.21 10.4C14.41 10.1 14.49 9.82001 14.49 9.48001C14.49 9.12001 14.45 8.93001 14.36 8.78001C14.21 8.51001 14.05 8.35002 13.81 8.22002C13.66 8.15002 13.29 7.97002 13.06 7.94002C12.73 7.89002 12.22 7.89001 11.58 7.89001H8.87V10.75H13.9C14.02 10.66 14.14 10.55 14.21 10.4Z" fill="black"/>
<path d="M14.77 12.73C14.6 12.52 14.35 12.38 13.98 12.25H8.87V16.11H12C12.57 16.11 13.09 16.06 13.46 15.97C13.77 15.85 14.13 15.67 14.44 15.45C14.62 15.3 14.77 15.12 14.94 14.83C15.06 14.53 15.13 14.17 15.13 13.84C15.13 13.35 15.02 12.97 14.83 12.78C14.81 12.77 14.79 12.75 14.77 12.73Z" fill="black"/>
<path d="M17.14 2H6.85999C4.17999 2 2 4.18 2 6.86V17.14C2 19.82 4.17999 22 6.85999 22H17.14C19.82 22 22 19.82 22 17.14V6.86C22 4.18 19.82 2 17.14 2ZM16.31 15.45C16.3 15.48 16.28 15.51 16.27 15.54C15.99 16.01 15.71 16.34 15.35 16.64C14.89 16.97 14.41 17.22 13.9 17.4C13.33 17.55 12.7 17.61 12 17.61H8.12C7.71 17.61 7.37 17.28 7.37 16.86V7.14C7.37 6.72 7.71 6.39 8.12 6.39H11.58C12.29 6.39 12.85 6.39001 13.29 6.46001C13.7 6.51001 14.11 6.70001 14.5 6.88C15.03 7.18001 15.4 7.55 15.64 8.02C15.94 8.46 15.99 9.01 15.99 9.48C15.99 10.13 15.83 10.68 15.5 11.17C15.47 11.22 15.45 11.26 15.42 11.3C15.59 11.42 15.75 11.56 15.89 11.73C16.37 12.21 16.63 12.94 16.63 13.84C16.63 14.38 16.51 14.97 16.31 15.45Z" fill="black"/>
</svg>
