<svg width="24" height="24" viewBox="0 0 24 24" fill="none" xmlns="http://www.w3.org/2000/svg">
<path d="M12 2.75V21.25" stroke="black" stroke-width="1.5" stroke-linecap="round" stroke-linejoin="round"/>
<path d="M15.1 10.53H8.91C8.36 10.53 7.91 10.08 7.91 9.53003V5.78998C7.91 5.23998 8.36 4.78998 8.91 4.78998H15.1C15.65 4.78998 16.1 5.23998 16.1 5.78998V9.53003C16.1 10.09 15.65 10.53 15.1 10.53Z" stroke="black" stroke-width="1.5" stroke-linecap="round" stroke-linejoin="round"/>
<path d="M18.17 19.14H5.83C5.28 19.14 4.83 18.69 4.83 18.14V14.4C4.83 13.85 5.28 13.4 5.83 13.4H18.17C18.72 13.4 19.17 13.85 19.17 14.4V18.14C19.17 18.69 18.72 19.14 18.17 19.14Z" stroke="black" stroke-width="1.5" stroke-linecap="round" stroke-linejoin="round"/>
</svg>
