<svg width="24" height="24" viewBox="0 0 24 24" fill="none" xmlns="http://www.w3.org/2000/svg">
<path d="M21.25 6.75V8.91998H2.75V6.75C2.75 5.09 4.09 3.75 5.75 3.75H18.25C19.91 3.75 21.25 5.09 21.25 6.75Z" stroke="black" stroke-width="1.5" stroke-linecap="round" stroke-linejoin="round"/>
<path d="M21.25 8.91998V17.25C21.25 18.91 19.91 20.25 18.25 20.25H5.75C4.09 20.25 2.75 18.91 2.75 17.25V8.91998H21.25Z" stroke="black" stroke-width="1.5" stroke-linecap="round" stroke-linejoin="round"/>
<path d="M5.83 7.33002C6.38229 7.33002 6.83 6.8823 6.83 6.33002C6.83 5.77773 6.38229 5.33002 5.83 5.33002C5.27772 5.33002 4.83 5.77773 4.83 6.33002C4.83 6.8823 5.27772 7.33002 5.83 7.33002Z" fill="black"/>
</svg>
