<svg width="24" height="24" viewBox="0 0 24 24" fill="none" xmlns="http://www.w3.org/2000/svg">
<path d="M7.89001 14.06H4.81C3.67 14.06 2.75 14.98 2.75 16.12V19.2C2.75 20.34 3.67 21.26 4.81 21.26H7.89001C9.03001 21.26 9.95001 20.34 9.95001 19.2V16.12C9.94001 14.98 9.02001 14.06 7.89001 14.06Z" stroke="black" stroke-width="1.5" stroke-linecap="round" stroke-linejoin="round"/>
<path d="M9.94 14.06L14.06 9.94" stroke="black" stroke-width="1.5" stroke-linecap="round" stroke-linejoin="round"/>
<path d="M15.08 8.91998V12" stroke="black" stroke-width="1.5" stroke-linecap="round" stroke-linejoin="round"/>
<path d="M15.08 8.91998H12" stroke="black" stroke-width="1.5" stroke-linecap="round" stroke-linejoin="round"/>
<path d="M15.73 16.02H12.73C12.32 16.02 11.98 16.36 11.98 16.77C11.98 17.18 12.32 17.52 12.73 17.52H15.73C16.14 17.52 16.48 17.18 16.48 16.77C16.48 16.36 16.14 16.02 15.73 16.02Z" fill="black"/>
<path d="M21.23 13.52C20.82 13.52 20.48 13.86 20.48 14.27V14.77C20.48 15.46 19.92 16.02 19.23 16.02H18.73C18.32 16.02 17.98 16.36 17.98 16.77C17.98 17.18 18.32 17.52 18.73 17.52H19.23C20.75 17.52 21.98 16.29 21.98 14.77V14.27C21.98 13.86 21.64 13.52 21.23 13.52Z" fill="black"/>
<path d="M21.23 7.52002C20.82 7.52002 20.48 7.86002 20.48 8.27002V11.27C20.48 11.68 20.82 12.02 21.23 12.02C21.64 12.02 21.98 11.68 21.98 11.27V8.27002C21.98 7.86002 21.64 7.52002 21.23 7.52002Z" fill="black"/>
<path d="M19.23 2.02002H18.73C18.32 2.02002 17.98 2.36002 17.98 2.77002C17.98 3.18002 18.32 3.52002 18.73 3.52002H19.23C19.92 3.52002 20.48 4.08002 20.48 4.77002V5.27002C20.48 5.68002 20.82 6.02002 21.23 6.02002C21.64 6.02002 21.98 5.68002 21.98 5.27002V4.77002C21.98 3.25002 20.75 2.02002 19.23 2.02002Z" fill="black"/>
<path d="M15.73 2.02002H12.73C12.32 2.02002 11.98 2.36002 11.98 2.77002C11.98 3.18002 12.32 3.52002 12.73 3.52002H15.73C16.14 3.52002 16.48 3.18002 16.48 2.77002C16.48 2.36002 16.14 2.02002 15.73 2.02002Z" fill="black"/>
<path d="M9.73001 2.02002H9.23001C7.71001 2.02002 6.48001 3.25002 6.48001 4.77002V5.27002C6.48001 5.68002 6.82001 6.02002 7.23001 6.02002C7.64001 6.02002 7.98001 5.68002 7.98001 5.27002V4.77002C7.98001 4.08002 8.54001 3.52002 9.23001 3.52002H9.73001C10.14 3.52002 10.48 3.18002 10.48 2.77002C10.48 2.36002 10.14 2.02002 9.73001 2.02002Z" fill="black"/>
<path d="M7.23001 7.52002C6.82001 7.52002 6.48001 7.86002 6.48001 8.27002V11.27C6.48001 11.68 6.82001 12.02 7.23001 12.02C7.64001 12.02 7.98001 11.68 7.98001 11.27V8.27002C7.98001 7.86002 7.64001 7.52002 7.23001 7.52002Z" fill="black"/>
</svg>
