<svg width="24" height="24" viewBox="0 0 24 24" fill="none" xmlns="http://www.w3.org/2000/svg">
<path d="M20.2 9.00999C21.6 10.7 21.6 13.3 20.2 14.99C18.2 17.4 15.27 18.94 12 18.94C8.73001 18.94 5.81 17.41 3.8 14.99C2.4 13.3 2.4 10.7 3.8 9.00999C5.8 6.59999 8.73001 5.06 12 5.06C15.27 5.06 18.19 6.58999 20.2 9.00999Z" stroke="black" stroke-width="1.5" stroke-linecap="round" stroke-linejoin="round"/>
<path d="M20.2 9.00999C21.6 10.7 21.6 13.3 20.2 14.99C18.2 17.4 15.27 18.94 12 18.94C8.73001 18.94 5.81 17.41 3.8 14.99C2.4 13.3 2.4 10.7 3.8 9.00999C5.8 6.59999 8.73001 5.06 12 5.06C15.27 5.06 18.19 6.58999 20.2 9.00999Z" stroke="black" stroke-width="1.5" stroke-linecap="round" stroke-linejoin="round"/>
<path d="M12 15.08C13.701 15.08 15.08 13.701 15.08 12C15.08 10.299 13.701 8.91999 12 8.91999C10.299 8.91999 8.92001 10.299 8.92001 12C8.92001 13.701 10.299 15.08 12 15.08Z" stroke="black" stroke-width="1.5" stroke-linecap="round" stroke-linejoin="round"/>
</svg>
