<svg width="24" height="24" viewBox="0 0 24 24" fill="none" xmlns="http://www.w3.org/2000/svg">
<path d="M18.32 7.85C18.69 8.7 18.9 9.63 18.9 10.62V13.37C18.9 17.17 15.82 20.24 12.03 20.24C11.26 20.24 10.51 20.11 9.82001 19.88" stroke="black" stroke-width="1.5" stroke-linecap="round" stroke-linejoin="round"/>
<path d="M16.74 5.62C15.51 4.46 13.85 3.75 12.02 3.75C8.21998 3.75 5.14 6.83 5.14 10.62C5.14 11.99 4.96998 13.38 5.26998 14.73C5.54998 16 6.18 17.2 7.07 18.15" stroke="black" stroke-width="1.5" stroke-linecap="round" stroke-linejoin="round"/>
<path d="M13.13 16.3C12.79 16.43 12.42 16.5 12.03 16.5C10.31 16.5 8.91 15.1 8.91 13.38V10.95" stroke="black" stroke-width="1.5" stroke-linecap="round" stroke-linejoin="round"/>
<path d="M10.66 7.81C11.07 7.61 11.53 7.5 12.02 7.5C13.74 7.5 15.14 8.9 15.14 10.62V13.37C15.14 13.54 15.13 13.72 15.1 13.88" stroke="black" stroke-width="1.5" stroke-linecap="round" stroke-linejoin="round"/>
<path d="M12.02 11.07V12.61" stroke="black" stroke-width="1.5" stroke-linecap="round" stroke-linejoin="round"/>
</svg>
