<svg width="24" height="24" viewBox="0 0 24 24" fill="none" xmlns="http://www.w3.org/2000/svg">
<path d="M20.35 6C20.6363 6.2861 20.8632 6.626 21.0177 7.00013C21.1722 7.37426 21.2511 7.77524 21.25 8.18V18.18C21.25 18.9978 20.9258 19.7822 20.3485 20.3614C19.7712 20.9406 18.9878 21.2674 18.17 21.27H5.83C5.0113 21.2647 4.22793 20.9358 3.65089 20.355C3.07384 19.7742 2.74998 18.9887 2.75 18.17V5.85C2.75 5.03313 3.0745 4.24972 3.65211 3.67211C4.22972 3.0945 5.01313 2.77 5.83 2.77H15.83C16.2348 2.7689 16.6357 2.84785 17.0099 3.00231C17.384 3.15676 17.7239 3.38368 18.01 3.67L20.35 6Z" stroke="black" stroke-width="1.5" stroke-linecap="round" stroke-linejoin="round"/>
<path d="M7.89 14.05H16.11C16.6537 14.05 17.1751 14.266 17.5596 14.6504C17.944 15.0349 18.16 15.5563 18.16 16.1V21.24H5.83V16.11C5.82867 15.8391 5.88105 15.5706 5.98411 15.3201C6.08716 15.0696 6.23885 14.842 6.4304 14.6504C6.62196 14.4589 6.84957 14.3072 7.1001 14.2041C7.35063 14.1011 7.6191 14.0487 7.89 14.05V14.05Z" stroke="black" stroke-width="1.5" stroke-linecap="round" stroke-linejoin="round"/>
<path d="M5.83 2.76001V7.18001C5.83 7.64149 6.01332 8.08406 6.33964 8.41038C6.66595 8.73669 7.10853 8.92001 7.57 8.92001H14.37C14.8315 8.92001 15.2741 8.73669 15.6004 8.41038C15.9267 8.08406 16.11 7.64149 16.11 7.18001V2.86001" stroke="black" stroke-width="1.5" stroke-linecap="round" stroke-linejoin="round"/>
<path d="M13.03 5.32001V6.35001" stroke="black" stroke-width="1.5" stroke-linecap="round" stroke-linejoin="round"/>
</svg>
