<svg width="24" height="24" viewBox="0 0 24 24" fill="none" xmlns="http://www.w3.org/2000/svg">
<path d="M18.18 21.25H5.82001C4.12001 21.25 2.75 19.87 2.75 18.18V5.82001C2.75 4.12001 4.13001 2.75 5.82001 2.75H18.18C19.88 2.75 21.25 4.13001 21.25 5.82001V18.18C21.25 19.87 19.87 21.25 18.18 21.25Z" stroke="black" stroke-width="1.5" stroke-linecap="round" stroke-linejoin="round"/>
<path d="M2.75 17.45L6.28 13.92C6.88 13.32 7.85999 13.32 8.45999 13.92L9.35999 14.82C9.95999 15.42 10.94 15.42 11.54 14.82L15.53 10.83C16.13 10.23 17.11 10.23 17.71 10.83L21.24 14.36" stroke="black" stroke-width="1.5" stroke-linecap="round" stroke-linejoin="round"/>
<path d="M8.14999 5.91C7.30999 5.91 6.63 6.58999 6.63 7.42999C6.63 8.26999 7.30999 8.95001 8.14999 8.95001C8.98999 8.95001 9.67001 8.26999 9.67001 7.42999C9.67001 6.58999 8.97999 5.91 8.14999 5.91Z" fill="black"/>
</svg>
