<svg width="24" height="24" viewBox="0 0 24 24" fill="none" xmlns="http://www.w3.org/2000/svg">
<path d="M14.91 14.91C13.93 15.89 12.57 16.28 11.3 16.05C10.49 15.91 9.72 15.53 9.1 14.91C8.48 14.29 8.1 13.51 7.96 12.71C7.73 11.44 8.12 10.08 9.1 9.10001C10.08 8.12001 11.44 7.73 12.71 7.96C13.52 8.1 14.29 8.48001 14.91 9.10001C15.53 9.72001 15.91 10.5 16.05 11.3C16.27 12.57 15.89 13.93 14.91 14.91Z" stroke="black" stroke-width="1.5" stroke-linecap="round" stroke-linejoin="round"/>
<path d="M16.2 20.24C15.04 18.84 13.87 17.44 12.7 16.05C13.51 15.91 14.28 15.53 14.9 14.91C15.52 14.29 15.9 13.51 16.04 12.71C17.44 13.87 18.84 15.04 20.23 16.21C19.8 17.06 19.23 17.85 18.53 18.55C17.84 19.25 17.05 19.81 16.2 20.24Z" stroke="black" stroke-width="1.5" stroke-linecap="round" stroke-linejoin="round"/>
<path d="M3.75999 7.79999C4.18999 6.94999 4.75999 6.15999 5.45999 5.45999C6.15999 4.75999 6.94999 4.19001 7.79999 3.76001C8.95999 5.16001 10.13 6.56001 11.3 7.95001C10.49 8.09001 9.71999 8.47 9.09999 9.09C8.47999 9.71 8.09999 10.49 7.95999 11.29C6.55999 10.13 5.14999 8.95999 3.75999 7.79999Z" stroke="black" stroke-width="1.5" stroke-linecap="round" stroke-linejoin="round"/>
<path d="M20.24 7.79999C18.84 8.95999 17.44 10.13 16.05 11.3C15.91 10.49 15.53 9.72001 14.91 9.10001C14.29 8.48001 13.51 8.09999 12.71 7.95999C13.87 6.55999 15.04 5.15999 16.21 3.76999C17.06 4.19999 17.85 4.77 18.55 5.47C19.25 6.16 19.81 6.94999 20.24 7.79999Z" stroke="black" stroke-width="1.5" stroke-linecap="round" stroke-linejoin="round"/>
<path d="M7.79999 20.24C6.94999 19.81 6.15999 19.24 5.45999 18.54C4.75999 17.84 4.18999 17.05 3.75999 16.2C5.15999 15.04 6.55999 13.87 7.94999 12.7C8.08999 13.51 8.46999 14.28 9.08999 14.9C9.70999 15.52 10.49 15.9 11.29 16.04C10.13 17.44 8.95999 18.85 7.79999 20.24Z" stroke="black" stroke-width="1.5" stroke-linecap="round" stroke-linejoin="round"/>
<path d="M12 21.25C17.1086 21.25 21.25 17.1086 21.25 12C21.25 6.89137 17.1086 2.75 12 2.75C6.89137 2.75 2.75 6.89137 2.75 12C2.75 17.1086 6.89137 21.25 12 21.25Z" stroke="black" stroke-width="1.5" stroke-linecap="round" stroke-linejoin="round"/>
</svg>
