<svg width="24" height="24" viewBox="0 0 24 24" fill="none" xmlns="http://www.w3.org/2000/svg">
<path d="M12 2.75C8.31 2.75 5.3 5.76 5.3 9.45C5.3 14.03 11.3 20.77 11.55 21.05C11.79 21.32 12.21 21.32 12.45 21.05C12.71 20.77 18.7 14.03 18.7 9.45C18.7 5.76 15.69 2.75 12 2.75Z" stroke="black" stroke-width="1.5" stroke-linecap="round" stroke-linejoin="round"/>
<path d="M12.3849 11.7852C13.6776 11.5795 14.5587 10.3647 14.3529 9.07206C14.1472 7.77937 12.9325 6.89825 11.6398 7.10401C10.3471 7.30978 9.46597 8.5245 9.67173 9.81719C9.87749 11.1099 11.0922 11.991 12.3849 11.7852Z" stroke="black" stroke-width="1.5" stroke-linecap="round" stroke-linejoin="round"/>
</svg>
