<svg width="24" height="24" viewBox="0 0 24 24" fill="none" xmlns="http://www.w3.org/2000/svg">
<path d="M4.00001 10.76C4.15151 10.4779 4.40037 10.2605 4.70024 10.1483C5.00011 10.0361 5.33055 10.0367 5.63001 10.15C5.85216 10.276 6.02998 10.4676 6.13916 10.6985C6.24835 10.9294 6.28357 11.1883 6.24001 11.44C6.17001 11.88 5.85001 12.06 5.08001 12.8C4.58001 13.27 4.19001 13.69 3.95001 13.95H6.28001" stroke="black" stroke-linecap="round" stroke-linejoin="round"/>
<path d="M4.06001 17H6.22001L4.91001 18.29C5.09084 18.2951 5.26882 18.3364 5.43336 18.4116C5.59791 18.4867 5.74567 18.5942 5.86786 18.7276C5.99006 18.861 6.0842 19.0176 6.1447 19.188C6.20519 19.3585 6.2308 19.5394 6.22001 19.72C6.16733 19.984 6.03085 20.2239 5.83085 20.4041C5.63086 20.5843 5.37804 20.6951 5.11001 20.72C4.92458 20.7274 4.73967 20.6956 4.56736 20.6266C4.39505 20.5577 4.23921 20.4532 4.11001 20.32" stroke="black" stroke-linecap="round" stroke-linejoin="round"/>
<path d="M19.49 5.16H9.33002" stroke="black" stroke-width="1.5" stroke-linecap="round" stroke-linejoin="round"/>
<path d="M19.49 18.84H9.33002" stroke="black" stroke-width="1.5" stroke-linecap="round" stroke-linejoin="round"/>
<path d="M19.49 12H9.33002" stroke="black" stroke-width="1.5" stroke-linecap="round" stroke-linejoin="round"/>
<path d="M4.68001 3.79001L5.61001 3.23001V7.08001" stroke="black" stroke-linecap="round" stroke-linejoin="round"/>
</svg>
