<svg width="24" height="24" viewBox="0 0 24 24" fill="none" xmlns="http://www.w3.org/2000/svg">
<path d="M6.86001 13.26C7.55589 13.26 8.12001 12.6959 8.12001 12C8.12001 11.3041 7.55589 10.74 6.86001 10.74C6.16413 10.74 5.60001 11.3041 5.60001 12C5.60001 12.6959 6.16413 13.26 6.86001 13.26Z" fill="black"/>
<path d="M12 13.26C12.6959 13.26 13.26 12.6959 13.26 12C13.26 11.3041 12.6959 10.74 12 10.74C11.3041 10.74 10.74 11.3041 10.74 12C10.74 12.6959 11.3041 13.26 12 13.26Z" fill="black"/>
<path d="M17.14 13.26C17.8359 13.26 18.4 12.6959 18.4 12C18.4 11.3041 17.8359 10.74 17.14 10.74C16.4441 10.74 15.88 11.3041 15.88 12C15.88 12.6959 16.4441 13.26 17.14 13.26Z" fill="black"/>
<path d="M19.19 16.11H4.81C3.67 16.11 2.75 15.19 2.75 14.05V9.94001C2.75 8.80001 3.67 7.88 4.81 7.88H19.2C20.34 7.88 21.26 8.80001 21.26 9.94001V14.05C21.25 15.19 20.33 16.11 19.19 16.11Z" stroke="black" stroke-width="1.5" stroke-linecap="round" stroke-linejoin="round"/>
</svg>
