<svg width="24" height="24" viewBox="0 0 24 24" fill="none" xmlns="http://www.w3.org/2000/svg">
<path d="M21.25 13V20.25C21.25 20.81 20.81 21.25 20.25 21.25H13C12.45 21.25 12 20.81 12 20.25V18.13C11.17 18.13 10.5 17.46 10.5 16.63C10.5 15.8 11.17 15.13 12 15.13V13C12 12.45 12.45 12 13 12H15.12C15.12 12.83 15.79 13.5 16.62 13.5C17.45 13.5 18.12 12.83 18.12 12H20.24C20.81 12 21.25 12.45 21.25 13Z" stroke="black" stroke-width="1.5" stroke-linecap="round" stroke-linejoin="round"/>
<path d="M10.5 16.62C10.5 17.45 11.17 18.12 12 18.12V20.24C12 20.8 11.55 21.24 11 21.24H3.75C3.19 21.24 2.75 20.8 2.75 20.24V13C2.75 12.45 3.19 12 3.75 12H5.87C5.87 11.17 6.54 10.5 7.37 10.5C8.2 10.5 8.87 11.17 8.87 12H11C11.55 12 12 12.45 12 13V15.12C11.17 15.12 10.5 15.79 10.5 16.62Z" stroke="black" stroke-width="1.5" stroke-linecap="round" stroke-linejoin="round"/>
<path d="M13.5 7.38C13.5 8.21 12.83 8.88 12 8.88V11C12 11.55 11.55 12 11 12H8.88C8.88 11.17 8.21 10.5 7.38 10.5C6.55 10.5 5.88 11.17 5.88 12H3.76001C3.20001 12 2.76001 11.55 2.76001 11V3.75C2.76001 3.19 3.20001 2.75 3.76001 2.75H11C11.55 2.75 12 3.19 12 3.75V5.87C12.83 5.87 13.5 6.54 13.5 7.38Z" stroke="black" stroke-width="1.5" stroke-linecap="round" stroke-linejoin="round"/>
</svg>
