<svg width="24" height="24" viewBox="0 0 24 24" fill="none" xmlns="http://www.w3.org/2000/svg">
<path d="M6.99 14.02C8.13875 14.02 9.07 13.1156 9.07 12C9.07 10.8844 8.13875 9.98001 6.99 9.98001C5.84125 9.98001 4.91 10.8844 4.91 12C4.91 13.1156 5.84125 14.02 6.99 14.02Z" stroke="black" stroke-width="1.5" stroke-linecap="round" stroke-linejoin="round"/>
<path d="M17.07 7.00002C18.1856 7.00002 19.09 6.09563 19.09 4.98001C19.09 3.8644 18.1856 2.96002 17.07 2.96002C15.9544 2.96002 15.05 3.8644 15.05 4.98001C15.05 6.09563 15.9544 7.00002 17.07 7.00002Z" stroke="black" stroke-width="1.5" stroke-linecap="round" stroke-linejoin="round"/>
<path d="M17.07 21.04C18.1856 21.04 19.09 20.1356 19.09 19.02C19.09 17.9044 18.1856 17 17.07 17C15.9544 17 15.05 17.9044 15.05 19.02C15.05 20.1356 15.9544 21.04 17.07 21.04Z" stroke="black" stroke-width="1.5" stroke-linecap="round" stroke-linejoin="round"/>
<path d="M9.23001 10.44L14.83 6.54001" stroke="black" stroke-width="1.5" stroke-linecap="round" stroke-linejoin="round"/>
<path d="M14.83 17.46L9.23001 13.56" stroke="black" stroke-width="1.5" stroke-linecap="round" stroke-linejoin="round"/>
</svg>
