<svg width="24" height="24" viewBox="0 0 24 24" fill="none" xmlns="http://www.w3.org/2000/svg">
<path d="M8.90999 18.98L5.01998 15.09C4.29998 14.37 4.31998 13.19 5.05998 12.46L12.45 5.07001C12.86 4.66001 13.42 4.46001 13.98 4.51001L17.53 4.85001C18.39 4.93001 19.07 5.61 19.15 6.47L19.49 10.02C19.54 10.58 19.34 11.14 18.93 11.55L11.54 18.94C10.81 19.67 9.62999 19.69 8.90999 18.98Z" stroke="black" stroke-width="1.5" stroke-linecap="round" stroke-linejoin="round"/>
<path d="M16.47 7.53C16.05 7.11 15.38 7.11 14.96 7.53C14.54 7.95 14.54 8.62001 14.96 9.04001C15.17 9.25001 15.44 9.35 15.71 9.35C15.98 9.35 16.26 9.25001 16.46 9.04001C16.89 8.62001 16.89 7.94 16.47 7.53Z" fill="black"/>
</svg>
