<svg width="24" height="24" viewBox="0 0 24 24" fill="none" xmlns="http://www.w3.org/2000/svg">
<path d="M16.55 15.04C16.13 15.04 15.84 15.04 15.84 15.04C16.42 16.82 17.06 19.69 15.07 20.83C14.53 21.14 12.91 21.63 12.68 20.71C12.36 19.45 12.05 18.19 11.3 17.08C10.68 16.17 9.74001 15.16 8.57001 15.04C8.57001 14.99 8.57001 14.93 8.57001 14.93V5.67999C8.57001 5.67999 8.57001 5.42999 8.57001 5.17999C8.69001 5.13999 8.81 5.09998 8.81 5.09998L10.91 4.40997C11.6 4.17997 12.32 4.06 13.05 4.06H18.18C19.2 4.06 20.03 4.88001 20.03 5.89001C20.03 6.13001 19.98 6.35 19.89 6.56C20.68 6.78 21.25 7.49002 21.25 8.33002C21.25 8.80002 21.08 9.23 20.78 9.56C21.07 9.88 21.25 10.31 21.25 10.77C21.25 11.24 21.08 11.67 20.78 12C21.07 12.32 21.25 12.75 21.25 13.21C21.25 14.22 20.42 15.04 19.41 15.04C19.41 15.04 17.59 15.04 16.55 15.04Z" stroke="black" stroke-width="1.5" stroke-linecap="round" stroke-linejoin="round"/>
<path d="M2.75 16.62H6.24001C7.52001 16.62 8.56 15.58 8.56 14.3V5.06C8.56 3.78 7.52001 2.73999 6.24001 2.73999H2.75V16.62Z" stroke="black" stroke-width="1.5" stroke-linecap="round" stroke-linejoin="round"/>
<path d="M5.66 6.82001C6.09079 6.82001 6.44 6.47076 6.44 6.03998C6.44 5.6092 6.09079 5.26001 5.66 5.26001C5.22922 5.26001 4.88 5.6092 4.88 6.03998C4.88 6.47076 5.22922 6.82001 5.66 6.82001Z" fill="black"/>
</svg>
