<svg width="24" height="24" viewBox="0 0 24 24" fill="none" xmlns="http://www.w3.org/2000/svg">
<path d="M16.58 9.11C16.85 9.73 17 10.41 17 11.12V13.12C17 15.88 14.76 18.12 12 18.12C11.44 18.12 10.9 18.03 10.39 17.86" stroke="black" stroke-width="1.5" stroke-linecap="round" stroke-linejoin="round"/>
<path d="M15.43 7.49C14.53 6.65 13.33 6.13 12 6.13C9.24001 6.13 7.00001 8.37 7.00001 11.13C7.00001 12.13 6.88001 13.14 7.10001 14.12C7.31001 15.04 7.76001 15.92 8.41001 16.61" stroke="black" stroke-width="1.5" stroke-linecap="round" stroke-linejoin="round"/>
<path d="M12.8 15.26C12.55 15.35 12.28 15.41 12 15.41C10.75 15.41 9.73001 14.39 9.73001 13.14V11.37" stroke="black" stroke-width="1.5" stroke-linecap="round" stroke-linejoin="round"/>
<path d="M11.01 9.08C11.31 8.93 11.65 8.85 12 8.85C13.25 8.85 14.27 9.87 14.27 11.12V13.12C14.27 13.25 14.26 13.37 14.24 13.49" stroke="black" stroke-width="1.5" stroke-linecap="round" stroke-linejoin="round"/>
<path d="M12 11.45V12.57" stroke="black" stroke-width="1.5" stroke-linecap="round" stroke-linejoin="round"/>
<path d="M18.25 21.25H5.75C4.09 21.25 2.75 19.91 2.75 18.25V5.75C2.75 4.09 4.09 2.75 5.75 2.75H18.25C19.91 2.75 21.25 4.09 21.25 5.75V18.25C21.25 19.91 19.91 21.25 18.25 21.25Z" stroke="black" stroke-width="1.5" stroke-linecap="round" stroke-linejoin="round"/>
</svg>
