<svg width="24" height="24" viewBox="0 0 24 24" fill="none" xmlns="http://www.w3.org/2000/svg">
<path d="M12 10.7C11.28 10.7 10.69 11.28 10.69 12C10.69 12.72 11.28 13.31 12 13.31C12.72 13.31 13.31 12.72 13.31 12C13.31 11.28 12.72 10.7 12 10.7Z" fill="black"/>
<path d="M12 2C6.49 2 2 6.49 2 12C2 17.52 6.49 22 12 22C17.51 22 22 17.52 22 12C22 6.49 17.51 2 12 2ZM12 14.81C10.45 14.81 9.19 13.55 9.19 12C9.19 10.46 10.45 9.2 12 9.2C13.55 9.2 14.81 10.46 14.81 12C14.81 13.55 13.55 14.81 12 14.81ZM5.48 9.7C6.18 7.72 7.71 6.18 9.69 5.48C10.09 5.34 10.51 5.55 10.65 5.94C10.79 6.33 10.58 6.76 10.19 6.89C8.67 7.44 7.43 8.67 6.89 10.2C6.78 10.51 6.48999 10.7 6.17999 10.7C6.09999 10.7 6.01999 10.69 5.92999 10.66C5.53999 10.52 5.34 10.09 5.48 9.7Z" fill="black"/>
</svg>
