<svg width="24" height="24" viewBox="0 0 24 24" fill="none" xmlns="http://www.w3.org/2000/svg">
<path d="M17.72 12.88C15.63 12.88 13.89 14.36 13.52 16.3H2.75C2.34 16.3 2 16.63 2 17.05C2 17.46 2.34 17.8 2.75 17.8H13.52C13.89 19.74 15.63 21.22 17.72 21.22C20.08 21.22 22 19.35 22 17.05C22 14.75 20.08 12.88 17.72 12.88Z" fill="black"/>
<path d="M21.25 6.21001H10.48C10.11 4.27001 8.37 2.79001 6.28 2.79001C3.92 2.79001 2 4.66001 2 6.96001C2 9.26001 3.92 11.13 6.28 11.13C8.37 11.13 10.11 9.65001 10.48 7.71001H21.25C21.66 7.71001 22 7.37001 22 6.96001C22 6.55001 21.66 6.21001 21.25 6.21001Z" fill="black"/>
</svg>
