<svg width="24" height="24" viewBox="0 0 24 24" fill="none" xmlns="http://www.w3.org/2000/svg">
<path d="M18.25 2H5.75C3.68 2 2 3.69 2 5.75V18.25C2 20.32 3.68 22 5.75 22H18.25C20.32 22 22 20.32 22 18.25V5.75C22 3.69 20.32 2 18.25 2ZM15.72 16.55H15.64C15.26 16.55 14.93 16.27 14.9 15.88C14.85 15.47 15.15 15.1 15.57 15.06C17.14 14.9 18.32 13.58 18.32 12C18.32 10.31 16.95 8.93 15.25 8.93H12.22L12.83 9.53C13.12 9.82 13.12 10.3 12.83 10.59C12.68 10.74 12.49 10.81 12.3 10.81C12.11 10.81 11.91 10.74 11.77 10.59L9.88 8.71C9.81 8.64 9.76 8.55 9.72 8.46C9.64 8.28 9.64 8.07 9.72 7.89C9.76 7.8 9.81 7.72 9.88 7.65L11.77 5.76C12.06 5.47 12.54 5.47 12.83 5.76C13.12 6.05 13.12 6.53 12.83 6.82L12.22 7.43H15.25C17.77 7.43 19.82 9.48 19.82 12C19.82 14.36 18.06 16.31 15.72 16.55ZM4.17999 12C4.17999 9.67 5.91999 7.71 8.23999 7.45C8.64999 7.41 9.02001 7.7 9.07001 8.12C9.11001 8.53 8.81999 8.9 8.39999 8.94C6.84999 9.12 5.67999 10.43 5.67999 12C5.67999 13.69 7.05 15.07 8.75 15.07H11.76L11.15 14.47C10.86 14.18 10.86 13.7 11.15 13.41C11.45 13.11 11.92 13.11 12.21 13.41L14.1 15.29C14.17 15.36 14.22 15.45 14.26 15.54C14.34 15.72 14.34 15.93 14.26 16.11C14.22 16.2 14.17 16.28 14.1 16.35L12.21 18.24C12.07 18.39 11.88 18.46 11.68 18.46C11.49 18.46 11.3 18.39 11.15 18.24C10.86 17.95 10.86 17.47 11.15 17.18L11.76 16.57H8.75C6.23 16.57 4.17999 14.52 4.17999 12Z" fill="black"/>
</svg>
