<svg width="24" height="24" viewBox="0 0 24 24" fill="none" xmlns="http://www.w3.org/2000/svg">
<path d="M14.63 10.37V5.66999C14.63 4.94999 14.25 4.30999 13.66 4.02999C13.14 3.78999 12.57 3.84999 12.11 4.19999L5.98001 7.95999H4.85999C3.27999 7.95999 2 9.23999 2 10.81V13.3C2 14.06 2.3 14.78 2.84 15.32C3.38 15.86 4.09999 16.15 4.85999 16.15H4.87L5.97 16.14L12.12 19.82C12.39 20.02 12.7 20.13 13.02 20.13C13.23 20.13 13.45 20.08 13.66 19.98C14.25 19.7 14.63 19.05 14.63 18.34V13.64C15.25 13.35 15.68 12.73 15.68 12C15.68 11.28 15.25 10.66 14.63 10.37Z" fill="black"/>
<path d="M17.7 9.23999C17.4 8.94999 16.93 8.94999 16.63 9.23999C16.34 9.52999 16.34 10.01 16.63 10.3C17.09 10.76 17.34 11.36 17.34 12C17.34 12.65 17.09 13.25 16.63 13.71C16.34 14 16.34 14.47 16.63 14.77C16.78 14.91 16.97 14.99 17.17 14.99C17.36 14.99 17.55 14.91 17.7 14.77C18.43 14.03 18.84 13.05 18.84 12C18.84 10.96 18.43 9.97999 17.7 9.23999Z" fill="black"/>
<path d="M18.86 7.00998C18.57 7.30998 18.57 7.77998 18.87 8.06998C19.92 9.10998 20.5 10.51 20.5 12C20.5 13.5 19.92 14.89 18.87 15.93C18.57 16.23 18.57 16.7 18.86 17C19.01 17.14 19.2 17.22 19.4 17.22C19.59 17.22 19.78 17.15 19.92 17C21.26 15.68 22 13.9 22 12C22 10.11 21.26 8.32998 19.92 7.00998C19.63 6.71998 19.16 6.71998 18.86 7.00998Z" fill="black"/>
</svg>
