<svg width="24" height="24" viewBox="0 0 24 24" fill="none" xmlns="http://www.w3.org/2000/svg">
<path d="M20.98 5.17C20.36 4.95 19.67 5.17 19.26 5.71C18 7.39 16.47 8.29 15.15 8.96C14.7 9.17 14.24 9.35 13.78 9.5V8.92C13.78 8.51 13.44 8.17 13.03 8.17C12.61 8.17 12.28 8.51 12.28 8.92V9.87C11.74 9.97 11.21 10.03 10.68 10.04C10.68 10.01 10.69 9.98 10.69 9.95V8.92C10.69 8.51 10.36 8.17 9.94 8.17C9.53 8.17 9.19 8.51 9.19 8.92V9.95C9.19 9.99 9.20999 10.02 9.20999 10.05H7.59C7.6 10.02 7.60999 9.99 7.60999 9.95V8.92C7.60999 8.51 7.27999 8.17 6.85999 8.17C6.44999 8.17 6.10999 8.51 6.10999 8.92V9.95C6.10999 9.99 6.13 10.02 6.13 10.05H4.53V9.96C4.53 9.54 4.20001 9.21 3.79001 9.21L2.75 9.2C2.55 9.2 2.36 9.28 2.22 9.42C2.08 9.56 2 9.75 2 9.95V14.06C2 14.48 2.33 14.81 2.75 14.81L3.78 14.82C3.98 14.82 4.17 14.74 4.31 14.6C4.45 14.46 4.53 14.27 4.53 14.07V13.96H6.13C6.13 14 6.10999 14.03 6.10999 14.06V14.58C6.10999 16.41 7.59999 17.89 9.42999 17.89C11.26 17.89 12.75 16.41 12.75 14.58V14.12C15.15 14.53 17.33 15.83 18.91 17.82C18.99 17.93 19.07 18.03 19.14 18.13L19.22 18.24C19.5 18.67 19.96 18.92 20.48 18.92C20.63 18.92 20.79 18.9 20.96 18.84C21.58 18.64 22 18.04 22 17.37V6.67C22.02 6 21.6 5.39 20.98 5.17ZM11.25 14.06V14.58C11.25 15.58 10.43 16.39 9.42999 16.39C8.42999 16.39 7.60999 15.58 7.60999 14.58V14.06C7.60999 14.03 7.6 14 7.59 13.96H10.97C11.07 13.96 11.17 13.97 11.27 13.98C11.26 14.01 11.25 14.03 11.25 14.06Z" fill="black"/>
</svg>
