<svg width="24" height="24" viewBox="0 0 24 24" fill="none" xmlns="http://www.w3.org/2000/svg">
<path d="M12.14 19.45C12.42 19.65 12.75 19.75 13.08 19.75C13.34 19.75 13.59 19.69 13.82 19.57C14.4 19.28 14.75 18.68 14.75 18.02V13.58C15.34 13.3 15.75 12.7 15.75 12C15.75 11.31 15.34 10.71 14.75 10.43V5.98997C14.75 5.31997 14.4 4.72998 13.82 4.43998C13.28 4.15998 12.64 4.19997 12.14 4.55997L5.51 9.28998H3C2.59 9.28998 2.25 9.62998 2.25 10.04V13.97C2.25 14.38 2.59 14.72 3 14.72H5.51L12.14 19.45ZM5 13.22H3.75V10.79H5V13.22Z" fill="black"/>
<path d="M17.65 9.35001C17.36 9.06001 16.88 9.06001 16.59 9.35001C16.3 9.65001 16.3 10.12 16.59 10.41C17.02 10.84 17.25 11.4 17.25 12C17.25 12.6 17.02 13.17 16.59 13.59C16.3 13.89 16.3 14.36 16.59 14.65C16.74 14.8 16.93 14.87 17.12 14.87C17.31 14.87 17.5 14.8 17.65 14.65C18.36 13.95 18.75 13 18.75 12C18.75 11 18.36 10.06 17.65 9.35001Z" fill="black"/>
<path d="M18.71 7.24C18.42 7.53 18.42 8.01 18.71 8.3C19.7 9.28 20.25 10.6 20.25 12C20.25 13.41 19.7 14.73 18.71 15.71C18.42 16 18.42 16.48 18.71 16.77C18.85 16.92 19.05 16.99 19.24 16.99C19.43 16.99 19.62 16.92 19.77 16.78C21.05 15.51 21.75 13.81 21.75 12C21.75 10.19 21.05 8.5 19.77 7.23C19.47 6.94 19 6.94 18.71 7.24Z" fill="black"/>
</svg>
