<svg width="24" height="24" viewBox="0 0 24 24" fill="none" xmlns="http://www.w3.org/2000/svg">
<path d="M16.25 10.43V5.99001C16.25 5.32001 15.89 4.73001 15.32 4.43001C14.78 4.16001 14.14 4.20001 13.64 4.56001L7.01001 9.29001H4.5C4.09 9.29001 3.75 9.63001 3.75 10.04V13.97C3.75 14.38 4.09 14.72 4.5 14.72H7.01001L13.64 19.45C13.92 19.65 14.25 19.75 14.58 19.75C14.84 19.75 15.09 19.69 15.32 19.57C15.89 19.28 16.25 18.68 16.25 18.02V13.58C16.84 13.3 17.25 12.7 17.25 12C17.25 11.31 16.84 10.71 16.25 10.43ZM6.5 13.22H5.25V10.79H6.5V13.22Z" fill="black"/>
<path d="M19.15 9.35001C18.86 9.06001 18.38 9.06001 18.09 9.35001C17.8 9.65001 17.8 10.12 18.09 10.41C18.52 10.84 18.75 11.4 18.75 12C18.75 12.6 18.52 13.17 18.09 13.59C17.8 13.89 17.8 14.36 18.09 14.65C18.24 14.8 18.43 14.87 18.62 14.87C18.81 14.87 19 14.8 19.15 14.65C19.86 13.95 20.25 13 20.25 12C20.25 11 19.86 10.06 19.15 9.35001Z" fill="black"/>
</svg>
