<svg width="24" height="24" viewBox="0 0 24 24" fill="none" xmlns="http://www.w3.org/2000/svg">
<path d="M17.31 9.92C17.1111 9.92 16.9203 9.99902 16.7797 10.1397C16.639 10.2803 16.56 10.4711 16.56 10.67V13.33C16.56 13.5289 16.639 13.7197 16.7797 13.8603C16.9203 14.001 17.1111 14.08 17.31 14.08C17.5089 14.08 17.6997 14.001 17.8403 13.8603C17.981 13.7197 18.06 13.5289 18.06 13.33V10.67C18.06 10.4711 17.981 10.2803 17.8403 10.1397C17.6997 9.99902 17.5089 9.92 17.31 9.92Z" fill="black"/>
<path d="M19.93 8.58C19.7319 8.58259 19.5426 8.66244 19.4025 8.80254C19.2624 8.94263 19.1826 9.13189 19.18 9.33V14.67C19.18 14.8689 19.259 15.0597 19.3997 15.2003C19.5403 15.341 19.7311 15.42 19.93 15.42C20.1289 15.42 20.3197 15.341 20.4603 15.2003C20.601 15.0597 20.68 14.8689 20.68 14.67V9.33C20.6774 9.13189 20.5976 8.94263 20.4575 8.80254C20.3174 8.66244 20.1281 8.58259 19.93 8.58Z" fill="black"/>
<path d="M15 4C14.7538 3.87861 14.478 3.83012 14.2052 3.86023C13.9324 3.89035 13.6738 3.99783 13.46 4.17L7.29001 8H6.17001C5.41495 8.00264 4.69157 8.30375 4.15766 8.83766C3.62376 9.37157 3.32264 10.0949 3.32001 10.85V13.3C3.32543 14.0513 3.62732 14.7701 4.16001 15.3C4.42191 15.5637 4.73354 15.7729 5.07685 15.9154C5.42015 16.0579 5.78831 16.1308 6.16001 16.13H7.28001L13.43 19.81C13.6901 20.0052 14.0049 20.1136 14.33 20.12C14.5597 20.1333 14.7892 20.0922 15 20C15.3045 19.849 15.5601 19.6148 15.7371 19.3245C15.914 19.0343 16.0052 18.6999 16 18.36V5.67C16.011 5.32507 15.9225 4.98426 15.7452 4.68817C15.5679 4.39209 15.3092 4.15321 15 4Z" fill="black"/>
</svg>
