<svg width="24" height="24" viewBox="0 0 24 24" fill="none" xmlns="http://www.w3.org/2000/svg">
<path d="M16 9.92C15.8019 9.92259 15.6126 10.0024 15.4725 10.1425C15.3324 10.2826 15.2526 10.4719 15.25 10.67V13.34C15.25 13.5389 15.329 13.7297 15.4697 13.8703C15.6103 14.011 15.8011 14.09 16 14.09C16.1989 14.09 16.3897 14.011 16.5303 13.8703C16.671 13.7297 16.75 13.5389 16.75 13.34V10.67C16.7474 10.4719 16.6676 10.2826 16.5275 10.1425C16.3874 10.0024 16.1981 9.92259 16 9.92Z" fill="black"/>
<path d="M18.63 8.59C18.4311 8.59 18.2403 8.66902 18.0997 8.80967C17.959 8.95032 17.88 9.14109 17.88 9.34V14.67C17.88 14.8689 17.959 15.0597 18.0997 15.2003C18.2403 15.341 18.4311 15.42 18.63 15.42C18.8289 15.42 19.0197 15.341 19.1603 15.2003C19.301 15.0597 19.38 14.8689 19.38 14.67V9.34C19.38 9.14109 19.301 8.95032 19.1603 8.80967C19.0197 8.66902 18.8289 8.59 18.63 8.59Z" fill="black"/>
<path d="M21.25 7.25C21.0519 7.25259 20.8626 7.33244 20.7225 7.47253C20.5824 7.61263 20.5026 7.80189 20.5 8V16C20.5 16.1989 20.579 16.3897 20.7197 16.5303C20.8603 16.671 21.0511 16.75 21.25 16.75C21.4489 16.75 21.6397 16.671 21.7803 16.5303C21.921 16.3897 22 16.1989 22 16V8C21.9974 7.80189 21.9176 7.61263 21.7775 7.47253C21.6374 7.33244 21.4481 7.25259 21.25 7.25Z" fill="black"/>
<path d="M13.58 4.44C13.315 4.30095 13.0165 4.23852 12.7179 4.25972C12.4194 4.28092 12.1327 4.3849 11.89 4.56L5.26 9.29H2.75C2.55854 9.29211 2.37492 9.3664 2.23587 9.49804C2.09682 9.62967 2.01259 9.80894 2 10V14C2.00259 14.1981 2.08244 14.3874 2.22253 14.5275C2.36263 14.6676 2.55189 14.7474 2.75 14.75H5.26L11.89 19.48C12.1688 19.6743 12.5002 19.779 12.84 19.78C13.0975 19.7797 13.3511 19.718 13.58 19.6C13.8706 19.4487 14.1123 19.2181 14.2769 18.9348C14.4416 18.6516 14.5224 18.3274 14.51 18V6C14.516 5.6791 14.432 5.36293 14.2677 5.08724C14.1033 4.81156 13.8651 4.58736 13.58 4.44ZM4.75 13.22H3.5V10.79H4.75V13.22Z" fill="black"/>
</svg>
