<svg width="24" height="24" viewBox="0 0 24 24" fill="none" xmlns="http://www.w3.org/2000/svg">
<path d="M14.41 4.02999C13.9 3.78999 13.33 3.84999 12.87 4.19999L6.73999 7.95999H5.60999C4.03999 7.95999 2.76001 9.23999 2.76001 10.81V13.3C2.76001 14.06 3.06001 14.78 3.60001 15.32C4.14001 15.86 4.86 16.15 5.62 16.15H5.63L6.73001 16.14L12.88 19.82C13.15 20.02 13.46 20.13 13.78 20.13C13.99 20.13 14.21 20.08 14.41 19.98C15.01 19.7 15.39 19.06 15.39 18.34V5.66999C15.39 4.94999 15 4.30999 14.41 4.02999Z" fill="black"/>
<path d="M20.5 11.25H19.75L19.76 10.5C19.77 10.09 19.44 9.74999 19.02 9.73999C19.02 9.73999 19.02 9.73999 19.01 9.73999C18.6 9.73999 18.27 10.07 18.26 10.48L18.25 11.23H17.49C17.08 11.23 16.75 11.56 16.74 11.97C16.74 12.38 17.07 12.72 17.48 12.73H18.23L18.22 13.48C18.21 13.89 18.55 14.23 18.96 14.24H18.97C19.38 14.24 19.71 13.91 19.72 13.5L19.73 12.75H20.48C20.49 12.75 20.49 12.75 20.49 12.75C20.9 12.75 21.24 12.42 21.24 12.01C21.25 11.6 20.91 11.26 20.5 11.25Z" fill="black"/>
</svg>
