<svg width="24" height="24" viewBox="0 0 24 24" fill="none" xmlns="http://www.w3.org/2000/svg">
<path d="M17.75 10.43V5.99001C17.75 5.32001 17.39 4.73001 16.82 4.43001C16.28 4.16001 15.64 4.20001 15.14 4.56001L8.51001 9.29001H6C5.59 9.29001 5.25 9.63001 5.25 10.04V13.97C5.25 14.38 5.59 14.72 6 14.72H8.51001L15.14 19.45C15.42 19.65 15.75 19.75 16.08 19.75C16.34 19.75 16.59 19.69 16.82 19.57C17.39 19.28 17.75 18.68 17.75 18.02V13.58C18.34 13.3 18.75 12.7 18.75 12C18.75 11.31 18.34 10.71 17.75 10.43ZM8 13.22H6.75V10.79H8V13.22Z" fill="black"/>
</svg>
