<svg width="24" height="24" viewBox="0 0 24 24" fill="none" xmlns="http://www.w3.org/2000/svg">
<path d="M18.62 9.92C18.4211 9.92 18.2303 9.99902 18.0897 10.1397C17.949 10.2803 17.87 10.4711 17.87 10.67V13.33C17.87 13.5289 17.949 13.7197 18.0897 13.8603C18.2303 14.001 18.4211 14.08 18.62 14.08C18.8189 14.08 19.0097 14.001 19.1503 13.8603C19.291 13.7197 19.37 13.5289 19.37 13.33V10.67C19.37 10.4711 19.291 10.2803 19.1503 10.1397C19.0097 9.99902 18.8189 9.92 18.62 9.92Z" fill="black"/>
<path d="M16.28 4C16.0338 3.87861 15.758 3.83012 15.4852 3.86023C15.2123 3.89035 14.9538 3.99783 14.74 4.17L8.60001 8H7.48C6.72495 8.00264 6.00157 8.30375 5.46766 8.83766C4.93375 9.37157 4.63264 10.0949 4.63 10.85V13.3C4.63543 14.0513 4.93732 14.7701 5.47 15.3C5.73191 15.5637 6.04354 15.7729 6.38684 15.9154C6.73015 16.0579 7.09831 16.1308 7.47 16.13H8.59L14.74 19.81C15.0001 20.0052 15.3149 20.1136 15.64 20.12C15.862 20.1193 16.0808 20.068 16.28 19.97C16.5845 19.819 16.8401 19.5848 17.017 19.2945C17.194 19.0043 17.2852 18.6699 17.28 18.33V5.67C17.291 5.32507 17.2025 4.98426 17.0252 4.68817C16.8479 4.39209 16.5892 4.15321 16.28 4Z" fill="black"/>
</svg>
