<svg width="24" height="24" viewBox="0 0 24 24" fill="none" xmlns="http://www.w3.org/2000/svg">
<path d="M16 7.09L17.68 6.09C18.0653 5.88255 18.4993 5.78253 18.9365 5.80041C19.3737 5.81829 19.7981 5.95343 20.1651 6.19166C20.5322 6.42989 20.8284 6.76244 21.0228 7.15448C21.2172 7.54653 21.3026 7.98363 21.27 8.42V15.54C21.3026 15.9764 21.2172 16.4135 21.0228 16.8055C20.8284 17.1976 20.5322 17.5301 20.1651 17.7683C19.7981 18.0066 19.3737 18.1417 18.9365 18.1596C18.4993 18.1775 18.0653 18.0775 17.68 17.87L16 16.87" stroke="black" stroke-width="1.5" stroke-linecap="round" stroke-linejoin="round"/>
<path d="M4 9.66L10 6.11C10.3863 5.90091 10.8217 5.7995 11.2606 5.81641C11.6995 5.83332 12.1258 5.96792 12.4949 6.20612C12.8639 6.44432 13.1622 6.77736 13.3584 7.17036C13.5545 7.56336 13.6415 8.00188 13.61 8.44V15.56C13.6415 15.9981 13.5545 16.4366 13.3584 16.8296C13.1622 17.2227 12.8639 17.5557 12.4949 17.7939C12.1258 18.0321 11.6995 18.1667 11.2606 18.1836C10.8217 18.2005 10.3863 18.0991 10 17.89L4 14.34C3.60998 14.0868 3.28944 13.74 3.06753 13.3314C2.84562 12.9227 2.72938 12.465 2.72938 12C2.72938 11.535 2.84562 11.0773 3.06753 10.6686C3.28944 10.26 3.60998 9.91325 4 9.66Z" stroke="black" stroke-width="1.5" stroke-linecap="round" stroke-linejoin="round"/>
</svg>
