<svg width="24" height="24" viewBox="0 0 24 24" fill="none" xmlns="http://www.w3.org/2000/svg">
<path d="M8 16.91L6.32 17.91C5.93471 18.1175 5.50073 18.2175 5.06351 18.1996C4.62629 18.1817 4.20192 18.0466 3.83486 17.8083C3.46781 17.5701 3.17157 17.2376 2.97719 16.8455C2.7828 16.4535 2.69743 16.0164 2.73 15.58V8.44C2.69515 8.0008 2.77987 7.56037 2.97515 7.16544C3.17044 6.77052 3.46901 6.43583 3.83918 6.19692C4.20934 5.958 4.63729 5.82377 5.0776 5.80846C5.5179 5.79316 5.95414 5.89736 6.34 6.11L8 7.09" stroke="black" stroke-width="1.5" stroke-linecap="round" stroke-linejoin="round"/>
<path d="M20 14.34L14 17.89C13.6137 18.0991 13.1783 18.2005 12.7394 18.1836C12.3005 18.1667 11.8742 18.0321 11.5051 17.7939C11.1361 17.5557 10.8378 17.2226 10.6416 16.8296C10.4455 16.4366 10.3586 15.9981 10.39 15.56V8.44C10.3586 8.00188 10.4455 7.56336 10.6416 7.17035C10.8378 6.77735 11.1361 6.44431 11.5051 6.20612C11.8742 5.96792 12.3005 5.83332 12.7394 5.81641C13.1783 5.7995 13.6137 5.9009 14 6.11L20 9.66C20.39 9.91324 20.7106 10.26 20.9325 10.6686C21.1544 11.0773 21.2706 11.535 21.2706 12C21.2706 12.465 21.1544 12.9227 20.9325 13.3314C20.7106 13.74 20.39 14.0868 20 14.34Z" stroke="black" stroke-width="1.5" stroke-linecap="round" stroke-linejoin="round"/>
</svg>
