<svg width="24" height="24" viewBox="0 0 24 24" fill="none" xmlns="http://www.w3.org/2000/svg">
<path d="M12.17 12.81L9.25 11.23C8.46 10.8 7.51001 11.37 7.51001 12.27V15.44C7.51001 16.33 8.47 16.9 9.25 16.48L12.17 14.9C13 14.44 13 13.26 12.17 12.81Z" stroke="black" stroke-width="1.5" stroke-linecap="round" stroke-linejoin="round"/>
<path d="M17.55 7.93V19.77C17.55 20.59 16.89 21.25 16.07 21.25H4.23001C3.41001 21.25 2.75 20.59 2.75 19.77V7.93C2.75 7.11 3.41001 6.45 4.23001 6.45H16.07C16.89 6.45 17.55 7.11 17.55 7.93Z" stroke="black" stroke-width="1.5" stroke-linecap="round" stroke-linejoin="round"/>
<path d="M6.45001 4.22C6.45001 3.41 7.11999 2.75 7.92999 2.75H19.78C20.59 2.75 21.25 3.41 21.25 4.22V16.07C21.25 16.88 20.59 17.55 19.78 17.55" stroke="black" stroke-width="1.5" stroke-linecap="round" stroke-linejoin="round"/>
</svg>
