<svg width="24" height="24" viewBox="0 0 24 24" fill="none" xmlns="http://www.w3.org/2000/svg">
<path d="M2.75 13.21H10.96C14.25 13.19 17.39 14.7 19.48 17.34C19.62 17.51 19.73 17.67 19.85 17.83C19.99 18.04 20.22 18.16 20.47 18.16C20.55 18.16 20.63 18.15 20.71 18.12C21.03 18.01 21.24 17.7 21.24 17.36V6.64C21.25 6.29 21.03 5.98 20.72 5.88C20.41 5.77 20.06 5.88 19.85 6.15C18.5 7.95 16.87 8.92 15.46 9.62C13.89 10.38 12.18 10.79 10.46 10.79H2.73001" stroke="black" stroke-width="1.5" stroke-linecap="round" stroke-linejoin="round"/>
<path d="M2.75 14.06H3.78V9.95H2.75V14.06Z" stroke="black" stroke-width="1.5" stroke-linecap="round" stroke-linejoin="round"/>
<path d="M13.03 9.95V8.92" stroke="black" stroke-width="1.5" stroke-linecap="round" stroke-linejoin="round"/>
<path d="M9.94 9.95V8.92" stroke="black" stroke-width="1.5" stroke-linecap="round" stroke-linejoin="round"/>
<path d="M6.85999 9.95V8.92" stroke="black" stroke-width="1.5" stroke-linecap="round" stroke-linejoin="round"/>
<path d="M6.85999 14.06V14.57C6.85999 15.99 8.00999 17.14 9.42999 17.14C10.85 17.14 12 15.99 12 14.57V14.06" stroke="black" stroke-width="1.5" stroke-linecap="round" stroke-linejoin="round"/>
</svg>
