<svg width="24" height="24" viewBox="0 0 24 24" fill="none" xmlns="http://www.w3.org/2000/svg">
<path d="M5.75 10.04H3V13.97H5.75V10.04Z" stroke="black" stroke-width="1.5" stroke-linecap="round" stroke-linejoin="round"/>
<path d="M12.57 18.83L5.75 13.96V10.03L12.57 5.16C13.18 4.73 14 5.19 14 5.98V18.01C14 18.8 13.18 19.27 12.57 18.83Z" stroke="black" stroke-width="1.5" stroke-linecap="round" stroke-linejoin="round"/>
<path d="M19.24 7.76C20.33 8.84 21 10.34 21 12C21 13.66 20.33 15.16 19.24 16.24" stroke="black" stroke-width="1.5" stroke-linecap="round" stroke-linejoin="round"/>
<path d="M17.12 9.88C17.66 10.42 18 11.17 18 12C18 12.83 17.66 13.58 17.12 14.12" stroke="black" stroke-width="1.5" stroke-linecap="round" stroke-linejoin="round"/>
<path d="M14 11C14.55 11 15 11.45 15 12C15 12.55 14.55 13 14 13" stroke="black" stroke-width="1.5" stroke-linecap="round" stroke-linejoin="round"/>
</svg>
