<svg width="24" height="24" viewBox="0 0 24 24" fill="none" xmlns="http://www.w3.org/2000/svg">
<path d="M17.31 10.67V13.33" stroke="black" stroke-width="1.5" stroke-linecap="round" stroke-linejoin="round"/>
<path d="M19.93 9.33V14.67" stroke="black" stroke-width="1.5" stroke-linecap="round" stroke-linejoin="round"/>
<path d="M15.2 5.66V18.34C15.2 19.16 14.43 19.65 13.86 19.19L7.49 15.39H6.18C5.90254 15.3913 5.62757 15.3377 5.37097 15.2321C5.11438 15.1265 4.88125 14.9711 4.68505 14.7749C4.48886 14.5788 4.33349 14.3456 4.22792 14.089C4.12235 13.8324 4.06868 13.5575 4.07 13.28V10.81C4.06999 10.2521 4.29092 9.71695 4.68447 9.32153C5.07801 8.92611 5.61213 8.70265 6.17 8.7H7.49L13.86 4.8C14.43 4.35 15.2 4.84 15.2 5.66Z" stroke="black" stroke-width="1.5" stroke-linecap="round" stroke-linejoin="round"/>
</svg>
