<svg width="24" height="24" viewBox="0 0 24 24" fill="none" xmlns="http://www.w3.org/2000/svg">
<path d="M16.01 10.67V13.33" stroke="black" stroke-width="1.5" stroke-linecap="round" stroke-linejoin="round"/>
<path d="M18.63 9.33V14.67" stroke="black" stroke-width="1.5" stroke-linecap="round" stroke-linejoin="round"/>
<path d="M21.25 8V16" stroke="black" stroke-width="1.5" stroke-linecap="round" stroke-linejoin="round"/>
<path d="M13.89 5.66V18.34C13.89 19.16 13.12 19.65 12.55 19.19L6.17 15.39H4.87C4.59207 15.3913 4.31662 15.3377 4.05947 15.2323C3.80231 15.1268 3.56853 14.9716 3.37154 14.7755C3.17454 14.5795 3.01823 14.3464 2.91157 14.0898C2.8049 13.8331 2.75 13.5579 2.75 13.28V10.81C2.75 10.2504 2.9723 9.71371 3.368 9.31801C3.76371 8.9223 4.30039 8.7 4.86 8.7H6.17L12.55 4.8C13.12 4.35 13.89 4.84 13.89 5.66Z" stroke="black" stroke-width="1.5" stroke-linecap="round" stroke-linejoin="round"/>
</svg>
