<svg width="24" height="24" viewBox="0 0 24 24" fill="none" xmlns="http://www.w3.org/2000/svg">
<path d="M20.32 15.88C20.36 15.71 19.65 14.27 19.65 14.27C14.32 2.90999 14.04 2.73999 12.01 2.73999C10.11 2.73999 9.33 4.05998 8.5 5.75998C4.12 14.56 3.66 15.8 3.66 15.88C2.59 18.77 4.73999 21.24 7.33999 21.24C8.24999 21.24 9.86 20.99 12 18.68C14.4 21.33 16.17 21.24 16.62 21.24C19.24 21.29 21.4 18.77 20.32 15.88Z" stroke="black" stroke-width="1.5" stroke-linecap="round" stroke-linejoin="round"/>
<path d="M14.09 14.85C13.81 16 13.12 17.23 12.02 18.7C10.83 17.23 10.14 15.95 9.95 14.85C8.91 10.81 15.09 10.81 14.09 14.85Z" stroke="black" stroke-width="1.5" stroke-linecap="round" stroke-linejoin="round"/>
</svg>
