<svg width="24" height="24" viewBox="0 0 24 24" fill="none" xmlns="http://www.w3.org/2000/svg">
<path d="M13.07 2.93L18.5 4.86C19.9 5.36 20.77 6.76 20.6 8.24L19.71 15.89C19.59 16.91 18.99 17.81 18.09 18.31L13.55 20.84C12.58 21.38 11.41 21.38 10.44 20.84L5.9 18.32C5 17.82 4.4 16.92 4.28 15.9L3.4 8.24C3.23 6.77 4.1 5.37 5.5 4.87L10.93 2.94C11.62 2.69 12.38 2.69 13.07 2.93Z" stroke="black" stroke-width="1.5" stroke-linecap="round" stroke-linejoin="round"/>
<path d="M15.25 15.03L12 7.7L8.75 15.03" stroke="black" stroke-width="1.5" stroke-linecap="round" stroke-linejoin="round"/>
<path d="M9.71001 13.38H14.29" stroke="black" stroke-width="1.5" stroke-linecap="round" stroke-linejoin="round"/>
</svg>
