<svg width="24" height="24" viewBox="0 0 24 24" fill="none" xmlns="http://www.w3.org/2000/svg">
<path d="M8.82999 2.75H5.76001C4.59001 2.75 3.63 3.7 3.63 4.88V17.66C3.63 18.78 4.49001 19.64 5.57001 19.64H16.41C16.41 19.64 17.12 19.64 17.82 19.64C18.4 20.17 18.65 20.4 19.48 21.12C19.82 21.42 20.36 21.18 20.36 20.72V4.88C20.36 3.71 19.41 2.75 18.23 2.75H8.82999V2.75Z" stroke="black" stroke-width="1.5" stroke-linecap="round" stroke-linejoin="round"/>
<path d="M13.83 13.99C12.64 14.33 11.4 14.3 10.3 14.01C9.95999 14.41 9.42001 15.04 9.42001 15.04C7.36001 14.97 6.60001 13.63 6.60001 13.63C6.60001 10.63 7.89999 8.25 7.89999 8.25C9.23999 7.24 10.5 7.27 10.5 7.27L10.7 7.74C11.55 7.61 12.43 7.60999 13.29 7.75999L13.46 7.27C13.46 7.27 14.72 7.23 16.06 8.25C16.06 8.25 17.4 10.63 17.4 13.63C17.4 13.63 16.61 14.97 14.55 15.04C14.31 14.69 14.07 14.34 13.83 13.99Z" stroke="black" stroke-width="1.5" stroke-linecap="round" stroke-linejoin="round"/>
<path d="M10.4 12.19C10.9688 12.19 11.43 11.7289 11.43 11.16C11.43 10.5912 10.9688 10.13 10.4 10.13C9.83114 10.13 9.37 10.5912 9.37 11.16C9.37 11.7289 9.83114 12.19 10.4 12.19Z" fill="black"/>
<path d="M13.49 12.19C14.0588 12.19 14.52 11.7289 14.52 11.16C14.52 10.5912 14.0588 10.13 13.49 10.13C12.9211 10.13 12.46 10.5912 12.46 11.16C12.46 11.7289 12.9211 12.19 13.49 12.19Z" fill="black"/>
</svg>
