<svg width="24" height="24" viewBox="0 0 24 24" fill="none" xmlns="http://www.w3.org/2000/svg">
<path d="M12 2.75C6.78 2.75 2.75 6.59 2.75 11.74C2.75 14.43 3.83 16.78 5.66 18.38C5.96 18.68 5.88001 18.83 5.96001 20.54C5.96001 20.95 6.30001 21.25 6.71001 21.25C6.78001 21.25 6.89999 21.25 7.00999 21.21C8.94999 20.35 8.99001 20.28 9.32001 20.35C15.03 21.92 21.26 18.26 21.26 11.73C21.25 6.59 17.22 2.75 12 2.75ZM17.56 9.69L14.84 13.98C14.62 14.39 14.17 14.65 13.68 14.65C13.34 14.65 13.08 14.54 12.82 14.35L10.66 12.75C10.59 12.68 10.47 12.64 10.32 12.64C10.21 12.64 10.1 12.68 9.98 12.75L7.07001 14.95C6.66001 15.25 6.17 14.76 6.44 14.35L9.16 10.06C9.38 9.65 9.83001 9.39 10.32 9.39C10.66 9.39 10.95 9.5 11.18 9.69L13.34 11.29C13.41 11.36 13.53 11.4 13.68 11.4C13.79 11.4 13.9 11.36 14.02 11.29L16.93 9.09C17.33 8.79 17.82 9.28 17.56 9.69Z" stroke="black" stroke-width="1.5" stroke-linecap="round" stroke-linejoin="round"/>
</svg>
