<svg width="24" height="24" viewBox="0 0 24 24" fill="none" xmlns="http://www.w3.org/2000/svg">
<path d="M15.08 8.91999H8.91C7.21 8.91999 5.83 7.54 5.83 5.84C5.83 4.14 7.21 2.75999 8.91 2.75999H15.08C16.78 2.75999 18.16 4.14 18.16 5.84C18.16 7.54 16.78 8.91999 15.08 8.91999Z" stroke="black" stroke-width="1.5" stroke-linecap="round" stroke-linejoin="round"/>
<path d="M12 8.91999V15.09H8.92C7.21 15.09 5.84 13.71 5.84 12.01C5.84 11.16 6.19001 10.39 6.74001 9.83C7.29001 9.27 8.07 8.93 8.92 8.93H12V8.91999Z" stroke="black" stroke-width="1.5" stroke-linecap="round" stroke-linejoin="round"/>
<path d="M12 15.08V18.34C12 19.95 10.7 21.25 9.08999 21.25C7.43999 21.25 5.95999 20.04 5.83999 18.39C5.76999 17.45 6.13 16.59 6.74 15.99C7.29 15.43 8.06999 15.09 8.91999 15.09H12V15.08Z" stroke="black" stroke-width="1.5" stroke-linecap="round" stroke-linejoin="round"/>
<path d="M15.09 15.08C16.791 15.08 18.17 13.701 18.17 12C18.17 10.299 16.791 8.91999 15.09 8.91999C13.389 8.91999 12.01 10.299 12.01 12C12.01 13.701 13.389 15.08 15.09 15.08Z" stroke="black" stroke-width="1.5" stroke-linecap="round" stroke-linejoin="round"/>
<path d="M12 8.91999V3.18" stroke="black" stroke-width="1.5" stroke-linecap="round" stroke-linejoin="round"/>
</svg>
