<svg width="24" height="24" viewBox="0 0 24 24" fill="none" xmlns="http://www.w3.org/2000/svg">
<path d="M11.84 20.34L2.84 14.09C2.80158 14.0625 2.77305 14.0233 2.75864 13.9782C2.74423 13.9332 2.74471 13.8847 2.76 13.84L6.22 3.76999C6.23609 3.7287 6.26426 3.69323 6.30084 3.66823C6.33742 3.64322 6.38069 3.62984 6.425 3.62984C6.46932 3.62984 6.51259 3.64322 6.54917 3.66823C6.58575 3.69323 6.61392 3.7287 6.63 3.76999L12.16 20.09C12.1783 20.1326 12.1819 20.1801 12.1704 20.225C12.1589 20.2699 12.1328 20.3097 12.0963 20.3382C12.0597 20.3668 12.0148 20.3824 11.9684 20.3827C11.9221 20.3831 11.8769 20.368 11.84 20.34V20.34Z" stroke="black" stroke-width="1.5" stroke-linecap="round" stroke-linejoin="round"/>
<path d="M12.16 20.34L21.16 14.09C21.1984 14.0625 21.227 14.0233 21.2414 13.9782C21.2558 13.9332 21.2553 13.8847 21.24 13.84L17.78 3.76999C17.7639 3.7287 17.7357 3.69323 17.6992 3.66823C17.6626 3.64322 17.6193 3.62984 17.575 3.62984C17.5307 3.62984 17.4874 3.64322 17.4508 3.66823C17.4143 3.69323 17.3861 3.7287 17.37 3.76999L11.84 20.09C11.8217 20.1326 11.8181 20.1801 11.8296 20.225C11.8411 20.2699 11.8672 20.3097 11.9037 20.3382C11.9403 20.3668 11.9852 20.3824 12.0316 20.3827C12.0779 20.3831 12.1231 20.368 12.16 20.34Z" stroke="black" stroke-width="1.5" stroke-linecap="round" stroke-linejoin="round"/>
<path d="M4.08 10.01H19.8" stroke="black" stroke-width="1.5" stroke-linecap="round" stroke-linejoin="round"/>
</svg>
