<svg width="24" height="24" viewBox="0 0 24 24" fill="none" xmlns="http://www.w3.org/2000/svg">
<path d="M21.25 18.32C21.26 19.48 20.32 20.42 19.17 20.43C19.08 20.43 19 20.43 18.91 20.42C17.84 20.26 17.05 19.33 17.08 18.24V5.76999C17.05 4.67999 17.84 3.74999 18.92 3.58999C20.07 3.45999 21.11 4.28 21.24 5.43C21.25 5.51 21.25 5.6 21.25 5.68V18.32V18.32Z" stroke="black" stroke-width="1.5" stroke-linecap="round" stroke-linejoin="round"/>
<path d="M4.84 20.43C5.99427 20.43 6.92999 19.4943 6.92999 18.34C6.92999 17.1857 5.99427 16.25 4.84 16.25C3.68572 16.25 2.75 17.1857 2.75 18.34C2.75 19.4943 3.68572 20.43 4.84 20.43Z" stroke="black" stroke-width="1.5" stroke-linecap="round" stroke-linejoin="round"/>
<path d="M11.95 9.89C10.79 9.95 9.88001 10.93 9.91001 12.09V17.72C9.91001 19.25 10.58 20.18 11.57 20.37C12.71 20.6 13.82 19.87 14.05 18.73C14.08 18.59 14.09 18.45 14.09 18.31V12C14.09 10.84 13.15 9.89 11.99 9.89C11.98 9.89 11.96 9.89 11.95 9.89Z" stroke="black" stroke-width="1.5" stroke-linecap="round" stroke-linejoin="round"/>
</svg>
