<svg width="24" height="24" viewBox="0 0 24 24" fill="none" xmlns="http://www.w3.org/2000/svg">
<path d="M15.11 21.25H8.89C6.07 21.25 3.78 18.96 3.78 16.14V10.96C3.78 9.27001 5.15 7.89 6.85 7.89H17.16C18.85 7.89 20.23 9.26001 20.23 10.96V16.14C20.22 18.96 17.93 21.25 15.11 21.25Z" stroke="black" stroke-width="1.5" stroke-linecap="round" stroke-linejoin="round"/>
<path d="M12 2.75C9.73 2.75 7.89 4.59 7.89 6.86V7.89H16.11V6.86C16.11 4.59 14.27 2.75 12 2.75Z" stroke="black" stroke-width="1.5" stroke-linecap="round" stroke-linejoin="round"/>
<path d="M7.89 10.97V11.79C7.89 13.61 9.73 15.08 12 15.08C14.27 15.08 16.11 13.61 16.11 11.79V10.97" stroke="black" stroke-width="1.5" stroke-linecap="round" stroke-linejoin="round"/>
</svg>
