<svg width="24" height="24" viewBox="0 0 24 24" fill="none" xmlns="http://www.w3.org/2000/svg">
<path d="M9.95999 15.1C11.6721 15.1 13.06 13.7121 13.06 12C13.06 10.2879 11.6721 8.89999 9.95999 8.89999C8.24791 8.89999 6.85999 10.2879 6.85999 12C6.85999 13.7121 8.24791 15.1 9.95999 15.1Z" stroke="black" stroke-width="1.5" stroke-linecap="round" stroke-linejoin="round"/>
<path d="M14.04 15.1C15.7521 15.1 17.14 13.7121 17.14 12C17.14 10.2879 15.7521 8.89999 14.04 8.89999C12.3279 8.89999 10.94 10.2879 10.94 12C10.94 13.7121 12.3279 15.1 14.04 15.1Z" stroke="black" stroke-width="1.5" stroke-linecap="round" stroke-linejoin="round"/>
<path d="M17.14 21.25H6.85999C4.58999 21.25 2.75 19.41 2.75 17.14V6.86C2.75 4.59 4.58999 2.75 6.85999 2.75H17.14C19.41 2.75 21.25 4.59 21.25 6.86V17.14C21.25 19.41 19.41 21.25 17.14 21.25Z" stroke="black" stroke-width="1.5" stroke-linecap="round" stroke-linejoin="round"/>
</svg>
