<svg width="24" height="24" viewBox="0 0 24 24" fill="none" xmlns="http://www.w3.org/2000/svg">
<path d="M5.70999 20.09L3.76999 17.7C3.31999 17.14 3.07001 16.45 3.07001 15.73V6.48C3.07001 4.84 4.34 3.48 5.97 3.36L14.73 2.73999C15.5 2.68999 16.27 2.92 16.88 3.4L19.72 5.62999C20.48 6.21999 20.92 7.12999 20.92 8.08999V17.14C20.92 18.74 19.71 20.09 18.11 20.25L8.45001 21.23C7.40001 21.34 6.36999 20.91 5.70999 20.09Z" stroke="black" stroke-width="1.5" stroke-linecap="round" stroke-linejoin="round"/>
<path d="M6.78 20.75L6.82999 8.63C6.82999 8.09 7.25001 7.64 7.79001 7.6L20.3 6.61" stroke="black" stroke-width="1.5" stroke-linecap="round" stroke-linejoin="round"/>
<path d="M6.92001 7.73L3.95999 4.53" stroke="black" stroke-width="1.5" stroke-linecap="round" stroke-linejoin="round"/>
<path d="M11.53 17.1V10.92" stroke="black" stroke-width="1.5" stroke-linecap="round" stroke-linejoin="round"/>
<path d="M10.72 17.18L12.33 17.02" stroke="black" stroke-width="1.5" stroke-linecap="round" stroke-linejoin="round"/>
<path d="M16.58 16.6V10.42" stroke="black" stroke-width="1.5" stroke-linecap="round" stroke-linejoin="round"/>
<path d="M15.77 10.5L17.38 10.34" stroke="black" stroke-width="1.5" stroke-linecap="round" stroke-linejoin="round"/>
<path d="M11.53 10.92L10.23 11.05" stroke="black" stroke-width="1.5" stroke-linecap="round" stroke-linejoin="round"/>
<path d="M11.53 10.92L16.58 16.6" stroke="black" stroke-width="1.5" stroke-linecap="round" stroke-linejoin="round"/>
</svg>
