<svg width="24" height="24" viewBox="0 0 24 24" fill="none" xmlns="http://www.w3.org/2000/svg">
<path d="M20.28 13.82C20.4 13.24 20.49 12.62 20.49 12C20.49 7.33 16.69 3.53 12.02 3.53C11.4 3.53 10.78 3.61001 10.2 3.74001C9.42 3.12001 8.42 2.75 7.39 2.75C4.83 2.75 2.77 4.86 2.77 7.37C2.77 8.44 3.10001 9.43 3.72001 10.22C3.60001 10.8 3.51 11.42 3.51 12C3.51 16.71 7.31 20.51 11.98 20.51C12.6 20.51 13.22 20.43 13.8 20.3C14.58 20.92 15.58 21.25 16.61 21.25C19.17 21.25 21.23 19.19 21.23 16.63C21.27 15.59 20.9 14.6 20.28 13.82Z" stroke="black" stroke-width="1.5" stroke-linecap="round" stroke-linejoin="round"/>
<path d="M14.44 9.31C14.44 8.51 13.12 7.99001 11.83 7.99001C10.65 7.99001 9.26001 8.51 9.26001 9.92C9.26001 12.56 13.28 11.52 14.46 13.06C14.66 13.32 14.75 13.63 14.75 13.95C14.75 15.34 13.41 16 12.11 16C10.56 16 9.26001 15.32 9.26001 14.47" stroke="black" stroke-width="1.5" stroke-linecap="round" stroke-linejoin="round"/>
</svg>
