<svg width="24" height="24" viewBox="0 0 24 24" fill="none" xmlns="http://www.w3.org/2000/svg">
<path d="M21.2 16.93C21.34 16.64 21.16 16.39 20.95 16.35C18.42 15.95 17.3 13.35 17.23 13.25C17.12 13.03 17.04 12.74 17.18 12.53C17.32 12.3 17.58 12.17 17.82 12.07C18.32 11.88 19.94 11.35 19.21 10.56C18.89 10.22 18.42 10.19 18 10.33C17.73 10.42 17.22 10.69 16.97 10.44C17.04 9.14 17.22 7.3 16.75 6.25C15.88 4.3 14.08 3.33 12.16 3.33C12.12 3.33 11.84 3.33 11.8 3.33C11.04 3.33 8.48 3.54999 7.25 6.28999C6.94 6.95999 6.93 7.77999 6.94 8.50999C6.94 8.91999 6.97 9.33 6.99 9.75C7 9.93 7.02 10.12 7.02 10.31C7.03 10.64 6.58 10.57 6.37 10.52C6.05 10.43 5.76 10.22 5.41 10.27C5.04 10.32 4.74 10.54 4.64 10.89C4.57 11.14 4.71 11.54 5.54 11.86C5.86 12 6.66 12.15 6.84 12.58C6.91 12.76 6.91 12.98 6.77 13.27C6.7 13.38 5.58 15.98 3.05 16.37C2.87 16.41 2.73 16.59 2.73 16.77H2.77C2.81 17.53 4.47 17.82 5.22 17.96C5.29 18.03 5.36 18.47 5.47 18.83C5.51 18.97 5.61 19.15 5.9 19.15C6.19 19.15 6.62 18.97 7.31 18.97C8.25 18.97 8.57 19.19 9.33 19.73C9.87 20.09 10.81 20.78 11.97 20.7C13.09 20.74 13.85 20.27 14.64 19.73C15.4 19.19 15.72 18.97 16.66 18.97C17.12 18.97 17.56 19.06 18.01 19.11C18.11 19.12 18.21 19.13 18.3 19.08C18.44 19.01 18.49 18.85 18.53 18.7C18.59 18.48 18.65 18.26 18.7 18.04C18.71 18.01 18.72 17.98 18.74 17.95C18.77 17.92 18.8 17.92 18.84 17.91C19.1 17.91 19.41 17.81 19.66 17.75C19.92 17.69 20.17 17.62 20.41 17.52C20.73 17.39 21.07 17.22 21.2 16.93Z" stroke="black" stroke-width="1.5" stroke-linecap="round" stroke-linejoin="round"/>
</svg>
