<svg width="24" height="24" viewBox="0 0 24 24" fill="none" xmlns="http://www.w3.org/2000/svg">
<path d="M13.4877 21.1282C18.5305 20.3098 21.955 15.5584 21.1366 10.5157C20.3182 5.47292 15.5668 2.04843 10.524 2.86683C5.48131 3.68523 2.05682 8.43662 2.87522 13.4794C3.69362 18.5221 8.44501 21.9466 13.4877 21.1282Z" stroke="black" stroke-width="1.5" stroke-linecap="round" stroke-linejoin="round"/>
<path d="M6.85 12.56C6.73 12.51 6.50999 12.41 6.49999 12.26C6.48999 12.11 6.63 11.94 6.96 11.82L15.87 8.39C16.28 8.24 16.65 8.50001 16.5 9.10001L15.01 16.26C14.9 16.78 14.6 16.89 14.15 16.67C13.35 16.13 12.54 15.59 11.74 15.05C11.31 15.37 10.89 15.7 10.46 16.02C10.15 15.2 9.83 14.38 9.52 13.56C9.24 13.46 7.67 12.91 6.85 12.56Z" stroke="black" stroke-width="1.5" stroke-linecap="round" stroke-linejoin="round"/>
</svg>
