<svg width="24" height="24" viewBox="0 0 24 24" fill="none" xmlns="http://www.w3.org/2000/svg">
<path d="M17.34 5.85001V9.96001V5.85001Z" stroke="black" stroke-width="1.5" stroke-linecap="round" stroke-linejoin="round"/>
<path d="M13.23 5.85001V9.96001V5.85001Z" stroke="black" stroke-width="1.5" stroke-linecap="round" stroke-linejoin="round"/>
<path d="M6.42999 3.33001L4.16 5.51C3.75 5.9 3.51999 6.45001 3.51999 7.02001V16.11C3.51999 17.26 4.44999 18.2 5.60999 18.2H7.78V21.05C7.78 21.23 8 21.33 8.13 21.2L11.3 18.2H14.12L19.85 12.77C20.27 12.38 20.5 11.83 20.5 11.26V4.85001C20.5 3.70001 19.57 2.76 18.41 2.76H7.88C7.33 2.75 6.80999 2.96001 6.42999 3.33001Z" stroke="black" stroke-width="1.5" stroke-linecap="round" stroke-linejoin="round"/>
<path d="M7.20001 2.86V14.38" stroke="black" stroke-width="1.5" stroke-linecap="round" stroke-linejoin="round"/>
<path d="M7.20001 14.38H10.21" stroke="black" stroke-width="1.5" stroke-linecap="round" stroke-linejoin="round"/>
<path d="M12.41 14.38H18.13" stroke="black" stroke-width="1.5" stroke-linecap="round" stroke-linejoin="round"/>
<path d="M10.21 14.38V16.03L12.41 14.38" stroke="black" stroke-width="1.5" stroke-linecap="round" stroke-linejoin="round"/>
</svg>
