<svg width="24" height="24" viewBox="0 0 24 24" fill="none" xmlns="http://www.w3.org/2000/svg">
<path d="M17.14 21.25H6.85999C4.58999 21.25 2.75 19.41 2.75 17.14V6.86C2.75 4.59 4.58999 2.75 6.85999 2.75H17.14C19.41 2.75 21.25 4.59 21.25 6.86V17.14C21.25 19.41 19.41 21.25 17.14 21.25Z" stroke="black" stroke-width="1.5" stroke-linecap="round" stroke-linejoin="round"/>
<path d="M15.34 12.24C15.02 11.86 14.6 11.65 14.12 11.5C14.44 11.33 14.7 11.07 14.86 10.76C15.12 10.38 15.22 9.95 15.22 9.48C15.22 9.05 15.17 8.69 14.96 8.37C14.79 8.05 14.53 7.78 14.15 7.56C13.83 7.41 13.47 7.24 13.15 7.2C12.77 7.14 12.24 7.14 11.55 7.14H8.10001V16.87H12C12.64 16.87 13.22 16.81 13.64 16.7C14.07 16.55 14.49 16.34 14.87 16.06C15.19 15.8 15.4 15.53 15.61 15.16C15.76 14.8 15.87 14.31 15.87 13.84C15.88 13.2 15.72 12.61 15.34 12.24Z" stroke="black" stroke-width="1.5" stroke-linecap="round" stroke-linejoin="round"/>
<path d="M14.13 11.5H8.12" stroke="black" stroke-width="1.5" stroke-linecap="round" stroke-linejoin="round"/>
</svg>
