<svg width="24" height="24" viewBox="0 0 24 24" fill="none" xmlns="http://www.w3.org/2000/svg">
<path d="M20.84 7.57001C20.64 6.76001 19.99 6.12 19.22 5.91C17.77 5.5 12.02 5.5 12.02 5.5C12.02 5.5 6.24 5.5 4.78 5.91C4 6.11 3.36 6.76001 3.16 7.57001C2.75 8.99001 2.75 12.03 2.75 12.03C2.75 12.03 2.75 15.04 3.16 16.49C3.36 17.3 4.01 17.91 4.78 18.11C6.23 18.48 12.02 18.48 12.02 18.48C12.02 18.48 17.77 18.48 19.22 18.11C20 17.91 20.64 17.3 20.84 16.49C21.25 15.04 21.25 12.03 21.25 12.03C21.25 12.03 21.25 8.99001 20.84 7.57001Z" stroke="black" stroke-width="1.5" stroke-linecap="round" stroke-linejoin="round"/>
<path d="M9.94 14.05V10.03C9.94 9.59999 10.4 9.33 10.77 9.55L14.3 11.56C14.67 11.77 14.67 12.31 14.3 12.53L10.77 14.54C10.4 14.74 9.94 14.47 9.94 14.05Z" stroke="black" stroke-width="1.5" stroke-linecap="round" stroke-linejoin="round"/>
</svg>
