<svg width="24" height="24" viewBox="0 0 24 24" fill="none" xmlns="http://www.w3.org/2000/svg">
<path d="M15.97 18.17H8.03C6.91 18.17 6 17.26 6 16.14V7.86C6 6.74 6.91 5.83 8.03 5.83H15.97C17.09 5.83 18 6.74 18 7.86V16.14C18 17.26 17.09 18.17 15.97 18.17Z" stroke="black" stroke-width="1.5" stroke-linecap="round" stroke-linejoin="round"/>
<path d="M14.99 2.75H9.01999C8.45999 2.75 8.01001 3.2 8.01001 3.76V5.83H16.01V3.76C16 3.2 15.55 2.75 14.99 2.75Z" stroke="black" stroke-width="1.5" stroke-linecap="round" stroke-linejoin="round"/>
<path d="M14.99 21.25H9.01999C8.45999 21.25 8.01001 20.8 8.01001 20.24V18.17H16.01V20.24C16 20.8 15.55 21.25 14.99 21.25Z" stroke="black" stroke-width="1.5" stroke-linecap="round" stroke-linejoin="round"/>
<path d="M19 8.92V10.97" stroke="black" stroke-width="1.5" stroke-linecap="round" stroke-linejoin="round"/>
<path d="M12 12.7L11 11.67" stroke="black" stroke-width="1.5" stroke-linecap="round" stroke-linejoin="round"/>
<path d="M14 10.65L12 12.7" stroke="black" stroke-width="1.5" stroke-linecap="round" stroke-linejoin="round"/>
</svg>
