<svg width="24" height="24" viewBox="0 0 24 24" fill="none" xmlns="http://www.w3.org/2000/svg">
<path d="M18.42 20.11H5.57999C3.80999 20.11 2.55999 18.4 2.77999 16.38L4.10999 4.13998C4.25999 2.71998 5.51999 1.60999 6.91999 1.60999H17.08C18.48 1.60999 19.74 2.71998 19.89 4.13998L21.22 16.38C21.44 18.4 20.19 20.11 18.42 20.11Z" stroke="black" stroke-width="1.5" stroke-linecap="round" stroke-linejoin="round"/>
<path d="M3.06 13.67H4.58H6.68999H7.89C8.67 13.67 9.31999 14.14 9.68999 14.81C10.13 15.61 11 16.16 12 16.16C13 16.16 13.87 15.62 14.31 14.81C14.67 14.14 15.33 13.67 16.11 13.67H17.31H19.42H20.94" stroke="black" stroke-width="1.5" stroke-linecap="round" stroke-linejoin="round"/>
</svg>
