<svg width="24" height="24" viewBox="0 0 24 24" fill="none" xmlns="http://www.w3.org/2000/svg">
<path d="M21.25 9V17C21.25 18.1 20.33 19 19.19 19H4.79999C3.66999 19 2.73999 18.1 2.73999 17V9C2.73999 7.9 3.65999 7 4.79999 7H7.14001C7.79001 7 8.36001 6.6 8.57001 6C8.78001 5.4 9.35 5 10 5H14C14.65 5 15.22 5.4 15.43 6C15.64 6.6 16.21 7 16.86 7H19.2C20.33 7 21.25 7.9 21.25 9Z" stroke="black" stroke-width="1.5" stroke-linecap="round" stroke-linejoin="round"/>
<path d="M12 16C13.9882 16 15.6 14.433 15.6 12.5C15.6 10.567 13.9882 9 12 9C10.0118 9 8.39999 10.567 8.39999 12.5C8.39999 14.433 10.0118 16 12 16Z" stroke="black" stroke-width="1.5" stroke-linecap="round" stroke-linejoin="round"/>
<path d="M5.82999 7V6" stroke="black" stroke-width="1.5" stroke-linecap="round" stroke-linejoin="round"/>
</svg>
