<svg width="24" height="24" viewBox="0 0 24 24" fill="none" xmlns="http://www.w3.org/2000/svg">
<path d="M18.42 21.25H5.58001C3.81001 21.25 2.56001 19.54 2.78001 17.52L4.11001 5.28C4.26001 3.86 5.52001 2.75 6.92001 2.75H17.08C18.48 2.75 19.74 3.86 19.89 5.28L21.22 17.52C21.44 19.54 20.19 21.25 18.42 21.25Z" stroke="black" stroke-width="1.5" stroke-linecap="round" stroke-linejoin="round"/>
<path d="M3.29674 14.81H4.58001H6.69001H7.89001C8.67001 14.81 9.32001 15.28 9.69001 15.95C10.13 16.75 11 17.3 12 17.3C13 17.3 13.87 16.76 14.31 15.95C14.67 15.28 15.33 14.81 16.11 14.81H17.31H19.42H20.7074" stroke="black" stroke-width="1.5" stroke-linecap="round" stroke-linejoin="round"/>
<path d="M12 5.82V11.98" stroke="black" stroke-width="1.5" stroke-linecap="round" stroke-linejoin="round"/>
<path d="M12 12L14.47 9.53" stroke="black" stroke-width="1.5" stroke-linecap="round" stroke-linejoin="round"/>
<path d="M12 12L9.53 9.53" stroke="black" stroke-width="1.5" stroke-linecap="round" stroke-linejoin="round"/>
</svg>
