<svg width="24" height="24" viewBox="0 0 24 24" fill="none" xmlns="http://www.w3.org/2000/svg">
<path d="M19.19 16.11H4.79999C3.65999 16.11 2.73999 17.03 2.73999 18.17V19.2C2.73999 20.34 3.65999 21.26 4.79999 21.26H19.19C20.33 21.26 21.25 20.34 21.25 19.2V18.17C21.25 17.03 20.33 16.11 19.19 16.11Z" stroke="black" stroke-width="1.5" stroke-linecap="round" stroke-linejoin="round"/>
<path d="M12 16.11V8.91998" stroke="black" stroke-width="1.5" stroke-linecap="round" stroke-linejoin="round"/>
<path d="M12 8.91C13.701 8.91 15.08 7.53104 15.08 5.83C15.08 4.12896 13.701 2.75 12 2.75C10.299 2.75 8.92001 4.12896 8.92001 5.83C8.92001 7.53104 10.299 8.91 12 8.91Z" stroke="black" stroke-width="1.5" stroke-linecap="round" stroke-linejoin="round"/>
<path d="M5.82999 16.11V14.53" stroke="black" stroke-width="1.5" stroke-linecap="round" stroke-linejoin="round"/>
</svg>
