<svg width="24" height="24" viewBox="0 0 24 24" fill="none" xmlns="http://www.w3.org/2000/svg">
<path d="M17.05 21.25H6.96001C5.77001 21.25 4.81 20.29 4.81 19.1V4.89999C4.81 3.70999 5.77001 2.75 6.96001 2.75H17.05C18.24 2.75 19.2 3.70999 19.2 4.89999V19.11C19.19 20.29 18.23 21.25 17.05 21.25Z" stroke="black" stroke-width="1.5" stroke-linecap="round" stroke-linejoin="round"/>
<path d="M12 18.58C11.87 18.58 11.73 18.55 11.61 18.5C11.49 18.45 11.37 18.38 11.27 18.28C11.07 18.09 10.97 17.83 10.97 17.55C10.97 17.28 11.08 17.02 11.27 16.82C11.65 16.44 12.35 16.44 12.73 16.82C12.82 16.92 12.89 17.04 12.95 17.16C13 17.28 13.03 17.42 13.03 17.55C13.03 17.83 12.93 18.08 12.73 18.28C12.53 18.47 12.28 18.58 12 18.58Z" fill="black"/>
<path d="M8.39999 14.88C8.11999 14.88 7.87 14.77 7.67 14.58C7.47 14.38 7.37 14.13 7.37 13.85C7.37 13.72 7.4 13.58 7.45 13.46C7.5 13.33 7.57 13.22 7.67 13.12C8.06 12.74 8.75 12.74 9.13 13.12C9.31 13.32 9.42999 13.58 9.42999 13.85C9.42999 14.13 9.33 14.38 9.13 14.58C9.03 14.67 8.90999 14.74 8.78999 14.8C8.66999 14.86 8.53999 14.88 8.39999 14.88Z" fill="black"/>
<path d="M12 14.88C11.87 14.88 11.73 14.85 11.61 14.8C11.49 14.75 11.37 14.68 11.27 14.58C11.07 14.38 10.97 14.13 10.97 13.85C10.97 13.72 11 13.58 11.05 13.46C11.1 13.33 11.17 13.22 11.27 13.12C11.65 12.74 12.34 12.74 12.73 13.12C12.82 13.22 12.89 13.33 12.95 13.46C13 13.58 13.03 13.72 13.03 13.85C13.03 14.13 12.93 14.38 12.73 14.58C12.63 14.67 12.51 14.74 12.39 14.8C12.27 14.85 12.13 14.88 12 14.88Z" fill="black"/>
<path d="M15.6 14.88C15.32 14.88 15.07 14.77 14.87 14.58C14.78 14.48 14.71 14.36 14.65 14.24C14.6 14.12 14.57 13.98 14.57 13.85C14.57 13.58 14.68 13.32 14.87 13.12C14.97 13.03 15.09 12.96 15.21 12.9C15.46 12.79 15.74 12.79 15.99 12.9C16.12 12.95 16.23 13.02 16.33 13.12C16.51 13.32 16.63 13.58 16.63 13.85C16.63 13.98 16.6 14.12 16.55 14.24C16.5 14.36 16.43 14.48 16.33 14.58C16.13 14.76 15.87 14.88 15.6 14.88Z" fill="black"/>
<path d="M8.39999 11.18C8.11999 11.18 7.87 11.08 7.67 10.88C7.47 10.68 7.37 10.43 7.37 10.15C7.37 10.02 7.4 9.87999 7.45 9.75999C7.5 9.62999 7.57 9.51999 7.67 9.41999C7.77 9.32999 7.88999 9.25999 8.00999 9.19999C8.25999 9.08999 8.53999 9.08999 8.78999 9.19999C8.90999 9.24999 9.03 9.31999 9.13 9.41999C9.22 9.51999 9.29001 9.63999 9.35001 9.75999C9.40001 9.87999 9.42999 10.02 9.42999 10.15C9.42999 10.43 9.33 10.68 9.13 10.88C8.94 11.07 8.67999 11.18 8.39999 11.18Z" fill="black"/>
<path d="M12 11.18C11.72 11.18 11.47 11.08 11.27 10.88C11.07 10.68 10.97 10.43 10.97 10.15C10.97 10.02 11 9.87999 11.05 9.75999C11.1 9.62999 11.17 9.52 11.27 9.42C11.37 9.33 11.49 9.26 11.61 9.2C11.99 9.04 12.44 9.13 12.73 9.42C12.82 9.52 12.89 9.63999 12.95 9.75999C13 9.87999 13.03 10.02 13.03 10.15C13.03 10.43 12.93 10.68 12.73 10.88C12.53 11.07 12.28 11.18 12 11.18Z" fill="black"/>
<path d="M15.6 11.18C15.32 11.18 15.07 11.08 14.87 10.88C14.67 10.68 14.57 10.43 14.57 10.15C14.57 10.02 14.6 9.87999 14.65 9.75999C14.7 9.62999 14.77 9.52 14.87 9.42C14.97 9.33 15.09 9.26 15.21 9.2C15.59 9.04 16.04 9.13 16.33 9.42C16.42 9.52 16.49 9.61999 16.55 9.75999C16.6 9.87999 16.63 10.02 16.63 10.15C16.63 10.43 16.53 10.68 16.33 10.88C16.13 11.07 15.87 11.18 15.6 11.18Z" fill="black"/>
<path d="M8.39999 7.47999C8.26999 7.47999 8.12999 7.44999 8.00999 7.39999C7.88999 7.34999 7.77 7.27999 7.67 7.17999C7.47 6.98999 7.37 6.72999 7.37 6.44999C7.37 6.31999 7.4 6.17999 7.45 6.05999C7.5 5.92999 7.57 5.82 7.67 5.72C8.05 5.34 8.75 5.34 9.13 5.72C9.22 5.82 9.29001 5.93999 9.35001 6.05999C9.41001 6.17999 9.42999 6.31999 9.42999 6.44999C9.42999 6.71999 9.33 6.96999 9.13 7.17999C8.94 7.37999 8.67999 7.47999 8.39999 7.47999Z" fill="black"/>
<path d="M12 7.48C11.72 7.48 11.47 7.37999 11.27 7.17999C11.07 6.98999 10.97 6.72 10.97 6.45C10.97 6.32 11 6.18 11.05 6.06C11.1 5.94 11.17 5.82 11.27 5.72C11.37 5.63 11.48 5.56 11.61 5.5C11.99 5.34 12.44 5.43 12.73 5.72C12.82 5.82 12.89 5.93 12.95 6.06C13 6.18 13.03 6.32 13.03 6.45C13.03 6.73 12.93 6.97999 12.73 7.17999C12.63 7.26999 12.51 7.33999 12.39 7.39999C12.27 7.44999 12.13 7.48 12 7.48Z" fill="black"/>
<path d="M15.6 7.48C15.32 7.48 15.07 7.37999 14.87 7.17999C14.67 6.98999 14.57 6.73 14.57 6.45C14.57 6.32 14.6 6.18 14.65 6.06C14.7 5.94 14.77 5.82 14.87 5.72C14.97 5.63 15.08 5.56 15.21 5.5C15.59 5.34 16.04 5.43 16.33 5.72C16.42 5.82 16.49 5.93 16.55 6.06C16.6 6.18 16.63 6.32 16.63 6.45C16.63 6.73 16.53 6.97999 16.33 7.17999C16.23 7.26999 16.11 7.33999 15.99 7.39999C15.86 7.44999 15.73 7.48 15.6 7.48Z" fill="black"/>
</svg>
