<svg width="24" height="24" viewBox="0 0 24 24" fill="none" xmlns="http://www.w3.org/2000/svg">
<path d="M15.06 8.92H19C20.24 8.92 21.25 9.93 21.25 11.17V19C21.25 20.24 20.24 21.25 19 21.25H5C3.76 21.25 2.75 20.24 2.75 19V11.17C2.75 9.93 3.76 8.92 5 8.92H8.94" stroke="black" stroke-width="1.5" stroke-linecap="round" stroke-linejoin="round"/>
<path d="M6.88 18.16H7.91" stroke="black" stroke-width="1.5" stroke-linecap="round" stroke-linejoin="round"/>
<path d="M6.88 15.08H9.96" stroke="black" stroke-width="1.5" stroke-linecap="round" stroke-linejoin="round"/>
<path d="M8.86 3.68C9.81 3.09 10.92 2.75 12.1 2.75C13.21 2.75 14.25 3.04 15.14 3.55" stroke="black" stroke-width="1.5" stroke-linecap="round" stroke-linejoin="round"/>
<path d="M10.47 6.3C10.94 6 11.5 5.84 12.09 5.84C12.65 5.84 13.17 5.98 13.61 6.24" stroke="black" stroke-width="1.5" stroke-linecap="round" stroke-linejoin="round"/>
<path d="M12.12 9.67C11.71 9.67 11.37 9.33 11.37 8.92C11.37 8.51 11.7 8.17 12.11 8.17H12.12C12.53 8.17 12.87 8.51 12.87 8.92C12.87 9.33 12.53 9.67 12.12 9.67Z" fill="black"/>
</svg>
