<svg width="24" height="24" viewBox="0 0 24 24" fill="none" xmlns="http://www.w3.org/2000/svg">
<path d="M19.86 7.29001C20.74 8.71001 21.25 10.37 21.25 12.15C21.25 13.82 20.82 15.37 20.05 16.71" stroke="black" stroke-width="1.5" stroke-linecap="round" stroke-linejoin="round"/>
<path d="M15.93 9.64001C16.38 10.35 16.62 11.18 16.62 12.08C16.62 12.91 16.4 13.7 16.02 14.36" stroke="black" stroke-width="1.5" stroke-linecap="round" stroke-linejoin="round"/>
<path d="M4.14 7.29001C3.26 8.71001 2.75 10.37 2.75 12.15C2.75 13.82 3.18 15.37 3.95 16.71" stroke="black" stroke-width="1.5" stroke-linecap="round" stroke-linejoin="round"/>
<path d="M8.07001 9.64001C7.62001 10.35 7.38 11.18 7.38 12.08C7.38 12.91 7.60001 13.7 7.98001 14.36" stroke="black" stroke-width="1.5" stroke-linecap="round" stroke-linejoin="round"/>
<path d="M11.92 10.65C11.18 10.65 10.57 11.25 10.57 12C10.57 12.75 11.17 13.35 11.92 13.35C12.66 13.35 13.27 12.75 13.27 12C13.27 11.25 12.66 10.65 11.92 10.65Z" fill="black"/>
</svg>
