<svg width="24" height="24" viewBox="0 0 24 24" fill="none" xmlns="http://www.w3.org/2000/svg">
<path d="M7.10001 16C5.80001 14.73 5 12.96 5 11C5 7.13 8.13 4 12 4C15.87 4 19 7.13 19 11C19 12.96 18.2 14.73 16.9 16" stroke="black" stroke-width="1.5" stroke-linecap="round" stroke-linejoin="round"/>
<path d="M8.54001 13C8.20001 12.41 8 11.73 8 11C8 8.79 9.79 7 12 7C14.21 7 16 8.79 16 11C16 11.73 15.8 12.41 15.46 13" stroke="black" stroke-width="1.5" stroke-linecap="round" stroke-linejoin="round"/>
<path d="M12 12C12.5523 12 13 11.5523 13 11C13 10.4477 12.5523 10 12 10C11.4477 10 11 10.4477 11 11C11 11.5523 11.4477 12 12 12Z" stroke="black" stroke-width="1.5" stroke-linecap="round" stroke-linejoin="round"/>
<path d="M13.08 14.71H10.91C10.3 14.71 9.84 15.25 9.92 15.85L10.38 19.14C10.45 19.63 10.87 20 11.37 20H12.61C13.11 20 13.53 19.63 13.6 19.14L14.06 15.85C14.16 15.24 13.69 14.71 13.08 14.71Z" stroke="black" stroke-width="1.5" stroke-linecap="round" stroke-linejoin="round"/>
</svg>
