<svg width="24" height="24" viewBox="0 0 24 24" fill="none" xmlns="http://www.w3.org/2000/svg">
<path d="M18.17 21.49H5.84C4.14 21.49 2.76001 20.11 2.76001 18.41V6.07999C2.76001 4.37999 4.14 3 5.84 3H18.17C19.87 3 21.25 4.37999 21.25 6.07999V18.41C21.25 20.11 19.87 21.49 18.17 21.49Z" stroke="black" stroke-width="1.5" stroke-linecap="round" stroke-linejoin="round"/>
<path d="M12 18.34C15.4076 18.34 18.17 15.5776 18.17 12.17C18.17 8.76242 15.4076 6 12 6C8.5924 6 5.82999 8.76242 5.82999 12.17C5.82999 15.5776 8.5924 18.34 12 18.34Z" stroke="black" stroke-width="1.5" stroke-linecap="round" stroke-linejoin="round"/>
<path d="M14.57 13.52C15.2659 13.52 15.83 12.9559 15.83 12.26C15.83 11.5641 15.2659 11 14.57 11C13.8741 11 13.31 11.5641 13.31 12.26C13.31 12.9559 13.8741 13.52 14.57 13.52Z" fill="black"/>
<path d="M9.42999 13.52C10.1259 13.52 10.69 12.9559 10.69 12.26C10.69 11.5641 10.1259 11 9.42999 11C8.73411 11 8.17001 11.5641 8.17001 12.26C8.17001 12.9559 8.73411 13.52 9.42999 13.52Z" fill="black"/>
</svg>
