<svg width="24" height="24" viewBox="0 0 24 24" fill="none" xmlns="http://www.w3.org/2000/svg">
<path d="M20.22 14.97H3.78C3.21 14.97 2.75 15.43 2.75 16V19.08C2.75 19.65 3.21 20.11 3.78 20.11H17.14C19.41 20.11 21.25 18.27 21.25 16C21.25 15.43 20.79 14.97 20.22 14.97Z" stroke="black" stroke-width="1.5" stroke-linecap="round" stroke-linejoin="round"/>
<path d="M16.11 1.60999L3.55 11.27C3.04 11.66 2.75 12.26 2.75 12.9V17.03" stroke="black" stroke-width="1.5" stroke-linecap="round" stroke-linejoin="round"/>
<path d="M6.86 11.89H19.19" stroke="black" stroke-width="1.5" stroke-linecap="round" stroke-linejoin="round"/>
<path d="M5.85001 18.57C5.28001 18.57 4.82001 18.11 4.82001 17.54C4.82001 16.97 5.27 16.51 5.84 16.51H5.85001C6.42001 16.51 6.88 16.97 6.88 17.54C6.88 18.11 6.42001 18.57 5.85001 18.57Z" fill="black"/>
</svg>
