<svg width="24" height="24" viewBox="0 0 24 24" fill="none" xmlns="http://www.w3.org/2000/svg">
<path d="M17.65 7.89H6.34C4.92 7.89 3.76999 9.04001 3.76999 10.46C3.76999 11.88 4.92 13.03 6.34 13.03H17.65C19.07 13.03 20.22 11.88 20.22 10.46C20.22 9.04001 19.07 7.89 17.65 7.89Z" stroke="black" stroke-width="1.5" stroke-linecap="round" stroke-linejoin="round"/>
<path d="M14.74 10.46H17.48" stroke="black" stroke-width="1.5" stroke-linecap="round" stroke-linejoin="round"/>
<path d="M7.20001 11.49C6.92001 11.49 6.67001 11.39 6.48001 11.19C6.28001 10.99 6.17001 10.74 6.17001 10.46C6.17001 10.33 6.2 10.19 6.25 10.07C6.3 9.95 6.37001 9.82999 6.48001 9.72999C6.52001 9.68999 6.57 9.64999 6.63 9.60999C6.68 9.56999 6.73999 9.54 6.79999 9.52C6.85999 9.49 6.91999 9.47 6.98999 9.46C7.11999 9.43 7.26001 9.43 7.39001 9.46C7.45001 9.47 7.50999 9.49 7.57999 9.52C7.63999 9.54 7.69 9.56999 7.75 9.60999C7.8 9.64999 7.84999 9.68999 7.89999 9.72999C7.98999 9.82999 8.06 9.95 8.13 10.07C8.18 10.19 8.20001 10.33 8.20001 10.46C8.20001 10.74 8.09999 10.99 7.89999 11.19C7.72999 11.38 7.48001 11.49 7.20001 11.49Z" fill="black"/>
<path d="M17.65 2.75H6.34C4.92 2.75 3.76999 3.90001 3.76999 5.32001C3.76999 6.74001 4.92 7.89 6.34 7.89H17.65C19.07 7.89 20.22 6.74001 20.22 5.32001C20.22 3.90001 19.07 2.75 17.65 2.75Z" stroke="black" stroke-width="1.5" stroke-linecap="round" stroke-linejoin="round"/>
<path d="M14.74 5.32001H17.48" stroke="black" stroke-width="1.5" stroke-linecap="round" stroke-linejoin="round"/>
<path d="M7.20001 6.35001C6.92001 6.35001 6.67001 6.24001 6.48001 6.05001C6.28001 5.85001 6.17001 5.60001 6.17001 5.32001C6.17001 5.19001 6.2 5.05 6.25 4.93C6.3 4.8 6.37001 4.69 6.48001 4.59C6.71001 4.35 7.07 4.24 7.41 4.31C7.47 4.32 7.53001 4.34 7.60001 4.37C7.66001 4.39 7.70999 4.42001 7.76999 4.46001C7.81999 4.49001 7.87001 4.54 7.92001 4.58C8.01001 4.68 8.08999 4.79 8.14999 4.92C8.19999 5.04 8.22 5.18 8.22 5.31C8.22 5.44 8.19999 5.58 8.14999 5.7C8.09999 5.82 8.02001 5.94 7.92001 6.04C7.73001 6.23 7.48001 6.35001 7.20001 6.35001Z" fill="black"/>
<path d="M12 21.25V16.13" stroke="black" stroke-width="1.5" stroke-linecap="round" stroke-linejoin="round"/>
<path d="M12 16.11L9.53 18.58" stroke="black" stroke-width="1.5" stroke-linecap="round" stroke-linejoin="round"/>
<path d="M12 16.11L14.47 18.58" stroke="black" stroke-width="1.5" stroke-linecap="round" stroke-linejoin="round"/>
</svg>
