<svg width="24" height="24" viewBox="0 0 24 24" fill="none" xmlns="http://www.w3.org/2000/svg">
<path d="M18.36 8.53H5.64001C4.04001 8.53 2.75 9.82 2.75 11.42C2.75 13.02 4.04001 14.31 5.64001 14.31H18.36C19.96 14.31 21.25 13.02 21.25 11.42C21.25 9.83 19.96 8.53 18.36 8.53Z" stroke="black" stroke-width="1.5" stroke-linecap="round" stroke-linejoin="round"/>
<path d="M15.08 11.42H18.17" stroke="black" stroke-width="1.5" stroke-linecap="round" stroke-linejoin="round"/>
<path d="M6.60001 12.58C6.29001 12.58 6.00001 12.46 5.79001 12.24C5.67001 12.12 5.59001 12 5.54001 11.86C5.48001 11.72 5.45001 11.57 5.45001 11.42C5.45001 11.27 5.48001 11.12 5.54001 10.98C5.60001 10.84 5.68001 10.71 5.79001 10.6C5.84001 10.55 5.88999 10.5 5.95999 10.46C6.01999 10.41 6.09 10.38 6.16 10.36C6.23 10.32 6.3 10.3 6.38 10.29C6.61 10.24 6.82999 10.27 7.04999 10.36C7.18999 10.42 7.32001 10.5 7.42001 10.6C7.52001 10.72 7.62001 10.84 7.67001 10.98C7.72001 11.12 7.75 11.27 7.75 11.42C7.75 11.57 7.73001 11.72 7.67001 11.86C7.61001 12 7.52001 12.13 7.42001 12.24C7.20001 12.46 6.91001 12.58 6.60001 12.58Z" fill="black"/>
<path d="M18.36 2.75H5.64001C4.04001 2.75 2.75 4.04 2.75 5.64C2.75 7.24 4.04001 8.53 5.64001 8.53H18.36C19.96 8.53 21.25 7.24 21.25 5.64C21.25 4.04 19.96 2.75 18.36 2.75Z" stroke="black" stroke-width="1.5" stroke-linecap="round" stroke-linejoin="round"/>
<path d="M15.08 5.64H18.17" stroke="black" stroke-width="1.5" stroke-linecap="round" stroke-linejoin="round"/>
<path d="M6.60001 6.8C6.29001 6.8 6.00001 6.68 5.79001 6.46C5.57001 6.24 5.44 5.95 5.44 5.64C5.44 5.34 5.57001 5.04 5.79001 4.82C6.10001 4.51 6.61999 4.4 7.04999 4.58C7.18999 4.64 7.32001 4.72 7.42001 4.82C7.64001 5.04 7.76001 5.34 7.76001 5.64C7.76001 5.95 7.64001 6.24 7.42001 6.46C7.20001 6.68 6.91001 6.8 6.60001 6.8Z" fill="black"/>
<path d="M12 14.31V17.44" stroke="black" stroke-width="1.5" stroke-linecap="round" stroke-linejoin="round"/>
<path d="M9.69 19.52H2.75" stroke="black" stroke-width="1.5" stroke-linecap="round" stroke-linejoin="round"/>
<path d="M21.25 19.52H14.31" stroke="black" stroke-width="1.5" stroke-linecap="round" stroke-linejoin="round"/>
<path d="M12 21.25C12.9555 21.25 13.73 20.4754 13.73 19.52C13.73 18.5645 12.9555 17.79 12 17.79C11.0445 17.79 10.27 18.5645 10.27 19.52C10.27 20.4754 11.0445 21.25 12 21.25Z" stroke="black" stroke-width="1.5" stroke-linecap="round" stroke-linejoin="round"/>
</svg>
