<svg width="24" height="24" viewBox="0 0 24 24" fill="none" xmlns="http://www.w3.org/2000/svg">
<path d="M17.65 7.89001H6.34001C4.92001 7.89001 3.77002 9.04002 3.77002 10.46C3.77002 11.88 4.92001 13.03 6.34001 13.03H17.65C19.07 13.03 20.22 11.88 20.22 10.46C20.22 9.04002 19.07 7.89001 17.65 7.89001Z" stroke="black" stroke-width="1.5" stroke-linecap="round" stroke-linejoin="round"/>
<path d="M14.74 10.46H17.48" stroke="black" stroke-width="1.5" stroke-linecap="round" stroke-linejoin="round"/>
<path d="M7.19998 11.49C6.91998 11.49 6.66998 11.39 6.47998 11.19C6.27998 10.99 6.16998 10.74 6.16998 10.46C6.16998 10.19 6.27998 9.92999 6.47998 9.72999C6.51998 9.68999 6.56999 9.64999 6.62999 9.60999C6.67999 9.56999 6.73999 9.54 6.79999 9.52C6.85999 9.49 6.91999 9.47 6.98999 9.46C7.11999 9.43 7.25998 9.43 7.38998 9.46C7.44998 9.47 7.50999 9.49 7.57999 9.52C7.63999 9.54 7.68998 9.56999 7.74998 9.60999C7.79998 9.64999 7.84998 9.68999 7.89998 9.72999C7.98998 9.82999 8.05999 9.95 8.12999 10.07C8.17999 10.19 8.19998 10.33 8.19998 10.46C8.19998 10.74 8.09998 10.99 7.89998 11.19C7.72998 11.38 7.47998 11.49 7.19998 11.49Z" fill="black"/>
<path d="M17.65 2.75H6.34001C4.92001 2.75 3.77002 3.90001 3.77002 5.32001C3.77002 6.74001 4.92001 7.89 6.34001 7.89H17.65C19.07 7.89 20.22 6.74001 20.22 5.32001C20.22 3.90001 19.07 2.75 17.65 2.75Z" stroke="black" stroke-width="1.5" stroke-linecap="round" stroke-linejoin="round"/>
<path d="M14.74 5.32001H17.48" stroke="black" stroke-width="1.5" stroke-linecap="round" stroke-linejoin="round"/>
<path d="M7.19998 6.35001C7.06998 6.35001 6.92998 6.32 6.80998 6.27C6.68998 6.22 6.56998 6.15 6.47998 6.05C6.27998 5.85 6.16998 5.60001 6.16998 5.32001C6.16998 5.19001 6.19998 5.04999 6.24998 4.92999C6.29998 4.80999 6.36998 4.69 6.47998 4.59C6.56998 4.5 6.68998 4.43 6.80998 4.37C7.18998 4.21 7.63998 4.3 7.92998 4.59C8.01998 4.69 8.09999 4.79999 8.15999 4.92999C8.20999 5.04999 8.22998 5.19001 8.22998 5.32001C8.22998 5.60001 8.12998 5.85 7.92998 6.05C7.83998 6.14 7.71999 6.21 7.59999 6.27C7.47999 6.32 7.33998 6.35001 7.19998 6.35001Z" fill="black"/>
<path d="M12 16.11V21.23" stroke="black" stroke-width="1.5" stroke-linecap="round" stroke-linejoin="round"/>
<path d="M12 21.25L14.47 18.78" stroke="black" stroke-width="1.5" stroke-linecap="round" stroke-linejoin="round"/>
<path d="M12 21.25L9.53 18.78" stroke="black" stroke-width="1.5" stroke-linecap="round" stroke-linejoin="round"/>
</svg>
