<svg width="24" height="24" viewBox="0 0 24 24" fill="none" xmlns="http://www.w3.org/2000/svg">
<path d="M18 12C18 13.71 17.33 15.25 16.24 16.36C15.96 16.66 15.64 16.91 15.31 17.14C14.36 17.8 13.22 18.17 12 18.17C10.78 18.17 9.64 17.8 8.69 17.14C7.07 16.04 6 14.15 6 12C6 10.29 6.67001 8.75 7.76001 7.64C8.04001 7.34 8.36 7.08 8.69 6.86C9.64 6.2 10.78 5.83 12 5.83C13.22 5.83 14.36 6.2 15.31 6.86C15.64 7.09 15.96 7.34 16.24 7.64C17.33 8.75 18 10.29 18 12Z" stroke="black" stroke-width="1.5" stroke-linecap="round" stroke-linejoin="round"/>
<path d="M16 3.93V6.86H15.31C14.36 6.2 13.22 5.83 12 5.83C10.78 5.83 9.64 6.2 8.69 6.86H8V3.93C8 3.28 8.51999 2.75 9.14999 2.75H14.85C15.48 2.75 16 3.28 16 3.93Z" stroke="black" stroke-width="1.5" stroke-linecap="round" stroke-linejoin="round"/>
<path d="M16 17.14V20.07C16 20.72 15.48 21.25 14.85 21.25H9.14999C8.51999 21.25 8 20.72 8 20.07V17.14H8.69C9.64 17.8 10.78 18.17 12 18.17C13.22 18.17 14.36 17.8 15.31 17.14H16Z" stroke="black" stroke-width="1.5" stroke-linecap="round" stroke-linejoin="round"/>
<path d="M19 10.97V13.03" stroke="black" stroke-width="1.5" stroke-linecap="round" stroke-linejoin="round"/>
<path d="M12 12.7L11 11.67" stroke="black" stroke-width="1.5" stroke-linecap="round" stroke-linejoin="round"/>
<path d="M14 10.65L12 12.7" stroke="black" stroke-width="1.5" stroke-linecap="round" stroke-linejoin="round"/>
</svg>
