<svg width="24" height="24" viewBox="0 0 24 24" fill="none" xmlns="http://www.w3.org/2000/svg">
<path d="M16.81 21.25H7.19C5.98 21.25 5 20.27 5 19.06V4.94C5 3.73 5.98 2.75 7.19 2.75H16.81C18.02 2.75 19 3.73 19 4.94V19.06C19 20.27 18.02 21.25 16.81 21.25Z" stroke="black" stroke-width="1.5" stroke-linecap="round" stroke-linejoin="round"/>
<path d="M12 18.16C13.6569 18.16 15 16.781 15 15.08C15 13.379 13.6569 12 12 12C10.3431 12 9 13.379 9 15.08C9 16.781 10.3431 18.16 12 18.16Z" stroke="black" stroke-width="1.5" stroke-linecap="round" stroke-linejoin="round"/>
<path d="M12 8.92C12.8284 8.92 13.5 8.23052 13.5 7.38C13.5 6.52948 12.8284 5.84 12 5.84C11.1716 5.84 10.5 6.52948 10.5 7.38C10.5 8.23052 11.1716 8.92 12 8.92Z" stroke="black" stroke-width="1.5" stroke-linecap="round" stroke-linejoin="round"/>
</svg>
