<svg width="24" height="24" viewBox="0 0 24 24" fill="none" xmlns="http://www.w3.org/2000/svg">
<path d="M11.46 17.94V7.53" stroke="black" stroke-width="1.5" stroke-linecap="round" stroke-linejoin="round"/>
<path d="M7.14 13.81V11.54" stroke="black" stroke-width="1.5" stroke-linecap="round" stroke-linejoin="round"/>
<path d="M16.86 11.86V9.63" stroke="black" stroke-width="1.5" stroke-linecap="round" stroke-linejoin="round"/>
<path d="M11.46 18.32C10.58 18.32 9.87 19.04 9.87 19.92C9.87 20.8 10.58 21.51 11.46 21.51C12.34 21.51 13.05 20.79 13.05 19.92C13.05 19.03 12.34 18.32 11.46 18.32Z" stroke="black" stroke-width="1.5" stroke-linecap="round" stroke-linejoin="round"/>
<path d="M7.14 8.26001C6.32 8.26001 5.64 8.93001 5.64 9.76001C5.64 10.59 6.31 11.26 7.14 11.26C7.97 11.26 8.64 10.59 8.64 9.76001C8.63 8.93001 7.96 8.26001 7.14 8.26001Z" stroke="black" stroke-width="1.5" stroke-linecap="round" stroke-linejoin="round"/>
<path d="M17.73 6.23001H16C15.65 6.23001 15.37 6.51002 15.37 6.86002V8.60001C15.37 8.95001 15.65 9.23001 16 9.23001H17.73C18.08 9.23001 18.36 8.95001 18.36 8.60001V6.86002C18.36 6.52002 18.08 6.23001 17.73 6.23001Z" stroke="black" stroke-width="1.5" stroke-linecap="round" stroke-linejoin="round"/>
<path d="M13.35 5.04001L12.54 3.62C12.32 3.23 11.92 3 11.47 3C11.02 3 10.62 3.23 10.4 3.62L9.59 5.04001C9.37 5.43001 9.37 5.89 9.59 6.28C9.81 6.67 10.21 6.89999 10.66 6.89999H12.29C12.74 6.89999 13.14 6.67 13.36 6.28C13.58 5.89 13.57 5.43001 13.35 5.04001Z" stroke="black" stroke-width="1.5" stroke-linecap="round" stroke-linejoin="round"/>
<path d="M7.14 13.81L11.46 15.95" stroke="black" stroke-width="1.5" stroke-linecap="round" stroke-linejoin="round"/>
<path d="M16.86 11.86L11.46 14.15" stroke="black" stroke-width="1.5" stroke-linecap="round" stroke-linejoin="round"/>
</svg>
