<svg width="24" height="25" viewBox="0 0 24 25" fill="none" xmlns="http://www.w3.org/2000/svg">
<path d="M13.16 19.22H6.22C4.3 19.22 2.75 17.67 2.75 15.75V12.28C2.75 10.36 4.3 8.81 6.22 8.81H13.16C15.08 8.81 16.63 10.36 16.63 12.28V15.75C16.62 17.67 15.07 19.22 13.16 19.22Z" stroke="black" stroke-width="1.5" stroke-linecap="round" stroke-linejoin="round"/>
<path d="M16.62 16.33L19.68 17.48C20.44 17.76 21.24 17.2 21.24 16.4V11.64C21.24 10.83 20.43 10.27 19.68 10.56L16.62 11.71V16.33Z" stroke="black" stroke-width="1.5" stroke-linecap="round" stroke-linejoin="round"/>
<path d="M6.69 7.92001C8.10937 7.92001 9.26 6.76938 9.26 5.35001C9.26 3.93063 8.10937 2.78 6.69 2.78C5.27062 2.78 4.12 3.93063 4.12 5.35001C4.12 6.76938 5.27062 7.92001 6.69 7.92001Z" stroke="black" stroke-width="1.5" stroke-linecap="round" stroke-linejoin="round"/>
<path d="M12.69 7.92001C14.1094 7.92001 15.26 6.76938 15.26 5.35001C15.26 3.93063 14.1094 2.78 12.69 2.78C11.2706 2.78 10.12 3.93063 10.12 5.35001C10.12 6.76938 11.2706 7.92001 12.69 7.92001Z" stroke="black" stroke-width="1.5" stroke-linecap="round" stroke-linejoin="round"/>
</svg>
