<svg width="24" height="24" viewBox="0 0 24 24" fill="none" xmlns="http://www.w3.org/2000/svg">
<path d="M9.23001 21.25H14.77" stroke="black" stroke-width="1.5" stroke-linecap="round" stroke-linejoin="round"/>
<path d="M12 17.55V21.25" stroke="black" stroke-width="1.5" stroke-linecap="round" stroke-linejoin="round"/>
<path d="M12 17.55C16.0869 17.55 19.4 14.2369 19.4 10.15C19.4 6.06309 16.0869 2.75 12 2.75C7.91309 2.75 4.60001 6.06309 4.60001 10.15C4.60001 14.2369 7.91309 17.55 12 17.55Z" stroke="black" stroke-width="1.5" stroke-linecap="round" stroke-linejoin="round"/>
<path d="M12 12.62C13.3641 12.62 14.47 11.5141 14.47 10.15C14.47 8.78586 13.3641 7.68 12 7.68C10.6359 7.68 9.53 8.78586 9.53 10.15C9.53 11.5141 10.6359 12.62 12 12.62Z" stroke="black" stroke-width="1.5" stroke-linecap="round" stroke-linejoin="round"/>
</svg>
