<svg width="24" height="24" viewBox="0 0 24 24" fill="none" xmlns="http://www.w3.org/2000/svg">
<path d="M16.44 17.78L17.3 18.65L18.88 17.07" stroke="black" stroke-width="1.5" stroke-linecap="round" stroke-linejoin="round"/>
<path d="M12 21.24C6.9 21.24 2.75999 17.1 2.75999 12C2.75999 6.90002 6.9 2.76001 12 2.76001C17.1 2.76001 21.24 6.90002 21.24 12" stroke="black" stroke-width="1.5" stroke-linecap="round" stroke-linejoin="round"/>
<path d="M8.85001 9.83998C9.79001 9.24998 10.9 8.91998 12.08 8.91998C13.19 8.91998 14.23 9.20999 15.12 9.71999" stroke="black" stroke-width="1.5" stroke-linecap="round" stroke-linejoin="round"/>
<path d="M10.47 12.46C10.94 12.16 11.5 12 12.09 12C12.64 12 13.17 12.14 13.61 12.4" stroke="black" stroke-width="1.5" stroke-linecap="round" stroke-linejoin="round"/>
<path d="M12.11 16.11C11.54 16.11 11.08 15.65 11.08 15.08C11.08 14.51 11.53 14.05 12.1 14.05H12.11C12.68 14.05 13.14 14.51 13.14 15.08C13.14 15.65 12.68 16.11 12.11 16.11Z" fill="black"/>
<path d="M17.66 21.25C19.6427 21.25 21.25 19.6427 21.25 17.66C21.25 15.6773 19.6427 14.07 17.66 14.07C15.6773 14.07 14.07 15.6773 14.07 17.66C14.07 19.6427 15.6773 21.25 17.66 21.25Z" stroke="black" stroke-width="1.5" stroke-linecap="round" stroke-linejoin="round"/>
</svg>
