<svg width="24" height="24" viewBox="0 0 24 24" fill="none" xmlns="http://www.w3.org/2000/svg">
<path d="M5.56 17.58C7.12849 17.58 8.4 16.3085 8.4 14.74C8.4 13.1715 7.12849 11.9 5.56 11.9C3.99151 11.9 2.72 13.1715 2.72 14.74C2.72 16.3085 3.99151 17.58 5.56 17.58Z" stroke="black" stroke-width="1.5" stroke-linecap="round" stroke-linejoin="round"/>
<path d="M18.44 17.58C20.0085 17.58 21.28 16.3085 21.28 14.74C21.28 13.1715 20.0085 11.9 18.44 11.9C16.8715 11.9 15.6 13.1715 15.6 14.74C15.6 16.3085 16.8715 17.58 18.44 17.58Z" stroke="black" stroke-width="1.5" stroke-linecap="round" stroke-linejoin="round"/>
<path d="M5.67 14.87L12.31 14.94" stroke="black" stroke-width="1.5" stroke-linecap="round" stroke-linejoin="round"/>
<path d="M5.67 14.87L9.38 9.79" stroke="black" stroke-width="1.5" stroke-linecap="round" stroke-linejoin="round"/>
<path d="M12.31 14.94L15.34 9.79" stroke="black" stroke-width="1.5" stroke-linecap="round" stroke-linejoin="round"/>
<path d="M9.38 9.79H15.34" stroke="black" stroke-width="1.5" stroke-linecap="round" stroke-linejoin="round"/>
<path d="M8.59 6.41H6.34" stroke="black" stroke-width="1.5" stroke-linecap="round" stroke-linejoin="round"/>
<path d="M18.44 14.6L15.34 9.79" stroke="black" stroke-width="1.5" stroke-linecap="round" stroke-linejoin="round"/>
<path d="M15.34 9.79V6.41" stroke="black" stroke-width="1.5" stroke-linecap="round" stroke-linejoin="round"/>
<path d="M15.34 6.41H18.72" stroke="black" stroke-width="1.5" stroke-linecap="round" stroke-linejoin="round"/>
<path d="M12.31 14.94L7.47 6.41" stroke="black" stroke-width="1.5" stroke-linecap="round" stroke-linejoin="round"/>
</svg>
