<svg width="24" height="24" viewBox="0 0 24 24" fill="none" xmlns="http://www.w3.org/2000/svg">
<path d="M20.22 6.86H3.78V17.99C3.78 19.22 4.77999 20.22 6.00999 20.22H17.99C19.22 20.22 20.22 19.22 20.22 17.99V6.86V6.86Z" stroke="black" stroke-width="1.5" stroke-linecap="round" stroke-linejoin="round"/>
<path d="M14.81 10.97H9.19C7.9 10.97 6.86 12.01 6.86 13.3V20.22H17.14V13.3C17.14 12.02 16.1 10.97 14.81 10.97Z" stroke="black" stroke-width="1.5" stroke-linecap="round" stroke-linejoin="round"/>
<path d="M20.22 3.78H3.78C3.21 3.78 2.75 4.24 2.75 4.81V5.84C2.75 6.41 3.21 6.87 3.78 6.87H20.22C20.79 6.87 21.25 6.41 21.25 5.84V4.81C21.25 4.24 20.79 3.78 20.22 3.78Z" stroke="black" stroke-width="1.5" stroke-linecap="round" stroke-linejoin="round"/>
<path d="M13.62 20.1C14.04 19.75 14.36 19.27 14.49 18.71C14.51 18.63 14.53 18.55 14.55 18.48C14.58 18.29 14.6 18.14 14.6 18.02V17.97C14.6 17.19 14.25 16.31 13.92 15.74L13.62 15.22C13.57 15.13 13.48 15.08 13.38 15.07C13.28 15.07 13.19 15.12 13.14 15.21L12.79 15.76L12.06 14.22C12.01 14.12 11.91 14.06 11.8 14.06C11.72 14.06 11.63 14.1 11.57 14.17L10.14 15.97C9.67 16.54 9.41 17.27 9.41 18.01C9.41 18.13 9.43 18.29 9.47 18.49C9.49 18.56 9.5 18.64 9.52 18.72C9.66 19.29 9.97 19.77 10.39 20.11" stroke="black" stroke-width="1.5" stroke-linecap="round" stroke-linejoin="round"/>
</svg>
