<svg width="24" height="24" viewBox="0 0 24 24" fill="none" xmlns="http://www.w3.org/2000/svg">
<path d="M12.13 14.68L9.33001 11.88L3.06 18.15C2.65 18.56 2.65 19.22 3.06 19.63L4.39 20.96C4.8 21.37 5.46 21.37 5.87 20.96L12.13 14.68Z" stroke="black" stroke-width="1.5" stroke-linecap="round" stroke-linejoin="round"/>
<path d="M18.43 9.76999L14.23 5.57C13.84 5.18 13.22 5.18 12.83 5.57L10.73 7.66999C9.17999 9.21999 9.17999 11.73 10.73 13.28C12.28 14.83 14.79 14.83 16.34 13.28L18.44 11.18C18.82 10.78 18.82 10.16 18.43 9.76999Z" stroke="black" stroke-width="1.5" stroke-linecap="round" stroke-linejoin="round"/>
<path d="M11.43 6.97L17.03 12.57" stroke="black" stroke-width="1.5" stroke-linecap="round" stroke-linejoin="round"/>
<path d="M18.43 5.57L19.14 4.86" stroke="black" stroke-width="1.5" stroke-linecap="round" stroke-linejoin="round"/>
<path d="M20.26 7.39H21.25" stroke="black" stroke-width="1.5" stroke-linecap="round" stroke-linejoin="round"/>
<path d="M16.61 3.74V2.75" stroke="black" stroke-width="1.5" stroke-linecap="round" stroke-linejoin="round"/>
</svg>
