<svg width="24" height="24" viewBox="0 0 24 24" fill="none" xmlns="http://www.w3.org/2000/svg">
<path d="M16.62 4.81C14.92 4.81 13.54 6.15 13.54 7.79C13.54 9.83 16.3 12.82 16.42 12.95C16.53 13.07 16.72 13.07 16.83 12.95C16.95 12.82 19.71 9.83 19.71 7.79C19.71 6.14 18.33 4.81 16.62 4.81Z" stroke="black" stroke-width="1.5" stroke-linecap="round" stroke-linejoin="round"/>
<path d="M16.62 8.91C17.2054 8.91 17.68 8.43542 17.68 7.85C17.68 7.26458 17.2054 6.79 16.62 6.79C16.0346 6.79 15.56 7.26458 15.56 7.85C15.56 8.43542 16.0346 8.91 16.62 8.91Z" fill="black"/>
<path d="M16.62 13.03V15.08" stroke="black" stroke-width="1.5" stroke-linecap="round" stroke-linejoin="round"/>
<path d="M16.62 14.73V19.47C16.62 20.45 15.82 21.25 14.84 21.25H6.07001C5.09001 21.25 4.28999 20.45 4.28999 19.47V4.53C4.28999 3.55 5.09001 2.75 6.07001 2.75H14.84C15.82 2.75 16.62 3.55 16.62 4.53V4.81" stroke="black" stroke-width="1.5" stroke-linecap="round" stroke-linejoin="round"/>
<path d="M4.87 18.15H16.17" stroke="black" stroke-width="1.5" stroke-linecap="round" stroke-linejoin="round"/>
<path d="M16 17.5L4.5 6" stroke="black" stroke-width="1.5" stroke-linecap="round" stroke-linejoin="round"/>
<path d="M9.42999 10.97L4.28999 16.11" stroke="black" stroke-width="1.5" stroke-linecap="round" stroke-linejoin="round"/>
</svg>
