<svg width="24" height="24" viewBox="0 0 24 24" fill="none" xmlns="http://www.w3.org/2000/svg">
<path d="M14.21 15.68L17.53 11.64C18.33 10.67 18.77 9.44999 18.77 8.18999C18.77 5.25999 16.46 2.86999 13.56 2.74999C13.48 2.74999 13.41 2.73999 13.33 2.73999H12H10.68C10.6 2.73999 10.53 2.73999 10.45 2.74999C7.55001 2.86999 5.23999 5.25999 5.23999 8.18999C5.23999 9.44999 5.68001 10.67 6.48001 11.64L9.79999 15.68" stroke="black" stroke-width="1.5" stroke-linecap="round" stroke-linejoin="round"/>
<path d="M9.79001 15.68H14.21" stroke="black" stroke-width="1.5" stroke-linecap="round" stroke-linejoin="round"/>
<path d="M14.05 18.17H9.94V21.25H14.05V18.17Z" stroke="black" stroke-width="1.5" stroke-linecap="round" stroke-linejoin="round"/>
<path d="M12 2.74999C11.47 3.31999 9.55002 5.51999 9.39002 8.94999C9.23002 12.65 11.24 15.14 11.71 15.69" stroke="black" stroke-width="1.5" stroke-linecap="round" stroke-linejoin="round"/>
<path d="M12 2.74999C12.53 3.31999 14.45 5.51999 14.61 8.94999C14.77 12.65 12.76 15.14 12.29 15.69" stroke="black" stroke-width="1.5" stroke-linecap="round" stroke-linejoin="round"/>
</svg>
