<svg width="24" height="24" viewBox="0 0 24 24" fill="none" xmlns="http://www.w3.org/2000/svg">
<path d="M12 5.08C11.3 5.08 10.74 5.65 10.74 6.34C10.74 7.04 11.31 7.6 12 7.6C12.69 7.6 13.26 7.03 13.26 6.34C13.26 5.65 12.7 5.08 12 5.08Z" fill="black"/>
<path d="M12 2.75C9.16 2.75 6.85999 5.05 6.85999 7.89C6.85999 10 8.13 11.8 9.94 12.6C9.94 12.74 9.94 12.89 9.94 13.03L8.91 14.06L9.94 15.09L8.91 16.12L9.94 17.15L8.91 18.18L9.94 19.21C9.94 19.55 9.94 19.9 9.94 20.24C10.63 20.58 11.31 20.93 12 21.27C12.69 20.93 13.37 20.58 14.06 20.24V12.61C15.87 11.82 17.14 10.01 17.14 7.9C17.14 5.05 14.84 2.75 12 2.75Z" stroke="black" stroke-width="1.5" stroke-linecap="round" stroke-linejoin="round"/>
</svg>
