<svg width="24" height="24" viewBox="0 0 24 24" fill="none" xmlns="http://www.w3.org/2000/svg">
<path d="M19.19 20.31H4.79999C3.65999 20.31 2.73999 19.39 2.73999 18.25V14.14C2.73999 13 3.65999 12.08 4.79999 12.08H19.19C20.33 12.08 21.25 13 21.25 14.14V18.25C21.25 19.39 20.33 20.31 19.19 20.31Z" stroke="black" stroke-width="1.5" stroke-linecap="round" stroke-linejoin="round"/>
<path d="M12 6.78C12.8505 6.78 13.54 6.09052 13.54 5.24C13.54 4.38948 12.8505 3.7 12 3.7C11.1495 3.7 10.46 4.38948 10.46 5.24C10.46 6.09052 11.1495 6.78 12 6.78Z" stroke="black" stroke-width="1.5" stroke-linecap="round" stroke-linejoin="round"/>
<path d="M4.81 11.92L10.46 6.26" stroke="black" stroke-width="1.5" stroke-linecap="round" stroke-linejoin="round"/>
<path d="M19.11 11.92L13.46 6.26" stroke="black" stroke-width="1.5" stroke-linecap="round" stroke-linejoin="round"/>
<path d="M4.92001 15.74H6.32999V14.9C6.32999 14.84 6.34 14.78 6.37 14.72C6.39 14.66 6.43 14.62 6.47 14.58C6.51 14.54 6.56 14.51 6.62 14.48C6.68 14.46 6.73999 14.45 6.79999 14.45C6.85999 14.45 6.92001 14.46 6.98001 14.48C7.04001 14.5 7.08 14.53 7.12 14.58C7.16 14.62 7.19 14.67 7.22 14.72C7.24 14.78 7.25 14.84 7.25 14.9V17.49C7.25 17.55 7.23999 17.61 7.20999 17.67C7.18999 17.73 7.14999 17.77 7.10999 17.82C7.06999 17.86 7.01999 17.89 6.95999 17.92C6.89999 17.94 6.84 17.95 6.78 17.95C6.72 17.95 6.66001 17.94 6.60001 17.92C6.54001 17.9 6.50001 17.86 6.45001 17.82C6.41001 17.78 6.38001 17.73 6.35001 17.67C6.32001 17.61 6.31 17.55 6.31 17.49V16.66H4.89999V17.49C4.89999 17.55 4.88999 17.61 4.85999 17.67C4.83999 17.73 4.80001 17.77 4.76001 17.82C4.72001 17.86 4.66999 17.89 4.60999 17.92C4.54999 17.94 4.48999 17.95 4.42999 17.95C4.36999 17.95 4.31 17.94 4.25 17.92C4.19 17.9 4.15001 17.86 4.10001 17.82C4.06001 17.78 4.03 17.73 4 17.67C3.98 17.61 3.95999 17.55 3.95999 17.49V14.9C3.95999 14.84 3.97 14.78 4 14.72C4.02 14.66 4.06001 14.62 4.10001 14.58C4.14001 14.54 4.19 14.51 4.25 14.48C4.31 14.46 4.36999 14.45 4.42999 14.45C4.48999 14.45 4.54999 14.46 4.60999 14.48C4.66999 14.5 4.72001 14.53 4.76001 14.58C4.80001 14.62 4.82999 14.67 4.85999 14.72C4.87999 14.78 4.89999 14.84 4.89999 14.9V15.74H4.92001Z" fill="black"/>
<path d="M9.41 14.42C9.66 14.42 9.89001 14.47 10.1 14.56C10.32 14.65 10.5 14.78 10.67 14.94C10.83 15.1 10.96 15.29 11.05 15.51C11.14 15.73 11.19 15.96 11.19 16.2C11.19 16.45 11.14 16.68 11.05 16.89C10.96 17.11 10.83 17.29 10.67 17.46C10.51 17.62 10.32 17.75 10.1 17.84C9.88001 17.93 9.65 17.98 9.41 17.98C9.16 17.98 8.93 17.93 8.72 17.84C8.5 17.75 8.32 17.62 8.16 17.46C8 17.3 7.87 17.11 7.78 16.89C7.69 16.67 7.64001 16.44 7.64001 16.2C7.64001 15.96 7.69 15.73 7.78 15.51C7.87 15.29 8 15.11 8.16 14.94C8.32 14.78 8.51 14.65 8.72 14.56C8.94 14.46 9.17 14.42 9.41 14.42ZM9.42001 15.34C9.30001 15.34 9.18999 15.36 9.07999 15.41C8.97999 15.46 8.89 15.52 8.81 15.59C8.73 15.67 8.67 15.76 8.63 15.86C8.59 15.96 8.56 16.08 8.56 16.19C8.56 16.31 8.58 16.42 8.63 16.53C8.67 16.63 8.73 16.72 8.81 16.8C8.89 16.88 8.97999 16.94 9.07999 16.98C9.17999 17.02 9.30001 17.05 9.42001 17.05C9.54001 17.05 9.65001 17.03 9.76001 16.98C9.86001 16.94 9.95 16.88 10.03 16.8C10.11 16.72 10.17 16.63 10.21 16.53C10.25 16.43 10.28 16.31 10.28 16.19C10.28 16.07 10.26 15.96 10.21 15.86C10.17 15.76 10.1 15.66 10.03 15.59C9.95 15.51 9.86001 15.45 9.76001 15.41C9.65001 15.36 9.54001 15.34 9.42001 15.34Z" fill="black"/>
<path d="M13.17 15.36V17.49C13.17 17.55 13.16 17.61 13.13 17.67C13.1 17.72 13.07 17.77 13.03 17.81C12.99 17.85 12.94 17.88 12.88 17.91C12.82 17.93 12.76 17.94 12.7 17.94C12.64 17.94 12.58 17.93 12.52 17.91C12.46 17.89 12.42 17.85 12.37 17.81C12.32 17.77 12.3 17.72 12.27 17.67C12.25 17.62 12.23 17.56 12.23 17.49V15.36H11.69C11.63 15.36 11.57 15.35 11.51 15.32C11.45 15.3 11.41 15.26 11.37 15.22C11.33 15.18 11.3 15.13 11.27 15.07C11.24 15.01 11.23 14.95 11.23 14.89C11.23 14.83 11.24 14.77 11.27 14.71C11.29 14.65 11.33 14.61 11.37 14.57C11.41 14.53 11.46 14.5 11.51 14.47C11.57 14.45 11.63 14.43 11.69 14.43H13.7C13.76 14.43 13.82 14.44 13.88 14.47C13.94 14.49 13.99 14.53 14.03 14.57C14.07 14.61 14.1 14.66 14.13 14.72C14.15 14.78 14.17 14.84 14.17 14.9C14.17 14.96 14.16 15.02 14.13 15.08C14.11 15.13 14.07 15.18 14.03 15.23C13.99 15.27 13.94 15.3 13.88 15.33C13.82 15.35 13.76 15.37 13.7 15.37H13.17V15.36Z" fill="black"/>
<path d="M14.95 17.94C14.89 17.93 14.83 17.92 14.78 17.89C14.73 17.87 14.68 17.83 14.65 17.79C14.61 17.75 14.58 17.7 14.56 17.65C14.54 17.6 14.53 17.54 14.53 17.48V14.89C14.53 14.83 14.54 14.77 14.57 14.71C14.59 14.65 14.63 14.6 14.67 14.56C14.71 14.52 14.76 14.49 14.82 14.46C14.88 14.44 14.94 14.42 15 14.42H16.71C16.77 14.42 16.83 14.43 16.89 14.46C16.95 14.48 16.99 14.52 17.04 14.56C17.08 14.6 17.11 14.65 17.14 14.71C17.16 14.77 17.17 14.83 17.17 14.89C17.17 14.95 17.16 15.01 17.14 15.07C17.12 15.13 17.08 15.18 17.04 15.22C17 15.26 16.95 15.29 16.89 15.32C16.83 15.34 16.77 15.36 16.71 15.36H15.47V15.67H16.5C16.56 15.67 16.62 15.68 16.68 15.7C16.74 15.72 16.78 15.76 16.83 15.8C16.87 15.84 16.9 15.89 16.93 15.95C16.95 16.01 16.97 16.07 16.97 16.13C16.97 16.19 16.96 16.25 16.93 16.31C16.91 16.36 16.87 16.41 16.83 16.45C16.79 16.49 16.74 16.52 16.68 16.54C16.62 16.56 16.56 16.57 16.5 16.57H15.47V17H16.71C16.77 17 16.83 17.01 16.89 17.04C16.95 17.07 16.99 17.1 17.04 17.14C17.09 17.18 17.11 17.23 17.14 17.29C17.16 17.35 17.17 17.41 17.17 17.47C17.17 17.53 17.16 17.59 17.14 17.65C17.12 17.71 17.08 17.75 17.04 17.8C17 17.85 16.95 17.87 16.89 17.9C16.83 17.92 16.77 17.93 16.71 17.93H14.95V17.94Z" fill="black"/>
<path d="M18.42 17.02L19.54 17.03C19.6 17.03 19.66 17.04 19.72 17.07C19.78 17.1 19.82 17.13 19.87 17.17C19.91 17.21 19.94 17.26 19.97 17.32C19.99 17.38 20.01 17.44 20.01 17.5C20.01 17.57 20 17.63 19.97 17.68C19.95 17.74 19.91 17.78 19.87 17.82C19.83 17.86 19.78 17.89 19.72 17.91C19.66 17.93 19.6 17.94 19.54 17.94H17.98C17.91 17.93 17.85 17.92 17.79 17.89C17.73 17.86 17.68 17.83 17.64 17.79C17.6 17.75 17.57 17.69 17.54 17.63C17.52 17.57 17.5 17.49 17.5 17.41V14.89C17.5 14.83 17.51 14.77 17.54 14.71C17.56 14.66 17.6 14.61 17.64 14.57C17.68 14.53 17.73 14.5 17.79 14.47C17.85 14.45 17.91 14.44 17.97 14.44C18.03 14.44 18.09 14.45 18.15 14.47C18.21 14.49 18.26 14.52 18.3 14.57C18.34 14.61 18.37 14.66 18.4 14.71C18.42 14.77 18.44 14.82 18.44 14.89V17.02H18.42Z" fill="black"/>
</svg>
