<svg width="24" height="24" viewBox="0 0 24 24" fill="none" xmlns="http://www.w3.org/2000/svg">
<path d="M12 2.75C8.31 2.75 5.3 5.76 5.3 9.45C5.3 14.03 11.3 20.77 11.55 21.05C11.79 21.32 12.21 21.32 12.45 21.05C12.71 20.77 18.7 14.03 18.7 9.45C18.7 5.76 15.69 2.75 12 2.75Z" stroke="black" stroke-width="1.5" stroke-linecap="round" stroke-linejoin="round"/>
<path d="M12.3733 11.7903C13.666 11.5846 14.5471 10.3698 14.3414 9.07716C14.1356 7.78447 12.9209 6.90335 11.6282 7.10911C10.3355 7.31487 9.45437 8.5296 9.66013 9.82228C9.86589 11.115 11.0806 11.9961 12.3733 11.7903Z" stroke="black" stroke-width="1.5" stroke-linecap="round" stroke-linejoin="round"/>
</svg>
