<svg width="24" height="24" viewBox="0 0 24 24" fill="none" xmlns="http://www.w3.org/2000/svg">
<path d="M13.67 4.8V6.9H10.33V4.8C10.33 4.64 10.55 4.5 10.81 4.5H13.19C13.45 4.5 13.67 4.63 13.67 4.8Z" stroke="black" stroke-width="1.5" stroke-linecap="round" stroke-linejoin="round"/>
<path d="M5.82999 13.73L6.60999 8.32C6.71999 7.54 7.58001 6.95 8.60001 6.95H15.39C16.41 6.95 17.26 7.54 17.38 8.32L18.16 13.73" stroke="black" stroke-width="1.5" stroke-linecap="round" stroke-linejoin="round"/>
<path d="M6.02999 18.72L4.1 15.18C4.04 15.07 4.02999 14.93 4.05999 14.81C4.09999 14.69 4.18998 14.58 4.29998 14.53L5.82998 13.74L11.78 10.68C11.84 10.64 11.93 10.63 12 10.63C12.07 10.63 12.16 10.65 12.22 10.68L18.17 13.74L19.7 14.53C19.81 14.58 19.9 14.69 19.94 14.81C19.98 14.94 19.97 15.07 19.9 15.18L17.97 18.72" stroke="black" stroke-width="1.5" stroke-linecap="round" stroke-linejoin="round"/>
<path d="M21.25 18.47C19.71 18.47 19.71 19.5 18.17 19.5C16.63 19.5 16.63 18.47 15.09 18.47C13.55 18.47 13.55 19.5 12.01 19.5C10.47 19.5 10.47 18.47 8.92999 18.47C7.38999 18.47 7.39 19.5 5.84 19.5C4.3 19.5 4.3 18.47 2.75 18.47" stroke="black" stroke-width="1.5" stroke-linecap="round" stroke-linejoin="round"/>
</svg>
