<svg width="24" height="24" viewBox="0 0 24 24" fill="none" xmlns="http://www.w3.org/2000/svg">
<path d="M5.06 14.55C4.8 14.31 4.58001 14.04 4.39001 13.73C3.81001 12.77 3.54 11.36 3.95 10.27C4.23 9.51 4.83001 8.93 5.83001 8.77C6.56001 8.65 8.46001 8.63 8.46001 8.63H15.47C15.47 8.63 17.38 8.66 18.1 8.77C19.27 8.96 19.9 9.72001 20.1 10.67C20.28 11.61 20.06 12.86 19.54 13.72C18.46 15.5 16.14 16.27 13.79 13.85C13.04 13.08 12.68 12.43 12.5 11.78C12.5 11.78 12.47 11.63 12.45 11.57C12.38 11.37 12.19 11.2 11.96 11.2C11.72 11.2 11.52 11.37 11.46 11.58C11.44 11.63 11.41 11.78 11.41 11.78C11.23 12.43 10.87 13.07 10.12 13.83C8.2 15.84 6.28 15.67 5.06 14.55Z" stroke="black" stroke-width="1.5" stroke-linecap="round" stroke-linejoin="round"/>
<path d="M3.81 10.8H2.75" stroke="black" stroke-width="1.5" stroke-linecap="round" stroke-linejoin="round"/>
<path d="M20.19 10.8H21.25" stroke="black" stroke-width="1.5" stroke-linecap="round" stroke-linejoin="round"/>
</svg>
