<svg width="24" height="24" viewBox="0 0 24 24" fill="none" xmlns="http://www.w3.org/2000/svg">
<path d="M3.78 15.08H4.81C5.38 15.08 5.84 15.54 5.84 16.11V20.22C5.84 20.79 5.38 21.25 4.81 21.25H3.78C3.21 21.25 2.75 20.79 2.75 20.22V16.11C2.75 15.54 3.21 15.08 3.78 15.08Z" stroke="black" stroke-width="1.5" stroke-linecap="round" stroke-linejoin="round"/>
<path d="M19.19 15.08H20.22C20.79 15.08 21.25 15.54 21.25 16.11V20.22C21.25 20.79 20.79 21.25 20.22 21.25H19.19C18.62 21.25 18.16 20.79 18.16 20.22V16.11C18.17 15.54 18.63 15.08 19.19 15.08Z" stroke="black" stroke-width="1.5" stroke-linecap="round" stroke-linejoin="round"/>
<path d="M18.17 9.94V20.22C18.17 20.79 17.71 21.25 17.14 21.25H6.85999C6.28999 21.25 5.82999 20.79 5.82999 20.22V9.94C5.82999 9.37 6.28999 8.91 6.85999 8.91H10.46V14.05C10.97 14.39 11.49 14.74 12 15.08C12.51 14.74 13.03 14.39 13.54 14.05V8.91H17.14C17.7 8.92 18.17 9.38 18.17 9.94Z" stroke="black" stroke-width="1.5" stroke-linecap="round" stroke-linejoin="round"/>
<path d="M20.22 4.81V6.87C20.22 8 19.29 8.93 18.16 8.93H13.54V5.85H10.46V8.93H5.76001C4.62001 8.93 3.70001 8 3.70001 6.87V4.81C3.70001 3.68 4.61001 2.75 5.76001 2.75H18.17C19.3 2.75 20.22 3.67 20.22 4.81Z" stroke="black" stroke-width="1.5" stroke-linecap="round" stroke-linejoin="round"/>
<path d="M13.54 5.83V14.05C13.03 14.39 12.51 14.74 12 15.08C11.49 14.74 10.97 14.39 10.46 14.05V5.83H13.54Z" stroke="black" stroke-width="1.5" stroke-linecap="round" stroke-linejoin="round"/>
<path d="M4.81 21.25H20.22" stroke="black" stroke-width="1.5" stroke-linecap="round" stroke-linejoin="round"/>
<path d="M8.92001 12H15.08" stroke="black" stroke-width="1.5" stroke-linecap="round" stroke-linejoin="round"/>
<path d="M13.03 18.17H10.97" stroke="black" stroke-width="1.5" stroke-linecap="round" stroke-linejoin="round"/>
</svg>
