<svg width="24" height="24" viewBox="0 0 24 24" fill="none" xmlns="http://www.w3.org/2000/svg">
<path d="M14.86 9.52C14.95 9.61 15.01 9.7 15.05 9.81C15.09 9.92 15.12 10.03 15.12 10.14C15.12 10.26 15.1 10.37 15.05 10.48C15.01 10.59 14.94 10.69 14.85 10.77C14.76 10.86 14.67 10.92 14.55 10.97C14.44 11.02 14.32 11.04 14.21 11.04C14.09 11.04 13.98 11.02 13.87 10.98C13.76 10.94 13.66 10.88 13.58 10.79C13.41 10.62 13.22 10.49 13.01 10.42C12.81 10.34 12.59 10.3 12.36 10.3C12.14 10.3 11.93 10.34 11.73 10.43C11.53 10.52 11.35 10.63 11.19 10.78C11.04 10.93 10.91 11.11 10.82 11.31C10.73 11.51 10.68 11.74 10.68 11.98C10.68 12.21 10.72 12.42 10.81 12.63C10.89 12.83 11.01 13.01 11.16 13.17C11.31 13.33 11.48 13.45 11.68 13.54C11.88 13.63 12.1 13.68 12.33 13.68C12.56 13.69 12.78 13.65 12.98 13.57C13.18 13.49 13.37 13.36 13.56 13.18C13.64 13.1 13.74 13.04 13.85 13C13.96 12.96 14.08 12.94 14.19 12.94C14.31 12.94 14.42 12.96 14.53 13C14.64 13.04 14.74 13.1 14.82 13.18C14.91 13.27 14.98 13.37 15.02 13.48C15.06 13.59 15.08 13.71 15.08 13.82C15.08 13.94 15.06 14.05 15.02 14.16C14.98 14.27 14.91 14.37 14.83 14.45C14.48 14.8 14.09 15.06 13.66 15.23C13.23 15.4 12.78 15.49 12.33 15.49C12.02 15.49 11.72 15.45 11.42 15.36C11.13 15.28 10.85 15.16 10.6 15.01C10.35 14.86 10.11 14.68 9.89999 14.46C9.68999 14.25 9.50999 14.01 9.35999 13.75C9.20999 13.49 9.09001 13.21 9.01001 12.92C8.93001 12.62 8.88 12.31 8.88 11.99C8.88 11.69 8.92 11.39 9 11.09C9.08 10.8 9.19 10.52 9.34 10.26C9.49 10 9.66 9.76 9.87 9.54C10.08 9.32 10.31 9.14 10.57 8.98C10.83 8.82 11.11 8.7 11.42 8.61C11.72 8.52 12.05 8.48 12.38 8.48C12.83 8.48 13.27 8.56 13.7 8.73C14.12 8.92 14.51 9.18 14.86 9.52Z" fill="black"/>
<path d="M12 21.25C17.1086 21.25 21.25 17.1086 21.25 12C21.25 6.89137 17.1086 2.75 12 2.75C6.89137 2.75 2.75 6.89137 2.75 12C2.75 17.1086 6.89137 21.25 12 21.25Z" stroke="black" stroke-width="1.5" stroke-miterlimit="10"/>
<path d="M7.84 9.84C8.39228 9.84 8.84 9.39228 8.84 8.84C8.84 8.28772 8.39228 7.84 7.84 7.84C7.28771 7.84 6.84 8.28772 6.84 8.84C6.84 9.39228 7.28771 9.84 7.84 9.84Z" fill="black"/>
</svg>
