<svg width="24" height="24" viewBox="0 0 24 24" fill="none" xmlns="http://www.w3.org/2000/svg">
<path d="M18.82 16.52C18.82 18.29 17.43 20.39 15.53 20.4C12.59 20.4 9.64 20.4 6.7 20.4C6.00614 20.4665 5.3085 20.32 4.7 19.98C4.2153 19.6997 3.79483 19.3208 3.46582 18.8677C3.1368 18.4147 2.90656 17.8976 2.79 17.35C2.61006 16.4722 2.73008 15.5594 3.13081 14.7579C3.53155 13.9564 4.18978 13.3127 5 12.93C5.11079 12.8835 5.20568 12.8058 5.27315 12.7064C5.34061 12.607 5.37773 12.4901 5.38 12.37C5.36918 11.7063 5.50865 11.0488 5.78795 10.4467C6.06726 9.84463 6.47916 9.31351 6.99282 8.89316C7.50648 8.4728 8.10859 8.1741 8.75405 8.01943C9.39951 7.86475 10.0716 7.85811 10.72 7.99999C11.7033 8.15381 12.6018 8.64708 13.2594 9.39419C13.917 10.1413 14.2922 11.0951 14.32 12.09C14.3263 12.1676 14.3479 12.2431 14.3835 12.3123C14.4191 12.3816 14.4681 12.443 14.5276 12.4932C14.5871 12.5434 14.6559 12.5813 14.7301 12.6048C14.8043 12.6283 14.8825 12.6368 14.96 12.63C15.8535 12.561 16.738 12.8487 17.42 13.43C17.42 13.43 17.51 13.51 17.62 13.63C18.3791 14.4016 18.8093 15.4376 18.82 16.52V16.52Z" stroke="black" stroke-width="1.5" stroke-linecap="round" stroke-linejoin="round"/>
<path d="M12.51 6.56C13.1895 6.25022 13.936 6.11604 14.6809 6.16977C15.4258 6.2235 16.1452 6.46342 16.7733 6.86752C17.4013 7.27162 17.9178 7.82696 18.2755 8.4826C18.6331 9.13824 18.8203 9.87318 18.82 10.62C18.8219 11.0367 18.7613 11.4513 18.64 11.85" stroke="black" stroke-width="1.5" stroke-linecap="round" stroke-linejoin="round"/>
<path d="M18.89 5.51L19.52 4.88" stroke="black" stroke-width="1.5" stroke-linecap="round" stroke-linejoin="round"/>
<path d="M16.32 4.44L16.42 3.56" stroke="black" stroke-width="1.5" stroke-linecap="round" stroke-linejoin="round"/>
<path d="M20.39 7.95L21.25 7.74" stroke="black" stroke-width="1.5" stroke-linecap="round" stroke-linejoin="round"/>
</svg>
