<svg width="24" height="24" viewBox="0 0 24 24" fill="none" xmlns="http://www.w3.org/2000/svg">
<path d="M20.28 15.18C20.2675 14.5481 20.1253 13.9256 19.8621 13.351C19.5989 12.7764 19.2203 12.2621 18.75 11.84C18.0028 11.224 17.0453 10.9228 16.08 11C15.9954 11.0126 15.9092 11.0076 15.8266 10.9853C15.7441 10.963 15.667 10.9238 15.6003 10.8703C15.5337 10.8167 15.4788 10.75 15.4391 10.6742C15.3995 10.5985 15.376 10.5153 15.37 10.43C14.98 4.26 5.74 4.35 5.59 10.69C5.58938 10.8195 5.55128 10.946 5.48029 11.0542C5.4093 11.1625 5.30848 11.2478 5.19 11.3C4.31673 11.7338 3.61272 12.4459 3.18902 13.3241C2.76532 14.2023 2.64604 15.1965 2.85 16.15C2.9778 16.7442 3.229 17.305 3.58731 17.7959C3.94562 18.2869 4.40306 18.6971 4.93 19C5.58444 19.3548 6.32809 19.5112 7.07 19.45H16.7C18.77 19.39 20.28 17.11 20.28 15.18Z" stroke="black" stroke-width="1.5" stroke-linecap="round" stroke-linejoin="round"/>
<path d="M21.15 10.86C21.2093 10.645 21.2396 10.423 21.24 10.2C21.2275 9.82218 21.1397 9.45067 20.9817 9.10723C20.8237 8.7638 20.5987 8.45536 20.32 8.2C19.8683 7.82146 19.2881 7.63163 18.7 7.67C18.6487 7.67553 18.5969 7.67084 18.5474 7.6562C18.498 7.64157 18.452 7.61727 18.412 7.58472C18.372 7.55217 18.3388 7.51202 18.3145 7.46658C18.2901 7.42114 18.275 7.37132 18.27 7.32C18.2485 6.88228 18.1288 6.45499 17.9198 6.06983C17.7107 5.68467 17.4176 5.35152 17.0622 5.09506C16.7068 4.83861 16.2983 4.66545 15.8668 4.5884C15.4354 4.51136 14.9922 4.53241 14.57 4.65" stroke="black" stroke-width="1.5" stroke-linecap="round" stroke-linejoin="round"/>
</svg>
