<svg width="24" height="24" viewBox="0 0 24 24" fill="none" xmlns="http://www.w3.org/2000/svg">
<path d="M21.25 14.68C21.25 12.54 19.73 11.24 19.64 11.16C18.85 10.5 17.85 10.14 16.82 10.23C16.44 10.26 16.1 10 16.07 9.62C15.66 3.11 5.9 3.2 5.75 9.9C5.74 10.18 5.58001 10.43 5.32001 10.54C3.48001 11.38 2.42001 13.54 2.85001 15.67C3.10001 16.9 3.90999 18.08 5.03999 18.7C5.98999 19.22 6.88 19.21 7.3 19.18C10.69 19.17 14.08 19.15 17.48 19.14C19.66 19.13 21.25 16.72 21.25 14.68Z" stroke="black" stroke-width="1.5" stroke-linecap="round" stroke-linejoin="round"/>
</svg>
