<svg width="24" height="24" viewBox="0 0 24 24" fill="none" xmlns="http://www.w3.org/2000/svg">
<path d="M14.18 8.5C14.31 8.5 14.43 8.52 14.54 8.57C14.65 8.62 14.75 8.69 14.83 8.77C14.91 8.85 14.98 8.95 15.02 9.06C15.07 9.17 15.09 9.29 15.09 9.42C15.09 9.55 15.07 9.67 15.02 9.78C14.97 9.89 14.91 9.99 14.83 10.07C14.75 10.15 14.65 10.22 14.54 10.27C14.43 10.32 14.31 10.34 14.18 10.34H11.92V11.24H13.69C13.82 11.24 13.94 11.27 14.05 11.32C14.16 11.37 14.26 11.44 14.34 11.53C14.42 11.62 14.49 11.72 14.54 11.83C14.59 11.94 14.61 12.07 14.61 12.19C14.61 12.32 14.59 12.44 14.54 12.55C14.49 12.66 14.43 12.75 14.34 12.83C14.26 12.91 14.16 12.97 14.05 13.02C13.94 13.07 13.82 13.09 13.69 13.09H11.92V14.6C11.92 14.73 11.9 14.85 11.85 14.96C11.8 15.07 11.74 15.16 11.65 15.25C11.57 15.33 11.47 15.4 11.35 15.44C11.24 15.49 11.12 15.51 10.99 15.51C10.86 15.51 10.74 15.49 10.63 15.44C10.52 15.39 10.42 15.33 10.34 15.25C10.26 15.17 10.19 15.07 10.15 14.96C10.1 14.85 10.08 14.73 10.08 14.6V9.39C10.08 9.29 10.1 9.19 10.13 9.09C10.16 8.99 10.22 8.89 10.29 8.81C10.36 8.72 10.46 8.65 10.57 8.6C10.69 8.54 10.83 8.51 10.99 8.51H14.18V8.5Z" fill="black"/>
<path d="M12 21.25C17.1086 21.25 21.25 17.1086 21.25 12C21.25 6.89137 17.1086 2.75 12 2.75C6.89137 2.75 2.75 6.89137 2.75 12C2.75 17.1086 6.89137 21.25 12 21.25Z" stroke="black" stroke-width="1.5" stroke-miterlimit="10"/>
<path d="M8.19 9.5C8.74229 9.5 9.19 9.05228 9.19 8.5C9.19 7.94772 8.74229 7.5 8.19 7.5C7.63772 7.5 7.19 7.94772 7.19 8.5C7.19 9.05228 7.63772 9.5 8.19 9.5Z" fill="black"/>
</svg>
