<svg width="24" height="24" viewBox="0 0 24 24" fill="none" xmlns="http://www.w3.org/2000/svg">
<path d="M16.08 20.31C14.85 20.91 13.49 21.25 12.03 21.25C6.92 21.25 2.78 17.11 2.78 12C2.78 6.89 6.92 2.75 12.03 2.75C13.49 2.75 14.85 3.09 16.08 3.69C13 5.18 10.88 8.35 10.88 12C10.88 15.65 13 18.82 16.08 20.31Z" stroke="black" stroke-width="1.5" stroke-linecap="round" stroke-linejoin="round"/>
<path d="M21.2 6.95L20.85 6.82C20.56 6.72 20.34 6.49 20.23 6.21L20.1 5.86C20.1 5.85 20.08 5.84 20.07 5.84C20.06 5.84 20.04 5.85 20.04 5.86L19.91 6.21C19.8 6.49 19.58 6.72 19.29 6.82L18.94 6.95C18.93 6.95 18.92 6.97 18.92 6.98C18.92 6.99 18.93 7.01 18.94 7.01L19.29 7.14C19.58 7.24 19.8 7.47 19.91 7.75L20.04 8.1C20.04 8.11 20.06 8.12 20.07 8.12C20.08 8.12 20.1 8.11 20.1 8.1L20.23 7.75C20.34 7.47 20.56 7.24 20.85 7.14L21.2 7.01C21.21 7.01 21.22 6.99 21.22 6.98C21.22 6.97 21.21 6.95 21.2 6.95Z" stroke="black" stroke-width="1.5" stroke-linecap="round" stroke-linejoin="round"/>
<path d="M16.31 11.97L15.96 11.84C15.67 11.74 15.45 11.51 15.34 11.23L15.21 10.88C15.21 10.87 15.19 10.86 15.18 10.86C15.17 10.86 15.15 10.87 15.15 10.88L15.02 11.23C14.91 11.51 14.69 11.74 14.4 11.84L14.05 11.97C14.04 11.97 14.03 11.99 14.03 12C14.03 12.01 14.04 12.03 14.05 12.03L14.4 12.16C14.69 12.26 14.91 12.49 15.02 12.77L15.15 13.12C15.15 13.13 15.17 13.14 15.18 13.14C15.19 13.14 15.21 13.13 15.21 13.12L15.34 12.77C15.45 12.49 15.67 12.26 15.96 12.16L16.31 12.03C16.32 12.03 16.33 12.01 16.33 12C16.33 11.99 16.32 11.97 16.31 11.97Z" stroke="black" stroke-width="1.5" stroke-linecap="round" stroke-linejoin="round"/>
<path d="M21.2 17.27L20.85 17.14C20.56 17.04 20.34 16.81 20.23 16.53L20.1 16.18C20.1 16.17 20.08 16.16 20.07 16.16C20.06 16.16 20.04 16.17 20.04 16.18L19.91 16.53C19.8 16.81 19.58 17.04 19.29 17.14L18.94 17.27C18.93 17.27 18.92 17.29 18.92 17.3C18.92 17.31 18.93 17.33 18.94 17.33L19.29 17.46C19.58 17.56 19.8 17.79 19.91 18.07L20.04 18.42C20.04 18.43 20.06 18.44 20.07 18.44C20.08 18.44 20.1 18.43 20.1 18.42L20.23 18.07C20.34 17.79 20.56 17.56 20.85 17.46L21.2 17.33C21.21 17.33 21.22 17.31 21.22 17.3C21.22 17.29 21.21 17.27 21.2 17.27Z" stroke="black" stroke-width="1.5" stroke-linecap="round" stroke-linejoin="round"/>
</svg>
