<svg width="24" height="24" viewBox="0 0 24 24" fill="none" xmlns="http://www.w3.org/2000/svg">
<path d="M21.25 12C21.25 13.75 20.77 15.38 19.91 16.78C18.85 18.54 17.23 19.91 15.27 20.64C14.25 21.03 13.14 21.25 11.99 21.25C6.87999 21.25 2.73999 17.11 2.73999 12C2.73999 6.89 6.87999 2.75 11.99 2.75C13.24 2.75 14.44 3 15.53 3.45C17.79 4.39 19.61 6.2 20.55 8.47C21 9.55 21.25 10.75 21.25 12Z" stroke="black" stroke-width="1.5" stroke-linecap="round" stroke-linejoin="round"/>
<path d="M20.55 8.46C19.9 9.35 18.84 9.94 17.65 9.94C15.67 9.94 14.05 8.33 14.05 6.34C14.05 5.15 14.64 4.09 15.53 3.44C17.8 4.38 19.62 6.2 20.55 8.46Z" stroke="black" stroke-width="1.5" stroke-linecap="round" stroke-linejoin="round"/>
<path d="M19.91 16.78C18.85 18.54 17.23 19.91 15.27 20.64C15.04 20.21 14.91 19.72 14.91 19.19C14.91 17.48 16.3 16.11 17.99 16.11C18.72 16.11 19.39 16.36 19.91 16.78Z" stroke="black" stroke-width="1.5" stroke-linecap="round" stroke-linejoin="round"/>
<path d="M15.1 14.06C14.53 14.06 14.07 13.6 14.07 13.03C14.07 12.46 14.53 12 15.09 12H15.1C15.67 12 16.13 12.46 16.13 13.03C16.13 13.6 15.67 14.06 15.1 14.06Z" fill="black"/>
<path d="M10.72 18.16C11.4269 18.16 12 17.5869 12 16.88C12 16.1731 11.4269 15.6 10.72 15.6C10.0131 15.6 9.44 16.1731 9.44 16.88C9.44 17.5869 10.0131 18.16 10.72 18.16Z" fill="black"/>
<path d="M8.94 8.92C8.37 8.92 7.91 8.46 7.91 7.89C7.91 7.32 8.36999 6.86 8.92999 6.86H8.94C9.51 6.86 9.97 7.32 9.97 7.89C9.97 8.46 9.5 8.92 8.94 8.92Z" fill="black"/>
</svg>
