<svg width="24" height="24" viewBox="0 0 24 24" fill="none" xmlns="http://www.w3.org/2000/svg">
<path d="M21.25 12.62C21.25 10.48 19.73 9.18 19.64 9.1C18.85 8.44 17.85 8.08 16.82 8.17C16.44 8.2 16.1 7.94 16.07 7.56C15.66 1.05 5.89999 1.14 5.74999 7.84C5.73999 8.12 5.57999 8.37 5.31999 8.48C3.47999 9.32 2.41999 11.48 2.84999 13.61C3.09999 14.84 3.90999 16.02 5.03999 16.64C5.98999 17.16 6.87999 17.15 7.29999 17.12C10.69 17.11 14.08 17.09 17.48 17.08C19.66 17.07 21.25 14.66 21.25 12.62Z" stroke="black" stroke-width="1.5" stroke-linecap="round" stroke-linejoin="round"/>
<path d="M3.78 21.25L4.81 20.22" stroke="black" stroke-width="1.5" stroke-linecap="round" stroke-linejoin="round"/>
<path d="M7.88998 21.25L8.91998 20.22" stroke="black" stroke-width="1.5" stroke-linecap="round" stroke-linejoin="round"/>
<path d="M12 21.25L13.03 20.22" stroke="black" stroke-width="1.5" stroke-linecap="round" stroke-linejoin="round"/>
<path d="M16.11 21.25L17.14 20.22" stroke="black" stroke-width="1.5" stroke-linecap="round" stroke-linejoin="round"/>
</svg>
