<svg width="24" height="24" viewBox="0 0 24 24" fill="none" xmlns="http://www.w3.org/2000/svg">
<path d="M21.42 14.44L17.91 12.53L17.11 9.83001C16.69 8.44001 15.81 7.24 14.61 6.47C13.41 5.68 11.96 5.34 10.54 5.52L7.36003 5.90001C4.29003 6.27001 1.99003 8.89001 2.00003 11.98L2.01003 14.71C2.01003 14.88 2.08003 15.02 2.17003 15.14C2.25003 15.48 2.54004 15.72 2.88004 15.72C2.92004 15.72 2.95003 15.71 2.98003 15.71L7.16004 15.15C7.18004 15.17 7.19004 15.19 7.21004 15.21L9.33003 16.68C11.05 17.88 13.08 18.52 15.17 18.52H15.52C17.74 18.44 19.84 17.67 21.61 16.26C21.88 16.02 22.03 15.67 22 15.32C21.97 14.97 21.76 14.64 21.42 14.44ZM15.49 17.02H15.17C13.38 17.02 11.66 16.48 10.19 15.45L9.34003 14.86L17.14 13.82L20.17 15.47C18.78 16.43 17.17 16.96 15.49 17.02Z" fill="black"/>
</svg>
