<svg width="24" height="24" viewBox="0 0 24 24" fill="none" xmlns="http://www.w3.org/2000/svg">
<path d="M11.12 14.75C11.05 14.68 10.97 14.63 10.88 14.59C10.79 14.55 10.7 14.53 10.59 14.53C10.49 14.53 10.39 14.55 10.3 14.59C10.21 14.63 10.13 14.68 10.07 14.75C10 14.82 9.95 14.89 9.91 14.98C9.87 15.08 9.85001 15.17 9.85001 15.27C9.85001 15.38 9.87 15.48 9.91 15.57C9.95 15.66 10 15.73 10.07 15.8C10.13 15.87 10.21 15.92 10.3 15.96C10.39 15.99 10.49 16.01 10.59 16.01C10.7 16.01 10.79 15.99 10.88 15.96C10.97 15.92 11.05 15.87 11.12 15.8C11.18 15.73 11.24 15.66 11.28 15.57C11.31 15.48 11.33 15.38 11.33 15.27C11.33 15.17 11.31 15.08 11.28 14.98C11.24 14.89 11.18 14.82 11.12 14.75Z" fill="black"/>
<path d="M19.19 14.76C19.13 14.69 19.05 14.64 18.96 14.61C18.87 14.57 18.79 14.55 18.7 14.55H18.29V15.98H18.7C18.79 15.98 18.87 15.97 18.96 15.93C19.05 15.89 19.13 15.84 19.19 15.78C19.26 15.72 19.32 15.64 19.36 15.56C19.4 15.47 19.42 15.38 19.42 15.28C19.42 15.17 19.4 15.08 19.36 14.99C19.32 14.9 19.26 14.83 19.19 14.76Z" fill="black"/>
<path d="M19.63 10.46L14.17 5C14.24 4.78 14.29 4.55 14.29 4.31C14.29 3.05 13.26 2.02 12 2.02C10.74 2.02 9.71001 3.05 9.71001 4.31C9.71001 4.53 9.75 4.74 9.8 4.93L4.28 10.46C4.27 10.46 4.27 10.47 4.27 10.47C2.98 10.72 2 11.85 2 13.22V17.33C2 18.88 3.26 20.13 4.81 20.13H19.19C20.74 20.13 22 18.88 22 17.33V13.22C22 11.82 20.97 10.67 19.63 10.46ZM20.17 15.67C20.13 15.8 20.07 15.92 20.01 16.03C19.94 16.14 19.86 16.25 19.76 16.34C19.66 16.43 19.56 16.51 19.44 16.57C19.33 16.64 19.21 16.69 19.08 16.73C18.95 16.76 18.81 16.78 18.67 16.78H17.89C17.84 16.78 17.78 16.77 17.74 16.75C17.69 16.73 17.65 16.7 17.61 16.67C17.57 16.63 17.55 16.59 17.53 16.54C17.5 16.5 17.49 16.44 17.49 16.39V14.15C17.49 14.09 17.5 14.04 17.53 13.99C17.55 13.95 17.57 13.9 17.61 13.87C17.65 13.83 17.69 13.8 17.74 13.78C17.78 13.76 17.84 13.75 17.89 13.75H18.67C18.81 13.75 18.95 13.77 19.08 13.81C19.21 13.84 19.33 13.9 19.44 13.96C19.56 14.03 19.66 14.11 19.76 14.2C19.86 14.29 19.94 14.4 20.01 14.51C20.07 14.62 20.13 14.74 20.17 14.87C20.2 15 20.22 15.13 20.22 15.27C20.22 15.41 20.2 15.54 20.17 15.67ZM4.23 16.36C4.13 16.27 4.05001 16.16 3.99001 16.05C3.92001 15.94 3.87 15.81 3.83 15.68C3.8 15.55 3.78 15.42 3.78 15.27C3.78 15.14 3.8 15.01 3.83 14.88C3.86 14.75 3.91 14.63 3.98 14.52C4.04 14.4 4.12001 14.3 4.21001 14.2C4.30001 14.11 4.4 14.02 4.52 13.95C4.63 13.89 4.76 13.83 4.89 13.79C5.02 13.75 5.16 13.73 5.31 13.73C5.51 13.73 5.71 13.77 5.89 13.84C6.08 13.92 6.24999 14.03 6.39999 14.18C6.43999 14.22 6.47001 14.26 6.49001 14.31C6.51001 14.36 6.52 14.41 6.52 14.46C6.52 14.51 6.51001 14.56 6.49001 14.61C6.47001 14.65 6.43999 14.7 6.39999 14.74C6.35999 14.77 6.32 14.8 6.27 14.82C6.22 14.84 6.17 14.85 6.12 14.85C6.06999 14.86 6.02 14.85 5.97 14.83C5.92 14.81 5.88 14.78 5.84 14.74C5.77 14.67 5.68 14.61 5.59 14.58C5.5 14.55 5.41 14.53 5.31 14.53C5.21 14.53 5.12 14.55 5.03 14.59C4.94 14.62 4.87 14.68 4.8 14.74C4.73 14.81 4.68 14.89 4.64 14.98C4.6 15.07 4.57001 15.16 4.57001 15.27C4.57001 15.37 4.59 15.46 4.63 15.55C4.67 15.64 4.72 15.72 4.78 15.79C4.85 15.86 4.91999 15.91 5.00999 15.95C5.09999 15.99 5.19 16.01 5.3 16.02C5.4 16.02 5.49 16 5.58 15.97C5.67 15.93 5.75 15.88 5.83 15.8C5.87 15.76 5.91001 15.73 5.96001 15.72C6.01001 15.7 6.06 15.69 6.11 15.69C6.16 15.69 6.21999 15.7 6.25999 15.71C6.30999 15.73 6.36 15.76 6.39 15.79C6.43 15.83 6.46 15.87 6.48 15.92C6.5 15.97 6.50999 16.02 6.50999 16.08C6.50999 16.13 6.5 16.18 6.48 16.23C6.46 16.27 6.42999 16.32 6.39999 16.35C6.23999 16.51 6.07 16.62 5.88 16.7C5.69 16.77 5.49999 16.81 5.28999 16.81C5.15999 16.81 5.01999 16.79 4.89999 16.76C4.76999 16.72 4.65 16.67 4.53 16.6C4.42 16.54 4.32 16.46 4.23 16.36ZM16.61 14.82C16.66 14.82 16.71 14.83 16.76 14.85C16.81 14.87 16.85 14.9 16.89 14.94C16.92 14.98 16.95 15.02 16.97 15.07C16.99 15.12 17 15.17 17 15.23C17 15.28 16.99 15.33 16.97 15.38C16.95 15.43 16.92 15.47 16.89 15.5C16.85 15.54 16.81 15.57 16.76 15.59C16.71 15.61 16.66 15.62 16.61 15.62H15.72V15.98H16.79C16.85 15.98 16.9 16 16.95 16.02C16.99 16.04 17.04 16.07 17.07 16.11C17.11 16.14 17.14 16.19 17.16 16.24C17.17 16.28 17.18 16.34 17.18 16.39C17.18 16.45 17.17 16.5 17.16 16.55C17.14 16.59 17.11 16.64 17.07 16.67C17.04 16.71 16.99 16.73 16.95 16.75C16.9 16.77 16.85 16.78 16.79 16.78H15.28C15.23 16.78 15.18 16.76 15.14 16.74C15.1 16.72 15.06 16.69 15.02 16.66C14.99 16.63 14.97 16.59 14.95 16.54C14.93 16.5 14.92 16.45 14.92 16.39V14.15C14.92 14.1 14.93 14.05 14.95 14C14.97 13.95 15 13.91 15.03 13.87C15.07 13.84 15.11 13.81 15.16 13.79C15.21 13.76 15.26 13.75 15.32 13.75H16.79C16.85 13.75 16.9 13.76 16.95 13.79C16.99 13.81 17.04 13.84 17.07 13.87C17.11 13.91 17.14 13.95 17.16 14C17.17 14.05 17.18 14.1 17.18 14.15C17.18 14.21 17.17 14.26 17.16 14.31C17.14 14.36 17.11 14.4 17.07 14.43C17.04 14.47 16.99 14.5 16.95 14.52C16.9 14.54 16.85 14.55 16.79 14.55H15.72V14.82H16.61ZM13.83 15.84C13.82 15.82 13.8 15.8 13.77 15.78C13.74 15.76 13.72 15.74 13.69 15.73C13.66 15.72 13.63 15.71 13.61 15.71C13.39 15.67 13.21 15.61 13.06 15.55C12.91 15.49 12.79 15.42 12.69 15.34C12.6 15.25 12.52 15.16 12.48 15.05C12.43 14.93 12.41 14.81 12.41 14.67C12.41 14.52 12.44 14.39 12.5 14.28C12.56 14.16 12.64 14.07 12.74 13.99C12.85 13.9 12.97 13.84 13.1 13.8C13.24 13.76 13.38 13.73 13.54 13.73C13.63 13.73 13.73 13.74 13.83 13.76C13.92 13.78 14.01 13.81 14.1 13.85C14.19 13.88 14.27 13.93 14.34 13.99C14.41 14.04 14.47 14.11 14.51 14.18C14.54 14.23 14.56 14.29 14.56 14.34C14.56 14.4 14.55 14.45 14.53 14.49C14.51 14.54 14.48 14.58 14.44 14.61C14.41 14.65 14.37 14.67 14.32 14.69C14.27 14.71 14.22 14.72 14.17 14.72C14.13 14.72 14.09 14.71 14.05 14.7C14.01 14.69 13.97 14.67 13.93 14.65C13.9 14.63 13.87 14.6 13.84 14.59C13.81 14.57 13.77 14.55 13.74 14.53C13.71 14.52 13.67 14.51 13.63 14.5C13.59 14.49 13.55 14.49 13.5 14.49C13.44 14.49 13.39 14.49 13.36 14.5C13.32 14.5 13.3 14.51 13.28 14.52C13.26 14.53 13.25 14.54 13.24 14.56C13.24 14.58 13.23 14.61 13.23 14.64C13.23 14.68 13.24 14.72 13.26 14.75C13.28 14.78 13.31 14.8 13.35 14.83C13.4 14.85 13.46 14.87 13.54 14.9C13.62 14.93 13.72 14.96 13.84 15C13.93 15.02 14.03 15.06 14.13 15.1C14.23 15.14 14.32 15.19 14.4 15.26C14.48 15.33 14.55 15.42 14.6 15.53C14.65 15.64 14.68 15.77 14.68 15.94C14.68 16.06 14.65 16.17 14.6 16.28C14.54 16.38 14.47 16.47 14.37 16.55C14.27 16.63 14.16 16.7 14.03 16.74C13.89 16.79 13.75 16.81 13.59 16.81C13.33 16.81 13.11 16.77 12.91 16.68C12.72 16.59 12.56 16.48 12.44 16.33C12.4 16.29 12.38 16.25 12.36 16.2C12.35 16.16 12.34 16.11 12.34 16.07C12.34 16 12.35 15.94 12.38 15.89C12.4 15.84 12.43 15.79 12.47 15.75C12.51 15.72 12.55 15.69 12.6 15.67C12.64 15.65 12.69 15.64 12.73 15.64C12.78 15.64 12.84 15.65 12.89 15.68C12.95 15.71 13.01 15.75 13.07 15.8C13.1 15.83 13.14 15.86 13.18 15.89C13.21 15.92 13.25 15.95 13.3 15.98C13.34 16 13.38 16.02 13.44 16.04C13.49 16.05 13.55 16.06 13.61 16.06C13.69 16.06 13.75 16.05 13.8 16.03C13.84 16.01 13.86 15.97 13.86 15.93C13.86 15.9 13.85 15.87 13.83 15.84ZM12.13 15.27C12.13 15.49 12.09 15.68 12.01 15.87C11.93 16.06 11.82 16.22 11.68 16.36C11.54 16.5 11.37 16.61 11.19 16.69C11 16.77 10.8 16.81 10.59 16.81C10.37 16.81 10.17 16.77 9.99001 16.69C9.80001 16.61 9.64 16.5 9.5 16.36C9.36 16.22 9.25999 16.06 9.17999 15.87C9.09999 15.68 9.06 15.49 9.06 15.27C9.06 15.06 9.09999 14.86 9.17999 14.67C9.25999 14.49 9.36 14.32 9.5 14.19C9.64 14.05 9.80001 13.94 9.99001 13.86C10.17 13.77 10.37 13.73 10.59 13.73C10.8 13.73 11 13.77 11.19 13.86C11.37 13.94 11.54 14.05 11.68 14.19C11.82 14.32 11.93 14.49 12.01 14.67C12.09 14.86 12.13 15.06 12.13 15.27ZM8.64 15.99C8.69 15.99 8.74999 16 8.78999 16.02C8.83999 16.04 8.88 16.07 8.92 16.11C8.95 16.15 8.98 16.19 9 16.24C9.02 16.29 9.03 16.34 9.03 16.39C9.03 16.45 9.02 16.5 9 16.55C8.98 16.6 8.95 16.64 8.92 16.67C8.88 16.71 8.83999 16.73 8.78999 16.75C8.74999 16.77 8.69 16.78 8.64 16.78H7.28999C7.22999 16.78 7.17 16.76 7.12 16.74C7.06999 16.72 7.03001 16.69 6.99001 16.65C6.95001 16.61 6.93 16.57 6.91 16.51C6.88 16.46 6.87 16.39 6.87 16.32V14.14C6.87 14.09 6.88 14.04 6.91 13.99C6.93 13.94 6.95001 13.9 6.99001 13.87C7.03001 13.83 7.06999 13.8 7.12 13.78C7.16 13.76 7.22 13.75 7.27 13.75C7.33 13.75 7.37999 13.76 7.42999 13.78C7.47999 13.8 7.52 13.83 7.56 13.87C7.59 13.9 7.62 13.94 7.64 13.99C7.66 14.04 7.67 14.09 7.67 14.14V15.98L8.64 15.99ZM12 3.52C12.44 3.52 12.79 3.88 12.79 4.31C12.79 4.75 12.44 5.1 12 5.1C11.56 5.1 11.21 4.75 11.21 4.31C11.21 3.88 11.56 3.52 12 3.52ZM10.68 6.18C11.05 6.45 11.51 6.6 12 6.6C12.47 6.6 12.91 6.46 13.27 6.22L17.47 10.41H6.45L10.68 6.18Z" fill="black"/>
</svg>
