<svg width="24" height="24" viewBox="0 0 24 24" fill="none" xmlns="http://www.w3.org/2000/svg">
<path d="M22 12C22 6.48 17.51 2 12 2C6.49 2 2 6.48 2 12C2 17.51 6.49 22 12 22C13.5 22 14.96 21.66 16.32 21.01L21.09 21.71C21.32 21.74 21.56 21.67 21.73 21.5C21.9 21.33 21.98 21.1 21.94 20.86L21.21 15.88C21.73 14.64 22 13.33 22 12ZM13.81 15.07C13.81 14.38 14.38 13.81 15.08 13.81C15.78 13.81 16.34 14.38 16.34 15.07C16.34 15.77 15.78 16.34 15.08 16.34C14.38 16.34 13.81 15.77 13.81 15.07ZM8.92 7.65C9.62 7.65 10.19 8.22 10.19 8.92C10.19 9.62 9.62 10.18 8.92 10.18C8.22 10.18 7.66 9.62 7.66 8.92C7.66 8.22 8.22 7.65 8.92 7.65ZM9.52 15.19C9.33 15.19 9.14001 15.12 8.99001 14.97C8.70001 14.68 8.70001 14.2 8.99001 13.91L13.86 9.04C14.15 8.75 14.63 8.75 14.92 9.04C15.21 9.33 15.21 9.81 14.92 10.1L10.05 14.97C9.9 15.12 9.71 15.19 9.52 15.19Z" fill="black"/>
</svg>
