<svg width="24" height="24" viewBox="0 0 24 24" fill="none" xmlns="http://www.w3.org/2000/svg">
<path d="M21.47 10.7C21.46 10.7 21.46 10.7 21.47 10.7L19.65 8.89V6.24C19.65 5.2 18.8 4.35 17.75 4.35H15.11L13.29 2.53C12.6 1.84 11.4 1.84 10.71 2.53L8.88998 4.35H6.24998C5.19998 4.35 4.34998 5.2 4.34998 6.24V8.89L2.52998 10.7C1.81998 11.42 1.81997 12.58 2.53997 13.29L4.34998 15.1V17.75C4.34998 18.8 5.19998 19.65 6.24998 19.65H8.88998L10.71 21.46C11.05 21.81 11.51 22 12 22C12.49 22 12.95 21.81 13.29 21.46L15.11 19.65H17.75C18.8 19.65 19.65 18.8 19.65 17.75V15.1L21.47 13.29C22.18 12.58 22.18 11.42 21.47 10.7ZM15.12 16.33C14.43 16.33 13.86 15.76 13.86 15.06C13.86 14.37 14.43 13.8 15.12 13.8C15.82 13.8 16.39 14.37 16.39 15.06C16.39 15.76 15.82 16.33 15.12 16.33ZM8.96998 7.64C9.65998 7.64 10.23 8.21 10.23 8.91C10.23 9.6 9.65998 10.17 8.96998 10.17C8.26998 10.17 7.69998 9.6 7.69998 8.91C7.69998 8.21 8.26998 7.64 8.96998 7.64ZM9.02998 13.9L13.91 9.03C14.2 8.74 14.67 8.74 14.97 9.03C15.26 9.32 15.26 9.8 14.97 10.09L10.09 14.96C9.94998 15.11 9.75998 15.18 9.55998 15.18C9.36998 15.18 9.17998 15.11 9.02998 14.96C8.73998 14.67 8.73998 14.19 9.02998 13.9Z" fill="black"/>
</svg>
