<svg width="24" height="24" viewBox="0 0 24 24" fill="none" xmlns="http://www.w3.org/2000/svg">
<path d="M21.52 10.05C21.34 7.62 19.79 5.55 17.57 4.68C17.6 4.49 17.61 4.29 17.6 4.07C17.58 3.77 17.55 3.16 17.05 2.62C16.83 2.39 16.33 2 15.46 2H8.54001C7.67001 2 7.17002 2.39 6.95002 2.63C6.59002 3.02 6.40001 3.53 6.40001 4.11C6.40001 4.28 6.42003 4.47 6.46003 4.66C4.22003 5.53 2.66002 7.61 2.48002 10.05L2.01001 16.14C1.97001 16.44 2.08001 16.74 2.29001 16.99C2.50001 17.23 2.81002 17.37 3.14002 17.37H4.08002V15.87V13.76C4.08002 13.48 4.30002 13.26 4.58002 13.26C4.86002 13.26 5.08002 13.48 5.08002 13.76V15.87V17.37V19.32C5.08002 20.8 6.29002 21.99 7.77002 21.99H12H16.23C17.71 21.99 18.92 20.8 18.92 19.32V17.37V15.87V13.76C18.92 13.48 19.14 13.26 19.42 13.26C19.7 13.26 19.92 13.48 19.92 13.76V15.87V17.37H20.86C21.19 17.37 21.5 17.23 21.71 16.99C21.92 16.74 22.03 16.44 22 16.15L21.52 10.05ZM9.71003 8.19C10.19 8.38 10.69 8.52 11.21 8.58V9.62C11.21 10.03 10.87 10.37 10.46 10.37C10.04 10.37 9.71003 10.03 9.71003 9.62V8.19ZM14.29 10.97C14.29 11.38 13.96 11.72 13.54 11.72C13.13 11.72 12.79 11.38 12.79 10.97V8.58C13.31 8.52 13.81 8.38 14.29 8.19V10.97ZM8.04001 3.65C8.10001 3.59 8.24001 3.5 8.54001 3.5H15.46C15.76 3.5 15.9 3.59 15.95 3.65C16.07 3.78 16.09 3.95 16.1 4.16C16.12 4.43 16.04 4.66 15.96 4.8C15.17 6.24 13.65 7.14 12 7.14C10.35 7.14 8.83003 6.24 8.07003 4.87C8.07003 4.86 8.06002 4.86 8.06002 4.85C7.96002 4.59 7.90001 4.32 7.90001 4.11C7.90001 3.98 7.93001 3.78 8.04001 3.65Z" fill="black"/>
</svg>
