<svg width="24" height="24" viewBox="0 0 24 24" fill="none" xmlns="http://www.w3.org/2000/svg">
<path d="M20.25 11.25H17.35C17.36 11.16 17.38 11.08 17.38 11V3.75C17.38 2.78 16.59 2 15.62 2H8.38C7.41 2 6.62 2.78 6.62 3.75V11C6.62 11.08 6.64 11.16 6.65 11.25H3.75C2.79 11.25 2 12.03 2 13V20.25C2 21.21 2.79 22 3.75 22H11C11.37 22 11.72 21.88 12 21.68C12.28 21.88 12.63 22 13 22H20.25C21.21 22 22 21.21 22 20.25V13C22 12.03 21.21 11.25 20.25 11.25ZM11.25 20.25C11.25 20.38 11.14 20.5 11 20.5H3.75C3.61 20.5 3.5 20.38 3.5 20.25V13C3.5 12.86 3.61 12.75 3.75 12.75H4.86V15.8C4.86 16.06 5 16.3 5.22 16.44C5.44 16.57 5.71 16.58 5.95 16.47L7.39 15.75L8.8 16.47C8.9 16.52 9.02 16.55 9.14 16.55C9.27 16.55 9.41 16.51 9.53 16.44C9.75 16.3 9.89 16.06 9.89 15.8V12.75H11C11.14 12.75 11.25 12.86 11.25 13V20.25ZM8.38 11.25C8.24 11.25 8.12 11.13 8.12 11V3.75C8.12 3.61 8.24 3.5 8.38 3.5H9.49V6.55C9.49 6.81 9.62 7.05 9.84 7.19C10.06 7.32 10.34 7.34 10.57 7.22L12.02 6.5L13.42 7.22C13.53 7.27 13.65 7.3 13.76 7.3C13.9 7.3 14.03 7.26 14.15 7.19C14.38 7.05 14.51 6.81 14.51 6.55V3.5H15.62C15.76 3.5 15.88 3.61 15.88 3.75V11C15.88 11.13 15.76 11.25 15.62 11.25H8.38ZM20.5 20.25C20.5 20.38 20.39 20.5 20.25 20.5H13C12.86 20.5 12.75 20.38 12.75 20.25V13C12.75 12.86 12.86 12.75 13 12.75H14.11V15.8C14.11 16.06 14.25 16.3 14.47 16.44C14.69 16.57 14.96 16.58 15.2 16.47L16.64 15.75L18.05 16.47C18.15 16.52 18.27 16.55 18.39 16.55C18.52 16.55 18.66 16.51 18.78 16.44C19 16.3 19.14 16.06 19.14 15.8V12.75H20.25C20.39 12.75 20.5 12.86 20.5 13V20.25Z" fill="black"/>
</svg>
