<svg width="24" height="24" viewBox="0 0 24 24" fill="none" xmlns="http://www.w3.org/2000/svg">
<path d="M19.37 6.09H16.57C16.77 5.7 16.9 5.26 16.9 4.79C16.9 3.25 15.65 2 14.1 2C13.28 2 12.55 2.36 12.04 2.92C12.01 2.88 11.99 2.85 11.96 2.81C11.43 2.29 10.73 2 9.98 2C8.43 2 7.17999 3.25 7.17999 4.79C7.17999 5.25 7.29999 5.69 7.50999 6.09H4.63C3.18 6.09 2 7.27 2 8.72V12C2 12.41 2.34 12.75 2.75 12.75H3.03V19.05C3.03 20.66 4.34001 21.98 5.96001 21.98H9.84C9.88 21.98 9.91 22 9.94 22H14.06C14.09 22 14.12 21.98 14.16 21.98H18.04C19.66 21.98 20.97 20.66 20.97 19.05V12.75H21.25C21.66 12.75 22 12.41 22 12V8.72C22 7.27 20.82 6.09 19.37 6.09ZM9.19 11.25H3.5V8.72C3.5 8.09 4.01 7.59 4.63 7.59H9.19V11.25ZM9.06 5.71C8.81 5.47 8.67999 5.14 8.67999 4.79C8.67999 4.08 9.26 3.5 9.98 3.5C10.33 3.5 10.65 3.63 10.89 3.87C11.14 4.12 11.27 4.44 11.27 4.79C11.27 5.14 11.14 5.47 10.89 5.71C10.65 5.95 10.33 6.09 9.96001 6.09C9.61001 6.08 9.29 5.95 9.06 5.71ZM13.31 20.48H10.69V7.59H13.31V20.48ZM14.1 6.09C13.39 6.09 12.81 5.51 12.81 4.79C12.81 4.08 13.39 3.5 14.1 3.5C14.82 3.5 15.4 4.08 15.4 4.79C15.4 5.51 14.82 6.09 14.1 6.09ZM20.5 11.25H14.81V7.59H19.37C19.99 7.59 20.5 8.09 20.5 8.72V11.25Z" fill="black"/>
</svg>
