<svg width="24" height="24" viewBox="0 0 24 24" fill="none" xmlns="http://www.w3.org/2000/svg">
<path d="M21.57 5.1C21.43 3.69 20.31 2.56 18.9 2.43L14.52 2.01C13.6 1.92 12.69 2.25 12.03 2.91L2.92001 12.02C2.34001 12.6 2.01 13.37 2 14.18C1.99 14.99 2.28999 15.76 2.86999 16.33L7.66 21.13C8.24 21.71 8.99999 21.99 9.76999 21.99C10.56 21.99 11.36 21.69 11.97 21.08L21.08 11.97C21.74 11.31 22.07 10.4 21.99 9.48L21.57 5.1ZM15.66 6.48C16.17 5.96 17 5.97 17.52 6.48C18.03 6.99 18.03 7.82999 17.52 8.33999C17.26 8.59999 16.92 8.72 16.59 8.72C16.25 8.72 15.91 8.59999 15.66 8.33999C15.14 7.82999 15.14 6.99 15.66 6.48Z" fill="black"/>
</svg>
