<svg width="24" height="24" viewBox="0 0 24 24" fill="none" xmlns="http://www.w3.org/2000/svg">
<path d="M19.19 2H17.14H12H4.81C3.26 2 2 3.26 2 4.81V19.61C2 20.3 2.26 20.98 2.72 21.52C2.87 21.69 3.08 21.77 3.31 21.77C3.54 21.77 3.75001 21.66 3.89001 21.48L5.17001 19.78L6.42001 21.41C6.70001 21.78 7.13001 22 7.60001 22C8.07001 22 8.50001 21.78 8.79001 21.41L10.02 19.78L11.27 21.41C11.84 22.16 13.06 22.16 13.63 21.41L14.85 19.81L16.01 21.43C16.14 21.62 16.36 21.73 16.59 21.74C16.81 21.76 17.04 21.66 17.19 21.49C17.64 20.96 17.89 20.3 17.89 19.61V12.75H19.19C20.74 12.75 22 11.49 22 9.94V4.8C22 3.25 20.74 2 19.19 2ZM5.07999 15.08C5.07999 14.67 5.41999 14.33 5.82999 14.33H14.06C14.47 14.33 14.81 14.67 14.81 15.08C14.81 15.49 14.47 15.83 14.06 15.83H5.82999C5.41999 15.83 5.07999 15.49 5.07999 15.08ZM5.07999 10.97C5.07999 10.55 5.41999 10.22 5.82999 10.22H14.06C14.47 10.22 14.81 10.55 14.81 10.97C14.81 11.38 14.47 11.72 14.06 11.72H5.82999C5.41999 11.72 5.07999 11.38 5.07999 10.97ZM14.06 7.65H5.82999C5.41999 7.65 5.07999 7.32 5.07999 6.9C5.07999 6.49 5.41999 6.15 5.82999 6.15H14.06C14.47 6.15 14.81 6.49 14.81 6.9C14.81 7.32 14.47 7.65 14.06 7.65ZM20.5 9.94C20.5 10.66 19.91 11.25 19.19 11.25H17.89V4.8V3.5H19.19C19.91 3.5 20.5 4.08 20.5 4.8V9.94Z" fill="black"/>
</svg>
