<svg width="24" height="24" viewBox="0 0 24 24" fill="none" xmlns="http://www.w3.org/2000/svg">
<path d="M20.29 12.2C18.97 11.65 17.65 11.06 16.35 10.46L16.45 10.28C16.66 9.93 16.53 9.47 16.17 9.26C15.81 9.05 15.36 9.18 15.15 9.53L14.99 9.81C14.74 9.69 14.48 9.58 14.23 9.46L14.43 9.12C14.64 8.76 14.51 8.3 14.16 8.09C13.8 7.89 13.34 8.01 13.13 8.37L12.89 8.79C12.7 8.69 12.51 8.6 12.32 8.5L12.48 8.21C12.69 7.85 12.57 7.39 12.21 7.19C11.85 6.98 11.39 7.1 11.19 7.46L10.99 7.81C10.49 7.54 9.98002 7.28 9.49002 7.01C9.13002 6.81 8.67002 6.94 8.47002 7.3L7.88002 8.37C7.52002 8.57 7.13001 8.69 6.73001 8.74L6.62001 8.75C6.42001 8.77 5.80002 8.84 5.66002 8.75C5.63002 8.71 5.60002 8.55 5.58002 8.45C5.52002 8.2 5.46002 7.9 5.25002 7.61C4.83002 7 4.12002 6.68 3.44002 6.78C2.48002 6.94 1.80001 7.89 1.90001 8.92V14.12C1.90001 15.83 3.30001 17.23 5.01001 17.23H19.46C20.52 17.23 21.46 16.66 21.87 15.79C21.99 15.52 22.07 15.25 22.1 14.96C22.22 13.76 21.43 12.59 20.29 12.2ZM5.01001 15.73C4.40001 15.73 3.87002 15.38 3.60002 14.87H6.63002L7.21002 15.73H5.01001Z" fill="black"/>
</svg>
