<svg width="24" height="24" viewBox="0 0 24 24" fill="none" xmlns="http://www.w3.org/2000/svg">
<path d="M17.43 8.35C17.44 8.33 17.44 8.32 17.44 8.3V5.52C17.44 3.58 15.85 2 13.88 2C13.2 2 12.57 2.19 12.03 2.52C11.49 2.19 10.86 2 10.18 2C8.20999 2 6.60999 3.58 6.60999 5.52V5.92H5.69999C4.24999 5.92 3.01999 7.03 2.89999 8.45L2.00999 19.02C1.94999 19.77 2.20999 20.53 2.71999 21.09C3.24999 21.67 4.00999 22 4.79999 22H15.55C15.59 22 15.64 22 15.68 21.99C16.43 21.96 17.13 21.64 17.63 21.09C17.8 20.91 17.94 20.71 18.05 20.5C18.28 20.05 18.39 19.53 18.35 19.02L17.45 8.45C17.45 8.42 17.44 8.38 17.43 8.35ZM12.29 11.69C12.58 11.4 13.06 11.4 13.35 11.7C13.64 12 13.63 12.47 13.34 12.76L9.82999 16.23C9.67999 16.37 9.48999 16.44 9.29999 16.44C9.10999 16.44 8.91999 16.37 8.76999 16.23L7.01999 14.49C6.71999 14.2 6.71999 13.73 7.00999 13.43C7.29999 13.14 7.76999 13.14 8.06999 13.43L9.29999 14.64L12.29 11.69ZM13.88 3.5C15.02 3.5 15.94 4.4 15.94 5.52V5.92H13.74V5.52C13.74 4.82 13.53 4.17 13.18 3.62C13.4 3.54 13.63 3.5 13.88 3.5ZM11.82 5.52C11.82 5.2 11.89 4.91 12.03 4.64C12.17 4.91 12.24 5.2 12.24 5.52V5.92H11.82V5.52ZM8.10999 5.52C8.10999 4.4 9.03999 3.5 10.18 3.5C10.42 3.5 10.66 3.54 10.88 3.62C10.53 4.17 10.32 4.82 10.32 5.52V5.92H8.10999V5.52Z" fill="black"/>
<path d="M21.1 8.45C21 7.25 20.1 6.26 18.94 6V7.59V8.27C18.94 8.29 19.84 18.89 19.84 18.89C19.89 19.4 19.83 19.91 19.69 20.4C19.62 20.67 19.52 20.93 19.39 21.18C19.23 21.48 19.04 21.75 18.82 22H19.2C19.99 22 20.75 21.67 21.28 21.09C21.79 20.53 22.05 19.77 21.99 19.02L21.1 8.45Z" fill="black"/>
</svg>
