<svg width="24" height="24" viewBox="0 0 24 24" fill="none" xmlns="http://www.w3.org/2000/svg">
<path d="M21.46 6.05C21.09 5.6 20.55 5.34 19.97 5.34H6.65C6.38 5.34 6.12 5.4 5.87 5.51L5.44 3.5C5.25 2.63 4.47 2 3.58 2H2.75C2.34 2 2 2.33 2 2.75C2 3.16 2.34 3.5 2.75 3.5H3.58C3.77 3.5 3.94 3.63 3.98 3.82L4.78 7.56C4.78 7.6 4.78 7.63 4.79 7.67L6.31 14.66C6.31 14.69 6.33 14.72 6.34 14.75C5.38 15.01 4.67 15.88 4.67 16.92C4.67 18.16 5.68 19.17 6.92 19.17H7.41C7.26 19.44 7.17 19.75 7.17 20.08C7.17 21.14 8.02 22 9.08 22C10.13 22 10.98 21.14 10.98 20.08C10.98 19.75 10.89 19.44 10.74 19.17H15.28C15.13 19.44 15.04 19.75 15.04 20.08C15.04 21.14 15.89 22 16.94 22C18 22 18.85 21.14 18.85 20.08C18.85 19.75 18.76 19.44 18.61 19.17H19.43C19.84 19.17 20.18 18.83 20.18 18.42C20.18 18 19.84 17.67 19.43 17.67H6.92C6.51 17.67 6.17 17.33 6.17 16.92C6.17 16.5 6.51 16.17 6.92 16.17H18.45C19.34 16.17 20.13 15.53 20.32 14.66L21.84 7.67C21.96 7.1 21.82 6.51 21.46 6.05ZM16.94 19.66C17.17 19.66 17.35 19.85 17.35 20.08C17.35 20.31 17.17 20.5 16.94 20.5C16.72 20.5 16.54 20.31 16.54 20.08C16.54 19.85 16.72 19.66 16.94 19.66ZM9.08 19.66C9.3 19.66 9.48 19.85 9.48 20.08C9.48 20.31 9.3 20.5 9.08 20.5C8.85 20.5 8.67 20.31 8.67 20.08C8.67 19.85 8.85 19.66 9.08 19.66Z" fill="black"/>
</svg>
