<svg width="24" height="24" viewBox="0 0 24 24" fill="none" xmlns="http://www.w3.org/2000/svg">
<path d="M19.47 13.34C19.0427 13.4316 18.607 13.4785 18.17 13.48C17.0796 13.49 16.0085 13.1919 15.08 12.62C14.151 13.1821 13.0858 13.4792 12 13.4792C10.9142 13.4792 9.84903 13.1821 8.92 12.62C7.99154 13.1919 6.92043 13.49 5.83 13.48C5.39299 13.4785 4.95732 13.4316 4.53 13.34C4.07969 13.2493 3.64281 13.1015 3.23 12.9L3 12.79V18C3 18.7435 3.29468 19.4567 3.81949 19.9834C4.34431 20.5101 5.05648 20.8073 5.8 20.81H9.19V15.91C9.19 15.7111 9.26902 15.5203 9.40967 15.3797C9.55032 15.239 9.74109 15.16 9.94 15.16H14.06C14.2589 15.16 14.4497 15.239 14.5903 15.3797C14.731 15.5203 14.81 15.7111 14.81 15.91V20.77H18.17C18.9118 20.7754 19.6257 20.4871 20.1559 19.9682C20.686 19.4493 20.9895 18.7418 21 18V12.79L20.8 12.9C20.3777 13.1039 19.9306 13.2518 19.47 13.34Z" fill="black"/>
<path d="M5.52 3.23H8.39V11.16C7.65035 11.7102 6.75185 12.0051 5.83 12C5.38954 12.0028 4.95121 11.9388 4.53 11.81C4.30936 11.751 4.09501 11.6706 3.89 11.57C3.55386 11.4133 3.25155 11.1925 3 10.92C2.62425 10.5273 2.35033 10.0486 2.20217 9.52563C2.054 9.0027 2.03609 8.45145 2.15 7.92L2.73 5.19C2.90196 4.5942 3.27234 4.07504 3.77976 3.71857C4.28719 3.3621 4.90119 3.18972 5.52 3.23Z" fill="black"/>
<path d="M9.38998 3.23H14.61V11.11C13.857 11.6747 12.9412 11.98 12 11.98C11.0588 11.98 10.143 11.6747 9.38998 11.11V3.23Z" fill="black"/>
<path d="M21 10.91C20.7559 11.1753 20.4642 11.3924 20.14 11.55C19.935 11.6506 19.7206 11.731 19.5 11.79C19.0788 11.9188 18.6404 11.9828 18.2 11.98C17.2804 11.9908 16.3821 11.7031 15.64 11.16V3.23H18.51C19.1212 3.19557 19.7262 3.36836 20.2271 3.72042C20.7279 4.07247 21.0954 4.58321 21.27 5.17L21.85 7.87C21.8549 7.9065 21.8549 7.9435 21.85 7.98C21.9563 8.5007 21.9344 9.03944 21.7864 9.54984C21.6383 10.0602 21.3684 10.527 21 10.91Z" fill="black"/>
</svg>
