<svg width="24" height="24" viewBox="0 0 24 24" fill="none" xmlns="http://www.w3.org/2000/svg">
<path d="M21.25 10.51H19.43L14.17 5.07C14.24 4.84 14.29 4.6 14.29 4.34C14.29 3.05 13.26 2 12 2C10.74 2 9.71001 3.05 9.71001 4.34C9.71001 4.57 9.75 4.79 9.81 5L4.49001 10.51H2.75C2.34 10.51 2 10.85 2 11.26C2 11.68 2.34 12.01 2.75 12.01H2.99001L3.58 18.97C3.75 20.69 4.98 22 6.44 22H17.56C19.02 22 20.25 20.69 20.42 18.95L20.92 12.01H21.25C21.66 12.01 22 11.68 22 11.26C22 10.85 21.66 10.51 21.25 10.51ZM12 3.5C12.44 3.5 12.79 3.88 12.79 4.34C12.79 4.81 12.44 5.19 12 5.19C11.56 5.19 11.21 4.81 11.21 4.34C11.21 3.88 11.56 3.5 12 3.5ZM10.68 6.26C11.05 6.53 11.51 6.69 12 6.69C12.47 6.69 12.91 6.54 13.27 6.29L17.34 10.51H6.57001L10.68 6.26ZM7.08 17.32V15.19C7.08 14.77 7.42 14.44 7.83 14.44C8.25 14.44 8.58 14.77 8.58 15.19V17.32C8.58 17.73 8.25 18.07 7.83 18.07C7.42 18.07 7.08 17.73 7.08 17.32ZM11.19 17.32V15.19C11.19 14.77 11.53 14.44 11.94 14.44C12.36 14.44 12.69 14.77 12.69 15.19V17.32C12.69 17.73 12.36 18.07 11.94 18.07C11.53 18.07 11.19 17.73 11.19 17.32ZM16.8 17.32C16.8 17.73 16.47 18.07 16.05 18.07C15.64 18.07 15.3 17.73 15.3 17.32V15.19C15.3 14.77 15.64 14.44 16.05 14.44C16.47 14.44 16.8 14.77 16.8 15.19V17.32Z" fill="black"/>
</svg>
